# Blender 5.2.2 LTS
# www.blender.org
o pillar_1
v -3.917290 -13.695221 3.449980
v -3.179329 -13.695221 -3.505012
v 3.124340 -13.695221 3.622600
v 3.671471 -13.695221 -3.261531
v -3.880947 -7.506523 3.417838
v -3.675583 -1.107178 3.236211
v -3.842220 5.036865 3.383585
v -3.359890 5.036865 -3.709174
v -3.293705 -1.107178 -3.634338
v -3.346924 -7.506523 -3.694516
v 4.209591 5.036865 -3.737445
v 3.881680 -1.129349 -3.402476
v 3.752296 -7.506523 -3.333015
v 3.429668 4.983391 3.800172
v 3.869644 -1.316238 3.809851
v 3.150101 -7.506523 3.651725
v -3.920425 -13.767555 -0.205998
v -4.129902 8.367363 3.638011
v -3.385681 -10.709373 -3.738336
v 0.178509 -13.767555 -3.722826
v 3.849403 -10.709373 -3.418895
v 3.518780 -13.767555 0.250360
v 3.181644 -10.709373 3.687392
v -0.278511 -13.767555 3.727179
v -3.975445 -10.709373 3.501409
v -3.804390 -4.303680 3.350129
v -3.711349 1.961678 3.267843
v -3.526402 8.367363 -3.897451
v -3.329895 1.961678 -3.675258
v -3.278267 -4.303680 -3.616881
v 4.272923 8.367363 -3.793458
v 4.106876 1.948563 -3.620010
v 3.742306 -4.303680 -3.324179
v 3.399372 8.367363 3.933580
v 3.843937 1.752617 3.780787
v 3.319592 -4.349632 3.699311
v -0.276615 -7.506523 3.696280
v -0.220478 -1.131538 3.792999
v -0.302723 5.036865 4.121867
v 3.582756 -7.506523 0.254284
v 4.358917 -1.316238 0.219287
v 4.099033 4.983513 0.264874
v 0.179638 -7.506523 -3.741199
v 0.185490 -1.107178 -3.836634
v 0.209408 5.036865 -4.226514
v -3.944267 -7.506523 -0.207460
v -3.940063 -1.107178 -0.207203
v -3.916996 5.036865 -0.205788
v -4.022301 8.367363 -0.212247
v 0.212448 8.367363 -4.276031
v 4.251545 8.367363 0.295311
v -0.303082 8.367363 4.127737
v -0.051788 -14.701439 0.031323
v -0.284657 -10.709373 3.827376
v -0.275936 -4.303680 3.685212
v -0.235291 1.937119 4.042713
v 3.642254 -10.709373 0.257934
v 3.763348 -4.349701 0.247178
v 4.382370 1.752617 0.220726
v 0.187702 -10.709373 -3.872666
v 0.178802 -4.303680 -3.727581
v 0.195778 1.961678 -4.004291
v -4.122658 -10.709373 -0.218404
v -3.880955 -4.303680 -0.203577
v -3.973942 1.961678 -0.209281
v -4.387009 10.862808 3.865126
v -3.819572 10.838776 -4.224043
v 3.679249 10.825882 4.254935
v 4.425041 10.941223 -3.928260
v -4.195503 10.913795 -0.220710
v 0.208263 10.959305 -4.247643
v 4.275475 11.000084 0.298935
v -0.311604 10.928337 4.226755
vn -0.6140 -0.5387 0.5769
vn -0.5352 -0.5622 -0.6305
vn 0.5704 -0.5347 0.6235
vn 0.6420 -0.5477 -0.5365
vn -0.7274 0.0381 0.6852
vn -0.7403 -0.0133 0.6722
vn -0.7630 -0.0504 0.6445
vn -0.6937 -0.0382 -0.7192
vn -0.6625 -0.0250 -0.7487
vn -0.6494 0.0321 -0.7598
vn 0.7449 -0.0263 -0.6666
vn 0.7132 -0.0830 -0.6960
vn 0.7588 0.0126 -0.6511
vn 0.6541 0.0149 0.7563
vn 0.6742 -0.0852 0.7336
vn 0.6611 -0.0068 0.7502
vn -0.7490 -0.6588 -0.0702
vn -0.7573 -0.0870 0.6473
vn -0.6474 -0.0234 -0.7618
vn 0.0320 -0.6596 -0.7509
vn 0.7653 -0.0144 -0.6435
vn 0.7459 -0.6630 0.0638
vn 0.6721 -0.0057 0.7404
vn -0.0182 -0.6567 0.7539
vn -0.7275 0.0027 0.6861
vn -0.7321 0.0172 0.6809
vn -0.7546 -0.0342 0.6553
vn -0.6896 -0.0796 -0.7198
vn -0.6781 -0.0266 -0.7345
vn -0.6549 0.0017 -0.7557
vn 0.7498 -0.0358 -0.6607
vn 0.7245 -0.0437 -0.6879
vn 0.7332 -0.0580 -0.6776
vn 0.6445 -0.0641 0.7619
vn 0.6826 0.0200 0.7305
vn 0.6411 -0.0935 0.7617
vn -0.0343 0.0171 0.9993
vn -0.0727 -0.0283 0.9969
vn -0.0594 -0.0287 0.9978
vn 0.9965 -0.0110 0.0825
vn 0.9959 -0.0875 0.0242
vn 0.9954 0.0200 0.0936
vn 0.0459 0.0204 -0.9987
vn 0.0251 -0.0382 -0.9990
vn -0.0026 -0.0387 -0.9992
vn -0.9965 0.0307 -0.0780
vn -0.9982 -0.0062 -0.0602
vn -0.9973 -0.0283 -0.0682
vn -0.9946 -0.0717 -0.0748
vn 0.0111 -0.0352 -0.9993
vn 0.9934 -0.0398 0.1080
vn -0.0455 -0.0553 0.9974
vn 0.0035 -1.0000 -0.0012
vn -0.0256 0.0018 0.9997
vn -0.0538 -0.0056 0.9985
vn -0.0735 -0.0324 0.9968
vn 0.9960 -0.0103 0.0891
vn 0.9939 -0.0975 0.0519
vn 0.9987 0.0217 0.0458
vn 0.0424 -0.0141 -0.9990
vn 0.0401 -0.0084 -0.9992
vn 0.0054 -0.0500 -0.9987
vn -0.9961 -0.0100 -0.0880
vn -0.9974 0.0111 -0.0711
vn -0.9983 -0.0085 -0.0580
vn -0.7511 -0.1043 0.6520
vn -0.6775 -0.1053 -0.7279
vn 0.6472 -0.0995 0.7558
vn 0.7488 -0.0385 -0.6617
vn -0.9930 -0.0914 -0.0746
vn 0.0235 -0.0424 -0.9988
vn 0.9934 -0.0518 0.1027
vn -0.0433 -0.0772 0.9961
vt 0.562500 0.000000
vt 0.593750 0.000000
vt 0.593750 0.125000
vt 0.562500 0.125000
vt 0.593750 0.250000
vt 0.562500 0.250000
vt 0.593750 0.375000
vt 0.562500 0.375000
vt 0.593750 0.500000
vt 0.562500 0.500000
vt 0.593750 0.625000
vt 0.562500 0.625000
vt 0.593750 0.750000
vt 0.562500 0.750000
vt 0.593750 0.875000
vt 0.562500 0.875000
vt 0.593750 1.000000
vt 0.562500 1.000000
vt 0.125000 0.500000
vt 0.250000 0.500000
vt 0.250000 0.625000
vt 0.125000 0.625000
vt 0.375000 0.500000
vt 0.370766 0.625000
vt 0.375000 0.750000
vt 0.250000 0.750000
vt 0.125000 0.750000
vt 0.406250 0.750000
vt 0.406250 0.875000
vt 0.375000 0.875000
vt 0.437500 0.750000
vt 0.437500 0.875000
vt 0.437500 1.000000
vt 0.406250 1.000000
vt 0.375000 1.000000
vt 0.468750 0.750000
vt 0.468750 0.875000
vt 0.500000 0.750000
vt 0.500000 0.875000
vt 0.500000 1.000000
vt 0.468750 1.000000
vt 0.531250 0.750000
vt 0.531250 0.875000
vt 0.531250 1.000000
vt 0.406250 0.500000
vt 0.406250 0.625000
vt 0.437500 0.500000
vt 0.437500 0.625000
vt 0.468750 0.500000
vt 0.468750 0.625000
vt 0.500000 0.500000
vt 0.500000 0.625000
vt 0.531250 0.500000
vt 0.531250 0.625000
vt 0.375000 0.250000
vt 0.406250 0.250000
vt 0.406250 0.375000
vt 0.375000 0.375000
vt 0.437500 0.250000
vt 0.437500 0.375000
vt 0.468750 0.250000
vt 0.468750 0.375000
vt 0.500000 0.250000
vt 0.500000 0.375000
vt 0.531250 0.250000
vt 0.531250 0.375000
vt 0.375000 0.000000
vt 0.406250 0.000000
vt 0.406250 0.125000
vt 0.375000 0.125000
vt 0.437500 0.000000
vt 0.437500 0.125000
vt 0.468750 0.000000
vt 0.468750 0.125000
vt 0.500000 0.000000
vt 0.500000 0.125000
vt 0.531250 0.000000
vt 0.531250 0.125000
vt 0.618564 0.875000
vt 0.618425 1.000000
vt 0.618425 0.000000
vt 0.618528 0.125000
vt 0.618381 0.250000
vt 0.618643 0.375000
vt 0.618356 0.750000
vt 0.622089 0.625000
vt 0.618579 0.500000
s 1
f 7/1/7 18/2/18 49/3/49 48/4/48
f 48/4/48 49/3/49 28/5/28 8/6/8
f 8/6/8 28/5/28 50/7/50 45/8/45
f 45/8/45 50/7/50 31/9/31 11/10/11
f 11/10/11 31/9/31 51/11/51 42/12/42
f 42/12/42 51/11/51 34/13/34 14/14/14
f 14/14/14 34/13/34 52/15/52 39/16/39
f 39/16/39 52/15/52 18/17/18 7/18/7
f 2/19/2 20/20/20 53/21/53 17/22/17
f 20/20/20 4/23/4 22/24/22 53/21/53
f 53/21/53 22/24/22 3/25/3 24/26/24
f 17/22/17 53/21/53 24/26/24 1/27/1
f 3/25/3 23/28/23 54/29/54 24/30/24
f 23/28/23 16/31/16 37/32/37 54/29/54
f 54/29/54 37/32/37 5/33/5 25/34/25
f 24/30/24 54/29/54 25/34/25 1/35/1
f 16/31/16 36/36/36 55/37/55 37/32/37
f 36/36/36 15/38/15 38/39/38 55/37/55
f 55/37/55 38/39/38 6/40/6 26/41/26
f 37/32/37 55/37/55 26/41/26 5/33/5
f 15/38/15 35/42/35 56/43/56 38/39/38
f 35/42/35 14/14/14 39/16/39 56/43/56
f 56/43/56 39/16/39 7/18/7 27/44/27
f 38/39/38 56/43/56 27/44/27 6/40/6
f 4/23/4 21/45/21 57/46/57 22/24/22
f 21/45/21 13/47/13 40/48/40 57/46/57
f 57/46/57 40/48/40 16/31/16 23/28/23
f 22/24/22 57/46/57 23/28/23 3/25/3
f 13/47/13 33/49/33 58/50/58 40/48/40
f 33/49/33 12/51/12 41/52/41 58/50/58
f 58/50/58 41/52/41 15/38/15 36/36/36
f 40/48/40 58/50/58 36/36/36 16/31/16
f 12/51/12 32/53/32 59/54/59 41/52/41
f 32/53/32 11/10/11 42/12/42 59/54/59
f 59/54/59 42/12/42 14/14/14 35/42/35
f 41/52/41 59/54/59 35/42/35 15/38/15
f 2/55/2 19/56/19 60/57/60 20/58/20
f 19/56/19 10/59/10 43/60/43 60/57/60
f 60/57/60 43/60/43 13/47/13 21/45/21
f 20/58/20 60/57/60 21/45/21 4/23/4
f 10/59/10 30/61/30 61/62/61 43/60/43
f 30/61/30 9/63/9 44/64/44 61/62/61
f 61/62/61 44/64/44 12/51/12 33/49/33
f 43/60/43 61/62/61 33/49/33 13/47/13
f 9/63/9 29/65/29 62/66/62 44/64/44
f 29/65/29 8/6/8 45/8/45 62/66/62
f 62/66/62 45/8/45 11/10/11 32/53/32
f 44/64/44 62/66/62 32/53/32 12/51/12
f 1/67/1 25/68/25 63/69/63 17/70/17
f 25/68/25 5/71/5 46/72/46 63/69/63
f 63/69/63 46/72/46 10/59/10 19/56/19
f 17/70/17 63/69/63 19/56/19 2/55/2
f 5/71/5 26/73/26 64/74/64 46/72/46
f 26/73/26 6/75/6 47/76/47 64/74/64
f 64/74/64 47/76/47 9/63/9 30/61/30
f 46/72/46 64/74/64 30/61/30 10/59/10
f 6/75/6 27/77/27 65/78/65 47/76/47
f 27/77/27 7/1/7 48/4/48 65/78/65
f 65/78/65 48/4/48 8/6/8 29/65/29
f 47/76/47 65/78/65 29/65/29 9/63/9
f 52/15/52 73/79/73 66/80/66 18/17/18
f 18/2/18 66/81/66 70/82/70 49/3/49
f 28/5/28 67/83/67 71/84/71 50/7/50
f 49/3/49 70/82/70 67/83/67 28/5/28
f 34/13/34 68/85/68 73/79/73 52/15/52
f 51/11/51 72/86/72 68/85/68 34/13/34
f 31/9/31 69/87/69 72/86/72 51/11/51
f 50/7/50 71/84/71 69/87/69 31/9/31
