# Blender 5.2.2 LTS
# www.blender.org
o pillar_1.001
v -0.051788 11.710541 0.031323
v -3.777824 11.545036 3.331084
v -4.387009 10.862808 3.865126
v -3.307755 11.534386 -3.660251
v -3.819572 10.838776 -4.224043
v 3.195129 11.536400 3.686972
v 3.679249 10.825882 4.254935
v 3.792885 11.617310 -3.359760
v 4.425041 10.941223 -3.928260
v -3.618206 11.607407 -0.184712
v -4.195503 10.913795 -0.220710
v 0.168114 11.641266 -3.612432
v 0.208263 10.959305 -4.247643
v 3.658539 11.678299 0.261649
v 4.275475 11.000084 0.298935
v -0.276066 11.618111 3.627636
v -0.311604 10.928337 4.226755
vn -0.0080 1.0000 0.0039
vn -0.3658 0.8755 0.3158
vn -0.4901 0.7618 0.4237
vn -0.3378 0.8704 -0.3582
vn -0.4540 0.7496 -0.4817
vn 0.3179 0.8670 0.3836
vn 0.4283 0.7397 0.5190
vn 0.3403 0.8882 -0.3086
vn 0.4590 0.7841 -0.4177
vn -0.4369 0.8990 -0.0304
vn -0.7644 0.6424 -0.0542
vn 0.0055 0.9077 -0.4195
vn 0.0200 0.6695 -0.7426
vn 0.4204 0.9061 0.0468
vn 0.7439 0.6640 0.0755
vn -0.0227 0.8999 0.4354
vn -0.0353 0.6495 0.7595
vt 0.625000 0.021272
vt 0.625000 0.125136
vt 0.618528 0.125000
vt 0.618425 0.000000
vt 0.625000 0.249994
vt 0.618381 0.250000
vt 0.625000 0.374567
vt 0.618643 0.375000
vt 0.639482 0.507220
vt 0.618579 0.500000
vt 0.649423 0.625000
vt 0.622089 0.625000
vt 0.640002 0.741941
vt 0.618356 0.750000
vt 0.625000 0.874759
vt 0.618564 0.875000
vt 0.625000 0.978735
vt 0.618425 1.000000
vt 0.750000 0.625000
vt 0.853380 0.625000
vt 0.853224 0.728259
vt 0.750000 0.728540
vt 0.750000 0.521192
vt 0.853020 0.521872
s 1
f 2/1/2 10/2/10 11/3/11 3/4/3
f 10/2/10 4/5/4 5/6/5 11/3/11
f 4/5/4 12/7/12 13/8/13 5/6/5
f 12/7/12 8/9/8 9/10/9 13/8/13
f 8/9/8 14/11/14 15/12/15 9/10/9
f 14/11/14 6/13/6 7/14/7 15/12/15
f 6/13/6 16/15/16 17/16/17 7/14/7
f 16/15/16 2/17/2 3/18/3 17/16/17
f 1/19/1 10/20/10 2/21/2 16/22/16
f 12/23/12 4/24/4 10/20/10 1/19/1
f 14/11/14 1/19/1 16/22/16 6/13/6
f 8/9/8 12/23/12 1/19/1 14/11/14
