# Blender 5.2.2 LTS
# www.blender.org
o wall_small_3
v -0.951423 3.790270 9.560249
v -2.496338 -4.151098 8.816502
v -1.181940 5.095236 -11.397105
v -2.358115 -4.013466 -10.389206
v 3.144873 3.123358 9.287418
v 0.362535 -4.889503 8.676888
v 2.752662 4.126136 -10.547623
v 1.597107 -4.214944 -10.040265
v -1.977797 0.144783 9.466553
v -2.354474 0.588233 -12.624254
v 2.592313 -0.189180 -10.860570
v 2.141843 -0.655773 8.932496
v -1.494052 4.731388 -3.702535
v -1.419879 4.304633 3.810287
v -2.783448 -4.469778 3.311652
v -3.002549 -4.744974 -3.545450
v 3.277704 3.476268 3.445914
v 3.098067 3.910065 -3.908734
v 1.295559 -5.474746 -3.458633
v 1.274739 -5.811499 3.043308
v 2.987538 -0.421195 -3.690541
v 3.660853 -0.634226 2.484982
v -2.637744 0.425879 3.582675
v -3.007541 0.601677 -3.607564
v -1.289450 4.080728 7.470222
v -2.357666 -2.274888 8.985115
v -2.886984 -4.504537 -7.181705
v -1.929035 3.248848 -12.395073
v 0.853420 4.715517 -11.076917
v -0.396381 -4.256170 -10.355191
v 2.792723 2.335127 -10.340291
v 3.095552 4.167925 -7.803295
v 0.850558 -5.412101 6.251300
v 3.005502 1.720025 9.412165
v 1.165543 3.628313 9.808259
v -1.170768 -4.733667 8.867351
v -1.522501 2.505134 9.794258
v -2.490970 -1.932467 -11.170978
v 2.352586 -2.491564 -11.130126
v 1.225832 -3.108609 9.062656
v 0.009224 -0.282203 9.913201
v 3.453517 -0.913871 6.879819
v 0.204671 0.212564 -12.968596
v -3.196976 0.671219 -7.987768
v -1.538412 5.356101 -7.924804
v -1.469990 4.516058 0.063762
v -2.945177 -4.693704 6.695676
v -2.879610 -4.600072 -0.048490
v 3.392943 3.294888 7.130617
v 3.157905 3.684338 -0.230318
v 1.699111 -5.262053 -6.913261
v 1.290461 -5.748907 -0.375369
v 2.981330 -0.312980 -6.744164
v 3.314378 -0.505729 -0.708883
v -2.554113 0.327854 7.023180
v -2.705488 0.516092 -0.023058
v -2.278683 2.812695 3.731695
v -2.410324 3.063672 -3.659329
v 3.441824 2.003195 -3.825798
v 3.856169 1.756070 2.922415
v -0.901254 -5.421214 -3.431630
v -1.039461 -5.914396 3.067657
v 0.869045 4.779979 -3.842840
v 0.949029 4.297046 3.695801
v 2.695227 -3.259300 -3.593623
v 2.989736 -3.606683 2.799049
v -2.913721 -2.074116 3.460255
v -3.303478 -2.068568 -3.539854
v -3.430174 -2.052511 -7.623901
v -0.079111 -2.119092 -12.798597
v 2.393644 -3.498852 6.761461
v -0.671675 -2.645745 9.272416
v 1.109150 4.008630 7.575637
v -1.248599 -5.966011 6.369359
v 0.727677 2.126549 10.340853
v 3.746729 1.663855 6.558454
v 0.560949 2.757736 -12.992620
v -2.724795 3.376327 -8.023691
v -2.168292 2.681897 7.305071
v -2.347205 2.939250 0.042029
v 3.411043 2.142827 -7.332622
v 3.655518 1.876833 -0.468528
v -0.656123 -4.916240 -6.589502
v -0.920695 -5.421572 -0.135973
v 0.899567 5.037716 -7.893535
v 0.879327 4.532590 -0.073602
v 2.922646 -2.917148 -6.892001
v 2.767920 -3.328532 -0.807382
v -2.856681 -2.141994 6.709885
v -2.960538 -2.003132 -0.036786
vn -0.4235 0.8064 0.4127
vn -0.8328 -0.2968 0.4673
vn -0.4155 0.8543 -0.3122
vn -0.6256 -0.6784 -0.3851
vn 0.7826 0.5009 0.3698
vn 0.3760 -0.7402 0.5575
vn 0.7938 0.5254 -0.3063
vn 0.5526 -0.7577 -0.3471
vn -0.8769 0.0612 0.4768
vn -0.9002 0.0449 -0.4331
vn 0.9465 -0.0760 -0.3135
vn 0.7022 -0.2786 0.6552
vn -0.6099 0.7882 0.0817
vn -0.6139 0.7871 0.0592
vn -0.9320 -0.3617 -0.0226
vn -0.8584 -0.5129 0.0030
vn 0.7914 0.6111 0.0142
vn 0.8355 0.5491 0.0197
vn 0.5211 -0.8522 -0.0472
vn 0.5715 -0.8202 0.0271
vn 0.9899 -0.1372 -0.0348
vn 0.9850 -0.1717 -0.0179
vn -0.9913 0.1293 0.0243
vn -0.9866 0.1510 0.0618
vn -0.6175 0.7732 0.1446
vn -0.8937 0.0196 0.4483
vn -0.8176 -0.5595 -0.1362
vn -0.8439 0.3718 -0.3868
vn 0.3249 0.8703 -0.3701
vn -0.0733 -0.8977 -0.4345
vn 0.9490 0.0100 -0.3151
vn 0.8772 0.4761 -0.0621
vn 0.5211 -0.8240 0.2223
vn 0.8731 -0.0766 0.4814
vn 0.2021 0.8526 0.4819
vn -0.1704 -0.7297 0.6622
vn -0.8376 0.2957 0.4593
vn -0.8872 -0.1962 -0.4175
vn 0.9023 -0.2893 -0.3195
vn 0.6277 -0.4188 0.6562
vn 0.0286 -0.1861 0.9821
vn 0.9566 -0.2255 0.1844
vn 0.2744 -0.0790 -0.9584
vn -0.9904 0.1245 -0.0601
vn -0.6157 0.7879 -0.0151
vn -0.6225 0.7810 0.0506
vn -0.9395 -0.3286 0.0972
vn -0.9003 -0.4343 0.0277
vn 0.8609 0.4959 0.1134
vn 0.8019 0.5974 0.0047
vn 0.6461 -0.7565 -0.1011
vn 0.5462 -0.8354 -0.0612
vn 0.9926 -0.1077 -0.0559
vn 0.9844 -0.1540 -0.0855
vn -0.9848 0.1279 0.1177
vn -0.9894 0.1377 0.0463
vn -0.9467 0.3200 0.0361
vn -0.9379 0.3413 0.0615
vn 0.9995 0.0036 -0.0318
vn 0.9975 0.0686 -0.0176
vn -0.1931 -0.9792 -0.0629
vn -0.2578 -0.9658 -0.0292
vn 0.1941 0.9783 0.0723
vn 0.1692 0.9840 0.0563
vn 0.9462 -0.3234 -0.0106
vn 0.9137 -0.4060 0.0141
vn -0.9990 0.0435 0.0119
vn -0.9988 -0.0033 0.0483
vn -0.9955 -0.0490 -0.0813
vn 0.0756 -0.4504 -0.8896
vn 0.8577 -0.4559 0.2379
vn -0.0233 -0.1789 0.9836
vn 0.1731 0.9798 0.0998
vn -0.2594 -0.9544 0.1480
vn 0.0914 0.0173 0.9957
vn 0.9922 0.0137 0.1238
vn 0.3833 0.2521 -0.8886
vn -0.9428 0.3314 -0.0353
vn -0.9416 0.3132 0.1237
vn -0.9449 0.3252 0.0371
vn 0.9972 -0.0247 -0.0708
vn 0.9967 0.0536 -0.0612
vn -0.1283 -0.9789 -0.1592
vn -0.2613 -0.9645 -0.0386
vn 0.2339 0.9723 0.0030
vn 0.1730 0.9833 0.0570
vn 0.9661 -0.2537 -0.0483
vn 0.9308 -0.3594 -0.0673
vn -0.9935 0.0622 0.0954
vn -0.9984 0.0267 0.0497
vt 0.500000 0.166667
vt 0.562500 0.166667
vt 0.562500 0.209807
vt 0.500000 0.210102
vt 0.625000 0.166667
vt 0.625000 0.208333
vt 0.625000 0.250000
vt 0.562500 0.269783
vt 0.500000 0.270962
vt 0.562500 0.375000
vt 0.500000 0.375000
vt 0.625000 0.375000
vt 0.625000 0.500000
vt 0.562721 0.480217
vt 0.500000 0.479038
vt 0.500000 0.666667
vt 0.563826 0.666667
vt 0.563605 0.709807
vt 0.500000 0.710102
vt 0.640722 0.666667
vt 0.639838 0.708628
vt 0.625000 0.750000
vt 0.562721 0.769783
vt 0.500000 0.770962
vt 0.562500 0.876474
vt 0.500000 0.876768
vt 0.625000 0.875000
vt 0.625000 1.000000
vt 0.562500 1.000000
vt 0.500000 1.000000
vt 0.125000 0.666667
vt 0.248674 0.666667
vt 0.248895 0.708333
vt 0.125000 0.708333
vt 0.359278 0.666667
vt 0.360162 0.708628
vt 0.375000 0.750000
vt 0.250000 0.750000
vt 0.125000 0.750000
vt 0.751326 0.666667
vt 0.751105 0.708333
vt 0.875000 0.666667
vt 0.875000 0.708333
vt 0.875000 0.750000
vt 0.750000 0.750000
vt 0.437279 0.769783
vt 0.437500 0.876474
vt 0.375000 0.875000
vt 0.437500 1.000000
vt 0.375000 1.000000
vt 0.436174 0.666667
vt 0.436395 0.709807
vt 0.375000 0.250000
vt 0.437500 0.269783
vt 0.437500 0.375000
vt 0.375000 0.375000
vt 0.437279 0.480217
vt 0.375000 0.500000
vt 0.375000 0.166667
vt 0.437500 0.166667
vt 0.437500 0.209807
vt 0.375000 0.208333
vt 0.375000 0.000000
vt 0.437500 0.000000
vt 0.437500 0.041667
vt 0.375000 0.041667
vt 0.500000 0.000000
vt 0.500000 0.041667
vt 0.500000 0.083333
vt 0.437500 0.083333
vt 0.375000 0.083333
vt 0.437500 0.125000
vt 0.375000 0.125000
vt 0.500000 0.125000
vt 0.436395 0.540193
vt 0.360162 0.541372
vt 0.500000 0.539898
vt 0.500000 0.583333
vt 0.436174 0.583333
vt 0.359278 0.583333
vt 0.436174 0.625000
vt 0.359278 0.625000
vt 0.500000 0.625000
vt 0.750000 0.500000
vt 0.751105 0.541667
vt 0.639838 0.541372
vt 0.875000 0.500000
vt 0.875000 0.541667
vt 0.875000 0.583333
vt 0.751326 0.583333
vt 0.640722 0.583333
vt 0.751326 0.625000
vt 0.640722 0.625000
vt 0.875000 0.625000
vt 0.125000 0.500000
vt 0.250000 0.500000
vt 0.248895 0.541667
vt 0.125000 0.541667
vt 0.248674 0.583333
vt 0.125000 0.583333
vt 0.248674 0.625000
vt 0.125000 0.625000
vt 0.563605 0.540193
vt 0.563826 0.583333
vt 0.563826 0.625000
vt 0.562500 0.000000
vt 0.562500 0.041667
vt 0.625000 0.000000
vt 0.625000 0.041667
vt 0.625000 0.083333
vt 0.562500 0.083333
vt 0.562500 0.125000
vt 0.625000 0.125000
s 1
f 24/1/24 44/4/44 69/3/69 68/2/68
f 68/2/68 69/3/69 27/6/27 16/5/16
f 69/3/69 38/8/38 4/7/4 27/6/27
f 44/4/44 10/9/10 38/8/38 69/3/69
f 10/9/10 43/11/43 70/10/70 38/8/38
f 38/8/38 70/10/70 30/12/30 4/7/4
f 70/10/70 39/14/39 8/13/8 30/12/30
f 43/11/43 11/15/11 39/14/39 70/10/70
f 22/16/22 42/19/42 71/18/71 66/17/66
f 66/17/66 71/18/71 33/21/33 20/20/20
f 71/18/71 40/23/40 6/22/6 33/21/33
f 42/19/42 12/24/12 40/23/40 71/18/71
f 12/24/12 41/26/41 72/25/72 40/23/40
f 40/23/40 72/25/72 36/27/36 6/22/6
f 72/25/72 26/29/26 2/28/2 36/27/36
f 41/26/41 9/30/9 26/29/26 72/25/72
f 14/31/14 25/34/25 73/33/73 64/32/64
f 64/32/64 73/33/73 49/36/49 17/35/17
f 73/33/73 35/38/35 5/37/5 49/36/49
f 25/34/25 1/39/1 35/38/35 73/33/73
f 20/20/20 33/21/33 74/41/74 62/40/62
f 62/40/62 74/41/74 47/43/47 15/42/15
f 74/41/74 36/45/36 2/44/2 47/43/47
f 33/21/33 6/22/6 36/45/36 74/41/74
f 5/37/5 35/48/35 75/47/75 34/46/34
f 34/46/34 75/47/75 41/26/41 12/24/12
f 75/47/75 37/49/37 9/30/9 41/26/41
f 35/48/35 1/50/1 37/49/37 75/47/75
f 17/35/17 49/36/49 76/52/76 60/51/60
f 60/51/60 76/52/76 42/19/42 22/16/22
f 76/52/76 34/46/34 12/24/12 42/19/42
f 49/36/49 5/37/5 34/46/34 76/52/76
f 3/53/3 29/56/29 77/55/77 28/54/28
f 28/54/28 77/55/77 43/11/43 10/9/10
f 77/55/77 31/57/31 11/15/11 43/11/43
f 29/56/29 7/58/7 31/57/31 77/55/77
f 13/59/13 45/62/45 78/61/78 58/60/58
f 58/60/58 78/61/78 44/4/44 24/1/24
f 78/61/78 28/54/28 10/9/10 44/4/44
f 45/62/45 3/53/3 28/54/28 78/61/78
f 1/63/1 25/66/25 79/65/79 37/64/37
f 37/64/37 79/65/79 55/68/55 9/67/9
f 79/65/79 57/70/57 23/69/23 55/68/55
f 25/66/25 14/71/14 57/70/57 79/65/79
f 14/71/14 46/73/46 80/72/80 57/70/57
f 57/70/57 80/72/80 56/74/56 23/69/23
f 80/72/80 58/60/58 24/1/24 56/74/56
f 46/73/46 13/59/13 58/60/58 80/72/80
f 7/58/7 32/76/32 81/75/81 31/57/31
f 31/57/31 81/75/81 53/77/53 11/15/11
f 81/75/81 59/79/59 21/78/21 53/77/53
f 32/76/32 18/80/18 59/79/59 81/75/81
f 18/80/18 50/82/50 82/81/82 59/79/59
f 59/79/59 82/81/82 54/83/54 21/78/21
f 82/81/82 60/51/60 22/16/22 54/83/54
f 50/82/50 17/35/17 60/51/60 82/81/82
f 8/13/8 51/86/51 83/85/83 30/84/30
f 30/84/30 83/85/83 27/88/27 4/87/4
f 83/85/83 61/90/61 16/89/16 27/88/27
f 51/86/51 19/91/19 61/90/61 83/85/83
f 19/91/19 52/93/52 84/92/84 61/90/61
f 61/90/61 84/92/84 48/94/48 16/89/16
f 84/92/84 62/40/62 15/42/15 48/94/48
f 52/93/52 20/20/20 62/40/62 84/92/84
f 3/95/3 45/98/45 85/97/85 29/96/29
f 29/96/29 85/97/85 32/76/32 7/58/7
f 85/97/85 63/99/63 18/80/18 32/76/32
f 45/98/45 13/100/13 63/99/63 85/97/85
f 13/100/13 46/102/46 86/101/86 63/99/63
f 63/99/63 86/101/86 50/82/50 18/80/18
f 86/101/86 64/32/64 17/35/17 50/82/50
f 46/102/46 14/31/14 64/32/64 86/101/86
f 11/15/11 53/77/53 87/103/87 39/14/39
f 39/14/39 87/103/87 51/86/51 8/13/8
f 87/103/87 65/104/65 19/91/19 51/86/51
f 53/77/53 21/78/21 65/104/65 87/103/87
f 21/78/21 54/83/54 88/105/88 65/104/65
f 65/104/65 88/105/88 52/93/52 19/91/19
f 88/105/88 66/17/66 20/20/20 52/93/52
f 54/83/54 22/16/22 66/17/66 88/105/88
f 9/67/9 55/68/55 89/107/89 26/106/26
f 26/106/26 89/107/89 47/109/47 2/108/2
f 89/107/89 67/111/67 15/110/15 47/109/47
f 55/68/55 23/69/23 67/111/67 89/107/89
f 23/69/23 56/74/56 90/112/90 67/111/67
f 67/111/67 90/112/90 48/113/48 15/110/15
f 90/112/90 68/2/68 16/5/16 48/113/48
f 56/74/56 24/1/24 68/2/68 90/112/90
