# Blender 5.2.2 LTS
# www.blender.org
o wall_small_1
v 2.022064 -4.075327 -11.234318
v 1.890993 2.994278 -9.968082
v 2.039308 -4.114631 11.601246
v 1.843833 3.968052 10.255298
v -1.874289 -3.862614 -10.923995
v -1.581771 3.520415 -9.918602
v -2.060399 -4.043947 11.326847
v -1.644977 3.770419 10.511173
v 2.414889 -4.401911 6.774080
v 2.449126 -4.526157 2.185233
v 2.449202 -4.490699 -2.273224
v 2.372078 -4.290716 -6.818748
v 2.123847 3.653421 -6.724363
v 1.985969 3.534639 -2.306715
v 1.901440 2.965260 2.560740
v 2.067947 3.830003 6.861497
v -2.358884 -4.358375 -6.773201
v -2.284623 -4.556158 -2.251861
v -2.285130 -4.556074 2.131798
v -2.367116 -4.370338 6.751929
v -2.155239 4.195080 6.497920
v -1.595932 3.527291 2.216165
v -1.589437 3.997778 -2.469700
v -1.516694 3.772305 -6.894106
v 2.247314 -0.470180 -10.841073
v 2.199091 -0.025699 11.597611
v -2.559418 -0.184797 12.155525
v -2.198520 -0.125772 -10.768355
v -3.203257 -0.032529 7.021682
v -2.769235 -0.161799 2.296579
v -2.722321 -0.112944 -2.251785
v -2.960062 -0.087904 -6.699508
v 2.794567 -0.221964 -6.743580
v 2.738867 -0.274499 -2.208091
v 2.716027 -0.621899 2.388228
v 2.834580 -0.227792 6.813324
v 2.332953 -4.282343 -9.392439
v 2.176461 1.531939 -10.430688
v 2.089431 4.097095 8.823984
v 2.279549 -2.382333 11.844688
v -0.012356 -4.262355 11.615416
v 0.265570 4.182374 10.509150
v -2.478039 -2.478441 11.691219
v -2.366815 -4.256258 9.422576
v -1.663212 3.733171 -8.690711
v -2.148823 -2.298400 -11.006979
v 0.064333 -4.186524 -11.378354
v 0.151279 3.437284 -10.076046
v 2.337847 -4.272862 9.396898
v 2.450722 -4.511686 4.419558
v 2.448799 -4.511452 -0.041655
v 2.419736 -4.405523 -4.504340
v 2.128388 3.368803 -8.625569
v 2.071679 3.700471 -4.565888
v 1.960066 3.278471 0.227054
v 1.959228 3.292560 4.749572
v -2.258271 -4.166826 -9.244424
v -2.315519 -4.477931 -4.468214
v -2.281066 -4.558849 -0.063384
v -2.311995 -4.464028 4.334587
v -2.446174 4.153623 8.748878
v -1.684241 3.724448 4.418802
v -1.610324 3.803387 -0.066768
v -1.496854 3.795008 -4.793515
v 0.294426 4.387804 6.785306
v 0.192772 3.682235 2.407070
v 0.281176 4.208333 -2.355894
v 0.345811 4.198928 -6.845156
v 0.093155 -4.928123 6.720822
v 0.138727 -5.059914 2.069764
v 0.131542 -5.058313 -2.336881
v 0.010107 -4.750790 -6.845624
v -3.162981 -2.358663 6.914646
v -2.851891 -2.845118 2.457684
v -2.812587 -2.835262 -1.991629
v -2.872463 -2.729839 -6.496673
v 2.885789 -2.457625 -6.782133
v 2.900778 -2.571113 -2.229284
v 2.887990 -2.751548 2.283445
v 2.926276 -2.524356 6.798986
v 2.278650 -2.568129 -11.221062
v 2.085507 2.270365 10.722810
v -2.073432 2.090832 11.408685
v -1.971582 2.048374 -10.359998
v -2.870703 2.287335 6.798686
v -2.465606 1.986513 2.150213
v -2.379071 2.101199 -2.437808
v -2.339732 2.044460 -6.840084
v 2.653136 1.917379 -6.713384
v 2.545542 1.824664 -2.251107
v 2.491331 1.315792 2.505188
v 2.619385 1.916550 6.899161
v 2.758247 -0.462626 4.606518
v 2.715126 -0.476858 0.094417
v 2.765354 -0.203797 -4.476333
v 2.792033 -0.367463 -9.012652
v -2.923713 -0.102752 -4.459147
v -2.713787 -0.142743 0.003030
v -2.992999 -0.069899 4.632556
v -3.205369 -0.121806 9.496760
v 0.055686 -0.316414 -11.245550
v -2.913268 -0.076064 -8.945102
v -0.160595 -0.126724 12.221630
v 2.790864 -0.097703 9.171844
v 2.606433 2.152440 8.987282
v 0.038445 2.197613 12.087523
v -2.430748 2.093040 -8.833554
v 0.094665 1.775657 -10.773244
v 0.024195 -4.670453 -9.394847
v 0.255848 3.959092 -8.643757
v 0.236171 4.671526 8.570789
v 0.239914 3.898610 4.624671
v 0.225790 3.797444 0.035614
v 0.329667 4.256606 -4.689847
v 0.017147 -4.706707 9.426153
v 0.141402 -5.059058 4.317516
v 0.135086 -5.059388 -0.133971
v 0.083741 -4.938569 -4.546403
v -2.859210 2.257751 9.449896
v -2.575733 2.050958 4.478384
v -2.367055 1.986126 -0.120277
v -2.368015 2.088855 -4.674225
v 2.674824 1.695766 -8.794986
v 2.595562 1.933333 -4.517174
v 2.486658 1.514532 0.121464
v 2.604575 1.599630 4.698690
v 2.892619 -2.674980 4.508244
v 2.892576 -2.675119 0.031570
v 2.893206 -2.491222 -4.479034
v 2.856923 -2.527194 -9.227874
v -2.851207 -2.791353 -4.216436
v -2.814590 -2.846004 0.222284
v -2.991528 -2.491178 4.506122
v -3.125806 -2.415967 9.471317
v 0.058693 -2.460066 -11.607374
v -2.827096 -2.352449 -9.130551
v -0.113647 -2.431579 12.204369
v 2.901347 -2.425903 9.367085
vn 0.6073 -0.6617 -0.4397
vn 0.6283 0.6075 -0.4859
vn 0.6256 -0.6773 0.3871
vn 0.6439 0.6651 0.3782
vn -0.6081 -0.6364 -0.4747
vn -0.5750 0.6896 -0.4402
vn -0.5625 -0.7207 0.4053
vn -0.4175 0.7737 0.4766
vn 0.7876 -0.6147 0.0428
vn 0.7962 -0.6051 -0.0003
vn 0.8014 -0.5978 -0.0193
vn 0.7825 -0.6219 -0.0303
vn 0.7789 0.6260 -0.0382
vn 0.7766 0.6257 0.0737
vn 0.7939 0.6078 -0.0201
vn 0.7963 0.5938 -0.1158
vn -0.7746 -0.6308 -0.0454
vn -0.7539 -0.6569 -0.0074
vn -0.7482 -0.6635 0.0003
vn -0.7401 -0.6723 0.0144
vn -0.6898 0.7083 -0.1499
vn -0.6376 0.7701 -0.0210
vn -0.6770 0.7358 0.0152
vn -0.6559 0.7548 -0.0086
vn 0.8375 0.1190 -0.5333
vn 0.8710 0.1108 0.4786
vn -0.8603 0.0741 0.5044
vn -0.8116 0.1316 -0.5692
vn -0.9968 0.0675 -0.0420
vn -0.9947 0.0876 -0.0531
vn -0.9944 0.1020 0.0270
vn -0.9942 0.1073 0.0005
vn 0.9985 0.0551 0.0038
vn 0.9965 0.0822 0.0172
vn 0.9960 0.0891 -0.0109
vn 0.9976 0.0688 -0.0108
vn 0.7852 -0.6080 -0.1171
vn 0.8281 0.2351 -0.5090
vn 0.8042 0.5910 0.0633
vn 0.8903 -0.0985 0.4445
vn -0.0263 -0.8820 0.4705
vn 0.0689 0.8823 0.4655
vn -0.8583 -0.2367 0.4553
vn -0.7458 -0.6556 0.1179
vn -0.7119 0.6948 -0.1020
vn -0.8301 -0.0932 -0.5497
vn -0.0569 -0.8393 -0.5407
vn 0.0802 0.8245 -0.5601
vn 0.7877 -0.6038 0.1221
vn 0.7949 -0.6064 0.0186
vn 0.7995 -0.6006 -0.0049
vn 0.7949 -0.6055 -0.0390
vn 0.7974 0.5798 -0.1674
vn 0.7791 0.6262 0.0291
vn 0.7862 0.6126 0.0811
vn 0.7797 0.6115 -0.1343
vn -0.7741 -0.6112 -0.1646
vn -0.7553 -0.6551 -0.0201
vn -0.7601 -0.6498 -0.0031
vn -0.7461 -0.6659 0.0038
vn -0.8248 0.5577 0.0925
vn -0.5774 0.7978 -0.1737
vn -0.6697 0.7402 0.0597
vn -0.6785 0.7341 -0.0292
vn 0.1243 0.9781 -0.1669
vn 0.1418 0.9898 -0.0105
vn 0.1048 0.9922 0.0671
vn 0.0673 0.9957 -0.0637
vn -0.0004 -0.9984 0.0566
vn 0.0089 -0.9999 0.0049
vn 0.0225 -0.9995 -0.0243
vn -0.0045 -0.9986 -0.0524
vn -0.9855 -0.1681 -0.0244
vn -0.9864 -0.1622 -0.0253
vn -0.9906 -0.1359 0.0152
vn -0.9854 -0.1694 -0.0169
vn 0.9947 -0.1029 -0.0080
vn 0.9970 -0.0779 -0.0005
vn 0.9963 -0.0858 -0.0024
vn 0.9949 -0.1006 0.0058
vn 0.8738 -0.0678 -0.4815
vn 0.8691 0.2366 0.4344
vn -0.7322 0.3508 0.5839
vn -0.8075 0.3275 -0.4907
vn -0.9697 0.2296 -0.0838
vn -0.9538 0.2973 -0.0430
vn -0.9569 0.2903 0.0100
vn -0.9394 0.3425 0.0156
vn 0.9826 0.1856 0.0006
vn 0.9796 0.1977 0.0368
vn 0.9798 0.1993 -0.0192
vn 0.9813 0.1888 -0.0368
vn 0.9967 0.0759 -0.0305
vn 0.9956 0.0930 0.0127
vn 0.9976 0.0678 0.0127
vn 0.9912 0.0590 -0.1182
vn -0.9939 0.1068 0.0268
vn -0.9956 0.0930 -0.0106
vn -0.9927 0.0813 -0.0888
vn -0.9919 0.0600 0.1119
vn -0.0095 0.1833 -0.9830
vn -0.9871 0.1016 -0.1239
vn 0.0707 0.0920 0.9933
vn 0.9912 0.0779 0.1071
vn 0.9793 0.1814 0.0903
vn 0.1027 0.3902 0.9150
vn -0.9461 0.3094 -0.0953
vn 0.0184 0.2864 -0.9579
vn -0.0276 -0.9924 -0.1199
vn 0.0805 0.9780 -0.1925
vn 0.0447 0.9975 0.0546
vn 0.1462 0.9741 -0.1724
vn 0.1385 0.9842 0.1102
vn 0.0645 0.9979 -0.0042
vn -0.0118 -0.9940 0.1092
vn 0.0074 -0.9995 0.0297
vn 0.0148 -0.9999 -0.0022
vn 0.0183 -0.9983 -0.0560
vn -0.9635 0.2378 0.1229
vn -0.9513 0.2848 -0.1178
vn -0.9611 0.2760 0.0022
vn -0.9445 0.3285 -0.0010
vn 0.9783 0.1705 -0.1175
vn 0.9819 0.1873 0.0266
vn 0.9791 0.2007 0.0327
vn 0.9774 0.2027 -0.0600
vn 0.9958 -0.0919 -0.0058
vn 0.9970 -0.0770 0.0021
vn 0.9960 -0.0889 -0.0059
vn 0.9889 -0.1030 -0.1074
vn -0.9882 -0.1518 0.0199
vn -0.9916 -0.1295 -0.0074
vn -0.9872 -0.1498 -0.0544
vn -0.9763 -0.1905 0.1025
vn -0.0455 0.0289 -0.9985
vn -0.9816 -0.1260 -0.1433
vn -0.0054 -0.1482 0.9889
vn 0.9903 -0.0932 0.1027
vt 0.500000 0.200000
vt 0.562500 0.200000
vt 0.562500 0.226028
vt 0.500000 0.226234
vt 0.625000 0.200000
vt 0.625000 0.225000
vt 0.625000 0.250000
vt 0.562500 0.270780
vt 0.500000 0.271602
vt 0.562500 0.375000
vt 0.500000 0.375000
vt 0.625000 0.375000
vt 0.625000 0.500000
vt 0.562629 0.479221
vt 0.500000 0.478398
vt 0.500000 0.700000
vt 0.563271 0.700000
vt 0.563143 0.726028
vt 0.500000 0.726234
vt 0.638501 0.700000
vt 0.637987 0.725206
vt 0.625000 0.750000
vt 0.562629 0.770780
vt 0.500000 0.771602
vt 0.562500 0.876028
vt 0.500000 0.876234
vt 0.625000 0.875000
vt 0.625000 1.000000
vt 0.562500 1.000000
vt 0.500000 1.000000
vt 0.125000 0.700000
vt 0.249229 0.700000
vt 0.249357 0.725000
vt 0.125000 0.725000
vt 0.361499 0.700000
vt 0.362013 0.725206
vt 0.375000 0.750000
vt 0.250000 0.750000
vt 0.125000 0.750000
vt 0.750771 0.700000
vt 0.750643 0.725000
vt 0.875000 0.700000
vt 0.875000 0.725000
vt 0.875000 0.750000
vt 0.750000 0.750000
vt 0.750000 0.500000
vt 0.750643 0.525000
vt 0.637987 0.524794
vt 0.875000 0.500000
vt 0.875000 0.525000
vt 0.875000 0.550000
vt 0.750771 0.550000
vt 0.638501 0.550000
vt 0.750771 0.575000
vt 0.638501 0.575000
vt 0.875000 0.575000
vt 0.875000 0.600000
vt 0.750771 0.600000
vt 0.638501 0.600000
vt 0.750771 0.625000
vt 0.638501 0.625000
vt 0.875000 0.625000
vt 0.875000 0.650000
vt 0.750771 0.650000
vt 0.638501 0.650000
vt 0.750771 0.675000
vt 0.638501 0.675000
vt 0.875000 0.675000
vt 0.125000 0.500000
vt 0.250000 0.500000
vt 0.249357 0.525000
vt 0.125000 0.525000
vt 0.375000 0.500000
vt 0.362013 0.524794
vt 0.361499 0.550000
vt 0.249229 0.550000
vt 0.125000 0.550000
vt 0.249229 0.575000
vt 0.125000 0.575000
vt 0.361499 0.575000
vt 0.361499 0.600000
vt 0.249229 0.600000
vt 0.125000 0.600000
vt 0.249229 0.625000
vt 0.125000 0.625000
vt 0.361499 0.625000
vt 0.361499 0.650000
vt 0.249229 0.650000
vt 0.125000 0.650000
vt 0.249229 0.675000
vt 0.125000 0.675000
vt 0.361499 0.675000
vt 0.563143 0.523972
vt 0.500000 0.523766
vt 0.563271 0.550000
vt 0.500000 0.550000
vt 0.563271 0.575000
vt 0.500000 0.575000
vt 0.563271 0.600000
vt 0.500000 0.600000
vt 0.563271 0.625000
vt 0.500000 0.625000
vt 0.563271 0.650000
vt 0.500000 0.650000
vt 0.563271 0.675000
vt 0.500000 0.675000
vt 0.500000 0.000000
vt 0.562500 0.000000
vt 0.562500 0.025000
vt 0.500000 0.025000
vt 0.625000 0.000000
vt 0.625000 0.025000
vt 0.625000 0.050000
vt 0.562500 0.050000
vt 0.500000 0.050000
vt 0.562500 0.075000
vt 0.500000 0.075000
vt 0.625000 0.075000
vt 0.625000 0.100000
vt 0.562500 0.100000
vt 0.500000 0.100000
vt 0.562500 0.125000
vt 0.500000 0.125000
vt 0.625000 0.125000
vt 0.625000 0.150000
vt 0.562500 0.150000
vt 0.500000 0.150000
vt 0.562500 0.175000
vt 0.500000 0.175000
vt 0.625000 0.175000
vt 0.375000 0.150000
vt 0.437500 0.150000
vt 0.437500 0.175000
vt 0.375000 0.175000
vt 0.437500 0.200000
vt 0.375000 0.200000
vt 0.375000 0.100000
vt 0.437500 0.100000
vt 0.437500 0.125000
vt 0.375000 0.125000
vt 0.375000 0.050000
vt 0.437500 0.050000
vt 0.437500 0.075000
vt 0.375000 0.075000
vt 0.375000 0.000000
vt 0.437500 0.000000
vt 0.437500 0.025000
vt 0.375000 0.025000
vt 0.436729 0.650000
vt 0.436729 0.675000
vt 0.436729 0.700000
vt 0.436729 0.600000
vt 0.436729 0.625000
vt 0.436729 0.550000
vt 0.436729 0.575000
vt 0.437371 0.479221
vt 0.436857 0.523972
vt 0.437371 0.770780
vt 0.437500 0.876028
vt 0.375000 0.875000
vt 0.437500 1.000000
vt 0.375000 1.000000
vt 0.436857 0.726028
vt 0.375000 0.250000
vt 0.437500 0.270780
vt 0.437500 0.375000
vt 0.375000 0.375000
vt 0.437500 0.226028
vt 0.375000 0.225000
s 1
f 36/1/36 92/2/92 105/3/105 104/4/104
f 92/2/92 16/5/16 39/6/39 105/3/105
f 105/3/105 39/6/39 4/7/4 82/8/82
f 104/4/104 105/3/105 82/8/82 26/9/26
f 26/9/26 82/8/82 106/10/106 103/11/103
f 82/8/82 4/7/4 42/12/42 106/10/106
f 106/10/106 42/12/42 8/13/8 83/14/83
f 103/11/103 106/10/106 83/14/83 27/15/27
f 32/16/32 88/17/88 107/18/107 102/19/102
f 88/17/88 24/20/24 45/21/45 107/18/107
f 107/18/107 45/21/45 6/22/6 84/23/84
f 102/19/102 107/18/107 84/23/84 28/24/28
f 28/24/28 84/23/84 108/25/108 101/26/101
f 84/23/84 6/22/6 48/27/48 108/25/108
f 108/25/108 48/27/48 2/28/2 38/29/38
f 101/26/101 108/25/108 38/29/38 25/30/25
f 12/31/12 72/32/72 109/33/109 37/34/37
f 72/32/72 17/35/17 57/36/57 109/33/109
f 109/33/109 57/36/57 5/37/5 47/38/47
f 37/34/37 109/33/109 47/38/47 1/39/1
f 24/20/24 68/40/68 110/41/110 45/21/45
f 68/40/68 13/42/13 53/43/53 110/41/110
f 110/41/110 53/43/53 2/44/2 48/45/48
f 45/21/45 110/41/110 48/45/48 6/22/6
f 8/13/8 42/46/42 111/47/111 61/48/61
f 42/46/42 4/49/4 39/50/39 111/47/111
f 111/47/111 39/50/39 16/51/16 65/52/65
f 61/48/61 111/47/111 65/52/65 21/53/21
f 21/53/21 65/52/65 112/54/112 62/55/62
f 65/52/65 16/51/16 56/56/56 112/54/112
f 112/54/112 56/56/56 15/57/15 66/58/66
f 62/55/62 112/54/112 66/58/66 22/59/22
f 22/59/22 66/58/66 113/60/113 63/61/63
f 66/58/66 15/57/15 55/62/55 113/60/113
f 113/60/113 55/62/55 14/63/14 67/64/67
f 63/61/63 113/60/113 67/64/67 23/65/23
f 23/65/23 67/64/67 114/66/114 64/67/64
f 67/64/67 14/63/14 54/68/54 114/66/114
f 114/66/114 54/68/54 13/42/13 68/40/68
f 64/67/64 114/66/114 68/40/68 24/20/24
f 3/69/3 41/70/41 115/71/115 49/72/49
f 41/70/41 7/73/7 44/74/44 115/71/115
f 115/71/115 44/74/44 20/75/20 69/76/69
f 49/72/49 115/71/115 69/76/69 9/77/9
f 9/77/9 69/76/69 116/78/116 50/79/50
f 69/76/69 20/75/20 60/80/60 116/78/116
f 116/78/116 60/80/60 19/81/19 70/82/70
f 50/79/50 116/78/116 70/82/70 10/83/10
f 10/83/10 70/82/70 117/84/117 51/85/51
f 70/82/70 19/81/19 59/86/59 117/84/117
f 117/84/117 59/86/59 18/87/18 71/88/71
f 51/85/51 117/84/117 71/88/71 11/89/11
f 11/89/11 71/88/71 118/90/118 52/91/52
f 71/88/71 18/87/18 58/92/58 118/90/118
f 118/90/118 58/92/58 17/35/17 72/32/72
f 52/91/52 118/90/118 72/32/72 12/31/12
f 27/15/27 83/14/83 119/93/119 100/94/100
f 83/14/83 8/13/8 61/48/61 119/93/119
f 119/93/119 61/48/61 21/53/21 85/95/85
f 100/94/100 119/93/119 85/95/85 29/96/29
f 29/96/29 85/95/85 120/97/120 99/98/99
f 85/95/85 21/53/21 62/55/62 120/97/120
f 120/97/120 62/55/62 22/59/22 86/99/86
f 99/98/99 120/97/120 86/99/86 30/100/30
f 30/100/30 86/99/86 121/101/121 98/102/98
f 86/99/86 22/59/22 63/61/63 121/101/121
f 121/101/121 63/61/63 23/65/23 87/103/87
f 98/102/98 121/101/121 87/103/87 31/104/31
f 31/104/31 87/103/87 122/105/122 97/106/97
f 87/103/87 23/65/23 64/67/64 122/105/122
f 122/105/122 64/67/64 24/20/24 88/17/88
f 97/106/97 122/105/122 88/17/88 32/16/32
f 25/107/25 38/108/38 123/109/123 96/110/96
f 38/108/38 2/111/2 53/112/53 123/109/123
f 123/109/123 53/112/53 13/113/13 89/114/89
f 96/110/96 123/109/123 89/114/89 33/115/33
f 33/115/33 89/114/89 124/116/124 95/117/95
f 89/114/89 13/113/13 54/118/54 124/116/124
f 124/116/124 54/118/54 14/119/14 90/120/90
f 95/117/95 124/116/124 90/120/90 34/121/34
f 34/121/34 90/120/90 125/122/125 94/123/94
f 90/120/90 14/119/14 55/124/55 125/122/125
f 125/122/125 55/124/55 15/125/15 91/126/91
f 94/123/94 125/122/125 91/126/91 35/127/35
f 35/127/35 91/126/91 126/128/126 93/129/93
f 91/126/91 15/125/15 56/130/56 126/128/126
f 126/128/126 56/130/56 16/5/16 92/2/92
f 93/129/93 126/128/126 92/2/92 36/1/36
f 10/131/10 79/132/79 127/133/127 50/134/50
f 79/132/79 35/127/35 93/129/93 127/133/127
f 127/133/127 93/129/93 36/1/36 80/135/80
f 50/134/50 127/133/127 80/135/80 9/136/9
f 11/137/11 78/138/78 128/139/128 51/140/51
f 78/138/78 34/121/34 94/123/94 128/139/128
f 128/139/128 94/123/94 35/127/35 79/132/79
f 51/140/51 128/139/128 79/132/79 10/131/10
f 12/141/12 77/142/77 129/143/129 52/144/52
f 77/142/77 33/115/33 95/117/95 129/143/129
f 129/143/129 95/117/95 34/121/34 78/138/78
f 52/144/52 129/143/129 78/138/78 11/137/11
f 1/145/1 81/146/81 130/147/130 37/148/37
f 81/146/81 25/107/25 96/110/96 130/147/130
f 130/147/130 96/110/96 33/115/33 77/142/77
f 37/148/37 130/147/130 77/142/77 12/141/12
f 18/87/18 75/149/75 131/150/131 58/92/58
f 75/149/75 31/104/31 97/106/97 131/150/131
f 131/150/131 97/106/97 32/16/32 76/151/76
f 58/92/58 131/150/131 76/151/76 17/35/17
f 19/81/19 74/152/74 132/153/132 59/86/59
f 74/152/74 30/100/30 98/102/98 132/153/132
f 132/153/132 98/102/98 31/104/31 75/149/75
f 59/86/59 132/153/132 75/149/75 18/87/18
f 20/75/20 73/154/73 133/155/133 60/80/60
f 73/154/73 29/96/29 99/98/99 133/155/133
f 133/155/133 99/98/99 30/100/30 74/152/74
f 60/80/60 133/155/133 74/152/74 19/81/19
f 7/73/7 43/156/43 134/157/134 44/74/44
f 43/156/43 27/15/27 100/94/100 134/157/134
f 134/157/134 100/94/100 29/96/29 73/154/73
f 44/74/44 134/157/134 73/154/73 20/75/20
f 5/37/5 46/158/46 135/159/135 47/160/47
f 46/158/46 28/24/28 101/26/101 135/159/135
f 135/159/135 101/26/101 25/30/25 81/161/81
f 47/160/47 135/159/135 81/161/81 1/162/1
f 17/35/17 76/151/76 136/163/136 57/36/57
f 76/151/76 32/16/32 102/19/102 136/163/136
f 136/163/136 102/19/102 28/24/28 46/158/46
f 57/36/57 136/163/136 46/158/46 5/37/5
f 3/164/3 40/165/40 137/166/137 41/167/41
f 40/165/40 26/9/26 103/11/103 137/166/137
f 137/166/137 103/11/103 27/15/27 43/156/43
f 41/167/41 137/166/137 43/156/43 7/73/7
f 9/136/9 80/135/80 138/168/138 49/169/49
f 80/135/80 36/1/36 104/4/104 138/168/138
f 138/168/138 104/4/104 26/9/26 40/165/40
f 49/169/49 138/168/138 40/165/40 3/164/3
