# Blender 5.2.2 LTS
# www.blender.org
o wall_big_1
v -14.160796 -23.634216 24.041943
v -10.453106 27.709196 24.955313
v -11.014577 -26.566116 -27.717251
v -9.514190 27.246592 -24.865337
v 11.284280 -26.757519 29.008427
v 9.302434 27.327106 24.614151
v 12.584095 -27.510937 -29.856575
v 10.286477 25.455879 -22.413498
v -12.918716 -27.376810 -9.670941
v -13.966356 -26.133518 7.336084
v -10.476455 27.372013 9.162506
v -10.165564 27.339537 -9.489576
v 12.992455 -27.360342 9.839030
v 13.464693 -28.082058 -9.493311
v 10.460499 26.653370 -8.354907
v 10.333438 28.183994 9.463399
v -13.144254 -8.118121 28.340317
v -11.125606 9.240667 28.456478
v -10.953556 10.119545 -27.115551
v -11.750011 -8.801957 -29.016590
v 11.618938 9.524936 -26.081911
v 12.652057 -9.513202 -28.235741
v 11.065987 9.388727 27.507917
v 11.918119 -9.488460 29.350891
v 12.820318 9.514752 -9.248213
v 14.317564 -9.514752 -9.372998
v 14.237504 6.278252 11.117096
v 16.828236 -9.858202 9.862650
v -12.621046 9.406160 10.193128
v -14.439800 -9.173385 9.467716
v -13.061300 9.847332 -9.848192
v -14.798933 -9.190701 -9.735265
v -14.404877 -25.372288 11.371197
v -14.782867 -24.678162 15.736716
v -14.919987 -24.104828 20.387703
v -11.035866 14.061126 27.463762
v -11.023646 18.940718 26.394451
v -11.056722 23.837982 25.680065
v -10.310286 27.984396 -13.695683
v -10.380249 28.249889 -17.786921
v -10.299639 28.150105 -21.950079
v -11.792881 -13.697292 -28.885790
v -11.827693 -18.633490 -28.665792
v -11.843771 -23.582170 -28.627419
v 7.737666 -27.783506 -29.927113
v 0.879163 -28.602444 -29.810818
v -6.206198 -28.016172 -29.153002
v -5.469346 27.115864 -24.517433
v 0.398226 27.369204 -24.532326
v 6.265638 26.394680 -23.341780
v 13.172559 -14.105983 -29.873896
v 13.444483 -18.866627 -30.576317
v 13.502831 -23.891237 -30.741341
v 13.335398 -27.405251 -14.795818
v 13.355932 -27.420483 -20.250818
v 13.339116 -27.641163 -25.650194
v 10.140882 27.817192 13.616451
v 9.992742 27.522734 17.632025
v 9.973283 27.815285 21.628435
v 12.130097 -13.941435 29.995916
v 12.219025 -18.503786 30.099060
v 12.180224 -23.272835 29.918781
v -9.238802 -25.389902 26.024549
v -1.541552 -26.383364 27.180140
v 6.042371 -26.578403 28.341810
v 5.163467 27.612778 24.567650
v -0.739560 27.785004 24.589706
v -6.523119 28.634726 25.539629
v -11.992572 -27.154726 -24.369566
v -12.353758 -27.300890 -19.473928
v -12.654658 -27.341934 -14.532710
v -13.071383 -27.392399 -4.960197
v -13.235676 -27.230488 -0.472975
v -13.552607 -26.780832 3.527293
v -11.112801 28.344563 21.629366
v -11.035073 28.340151 17.426155
v -10.798583 28.040165 13.344143
v -10.363112 27.339539 4.585917
v -10.290018 27.339539 -0.155639
v -10.219679 27.339535 -4.897236
v 12.411576 -27.673454 25.294102
v 12.654535 -27.586740 20.007980
v 12.771837 -27.201139 14.863428
v 13.100434 -27.392895 4.975714
v 13.332542 -28.075996 0.205254
v 13.474859 -28.382608 -4.568008
v 11.005734 26.316916 -19.354923
v 10.993438 26.763931 -15.421398
v 10.794069 26.954699 -11.878914
v 10.366451 27.157885 -4.368070
v 10.358720 27.621269 0.156679
v 10.433982 28.219637 4.898703
v -5.604732 28.437737 -9.409314
v 0.145477 28.303312 -9.036938
v 5.922951 28.772949 -8.558727
v -6.016037 29.807640 9.167419
v -0.272963 30.549034 9.225416
v 5.564560 30.361586 9.342891
v 7.866070 -29.740662 -9.477110
v 0.839228 -31.237700 -9.447653
v -6.867127 -29.734056 -9.556168
v 7.420384 -29.461494 9.448181
v 0.137285 -30.505283 8.672585
v -7.843650 -28.572071 7.698357
v 14.582007 -14.272127 -9.399446
v 15.207048 -18.975901 -9.430092
v 15.320283 -24.043623 -9.457323
v 14.802073 -14.339002 9.805676
v 14.518869 -19.029505 9.867692
v 14.572980 -23.680758 9.890100
v -14.881576 -13.589272 8.629838
v -15.324499 -18.030987 7.887590
v -15.515211 -22.489332 7.432160
v -14.786841 -14.093987 -9.583973
v -14.610747 -18.968782 -9.538561
v -14.488718 -23.653458 -9.600987
v -14.714976 -20.484827 24.678186
v -14.334601 -16.308731 25.507696
v -13.836225 -12.138195 27.179508
v -12.337752 -4.143196 28.836033
v -11.735456 0.037515 29.393494
v -11.315681 4.480926 29.289919
v -10.321054 23.916946 -25.612665
v -10.528266 19.346682 -25.913597
v -10.736888 14.751188 -26.519190
v -11.166081 5.422917 -27.612192
v -11.380323 0.721125 -28.139570
v -11.607802 -3.987795 -28.755718
v 10.989798 22.075190 -22.897572
v 11.250798 18.007172 -23.989691
v 11.424746 13.867215 -25.140881
v 11.985365 4.895359 -27.140785
v 12.130157 0.043442 -27.209648
v 12.398324 -4.739555 -27.739775
v 10.280193 23.998795 25.818914
v 10.695498 19.140039 26.748678
v 10.943103 14.265155 27.356495
v 11.338053 4.608935 28.237755
v 11.592593 -0.153051 28.845531
v 11.805067 -4.881782 29.266802
v 11.990758 23.098364 -8.473166
v 12.333251 18.700500 -8.802583
v 12.557123 14.204097 -9.140182
v 13.176735 4.757376 -9.278501
v 13.568944 0.000000 -9.310606
v 13.961150 -4.757376 -9.342711
v 11.862494 23.843250 9.534593
v 12.043509 18.269129 9.888138
v 12.588329 12.148145 10.554223
v 15.058610 2.243711 10.887494
v 15.928887 -1.240185 10.383877
v 16.620516 -5.075287 9.972389
v -11.963511 23.677879 9.274621
v -12.253840 18.989519 9.545073
v -12.417092 14.196500 9.879844
v -12.936949 4.626705 10.415537
v -13.592048 -0.034231 10.481591
v -14.176853 -4.618429 10.171018
v -11.699648 23.697197 -9.548973
v -12.056686 19.097036 -9.644388
v -12.576729 14.472507 -9.750677
v -13.591543 5.200428 -9.919643
v -14.093349 0.477331 -9.951920
v -14.536351 -4.313919 -9.894469
v -14.632518 -9.334534 4.752293
v -14.752763 -9.350091 -0.136841
v -14.832186 -9.293472 -4.999563
v -13.021791 9.575492 5.007449
v -13.201553 9.670825 -0.091477
v -13.240485 9.767714 -5.022978
v -14.630776 -8.257547 23.844564
v -14.682415 -8.494026 19.020050
v -14.535234 -8.837584 14.210909
v -12.567045 9.264034 24.800756
v -12.654537 9.299901 20.119366
v -12.626677 9.349715 15.215779
v 14.256682 -9.514752 -4.548535
v 14.651428 -9.576912 0.160958
v 16.871761 -9.803805 5.030137
v 12.723397 9.460384 -4.539562
v 13.102865 8.613265 0.533622
v 14.307867 6.919506 6.055716
v 14.248814 -9.514752 -24.341581
v 14.376888 -9.514752 -19.398703
v 14.352258 -9.514752 -14.355170
v 13.023716 9.476105 -22.571980
v 13.047783 9.476029 -18.203060
v 12.929608 9.507731 -13.771276
v 6.463120 -9.158886 30.851532
v -0.549039 -8.554866 32.039227
v -7.595090 -8.192719 30.953079
v 6.237034 9.322701 29.042000
v 0.062631 9.254998 29.632553
v -6.180279 9.226225 29.690975
v 17.039858 -9.832316 14.943063
v 16.994991 -9.899682 20.116497
v 13.995248 -9.584335 25.411777
v 14.283211 6.711767 15.614893
v 14.320992 7.693091 19.821274
v 13.141002 9.153458 23.816360
v -6.057589 -8.951153 -29.925495
v 0.663408 -9.250809 -29.062973
v 7.354090 -9.437697 -29.284771
v -5.993172 10.067267 -28.014233
v 0.338553 9.898840 -27.819555
v 6.674563 9.678869 -27.370897
v -14.633965 -9.050922 -14.459307
v -14.422793 -8.912128 -19.225334
v -13.989870 -8.781370 -24.523491
v -12.573563 9.854285 -14.559803
v -12.584342 9.990475 -19.190083
v -12.449297 10.085974 -23.667927
v -12.303281 14.529408 -14.338173
v -12.060041 19.180784 -14.098336
v -11.944251 23.982731 -13.854904
v -12.321463 14.641864 -18.824259
v -12.079145 19.262882 -18.440966
v -12.084235 24.148716 -18.065577
v -12.197871 14.721663 -23.167305
v -11.960870 19.323088 -22.653122
v -11.958820 24.157413 -22.424599
v -5.867540 14.708821 -27.402948
v -5.742263 19.289055 -26.754208
v -5.603992 23.682659 -25.951101
v 0.349585 14.478425 -27.131880
v 0.374522 18.861273 -26.527479
v 0.403554 23.330965 -26.263214
v 6.572165 14.074964 -26.466154
v 6.484720 18.254887 -25.337252
v 6.379724 22.381796 -24.214668
v 13.660850 11.801847 15.247054
v 12.361938 18.287273 14.231041
v 11.641698 23.726841 13.780869
v 13.813948 12.635714 19.367939
v 12.512161 18.746464 18.394236
v 11.617603 23.776365 17.924788
v 13.097486 14.124109 23.381233
v 12.247193 19.130358 22.856096
v 11.755630 24.035189 22.187767
v 6.031153 14.144811 28.138134
v 5.735226 19.067978 27.145273
v 5.412655 23.895617 26.113056
v -0.076938 14.111769 28.596704
v -0.328546 19.083218 27.449451
v -0.587424 23.966820 26.263443
v -6.200529 14.067126 28.626936
v -6.330885 19.011133 27.455820
v -6.487606 24.074408 27.296766
v -8.289062 -27.850807 11.787957
v -0.251375 -29.942341 13.033149
v 7.117126 -29.112761 14.160768
v -8.696998 -28.278875 16.247337
v -0.611205 -29.428957 17.656475
v 6.806600 -28.770159 19.037186
v -9.070333 -27.659878 21.109402
v -1.089308 -28.118629 22.421253
v 6.417740 -27.957766 23.956772
v 5.392308 29.900232 13.439189
v -0.481535 30.675699 13.301855
v -6.237622 30.304222 13.267056
v 5.240441 28.918808 17.410614
v -0.663323 30.422737 17.273701
v -6.432010 30.498775 17.273436
v 5.167017 28.726740 21.340103
v -0.767458 29.831177 21.369184
v -6.542037 30.353485 21.473824
v 6.220659 27.812407 -19.632614
v 0.343844 28.478050 -20.556461
v -5.511235 28.137993 -21.320013
v 6.135438 28.070198 -15.733604
v 0.280374 28.014215 -16.568268
v -5.546032 28.265528 -17.425785
v 6.025259 28.299168 -12.155121
v 0.214641 27.985067 -12.842322
v -5.569376 28.355333 -13.499649
v 5.846825 29.563583 -4.502180
v 0.071947 28.531269 -4.725214
v -5.665360 28.441301 -4.827660
v 5.784800 30.134686 0.087497
v 0.000003 29.284256 0.000002
v -5.736260 28.441301 -0.086761
v 5.716012 30.423254 4.823670
v -0.089417 29.994486 4.727290
v -5.828375 28.913431 4.649043
v -6.228369 -29.228804 -24.570934
v 1.075913 -31.066841 -25.120485
v 7.920334 -29.141548 -25.476923
v -6.385790 -29.691385 -19.533606
v 1.149998 -31.185516 -19.752085
v 8.002735 -29.781773 -20.185572
v -6.642327 -29.716753 -14.504231
v 0.979474 -31.216555 -14.569856
v 7.924845 -29.764753 -14.795527
v -7.020325 -30.613787 -4.775173
v 0.758295 -31.239960 -4.540970
v 7.816931 -30.749346 -4.551220
v -7.159536 -30.321009 -0.225593
v 0.670433 -31.211325 0.182774
v 7.744849 -30.701405 0.221846
v -7.442612 -29.183411 3.823481
v 0.457952 -30.954994 4.515763
v 7.635553 -29.954323 4.918258
v 12.795850 13.793210 -21.692562
v 12.592713 17.926121 -20.617815
v 12.450221 22.197287 -19.778238
v 12.807177 13.836139 -17.491934
v 12.595725 18.024311 -16.591492
v 12.640025 22.554003 -15.771649
v 12.676578 14.006692 -13.343271
v 12.458880 18.320135 -12.701262
v 12.398321 22.860954 -12.102608
v 12.469422 14.266977 -4.558564
v 12.241843 18.994116 -4.519024
v 11.896000 23.549080 -4.402738
v 12.245745 13.678577 0.399853
v 12.142184 18.928854 0.220051
v 11.820232 23.683924 0.178785
v 12.833737 12.716408 5.474823
v 12.114133 18.517584 5.129548
v 11.926498 23.861605 4.923283
v -12.437678 14.080756 23.932463
v -12.377883 18.942223 22.997328
v -12.228763 23.724510 22.084736
v -12.502981 14.110532 19.420979
v -12.415550 18.955399 18.663528
v -12.233986 23.733202 17.938404
v -12.449588 14.151081 14.714878
v -12.319759 18.964373 14.175514
v -12.091743 23.704941 13.671878
v -12.747906 14.319347 4.828203
v -12.219295 19.017574 4.665286
v -11.892646 23.683447 4.568599
v -12.833248 14.372478 -0.157949
v -12.167922 19.029505 -0.184043
v -11.820224 23.683924 -0.178784
v -12.787786 14.415246 -4.981349
v -12.099224 19.037605 -4.939029
v -11.750033 23.683924 -4.922064
v -15.123736 -23.110521 3.563488
v -14.996430 -18.572058 3.797485
v -14.639588 -14.005580 4.249938
v -14.817972 -23.540205 -0.469570
v -14.733436 -18.935806 -0.382867
v -14.646287 -14.203062 -0.251503
v -14.658719 -23.681482 -4.969710
v -14.597768 -19.025686 -4.953250
v -14.768488 -14.176354 -4.969113
v -14.297561 -4.631418 5.087308
v -13.804935 0.094264 5.164178
v -13.333628 4.819027 5.134387
v -14.477687 -4.527354 -0.063048
v -14.019325 0.219955 -0.023683
v -13.570242 4.950637 -0.037269
v -14.575453 -4.427081 -5.026703
v -14.140487 0.356883 -5.045599
v -13.683813 5.090048 -5.047194
v -16.316626 -20.652414 20.642651
v -15.966922 -16.426476 21.426472
v -15.332466 -12.295578 22.583704
v -16.255667 -21.099817 15.954108
v -15.944503 -16.810394 16.685503
v -15.349369 -12.609441 17.793520
v -15.913446 -21.764395 11.548698
v -15.658229 -17.394554 12.170259
v -15.132220 -13.081450 13.132404
v -13.902081 -4.194844 24.912144
v -13.258885 0.014291 25.554630
v -12.800430 4.490760 25.529861
v -14.235689 -4.275106 20.109558
v -13.348248 -0.055826 20.732111
v -12.906935 4.508377 20.713795
v -14.192278 -4.462476 15.158021
v -13.481925 -0.067699 15.689000
v -12.911374 4.562367 15.616192
v 15.222898 -24.012455 -4.544625
v 15.049948 -18.988991 -4.543969
v 14.523248 -14.272129 -4.547140
v 14.739323 -23.683924 0.222938
v 14.682161 -19.029505 0.222073
v 14.452525 -14.272129 0.218600
v 14.665618 -23.683924 4.993321
v 14.608554 -19.029505 4.990182
v 14.887434 -14.331424 4.924646
v 13.895347 -4.757376 -4.550987
v 13.496993 0.000000 -4.553774
v 13.094464 4.741059 -4.550723
v 14.239934 -4.822814 0.169978
v 13.762488 -0.247453 0.234906
v 13.469831 4.073489 0.441751
v 16.239759 -5.127914 5.083409
v 15.768865 -0.990384 5.405918
v 15.045870 2.740317 5.842496
v 15.280483 -24.025154 -25.758108
v 15.277320 -18.923258 -25.532614
v 14.896465 -14.158887 -25.063190
v 15.244924 -23.953096 -20.102911
v 15.262361 -18.974007 -19.897125
v 14.843590 -14.222906 -19.656944
v 15.219340 -23.944868 -14.703940
v 15.176002 -18.984228 -14.595325
v 14.610067 -14.272127 -14.473283
v 13.953716 -4.754094 -23.927637
v 13.634608 0.017078 -23.500244
v 13.316355 4.783896 -23.067780
v 14.058392 -4.757339 -19.120079
v 13.711640 0.006105 -18.831381
v 13.364918 4.769413 -18.542526
v 14.012565 -4.757376 -14.215549
v 13.640892 0.000000 -14.067437
v 13.269097 4.757991 -13.920042
v 6.046618 -22.501368 30.083300
v 6.161052 -17.911192 30.684113
v 6.312152 -13.480271 31.059580
v -1.545317 -21.726902 29.340584
v -1.291934 -17.049702 30.355516
v -0.934049 -12.751747 31.349916
v -9.102679 -20.899290 28.163614
v -8.705597 -16.407434 29.236294
v -8.177498 -12.235544 30.280409
v 6.561510 -4.780582 30.705671
v 6.555701 -0.218174 30.534742
v 6.417471 4.533716 29.882853
v -0.197759 -4.365074 32.149876
v 0.051387 -0.066570 31.756203
v 0.131566 4.455453 30.567041
v -7.007665 -4.190298 30.921486
v -6.527187 -0.030401 30.851332
v -6.248513 4.449244 30.614843
v 14.386632 -23.587114 14.969201
v 14.366050 -18.977821 14.970206
v 14.631832 -14.342262 15.003131
v 14.626836 -23.825729 20.198193
v 14.578064 -18.836258 20.202965
v 14.868772 -14.245918 20.246481
v 14.298137 -23.676132 25.632395
v 14.289079 -18.708195 25.633400
v 14.085826 -14.079702 25.646671
v 16.670095 -5.066888 14.969670
v 15.945026 -1.054720 15.208825
v 15.082870 2.588504 15.537866
v 16.408817 -5.221842 20.044115
v 15.727914 -0.723118 19.961237
v 14.970010 3.360164 19.973719
v 13.815991 -4.915343 25.193974
v 13.617259 -0.167633 24.820562
v 13.391706 4.519045 24.345869
v -6.151473 -23.635597 -30.534632
v -6.056624 -18.668039 -30.435633
v -6.025422 -13.788905 -30.316534
v 0.866567 -23.897116 -30.548643
v 0.824982 -18.883408 -29.831831
v 0.768942 -14.088523 -29.150684
v 7.739489 -23.706667 -31.279697
v 7.683026 -18.893251 -31.094868
v 7.551408 -14.143363 -30.431578
v -6.096991 -4.229837 -28.769825
v -6.130989 0.593547 -28.788111
v -6.104684 5.361792 -28.564692
v 0.529195 -4.414359 -28.983255
v 0.408027 0.398343 -28.808935
v 0.342458 5.172844 -28.417572
v 7.155268 -4.631967 -28.958004
v 6.965548 0.170625 -28.531376
v 6.828772 5.006371 -28.407927
v -14.391777 -23.747568 -14.358063
v -14.597886 -18.874889 -14.198587
v -14.666862 -13.963794 -14.249866
v -14.211501 -23.794493 -19.200266
v -14.386416 -18.778717 -18.940758
v -14.453404 -13.832840 -18.985548
v -13.846868 -23.754549 -24.296949
v -13.959258 -18.676485 -24.090923
v -14.007010 -13.709450 -24.236771
v -14.346433 -4.189472 -14.688576
v -13.901814 0.577069 -14.819628
v -13.325998 5.265063 -14.742190
v -14.137691 -4.061880 -19.474749
v -13.691931 0.684038 -19.614925
v -12.898166 5.279524 -19.513601
v -13.759401 -3.933216 -24.665659
v -13.388962 0.806150 -24.606020
v -12.721430 5.386341 -24.086670
vn -0.6973 -0.5192 0.4941
vn -0.6698 0.5110 0.5387
vn -0.5733 -0.6017 -0.5561
vn -0.3904 0.6403 -0.6615
vn 0.3507 -0.6711 0.6532
vn 0.4587 0.6672 0.5869
vn 0.5092 -0.6531 -0.5605
vn 0.5968 0.5244 -0.6073
vn -0.7671 -0.6397 -0.0472
vn -0.7678 -0.6399 0.0306
vn -0.7973 0.5976 -0.0853
vn -0.7308 0.6814 0.0403
vn 0.7617 -0.6461 0.0494
vn 0.7435 -0.6664 -0.0558
vn 0.7735 0.6338 -0.0052
vn 0.8036 0.5927 0.0543
vn -0.8072 0.0335 0.5893
vn -0.7395 0.1486 0.6566
vn -0.7163 0.1147 -0.6883
vn -0.6826 0.0457 -0.7294
vn 0.7477 0.1763 -0.6402
vn 0.7247 0.1909 -0.6621
vn 0.6869 0.1107 0.7183
vn 0.7062 0.0652 0.7050
vn 0.9977 0.0644 0.0215
vn 0.9979 0.0646 0.0101
vn 0.9782 0.2069 -0.0167
vn 0.9878 -0.1547 -0.0157
vn -0.9978 0.0559 0.0369
vn -0.9967 0.0805 -0.0103
vn -0.9927 0.1071 -0.0556
vn -0.9995 0.0252 -0.0185
vn -0.7828 -0.6222 0.0055
vn -0.8030 -0.5958 0.0145
vn -0.8211 -0.5446 0.1710
vn -0.7395 0.1492 0.6564
vn -0.7592 0.1130 0.6410
vn -0.8011 0.1730 0.5730
vn -0.7124 0.6988 0.0648
vn -0.7010 0.7131 0.0054
vn -0.6953 0.6859 -0.2147
vn -0.7125 -0.0065 -0.7017
vn -0.7318 -0.0061 -0.6814
vn -0.7488 -0.1876 -0.6356
vn 0.0990 -0.6838 -0.7229
vn -0.0382 -0.6548 -0.7549
vn -0.2573 -0.6682 -0.6980
vn 0.0022 0.7302 -0.6832
vn 0.1213 0.7219 -0.6813
vn 0.2937 0.6564 -0.6949
vn 0.7234 0.2008 -0.6606
vn 0.7408 0.0830 -0.6665
vn 0.7631 -0.1815 -0.6202
vn 0.7254 -0.6878 -0.0268
vn 0.7185 -0.6956 -0.0007
vn 0.7303 -0.6700 -0.1330
vn 0.7832 0.6154 0.0881
vn 0.7504 0.6603 0.0294
vn 0.7254 0.6746 0.1366
vn 0.7043 0.0490 0.7082
vn 0.6907 -0.0160 0.7230
vn 0.6748 -0.2173 0.7053
vn -0.3612 -0.6729 0.6455
vn -0.1442 -0.7279 0.6704
vn -0.0856 -0.7307 0.6773
vn 0.0742 0.7179 0.6922
vn 0.1233 0.6783 0.7244
vn -0.0774 0.6858 0.7237
vn -0.7251 -0.6544 -0.2146
vn -0.7239 -0.6874 -0.0589
vn -0.7427 -0.6687 -0.0352
vn -0.7783 -0.6271 -0.0311
vn -0.7718 -0.6354 0.0241
vn -0.7646 -0.6436 0.0348
vn -0.8498 0.5087 0.1380
vn -0.8461 0.5317 -0.0362
vn -0.8265 0.5557 -0.0897
vn -0.7642 0.6434 -0.0444
vn -0.7454 0.6663 -0.0213
vn -0.7397 0.6729 -0.0096
vn 0.6740 -0.7005 0.2347
vn 0.6951 -0.7186 0.0229
vn 0.7338 -0.6791 0.0188
vn 0.7861 -0.6141 0.0696
vn 0.7975 -0.5972 0.0859
vn 0.7795 -0.6263 0.0120
vn 0.7799 0.5892 -0.2113
vn 0.7713 0.6357 -0.0313
vn 0.7640 0.6441 0.0365
vn 0.7876 0.6132 -0.0609
vn 0.8040 0.5918 -0.0573
vn 0.8097 0.5865 -0.0209
vn -0.0860 0.9963 -0.0028
vn -0.0310 0.9966 -0.0765
vn 0.1678 0.9812 -0.0950
vn -0.2845 0.9503 -0.1267
vn -0.0462 0.9969 -0.0636
vn 0.2322 0.9722 0.0316
vn 0.2588 -0.9634 -0.0702
vn 0.0034 -0.9987 -0.0506
vn -0.2831 -0.9574 -0.0573
vn 0.2456 -0.9653 0.0885
vn -0.0642 -0.9914 0.1140
vn -0.3122 -0.9429 0.1164
vn 0.9960 0.0890 0.0101
vn 0.9974 0.0721 0.0088
vn 0.9844 -0.1760 -0.0081
vn 0.9743 -0.2247 0.0156
vn 0.9994 -0.0243 0.0254
vn 0.9841 -0.1750 0.0299
vn -0.9937 0.0985 -0.0527
vn -0.9928 0.0813 -0.0882
vn -0.9861 -0.1522 -0.0668
vn -0.9998 -0.0169 -0.0109
vn -0.9996 -0.0254 -0.0101
vn -0.9811 -0.1923 -0.0229
vn -0.8304 -0.1729 0.5296
vn -0.8279 -0.0564 0.5581
vn -0.8290 -0.0382 0.5579
vn -0.7727 0.0656 0.6314
vn -0.7445 0.0678 0.6642
vn -0.7320 0.1172 0.6711
vn -0.6808 0.2260 -0.6967
vn -0.7041 0.1043 -0.7024
vn -0.7154 0.1225 -0.6879
vn -0.6952 0.1176 -0.7091
vn -0.6525 0.1088 -0.7499
vn -0.6475 0.0915 -0.7565
vn 0.7460 0.2438 -0.6197
vn 0.7422 0.2022 -0.6389
vn 0.7422 0.1876 -0.6434
vn 0.7623 0.1147 -0.6370
vn 0.7536 0.0837 -0.6520
vn 0.7373 0.1058 -0.6672
vn 0.6986 0.3141 0.6429
vn 0.6936 0.1830 0.6967
vn 0.6814 0.1256 0.7211
vn 0.7031 0.1322 0.6987
vn 0.7125 0.0994 0.6946
vn 0.7108 0.0588 0.7009
vn 0.9770 0.2092 0.0415
vn 0.9981 0.0514 0.0332
vn 0.9984 0.0509 0.0225
vn 0.9968 0.0780 0.0188
vn 0.9966 0.0814 0.0152
vn 0.9969 0.0776 0.0122
vn 0.9824 0.1856 0.0213
vn 0.9960 0.0873 -0.0201
vn 0.9842 0.1723 -0.0413
vn 0.9778 0.2096 -0.0041
vn 0.9809 0.1937 -0.0197
vn 0.9926 0.1178 -0.0309
vn -0.9804 0.1943 -0.0313
vn -0.9984 0.0560 -0.0026
vn -0.9986 0.0488 0.0226
vn -0.9947 0.0951 0.0382
vn -0.9915 0.1269 0.0285
vn -0.9953 0.0961 0.0132
vn -0.9775 0.2098 0.0231
vn -0.9964 0.0845 -0.0079
vn -0.9941 0.0993 -0.0434
vn -0.9926 0.1144 -0.0396
vn -0.9947 0.0994 -0.0251
vn -0.9971 0.0726 -0.0215
vn -0.9990 0.0417 0.0160
vn -0.9995 0.0218 0.0209
vn -0.9998 0.0204 0.0079
vn -0.9963 0.0657 0.0551
vn -0.9967 0.0786 0.0218
vn -0.9954 0.0947 -0.0117
vn -0.9795 0.1186 0.1631
vn -0.9904 0.1378 -0.0113
vn -0.9928 0.1150 -0.0346
vn -0.9814 0.0687 0.1795
vn -0.9990 0.0436 0.0070
vn -0.9989 0.0478 -0.0027
vn 0.9983 0.0550 -0.0215
vn 0.9824 -0.0034 -0.1866
vn 0.9832 -0.1010 -0.1518
vn 0.9967 0.0815 -0.0037
vn 0.9866 0.1341 -0.0928
vn 0.9791 0.1944 -0.0602
vn 0.9775 0.1203 -0.1730
vn 0.9966 0.0819 0.0006
vn 0.9976 0.0678 0.0118
vn 0.9815 0.0905 -0.1687
vn 0.9981 0.0602 0.0092
vn 0.9978 0.0618 0.0245
vn 0.1962 0.0147 0.9805
vn -0.0103 -0.0481 0.9988
vn -0.2960 -0.0622 0.9531
vn 0.1798 0.1657 0.9697
vn 0.0487 0.1962 0.9794
vn -0.1161 0.1985 0.9732
vn 0.9883 -0.1523 -0.0023
vn 0.9776 -0.1095 0.1798
vn 0.9051 -0.0000 0.4252
vn 0.9846 0.1666 -0.0534
vn 0.9874 0.1186 0.1052
vn 0.9336 0.0856 0.3480
vn -0.0199 0.0886 -0.9959
vn 0.0225 0.0851 -0.9961
vn 0.0585 0.1392 -0.9885
vn -0.0724 0.1276 -0.9892
vn 0.0518 0.1515 -0.9871
vn 0.1608 0.1961 -0.9673
vn -0.9988 0.0292 -0.0383
vn -0.9977 0.0279 -0.0614
vn -0.9696 0.0204 -0.2440
vn -0.9940 0.0983 -0.0481
vn -0.9969 0.0741 -0.0249
vn -0.9770 0.0754 -0.1994
vn -0.9973 0.0687 -0.0248
vn -0.9988 0.0485 0.0063
vn -0.9809 0.1898 0.0423
vn -0.9984 0.0553 -0.0114
vn -0.9995 0.0294 -0.0080
vn -0.9842 0.1773 0.0010
vn -0.9776 0.0740 -0.1969
vn -0.9781 0.0474 -0.2024
vn -0.9646 0.1757 -0.1968
vn -0.0662 0.1382 -0.9882
vn -0.0610 0.1312 -0.9895
vn -0.0309 0.2364 -0.9712
vn 0.0867 0.1623 -0.9829
vn 0.1235 0.1534 -0.9804
vn 0.1413 0.2447 -0.9592
vn 0.1972 0.2115 -0.9573
vn 0.2460 0.2204 -0.9439
vn 0.2808 0.2278 -0.9323
vn 0.9835 0.1559 -0.0914
vn 0.9886 0.1363 -0.0646
vn 0.9738 0.2271 0.0133
vn 0.9893 0.1376 0.0481
vn 0.9854 0.1701 -0.0052
vn 0.9659 0.2588 -0.0084
vn 0.9550 0.1264 0.2683
vn 0.9649 0.1610 0.2076
vn 0.9548 0.2578 0.1481
vn 0.1212 0.1733 0.9774
vn 0.0692 0.2025 0.9768
vn 0.0393 0.2980 0.9538
vn 0.0376 0.2131 0.9763
vn 0.0449 0.2029 0.9782
vn 0.0829 0.2848 0.9550
vn -0.1127 0.2159 0.9699
vn -0.1057 0.1669 0.9803
vn -0.0765 0.2261 0.9711
vn -0.3232 -0.9445 0.0581
vn -0.0693 -0.9942 0.0818
vn 0.1988 -0.9776 0.0690
vn -0.3331 -0.9409 0.0612
vn -0.0587 -0.9909 0.1215
vn 0.1173 -0.9883 0.0980
vn -0.3389 -0.9118 0.2317
vn -0.0812 -0.9591 0.2712
vn 0.0054 -0.9754 0.2202
vn 0.2545 0.9597 0.1191
vn 0.0366 0.9988 0.0327
vn -0.2670 0.9604 -0.0799
vn 0.2430 0.9645 0.1034
vn 0.1055 0.9905 0.0878
vn -0.2220 0.9750 0.0037
vn 0.1700 0.9651 0.1993
vn 0.1301 0.9529 0.2739
vn -0.1517 0.9636 0.2201
vn 0.2057 0.9631 -0.1735
vn 0.0502 0.9898 -0.1334
vn 0.0011 0.9896 -0.1439
vn 0.1464 0.9887 -0.0334
vn 0.0165 0.9998 0.0085
vn -0.0007 1.0000 0.0082
vn 0.1392 0.9892 -0.0458
vn 0.0047 0.9988 -0.0480
vn -0.0249 0.9996 0.0092
vn 0.1810 0.9750 -0.1286
vn -0.0879 0.9918 -0.0926
vn -0.1377 0.9901 -0.0282
vn 0.1870 0.9761 -0.1111
vn -0.1265 0.9854 -0.1135
vn -0.1912 0.9794 -0.0655
vn 0.2050 0.9771 -0.0565
vn -0.1100 0.9876 -0.1120
vn -0.2530 0.9609 -0.1124
vn -0.2783 -0.9424 -0.1857
vn 0.0009 -0.9748 -0.2232
vn 0.2286 -0.9585 -0.1703
vn -0.2860 -0.9572 -0.0432
vn 0.0117 -0.9993 -0.0353
vn 0.2970 -0.9545 -0.0256
vn -0.2835 -0.9588 -0.0188
vn 0.0054 -1.0000 -0.0043
vn 0.2913 -0.9566 -0.0116
vn -0.2862 -0.9576 -0.0328
vn -0.0056 -0.9993 -0.0380
vn 0.2437 -0.9689 -0.0421
vn -0.2933 -0.9518 0.0902
vn -0.0230 -0.9967 0.0773
vn 0.2589 -0.9625 0.0808
vn -0.3034 -0.9440 0.1297
vn -0.0425 -0.9914 0.1236
vn 0.2694 -0.9565 0.1119
vn 0.9813 0.0900 -0.1703
vn 0.9812 0.0815 -0.1752
vn 0.9678 0.1780 -0.1781
vn 0.9986 0.0507 0.0125
vn 0.9996 0.0272 0.0121
vn 0.9867 0.1623 0.0036
vn 0.9984 0.0496 0.0276
vn 0.9986 0.0296 0.0430
vn 0.9820 0.1784 0.0614
vn 0.9980 0.0604 0.0192
vn 0.9981 0.0576 0.0218
vn 0.9758 0.2186 -0.0004
vn 0.9947 0.0995 -0.0274
vn 0.9984 0.0562 0.0013
vn 0.9804 0.1966 -0.0113
vn 0.9865 0.1624 -0.0190
vn 0.9979 0.0655 -0.0005
vn 0.9840 0.1779 -0.0038
vn -0.9828 0.0540 0.1766
vn -0.9851 0.0482 0.1652
vn -0.9819 0.1358 0.1321
vn -0.9997 0.0256 0.0012
vn -0.9996 0.0281 -0.0065
vn -0.9899 0.1400 -0.0207
vn -0.9995 0.0305 -0.0095
vn -0.9992 0.0355 -0.0187
vn -0.9858 0.1622 -0.0432
vn -0.9962 0.0806 0.0337
vn -0.9964 0.0847 0.0027
vn -0.9770 0.2129 -0.0142
vn -0.9943 0.1065 0.0053
vn -0.9945 0.1042 -0.0086
vn -0.9761 0.2169 -0.0139
vn -0.9931 0.1155 -0.0186
vn -0.9942 0.1061 -0.0149
vn -0.9758 0.2183 -0.0120
vn -0.9843 -0.1658 -0.0599
vn -0.9962 0.0527 -0.0689
vn -0.9986 0.0464 -0.0270
vn -0.9839 -0.1743 -0.0396
vn -0.9992 0.0200 -0.0350
vn -1.0000 0.0037 -0.0003
vn -0.9837 -0.1780 -0.0262
vn -0.9999 -0.0085 -0.0123
vn -0.9998 -0.0176 0.0052
vn -0.9959 0.0838 0.0336
vn -0.9932 0.1074 0.0449
vn -0.9944 0.0892 0.0568
vn -0.9966 0.0773 0.0283
vn -0.9948 0.0962 0.0340
vn -0.9956 0.0877 0.0328
vn -0.9973 0.0729 0.0075
vn -0.9954 0.0951 0.0079
vn -0.9953 0.0966 0.0014
vn -0.9831 -0.1196 0.1384
vn -0.9855 0.0739 0.1525
vn -0.9832 0.1032 0.1507
vn -0.9915 -0.1267 -0.0288
vn -0.9925 0.1134 -0.0452
vn -0.9871 0.1564 -0.0339
vn -0.9886 -0.1380 -0.0602
vn -0.9913 0.1025 -0.0826
vn -0.9881 0.1407 -0.0628
vn -0.9731 0.1318 0.1887
vn -0.9742 0.1139 0.1949
vn -0.9782 0.0889 0.1877
vn -0.9890 0.1470 0.0155
vn -0.9899 0.1401 0.0208
vn -0.9967 0.0794 0.0136
vn -0.9925 0.1223 -0.0073
vn -0.9899 0.1417 0.0102
vn -0.9960 0.0895 0.0071
vn 0.9867 -0.1548 0.0501
vn 0.9970 0.0629 0.0457
vn 0.9978 0.0656 0.0115
vn 0.9871 -0.1480 0.0613
vn 0.9992 0.0275 0.0279
vn 0.9974 -0.0278 -0.0663
vn 0.9864 -0.1621 0.0270
vn 0.9999 -0.0103 0.0036
vn 0.9841 -0.1626 -0.0710
vn 0.9962 0.0832 -0.0271
vn 0.9962 0.0842 -0.0218
vn 0.9966 0.0795 -0.0211
vn 0.9732 0.0991 -0.2076
vn 0.9782 0.1075 -0.1779
vn 0.9832 0.1063 -0.1485
vn 0.9731 0.1160 -0.1992
vn 0.9728 0.1587 -0.1685
vn 0.9781 0.1723 -0.1166
vn 0.9732 -0.1844 -0.1372
vn 0.9870 0.0501 -0.1525
vn 0.9796 0.1256 -0.1569
vn 0.9778 -0.2093 0.0085
vn 0.9989 0.0460 0.0130
vn 0.9953 0.0953 0.0142
vn 0.9799 -0.1993 -0.0116
vn 0.9981 0.0610 0.0071
vn 0.9959 0.0894 0.0155
vn 0.9799 0.0801 -0.1828
vn 0.9820 0.0755 -0.1731
vn 0.9834 0.0801 -0.1625
vn 0.9975 0.0701 -0.0059
vn 0.9974 0.0727 -0.0006
vn 0.9976 0.0697 0.0049
vn 0.9972 0.0740 0.0102
vn 0.9969 0.0771 0.0150
vn 0.9971 0.0737 0.0202
vn -0.0619 -0.2470 0.9670
vn 0.0196 -0.1099 0.9937
vn 0.1114 -0.0378 0.9931
vn -0.1477 -0.3016 0.9419
vn -0.1115 -0.1874 0.9759
vn -0.0633 -0.1449 0.9874
vn -0.3682 -0.2696 0.8898
vn -0.3636 -0.1967 0.9105
vn -0.3297 -0.1755 0.9276
vn 0.2370 0.0362 0.9708
vn 0.2402 0.1132 0.9641
vn 0.2184 0.1714 0.9607
vn 0.0207 0.0324 0.9993
vn 0.0377 0.1197 0.9921
vn 0.0488 0.1824 0.9820
vn -0.2576 0.0162 0.9661
vn -0.2003 0.0680 0.9774
vn -0.1391 0.1497 0.9789
vn 0.9827 -0.1851 -0.0008
vn 0.9997 -0.0254 -0.0047
vn 0.9736 -0.2282 -0.0069
vn 0.9813 -0.1926 0.0075
vn 0.9997 -0.0146 0.0174
vn 0.9801 -0.1718 0.0990
vn 0.9593 -0.1837 0.2143
vn 0.9724 0.0033 0.2331
vn 0.9484 -0.0259 0.3159
vn 0.9921 0.1249 0.0096
vn 0.9807 0.1953 0.0080
vn 0.9793 0.2018 -0.0129
vn 0.9680 0.1177 0.2218
vn 0.9686 0.1547 0.1944
vn 0.9760 0.1560 0.1519
vn 0.8924 0.0781 0.4444
vn 0.9046 0.1013 0.4140
vn 0.9173 0.1126 0.3820
vn -0.1700 -0.1144 -0.9788
vn -0.1028 0.0415 -0.9938
vn -0.0476 0.0383 -0.9981
vn -0.0522 -0.0742 -0.9959
vn -0.0391 0.0977 -0.9945
vn -0.0030 0.0993 -0.9951
vn -0.0094 -0.0971 -0.9952
vn -0.0347 0.1023 -0.9942
vn -0.0142 0.1782 -0.9839
vn -0.0254 0.0892 -0.9957
vn -0.0546 0.0569 -0.9969
vn -0.0745 0.0959 -0.9926
vn 0.0130 0.0640 -0.9979
vn 0.0104 0.0488 -0.9988
vn 0.0263 0.1029 -0.9943
vn 0.1164 0.0771 -0.9902
vn 0.1341 0.0624 -0.9890
vn 0.1400 0.1213 -0.9827
vn -0.9768 -0.2119 -0.0320
vn -0.9992 -0.0276 -0.0279
vn -0.9994 -0.0085 -0.0337
vn -0.9737 -0.2198 -0.0600
vn -0.9979 -0.0223 -0.0614
vn -0.9979 -0.0056 -0.0638
vn -0.9547 -0.2002 -0.2202
vn -0.9724 -0.0150 -0.2329
vn -0.9708 -0.0102 -0.2395
vn -0.9965 0.0738 -0.0391
vn -0.9927 0.1108 -0.0467
vn -0.9900 0.1292 -0.0570
vn -0.9959 0.0708 -0.0561
vn -0.9913 0.1204 -0.0542
vn -0.9916 0.1212 -0.0459
vn -0.9665 0.0672 -0.2479
vn -0.9632 0.1195 -0.2408
vn -0.9693 0.1145 -0.2176
vt 0.562500 0.187500
vt 0.583333 0.187500
vt 0.583333 0.208333
vt 0.562500 0.208333
vt 0.604167 0.187500
vt 0.604167 0.208333
vt 0.583333 0.230068
vt 0.562500 0.230068
vt 0.604167 0.229918
vt 0.541667 0.166667
vt 0.562500 0.166667
vt 0.541667 0.187500
vt 0.583333 0.166667
vt 0.604167 0.166667
vt 0.625000 0.166667
vt 0.625000 0.187500
vt 0.625000 0.208333
vt 0.625000 0.229167
vt 0.625000 0.250000
vt 0.604167 0.259950
vt 0.583333 0.260551
vt 0.562500 0.260551
vt 0.541667 0.230068
vt 0.541667 0.260551
vt 0.541667 0.208333
vt 0.562500 0.313402
vt 0.583333 0.313402
vt 0.583333 0.375000
vt 0.562500 0.375000
vt 0.604167 0.313251
vt 0.604167 0.375000
vt 0.583333 0.436598
vt 0.562500 0.436598
vt 0.604167 0.436749
vt 0.541667 0.313402
vt 0.625000 0.312500
vt 0.625000 0.375000
vt 0.625000 0.437500
vt 0.625000 0.500000
vt 0.604317 0.490050
vt 0.583333 0.489449
vt 0.562500 0.489449
vt 0.541667 0.436598
vt 0.541667 0.489449
vt 0.541667 0.375000
vt 0.562500 0.687500
vt 0.583333 0.687500
vt 0.583333 0.708333
vt 0.562500 0.708333
vt 0.605068 0.687500
vt 0.605068 0.708333
vt 0.583333 0.730068
vt 0.562500 0.730068
vt 0.604918 0.729918
vt 0.541667 0.666667
vt 0.562500 0.666667
vt 0.541667 0.687500
vt 0.583333 0.666667
vt 0.605068 0.666667
vt 0.635551 0.666667
vt 0.635551 0.687500
vt 0.635551 0.708333
vt 0.634950 0.729317
vt 0.625000 0.750000
vt 0.604317 0.759950
vt 0.583333 0.760551
vt 0.562500 0.760551
vt 0.541667 0.730068
vt 0.541667 0.760551
vt 0.541667 0.708333
vt 0.562500 0.813402
vt 0.583333 0.813402
vt 0.583333 0.875000
vt 0.562500 0.875000
vt 0.604167 0.813251
vt 0.604167 0.875000
vt 0.583333 0.937500
vt 0.562500 0.937500
vt 0.604167 0.937500
vt 0.541667 0.813402
vt 0.625000 0.812500
vt 0.625000 0.875000
vt 0.625000 0.937500
vt 0.625000 1.000000
vt 0.604167 1.000000
vt 0.583333 1.000000
vt 0.562500 1.000000
vt 0.541667 0.937500
vt 0.541667 1.000000
vt 0.541667 0.875000
vt 0.187500 0.687500
vt 0.250000 0.687500
vt 0.250000 0.708333
vt 0.187500 0.708333
vt 0.311598 0.687500
vt 0.311598 0.708333
vt 0.250000 0.729167
vt 0.187500 0.729167
vt 0.311749 0.729167
vt 0.125000 0.666667
vt 0.187500 0.666667
vt 0.125000 0.687500
vt 0.250000 0.666667
vt 0.311598 0.666667
vt 0.364449 0.666667
vt 0.364449 0.687500
vt 0.364449 0.708333
vt 0.365050 0.729317
vt 0.375000 0.750000
vt 0.312500 0.750000
vt 0.250000 0.750000
vt 0.187500 0.750000
vt 0.125000 0.729167
vt 0.125000 0.750000
vt 0.125000 0.708333
vt 0.688402 0.687500
vt 0.750000 0.687500
vt 0.750000 0.708333
vt 0.688402 0.708333
vt 0.812500 0.687500
vt 0.812500 0.708333
vt 0.750000 0.729167
vt 0.688251 0.729167
vt 0.812500 0.729167
vt 0.688402 0.666667
vt 0.750000 0.666667
vt 0.812500 0.666667
vt 0.875000 0.666667
vt 0.875000 0.687500
vt 0.875000 0.708333
vt 0.875000 0.729167
vt 0.875000 0.750000
vt 0.812500 0.750000
vt 0.750000 0.750000
vt 0.687500 0.750000
vt 0.688252 0.520833
vt 0.750000 0.520833
vt 0.750000 0.541667
vt 0.688402 0.541667
vt 0.812500 0.520833
vt 0.812500 0.541667
vt 0.750000 0.562500
vt 0.688402 0.562500
vt 0.812500 0.562500
vt 0.687500 0.500000
vt 0.634950 0.520683
vt 0.750000 0.500000
vt 0.812500 0.500000
vt 0.875000 0.500000
vt 0.875000 0.520833
vt 0.875000 0.541667
vt 0.875000 0.562500
vt 0.875000 0.583333
vt 0.812500 0.583333
vt 0.750000 0.583333
vt 0.688402 0.583333
vt 0.635551 0.562500
vt 0.635551 0.583333
vt 0.635551 0.541667
vt 0.688402 0.604167
vt 0.750000 0.604167
vt 0.750000 0.625000
vt 0.688402 0.625000
vt 0.812500 0.604167
vt 0.812500 0.625000
vt 0.750000 0.645833
vt 0.688402 0.645833
vt 0.812500 0.645833
vt 0.635551 0.604167
vt 0.875000 0.604167
vt 0.875000 0.625000
vt 0.875000 0.645833
vt 0.635551 0.645833
vt 0.635551 0.625000
vt 0.187500 0.520833
vt 0.250000 0.520833
vt 0.250000 0.541667
vt 0.187500 0.541667
vt 0.311749 0.520833
vt 0.311598 0.541667
vt 0.250000 0.562500
vt 0.187500 0.562500
vt 0.311598 0.562500
vt 0.125000 0.500000
vt 0.187500 0.500000
vt 0.125000 0.520833
vt 0.250000 0.500000
vt 0.312500 0.500000
vt 0.375000 0.500000
vt 0.365050 0.520683
vt 0.364449 0.541667
vt 0.364449 0.562500
vt 0.364449 0.583333
vt 0.311598 0.583333
vt 0.250000 0.583333
vt 0.187500 0.583333
vt 0.125000 0.562500
vt 0.125000 0.583333
vt 0.125000 0.541667
vt 0.187500 0.604167
vt 0.250000 0.604167
vt 0.250000 0.625000
vt 0.187500 0.625000
vt 0.311598 0.604167
vt 0.311598 0.625000
vt 0.250000 0.645833
vt 0.187500 0.645833
vt 0.311598 0.645833
vt 0.125000 0.604167
vt 0.364449 0.604167
vt 0.364449 0.625000
vt 0.364449 0.645833
vt 0.125000 0.645833
vt 0.125000 0.625000
vt 0.562500 0.519932
vt 0.583333 0.519932
vt 0.583333 0.541667
vt 0.562500 0.541667
vt 0.604918 0.520082
vt 0.605068 0.541667
vt 0.583333 0.562500
vt 0.562500 0.562500
vt 0.605068 0.562500
vt 0.541667 0.519932
vt 0.605068 0.583333
vt 0.583333 0.583333
vt 0.562500 0.583333
vt 0.541667 0.562500
vt 0.541667 0.583333
vt 0.541667 0.541667
vt 0.562500 0.604167
vt 0.583333 0.604167
vt 0.583333 0.625000
vt 0.562500 0.625000
vt 0.605068 0.604167
vt 0.605068 0.625000
vt 0.583333 0.645833
vt 0.562500 0.645833
vt 0.605068 0.645833
vt 0.541667 0.604167
vt 0.541667 0.645833
vt 0.541667 0.625000
vt 0.562500 0.020833
vt 0.583333 0.020833
vt 0.583333 0.041667
vt 0.562500 0.041667
vt 0.604167 0.020833
vt 0.604167 0.041667
vt 0.583333 0.062500
vt 0.562500 0.062500
vt 0.604167 0.062500
vt 0.541667 0.000000
vt 0.562500 0.000000
vt 0.541667 0.020833
vt 0.583333 0.000000
vt 0.604167 0.000000
vt 0.625000 0.000000
vt 0.625000 0.020833
vt 0.625000 0.041667
vt 0.625000 0.062500
vt 0.625000 0.083333
vt 0.604167 0.083333
vt 0.583333 0.083333
vt 0.562500 0.083333
vt 0.541667 0.062500
vt 0.541667 0.083333
vt 0.541667 0.041667
vt 0.562500 0.104167
vt 0.583333 0.104167
vt 0.583333 0.125000
vt 0.562500 0.125000
vt 0.604167 0.104167
vt 0.604167 0.125000
vt 0.583333 0.145833
vt 0.562500 0.145833
vt 0.604167 0.145833
vt 0.541667 0.104167
vt 0.625000 0.104167
vt 0.625000 0.125000
vt 0.625000 0.145833
vt 0.541667 0.145833
vt 0.541667 0.125000
vt 0.395833 0.104167
vt 0.416667 0.104167
vt 0.416667 0.125000
vt 0.395833 0.125000
vt 0.437500 0.104167
vt 0.437500 0.125000
vt 0.416667 0.145833
vt 0.395833 0.145833
vt 0.437500 0.145833
vt 0.375000 0.083333
vt 0.395833 0.083333
vt 0.375000 0.104167
vt 0.416667 0.083333
vt 0.437500 0.083333
vt 0.458333 0.083333
vt 0.458333 0.104167
vt 0.458333 0.125000
vt 0.458333 0.145833
vt 0.458333 0.166667
vt 0.437500 0.166667
vt 0.416667 0.166667
vt 0.395833 0.166667
vt 0.375000 0.145833
vt 0.375000 0.166667
vt 0.375000 0.125000
vt 0.479167 0.104167
vt 0.500000 0.104167
vt 0.500000 0.125000
vt 0.479167 0.125000
vt 0.520833 0.104167
vt 0.520833 0.125000
vt 0.500000 0.145833
vt 0.479167 0.145833
vt 0.520833 0.145833
vt 0.479167 0.083333
vt 0.500000 0.083333
vt 0.520833 0.083333
vt 0.520833 0.166667
vt 0.500000 0.166667
vt 0.479167 0.166667
vt 0.395833 0.020833
vt 0.416667 0.020833
vt 0.416667 0.041667
vt 0.395833 0.041667
vt 0.437500 0.020833
vt 0.437500 0.041667
vt 0.416667 0.062500
vt 0.395833 0.062500
vt 0.437500 0.062500
vt 0.375000 0.000000
vt 0.395833 0.000000
vt 0.375000 0.020833
vt 0.416667 0.000000
vt 0.437500 0.000000
vt 0.458333 0.000000
vt 0.458333 0.020833
vt 0.458333 0.041667
vt 0.458333 0.062500
vt 0.375000 0.062500
vt 0.375000 0.041667
vt 0.479167 0.020833
vt 0.500000 0.020833
vt 0.500000 0.041667
vt 0.479167 0.041667
vt 0.520833 0.020833
vt 0.520833 0.041667
vt 0.500000 0.062500
vt 0.479167 0.062500
vt 0.520833 0.062500
vt 0.479167 0.000000
vt 0.500000 0.000000
vt 0.520833 0.000000
vt 0.394932 0.604167
vt 0.416667 0.604167
vt 0.416667 0.625000
vt 0.394932 0.625000
vt 0.437500 0.604167
vt 0.437500 0.625000
vt 0.416667 0.645833
vt 0.394932 0.645833
vt 0.437500 0.645833
vt 0.394932 0.583333
vt 0.416667 0.583333
vt 0.437500 0.583333
vt 0.458333 0.583333
vt 0.458333 0.604167
vt 0.458333 0.625000
vt 0.458333 0.645833
vt 0.458333 0.666667
vt 0.437500 0.666667
vt 0.416667 0.666667
vt 0.394932 0.666667
vt 0.479167 0.604167
vt 0.500000 0.604167
vt 0.500000 0.625000
vt 0.479167 0.625000
vt 0.520833 0.604167
vt 0.520833 0.625000
vt 0.500000 0.645833
vt 0.479167 0.645833
vt 0.520833 0.645833
vt 0.479167 0.583333
vt 0.500000 0.583333
vt 0.520833 0.583333
vt 0.520833 0.666667
vt 0.500000 0.666667
vt 0.479167 0.666667
vt 0.395082 0.520082
vt 0.416667 0.519932
vt 0.416667 0.541667
vt 0.394932 0.541667
vt 0.437500 0.519932
vt 0.437500 0.541667
vt 0.416667 0.562500
vt 0.394932 0.562500
vt 0.437500 0.562500
vt 0.395683 0.490050
vt 0.416667 0.489449
vt 0.437500 0.489449
vt 0.458333 0.489449
vt 0.458333 0.519932
vt 0.458333 0.541667
vt 0.458333 0.562500
vt 0.479167 0.519932
vt 0.500000 0.519932
vt 0.500000 0.541667
vt 0.479167 0.541667
vt 0.520833 0.519932
vt 0.520833 0.541667
vt 0.500000 0.562500
vt 0.479167 0.562500
vt 0.520833 0.562500
vt 0.479167 0.489449
vt 0.500000 0.489449
vt 0.520833 0.489449
vt 0.395833 0.813251
vt 0.416667 0.813402
vt 0.416667 0.875000
vt 0.395833 0.875000
vt 0.437500 0.813402
vt 0.437500 0.875000
vt 0.416667 0.937500
vt 0.395833 0.937500
vt 0.437500 0.937500
vt 0.395683 0.759950
vt 0.375000 0.812500
vt 0.416667 0.760551
vt 0.437500 0.760551
vt 0.458333 0.760551
vt 0.458333 0.813402
vt 0.458333 0.875000
vt 0.458333 0.937500
vt 0.458333 1.000000
vt 0.437500 1.000000
vt 0.416667 1.000000
vt 0.395833 1.000000
vt 0.375000 0.937500
vt 0.375000 1.000000
vt 0.375000 0.875000
vt 0.479167 0.813402
vt 0.500000 0.813402
vt 0.500000 0.875000
vt 0.479167 0.875000
vt 0.520833 0.813402
vt 0.520833 0.875000
vt 0.500000 0.937500
vt 0.479167 0.937500
vt 0.520833 0.937500
vt 0.479167 0.760551
vt 0.500000 0.760551
vt 0.520833 0.760551
vt 0.520833 1.000000
vt 0.500000 1.000000
vt 0.479167 1.000000
vt 0.394932 0.687500
vt 0.416667 0.687500
vt 0.416667 0.708333
vt 0.394932 0.708333
vt 0.437500 0.687500
vt 0.437500 0.708333
vt 0.416667 0.730068
vt 0.395082 0.729918
vt 0.437500 0.730068
vt 0.458333 0.687500
vt 0.458333 0.708333
vt 0.458333 0.730068
vt 0.479167 0.687500
vt 0.500000 0.687500
vt 0.500000 0.708333
vt 0.479167 0.708333
vt 0.520833 0.687500
vt 0.520833 0.708333
vt 0.500000 0.730068
vt 0.479167 0.730068
vt 0.520833 0.730068
vt 0.395833 0.313251
vt 0.416667 0.313402
vt 0.416667 0.375000
vt 0.395833 0.375000
vt 0.437500 0.313402
vt 0.437500 0.375000
vt 0.416667 0.436598
vt 0.395833 0.436749
vt 0.437500 0.436598
vt 0.375000 0.250000
vt 0.395833 0.259950
vt 0.375000 0.312500
vt 0.416667 0.260551
vt 0.437500 0.260551
vt 0.458333 0.260551
vt 0.458333 0.313402
vt 0.458333 0.375000
vt 0.458333 0.436598
vt 0.375000 0.437500
vt 0.375000 0.375000
vt 0.479167 0.313402
vt 0.500000 0.313402
vt 0.500000 0.375000
vt 0.479167 0.375000
vt 0.520833 0.313402
vt 0.520833 0.375000
vt 0.500000 0.436598
vt 0.479167 0.436598
vt 0.520833 0.436598
vt 0.479167 0.260551
vt 0.500000 0.260551
vt 0.520833 0.260551
vt 0.395833 0.187500
vt 0.416667 0.187500
vt 0.416667 0.208333
vt 0.395833 0.208333
vt 0.437500 0.187500
vt 0.437500 0.208333
vt 0.416667 0.230068
vt 0.395833 0.229918
vt 0.437500 0.230068
vt 0.375000 0.187500
vt 0.458333 0.187500
vt 0.458333 0.208333
vt 0.458333 0.230068
vt 0.375000 0.229167
vt 0.375000 0.208333
vt 0.479167 0.187500
vt 0.500000 0.187500
vt 0.500000 0.208333
vt 0.479167 0.208333
vt 0.520833 0.187500
vt 0.520833 0.208333
vt 0.500000 0.230068
vt 0.479167 0.230068
vt 0.520833 0.230068
s 1
f 213/1/213 214/2/214 217/3/217 216/4/216
f 214/2/214 215/5/215 218/6/218 217/3/217
f 216/4/216 217/3/217 220/7/220 219/8/219
f 217/3/217 218/6/218 221/9/221 220/7/220
f 31/10/31 161/11/161 213/1/213 210/12/210
f 161/11/161 160/13/160 214/2/214 213/1/213
f 160/13/160 159/14/159 215/5/215 214/2/214
f 159/14/159 12/15/12 39/16/39 215/5/215
f 215/5/215 39/16/39 40/17/40 218/6/218
f 218/6/218 40/17/40 41/18/41 221/9/221
f 221/9/221 41/18/41 4/19/4 123/20/123
f 220/7/220 221/9/221 123/20/123 124/21/124
f 219/8/219 220/7/220 124/21/124 125/22/125
f 212/23/212 219/8/219 125/22/125 19/24/19
f 211/25/211 216/4/216 219/8/219 212/23/212
f 210/12/210 213/1/213 216/4/216 211/25/211
f 222/26/222 223/27/223 226/28/226 225/29/225
f 223/27/223 224/30/224 227/31/227 226/28/226
f 225/29/225 226/28/226 229/32/229 228/33/228
f 226/28/226 227/31/227 230/34/230 229/32/229
f 19/24/19 125/22/125 222/26/222 204/35/204
f 125/22/125 124/21/124 223/27/223 222/26/222
f 124/21/124 123/20/123 224/30/224 223/27/223
f 123/20/123 4/19/4 48/36/48 224/30/224
f 224/30/224 48/36/48 49/37/49 227/31/227
f 227/31/227 49/37/49 50/38/50 230/34/230
f 230/34/230 50/38/50 8/39/8 129/40/129
f 229/32/229 230/34/230 129/40/129 130/41/130
f 228/33/228 229/32/229 130/41/130 131/42/131
f 206/43/206 228/33/228 131/42/131 21/44/21
f 205/45/205 225/29/225 228/33/228 206/43/206
f 204/35/204 222/26/222 225/29/225 205/45/205
f 231/46/231 232/47/232 235/48/235 234/49/234
f 232/47/232 233/50/233 236/51/236 235/48/235
f 234/49/234 235/48/235 238/52/238 237/53/237
f 235/48/235 236/51/236 239/54/239 238/52/238
f 27/55/27 149/56/149 231/46/231 198/57/198
f 149/56/149 148/58/148 232/47/232 231/46/231
f 148/58/148 147/59/147 233/50/233 232/47/232
f 147/59/147 16/60/16 57/61/57 233/50/233
f 233/50/233 57/61/57 58/62/58 236/51/236
f 236/51/236 58/62/58 59/63/59 239/54/239
f 239/54/239 59/63/59 6/64/6 135/65/135
f 238/52/238 239/54/239 135/65/135 136/66/136
f 237/53/237 238/52/238 136/66/136 137/67/137
f 200/68/200 237/53/237 137/67/137 23/69/23
f 199/70/199 234/49/234 237/53/237 200/68/200
f 198/57/198 231/46/231 234/49/234 199/70/199
f 240/71/240 241/72/241 244/73/244 243/74/243
f 241/72/241 242/75/242 245/76/245 244/73/244
f 243/74/243 244/73/244 247/77/247 246/78/246
f 244/73/244 245/76/245 248/79/248 247/77/247
f 23/69/23 137/67/137 240/71/240 192/80/192
f 137/67/137 136/66/136 241/72/241 240/71/240
f 136/66/136 135/65/135 242/75/242 241/72/241
f 135/65/135 6/64/6 66/81/66 242/75/242
f 242/75/242 66/81/66 67/82/67 245/76/245
f 245/76/245 67/82/67 68/83/68 248/79/248
f 248/79/248 68/83/68 2/84/2 38/85/38
f 247/77/247 248/79/248 38/85/38 37/86/37
f 246/78/246 247/77/247 37/86/37 36/87/36
f 194/88/194 246/78/246 36/87/36 18/89/18
f 193/90/193 243/74/243 246/78/246 194/88/194
f 192/80/192 240/71/240 243/74/243 193/90/193
f 249/91/249 250/92/250 253/93/253 252/94/252
f 250/92/250 251/95/251 254/96/254 253/93/253
f 252/94/252 253/93/253 256/97/256 255/98/255
f 253/93/253 254/96/254 257/99/257 256/97/256
f 10/100/10 104/101/104 249/91/249 33/102/33
f 104/101/104 103/103/103 250/92/250 249/91/249
f 103/103/103 102/104/102 251/95/251 250/92/250
f 102/104/102 13/105/13 83/106/83 251/95/251
f 251/95/251 83/106/83 82/107/82 254/96/254
f 254/96/254 82/107/82 81/108/81 257/99/257
f 257/99/257 81/108/81 5/109/5 65/110/65
f 256/97/256 257/99/257 65/110/65 64/111/64
f 255/98/255 256/97/256 64/111/64 63/112/63
f 35/113/35 255/98/255 63/112/63 1/114/1
f 34/115/34 252/94/252 255/98/255 35/113/35
f 33/102/33 249/91/249 252/94/252 34/115/34
f 258/116/258 259/117/259 262/118/262 261/119/261
f 259/117/259 260/120/260 263/121/263 262/118/262
f 261/119/261 262/118/262 265/122/265 264/123/264
f 262/118/262 263/121/263 266/124/266 265/122/265
f 16/60/16 98/125/98 258/116/258 57/61/57
f 98/125/98 97/126/97 259/117/259 258/116/258
f 97/126/97 96/127/96 260/120/260 259/117/259
f 96/127/96 11/128/11 77/129/77 260/120/260
f 260/120/260 77/129/77 76/130/76 263/121/263
f 263/121/263 76/130/76 75/131/75 266/124/266
f 266/124/266 75/131/75 2/132/2 68/133/68
f 265/122/265 266/124/266 68/133/68 67/134/67
f 264/123/264 265/122/265 67/134/67 66/135/66
f 59/63/59 264/123/264 66/135/66 6/64/6
f 58/62/58 261/119/261 264/123/264 59/63/59
f 57/61/57 258/116/258 261/119/261 58/62/58
f 267/136/267 268/137/268 271/138/271 270/139/270
f 268/137/268 269/140/269 272/141/272 271/138/271
f 270/139/270 271/138/271 274/142/274 273/143/273
f 271/138/271 272/141/272 275/144/275 274/142/274
f 8/39/8 50/145/50 267/136/267 87/146/87
f 50/145/50 49/147/49 268/137/268 267/136/267
f 49/147/49 48/148/48 269/140/269 268/137/268
f 48/148/48 4/149/4 41/150/41 269/140/269
f 269/140/269 41/150/41 40/151/40 272/141/272
f 272/141/272 40/151/40 39/152/39 275/144/275
f 275/144/275 39/152/39 12/153/12 93/154/93
f 274/142/274 275/144/275 93/154/93 94/155/94
f 273/143/273 274/142/274 94/155/94 95/156/95
f 89/157/89 273/143/273 95/156/95 15/158/15
f 88/159/88 270/139/270 273/143/273 89/157/89
f 87/146/87 267/136/267 270/139/270 88/159/88
f 276/160/276 277/161/277 280/162/280 279/163/279
f 277/161/277 278/164/278 281/165/281 280/162/280
f 279/163/279 280/162/280 283/166/283 282/167/282
f 280/162/280 281/165/281 284/168/284 283/166/283
f 15/158/15 95/156/95 276/160/276 90/169/90
f 95/156/95 94/155/94 277/161/277 276/160/276
f 94/155/94 93/154/93 278/164/278 277/161/277
f 93/154/93 12/153/12 80/170/80 278/164/278
f 278/164/278 80/170/80 79/171/79 281/165/281
f 281/165/281 79/171/79 78/172/78 284/168/284
f 284/168/284 78/172/78 11/128/11 96/127/96
f 283/166/283 284/168/284 96/127/96 97/126/97
f 282/167/282 283/166/283 97/126/97 98/125/98
f 92/173/92 282/167/282 98/125/98 16/60/16
f 91/174/91 279/163/279 282/167/282 92/173/92
f 90/169/90 276/160/276 279/163/279 91/174/91
f 285/175/285 286/176/286 289/177/289 288/178/288
f 286/176/286 287/179/287 290/180/290 289/177/289
f 288/178/288 289/177/289 292/181/292 291/182/291
f 289/177/289 290/180/290 293/183/293 292/181/292
f 3/184/3 47/185/47 285/175/285 69/186/69
f 47/185/47 46/187/46 286/176/286 285/175/285
f 46/187/46 45/188/45 287/179/287 286/176/286
f 45/188/45 7/189/7 56/190/56 287/179/287
f 287/179/287 56/190/56 55/191/55 290/180/290
f 290/180/290 55/191/55 54/192/54 293/183/293
f 293/183/293 54/192/54 14/193/14 99/194/99
f 292/181/292 293/183/293 99/194/99 100/195/100
f 291/182/291 292/181/292 100/195/100 101/196/101
f 71/197/71 291/182/291 101/196/101 9/198/9
f 70/199/70 288/178/288 291/182/291 71/197/71
f 69/186/69 285/175/285 288/178/288 70/199/70
f 294/200/294 295/201/295 298/202/298 297/203/297
f 295/201/295 296/204/296 299/205/299 298/202/298
f 297/203/297 298/202/298 301/206/301 300/207/300
f 298/202/298 299/205/299 302/208/302 301/206/301
f 9/198/9 101/196/101 294/200/294 72/209/72
f 101/196/101 100/195/100 295/201/295 294/200/294
f 100/195/100 99/194/99 296/204/296 295/201/295
f 99/194/99 14/193/14 86/210/86 296/204/296
f 296/204/296 86/210/86 85/211/85 299/205/299
f 299/205/299 85/211/85 84/212/84 302/208/302
f 302/208/302 84/212/84 13/105/13 102/104/102
f 301/206/301 302/208/302 102/104/102 103/103/103
f 300/207/300 301/206/301 103/103/103 104/101/104
f 74/213/74 300/207/300 104/101/104 10/100/10
f 73/214/73 297/203/297 300/207/300 74/213/74
f 72/209/72 294/200/294 297/203/297 73/214/73
f 303/215/303 304/216/304 307/217/307 306/218/306
f 304/216/304 305/219/305 308/220/308 307/217/307
f 306/218/306 307/217/307 310/221/310 309/222/309
f 307/217/307 308/220/308 311/223/311 310/221/310
f 21/44/21 131/42/131 303/215/303 186/224/186
f 131/42/131 130/41/130 304/216/304 303/215/303
f 130/41/130 129/40/129 305/219/305 304/216/304
f 129/40/129 8/39/8 87/146/87 305/219/305
f 305/219/305 87/146/87 88/159/88 308/220/308
f 308/220/308 88/159/88 89/157/89 311/223/311
f 311/223/311 89/157/89 15/158/15 141/225/141
f 310/221/310 311/223/311 141/225/141 142/226/142
f 309/222/309 310/221/310 142/226/142 143/227/143
f 188/228/188 309/222/309 143/227/143 25/229/25
f 187/230/187 306/218/306 309/222/309 188/228/188
f 186/224/186 303/215/303 306/218/306 187/230/187
f 312/231/312 313/232/313 316/233/316 315/234/315
f 313/232/313 314/235/314 317/236/317 316/233/316
f 315/234/315 316/233/316 319/237/319 318/238/318
f 316/233/316 317/236/317 320/239/320 319/237/319
f 25/229/25 143/227/143 312/231/312 180/240/180
f 143/227/143 142/226/142 313/232/313 312/231/312
f 142/226/142 141/225/141 314/235/314 313/232/313
f 141/225/141 15/158/15 90/169/90 314/235/314
f 314/235/314 90/169/90 91/174/91 317/236/317
f 317/236/317 91/174/91 92/173/92 320/239/320
f 320/239/320 92/173/92 16/60/16 147/59/147
f 319/237/319 320/239/320 147/59/147 148/58/148
f 318/238/318 319/237/319 148/58/148 149/56/149
f 182/241/182 318/238/318 149/56/149 27/55/27
f 181/242/181 315/234/315 318/238/318 182/241/182
f 180/240/180 312/231/312 315/234/315 181/242/181
f 321/243/321 322/244/322 325/245/325 324/246/324
f 322/244/322 323/247/323 326/248/326 325/245/325
f 324/246/324 325/245/325 328/249/328 327/250/327
f 325/245/325 326/248/326 329/251/329 328/249/328
f 18/252/18 36/253/36 321/243/321 174/254/174
f 36/253/36 37/255/37 322/244/322 321/243/321
f 37/255/37 38/256/38 323/247/323 322/244/322
f 38/256/38 2/257/2 75/258/75 323/247/323
f 323/247/323 75/258/75 76/259/76 326/248/326
f 326/248/326 76/259/76 77/260/77 329/251/329
f 329/251/329 77/260/77 11/261/11 153/262/153
f 328/249/328 329/251/329 153/262/153 154/263/154
f 327/250/327 328/249/328 154/263/154 155/264/155
f 176/265/176 327/250/327 155/264/155 29/266/29
f 175/267/175 324/246/324 327/250/327 176/265/176
f 174/254/174 321/243/321 324/246/324 175/267/175
f 330/268/330 331/269/331 334/270/334 333/271/333
f 331/269/331 332/272/332 335/273/335 334/270/334
f 333/271/333 334/270/334 337/274/337 336/275/336
f 334/270/334 335/273/335 338/276/338 337/274/337
f 29/266/29 155/264/155 330/268/330 168/277/168
f 155/264/155 154/263/154 331/269/331 330/268/330
f 154/263/154 153/262/153 332/272/332 331/269/331
f 153/262/153 11/261/11 78/278/78 332/272/332
f 332/272/332 78/278/78 79/279/79 335/273/335
f 335/273/335 79/279/79 80/280/80 338/276/338
f 338/276/338 80/280/80 12/15/12 159/14/159
f 337/274/337 338/276/338 159/14/159 160/13/160
f 336/275/336 337/274/337 160/13/160 161/11/161
f 170/281/170 336/275/336 161/11/161 31/10/31
f 169/282/169 333/271/333 336/275/336 170/281/170
f 168/277/168 330/268/330 333/271/333 169/282/169
f 339/283/339 340/284/340 343/285/343 342/286/342
f 340/284/340 341/287/341 344/288/344 343/285/343
f 342/286/342 343/285/343 346/289/346 345/290/345
f 343/285/343 344/288/344 347/291/347 346/289/346
f 10/292/10 113/293/113 339/283/339 74/294/74
f 113/293/113 112/295/112 340/284/340 339/283/339
f 112/295/112 111/296/111 341/287/341 340/284/340
f 111/296/111 30/297/30 165/298/165 341/287/341
f 341/287/341 165/298/165 166/299/166 344/288/344
f 344/288/344 166/299/166 167/300/167 347/291/347
f 347/291/347 167/300/167 32/301/32 114/302/114
f 346/289/346 347/291/347 114/302/114 115/303/115
f 345/290/345 346/289/346 115/303/115 116/304/116
f 72/305/72 345/290/345 116/304/116 9/306/9
f 73/307/73 342/286/342 345/290/345 72/305/72
f 74/294/74 339/283/339 342/286/342 73/307/73
f 348/308/348 349/309/349 352/310/352 351/311/351
f 349/309/349 350/312/350 353/313/353 352/310/352
f 351/311/351 352/310/352 355/314/355 354/315/354
f 352/310/352 353/313/353 356/316/356 355/314/355
f 30/297/30 158/317/158 348/308/348 165/298/165
f 158/317/158 157/318/157 349/309/349 348/308/348
f 157/318/157 156/319/156 350/312/350 349/309/349
f 156/319/156 29/266/29 168/277/168 350/312/350
f 350/312/350 168/277/168 169/282/169 353/313/353
f 353/313/353 169/282/169 170/281/170 356/316/356
f 356/316/356 170/281/170 31/10/31 162/320/162
f 355/314/355 356/316/356 162/320/162 163/321/163
f 354/315/354 355/314/355 163/321/163 164/322/164
f 167/300/167 354/315/354 164/322/164 32/301/32
f 166/299/166 351/311/351 354/315/354 167/300/167
f 165/298/165 348/308/348 351/311/351 166/299/166
f 357/323/357 358/324/358 361/325/361 360/326/360
f 358/324/358 359/327/359 362/328/362 361/325/361
f 360/326/360 361/325/361 364/329/364 363/330/363
f 361/325/361 362/328/362 365/331/365 364/329/364
f 1/332/1 117/333/117 357/323/357 35/334/35
f 117/333/117 118/335/118 358/324/358 357/323/357
f 118/335/118 119/336/119 359/327/359 358/324/358
f 119/336/119 17/337/17 171/338/171 359/327/359
f 359/327/359 171/338/171 172/339/172 362/328/362
f 362/328/362 172/339/172 173/340/173 365/331/365
f 365/331/365 173/340/173 30/297/30 111/296/111
f 364/329/364 365/331/365 111/296/111 112/295/112
f 363/330/363 364/329/364 112/295/112 113/293/113
f 33/341/33 363/330/363 113/293/113 10/292/10
f 34/342/34 360/326/360 363/330/363 33/341/33
f 35/334/35 357/323/357 360/326/360 34/342/34
f 366/343/366 367/344/367 370/345/370 369/346/369
f 367/344/367 368/347/368 371/348/371 370/345/370
f 369/346/369 370/345/370 373/349/373 372/350/372
f 370/345/370 371/348/371 374/351/374 373/349/373
f 17/337/17 120/352/120 366/343/366 171/338/171
f 120/352/120 121/353/121 367/344/367 366/343/366
f 121/353/121 122/354/122 368/347/368 367/344/367
f 122/354/122 18/252/18 174/254/174 368/347/368
f 368/347/368 174/254/174 175/267/175 371/348/371
f 371/348/371 175/267/175 176/265/176 374/351/374
f 374/351/374 176/265/176 29/266/29 156/319/156
f 373/349/373 374/351/374 156/319/156 157/318/157
f 372/350/372 373/349/373 157/318/157 158/317/158
f 173/340/173 372/350/372 158/317/158 30/297/30
f 172/339/172 369/346/369 372/350/372 173/340/173
f 171/338/171 366/343/366 369/346/369 172/339/172
f 375/355/375 376/356/376 379/357/379 378/358/378
f 376/356/376 377/359/377 380/360/380 379/357/379
f 378/358/378 379/357/379 382/361/382 381/362/381
f 379/357/379 380/360/380 383/363/383 382/361/382
f 14/193/14 107/364/107 375/355/375 86/210/86
f 107/364/107 106/365/106 376/356/376 375/355/375
f 106/365/106 105/366/105 377/359/377 376/356/376
f 105/366/105 26/367/26 177/368/177 377/359/377
f 377/359/377 177/368/177 178/369/178 380/360/380
f 380/360/380 178/369/178 179/370/179 383/363/383
f 383/363/383 179/370/179 28/371/28 108/372/108
f 382/361/382 383/363/383 108/372/108 109/373/109
f 381/362/381 382/361/382 109/373/109 110/374/110
f 84/212/84 381/362/381 110/374/110 13/105/13
f 85/211/85 378/358/378 381/362/381 84/212/84
f 86/210/86 375/355/375 378/358/378 85/211/85
f 384/375/384 385/376/385 388/377/388 387/378/387
f 385/376/385 386/379/386 389/380/389 388/377/388
f 387/378/387 388/377/388 391/381/391 390/382/390
f 388/377/388 389/380/389 392/383/392 391/381/391
f 26/367/26 146/384/146 384/375/384 177/368/177
f 146/384/146 145/385/145 385/376/385 384/375/384
f 145/385/145 144/386/144 386/379/386 385/376/385
f 144/386/144 25/229/25 180/240/180 386/379/386
f 386/379/386 180/240/180 181/242/181 389/380/389
f 389/380/389 181/242/181 182/241/182 392/383/392
f 392/383/392 182/241/182 27/55/27 150/387/150
f 391/381/391 392/383/392 150/387/150 151/388/151
f 390/382/390 391/381/391 151/388/151 152/389/152
f 179/370/179 390/382/390 152/389/152 28/371/28
f 178/369/178 387/378/387 390/382/390 179/370/179
f 177/368/177 384/375/384 387/378/387 178/369/178
f 393/390/393 394/391/394 397/392/397 396/393/396
f 394/391/394 395/394/395 398/395/398 397/392/397
f 396/393/396 397/392/397 400/396/400 399/397/399
f 397/392/397 398/395/398 401/398/401 400/396/400
f 7/189/7 53/399/53 393/390/393 56/190/56
f 53/399/53 52/400/52 394/391/394 393/390/393
f 52/400/52 51/401/51 395/394/395 394/391/394
f 51/401/51 22/402/22 183/403/183 395/394/395
f 395/394/395 183/403/183 184/404/184 398/395/398
f 398/395/398 184/404/184 185/405/185 401/398/401
f 401/398/401 185/405/185 26/367/26 105/366/105
f 400/396/400 401/398/401 105/366/105 106/365/106
f 399/397/399 400/396/400 106/365/106 107/364/107
f 54/192/54 399/397/399 107/364/107 14/193/14
f 55/191/55 396/393/396 399/397/399 54/192/54
f 56/190/56 393/390/393 396/393/396 55/191/55
f 402/406/402 403/407/403 406/408/406 405/409/405
f 403/407/403 404/410/404 407/411/407 406/408/406
f 405/409/405 406/408/406 409/412/409 408/413/408
f 406/408/406 407/411/407 410/414/410 409/412/409
f 22/402/22 134/415/134 402/406/402 183/403/183
f 134/415/134 133/416/133 403/407/403 402/406/402
f 133/416/133 132/417/132 404/410/404 403/407/403
f 132/417/132 21/44/21 186/224/186 404/410/404
f 404/410/404 186/224/186 187/230/187 407/411/407
f 407/411/407 187/230/187 188/228/188 410/414/410
f 410/414/410 188/228/188 25/229/25 144/386/144
f 409/412/409 410/414/410 144/386/144 145/385/145
f 408/413/408 409/412/409 145/385/145 146/384/146
f 185/405/185 408/413/408 146/384/146 26/367/26
f 184/404/184 405/409/405 408/413/408 185/405/185
f 183/403/183 402/406/402 405/409/405 184/404/184
f 411/418/411 412/419/412 415/420/415 414/421/414
f 412/419/412 413/422/413 416/423/416 415/420/415
f 414/421/414 415/420/415 418/424/418 417/425/417
f 415/420/415 416/423/416 419/426/419 418/424/418
f 5/109/5 62/427/62 411/418/411 65/428/65
f 62/427/62 61/429/61 412/419/412 411/418/411
f 61/429/61 60/430/60 413/422/413 412/419/412
f 60/430/60 24/431/24 189/432/189 413/422/413
f 413/422/413 189/432/189 190/433/190 416/423/416
f 416/423/416 190/433/190 191/434/191 419/426/419
f 419/426/419 191/434/191 17/435/17 119/436/119
f 418/424/418 419/426/419 119/436/119 118/437/118
f 417/425/417 418/424/418 118/437/118 117/438/117
f 63/439/63 417/425/417 117/438/117 1/440/1
f 64/441/64 414/421/414 417/425/417 63/439/63
f 65/428/65 411/418/411 414/421/414 64/441/64
f 420/442/420 421/443/421 424/444/424 423/445/423
f 421/443/421 422/446/422 425/447/425 424/444/424
f 423/445/423 424/444/424 427/448/427 426/449/426
f 424/444/424 425/447/425 428/450/428 427/448/427
f 24/431/24 140/451/140 420/442/420 189/432/189
f 140/451/140 139/452/139 421/443/421 420/442/420
f 139/452/139 138/453/138 422/446/422 421/443/421
f 138/453/138 23/69/23 192/80/192 422/446/422
f 422/446/422 192/80/192 193/90/193 425/447/425
f 425/447/425 193/90/193 194/88/194 428/450/428
f 428/450/428 194/88/194 18/89/18 122/454/122
f 427/448/427 428/450/428 122/454/122 121/455/121
f 426/449/426 427/448/427 121/455/121 120/456/120
f 191/434/191 426/449/426 120/456/120 17/435/17
f 190/433/190 423/445/423 426/449/426 191/434/191
f 189/432/189 420/442/420 423/445/423 190/433/190
f 429/457/429 430/458/430 433/459/433 432/460/432
f 430/458/430 431/461/431 434/462/434 433/459/433
f 432/460/432 433/459/433 436/463/436 435/464/435
f 433/459/433 434/462/434 437/465/437 436/463/436
f 13/105/13 110/374/110 429/457/429 83/106/83
f 110/374/110 109/373/109 430/458/430 429/457/429
f 109/373/109 108/372/108 431/461/431 430/458/430
f 108/372/108 28/371/28 195/466/195 431/461/431
f 431/461/431 195/466/195 196/467/196 434/462/434
f 434/462/434 196/467/196 197/468/197 437/465/437
f 437/465/437 197/468/197 24/431/24 60/430/60
f 436/463/436 437/465/437 60/430/60 61/429/61
f 435/464/435 436/463/436 61/429/61 62/427/62
f 81/108/81 435/464/435 62/427/62 5/109/5
f 82/107/82 432/460/432 435/464/435 81/108/81
f 83/106/83 429/457/429 432/460/432 82/107/82
f 438/469/438 439/470/439 442/471/442 441/472/441
f 439/470/439 440/473/440 443/474/443 442/471/442
f 441/472/441 442/471/442 445/475/445 444/476/444
f 442/471/442 443/474/443 446/477/446 445/475/445
f 28/371/28 152/389/152 438/469/438 195/466/195
f 152/389/152 151/388/151 439/470/439 438/469/438
f 151/388/151 150/387/150 440/473/440 439/470/439
f 150/387/150 27/55/27 198/57/198 440/473/440
f 440/473/440 198/57/198 199/70/199 443/474/443
f 443/474/443 199/70/199 200/68/200 446/477/446
f 446/477/446 200/68/200 23/69/23 138/453/138
f 445/475/445 446/477/446 138/453/138 139/452/139
f 444/476/444 445/475/445 139/452/139 140/451/140
f 197/468/197 444/476/444 140/451/140 24/431/24
f 196/467/196 441/472/441 444/476/444 197/468/197
f 195/466/195 438/469/438 441/472/441 196/467/196
f 447/478/447 448/479/448 451/480/451 450/481/450
f 448/479/448 449/482/449 452/483/452 451/480/451
f 450/481/450 451/480/451 454/484/454 453/485/453
f 451/480/451 452/483/452 455/486/455 454/484/454
f 3/487/3 44/488/44 447/478/447 47/489/47
f 44/488/44 43/490/43 448/479/448 447/478/447
f 43/490/43 42/491/42 449/482/449 448/479/448
f 42/491/42 20/492/20 201/493/201 449/482/449
f 449/482/449 201/493/201 202/494/202 452/483/452
f 452/483/452 202/494/202 203/495/203 455/486/455
f 455/486/455 203/495/203 22/402/22 51/401/51
f 454/484/454 455/486/455 51/401/51 52/400/52
f 453/485/453 454/484/454 52/400/52 53/399/53
f 45/496/45 453/485/453 53/399/53 7/189/7
f 46/497/46 450/481/450 453/485/453 45/496/45
f 47/489/47 447/478/447 450/481/450 46/497/46
f 456/498/456 457/499/457 460/500/460 459/501/459
f 457/499/457 458/502/458 461/503/461 460/500/460
f 459/501/459 460/500/460 463/504/463 462/505/462
f 460/500/460 461/503/461 464/506/464 463/504/463
f 20/492/20 128/507/128 456/498/456 201/493/201
f 128/507/128 127/508/127 457/499/457 456/498/456
f 127/508/127 126/509/126 458/502/458 457/499/457
f 126/509/126 19/24/19 204/35/204 458/502/458
f 458/502/458 204/35/204 205/45/205 461/503/461
f 461/503/461 205/45/205 206/43/206 464/506/464
f 464/506/464 206/43/206 21/44/21 132/417/132
f 463/504/463 464/506/464 132/417/132 133/416/133
f 462/505/462 463/504/463 133/416/133 134/415/134
f 203/495/203 462/505/462 134/415/134 22/402/22
f 202/494/202 459/501/459 462/505/462 203/495/203
f 201/493/201 456/498/456 459/501/459 202/494/202
f 465/510/465 466/511/466 469/512/469 468/513/468
f 466/511/466 467/514/467 470/515/470 469/512/469
f 468/513/468 469/512/469 472/516/472 471/517/471
f 469/512/469 470/515/470 473/518/473 472/516/472
f 9/306/9 116/304/116 465/510/465 71/519/71
f 116/304/116 115/303/115 466/511/466 465/510/465
f 115/303/115 114/302/114 467/514/467 466/511/466
f 114/302/114 32/301/32 207/520/207 467/514/467
f 467/514/467 207/520/207 208/521/208 470/515/470
f 470/515/470 208/521/208 209/522/209 473/518/473
f 473/518/473 209/522/209 20/492/20 42/491/42
f 472/516/472 473/518/473 42/491/42 43/490/43
f 471/517/471 472/516/472 43/490/43 44/488/44
f 69/523/69 471/517/471 44/488/44 3/487/3
f 70/524/70 468/513/468 471/517/471 69/523/69
f 71/519/71 465/510/465 468/513/468 70/524/70
f 474/525/474 475/526/475 478/527/478 477/528/477
f 475/526/475 476/529/476 479/530/479 478/527/478
f 477/528/477 478/527/478 481/531/481 480/532/480
f 478/527/478 479/530/479 482/533/482 481/531/481
f 32/301/32 164/322/164 474/525/474 207/520/207
f 164/322/164 163/321/163 475/526/475 474/525/474
f 163/321/163 162/320/162 476/529/476 475/526/475
f 162/320/162 31/10/31 210/12/210 476/529/476
f 476/529/476 210/12/210 211/25/211 479/530/479
f 479/530/479 211/25/211 212/23/212 482/533/482
f 482/533/482 212/23/212 19/24/19 126/509/126
f 481/531/481 482/533/482 126/509/126 127/508/127
f 480/532/480 481/531/481 127/508/127 128/507/128
f 209/522/209 480/532/480 128/507/128 20/492/20
f 208/521/208 477/528/477 480/532/480 209/522/209
f 207/520/207 474/525/474 477/528/477 208/521/208
