# Blender 5.2.2 LTS
# www.blender.org
o wall_small_2
v 1.914614 -4.074042 10.133439
v 4.138654 4.644436 9.805619
v -3.604876 -4.183621 10.545630
v -3.481194 4.311103 10.417313
v 2.436336 -2.747696 -9.898018
v 2.697736 2.905611 -10.608541
v -1.040484 -2.673432 -10.049564
v -1.728619 3.065678 -10.805717
v -2.511232 -3.774747 -0.110092
v -3.210624 4.795579 -0.335709
v 2.314551 -4.139103 -0.076942
v 2.978075 2.473134 -0.896312
v -0.780789 -4.245829 10.260208
v 3.245678 0.289243 10.372071
v 0.459595 4.847988 10.576242
v -3.694443 0.044184 10.573799
v -3.104037 -4.037273 5.231830
v -2.519990 4.010461 -5.879028
v -1.472741 0.094346 -10.712922
v 0.729783 -2.830013 -10.189780
v 0.544807 3.313012 -11.499785
v 2.787785 -0.016321 -10.919757
v 2.413955 -3.465698 -5.354807
v 3.715196 3.704046 4.779825
v -1.764745 -3.263716 -5.427733
v -3.503246 4.719254 5.178386
v 2.269392 -4.473624 5.368144
v 2.900423 2.743481 -5.873280
v 0.104383 4.475522 -0.855016
v -0.125060 -4.262396 -0.022934
v 2.880672 -0.843098 -0.467970
v -3.461159 0.360019 -0.407498
v -0.159251 0.204145 10.726128
v -2.685659 0.201197 -5.950890
v 0.629917 0.071545 -10.764905
v 3.224456 -0.284166 5.107363
v 0.328690 -3.738562 -5.402362
v 0.269854 4.716791 4.889427
v 0.303145 4.164088 -5.941023
v -0.509461 -4.642056 5.338204
v 2.814175 -0.456346 -5.573540
v -3.797001 0.211995 5.186151
v -2.345396 -4.423371 10.843032
v 0.721448 -4.265754 10.313831
v 2.538146 -2.192844 10.294991
v 3.890830 2.801457 10.222146
v 2.624624 5.145587 10.805280
v -1.792816 4.709687 10.815025
v -3.688720 2.451426 10.643991
v -3.889376 -2.325800 11.236740
v -2.821700 -3.927243 2.551612
v -3.469145 -4.261264 7.948500
v -2.886550 4.447337 -3.102359
v -2.137830 3.552986 -8.684495
v -1.659348 1.750682 -10.879553
v -1.257784 -1.475565 -10.464576
v 1.702348 -2.841828 -10.143496
v -0.248635 -2.803290 -10.220155
v -0.735283 3.253078 -11.347945
v 1.808354 3.399747 -11.801213
v 2.807513 1.566432 -10.919118
v 2.620389 -1.565106 -10.382108
v 2.435214 -3.922980 -2.817788
v 2.462292 -3.117437 -7.933694
v 3.323165 3.024265 1.907368
v 4.091152 4.366937 7.624652
v -1.387414 -2.996791 -8.052124
v -2.144902 -3.530917 -2.773022
v -3.597149 4.594337 8.151241
v -3.379302 4.803293 2.401266
v 2.078251 -4.323088 8.148390
v 2.313823 -4.363235 2.632609
v 2.932075 3.004501 -8.451626
v 2.847543 2.476369 -3.392498
v -1.733709 4.712529 -0.468254
v 1.731282 3.601439 -0.975276
v -1.396375 -4.199909 -0.064517
v 1.141102 -4.287199 0.007785
v 3.079928 0.894778 -0.716824
v 2.843977 -2.649332 -0.320622
v -3.438314 2.827101 -0.297813
v -3.058732 -1.913234 -0.254503
v 1.696366 0.290501 10.677673
v 0.178575 2.715129 11.281714
v -2.092588 0.108250 10.972122
v -0.513202 -2.231368 10.702330
v -2.893909 0.335429 -2.954446
v -2.641873 2.309944 -5.788000
v -2.027713 0.165964 -8.428031
v -2.405881 -1.756394 -5.845338
v -0.471045 0.077747 -10.972518
v 0.563915 1.686739 -10.953113
v 1.747298 0.047290 -11.429537
v 0.703401 -1.485188 -10.673779
v 3.038674 -0.608752 2.302742
v 3.661242 1.853863 4.925216
v 3.549597 -0.028469 7.883846
v 3.076655 -2.586232 5.137292
v -0.784668 -3.624539 -5.384576
v 0.553743 -3.355023 -7.985112
v 1.439370 -3.694014 -5.329724
v 0.099411 -4.091289 -2.768178
v -1.775667 4.950778 5.038721
v 0.413739 5.206335 7.853612
v 2.230885 4.532509 4.590674
v 0.154024 4.564650 1.966064
v -1.245698 4.379354 -6.046526
v 0.238768 4.556435 -3.469584
v 1.683990 3.488131 -5.822150
v 0.432639 4.025175 -8.850665
v -1.904937 -4.506680 5.280991
v -0.321251 -4.443772 2.661486
v 0.883182 -4.669948 5.399496
v -0.688943 -4.584108 8.032329
v 2.784378 -0.212459 -8.065503
v 2.914463 1.170067 -5.706210
v 2.834960 -0.696204 -3.047851
v 2.685718 -2.078620 -5.438095
v -3.959375 0.110765 8.166660
v -3.794441 2.673757 5.212656
v -3.824872 0.279039 2.290669
v -3.818140 -2.186045 5.032309
v 1.155800 -2.199530 10.712596
v 2.222270 2.814979 10.666377
v -1.921486 2.560863 10.977473
v -2.269067 -2.282923 11.674896
v -2.736443 -1.829636 -3.038492
v -3.040600 2.601203 -3.021067
v -2.214614 2.007045 -8.575669
v -1.795736 -1.571244 -8.264924
v -0.324699 -1.470702 -10.793670
v -0.591471 1.700236 -11.473578
v 1.764259 1.649916 -11.999621
v 1.713210 -1.497269 -10.616612
v 2.967711 -2.651814 2.383828
v 3.352644 1.315310 2.076879
v 3.962043 2.380034 7.730567
v 2.914848 -2.367041 8.047136
v -1.095063 -3.927982 -2.730243
v -0.479089 -3.313945 -8.004616
v 1.584495 -3.368097 -7.950960
v 1.297219 -4.094789 -2.728522
v -1.776475 4.855112 2.255481
v -1.762978 5.002705 8.024122
v 2.503106 5.127700 7.560973
v 1.958455 4.020053 1.715240
v -0.989884 3.903399 -8.785647
v -1.522421 4.425385 -3.146639
v 1.719507 3.618199 -3.400269
v 1.778974 3.877879 -8.636376
v -2.132536 -4.547459 7.972048
v -1.655230 -4.348384 2.614128
v 1.016482 -4.578599 2.678152
v 0.743223 -4.636374 8.102948
v 2.797928 -1.812448 -8.070266
v 2.948902 1.376559 -8.236156
v 2.977216 0.971990 -3.247463
v 2.737111 -2.382406 -2.884652
v -3.953773 -2.244647 8.056669
v -3.930474 2.541204 8.164088
v -3.671015 2.787771 2.433618
v -3.539840 -2.081679 2.292433
vn 0.6588 -0.6556 0.3690
vn 0.8706 0.4526 0.1928
vn -0.7627 -0.6155 0.1987
vn -0.7605 0.5731 0.3054
vn 0.7577 -0.5797 -0.2996
vn 0.8814 0.4151 -0.2253
vn -0.6624 -0.6336 -0.3997
vn -0.8150 0.4107 -0.4087
vn -0.7352 -0.6622 -0.1445
vn -0.7342 0.6692 -0.1144
vn 0.6818 -0.7289 -0.0614
vn 0.9267 0.3616 -0.1020
vn 0.1058 -0.8941 0.4352
vn 0.8983 -0.2083 0.3869
vn -0.0371 0.9052 0.4233
vn -0.9357 0.0676 0.3462
vn -0.7312 -0.6743 -0.1031
vn -0.8067 0.5635 -0.1779
vn -0.8698 -0.1724 -0.4623
vn 0.0085 -0.8595 -0.5110
vn -0.1072 0.8005 -0.5897
vn 0.9541 -0.1264 -0.2715
vn 0.7739 -0.6275 -0.0857
vn 0.9033 0.3851 -0.1892
vn -0.7065 -0.6859 -0.1744
vn -0.7741 0.6326 -0.0237
vn 0.6721 -0.7400 0.0253
vn 0.9103 0.4123 0.0370
vn 0.2566 0.9658 -0.0374
vn -0.0562 -0.9953 -0.0795
vn 0.9962 -0.0754 -0.0436
vn -0.9863 -0.0609 -0.1532
vn 0.1082 -0.0389 0.9934
vn -0.9849 -0.0765 -0.1556
vn -0.1443 -0.1954 -0.9701
vn 0.9870 -0.1536 -0.0482
vn -0.0358 -0.9899 -0.1375
vn 0.0842 0.9904 -0.1095
vn 0.2183 0.9742 -0.0576
vn -0.0570 -0.9980 -0.0288
vn 0.9979 -0.0641 -0.0089
vn -0.9992 -0.0028 -0.0406
vn -0.0367 -0.9294 0.3672
vn 0.1055 -0.8795 0.4640
vn 0.8629 -0.2937 0.4112
vn 0.9459 -0.1211 0.3009
vn 0.2666 0.8997 0.3457
vn -0.1615 0.8843 0.4382
vn -0.9317 0.0760 0.3551
vn -0.9554 -0.0802 0.2841
vn -0.7264 -0.6762 -0.1230
vn -0.7568 -0.6519 -0.0470
vn -0.7571 0.6315 -0.1674
vn -0.8346 0.4993 -0.2327
vn -0.8943 -0.0818 -0.4400
vn -0.8477 -0.2530 -0.4663
vn 0.1475 -0.8580 -0.4919
vn -0.1356 -0.8571 -0.4970
vn -0.2321 0.7693 -0.5953
vn 0.3441 0.8078 -0.4786
vn 0.9659 -0.0057 -0.2587
vn 0.9290 -0.2132 -0.3024
vn 0.7384 -0.6698 -0.0783
vn 0.7763 -0.6233 -0.0948
vn 0.9100 0.3747 -0.1776
vn 0.9063 0.4137 -0.0868
vn -0.7035 -0.6759 -0.2196
vn -0.7311 -0.6650 -0.1525
vn -0.7923 0.6087 0.0428
vn -0.7527 0.6564 -0.0496
vn 0.6708 -0.7320 0.1194
vn 0.6709 -0.7401 -0.0460
vn 0.8981 0.4396 -0.0074
vn 0.9196 0.3927 -0.0108
vn 0.0482 0.9972 -0.0565
vn 0.5582 0.8269 -0.0684
vn -0.2130 -0.9723 -0.0961
vn 0.0506 -0.9955 -0.0796
vn 0.9969 -0.0507 -0.0602
vn 0.9827 -0.1817 -0.0353
vn -0.9904 0.0653 -0.1218
vn -0.9599 -0.2319 -0.1578
vn 0.1731 -0.0655 0.9827
vn 0.0586 0.0197 0.9981
vn -0.0327 0.0712 0.9969
vn 0.1927 -0.1003 0.9761
vn -0.9886 -0.0687 -0.1338
vn -0.9893 0.0165 -0.1447
vn -0.9666 -0.1167 -0.2282
vn -0.9534 -0.2494 -0.1699
vn -0.0607 -0.1700 -0.9836
vn -0.1929 -0.1604 -0.9680
vn 0.0086 -0.2824 -0.9593
vn -0.0111 -0.2720 -0.9622
vn 0.9934 -0.1013 -0.0540
vn 0.9893 -0.1114 -0.0940
vn 0.9772 -0.2084 0.0407
vn 0.9694 -0.2456 0.0019
vn -0.2198 -0.9652 -0.1417
vn -0.0184 -0.9831 -0.1822
vn 0.1170 -0.9835 -0.1382
vn -0.0510 -0.9929 -0.1070
vn -0.0346 0.9989 -0.0314
vn -0.0199 0.9995 -0.0237
vn 0.3076 0.9302 -0.2005
vn 0.2040 0.9759 -0.0777
vn -0.0982 0.9878 -0.1212
vn 0.2750 0.9604 -0.0441
vn 0.5037 0.8635 0.0247
vn 0.0702 0.9899 -0.1228
vn -0.1970 -0.9787 -0.0574
vn -0.0638 -0.9954 -0.0712
vn 0.0630 -0.9980 -0.0069
vn -0.0152 -0.9978 0.0647
vn 0.9981 -0.0599 -0.0160
vn 0.9997 -0.0239 -0.0032
vn 0.9969 -0.0742 -0.0278
vn 0.9912 -0.1322 -0.0114
vn -0.9998 0.0160 0.0141
vn -0.9960 0.0833 -0.0335
vn -0.9961 -0.0318 -0.0824
vn -0.9814 -0.1763 -0.0760
vn 0.1216 -0.1152 0.9859
vn 0.2194 -0.0018 0.9756
vn -0.1182 0.0454 0.9919
vn 0.0696 -0.0774 0.9946
vn -0.9636 -0.2308 -0.1346
vn -0.9891 0.0300 -0.1443
vn -0.9801 -0.0230 -0.1972
vn -0.9429 -0.2395 -0.2316
vn -0.0945 -0.2539 -0.9626
vn -0.1252 -0.1355 -0.9828
vn 0.1287 -0.0883 -0.9877
vn 0.0925 -0.3520 -0.9314
vn 0.9777 -0.2064 -0.0375
vn 0.9926 -0.0859 -0.0858
vn 0.9909 -0.1342 -0.0105
vn 0.9534 -0.2874 0.0918
vn -0.2264 -0.9660 -0.1251
vn -0.1730 -0.9678 -0.1826
vn 0.1283 -0.9773 -0.1688
vn 0.0798 -0.9911 -0.1066
vn 0.0424 0.9987 -0.0292
vn -0.1167 0.9925 0.0352
vn 0.2079 0.9730 -0.1005
vn 0.4321 0.8864 -0.1662
vn -0.1609 0.9660 -0.2022
vn -0.0219 0.9965 -0.0811
vn 0.5832 0.8123 -0.0098
vn 0.3864 0.9218 -0.0325
vn -0.1233 -0.9923 0.0084
vn -0.2122 -0.9740 -0.0787
vn 0.0442 -0.9967 -0.0674
vn 0.0767 -0.9930 0.0902
vn 0.9913 -0.1294 -0.0247
vn 0.9995 -0.0218 -0.0212
vn 0.9995 -0.0172 -0.0262
vn 0.9896 -0.1403 -0.0312
vn -0.9938 -0.1081 -0.0249
vn -0.9970 0.0746 0.0227
vn -0.9945 0.0867 -0.0588
vn -0.9675 -0.2234 -0.1184
vt 0.375000 0.000000
vt 0.437500 0.000000
vt 0.437500 0.062500
vt 0.375000 0.062500
vt 0.500000 0.000000
vt 0.500000 0.062500
vt 0.500000 0.124927
vt 0.437500 0.124957
vt 0.375000 0.125000
vt 0.562500 0.000000
vt 0.562500 0.062500
vt 0.625000 0.000000
vt 0.625000 0.062500
vt 0.625000 0.125000
vt 0.562500 0.124957
vt 0.562500 0.187233
vt 0.500000 0.187053
vt 0.625000 0.187500
vt 0.625000 0.250000
vt 0.562500 0.244467
vt 0.500000 0.244165
vt 0.437500 0.187233
vt 0.375000 0.187500
vt 0.437500 0.244467
vt 0.375000 0.250000
vt 0.375000 0.375000
vt 0.437500 0.375000
vt 0.437500 0.406250
vt 0.375000 0.406250
vt 0.500000 0.375000
vt 0.500000 0.406250
vt 0.500000 0.437573
vt 0.437500 0.437543
vt 0.375000 0.437500
vt 0.562500 0.375000
vt 0.562500 0.406250
vt 0.625000 0.375000
vt 0.625000 0.406250
vt 0.625000 0.437500
vt 0.562500 0.437543
vt 0.562500 0.469017
vt 0.500000 0.469197
vt 0.625000 0.468750
vt 0.625000 0.500000
vt 0.562457 0.505533
vt 0.500000 0.505835
vt 0.437500 0.469017
vt 0.375000 0.468750
vt 0.437543 0.505533
vt 0.375000 0.500000
vt 0.437767 0.562767
vt 0.380533 0.562544
vt 0.500000 0.562947
vt 0.500000 0.625000
vt 0.437947 0.625000
vt 0.380835 0.625000
vt 0.562233 0.562767
vt 0.619467 0.562544
vt 0.619165 0.625000
vt 0.562053 0.625000
vt 0.562233 0.687233
vt 0.500000 0.687053
vt 0.619467 0.687457
vt 0.625000 0.750000
vt 0.562457 0.744467
vt 0.500000 0.744165
vt 0.437767 0.687233
vt 0.380533 0.687457
vt 0.437543 0.744467
vt 0.375000 0.750000
vt 0.375000 0.875000
vt 0.437500 0.875000
vt 0.437500 0.906250
vt 0.375000 0.906250
vt 0.500000 0.875000
vt 0.500000 0.906250
vt 0.500000 0.937500
vt 0.437500 0.937500
vt 0.375000 0.937500
vt 0.562500 0.875000
vt 0.562500 0.906250
vt 0.625000 0.875000
vt 0.625000 0.906250
vt 0.625000 0.937500
vt 0.562500 0.937500
vt 0.562500 0.968750
vt 0.500000 0.968750
vt 0.625000 0.968750
vt 0.625000 1.000000
vt 0.562500 1.000000
vt 0.500000 1.000000
vt 0.437500 0.968750
vt 0.375000 0.968750
vt 0.437500 1.000000
vt 0.375000 1.000000
vt 0.250000 0.500000
vt 0.281250 0.500000
vt 0.281250 0.562500
vt 0.250000 0.562500
vt 0.312500 0.500000
vt 0.312543 0.562500
vt 0.312573 0.625000
vt 0.281250 0.625000
vt 0.250000 0.625000
vt 0.343750 0.500000
vt 0.344017 0.562500
vt 0.344197 0.625000
vt 0.344017 0.687500
vt 0.312544 0.687500
vt 0.343750 0.750000
vt 0.312500 0.750000
vt 0.281250 0.687500
vt 0.250000 0.687500
vt 0.281250 0.750000
vt 0.250000 0.750000
vt 0.750000 0.500000
vt 0.781250 0.500000
vt 0.781250 0.562500
vt 0.750000 0.562500
vt 0.812500 0.500000
vt 0.812500 0.562500
vt 0.812500 0.625000
vt 0.781250 0.625000
vt 0.750000 0.625000
vt 0.843750 0.500000
vt 0.843750 0.562500
vt 0.875000 0.500000
vt 0.875000 0.562500
vt 0.875000 0.625000
vt 0.843750 0.625000
vt 0.843750 0.687500
vt 0.812500 0.687500
vt 0.875000 0.687500
vt 0.875000 0.750000
vt 0.843750 0.750000
vt 0.812500 0.750000
vt 0.781250 0.687500
vt 0.750000 0.687500
vt 0.781250 0.750000
vt 0.750000 0.750000
vt 0.656250 0.500000
vt 0.655983 0.562500
vt 0.687500 0.500000
vt 0.687457 0.562500
vt 0.687428 0.625000
vt 0.655803 0.625000
vt 0.718750 0.500000
vt 0.718750 0.562500
vt 0.718750 0.625000
vt 0.718750 0.687500
vt 0.687457 0.687500
vt 0.718750 0.750000
vt 0.687500 0.750000
vt 0.655983 0.687500
vt 0.656250 0.750000
vt 0.125000 0.500000
vt 0.156250 0.500000
vt 0.156250 0.562500
vt 0.125000 0.562500
vt 0.187500 0.500000
vt 0.187500 0.562500
vt 0.187500 0.625000
vt 0.156250 0.625000
vt 0.125000 0.625000
vt 0.218750 0.500000
vt 0.218750 0.562500
vt 0.218750 0.625000
vt 0.218750 0.687500
vt 0.187500 0.687500
vt 0.218750 0.750000
vt 0.187500 0.750000
vt 0.156250 0.687500
vt 0.125000 0.687500
vt 0.156250 0.750000
vt 0.125000 0.750000
vt 0.437500 0.780983
vt 0.375000 0.781250
vt 0.500000 0.780803
vt 0.500000 0.812428
vt 0.437500 0.812457
vt 0.375000 0.812500
vt 0.562500 0.780983
vt 0.625000 0.781250
vt 0.625000 0.812500
vt 0.562500 0.812457
vt 0.562500 0.843750
vt 0.500000 0.843750
vt 0.625000 0.843750
vt 0.437500 0.843750
vt 0.375000 0.843750
vt 0.437500 0.280983
vt 0.375000 0.281250
vt 0.500000 0.280803
vt 0.500000 0.312428
vt 0.437500 0.312457
vt 0.375000 0.312500
vt 0.562500 0.280983
vt 0.625000 0.281250
vt 0.625000 0.312500
vt 0.562500 0.312457
vt 0.562500 0.343750
vt 0.500000 0.343750
vt 0.625000 0.343750
vt 0.437500 0.343750
vt 0.375000 0.343750
s 1
f 1/1/1 45/2/45 123/3/123 44/4/44
f 45/2/45 14/5/14 83/6/83 123/3/123
f 123/3/123 83/6/83 33/7/33 86/8/86
f 44/4/44 123/3/123 86/8/86 13/9/13
f 14/5/14 46/10/46 124/11/124 83/6/83
f 46/10/46 2/12/2 47/13/47 124/11/124
f 124/11/124 47/13/47 15/14/15 84/15/84
f 83/6/83 124/11/124 84/15/84 33/7/33
f 33/7/33 84/15/84 125/16/125 85/17/85
f 84/15/84 15/14/15 48/18/48 125/16/125
f 125/16/125 48/18/48 4/19/4 49/20/49
f 85/17/85 125/16/125 49/20/49 16/21/16
f 13/9/13 86/8/86 126/22/126 43/23/43
f 86/8/86 33/7/33 85/17/85 126/22/126
f 126/22/126 85/17/85 16/21/16 50/24/50
f 43/23/43 126/22/126 50/24/50 3/25/3
f 9/26/9 82/27/82 127/28/127 68/29/68
f 82/27/82 32/30/32 87/31/87 127/28/127
f 127/28/127 87/31/87 34/32/34 90/33/90
f 68/29/68 127/28/127 90/33/90 25/34/25
f 32/30/32 81/35/81 128/36/128 87/31/87
f 81/35/81 10/37/10 53/38/53 128/36/128
f 128/36/128 53/38/53 18/39/18 88/40/88
f 87/31/87 128/36/128 88/40/88 34/32/34
f 34/32/34 88/40/88 129/41/129 89/42/89
f 88/40/88 18/39/18 54/43/54 129/41/129
f 129/41/129 54/43/54 8/44/8 55/45/55
f 89/42/89 129/41/129 55/45/55 19/46/19
f 25/34/25 90/33/90 130/47/130 67/48/67
f 90/33/90 34/32/34 89/42/89 130/47/130
f 130/47/130 89/42/89 19/46/19 56/49/56
f 67/48/67 130/47/130 56/49/56 7/50/7
f 7/50/7 56/49/56 131/51/131 58/52/58
f 56/49/56 19/46/19 91/53/91 131/51/131
f 131/51/131 91/53/91 35/54/35 94/55/94
f 58/52/58 131/51/131 94/55/94 20/56/20
f 19/46/19 55/45/55 132/57/132 91/53/91
f 55/45/55 8/44/8 59/58/59 132/57/132
f 132/57/132 59/58/59 21/59/21 92/60/92
f 91/53/91 132/57/132 92/60/92 35/54/35
f 35/54/35 92/60/92 133/61/133 93/62/93
f 92/60/92 21/59/21 60/63/60 133/61/133
f 133/61/133 60/63/60 6/64/6 61/65/61
f 93/62/93 133/61/133 61/65/61 22/66/22
f 20/56/20 94/55/94 134/67/134 57/68/57
f 94/55/94 35/54/35 93/62/93 134/67/134
f 134/67/134 93/62/93 22/66/22 62/69/62
f 57/68/57 134/67/134 62/69/62 5/70/5
f 11/71/11 80/72/80 135/73/135 72/74/72
f 80/72/80 31/75/31 95/76/95 135/73/135
f 135/73/135 95/76/95 36/77/36 98/78/98
f 72/74/72 135/73/135 98/78/98 27/79/27
f 31/75/31 79/80/79 136/81/136 95/76/95
f 79/80/79 12/82/12 65/83/65 136/81/136
f 136/81/136 65/83/65 24/84/24 96/85/96
f 95/76/95 136/81/136 96/85/96 36/77/36
f 36/77/36 96/85/96 137/86/137 97/87/97
f 96/85/96 24/84/24 66/88/66 137/86/137
f 137/86/137 66/88/66 2/89/2 46/90/46
f 97/87/97 137/86/137 46/90/46 14/91/14
f 27/79/27 98/78/98 138/92/138 71/93/71
f 98/78/98 36/77/36 97/87/97 138/92/138
f 138/92/138 97/87/97 14/91/14 45/94/45
f 71/93/71 138/92/138 45/94/45 1/95/1
f 9/96/9 68/97/68 139/98/139 77/99/77
f 68/97/68 25/100/25 99/101/99 139/98/139
f 139/98/139 99/101/99 37/102/37 102/103/102
f 77/99/77 139/98/139 102/103/102 30/104/30
f 25/100/25 67/105/67 140/106/140 99/101/99
f 67/105/67 7/50/7 58/52/58 140/106/140
f 140/106/140 58/52/58 20/56/20 100/107/100
f 99/101/99 140/106/140 100/107/100 37/102/37
f 37/102/37 100/107/100 141/108/141 101/109/101
f 100/107/100 20/56/20 57/68/57 141/108/141
f 141/108/141 57/68/57 5/70/5 64/110/64
f 101/109/101 141/108/141 64/110/64 23/111/23
f 30/104/30 102/103/102 142/112/142 78/113/78
f 102/103/102 37/102/37 101/109/101 142/112/142
f 142/112/142 101/109/101 23/111/23 63/114/63
f 78/113/78 142/112/142 63/114/63 11/115/11
f 10/116/10 70/117/70 143/118/143 75/119/75
f 70/117/70 26/120/26 103/121/103 143/118/143
f 143/118/143 103/121/103 38/122/38 106/123/106
f 75/119/75 143/118/143 106/123/106 29/124/29
f 26/120/26 69/125/69 144/126/144 103/121/103
f 69/125/69 4/127/4 48/128/48 144/126/144
f 144/126/144 48/128/48 15/129/15 104/130/104
f 103/121/103 144/126/144 104/130/104 38/122/38
f 38/122/38 104/130/104 145/131/145 105/132/105
f 104/130/104 15/129/15 47/133/47 145/131/145
f 145/131/145 47/133/47 2/134/2 66/135/66
f 105/132/105 145/131/145 66/135/66 24/136/24
f 29/124/29 106/123/106 146/137/146 76/138/76
f 106/123/106 38/122/38 105/132/105 146/137/146
f 146/137/146 105/132/105 24/136/24 65/139/65
f 76/138/76 146/137/146 65/139/65 12/140/12
f 8/44/8 54/141/54 147/142/147 59/58/59
f 54/141/54 18/143/18 107/144/107 147/142/147
f 147/142/147 107/144/107 39/145/39 110/146/110
f 59/58/59 147/142/147 110/146/110 21/59/21
f 18/143/18 53/147/53 148/148/148 107/144/107
f 53/147/53 10/116/10 75/119/75 148/148/148
f 148/148/148 75/119/75 29/124/29 108/149/108
f 107/144/107 148/148/148 108/149/108 39/145/39
f 39/145/39 108/149/108 149/150/149 109/151/109
f 108/149/108 29/124/29 76/138/76 149/150/149
f 149/150/149 76/138/76 12/140/12 74/152/74
f 109/151/109 149/150/149 74/152/74 28/153/28
f 21/59/21 110/146/110 150/154/150 60/63/60
f 110/146/110 39/145/39 109/151/109 150/154/150
f 150/154/150 109/151/109 28/153/28 73/155/73
f 60/63/60 150/154/150 73/155/73 6/64/6
f 3/156/3 52/157/52 151/158/151 43/159/43
f 52/157/52 17/160/17 111/161/111 151/158/151
f 151/158/151 111/161/111 40/162/40 114/163/114
f 43/159/43 151/158/151 114/163/114 13/164/13
f 17/160/17 51/165/51 152/166/152 111/161/111
f 51/165/51 9/96/9 77/99/77 152/166/152
f 152/166/152 77/99/77 30/104/30 112/167/112
f 111/161/111 152/166/152 112/167/112 40/162/40
f 40/162/40 112/167/112 153/168/153 113/169/113
f 112/167/112 30/104/30 78/113/78 153/168/153
f 153/168/153 78/113/78 11/115/11 72/170/72
f 113/169/113 153/168/153 72/170/72 27/171/27
f 13/164/13 114/163/114 154/172/154 44/173/44
f 114/163/114 40/162/40 113/169/113 154/172/154
f 154/172/154 113/169/113 27/171/27 71/174/71
f 44/173/44 154/172/154 71/174/71 1/175/1
f 5/70/5 62/69/62 155/176/155 64/177/64
f 62/69/62 22/66/22 115/178/115 155/176/155
f 155/176/155 115/178/115 41/179/41 118/180/118
f 64/177/64 155/176/155 118/180/118 23/181/23
f 22/66/22 61/65/61 156/182/156 115/178/115
f 61/65/61 6/64/6 73/183/73 156/182/156
f 156/182/156 73/183/73 28/184/28 116/185/116
f 115/178/115 156/182/156 116/185/116 41/179/41
f 41/179/41 116/185/116 157/186/157 117/187/117
f 116/185/116 28/184/28 74/188/74 157/186/157
f 157/186/157 74/188/74 12/82/12 79/80/79
f 117/187/117 157/186/157 79/80/79 31/75/31
f 23/181/23 118/180/118 158/189/158 63/190/63
f 118/180/118 41/179/41 117/187/117 158/189/158
f 158/189/158 117/187/117 31/75/31 80/72/80
f 63/190/63 158/189/158 80/72/80 11/71/11
f 3/25/3 50/24/50 159/191/159 52/192/52
f 50/24/50 16/21/16 119/193/119 159/191/159
f 159/191/159 119/193/119 42/194/42 122/195/122
f 52/192/52 159/191/159 122/195/122 17/196/17
f 16/21/16 49/20/49 160/197/160 119/193/119
f 49/20/49 4/19/4 69/198/69 160/197/160
f 160/197/160 69/198/69 26/199/26 120/200/120
f 119/193/119 160/197/160 120/200/120 42/194/42
f 42/194/42 120/200/120 161/201/161 121/202/121
f 120/200/120 26/199/26 70/203/70 161/201/161
f 161/201/161 70/203/70 10/37/10 81/35/81
f 121/202/121 161/201/161 81/35/81 32/30/32
f 17/196/17 122/195/122 162/204/162 51/205/51
f 122/195/122 42/194/42 121/202/121 162/204/162
f 162/204/162 121/202/121 32/30/32 82/27/82
f 51/205/51 162/204/162 82/27/82 9/26/9
