# Blender 5.2.2 LTS
# www.blender.org
mtllib platform_medium_1_wall.mtl
o Cube.113
v 8.526699 -6.619542 2.163633
v -1.690320 -5.167519 9.713436
v 2.189544 -7.371269 -8.445745
v -10.148804 -5.134097 -2.070720
v 13.757957 5.043992 -2.006620
v -1.580935 7.014594 12.203764
v 2.953953 6.526591 -12.937653
v -12.053170 7.808424 -0.252641
v 2.499308 -5.223707 -9.364577
v 2.972052 -1.805130 -11.610525
v 3.087364 2.374765 -12.324306
v 3.030056 4.806349 -12.626368
v 11.920536 3.681485 -1.618464
v 11.209949 2.209878 -1.405975
v 9.651782 -0.342901 -0.672063
v 8.743033 -4.012995 1.081478
v -1.397204 5.385765 11.333710
v -1.333465 2.265029 10.933927
v -1.358132 -0.748318 11.009727
v -1.440796 -3.178901 10.492549
v -11.671144 5.524395 -0.376627
v -11.235308 2.889592 -0.839403
v -10.804795 -0.318703 -1.183806
v -10.833731 -3.444080 -1.551083
v 0.398271 -5.491323 9.099890
v 2.187326 -5.845848 8.690264
v 6.660158 -6.586298 4.238496
v 7.414121 -6.676962 3.106262
v -0.208359 -7.094178 -6.791306
v -2.528683 -7.977241 -5.137800
v -7.389938 -6.871092 -3.308980
v -8.919150 -6.099199 -3.552181
v 0.916673 7.366021 10.719275
v 3.241014 7.195238 9.822105
v 9.325130 7.354426 5.166370
v 10.882427 6.159874 1.206667
v 0.060739 7.205453 -11.795708
v -3.679944 7.254720 -11.180953
v -8.814598 7.633519 -5.714742
v -10.181111 7.749918 -3.503175
v -9.544277 -3.910992 -3.006649
v -7.971189 -4.296264 -3.889960
v -2.920403 -4.225811 -6.429571
v 0.226471 -4.539423 -8.024832
v -9.361765 -0.079845 -2.697342
v -7.971881 0.226652 -4.164526
v -2.503914 -0.483599 -8.653772
v 0.385280 -1.063006 -10.007482
v -9.663620 3.052597 -2.333318
v -8.446114 2.891485 -3.805373
v -2.687316 2.342898 -9.664134
v 0.372898 2.265576 -11.110735
v -9.992779 5.371870 -2.943476
v -8.701277 5.069271 -4.919288
v -3.556868 4.657320 -10.786744
v 0.029048 4.802510 -11.552187
v 7.841231 -3.923420 2.292429
v 7.203281 -3.911748 3.564341
v 2.528252 -3.759409 9.167510
v 0.684804 -3.436445 9.953725
v 8.892952 -0.455225 1.038031
v 8.199860 -0.648064 2.917077
v 2.835606 -0.616133 8.357174
v 0.749602 -0.684868 9.859587
v 9.977230 2.232403 0.819963
v 8.809351 2.251092 3.255699
v 2.697345 2.645998 7.934730
v 0.625390 2.477580 9.389175
v 10.417131 4.229268 1.003189
v 9.202998 4.611695 4.279866
v 2.956420 4.976930 8.942005
v 0.789888 5.169163 10.033710
v -9.329897 -5.457151 0.679677
v -8.030407 -5.514647 4.190136
v -6.725799 -5.646903 6.582861
v -2.907134 -5.416760 8.511327
v 7.224652 -7.052311 1.183668
v 4.580175 -6.733479 -2.532454
v 3.812069 -6.371035 -4.233379
v 3.089712 -7.013183 -6.789893
v -10.841735 7.264544 1.882858
v -9.807560 7.036788 3.704129
v -8.392472 7.127154 5.622061
v -3.907563 7.614509 9.765385
v 11.863519 5.903833 -4.104284
v 8.568554 7.050583 -8.435495
v 7.087267 7.347211 -11.017889
v 5.119088 7.064154 -12.190935
v -2.874738 -3.645868 9.064258
v -6.704185 -4.021184 6.386148
v -7.729806 -3.544666 3.730073
v -9.564641 -3.369784 0.864737
v -3.026444 -1.404403 9.492760
v -6.676080 -1.422822 5.578677
v -7.597577 -0.112204 2.882268
v -9.082896 -0.258886 0.726343
v -3.169636 1.724295 9.336047
v -6.721742 2.127076 5.312233
v -7.935224 2.923942 3.051790
v -9.707429 2.838784 1.082781
v -3.769040 4.668827 9.566774
v -7.388960 5.446234 5.769691
v -9.057988 5.436343 3.382519
v -10.365543 4.820547 1.598281
v 3.250105 -4.640466 -7.224216
v 3.900912 -3.602325 -5.180782
v 4.915235 -3.727757 -3.715430
v 7.676006 -3.887367 -0.354813
v 3.726133 -1.705827 -9.185816
v 4.377938 -0.990223 -7.069833
v 5.925426 -0.712271 -5.397161
v 8.827389 -0.555577 -1.870935
v 4.215920 2.255647 -10.549126
v 5.247554 2.402726 -8.561249
v 6.824412 2.490889 -6.616806
v 9.926767 2.504782 -2.711071
v 4.918608 5.128900 -11.573289
v 6.483698 5.190643 -9.937909
v 7.822223 5.067822 -7.646016
v 10.854954 4.413900 -3.653096
v 3.599085 -6.106153 7.515806
v 5.187921 -6.444021 5.755687
v -4.444064 -7.825567 -4.278042
v -6.238402 -7.414517 -3.610839
v 5.451573 7.015631 8.243499
v 7.477187 7.415026 6.655673
v -6.773988 7.465222 -9.394075
v -7.922350 7.588619 -7.488325
v -6.246873 -4.325085 -4.717451
v -4.596360 -4.295674 -5.510024
v -6.002061 0.072366 -5.825960
v -4.228827 -0.219399 -7.252355
v -6.459480 2.770180 -5.798707
v -4.729784 2.569821 -7.887374
v -7.341000 4.986431 -6.807531
v -6.106717 4.830130 -8.878405
v 5.796202 -3.865871 5.039456
v 4.179505 -3.875905 7.248130
v 6.556024 -0.603828 4.390273
v 4.831267 -0.638403 6.241585
v 6.817816 2.432976 4.687050
v 4.791691 2.631540 6.044777
v 7.130680 4.825689 5.747491
v 5.100680 4.895901 7.021814
v -4.859298 -5.602664 7.696356
v 5.852695 -6.995149 -0.381730
v -6.143414 7.403168 7.713778
v 10.168863 6.791826 -6.134109
v -4.894019 -4.075800 7.893560
v -5.068818 -1.853301 7.791689
v -5.038829 1.652699 7.435984
v -5.607636 4.970076 7.727996
v 6.278290 -3.811504 -2.042118
v 7.377956 -0.621407 -3.660932
v 8.386877 2.723168 -4.650899
v 9.305283 5.041749 -5.554816
v 8.339657 -8.951256 1.983790
v -1.976975 -7.816785 9.613609
v 2.221113 -9.036782 -8.579613
v -9.728096 -7.460332 -2.433708
v 0.218673 -8.173285 9.029785
v 2.098000 -8.555740 8.857572
v 6.716189 -9.093914 4.149216
v 7.391106 -9.098400 2.957914
v -0.232756 -9.919042 -6.665962
v -2.646036 -10.740779 -5.048473
v -7.411587 -9.577486 -3.443048
v -8.872914 -8.774361 -3.715365
v -9.141794 -7.863879 0.563456
v -8.567524 -8.144723 4.705256
v -7.158669 -8.270743 7.019640
v -3.213999 -8.101450 8.497363
v 7.308041 -9.463799 1.111899
v 5.153223 -9.914429 -1.890979
v 4.104684 -9.687323 -3.675654
v 3.120371 -9.376222 -6.747701
v 3.568944 -8.870509 7.941641
v 5.357146 -9.363452 6.097578
v -4.617738 -10.589085 -4.230369
v -6.362904 -10.163496 -3.652938
v -5.260847 -8.258403 7.958528
v 6.399694 -9.927093 0.137357
v -1.263150 -8.424118 7.519682
v -3.582627 -8.661057 6.499173
v -5.834997 -8.835612 5.328058
v -7.209563 -8.737457 3.019830
v -7.809411 -8.785567 -0.971557
v 0.561006 -8.677603 7.140286
v -1.697381 -8.882875 5.623099
v -3.819868 -9.228189 4.114875
v -4.947580 -9.483816 2.023656
v -6.395364 -9.870976 -0.977825
v 2.044025 -8.936338 6.203096
v 0.146785 -9.397146 4.617369
v -1.363010 -10.274441 2.987884
v -2.409646 -10.684659 1.093887
v -4.539421 -10.769048 -1.772570
v 3.925025 -9.414773 4.634990
v 2.746208 -10.085092 3.244833
v 1.581825 -10.907064 1.785025
v 0.458434 -11.298672 0.062726
v -2.301570 -11.423606 -2.487871
v 5.525248 -9.484884 3.164205
v 4.703348 -10.365443 2.127418
v 3.724401 -11.045686 0.622051
v 2.591659 -11.386515 -1.031531
v -0.265397 -11.644387 -3.290310
v 6.383518 -9.482065 2.107363
v 5.716237 -10.190426 1.087472
v 4.805382 -10.610129 -0.635224
v 3.632183 -10.614663 -2.285838
v 1.473549 -10.512523 -4.863680
vn 0.9911 -0.0915 0.0965
vn -0.2701 -0.1887 0.9442
vn 0.2507 -0.1756 -0.9520
vn -0.9646 -0.1570 -0.2117
vn 0.7089 -0.7013 -0.0749
vn -0.1222 -0.3259 0.9375
vn 0.0330 -0.1978 -0.9797
vn -0.9790 -0.1986 -0.0462
vn 0.2993 -0.4719 -0.8293
vn 0.2861 -0.3974 -0.8719
vn 0.2353 -0.2584 -0.9370
vn 0.1140 -0.2242 -0.9678
vn 0.8083 -0.5887 -0.0100
vn 0.8763 -0.4740 -0.0865
vn 0.9017 -0.4224 -0.0918
vn 0.9736 -0.2281 -0.0028
vn -0.0523 -0.2718 0.9609
vn -0.0395 -0.0694 0.9968
vn -0.1151 -0.0319 0.9928
vn -0.1921 -0.2329 0.9533
vn -0.9733 -0.2287 -0.0193
vn -0.9762 -0.2066 -0.0653
vn -0.9980 -0.0182 -0.0605
vn -0.9937 -0.0670 -0.0902
vn 0.2191 -0.1952 0.9560
vn 0.4409 -0.1103 0.8907
vn 0.7996 0.0156 0.6003
vn 0.7970 -0.0006 0.6040
vn -0.5386 -0.1782 -0.8235
vn -0.4742 -0.1505 -0.8674
vn -0.1511 -0.0924 -0.9842
vn -0.4561 -0.0318 -0.8893
vn 0.4276 -0.3323 0.8407
vn 0.4494 -0.3843 0.8065
vn 0.7071 -0.2786 0.6500
vn 0.8117 -0.3063 0.4973
vn -0.2686 -0.1285 -0.9547
vn -0.3746 -0.1800 -0.9096
vn -0.8323 -0.2271 -0.5057
vn -0.8415 -0.1731 -0.5118
vn -0.6526 -0.0194 -0.7575
vn -0.4464 -0.1154 -0.8874
vn -0.4757 -0.3506 -0.8067
vn -0.5079 -0.3570 -0.7839
vn -0.7013 0.0205 -0.7126
vn -0.6567 -0.0476 -0.7526
vn -0.5162 -0.3411 -0.7856
vn -0.4840 -0.3317 -0.8098
vn -0.7614 -0.1193 -0.6372
vn -0.7465 -0.2064 -0.6326
vn -0.4804 -0.3837 -0.7887
vn -0.3964 -0.2556 -0.8818
vn -0.8152 -0.1979 -0.5443
vn -0.7862 -0.3097 -0.5347
vn -0.4118 -0.3301 -0.8494
vn -0.2995 -0.1983 -0.9332
vn 0.8542 -0.0197 0.5195
vn 0.8067 -0.0485 0.5890
vn 0.5526 -0.0939 0.8281
vn 0.3393 -0.1753 0.9242
vn 0.8838 -0.1948 0.4255
vn 0.8085 -0.1769 0.5613
vn 0.6410 0.1006 0.7609
vn 0.5015 0.0596 0.8631
vn 0.8579 -0.2956 0.4202
vn 0.7607 -0.2906 0.5804
vn 0.6149 -0.1277 0.7782
vn 0.5504 -0.0630 0.8325
vn 0.8225 -0.3029 0.4815
vn 0.7382 -0.3095 0.5994
vn 0.5069 -0.3670 0.7800
vn 0.4750 -0.2808 0.8340
vn -0.9462 -0.0752 0.3146
vn -0.9067 0.1344 0.3998
vn -0.7159 0.1540 0.6811
vn -0.5379 -0.0632 0.8406
vn 0.6979 -0.1590 -0.6983
vn 0.8469 -0.1306 -0.5155
vn 0.9167 -0.0970 -0.3876
vn 0.9397 -0.0666 -0.3354
vn -0.8271 -0.2521 0.5023
vn -0.7590 -0.3657 0.5387
vn -0.7232 -0.3497 0.5955
vn -0.6695 -0.1623 0.7249
vn 0.5152 -0.5854 -0.6260
vn 0.7283 -0.4738 -0.4951
vn 0.6710 -0.4338 -0.6013
vn 0.5265 -0.3312 -0.7830
vn -0.5854 -0.1676 0.7932
vn -0.7948 0.1023 0.5982
vn -0.8889 0.1180 0.4427
vn -0.8737 -0.0055 0.4865
vn -0.6454 -0.0556 0.7618
vn -0.8588 0.0736 0.5070
vn -0.8699 0.0022 0.4932
vn -0.8009 -0.0378 0.5976
vn -0.6657 -0.0639 0.7435
vn -0.8475 -0.1298 0.5147
vn -0.8117 -0.2452 0.5301
vn -0.7517 -0.2647 0.6040
vn -0.6591 -0.1654 0.7336
vn -0.7579 -0.2876 0.5855
vn -0.7576 -0.3619 0.5432
vn -0.7762 -0.3097 0.5491
vn 0.9417 -0.2194 -0.2550
vn 0.8639 -0.3228 -0.3867
vn 0.7418 -0.4029 -0.5361
vn 0.6985 -0.4309 -0.5714
vn 0.9200 -0.2693 -0.2848
vn 0.8381 -0.3784 -0.3929
vn 0.6953 -0.4620 -0.5505
vn 0.6947 -0.4569 -0.5556
vn 0.8232 -0.2998 -0.4821
vn 0.7777 -0.4228 -0.4652
vn 0.7140 -0.4544 -0.5327
vn 0.6522 -0.4764 -0.5897
vn 0.6147 -0.3478 -0.7079
vn 0.7046 -0.4623 -0.5384
vn 0.7155 -0.4881 -0.4998
vn 0.5595 -0.5588 -0.6121
vn 0.7042 -0.0180 0.7098
vn 0.7550 0.0314 0.6550
vn -0.3916 -0.1504 -0.9078
vn -0.3302 -0.1300 -0.9349
vn 0.5492 -0.4201 0.7224
vn 0.5540 -0.3616 0.7498
vn -0.7121 -0.2735 -0.6466
vn -0.8273 -0.2811 -0.4865
vn -0.4779 -0.2392 -0.8452
vn -0.4792 -0.2986 -0.8254
vn -0.6286 -0.1597 -0.7612
vn -0.6098 -0.2697 -0.7453
vn -0.7112 -0.3221 -0.6249
vn -0.6581 -0.4110 -0.6308
vn -0.7682 -0.3972 -0.5021
vn -0.6753 -0.4131 -0.6110
vn 0.7421 -0.0153 0.6701
vn 0.7490 -0.0352 0.6616
vn 0.6799 -0.0669 0.7303
vn 0.7198 0.0272 0.6937
vn 0.5698 -0.2580 0.7802
vn 0.6221 -0.1912 0.7592
vn 0.5234 -0.3810 0.7622
vn 0.5524 -0.4038 0.7292
vn -0.4530 0.0212 0.8913
vn 0.7858 -0.1629 -0.5966
vn -0.6929 -0.1757 0.6993
vn 0.6327 -0.5088 -0.5837
vn -0.5703 -0.0587 0.8193
vn -0.6916 0.0260 0.7218
vn -0.7444 -0.0682 0.6643
vn -0.7177 -0.1816 0.6722
vn 0.7011 -0.4377 -0.5629
vn 0.6931 -0.4536 -0.5602
vn 0.6876 -0.4560 -0.5650
vn 0.6429 -0.5070 -0.5741
vn 0.8847 -0.4641 -0.0430
vn -0.2388 -0.4874 0.8399
vn 0.2076 -0.4013 -0.8921
vn -0.9210 -0.3503 -0.1706
vn 0.0594 -0.6370 0.7686
vn 0.2224 -0.5971 0.7707
vn 0.6563 -0.6031 0.4533
vn 0.5993 -0.6519 0.4647
vn -0.2905 -0.5818 -0.7596
vn -0.3178 -0.6388 -0.7007
vn -0.4565 -0.6528 -0.6045
vn -0.4909 -0.5251 -0.6952
vn -0.8408 -0.5145 0.1682
vn -0.8219 -0.4709 0.3204
vn -0.6061 -0.4813 0.6333
vn -0.3113 -0.6407 0.7019
vn 0.7000 -0.6236 -0.3479
vn 0.7613 -0.4641 -0.4528
vn 0.7717 -0.4912 -0.4039
vn 0.7205 -0.5458 -0.4278
vn 0.4288 -0.6218 0.6554
vn 0.5208 -0.6699 0.5291
vn -0.3944 -0.6432 -0.6563
vn -0.4618 -0.6622 -0.5901
vn -0.3125 -0.5469 0.7767
vn 0.7425 -0.5772 -0.3400
vn -0.0572 -0.9663 0.2508
vn -0.0328 -0.9686 0.2463
vn -0.1544 -0.9726 0.1738
vn -0.3473 -0.9317 0.1067
vn -0.5293 -0.8371 0.1385
vn -0.0897 -0.9690 0.2304
vn -0.0593 -0.9464 0.3174
vn -0.1469 -0.9513 0.2712
vn -0.3004 -0.9274 0.2228
vn -0.4201 -0.8898 0.1784
vn -0.0718 -0.9696 0.2338
vn -0.0374 -0.9192 0.3920
vn -0.1226 -0.9179 0.3774
vn -0.2183 -0.9409 0.2591
vn -0.3025 -0.9462 0.1145
vn 0.0466 -0.9686 0.2442
vn 0.0793 -0.9112 0.4042
vn 0.0190 -0.9425 0.3336
vn -0.0562 -0.9806 0.1880
vn -0.1684 -0.9857 -0.0043
vn 0.2425 -0.9423 0.2308
vn 0.2876 -0.9056 0.3118
vn 0.2297 -0.9630 0.1412
vn 0.1951 -0.9794 -0.0513
vn 0.0540 -0.9789 -0.1972
vn 0.3389 -0.9146 0.2206
vn 0.4201 -0.8979 0.1316
vn 0.4145 -0.8994 -0.1387
vn 0.3902 -0.8758 -0.2842
vn 0.2391 -0.9060 -0.3493
vt 0.567332 0.950000
vt 0.615415 0.950000
vt 0.614910 1.000000
vt 0.566928 1.000000
vt 0.566928 0.200000
vt 0.614910 0.200000
vt 0.614910 0.250000
vt 0.566928 0.250000
vt 0.568542 0.450000
vt 0.616928 0.450000
vt 0.617432 0.500000
vt 0.568946 0.500000
vt 0.568946 0.700000
vt 0.617432 0.700000
vt 0.617432 0.750000
vt 0.568946 0.750000
vt 0.375000 0.700000
vt 0.423486 0.700000
vt 0.423487 0.750000
vt 0.375000 0.750000
vt 0.471973 0.700000
vt 0.471973 0.750000
vt 0.520460 0.700000
vt 0.520459 0.750000
vt 0.375000 0.450000
vt 0.423386 0.450000
vt 0.423487 0.500000
vt 0.375000 0.500000
vt 0.471771 0.450000
vt 0.471973 0.500000
vt 0.520157 0.450000
vt 0.520460 0.500000
vt 0.375000 0.200000
vt 0.422982 0.200000
vt 0.422982 0.250000
vt 0.375000 0.250000
vt 0.470964 0.200000
vt 0.470964 0.250000
vt 0.518946 0.200000
vt 0.518946 0.250000
vt 0.375000 0.950000
vt 0.423083 0.950000
vt 0.422982 1.000000
vt 0.375000 1.000000
vt 0.471166 0.950000
vt 0.470964 1.000000
vt 0.519249 0.950000
vt 0.518946 1.000000
vt 0.518946 0.000000
vt 0.566928 0.000000
vt 0.566928 0.050000
vt 0.518946 0.050000
vt 0.566928 0.100000
vt 0.518946 0.100000
vt 0.518946 0.133333
vt 0.566928 0.133333
vt 0.566928 0.150000
vt 0.518946 0.150000
vt 0.470964 0.000000
vt 0.470964 0.050000
vt 0.470964 0.100000
vt 0.470964 0.133333
vt 0.470964 0.150000
vt 0.422982 0.000000
vt 0.422982 0.050000
vt 0.422982 0.100000
vt 0.422982 0.133333
vt 0.422982 0.150000
vt 0.375000 0.000000
vt 0.375000 0.050000
vt 0.375000 0.100000
vt 0.375000 0.133333
vt 0.375000 0.150000
vt 0.568946 0.550000
vt 0.520460 0.550000
vt 0.568946 0.600000
vt 0.520460 0.600000
vt 0.520460 0.633333
vt 0.568946 0.633333
vt 0.568946 0.650000
vt 0.520460 0.650000
vt 0.471973 0.550000
vt 0.471973 0.600000
vt 0.471973 0.633333
vt 0.471973 0.650000
vt 0.423487 0.550000
vt 0.423487 0.600000
vt 0.423486 0.633333
vt 0.423486 0.650000
vt 0.375000 0.550000
vt 0.375000 0.600000
vt 0.375000 0.633333
vt 0.375000 0.650000
vt 0.617432 0.550000
vt 0.617432 0.600000
vt 0.617432 0.633333
vt 0.617432 0.650000
vt 0.614910 0.000000
vt 0.614910 0.050000
vt 0.614910 0.100000
vt 0.614910 0.133333
vt 0.614910 0.150000
vt 0.568542 0.800000
vt 0.520157 0.800000
vt 0.568139 0.850000
vt 0.519854 0.850000
vt 0.567735 0.900000
vt 0.519551 0.900000
vt 0.519400 0.925000
vt 0.567533 0.925000
vt 0.471771 0.800000
vt 0.471569 0.850000
vt 0.471368 0.900000
vt 0.471267 0.925000
vt 0.423386 0.800000
vt 0.423285 0.850000
vt 0.423184 0.900000
vt 0.423133 0.925000
vt 0.375000 0.800000
vt 0.375000 0.850000
vt 0.375000 0.900000
vt 0.375000 0.925000
vt 0.567332 0.300000
vt 0.519249 0.300000
vt 0.519400 0.325000
vt 0.567533 0.325000
vt 0.567735 0.350000
vt 0.519551 0.350000
vt 0.568139 0.400000
vt 0.519854 0.400000
vt 0.471166 0.300000
vt 0.471267 0.325000
vt 0.471368 0.350000
vt 0.471569 0.400000
vt 0.423083 0.300000
vt 0.423133 0.325000
vt 0.423184 0.350000
vt 0.423285 0.400000
vt 0.375000 0.300000
vt 0.375000 0.325000
vt 0.375000 0.350000
vt 0.375000 0.400000
vt 0.615415 0.300000
vt 0.615667 0.325000
vt 0.615919 0.350000
vt 0.616423 0.400000
vt 0.616928 0.800000
vt 0.616423 0.850000
vt 0.615919 0.900000
vt 0.615667 0.925000
vt 0.614910 0.116667
vt 0.566928 0.116667
vt 0.617432 0.616667
vt 0.568946 0.616667
vt 0.423486 0.616667
vt 0.375000 0.616667
vt 0.471973 0.616667
vt 0.520460 0.616667
vt 0.422982 0.116667
vt 0.375000 0.116667
vt 0.470964 0.116667
vt 0.518946 0.116667
vt 0.375000 0.329826
vt 0.375000 0.330579
vt 0.375000 0.345864
vt 0.375000 0.372378
vt 0.375000 0.423554
vt 0.375000 0.529718
vt 0.375000 0.377303
vt 0.375000 0.402394
vt 0.375000 0.431311
vt 0.375000 0.469175
vt 0.375000 0.528457
vt 0.375000 0.635855
vt 0.375000 0.410959
vt 0.375000 0.447753
vt 0.375000 0.481443
vt 0.375000 0.521134
vt 0.375000 0.577528
vt 0.375000 0.674658
vt 0.375000 0.453289
vt 0.375000 0.490957
vt 0.375000 0.520874
vt 0.375000 0.554369
vt 0.375000 0.599468
vt 0.375000 0.678290
vt 0.375000 0.496095
vt 0.375000 0.535124
vt 0.375000 0.559232
vt 0.375000 0.584417
vt 0.375000 0.615702
vt 0.375000 0.675813
s 1
usemtl rock
f 120/1/120 85/2/85 5/3/5 13/4/13
f 72/5/72 33/6/33 6/7/6 17/8/17
f 104/9/104 81/10/81 8/11/8 21/12/21
f 56/13/56 37/14/37 7/15/7 12/16/12
f 29/17/29 44/18/44 9/19/9 3/20/3
f 44/18/44 48/21/48 10/22/10 9/19/9
f 48/21/48 52/23/52 11/24/11 10/22/10
f 52/23/52 56/13/56 12/16/12 11/24/11
f 73/25/73 92/26/92 24/27/24 4/28/4
f 92/26/92 96/29/96 23/30/23 24/27/24
f 96/29/96 100/31/100 22/32/22 23/30/23
f 100/31/100 104/9/104 21/12/21 22/32/22
f 25/33/25 60/34/60 20/35/20 2/36/2
f 60/34/60 64/37/64 19/38/19 20/35/20
f 64/37/64 68/39/68 18/40/18 19/38/19
f 68/39/68 72/5/72 17/8/17 18/40/18
f 77/41/77 108/42/108 16/43/16 1/44/1
f 108/42/108 112/45/112 15/46/15 16/43/16
f 112/45/112 116/47/116 14/48/14 15/46/15
f 116/47/116 120/1/120 13/4/13 14/48/14
f 14/49/14 13/50/13 69/51/69 65/52/65
f 65/52/65 69/51/69 70/53/70 66/54/66
f 142/55/142 144/56/144 71/57/71 67/58/67
f 67/58/67 71/57/71 72/5/72 68/39/68
f 15/59/15 14/49/14 65/52/65 61/60/61
f 61/60/61 65/52/65 66/54/66 62/61/62
f 140/62/140 142/55/142 67/58/67 63/63/63
f 63/63/63 67/58/67 68/39/68 64/37/64
f 16/64/16 15/59/15 61/60/61 57/65/57
f 57/65/57 61/60/61 62/61/62 58/66/58
f 138/67/138 140/62/140 63/63/63 59/68/59
f 59/68/59 63/63/63 64/37/64 60/34/60
f 1/69/1 16/64/16 57/65/57 28/70/28
f 28/70/28 57/65/57 58/66/58 27/71/27
f 121/72/121 138/67/138 59/68/59 26/73/26
f 26/73/26 59/68/59 60/34/60 25/33/25
f 22/32/22 21/12/21 53/74/53 49/75/49
f 49/75/49 53/74/53 54/76/54 50/77/50
f 134/78/134 136/79/136 55/80/55 51/81/51
f 51/81/51 55/80/55 56/13/56 52/23/52
f 23/30/23 22/32/22 49/75/49 45/82/45
f 45/82/45 49/75/49 50/77/50 46/83/46
f 132/84/132 134/78/134 51/81/51 47/85/47
f 47/85/47 51/81/51 52/23/52 48/21/48
f 24/27/24 23/30/23 45/82/45 41/86/41
f 41/86/41 45/82/45 46/83/46 42/87/42
f 130/88/130 132/84/132 47/85/47 43/89/43
f 43/89/43 47/85/47 48/21/48 44/18/44
f 4/28/4 24/27/24 41/86/41 32/90/32
f 32/90/32 41/86/41 42/87/42 31/91/31
f 123/92/123 130/88/130 43/89/43 30/93/30
f 30/93/30 43/89/43 44/18/44 29/17/29
f 21/12/21 8/11/8 40/94/40 53/74/53
f 53/74/53 40/94/40 39/95/39 54/76/54
f 136/79/136 127/96/127 38/97/38 55/80/55
f 55/80/55 38/97/38 37/14/37 56/13/56
f 13/50/13 5/98/5 36/99/36 69/51/69
f 69/51/69 36/99/36 35/100/35 70/53/70
f 144/56/144 125/101/125 34/102/34 71/57/71
f 71/57/71 34/102/34 33/6/33 72/5/72
f 11/24/11 12/16/12 117/103/117 113/104/113
f 113/104/113 117/103/117 118/105/118 114/106/114
f 114/106/114 118/105/118 119/107/119 115/108/115
f 155/109/155 156/110/156 120/1/120 116/47/116
f 10/22/10 11/24/11 113/104/113 109/111/109
f 109/111/109 113/104/113 114/106/114 110/112/110
f 110/112/110 114/106/114 115/108/115 111/113/111
f 154/114/154 155/109/155 116/47/116 112/45/112
f 9/19/9 10/22/10 109/111/109 105/115/105
f 105/115/105 109/111/109 110/112/110 106/116/106
f 106/116/106 110/112/110 111/113/111 107/117/107
f 153/118/153 154/114/154 112/45/112 108/42/108
f 3/20/3 9/19/9 105/115/105 80/119/80
f 80/119/80 105/115/105 106/116/106 79/120/79
f 79/120/79 106/116/106 107/117/107 78/121/78
f 146/122/146 153/118/153 108/42/108 77/41/77
f 18/40/18 17/8/17 101/123/101 97/124/97
f 151/125/151 152/126/152 102/127/102 98/128/98
f 98/128/98 102/127/102 103/129/103 99/130/99
f 99/130/99 103/129/103 104/9/104 100/31/100
f 19/38/19 18/40/18 97/124/97 93/131/93
f 150/132/150 151/125/151 98/128/98 94/133/94
f 94/133/94 98/128/98 99/130/99 95/134/95
f 95/134/95 99/130/99 100/31/100 96/29/96
f 20/35/20 19/38/19 93/131/93 89/135/89
f 149/136/149 150/132/150 94/133/94 90/137/90
f 90/137/90 94/133/94 95/134/95 91/138/91
f 91/138/91 95/134/95 96/29/96 92/26/92
f 2/36/2 20/35/20 89/135/89 76/139/76
f 145/140/145 149/136/149 90/137/90 75/141/75
f 75/141/75 90/137/90 91/138/91 74/142/74
f 74/142/74 91/138/91 92/26/92 73/25/73
f 17/8/17 6/7/6 84/143/84 101/123/101
f 152/126/152 147/144/147 83/145/83 102/127/102
f 102/127/102 83/145/83 82/146/82 103/129/103
f 103/129/103 82/146/82 81/10/81 104/9/104
f 12/16/12 7/15/7 88/147/88 117/103/117
f 117/103/117 88/147/88 87/148/87 118/105/118
f 118/105/118 87/148/87 86/149/86 119/107/119
f 156/110/156 148/150/148 85/2/85 120/1/120
f 70/53/70 35/100/35 126/151/126 143/152/143
f 143/152/143 126/151/126 125/101/125 144/56/144
f 54/76/54 39/95/39 128/153/128 135/154/135
f 135/154/135 128/153/128 127/96/127 136/79/136
f 31/91/31 42/87/42 129/155/129 124/156/124
f 124/156/124 129/155/129 130/88/130 123/92/123
f 42/87/42 46/83/46 131/157/131 129/155/129
f 129/155/129 131/157/131 132/84/132 130/88/130
f 46/83/46 50/77/50 133/158/133 131/157/131
f 131/157/131 133/158/133 134/78/134 132/84/132
f 50/77/50 54/76/54 135/154/135 133/158/133
f 133/158/133 135/154/135 136/79/136 134/78/134
f 27/71/27 58/66/58 137/159/137 122/160/122
f 122/160/122 137/159/137 138/67/138 121/72/121
f 58/66/58 62/61/62 139/161/139 137/159/137
f 137/159/137 139/161/139 140/62/140 138/67/138
f 62/61/62 66/54/66 141/162/141 139/161/139
f 139/161/139 141/162/141 142/55/142 140/62/140
f 66/54/66 70/53/70 143/152/143 141/162/141
f 141/162/141 143/152/143 144/56/144 142/55/142
f 119/107/119 86/149/86 148/150/148 156/110/156
f 101/123/101 84/143/84 147/144/147 152/126/152
f 76/139/76 89/135/89 149/136/149 145/140/145
f 89/135/89 93/131/93 150/132/150 149/136/149
f 93/131/93 97/124/97 151/125/151 150/132/150
f 97/124/97 101/123/101 152/126/152 151/125/151
f 78/121/78 107/117/107 153/118/153 146/122/146
f 107/117/107 111/113/111 154/114/154 153/118/153
f 111/113/111 115/108/115 155/109/155 154/114/154
f 115/108/115 119/107/119 156/110/156 155/109/155
f 30/93/30 29/17/29 165/17/165 166/93/166
f 74/142/74 73/25/73 169/25/169 170/142/170
f 123/92/123 30/93/30 166/93/166 179/92/179
f 31/91/31 124/156/124 180/156/180 167/91/167
f 75/141/75 74/142/74 170/142/170 171/141/171
f 124/156/124 123/92/123 179/92/179 180/156/180
f 32/90/32 31/91/31 167/91/167 168/90/168
f 145/140/145 75/141/75 171/141/171 181/140/181
f 1/69/1 28/70/28 164/70/164 157/69/157
f 76/139/76 145/140/145 181/140/181 172/139/172
f 25/33/25 2/36/2 158/36/158 161/33/161
f 146/122/146 77/41/77 173/41/173 182/122/182
f 2/36/2 76/139/76 172/139/172 158/36/158
f 77/41/77 1/44/1 157/44/157 173/41/173
f 26/73/26 25/33/25 161/33/161 162/73/162
f 4/28/4 32/90/32 168/90/168 160/28/160
f 78/121/78 146/122/146 182/122/182 174/121/174
f 27/71/27 122/160/122 178/160/178 163/71/163
f 3/20/3 80/119/80 176/119/176 159/20/159
f 79/120/79 78/121/78 174/121/174 175/120/175
f 28/70/28 27/71/27 163/71/163 164/70/164
f 121/72/121 26/73/26 162/73/162 177/72/177
f 80/119/80 79/120/79 175/120/175 176/119/176
f 29/17/29 3/20/3 159/20/159 165/17/165
f 73/25/73 4/28/4 160/28/160 169/25/169
f 122/160/122 121/72/121 177/72/177 178/160/178
f 172/139/172 183/163/183 161/33/161 158/36/158
f 183/163/183 188/164/188 162/73/162 161/33/161
f 188/164/188 193/165/193 177/72/177 162/73/162
f 193/165/193 198/166/198 178/160/178 177/72/177
f 198/166/198 203/167/203 163/71/163 178/160/178
f 203/167/203 208/168/208 164/70/164 163/71/163
f 208/168/208 173/41/173 157/69/157 164/70/164
f 181/140/181 184/169/184 183/163/183 172/139/172
f 184/169/184 189/170/189 188/164/188 183/163/183
f 189/170/189 194/171/194 193/165/193 188/164/188
f 194/171/194 199/172/199 198/166/198 193/165/193
f 199/172/199 204/173/204 203/167/203 198/166/198
f 204/173/204 209/174/209 208/168/208 203/167/203
f 209/174/209 182/122/182 173/41/173 208/168/208
f 171/141/171 185/175/185 184/169/184 181/140/181
f 185/175/185 190/176/190 189/170/189 184/169/184
f 190/176/190 195/177/195 194/171/194 189/170/189
f 195/177/195 200/178/200 199/172/199 194/171/194
f 200/178/200 205/179/205 204/173/204 199/172/199
f 205/179/205 210/180/210 209/174/209 204/173/204
f 210/180/210 174/121/174 182/122/182 209/174/209
f 170/142/170 186/181/186 185/175/185 171/141/171
f 186/181/186 191/182/191 190/176/190 185/175/185
f 191/182/191 196/183/196 195/177/195 190/176/190
f 196/183/196 201/184/201 200/178/200 195/177/195
f 201/184/201 206/185/206 205/179/205 200/178/200
f 206/185/206 211/186/211 210/180/210 205/179/205
f 211/186/211 175/120/175 174/121/174 210/180/210
f 169/25/169 187/187/187 186/181/186 170/142/170
f 187/187/187 192/188/192 191/182/191 186/181/186
f 192/188/192 197/189/197 196/183/196 191/182/191
f 197/189/197 202/190/202 201/184/201 196/183/196
f 202/190/202 207/191/207 206/185/206 201/184/201
f 207/191/207 212/192/212 211/186/211 206/185/206
f 212/192/212 176/119/176 175/120/175 211/186/211
f 160/28/160 168/90/168 187/187/187 169/25/169
f 168/90/168 167/91/167 192/188/192 187/187/187
f 167/91/167 180/156/180 197/189/197 192/188/192
f 180/156/180 179/92/179 202/190/202 197/189/197
f 179/92/179 166/93/166 207/191/207 202/190/202
f 166/93/166 165/17/165 212/192/212 207/191/207
f 165/17/165 159/20/159 176/119/176 212/192/212
