# Blender 5.2.2 LTS
# www.blender.org
o wall_small_2
v 1.914614 -4.074042 10.133439
v 4.138654 4.644436 9.805619
v -3.604876 -4.183621 10.545630
v -3.481194 4.311103 10.417313
v 2.436336 -2.747696 -9.898018
v 2.697736 2.905611 -10.608541
v -1.040484 -2.673432 -10.049564
v -1.728619 3.065678 -10.805717
v -2.511232 -3.774747 -0.110092
v -3.210624 4.795579 -0.335709
v 2.314551 -4.139103 -0.076942
v 2.978075 2.473134 -0.896312
v -0.780789 -4.245829 10.260208
v 3.245678 0.289243 10.372071
v 0.459595 4.847988 10.576242
v -3.694443 0.044184 10.573799
v -3.104037 -4.037273 5.231830
v -2.519990 4.010461 -5.879028
v -1.472741 0.094346 -10.712922
v 0.729783 -2.830013 -10.189780
v 0.544807 3.313012 -11.499785
v 2.787785 -0.016321 -10.919757
v 2.413955 -3.465698 -5.354807
v 3.715196 3.704046 4.779825
v -1.764745 -3.263716 -5.427733
v -3.503246 4.719254 5.178386
v 2.269392 -4.473624 5.368144
v 2.900423 2.743481 -5.873280
v 0.104383 4.475522 -0.855016
v -0.125060 -4.262396 -0.022934
v 2.880672 -0.843098 -0.467970
v -3.461159 0.360019 -0.407498
v -0.159251 0.204145 10.726128
v -2.685659 0.201197 -5.950890
v 0.629917 0.071545 -10.764905
v 3.224456 -0.284166 5.107363
v 0.328690 -3.738562 -5.402362
v 0.269854 4.716791 4.889427
v 0.303145 4.164088 -5.941023
v -0.509461 -4.642056 5.338204
v 2.814175 -0.456346 -5.573540
v -3.797001 0.211995 5.186151
v -2.345396 -4.423371 10.843032
v 0.721448 -4.265754 10.313831
v 2.538146 -2.192844 10.294991
v 3.890830 2.801457 10.222146
v 2.624624 5.145587 10.805280
v -1.792816 4.709687 10.815025
v -3.688720 2.451426 10.643991
v -3.889376 -2.325800 11.236740
v -2.821700 -3.927243 2.551612
v -3.469145 -4.261264 7.948500
v -2.886550 4.447337 -3.102359
v -2.137830 3.552986 -8.684495
v -1.659348 1.750682 -10.879553
v -1.257784 -1.475565 -10.464576
v 1.702348 -2.841828 -10.143496
v -0.248635 -2.803290 -10.220155
v -0.735283 3.253078 -11.347945
v 1.808354 3.399747 -11.801213
v 2.807513 1.566432 -10.919118
v 2.620389 -1.565106 -10.382108
v 2.435214 -3.922980 -2.817788
v 2.462292 -3.117437 -7.933694
v 3.323165 3.024265 1.907368
v 4.091152 4.366937 7.624652
v -1.387414 -2.996791 -8.052124
v -2.144902 -3.530917 -2.773022
v -3.597149 4.594337 8.151241
v -3.379302 4.803293 2.401266
v 2.078251 -4.323088 8.148390
v 2.313823 -4.363235 2.632609
v 2.932075 3.004501 -8.451626
v 2.847543 2.476369 -3.392498
v -1.733709 4.712529 -0.468254
v 1.731282 3.601439 -0.975276
v -1.396375 -4.199909 -0.064517
v 1.141102 -4.287199 0.007785
v 3.079928 0.894778 -0.716824
v 2.843977 -2.649332 -0.320622
v -3.438314 2.827101 -0.297813
v -3.058732 -1.913234 -0.254503
v 1.696366 0.290501 10.677673
v 0.178575 2.715129 11.281714
v -2.092588 0.108250 10.972122
v -0.513202 -2.231368 10.702330
v -2.893909 0.335429 -2.954446
v -2.641873 2.309944 -5.788000
v -2.027713 0.165964 -8.428031
v -2.405881 -1.756394 -5.845338
v -0.471045 0.077747 -10.972518
v 0.563915 1.686739 -10.953113
v 1.747298 0.047290 -11.429537
v 0.703401 -1.485188 -10.673779
v 3.038674 -0.608752 2.302742
v 3.661242 1.853863 4.925216
v 3.549597 -0.028469 7.883846
v 3.076655 -2.586232 5.137292
v -0.784668 -3.624539 -5.384576
v 0.553743 -3.355023 -7.985112
v 1.439370 -3.694014 -5.329724
v 0.099411 -4.091289 -2.768178
v -1.775667 4.950778 5.038721
v 0.413739 5.206335 7.853612
v 2.230885 4.532509 4.590674
v 0.154024 4.564650 1.966064
v -1.245698 4.379354 -6.046526
v 0.238768 4.556435 -3.469584
v 1.683990 3.488131 -5.822150
v 0.432639 4.025175 -8.850665
v -1.904937 -4.506680 5.280991
v -0.321251 -4.443772 2.661486
v 0.883182 -4.669948 5.399496
v -0.688943 -4.584108 8.032329
v 2.784378 -0.212459 -8.065503
v 2.914463 1.170067 -5.706210
v 2.834960 -0.696204 -3.047851
v 2.685718 -2.078620 -5.438095
v -3.959375 0.110765 8.166660
v -3.794441 2.673757 5.212656
v -3.824872 0.279039 2.290669
v -3.818140 -2.186045 5.032309
v 1.155800 -2.199530 10.712596
v 2.222270 2.814979 10.666377
v -1.921486 2.560863 10.977473
v -2.269067 -2.282923 11.674896
v -2.736443 -1.829636 -3.038492
v -3.040600 2.601203 -3.021067
v -2.214614 2.007045 -8.575669
v -1.795736 -1.571244 -8.264924
v -0.324699 -1.470702 -10.793670
v -0.591471 1.700236 -11.473578
v 1.764259 1.649916 -11.999621
v 1.713210 -1.497269 -10.616612
v 2.967711 -2.651814 2.383828
v 3.352644 1.315310 2.076879
v 3.962043 2.380034 7.730567
v 2.914848 -2.367041 8.047136
v -1.095063 -3.927982 -2.730243
v -0.479089 -3.313945 -8.004616
v 1.584495 -3.368097 -7.950960
v 1.297219 -4.094789 -2.728522
v -1.776475 4.855112 2.255481
v -1.762978 5.002705 8.024122
v 2.503106 5.127700 7.560973
v 1.958455 4.020053 1.715240
v -0.989884 3.903399 -8.785647
v -1.522421 4.425385 -3.146639
v 1.719507 3.618199 -3.400269
v 1.778974 3.877879 -8.636376
v -2.132536 -4.547459 7.972048
v -1.655230 -4.348384 2.614128
v 1.016482 -4.578599 2.678152
v 0.743223 -4.636374 8.102948
v 2.797928 -1.812448 -8.070266
v 2.948902 1.376559 -8.236156
v 2.977216 0.971990 -3.247463
v 2.737111 -2.382406 -2.884652
v -3.953773 -2.244647 8.056669
v -3.930474 2.541204 8.164088
v -3.671015 2.787771 2.433618
v -3.539840 -2.081679 2.292433
vn 0.2361 -0.1983 0.9513
vn 0.2391 -0.0682 0.9686
vn 0.0108 0.0003 0.9999
vn -0.0190 -0.1987 0.9799
vn 0.2268 -0.0216 0.9737
vn 0.4127 -0.0037 0.9109
vn 0.0802 0.1134 0.9903
vn 0.1725 -0.1351 0.9757
vn -0.0074 -0.1115 0.9937
vn -0.0282 0.2012 0.9791
vn -0.2215 0.1126 0.9686
vn -0.2119 -0.0075 0.9773
vn 0.4217 -0.2975 0.8565
vn 0.3085 0.0992 0.9460
vn -0.2497 0.2849 0.9254
vn -0.2540 -0.3558 0.8994
vn -0.9387 -0.3160 -0.1377
vn -0.9783 -0.1260 -0.1646
vn -0.9903 -0.1055 -0.0908
vn -0.9134 -0.3813 -0.1426
vn -0.9836 -0.0241 -0.1789
vn -0.9857 0.0943 -0.1395
vn -0.9869 0.0697 -0.1454
vn -0.9944 -0.0211 -0.1032
vn -0.9793 -0.0347 -0.1996
vn -0.9874 0.0512 -0.1499
vn -0.9771 -0.0000 -0.2129
vn -0.9665 -0.1234 -0.2250
vn -0.9053 -0.3691 -0.2103
vn -0.9559 -0.1507 -0.2522
vn -0.9590 -0.1588 -0.2346
vn -0.9344 -0.2766 -0.2246
vn -0.2828 -0.3773 -0.8819
vn -0.2881 -0.1627 -0.9437
vn 0.1509 -0.0750 -0.9857
vn 0.0621 -0.3646 -0.9291
vn -0.3781 -0.2186 -0.8996
vn -0.4839 0.0249 -0.8748
vn 0.1508 -0.1222 -0.9810
vn 0.3005 -0.1820 -0.9362
vn -0.5859 -0.1943 -0.7867
vn -0.4768 -0.0867 -0.8747
vn 0.7712 0.1194 -0.6253
vn 0.5933 -0.1483 -0.7912
vn 0.0451 -0.3347 -0.9412
vn -0.2685 -0.2727 -0.9239
vn 0.3040 -0.3978 -0.8657
vn 0.2673 -0.3593 -0.8941
vn 0.9356 -0.3514 -0.0360
vn 0.9983 -0.0309 -0.0501
vn 0.9975 -0.0515 -0.0493
vn 0.9258 -0.3777 -0.0140
vn 0.9875 -0.1461 -0.0592
vn 0.9931 0.0275 -0.1144
vn 0.9929 -0.0173 -0.1179
vn 0.9807 -0.1870 -0.0572
vn 0.9785 -0.1889 -0.0833
vn 0.9927 -0.0544 -0.1075
vn 0.9953 -0.0953 0.0193
vn 0.9737 -0.2029 0.1035
vn 0.9189 -0.3859 0.0821
vn 0.9859 -0.1668 -0.0144
vn 0.9511 -0.2619 0.1639
vn 0.9228 -0.3535 0.1531
vn -0.3472 -0.9283 -0.1333
vn -0.3408 -0.9290 -0.1442
vn -0.1214 -0.9835 -0.1344
vn -0.0907 -0.9918 -0.0900
vn -0.3281 -0.9334 -0.1455
vn -0.2629 -0.9389 -0.2219
vn -0.0271 -0.9727 -0.2304
vn -0.0713 -0.9877 -0.1390
vn 0.0212 -0.9908 -0.1336
vn -0.0027 -0.9725 -0.2327
vn 0.2360 -0.9510 -0.1998
vn 0.2482 -0.9618 -0.1155
vn -0.0096 -0.9977 -0.0668
vn 0.0244 -0.9897 -0.1407
vn 0.1755 -0.9717 -0.1581
vn 0.1318 -0.9890 -0.0671
vn 0.0077 0.9996 -0.0272
vn -0.0851 0.9964 -0.0040
vn 0.1257 0.9910 -0.0456
vn 0.1312 0.9905 -0.0416
vn -0.1761 0.9843 0.0097
vn -0.2302 0.9664 0.1140
vn -0.0657 0.9909 0.1173
vn 0.0003 0.9959 -0.0906
vn 0.0372 0.9826 -0.1822
vn -0.0504 0.9970 0.0583
vn 0.3600 0.9309 -0.0619
vn 0.4617 0.8550 -0.2364
vn 0.3704 0.9231 -0.1036
vn 0.1712 0.9775 -0.1235
vn 0.5464 0.8053 -0.2302
vn 0.6308 0.7502 -0.1981
vn -0.3092 0.9132 -0.2656
vn -0.2989 0.9348 -0.1918
vn 0.0327 0.9938 -0.1059
vn -0.0854 0.9625 -0.2576
vn -0.1376 0.9855 -0.0994
vn 0.0297 0.9932 -0.1130
vn 0.0220 0.9991 -0.0375
vn 0.0201 0.9966 -0.0801
vn 0.4938 0.8650 -0.0894
vn 0.5039 0.8633 0.0290
vn 0.6912 0.7224 -0.0171
vn 0.6270 0.7787 0.0240
vn 0.0160 0.9796 -0.2002
vn 0.2826 0.9578 0.0531
vn 0.5560 0.8235 0.1124
vn 0.6027 0.7905 -0.1089
vn -0.2013 -0.9793 0.0233
vn -0.2827 -0.9561 -0.0778
vn -0.0604 -0.9982 -0.0014
vn 0.0628 -0.9936 0.0939
vn -0.3478 -0.9340 -0.0815
vn -0.3427 -0.9352 -0.0892
vn -0.0581 -0.9961 -0.0662
vn -0.0812 -0.9940 -0.0730
vn -0.0578 -0.9967 -0.0569
vn -0.0593 -0.9941 -0.0913
vn 0.1402 -0.9859 -0.0912
vn 0.1507 -0.9881 -0.0316
vn -0.0309 -0.9871 0.1569
vn -0.0291 -0.9995 0.0152
vn 0.1837 -0.9820 0.0441
vn 0.2014 -0.9677 0.1518
vn 0.9718 -0.2226 -0.0784
vn 0.9977 -0.0552 -0.0384
vn 0.9993 -0.0351 0.0126
vn 0.9755 -0.2198 0.0041
vn 0.9978 -0.0595 -0.0290
vn 0.9961 0.0450 -0.0765
vn 0.9998 0.0113 0.0140
vn 0.9966 -0.0827 -0.0065
vn 0.9969 -0.0757 -0.0234
vn 0.9989 0.0469 0.0024
vn 0.9965 0.0701 -0.0451
vn 0.9940 -0.1041 -0.0334
vn 0.9800 -0.1942 -0.0430
vn 0.9973 -0.0702 -0.0217
vn 0.9986 -0.0414 -0.0330
vn 0.9636 -0.2666 -0.0218
vn -0.9813 -0.1923 -0.0122
vn -0.9971 0.0470 0.0600
vn -0.9988 0.0060 -0.0494
vn -0.9500 -0.2967 -0.0975
vn -0.9946 0.0057 0.1033
vn -0.9862 0.1416 0.0855
vn -0.9881 0.1502 -0.0318
vn -0.9987 0.0067 -0.0500
vn -0.9994 0.0320 -0.0158
vn -0.9892 0.1413 -0.0390
vn -0.9892 0.1277 -0.0719
vn -0.9933 0.0408 -0.1082
vn -0.9221 -0.3709 -0.1101
vn -0.9975 -0.0538 -0.0460
vn -0.9749 -0.1501 -0.1642
vn -0.9284 -0.3346 -0.1617
vt 0.375000 0.000000
vt 0.437500 0.000000
vt 0.437500 0.062500
vt 0.375000 0.062500
vt 0.500000 0.000000
vt 0.500000 0.062500
vt 0.500000 0.124927
vt 0.437500 0.124957
vt 0.375000 0.125000
vt 0.562500 0.000000
vt 0.562500 0.062500
vt 0.625000 0.000000
vt 0.625000 0.062500
vt 0.625000 0.125000
vt 0.562500 0.124957
vt 0.562500 0.187233
vt 0.500000 0.187053
vt 0.625000 0.187500
vt 0.625000 0.250000
vt 0.562500 0.244467
vt 0.500000 0.244165
vt 0.437500 0.187233
vt 0.375000 0.187500
vt 0.437500 0.244467
vt 0.375000 0.250000
vt 0.375000 0.375000
vt 0.437500 0.375000
vt 0.437500 0.406250
vt 0.375000 0.406250
vt 0.500000 0.375000
vt 0.500000 0.406250
vt 0.500000 0.437573
vt 0.437500 0.437543
vt 0.375000 0.437500
vt 0.562500 0.375000
vt 0.562500 0.406250
vt 0.625000 0.375000
vt 0.625000 0.406250
vt 0.625000 0.437500
vt 0.562500 0.437543
vt 0.562500 0.469017
vt 0.500000 0.469197
vt 0.625000 0.468750
vt 0.625000 0.500000
vt 0.562457 0.505533
vt 0.500000 0.505835
vt 0.437500 0.469017
vt 0.375000 0.468750
vt 0.437543 0.505533
vt 0.375000 0.500000
vt 0.437767 0.562767
vt 0.380533 0.562544
vt 0.500000 0.562947
vt 0.500000 0.625000
vt 0.437947 0.625000
vt 0.380835 0.625000
vt 0.562233 0.562767
vt 0.619467 0.562544
vt 0.619165 0.625000
vt 0.562053 0.625000
vt 0.562233 0.687233
vt 0.500000 0.687053
vt 0.619467 0.687457
vt 0.625000 0.750000
vt 0.562457 0.744467
vt 0.500000 0.744165
vt 0.437767 0.687233
vt 0.380533 0.687457
vt 0.437543 0.744467
vt 0.375000 0.750000
vt 0.375000 0.875000
vt 0.437500 0.875000
vt 0.437500 0.906250
vt 0.375000 0.906250
vt 0.500000 0.875000
vt 0.500000 0.906250
vt 0.500000 0.937500
vt 0.437500 0.937500
vt 0.375000 0.937500
vt 0.562500 0.875000
vt 0.562500 0.906250
vt 0.625000 0.875000
vt 0.625000 0.906250
vt 0.625000 0.937500
vt 0.562500 0.937500
vt 0.562500 0.968750
vt 0.500000 0.968750
vt 0.625000 0.968750
vt 0.625000 1.000000
vt 0.562500 1.000000
vt 0.500000 1.000000
vt 0.437500 0.968750
vt 0.375000 0.968750
vt 0.437500 1.000000
vt 0.375000 1.000000
vt 0.250000 0.500000
vt 0.281250 0.500000
vt 0.281250 0.562500
vt 0.250000 0.562500
vt 0.312500 0.500000
vt 0.312543 0.562500
vt 0.312573 0.625000
vt 0.281250 0.625000
vt 0.250000 0.625000
vt 0.343750 0.500000
vt 0.344017 0.562500
vt 0.344197 0.625000
vt 0.344017 0.687500
vt 0.312544 0.687500
vt 0.343750 0.750000
vt 0.312500 0.750000
vt 0.281250 0.687500
vt 0.250000 0.687500
vt 0.281250 0.750000
vt 0.250000 0.750000
vt 0.750000 0.500000
vt 0.781250 0.500000
vt 0.781250 0.562500
vt 0.750000 0.562500
vt 0.812500 0.500000
vt 0.812500 0.562500
vt 0.812500 0.625000
vt 0.781250 0.625000
vt 0.750000 0.625000
vt 0.843750 0.500000
vt 0.843750 0.562500
vt 0.875000 0.500000
vt 0.875000 0.562500
vt 0.875000 0.625000
vt 0.843750 0.625000
vt 0.843750 0.687500
vt 0.812500 0.687500
vt 0.875000 0.687500
vt 0.875000 0.750000
vt 0.843750 0.750000
vt 0.812500 0.750000
vt 0.781250 0.687500
vt 0.750000 0.687500
vt 0.781250 0.750000
vt 0.750000 0.750000
vt 0.656250 0.500000
vt 0.655983 0.562500
vt 0.687500 0.500000
vt 0.687457 0.562500
vt 0.687428 0.625000
vt 0.655803 0.625000
vt 0.718750 0.500000
vt 0.718750 0.562500
vt 0.718750 0.625000
vt 0.718750 0.687500
vt 0.687457 0.687500
vt 0.718750 0.750000
vt 0.687500 0.750000
vt 0.655983 0.687500
vt 0.656250 0.750000
vt 0.125000 0.500000
vt 0.156250 0.500000
vt 0.156250 0.562500
vt 0.125000 0.562500
vt 0.187500 0.500000
vt 0.187500 0.562500
vt 0.187500 0.625000
vt 0.156250 0.625000
vt 0.125000 0.625000
vt 0.218750 0.500000
vt 0.218750 0.562500
vt 0.218750 0.625000
vt 0.218750 0.687500
vt 0.187500 0.687500
vt 0.218750 0.750000
vt 0.187500 0.750000
vt 0.156250 0.687500
vt 0.125000 0.687500
vt 0.156250 0.750000
vt 0.125000 0.750000
vt 0.437500 0.780983
vt 0.375000 0.781250
vt 0.500000 0.780803
vt 0.500000 0.812428
vt 0.437500 0.812457
vt 0.375000 0.812500
vt 0.562500 0.780983
vt 0.625000 0.781250
vt 0.625000 0.812500
vt 0.562500 0.812457
vt 0.562500 0.843750
vt 0.500000 0.843750
vt 0.625000 0.843750
vt 0.437500 0.843750
vt 0.375000 0.843750
vt 0.437500 0.280983
vt 0.375000 0.281250
vt 0.500000 0.280803
vt 0.500000 0.312428
vt 0.437500 0.312457
vt 0.375000 0.312500
vt 0.562500 0.280983
vt 0.625000 0.281250
vt 0.625000 0.312500
vt 0.562500 0.312457
vt 0.562500 0.343750
vt 0.500000 0.343750
vt 0.625000 0.343750
vt 0.437500 0.343750
vt 0.375000 0.343750
s 0
f 1/1/1 45/2/1 123/3/1 44/4/1
f 45/2/2 14/5/2 83/6/2 123/3/2
f 123/3/3 83/6/3 33/7/3 86/8/3
f 44/4/4 123/3/4 86/8/4 13/9/4
f 14/5/5 46/10/5 124/11/5 83/6/5
f 46/10/6 2/12/6 47/13/6 124/11/6
f 124/11/7 47/13/7 15/14/7 84/15/7
f 83/6/8 124/11/8 84/15/8 33/7/8
f 33/7/9 84/15/9 125/16/9 85/17/9
f 84/15/10 15/14/10 48/18/10 125/16/10
f 125/16/11 48/18/11 4/19/11 49/20/11
f 85/17/12 125/16/12 49/20/12 16/21/12
f 13/9/13 86/8/13 126/22/13 43/23/13
f 86/8/14 33/7/14 85/17/14 126/22/14
f 126/22/15 85/17/15 16/21/15 50/24/15
f 43/23/16 126/22/16 50/24/16 3/25/16
f 9/26/17 82/27/17 127/28/17 68/29/17
f 82/27/18 32/30/18 87/31/18 127/28/18
f 127/28/19 87/31/19 34/32/19 90/33/19
f 68/29/20 127/28/20 90/33/20 25/34/20
f 32/30/21 81/35/21 128/36/21 87/31/21
f 81/35/22 10/37/22 53/38/22 128/36/22
f 128/36/23 53/38/23 18/39/23 88/40/23
f 87/31/24 128/36/24 88/40/24 34/32/24
f 34/32/25 88/40/25 129/41/25 89/42/25
f 88/40/26 18/39/26 54/43/26 129/41/26
f 129/41/27 54/43/27 8/44/27 55/45/27
f 89/42/28 129/41/28 55/45/28 19/46/28
f 25/34/29 90/33/29 130/47/29 67/48/29
f 90/33/30 34/32/30 89/42/30 130/47/30
f 130/47/31 89/42/31 19/46/31 56/49/31
f 67/48/32 130/47/32 56/49/32 7/50/32
f 7/50/33 56/49/33 131/51/33 58/52/33
f 56/49/34 19/46/34 91/53/34 131/51/34
f 131/51/35 91/53/35 35/54/35 94/55/35
f 58/52/36 131/51/36 94/55/36 20/56/36
f 19/46/37 55/45/37 132/57/37 91/53/37
f 55/45/38 8/44/38 59/58/38 132/57/38
f 132/57/39 59/58/39 21/59/39 92/60/39
f 91/53/40 132/57/40 92/60/40 35/54/40
f 35/54/41 92/60/41 133/61/41 93/62/41
f 92/60/42 21/59/42 60/63/42 133/61/42
f 133/61/43 60/63/43 6/64/43 61/65/43
f 93/62/44 133/61/44 61/65/44 22/66/44
f 20/56/45 94/55/45 134/67/45 57/68/45
f 94/55/46 35/54/46 93/62/46 134/67/46
f 134/67/47 93/62/47 22/66/47 62/69/47
f 57/68/48 134/67/48 62/69/48 5/70/48
f 11/71/49 80/72/49 135/73/49 72/74/49
f 80/72/50 31/75/50 95/76/50 135/73/50
f 135/73/51 95/76/51 36/77/51 98/78/51
f 72/74/52 135/73/52 98/78/52 27/79/52
f 31/75/53 79/80/53 136/81/53 95/76/53
f 79/80/54 12/82/54 65/83/54 136/81/54
f 136/81/55 65/83/55 24/84/55 96/85/55
f 95/76/56 136/81/56 96/85/56 36/77/56
f 36/77/57 96/85/57 137/86/57 97/87/57
f 96/85/58 24/84/58 66/88/58 137/86/58
f 137/86/59 66/88/59 2/89/59 46/90/59
f 97/87/60 137/86/60 46/90/60 14/91/60
f 27/79/61 98/78/61 138/92/61 71/93/61
f 98/78/62 36/77/62 97/87/62 138/92/62
f 138/92/63 97/87/63 14/91/63 45/94/63
f 71/93/64 138/92/64 45/94/64 1/95/64
f 9/96/65 68/97/65 139/98/65 77/99/65
f 68/97/66 25/100/66 99/101/66 139/98/66
f 139/98/67 99/101/67 37/102/67 102/103/67
f 77/99/68 139/98/68 102/103/68 30/104/68
f 25/100/69 67/105/69 140/106/69 99/101/69
f 67/105/70 7/50/70 58/52/70 140/106/70
f 140/106/71 58/52/71 20/56/71 100/107/71
f 99/101/72 140/106/72 100/107/72 37/102/72
f 37/102/73 100/107/73 141/108/73 101/109/73
f 100/107/74 20/56/74 57/68/74 141/108/74
f 141/108/75 57/68/75 5/70/75 64/110/75
f 101/109/76 141/108/76 64/110/76 23/111/76
f 30/104/77 102/103/77 142/112/77 78/113/77
f 102/103/78 37/102/78 101/109/78 142/112/78
f 142/112/79 101/109/79 23/111/79 63/114/79
f 78/113/80 142/112/80 63/114/80 11/115/80
f 10/116/81 70/117/81 143/118/81 75/119/81
f 70/117/82 26/120/82 103/121/82 143/118/82
f 143/118/83 103/121/83 38/122/83 106/123/83
f 75/119/84 143/118/84 106/123/84 29/124/84
f 26/120/85 69/125/85 144/126/85 103/121/85
f 69/125/86 4/127/86 48/128/86 144/126/86
f 144/126/87 48/128/87 15/129/87 104/130/87
f 103/121/88 144/126/88 104/130/88 38/122/88
f 38/122/89 104/130/89 145/131/89 105/132/89
f 104/130/90 15/129/90 47/133/90 145/131/90
f 145/131/91 47/133/91 2/134/91 66/135/91
f 105/132/92 145/131/92 66/135/92 24/136/92
f 29/124/93 106/123/93 146/137/93 76/138/93
f 106/123/94 38/122/94 105/132/94 146/137/94
f 146/137/95 105/132/95 24/136/95 65/139/95
f 76/138/96 146/137/96 65/139/96 12/140/96
f 8/44/97 54/141/97 147/142/97 59/58/97
f 54/141/98 18/143/98 107/144/98 147/142/98
f 147/142/99 107/144/99 39/145/99 110/146/99
f 59/58/100 147/142/100 110/146/100 21/59/100
f 18/143/101 53/147/101 148/148/101 107/144/101
f 53/147/102 10/116/102 75/119/102 148/148/102
f 148/148/103 75/119/103 29/124/103 108/149/103
f 107/144/104 148/148/104 108/149/104 39/145/104
f 39/145/105 108/149/105 149/150/105 109/151/105
f 108/149/106 29/124/106 76/138/106 149/150/106
f 149/150/107 76/138/107 12/140/107 74/152/107
f 109/151/108 149/150/108 74/152/108 28/153/108
f 21/59/109 110/146/109 150/154/109 60/63/109
f 110/146/110 39/145/110 109/151/110 150/154/110
f 150/154/111 109/151/111 28/153/111 73/155/111
f 60/63/112 150/154/112 73/155/112 6/64/112
f 3/156/113 52/157/113 151/158/113 43/159/113
f 52/157/114 17/160/114 111/161/114 151/158/114
f 151/158/115 111/161/115 40/162/115 114/163/115
f 43/159/116 151/158/116 114/163/116 13/164/116
f 17/160/117 51/165/117 152/166/117 111/161/117
f 51/165/118 9/96/118 77/99/118 152/166/118
f 152/166/119 77/99/119 30/104/119 112/167/119
f 111/161/120 152/166/120 112/167/120 40/162/120
f 40/162/121 112/167/121 153/168/121 113/169/121
f 112/167/122 30/104/122 78/113/122 153/168/122
f 153/168/123 78/113/123 11/115/123 72/170/123
f 113/169/124 153/168/124 72/170/124 27/171/124
f 13/164/125 114/163/125 154/172/125 44/173/125
f 114/163/126 40/162/126 113/169/126 154/172/126
f 154/172/127 113/169/127 27/171/127 71/174/127
f 44/173/128 154/172/128 71/174/128 1/175/128
f 5/70/129 62/69/129 155/176/129 64/177/129
f 62/69/130 22/66/130 115/178/130 155/176/130
f 155/176/131 115/178/131 41/179/131 118/180/131
f 64/177/132 155/176/132 118/180/132 23/181/132
f 22/66/133 61/65/133 156/182/133 115/178/133
f 61/65/134 6/64/134 73/183/134 156/182/134
f 156/182/135 73/183/135 28/184/135 116/185/135
f 115/178/136 156/182/136 116/185/136 41/179/136
f 41/179/137 116/185/137 157/186/137 117/187/137
f 116/185/138 28/184/138 74/188/138 157/186/138
f 157/186/139 74/188/139 12/82/139 79/80/139
f 117/187/140 157/186/140 79/80/140 31/75/140
f 23/181/141 118/180/141 158/189/141 63/190/141
f 118/180/142 41/179/142 117/187/142 158/189/142
f 158/189/143 117/187/143 31/75/143 80/72/143
f 63/190/144 158/189/144 80/72/144 11/71/144
f 3/25/145 50/24/145 159/191/145 52/192/145
f 50/24/146 16/21/146 119/193/146 159/191/146
f 159/191/147 119/193/147 42/194/147 122/195/147
f 52/192/148 159/191/148 122/195/148 17/196/148
f 16/21/149 49/20/149 160/197/149 119/193/149
f 49/20/150 4/19/150 69/198/150 160/197/150
f 160/197/151 69/198/151 26/199/151 120/200/151
f 119/193/152 160/197/152 120/200/152 42/194/152
f 42/194/153 120/200/153 161/201/153 121/202/153
f 120/200/154 26/199/154 70/203/154 161/201/154
f 161/201/155 70/203/155 10/37/155 81/35/155
f 121/202/156 161/201/156 81/35/156 32/30/156
f 17/196/157 122/195/157 162/204/157 51/205/157
f 122/195/158 42/194/158 121/202/158 162/204/158
f 162/204/159 121/202/159 32/30/159 82/27/159
f 51/205/160 162/204/160 82/27/160 9/26/160
