# Blender 5.2.2 LTS
# www.blender.org
o wall_small_3
v -0.951423 3.790270 9.560249
v -2.496338 -4.151098 8.816502
v -1.181940 5.095236 -11.397105
v -2.358115 -4.013466 -10.389206
v 3.144873 3.123358 9.287418
v 0.362535 -4.889503 8.676888
v 2.752662 4.126136 -10.547623
v 1.597107 -4.214944 -10.040265
v -1.977797 0.144783 9.466553
v -2.354474 0.588233 -12.624254
v 2.592313 -0.189180 -10.860570
v 2.141843 -0.655773 8.932496
v -1.494052 4.731388 -3.702535
v -1.419879 4.304633 3.810287
v -2.783448 -4.469778 3.311652
v -3.002549 -4.744974 -3.545450
v 3.277704 3.476268 3.445914
v 3.098067 3.910065 -3.908734
v 1.295559 -5.474746 -3.458633
v 1.274739 -5.811499 3.043308
v 2.987538 -0.421195 -3.690541
v 3.660853 -0.634226 2.484982
v -2.637744 0.425879 3.582675
v -3.007541 0.601677 -3.607564
v -1.289450 4.080728 7.470222
v -2.357666 -2.274888 8.985115
v -2.886984 -4.504537 -7.181705
v -1.929035 3.248848 -12.395073
v 0.853420 4.715517 -11.076917
v -0.396381 -4.256170 -10.355191
v 2.792723 2.335127 -10.340291
v 3.095552 4.167925 -7.803295
v 0.850558 -5.412101 6.251300
v 3.005502 1.720025 9.412165
v 1.165543 3.628313 9.808259
v -1.170768 -4.733667 8.867351
v -1.522501 2.505134 9.794258
v -2.490970 -1.932467 -11.170978
v 2.352586 -2.491564 -11.130126
v 1.225832 -3.108609 9.062656
v 0.009224 -0.282203 9.913201
v 3.453517 -0.913871 6.879819
v 0.204671 0.212564 -12.968596
v -3.196976 0.671219 -7.987768
v -1.538412 5.356101 -7.924804
v -1.469990 4.516058 0.063762
v -2.945177 -4.693704 6.695676
v -2.879610 -4.600072 -0.048490
v 3.392943 3.294888 7.130617
v 3.157905 3.684338 -0.230318
v 1.699111 -5.262053 -6.913261
v 1.290461 -5.748907 -0.375369
v 2.981330 -0.312980 -6.744164
v 3.314378 -0.505729 -0.708883
v -2.554113 0.327854 7.023180
v -2.705488 0.516092 -0.023058
v -2.278683 2.812695 3.731695
v -2.410324 3.063672 -3.659329
v 3.441824 2.003195 -3.825798
v 3.856169 1.756070 2.922415
v -0.901254 -5.421214 -3.431630
v -1.039461 -5.914396 3.067657
v 0.869045 4.779979 -3.842840
v 0.949029 4.297046 3.695801
v 2.695227 -3.259300 -3.593623
v 2.989736 -3.606683 2.799049
v -2.913721 -2.074116 3.460255
v -3.303478 -2.068568 -3.539854
v -3.430174 -2.052511 -7.623901
v -0.079111 -2.119092 -12.798597
v 2.393644 -3.498852 6.761461
v -0.671675 -2.645745 9.272416
v 1.109150 4.008630 7.575637
v -1.248599 -5.966011 6.369359
v 0.727677 2.126549 10.340853
v 3.746729 1.663855 6.558454
v 0.560949 2.757736 -12.992620
v -2.724795 3.376327 -8.023691
v -2.168292 2.681897 7.305071
v -2.347205 2.939250 0.042029
v 3.411043 2.142827 -7.332622
v 3.655518 1.876833 -0.468528
v -0.656123 -4.916240 -6.589502
v -0.920695 -5.421572 -0.135973
v 0.899567 5.037716 -7.893535
v 0.879327 4.532590 -0.073602
v 2.922646 -2.917148 -6.892001
v 2.767920 -3.328532 -0.807382
v -2.856681 -2.141994 6.709885
v -2.960538 -2.003132 -0.036786
vn -0.9942 0.1006 0.0381
vn -0.9867 -0.1627 -0.0040
vn -0.9529 -0.2030 -0.2255
vn -0.9771 -0.0048 -0.2128
vn -0.3813 -0.2634 -0.8861
vn -0.3310 -0.5640 -0.7565
vn 0.2522 -0.6905 -0.6779
vn 0.6108 -0.0520 -0.7901
vn 0.9521 -0.2935 0.0855
vn 0.7701 -0.6192 0.1534
vn 0.7359 -0.5686 0.3676
vn 0.8041 -0.3142 0.5047
vn 0.2437 -0.1818 0.9527
vn 0.0729 -0.2243 0.9718
vn -0.1477 -0.1183 0.9819
vn -0.2291 -0.1739 0.9577
vn 0.0168 0.9976 0.0671
vn 0.3217 0.9457 0.0470
vn 0.3000 0.9448 0.1319
vn 0.0395 0.9879 0.1497
vn 0.1490 -0.9866 0.0672
vn -0.6251 -0.7776 -0.0667
vn -0.4630 -0.8084 0.3635
vn 0.1310 -0.9303 0.3425
vn 0.3460 0.1411 0.9275
vn 0.3387 -0.2822 0.8976
vn -0.2439 -0.0929 0.9653
vn -0.1334 0.3075 0.9422
vn 0.9641 0.2652 0.0091
vn 0.9945 -0.0986 0.0347
vn 0.8945 -0.2213 0.3884
vn 0.9801 0.0406 0.1944
vn 0.0655 0.5954 -0.8007
vn -0.1723 0.0646 -0.9829
vn 0.7167 -0.0104 -0.6973
vn 0.6276 0.2874 -0.7235
vn -0.8634 0.4964 0.0903
vn -0.9769 0.2033 0.0652
vn -0.9691 0.1686 -0.1802
vn -0.8643 0.4799 -0.1507
vn -0.8535 0.4670 0.2310
vn -0.9588 0.1390 0.2477
vn -0.9878 0.1523 0.0323
vn -0.8578 0.5111 0.0536
vn -0.8703 0.4912 0.0362
vn -0.9890 0.1465 0.0228
vn -0.9800 0.1915 0.0546
vn -0.8746 0.4837 0.0322
vn 0.9846 0.0628 -0.1629
vn 0.9814 -0.1262 -0.1444
vn 0.9836 -0.1800 -0.0123
vn 0.9861 0.1660 0.0045
vn 0.9747 0.2219 -0.0268
vn 0.9830 -0.1607 -0.0892
vn 0.9913 -0.0992 -0.0861
vn 0.9543 0.2974 -0.0294
vn -0.0683 -0.9680 -0.2413
vn -0.1262 -0.9764 -0.1755
vn -0.2237 -0.9675 -0.1180
vn -0.0957 -0.9885 -0.1167
vn -0.0886 -0.9951 -0.0432
vn -0.3461 -0.9379 0.0252
vn -0.5245 -0.8500 -0.0488
vn -0.0543 -0.9949 -0.0845
vn 0.1598 0.9840 -0.0788
vn 0.3453 0.9351 -0.0801
vn 0.3649 0.9290 0.0616
vn 0.0582 0.9927 0.1058
vn -0.0102 0.9981 0.0613
vn 0.3580 0.9320 0.0558
vn 0.3439 0.9378 0.0471
vn 0.0013 0.9982 0.0593
vn 0.9918 -0.0504 -0.1172
vn 0.8672 -0.4672 -0.1725
vn 0.8666 -0.4975 0.0401
vn 0.9975 -0.0646 0.0302
vn 0.9866 -0.1462 -0.0722
vn 0.8467 -0.5305 -0.0408
vn 0.8183 -0.5724 -0.0518
vn 0.9736 -0.2080 -0.0938
vn -0.9688 0.0983 0.2274
vn -0.9775 0.0416 0.2069
vn -0.9998 -0.0079 -0.0161
vn -0.9933 0.1135 0.0237
vn -0.9943 0.1047 0.0184
vn -0.9989 -0.0429 0.0212
vn -0.9950 -0.0723 0.0684
vn -0.9902 0.1061 0.0904
vt 0.500000 0.166667
vt 0.562500 0.166667
vt 0.562500 0.209807
vt 0.500000 0.210102
vt 0.625000 0.166667
vt 0.625000 0.208333
vt 0.625000 0.250000
vt 0.562500 0.269783
vt 0.500000 0.270962
vt 0.562500 0.375000
vt 0.500000 0.375000
vt 0.625000 0.375000
vt 0.625000 0.500000
vt 0.562721 0.480217
vt 0.500000 0.479038
vt 0.500000 0.666667
vt 0.563826 0.666667
vt 0.563605 0.709807
vt 0.500000 0.710102
vt 0.640722 0.666667
vt 0.639838 0.708628
vt 0.625000 0.750000
vt 0.562721 0.769783
vt 0.500000 0.770962
vt 0.562500 0.876474
vt 0.500000 0.876768
vt 0.625000 0.875000
vt 0.625000 1.000000
vt 0.562500 1.000000
vt 0.500000 1.000000
vt 0.125000 0.666667
vt 0.248674 0.666667
vt 0.248895 0.708333
vt 0.125000 0.708333
vt 0.359278 0.666667
vt 0.360162 0.708628
vt 0.375000 0.750000
vt 0.250000 0.750000
vt 0.125000 0.750000
vt 0.751326 0.666667
vt 0.751105 0.708333
vt 0.875000 0.666667
vt 0.875000 0.708333
vt 0.875000 0.750000
vt 0.750000 0.750000
vt 0.437279 0.769783
vt 0.437500 0.876474
vt 0.375000 0.875000
vt 0.437500 1.000000
vt 0.375000 1.000000
vt 0.436174 0.666667
vt 0.436395 0.709807
vt 0.375000 0.250000
vt 0.437500 0.269783
vt 0.437500 0.375000
vt 0.375000 0.375000
vt 0.437279 0.480217
vt 0.375000 0.500000
vt 0.375000 0.166667
vt 0.437500 0.166667
vt 0.437500 0.209807
vt 0.375000 0.208333
vt 0.375000 0.000000
vt 0.437500 0.000000
vt 0.437500 0.041667
vt 0.375000 0.041667
vt 0.500000 0.000000
vt 0.500000 0.041667
vt 0.500000 0.083333
vt 0.437500 0.083333
vt 0.375000 0.083333
vt 0.437500 0.125000
vt 0.375000 0.125000
vt 0.500000 0.125000
vt 0.436395 0.540193
vt 0.360162 0.541372
vt 0.500000 0.539898
vt 0.500000 0.583333
vt 0.436174 0.583333
vt 0.359278 0.583333
vt 0.436174 0.625000
vt 0.359278 0.625000
vt 0.500000 0.625000
vt 0.750000 0.500000
vt 0.751105 0.541667
vt 0.639838 0.541372
vt 0.875000 0.500000
vt 0.875000 0.541667
vt 0.875000 0.583333
vt 0.751326 0.583333
vt 0.640722 0.583333
vt 0.751326 0.625000
vt 0.640722 0.625000
vt 0.875000 0.625000
vt 0.125000 0.500000
vt 0.250000 0.500000
vt 0.248895 0.541667
vt 0.125000 0.541667
vt 0.248674 0.583333
vt 0.125000 0.583333
vt 0.248674 0.625000
vt 0.125000 0.625000
vt 0.563605 0.540193
vt 0.563826 0.583333
vt 0.563826 0.625000
vt 0.562500 0.000000
vt 0.562500 0.041667
vt 0.625000 0.000000
vt 0.625000 0.041667
vt 0.625000 0.083333
vt 0.562500 0.083333
vt 0.562500 0.125000
vt 0.625000 0.125000
s 0
f 24/1/1 44/4/1 69/3/1 68/2/1
f 68/2/2 69/3/2 27/6/2 16/5/2
f 69/3/3 38/8/3 4/7/3 27/6/3
f 44/4/4 10/9/4 38/8/4 69/3/4
f 10/9/5 43/11/5 70/10/5 38/8/5
f 38/8/6 70/10/6 30/12/6 4/7/6
f 70/10/7 39/14/7 8/13/7 30/12/7
f 43/11/8 11/15/8 39/14/8 70/10/8
f 22/16/9 42/19/9 71/18/9 66/17/9
f 66/17/10 71/18/10 33/21/10 20/20/10
f 71/18/11 40/23/11 6/22/11 33/21/11
f 42/19/12 12/24/12 40/23/12 71/18/12
f 12/24/13 41/26/13 72/25/13 40/23/13
f 40/23/14 72/25/14 36/27/14 6/22/14
f 72/25/15 26/29/15 2/28/15 36/27/15
f 41/26/16 9/30/16 26/29/16 72/25/16
f 14/31/17 25/34/17 73/33/17 64/32/17
f 64/32/18 73/33/18 49/36/18 17/35/18
f 73/33/19 35/38/19 5/37/19 49/36/19
f 25/34/20 1/39/20 35/38/20 73/33/20
f 20/20/21 33/21/21 74/41/21 62/40/21
f 62/40/22 74/41/22 47/43/22 15/42/22
f 74/41/23 36/45/23 2/44/23 47/43/23
f 33/21/24 6/22/24 36/45/24 74/41/24
f 5/37/25 35/48/25 75/47/25 34/46/25
f 34/46/26 75/47/26 41/26/26 12/24/26
f 75/47/27 37/49/27 9/30/27 41/26/27
f 35/48/28 1/50/28 37/49/28 75/47/28
f 17/35/29 49/36/29 76/52/29 60/51/29
f 60/51/30 76/52/30 42/19/30 22/16/30
f 76/52/31 34/46/31 12/24/31 42/19/31
f 49/36/32 5/37/32 34/46/32 76/52/32
f 3/53/33 29/56/33 77/55/33 28/54/33
f 28/54/34 77/55/34 43/11/34 10/9/34
f 77/55/35 31/57/35 11/15/35 43/11/35
f 29/56/36 7/58/36 31/57/36 77/55/36
f 13/59/37 45/62/37 78/61/37 58/60/37
f 58/60/38 78/61/38 44/4/38 24/1/38
f 78/61/39 28/54/39 10/9/39 44/4/39
f 45/62/40 3/53/40 28/54/40 78/61/40
f 1/63/41 25/66/41 79/65/41 37/64/41
f 37/64/42 79/65/42 55/68/42 9/67/42
f 79/65/43 57/70/43 23/69/43 55/68/43
f 25/66/44 14/71/44 57/70/44 79/65/44
f 14/71/45 46/73/45 80/72/45 57/70/45
f 57/70/46 80/72/46 56/74/46 23/69/46
f 80/72/47 58/60/47 24/1/47 56/74/47
f 46/73/48 13/59/48 58/60/48 80/72/48
f 7/58/49 32/76/49 81/75/49 31/57/49
f 31/57/50 81/75/50 53/77/50 11/15/50
f 81/75/51 59/79/51 21/78/51 53/77/51
f 32/76/52 18/80/52 59/79/52 81/75/52
f 18/80/53 50/82/53 82/81/53 59/79/53
f 59/79/54 82/81/54 54/83/54 21/78/54
f 82/81/55 60/51/55 22/16/55 54/83/55
f 50/82/56 17/35/56 60/51/56 82/81/56
f 8/13/57 51/86/57 83/85/57 30/84/57
f 30/84/58 83/85/58 27/88/58 4/87/58
f 83/85/59 61/90/59 16/89/59 27/88/59
f 51/86/60 19/91/60 61/90/60 83/85/60
f 19/91/61 52/93/61 84/92/61 61/90/61
f 61/90/62 84/92/62 48/94/62 16/89/62
f 84/92/63 62/40/63 15/42/63 48/94/63
f 52/93/64 20/20/64 62/40/64 84/92/64
f 3/95/65 45/98/65 85/97/65 29/96/65
f 29/96/66 85/97/66 32/76/66 7/58/66
f 85/97/67 63/99/67 18/80/67 32/76/67
f 45/98/68 13/100/68 63/99/68 85/97/68
f 13/100/69 46/102/69 86/101/69 63/99/69
f 63/99/70 86/101/70 50/82/70 18/80/70
f 86/101/71 64/32/71 17/35/71 50/82/71
f 46/102/72 14/31/72 64/32/72 86/101/72
f 11/15/73 53/77/73 87/103/73 39/14/73
f 39/14/74 87/103/74 51/86/74 8/13/74
f 87/103/75 65/104/75 19/91/75 51/86/75
f 53/77/76 21/78/76 65/104/76 87/103/76
f 21/78/77 54/83/77 88/105/77 65/104/77
f 65/104/78 88/105/78 52/93/78 19/91/78
f 88/105/79 66/17/79 20/20/79 52/93/79
f 54/83/80 22/16/80 66/17/80 88/105/80
f 9/67/81 55/68/81 89/107/81 26/106/81
f 26/106/82 89/107/82 47/109/82 2/108/82
f 89/107/83 67/111/83 15/110/83 47/109/83
f 55/68/84 23/69/84 67/111/84 89/107/84
f 23/69/85 56/74/85 90/112/85 67/111/85
f 67/111/86 90/112/86 48/113/86 15/110/86
f 90/112/87 68/2/87 16/5/87 48/113/87
f 56/74/88 24/1/88 68/2/88 90/112/88
