# Blender 5.2.2 LTS
# www.blender.org
o wall_small_1
v 2.022064 -4.075327 -11.234318
v 1.890993 2.994278 -9.968082
v 2.039308 -4.114631 11.601246
v 1.843833 3.968052 10.255298
v -1.874289 -3.862614 -10.923995
v -1.581771 3.520415 -9.918602
v -2.060399 -4.043947 11.326847
v -1.644977 3.770419 10.511173
v 2.414889 -4.401911 6.774080
v 2.449126 -4.526157 2.185233
v 2.449202 -4.490699 -2.273224
v 2.372078 -4.290716 -6.818748
v 2.123847 3.653421 -6.724363
v 1.985969 3.534639 -2.306715
v 1.901440 2.965260 2.560740
v 2.067947 3.830003 6.861497
v -2.358884 -4.358375 -6.773201
v -2.284623 -4.556158 -2.251861
v -2.285130 -4.556074 2.131798
v -2.367116 -4.370338 6.751929
v -2.155239 4.195080 6.497920
v -1.595932 3.527291 2.216165
v -1.589437 3.997778 -2.469700
v -1.516694 3.772305 -6.894106
v 2.247314 -0.470180 -10.841073
v 2.199091 -0.025699 11.597611
v -2.559418 -0.184797 12.155525
v -2.198520 -0.125772 -10.768355
v -3.203257 -0.032529 7.021682
v -2.769235 -0.161799 2.296579
v -2.722321 -0.112944 -2.251785
v -2.960062 -0.087904 -6.699508
v 2.794567 -0.221964 -6.743580
v 2.738867 -0.274499 -2.208091
v 2.716027 -0.621899 2.388228
v 2.834580 -0.227792 6.813324
v 2.332953 -4.282343 -9.392439
v 2.176461 1.531939 -10.430688
v 2.089431 4.097095 8.823984
v 2.279549 -2.382333 11.844688
v -0.012356 -4.262355 11.615416
v 0.265570 4.182374 10.509150
v -2.478039 -2.478441 11.691219
v -2.366815 -4.256258 9.422576
v -1.663212 3.733171 -8.690711
v -2.148823 -2.298400 -11.006979
v 0.064333 -4.186524 -11.378354
v 0.151279 3.437284 -10.076046
v 2.337847 -4.272862 9.396898
v 2.450722 -4.511686 4.419558
v 2.448799 -4.511452 -0.041655
v 2.419736 -4.405523 -4.504340
v 2.128388 3.368803 -8.625569
v 2.071679 3.700471 -4.565888
v 1.960066 3.278471 0.227054
v 1.959228 3.292560 4.749572
v -2.258271 -4.166826 -9.244424
v -2.315519 -4.477931 -4.468214
v -2.281066 -4.558849 -0.063384
v -2.311995 -4.464028 4.334587
v -2.446174 4.153623 8.748878
v -1.684241 3.724448 4.418802
v -1.610324 3.803387 -0.066768
v -1.496854 3.795008 -4.793515
v 0.294426 4.387804 6.785306
v 0.192772 3.682235 2.407070
v 0.281176 4.208333 -2.355894
v 0.345811 4.198928 -6.845156
v 0.093155 -4.928123 6.720822
v 0.138727 -5.059914 2.069764
v 0.131542 -5.058313 -2.336881
v 0.010107 -4.750790 -6.845624
v -3.162981 -2.358663 6.914646
v -2.851891 -2.845118 2.457684
v -2.812587 -2.835262 -1.991629
v -2.872463 -2.729839 -6.496673
v 2.885789 -2.457625 -6.782133
v 2.900778 -2.571113 -2.229284
v 2.887990 -2.751548 2.283445
v 2.926276 -2.524356 6.798986
v 2.278650 -2.568129 -11.221062
v 2.085507 2.270365 10.722810
v -2.073432 2.090832 11.408685
v -1.971582 2.048374 -10.359998
v -2.870703 2.287335 6.798686
v -2.465606 1.986513 2.150213
v -2.379071 2.101199 -2.437808
v -2.339732 2.044460 -6.840084
v 2.653136 1.917379 -6.713384
v 2.545542 1.824664 -2.251107
v 2.491331 1.315792 2.505188
v 2.619385 1.916550 6.899161
v 2.758247 -0.462626 4.606518
v 2.715126 -0.476858 0.094417
v 2.765354 -0.203797 -4.476333
v 2.792033 -0.367463 -9.012652
v -2.923713 -0.102752 -4.459147
v -2.713787 -0.142743 0.003030
v -2.992999 -0.069899 4.632556
v -3.205369 -0.121806 9.496760
v 0.055686 -0.316414 -11.245550
v -2.913268 -0.076064 -8.945102
v -0.160595 -0.126724 12.221630
v 2.790864 -0.097703 9.171844
v 2.606433 2.152440 8.987282
v 0.038445 2.197613 12.087523
v -2.430748 2.093040 -8.833554
v 0.094665 1.775657 -10.773244
v 0.024195 -4.670453 -9.394847
v 0.255848 3.959092 -8.643757
v 0.236171 4.671526 8.570789
v 0.239914 3.898610 4.624671
v 0.225790 3.797444 0.035614
v 0.329667 4.256606 -4.689847
v 0.017147 -4.706707 9.426153
v 0.141402 -5.059058 4.317516
v 0.135086 -5.059388 -0.133971
v 0.083741 -4.938569 -4.546403
v -2.859210 2.257751 9.449896
v -2.575733 2.050958 4.478384
v -2.367055 1.986126 -0.120277
v -2.368015 2.088855 -4.674225
v 2.674824 1.695766 -8.794986
v 2.595562 1.933333 -4.517174
v 2.486658 1.514532 0.121464
v 2.604575 1.599630 4.698690
v 2.892619 -2.674980 4.508244
v 2.892576 -2.675119 0.031570
v 2.893206 -2.491222 -4.479034
v 2.856923 -2.527194 -9.227874
v -2.851207 -2.791353 -4.216436
v -2.814590 -2.846004 0.222284
v -2.991528 -2.491178 4.506122
v -3.125806 -2.415967 9.471317
v 0.058693 -2.460066 -11.607374
v -2.827096 -2.352449 -9.130551
v -0.113647 -2.431579 12.204369
v 2.901347 -2.425903 9.367085
vn 0.9959 0.0907 0.0052
vn 0.9636 0.2650 -0.0349
vn 0.9442 0.2364 0.2294
vn 0.9603 0.1215 0.2512
vn 0.3978 0.1887 0.8979
vn 0.3785 0.4507 0.8085
vn -0.2073 0.5729 0.7930
vn -0.1668 0.2094 0.9635
vn -0.9686 0.2484 0.0136
vn -0.9033 0.4251 0.0577
vn -0.9023 0.3754 -0.2122
vn -0.9248 0.1905 -0.3295
vn -0.1758 0.2095 -0.9619
vn -0.1066 0.3529 -0.9296
vn 0.1720 0.3539 -0.9193
vn 0.1872 0.2084 -0.9600
vn 0.1788 -0.9837 -0.0179
vn -0.1915 -0.9798 -0.0574
vn -0.2188 -0.9484 -0.2294
vn 0.1205 -0.9754 -0.1847
vn -0.1681 0.9836 -0.0653
vn 0.2990 0.9438 -0.1407
vn 0.2705 0.9059 -0.3260
vn -0.0457 0.9630 -0.2655
vn -0.1814 0.9473 0.2640
vn 0.2200 0.9569 0.1897
vn 0.3064 0.9422 -0.1355
vn -0.1353 0.9883 -0.0710
vn -0.0561 0.9726 -0.2257
vn 0.3195 0.9185 -0.2329
vn 0.3660 0.9225 -0.1225
vn -0.0780 0.9926 -0.0936
vn -0.0477 0.9954 0.0835
vn 0.3283 0.9401 0.0920
vn 0.3165 0.9393 0.1324
vn -0.0619 0.9903 0.1240
vn -0.1766 0.9836 -0.0380
vn 0.3332 0.9413 0.0536
vn 0.2998 0.9538 -0.0184
vn -0.2333 0.9722 -0.0182
vn 0.1319 -0.9807 0.1443
vn -0.1579 -0.9733 0.1668
vn -0.2031 -0.9774 0.0581
vn 0.2017 -0.9769 0.0701
vn 0.2238 -0.9732 0.0532
vn -0.2278 -0.9729 0.0404
vn -0.2195 -0.9754 0.0192
vn 0.2277 -0.9737 0.0031
vn 0.2279 -0.9737 -0.0036
vn -0.2032 -0.9791 0.0005
vn -0.2032 -0.9791 -0.0005
vn 0.2343 -0.9721 -0.0050
vn 0.2309 -0.9717 -0.0489
vn -0.1972 -0.9795 -0.0403
vn -0.1776 -0.9822 -0.0610
vn 0.2073 -0.9758 -0.0694
vn -0.9293 0.2171 0.2989
vn -0.8299 0.3786 0.4099
vn -0.9610 0.2717 -0.0508
vn -0.9897 0.1432 0.0051
vn -0.9811 0.1560 -0.1143
vn -0.8985 0.3813 -0.2177
vn -0.8750 0.4796 -0.0660
vn -0.9841 0.1608 -0.0758
vn -0.9884 0.1482 -0.0327
vn -0.9001 0.4356 0.0097
vn -0.9230 0.3842 0.0235
vn -0.9875 0.1576 0.0094
vn -0.9782 0.2034 0.0418
vn -0.9081 0.4169 -0.0403
vn -0.8969 0.4421 -0.0087
vn -0.9649 0.2624 -0.0000
vn 0.9518 0.0894 -0.2935
vn 0.9126 0.2985 -0.2794
vn 0.9527 0.3021 -0.0321
vn 0.9981 0.0615 -0.0008
vn 0.9972 0.0726 0.0188
vn 0.9574 0.2882 0.0200
vn 0.9533 0.2984 0.0467
vn 0.9961 0.0858 0.0202
vn 0.9943 0.1026 0.0288
vn 0.9534 0.2974 0.0508
vn 0.9501 0.3087 0.0444
vn 0.9934 0.1143 0.0072
vn 0.9943 0.0964 -0.0447
vn 0.9337 0.3478 -0.0849
vn 0.9452 0.3140 -0.0893
vn 0.9956 0.0886 -0.0317
vn 0.9715 -0.2371 0.0035
vn 0.9974 0.0710 -0.0143
vn 0.9983 0.0508 -0.0288
vn 0.9684 -0.2490 0.0144
vn 0.9728 -0.2317 -0.0046
vn 0.9971 0.0751 0.0120
vn 0.9968 0.0803 0.0047
vn 0.9714 -0.2373 -0.0039
vn 0.9669 -0.2544 -0.0197
vn 0.9988 0.0483 0.0049
vn 0.9980 0.0631 0.0063
vn 0.9720 -0.2342 -0.0167
vn 0.9494 -0.2146 -0.2294
vn 0.9570 0.0613 -0.2835
vn 0.9993 0.0360 -0.0083
vn 0.9607 -0.2773 -0.0096
vn -0.9543 -0.2989 0.0067
vn -0.9985 0.0083 0.0542
vn -0.9995 -0.0290 0.0122
vn -0.9533 -0.3020 0.0015
vn -0.9525 -0.3045 -0.0086
vn -0.9993 0.0326 -0.0203
vn -0.9994 0.0354 0.0018
vn -0.9554 -0.2953 -0.0006
vn -0.9382 -0.3450 -0.0279
vn -0.9969 -0.0049 -0.0791
vn -0.9963 0.0153 -0.0841
vn -0.9474 -0.3200 -0.0035
vn -0.9126 -0.3424 0.2236
vn -0.9652 -0.0610 0.2544
vn -0.9996 -0.0261 0.0062
vn -0.9270 -0.3748 0.0107
vn -0.2574 -0.1129 -0.9597
vn -0.2229 0.1316 -0.9659
vn 0.1837 0.1708 -0.9680
vn 0.1256 -0.0758 -0.9892
vn -0.9542 -0.2932 -0.0600
vn -0.9991 -0.0354 -0.0217
vn -0.9358 0.0050 -0.3524
vn -0.9263 -0.2285 -0.2997
vn 0.0917 -0.2299 0.9689
vn 0.2008 0.0537 0.9782
vn -0.1177 -0.1067 0.9873
vn -0.1820 -0.2914 0.9391
vn 0.9603 -0.2771 0.0310
vn 0.9990 0.0441 0.0119
vn 0.9692 0.0620 0.2384
vn 0.9539 -0.2260 0.1973
vt 0.500000 0.200000
vt 0.562500 0.200000
vt 0.562500 0.226028
vt 0.500000 0.226234
vt 0.625000 0.200000
vt 0.625000 0.225000
vt 0.625000 0.250000
vt 0.562500 0.270780
vt 0.500000 0.271602
vt 0.562500 0.375000
vt 0.500000 0.375000
vt 0.625000 0.375000
vt 0.625000 0.500000
vt 0.562629 0.479221
vt 0.500000 0.478398
vt 0.500000 0.700000
vt 0.563271 0.700000
vt 0.563143 0.726028
vt 0.500000 0.726234
vt 0.638501 0.700000
vt 0.637987 0.725206
vt 0.625000 0.750000
vt 0.562629 0.770780
vt 0.500000 0.771602
vt 0.562500 0.876028
vt 0.500000 0.876234
vt 0.625000 0.875000
vt 0.625000 1.000000
vt 0.562500 1.000000
vt 0.500000 1.000000
vt 0.125000 0.700000
vt 0.249229 0.700000
vt 0.249357 0.725000
vt 0.125000 0.725000
vt 0.361499 0.700000
vt 0.362013 0.725206
vt 0.375000 0.750000
vt 0.250000 0.750000
vt 0.125000 0.750000
vt 0.750771 0.700000
vt 0.750643 0.725000
vt 0.875000 0.700000
vt 0.875000 0.725000
vt 0.875000 0.750000
vt 0.750000 0.750000
vt 0.750000 0.500000
vt 0.750643 0.525000
vt 0.637987 0.524794
vt 0.875000 0.500000
vt 0.875000 0.525000
vt 0.875000 0.550000
vt 0.750771 0.550000
vt 0.638501 0.550000
vt 0.750771 0.575000
vt 0.638501 0.575000
vt 0.875000 0.575000
vt 0.875000 0.600000
vt 0.750771 0.600000
vt 0.638501 0.600000
vt 0.750771 0.625000
vt 0.638501 0.625000
vt 0.875000 0.625000
vt 0.875000 0.650000
vt 0.750771 0.650000
vt 0.638501 0.650000
vt 0.750771 0.675000
vt 0.638501 0.675000
vt 0.875000 0.675000
vt 0.125000 0.500000
vt 0.250000 0.500000
vt 0.249357 0.525000
vt 0.125000 0.525000
vt 0.375000 0.500000
vt 0.362013 0.524794
vt 0.361499 0.550000
vt 0.249229 0.550000
vt 0.125000 0.550000
vt 0.249229 0.575000
vt 0.125000 0.575000
vt 0.361499 0.575000
vt 0.361499 0.600000
vt 0.249229 0.600000
vt 0.125000 0.600000
vt 0.249229 0.625000
vt 0.125000 0.625000
vt 0.361499 0.625000
vt 0.361499 0.650000
vt 0.249229 0.650000
vt 0.125000 0.650000
vt 0.249229 0.675000
vt 0.125000 0.675000
vt 0.361499 0.675000
vt 0.563143 0.523972
vt 0.500000 0.523766
vt 0.563271 0.550000
vt 0.500000 0.550000
vt 0.563271 0.575000
vt 0.500000 0.575000
vt 0.563271 0.600000
vt 0.500000 0.600000
vt 0.563271 0.625000
vt 0.500000 0.625000
vt 0.563271 0.650000
vt 0.500000 0.650000
vt 0.563271 0.675000
vt 0.500000 0.675000
vt 0.500000 0.000000
vt 0.562500 0.000000
vt 0.562500 0.025000
vt 0.500000 0.025000
vt 0.625000 0.000000
vt 0.625000 0.025000
vt 0.625000 0.050000
vt 0.562500 0.050000
vt 0.500000 0.050000
vt 0.562500 0.075000
vt 0.500000 0.075000
vt 0.625000 0.075000
vt 0.625000 0.100000
vt 0.562500 0.100000
vt 0.500000 0.100000
vt 0.562500 0.125000
vt 0.500000 0.125000
vt 0.625000 0.125000
vt 0.625000 0.150000
vt 0.562500 0.150000
vt 0.500000 0.150000
vt 0.562500 0.175000
vt 0.500000 0.175000
vt 0.625000 0.175000
vt 0.375000 0.150000
vt 0.437500 0.150000
vt 0.437500 0.175000
vt 0.375000 0.175000
vt 0.437500 0.200000
vt 0.375000 0.200000
vt 0.375000 0.100000
vt 0.437500 0.100000
vt 0.437500 0.125000
vt 0.375000 0.125000
vt 0.375000 0.050000
vt 0.437500 0.050000
vt 0.437500 0.075000
vt 0.375000 0.075000
vt 0.375000 0.000000
vt 0.437500 0.000000
vt 0.437500 0.025000
vt 0.375000 0.025000
vt 0.436729 0.650000
vt 0.436729 0.675000
vt 0.436729 0.700000
vt 0.436729 0.600000
vt 0.436729 0.625000
vt 0.436729 0.550000
vt 0.436729 0.575000
vt 0.437371 0.479221
vt 0.436857 0.523972
vt 0.437371 0.770780
vt 0.437500 0.876028
vt 0.375000 0.875000
vt 0.437500 1.000000
vt 0.375000 1.000000
vt 0.436857 0.726028
vt 0.375000 0.250000
vt 0.437500 0.270780
vt 0.437500 0.375000
vt 0.375000 0.375000
vt 0.437500 0.226028
vt 0.375000 0.225000
s 0
f 36/1/1 92/2/1 105/3/1 104/4/1
f 92/2/2 16/5/2 39/6/2 105/3/2
f 105/3/3 39/6/3 4/7/3 82/8/3
f 104/4/4 105/3/4 82/8/4 26/9/4
f 26/9/5 82/8/5 106/10/5 103/11/5
f 82/8/6 4/7/6 42/12/6 106/10/6
f 106/10/7 42/12/7 8/13/7 83/14/7
f 103/11/8 106/10/8 83/14/8 27/15/8
f 32/16/9 88/17/9 107/18/9 102/19/9
f 88/17/10 24/20/10 45/21/10 107/18/10
f 107/18/11 45/21/11 6/22/11 84/23/11
f 102/19/12 107/18/12 84/23/12 28/24/12
f 28/24/13 84/23/13 108/25/13 101/26/13
f 84/23/14 6/22/14 48/27/14 108/25/14
f 108/25/15 48/27/15 2/28/15 38/29/15
f 101/26/16 108/25/16 38/29/16 25/30/16
f 12/31/17 72/32/17 109/33/17 37/34/17
f 72/32/18 17/35/18 57/36/18 109/33/18
f 109/33/19 57/36/19 5/37/19 47/38/19
f 37/34/20 109/33/20 47/38/20 1/39/20
f 24/20/21 68/40/21 110/41/21 45/21/21
f 68/40/22 13/42/22 53/43/22 110/41/22
f 110/41/23 53/43/23 2/44/23 48/45/23
f 45/21/24 110/41/24 48/45/24 6/22/24
f 8/13/25 42/46/25 111/47/25 61/48/25
f 42/46/26 4/49/26 39/50/26 111/47/26
f 111/47/27 39/50/27 16/51/27 65/52/27
f 61/48/28 111/47/28 65/52/28 21/53/28
f 21/53/29 65/52/29 112/54/29 62/55/29
f 65/52/30 16/51/30 56/56/30 112/54/30
f 112/54/31 56/56/31 15/57/31 66/58/31
f 62/55/32 112/54/32 66/58/32 22/59/32
f 22/59/33 66/58/33 113/60/33 63/61/33
f 66/58/34 15/57/34 55/62/34 113/60/34
f 113/60/35 55/62/35 14/63/35 67/64/35
f 63/61/36 113/60/36 67/64/36 23/65/36
f 23/65/37 67/64/37 114/66/37 64/67/37
f 67/64/38 14/63/38 54/68/38 114/66/38
f 114/66/39 54/68/39 13/42/39 68/40/39
f 64/67/40 114/66/40 68/40/40 24/20/40
f 3/69/41 41/70/41 115/71/41 49/72/41
f 41/70/42 7/73/42 44/74/42 115/71/42
f 115/71/43 44/74/43 20/75/43 69/76/43
f 49/72/44 115/71/44 69/76/44 9/77/44
f 9/77/45 69/76/45 116/78/45 50/79/45
f 69/76/46 20/75/46 60/80/46 116/78/46
f 116/78/47 60/80/47 19/81/47 70/82/47
f 50/79/48 116/78/48 70/82/48 10/83/48
f 10/83/49 70/82/49 117/84/49 51/85/49
f 70/82/50 19/81/50 59/86/50 117/84/50
f 117/84/51 59/86/51 18/87/51 71/88/51
f 51/85/52 117/84/52 71/88/52 11/89/52
f 11/89/53 71/88/53 118/90/53 52/91/53
f 71/88/54 18/87/54 58/92/54 118/90/54
f 118/90/55 58/92/55 17/35/55 72/32/55
f 52/91/56 118/90/56 72/32/56 12/31/56
f 27/15/57 83/14/57 119/93/57 100/94/57
f 83/14/58 8/13/58 61/48/58 119/93/58
f 119/93/59 61/48/59 21/53/59 85/95/59
f 100/94/60 119/93/60 85/95/60 29/96/60
f 29/96/61 85/95/61 120/97/61 99/98/61
f 85/95/62 21/53/62 62/55/62 120/97/62
f 120/97/63 62/55/63 22/59/63 86/99/63
f 99/98/64 120/97/64 86/99/64 30/100/64
f 30/100/65 86/99/65 121/101/65 98/102/65
f 86/99/66 22/59/66 63/61/66 121/101/66
f 121/101/67 63/61/67 23/65/67 87/103/67
f 98/102/68 121/101/68 87/103/68 31/104/68
f 31/104/69 87/103/69 122/105/69 97/106/69
f 87/103/70 23/65/70 64/67/70 122/105/70
f 122/105/71 64/67/71 24/20/71 88/17/71
f 97/106/72 122/105/72 88/17/72 32/16/72
f 25/107/73 38/108/73 123/109/73 96/110/73
f 38/108/74 2/111/74 53/112/74 123/109/74
f 123/109/75 53/112/75 13/113/75 89/114/75
f 96/110/76 123/109/76 89/114/76 33/115/76
f 33/115/77 89/114/77 124/116/77 95/117/77
f 89/114/78 13/113/78 54/118/78 124/116/78
f 124/116/79 54/118/79 14/119/79 90/120/79
f 95/117/80 124/116/80 90/120/80 34/121/80
f 34/121/81 90/120/81 125/122/81 94/123/81
f 90/120/82 14/119/82 55/124/82 125/122/82
f 125/122/83 55/124/83 15/125/83 91/126/83
f 94/123/84 125/122/84 91/126/84 35/127/84
f 35/127/85 91/126/85 126/128/85 93/129/85
f 91/126/86 15/125/86 56/130/86 126/128/86
f 126/128/87 56/130/87 16/5/87 92/2/87
f 93/129/88 126/128/88 92/2/88 36/1/88
f 10/131/89 79/132/89 127/133/89 50/134/89
f 79/132/90 35/127/90 93/129/90 127/133/90
f 127/133/91 93/129/91 36/1/91 80/135/91
f 50/134/92 127/133/92 80/135/92 9/136/92
f 11/137/93 78/138/93 128/139/93 51/140/93
f 78/138/94 34/121/94 94/123/94 128/139/94
f 128/139/95 94/123/95 35/127/95 79/132/95
f 51/140/96 128/139/96 79/132/96 10/131/96
f 12/141/97 77/142/97 129/143/97 52/144/97
f 77/142/98 33/115/98 95/117/98 129/143/98
f 129/143/99 95/117/99 34/121/99 78/138/99
f 52/144/100 129/143/100 78/138/100 11/137/100
f 1/145/101 81/146/101 130/147/101 37/148/101
f 81/146/102 25/107/102 96/110/102 130/147/102
f 130/147/103 96/110/103 33/115/103 77/142/103
f 37/148/104 130/147/104 77/142/104 12/141/104
f 18/87/105 75/149/105 131/150/105 58/92/105
f 75/149/106 31/104/106 97/106/106 131/150/106
f 131/150/107 97/106/107 32/16/107 76/151/107
f 58/92/108 131/150/108 76/151/108 17/35/108
f 19/81/109 74/152/109 132/153/109 59/86/109
f 74/152/110 30/100/110 98/102/110 132/153/110
f 132/153/111 98/102/111 31/104/111 75/149/111
f 59/86/112 132/153/112 75/149/112 18/87/112
f 20/75/113 73/154/113 133/155/113 60/80/113
f 73/154/114 29/96/114 99/98/114 133/155/114
f 133/155/115 99/98/115 30/100/115 74/152/115
f 60/80/116 133/155/116 74/152/116 19/81/116
f 7/73/117 43/156/117 134/157/117 44/74/117
f 43/156/118 27/15/118 100/94/118 134/157/118
f 134/157/119 100/94/119 29/96/119 73/154/119
f 44/74/120 134/157/120 73/154/120 20/75/120
f 5/37/121 46/158/121 135/159/121 47/160/121
f 46/158/122 28/24/122 101/26/122 135/159/122
f 135/159/123 101/26/123 25/30/123 81/161/123
f 47/160/124 135/159/124 81/161/124 1/162/124
f 17/35/125 76/151/125 136/163/125 57/36/125
f 76/151/126 32/16/126 102/19/126 136/163/126
f 136/163/127 102/19/127 28/24/127 46/158/127
f 57/36/128 136/163/128 46/158/128 5/37/128
f 3/164/129 40/165/129 137/166/129 41/167/129
f 40/165/130 26/9/130 103/11/130 137/166/130
f 137/166/131 103/11/131 27/15/131 43/156/131
f 41/167/132 137/166/132 43/156/132 7/73/132
f 9/136/133 80/135/133 138/168/133 49/169/133
f 80/135/134 36/1/134 104/4/134 138/168/134
f 138/168/135 104/4/135 26/9/135 40/165/135
f 49/169/136 138/168/136 40/165/136 3/164/136
