# Blender 5.2.2 LTS
# www.blender.org
o Plane.006
v 53.052876 2.403103 -52.393230
v -51.243774 0.000000 -51.243774
v 49.985245 0.570504 52.793171
v -51.649368 0.692443 51.666298
v 49.840794 0.486064 43.701115
v 50.074833 0.552141 34.264175
v 50.635395 0.846014 24.515680
v 51.394062 1.462888 14.564449
v 52.248814 2.218996 4.498853
v 53.070000 2.901312 -5.561220
v 53.687450 3.387955 -15.451238
v 53.931839 3.570516 -25.000492
v 53.811581 3.410748 -34.241161
v 53.496132 2.991789 -43.357796
v -51.243774 0.000000 -41.926723
v -51.243774 0.000000 -32.609673
v -51.243774 0.000000 -23.292624
v -51.243813 -0.000006 -13.975525
v -51.324142 -0.011432 -4.555836
v -51.498009 -0.029494 4.982511
v -51.679176 0.094471 14.511929
v -51.807049 0.326327 23.960463
v -51.846836 0.554507 33.298508
v -51.788818 0.692104 42.524929
v 43.653984 2.294326 -52.341221
v 34.123653 2.031016 -52.159676
v 24.549065 1.832694 -51.872997
v 14.890705 1.461223 -51.620453
v 5.166153 0.832911 -51.409210
v -4.506675 0.217658 -51.303493
v -13.971312 0.005616 -51.246475
v -23.292625 0.000000 -51.243774
v -32.609673 0.000000 -51.243774
v -41.926723 0.000000 -51.243774
v -42.935070 0.992224 52.387238
v -34.353893 1.161279 53.292545
v -25.805428 1.167921 54.261616
v -17.239292 1.222488 55.215748
v -8.530338 1.338210 55.992611
v 0.447656 1.487488 56.430119
v 9.778723 1.622803 56.420467
v 19.485178 1.672752 55.934555
v 29.524733 1.528755 55.031483
v 39.748302 1.100286 53.916828
v -41.926723 0.000000 -41.926723
v -32.609673 0.000000 -41.926723
v -23.292624 0.000000 -41.926723
v -13.938498 0.056304 -41.934994
v -4.265755 0.829974 -42.029118
v 5.607370 1.996765 -42.295490
v 15.450102 2.887680 -42.600925
v 25.132568 3.188086 -42.843697
v 34.649021 3.029620 -43.045925
v 44.088890 2.883221 -43.275486
v -41.926723 0.000000 -32.609673
v -32.609673 0.000000 -32.609673
v -23.302198 -0.001362 -32.597443
v -13.928524 0.246342 -32.563034
v -4.141366 1.521475 -32.730473
v 5.866089 3.120664 -33.093266
v 15.828817 4.238925 -33.505993
v 25.565090 4.446159 -33.808041
v 35.072319 3.988618 -34.003868
v 44.438347 3.455557 -34.142830
v -41.926765 -0.000006 -23.292576
v -32.690044 -0.011432 -23.189936
v -23.547194 -0.036212 -22.967361
v -14.282585 0.273717 -22.819799
v -4.525144 1.705803 -22.943886
v 5.528416 3.510518 -23.289722
v 15.582088 4.782397 -23.756081
v 25.387184 4.903707 -24.188011
v 34.988605 4.304860 -24.553782
v 44.488041 3.665822 -24.845516
v -42.046535 -0.017043 -13.822492
v -33.010723 -0.057048 -13.463152
v -24.038128 -0.106045 -13.023041
v -14.965590 0.018467 -12.708983
v -5.392629 1.158958 -12.730463
v 4.551916 2.745960 -12.988484
v 14.588904 3.903470 -13.443746
v 24.495100 4.115820 -14.010623
v 34.268867 3.696943 -14.575103
v 43.998051 3.305795 -15.061292
v -42.327770 -0.057048 -4.146103
v -33.475403 -0.123147 -3.552378
v -24.661837 -0.192279 -2.909394
v -15.782749 -0.247011 -2.345710
v -6.526725 0.219022 -2.227428
v 3.177411 1.237046 -2.414277
v 13.117576 2.115348 -2.860914
v 23.114147 2.474842 -3.497758
v 33.114296 2.486082 -4.199484
v 43.148827 2.650223 -4.880000
v -42.668480 -0.030820 5.596738
v -33.970898 -0.031987 6.377141
v -25.297289 -0.072562 7.192765
v -16.543556 -0.169463 7.914658
v -7.569893 -0.246270 8.391909
v 1.831327 -0.019239 8.345584
v 11.627026 0.494783 7.923491
v 21.681252 0.971197 7.245319
v 31.905092 1.454247 6.399667
v 42.162594 1.937100 5.388289
v -42.974129 0.208464 15.268238
v -34.397511 0.286115 16.190945
v -25.838371 0.276706 17.146772
v -17.186428 0.153799 18.000195
v -8.342628 -0.039164 18.622337
v 0.825325 -0.071388 18.872135
v 10.452437 0.140613 18.612280
v 20.494661 0.558376 17.864353
v 30.802622 0.938048 16.798449
v 41.174114 1.224868 15.624483
v -43.179844 0.539343 24.802181
v -34.681149 0.683881 25.814499
v -26.199339 0.697560 26.864786
v -17.628283 0.569880 27.821966
v -8.897346 0.488554 28.581575
v 0.127038 0.444505 28.972107
v 9.598916 0.467377 28.828743
v 19.556448 0.636559 28.123686
v 29.856455 0.833845 27.010311
v 40.290028 0.875018 25.730471
v -43.244598 0.837847 34.162701
v -34.772030 1.027145 35.202221
v -26.317972 1.048589 36.286465
v -17.808136 1.000706 37.316650
v -9.148559 1.010543 38.162582
v -0.182242 1.036318 38.624722
v 9.218177 1.033635 38.539742
v 19.051369 1.002160 37.917988
v 29.273811 0.999886 36.837559
v 39.688869 0.819074 35.540348
v -43.156609 1.005605 43.347523
v -34.655163 1.205305 44.349335
v -26.177711 1.228598 45.404663
v -17.671482 1.247030 46.436497
v -9.013651 1.316186 47.282001
v -0.056603 1.409499 47.751797
v 9.304551 1.477368 47.711620
v 19.074532 1.454828 47.153675
v 29.184723 1.307794 46.162472
v 39.502712 0.935730 44.938728
vn -0.0355 0.9994 0.0014
vn -0.0000 1.0000 -0.0000
vn 0.0009 1.0000 0.0009
vn 0.0034 1.0000 0.0028
vn 0.0027 1.0000 -0.0004
vn -0.0049 0.9998 -0.0190
vn -0.0161 0.9994 -0.0299
vn -0.0260 0.9993 -0.0283
vn -0.0330 0.9993 -0.0163
vn 0.0343 0.9994 -0.0019
vn 0.0239 0.9995 -0.0223
vn 0.0032 0.9992 -0.0409
vn -0.0002 0.9988 -0.0486
vn -0.0038 0.9990 -0.0446
vn -0.0047 0.9993 -0.0371
vn -0.0016 0.9995 -0.0302
vn 0.0046 0.9997 -0.0234
vn -0.0002 0.9998 -0.0196
vn -0.0207 0.9996 -0.0186
vn 0.0165 0.9997 0.0189
vn 0.0060 1.0000 -0.0052
vn -0.0125 0.9995 -0.0278
vn -0.0102 0.9988 -0.0482
vn -0.0018 0.9982 -0.0598
vn 0.0037 0.9983 -0.0577
vn 0.0087 0.9987 -0.0497
vn 0.0150 0.9990 -0.0411
vn 0.0026 0.9993 -0.0369
vn -0.0155 0.9993 -0.0343
vn -0.0049 0.9988 0.0477
vn -0.0133 0.9997 0.0211
vn -0.0281 0.9996 -0.0013
vn -0.0310 0.9993 -0.0225
vn -0.0132 0.9990 -0.0424
vn 0.0060 0.9987 -0.0516
vn 0.0193 0.9987 -0.0467
vn 0.0190 0.9989 -0.0420
vn 0.0047 0.9991 -0.0421
vn -0.0087 0.9992 -0.0382
vn -0.0188 0.9973 0.0704
vn -0.0313 0.9979 0.0562
vn -0.0382 0.9985 0.0400
vn -0.0422 0.9986 0.0313
vn -0.0368 0.9992 0.0154
vn -0.0104 0.9999 -0.0084
vn 0.0167 0.9996 -0.0249
vn 0.0156 0.9993 -0.0326
vn 0.0063 0.9994 -0.0334
vn -0.0016 0.9996 -0.0287
vn -0.0213 0.9976 0.0666
vn -0.0250 0.9964 0.0807
vn -0.0154 0.9931 0.1161
vn -0.0321 0.9897 0.1393
vn -0.0644 0.9902 0.1237
vn -0.0640 0.9953 0.0730
vn -0.0219 0.9996 0.0167
vn 0.0093 0.9999 -0.0091
vn 0.0071 0.9999 -0.0101
vn 0.0043 1.0000 -0.0058
vn -0.0139 0.9983 0.0558
vn 0.0169 0.9956 0.0920
vn 0.0293 0.9899 0.1387
vn -0.0188 0.9873 0.1579
vn -0.0941 0.9855 0.1409
vn -0.1286 0.9867 0.0993
vn -0.0852 0.9951 0.0495
vn -0.0047 0.9998 0.0168
vn 0.0062 0.9999 0.0079
vn 0.0056 1.0000 0.0056
vn 0.0015 0.9996 0.0281
vn 0.0555 0.9971 0.0522
vn 0.0558 0.9957 0.0734
vn -0.0128 0.9967 0.0799
vn -0.1167 0.9908 0.0678
vn -0.1656 0.9850 0.0481
vn -0.1317 0.9909 0.0291
vn -0.0241 0.9996 0.0148
vn 0.0039 1.0000 0.0060
vn 0.0027 1.0000 0.0033
vn 0.0072 0.9998 -0.0200
vn 0.0614 0.9977 -0.0279
vn 0.0540 0.9978 -0.0397
vn -0.0187 0.9985 -0.0520
vn -0.1206 0.9914 -0.0509
vn -0.1684 0.9851 -0.0351
vn -0.1374 0.9904 -0.0159
vn -0.0299 0.9996 -0.0005
vn 0.0014 1.0000 0.0025
vn 0.0006 1.0000 0.0006
vn -0.0039 0.9985 -0.0541
vn 0.0343 0.9958 -0.0854
vn 0.0295 0.9920 -0.1231
vn -0.0298 0.9895 -0.1411
vn -0.1047 0.9860 -0.1297
vn -0.1401 0.9857 -0.0938
vn -0.1052 0.9934 -0.0461
vn -0.0162 0.9998 -0.0101
vn 0.0001 1.0000 0.0001
vn -0.0120 0.9979 -0.0643
vn -0.0080 0.9962 -0.0866
vn -0.0054 0.9917 -0.1283
vn -0.0382 0.9880 -0.1499
vn -0.0803 0.9874 -0.1366
vn -0.0922 0.9915 -0.0923
vn -0.0517 0.9981 -0.0348
vn -0.0033 1.0000 -0.0027
vn 0.0459 0.9988 -0.0148
vn 0.0363 0.9991 -0.0228
vn 0.0121 0.9996 -0.0254
vn -0.0025 0.9998 -0.0206
vn -0.0109 0.9999 -0.0122
vn -0.0133 0.9999 -0.0050
vn -0.0107 0.9999 0.0007
vn -0.0049 1.0000 0.0051
vn -0.0025 1.0000 0.0060
vn -0.0220 0.9998 0.0038
vt 0.909091 0.909091
vt 0.909091 1.000000
vt 1.000000 1.000000
vt 1.000000 0.909091
vt 0.909091 0.000000
vt 0.909091 0.090909
vt 1.000000 0.090909
vt 1.000000 0.000000
vt 0.909091 0.181818
vt 1.000000 0.181818
vt 0.909091 0.272727
vt 1.000000 0.272727
vt 0.909091 0.363636
vt 1.000000 0.363636
vt 0.909091 0.454545
vt 1.000000 0.454545
vt 0.909091 0.545455
vt 1.000000 0.545455
vt 0.909091 0.636364
vt 1.000000 0.636364
vt 0.909091 0.727273
vt 1.000000 0.727273
vt 0.909091 0.818182
vt 1.000000 0.818182
vt 0.000000 0.818182
vt 0.000000 0.909091
vt 0.090909 0.909091
vt 0.090909 0.818182
vt 0.181818 0.909091
vt 0.181818 0.818182
vt 0.272727 0.909091
vt 0.272727 0.818182
vt 0.363636 0.909091
vt 0.363636 0.818182
vt 0.454545 0.909091
vt 0.454545 0.818182
vt 0.545455 0.909091
vt 0.545455 0.818182
vt 0.636364 0.909091
vt 0.636364 0.818182
vt 0.727273 0.909091
vt 0.727273 0.818182
vt 0.818182 0.909091
vt 0.818182 0.818182
vt 0.000000 0.727273
vt 0.090909 0.727273
vt 0.181818 0.727273
vt 0.272727 0.727273
vt 0.363636 0.727273
vt 0.454545 0.727273
vt 0.545455 0.727273
vt 0.636364 0.727273
vt 0.727273 0.727273
vt 0.818182 0.727273
vt 0.000000 0.636364
vt 0.090909 0.636364
vt 0.181818 0.636364
vt 0.272727 0.636364
vt 0.363636 0.636364
vt 0.454545 0.636364
vt 0.545455 0.636364
vt 0.636364 0.636364
vt 0.727273 0.636364
vt 0.818182 0.636364
vt 0.000000 0.545455
vt 0.090909 0.545455
vt 0.181818 0.545455
vt 0.272727 0.545455
vt 0.363636 0.545455
vt 0.454545 0.545455
vt 0.545455 0.545455
vt 0.636364 0.545455
vt 0.727273 0.545455
vt 0.818182 0.545455
vt 0.000000 0.454545
vt 0.090909 0.454545
vt 0.181818 0.454545
vt 0.272727 0.454545
vt 0.363636 0.454545
vt 0.454545 0.454545
vt 0.545455 0.454545
vt 0.636364 0.454545
vt 0.727273 0.454545
vt 0.818182 0.454545
vt 0.000000 0.363636
vt 0.090909 0.363636
vt 0.181818 0.363636
vt 0.272727 0.363636
vt 0.363636 0.363636
vt 0.454545 0.363636
vt 0.545455 0.363636
vt 0.636364 0.363636
vt 0.727273 0.363636
vt 0.818182 0.363636
vt 0.000000 0.272727
vt 0.090909 0.272727
vt 0.181818 0.272727
vt 0.272727 0.272727
vt 0.363636 0.272727
vt 0.454545 0.272727
vt 0.545455 0.272727
vt 0.636364 0.272727
vt 0.727273 0.272727
vt 0.818182 0.272727
vt 0.000000 0.181818
vt 0.090909 0.181818
vt 0.181818 0.181818
vt 0.272727 0.181818
vt 0.363636 0.181818
vt 0.454545 0.181818
vt 0.545455 0.181818
vt 0.636364 0.181818
vt 0.727273 0.181818
vt 0.818182 0.181818
vt 0.000000 0.090909
vt 0.090909 0.090909
vt 0.181818 0.090909
vt 0.272727 0.090909
vt 0.363636 0.090909
vt 0.454545 0.090909
vt 0.545455 0.090909
vt 0.636364 0.090909
vt 0.727273 0.090909
vt 0.818182 0.090909
vt 0.000000 0.000000
vt 0.090909 0.000000
vt 0.181818 0.000000
vt 0.272727 0.000000
vt 0.363636 0.000000
vt 0.454545 0.000000
vt 0.545455 0.000000
vt 0.636364 0.000000
vt 0.727273 0.000000
vt 0.818182 0.000000
vt 0.000000 1.000000
vt 0.090909 1.000000
vt 0.181818 1.000000
vt 0.272727 1.000000
vt 0.363636 1.000000
vt 0.454545 1.000000
vt 0.545455 1.000000
vt 0.636364 1.000000
vt 0.727273 1.000000
vt 0.818182 1.000000
s 0
f 135/1/1 24/4/1 4/3/1 35/2/1
f 34/5/2 2/8/2 15/7/2 45/6/2
f 45/6/2 15/7/2 16/10/2 55/9/2
f 55/9/2 16/10/2 17/12/2 65/11/2
f 65/11/3 17/12/3 18/14/3 75/13/3
f 75/13/4 18/14/4 19/16/4 85/15/4
f 85/15/5 19/16/5 20/18/5 95/17/5
f 95/17/6 20/18/6 21/20/6 105/19/6
f 105/19/7 21/20/7 22/22/7 115/21/7
f 115/21/8 22/22/8 23/24/8 125/23/8
f 125/23/9 23/24/9 24/4/9 135/1/9
f 6/25/10 134/28/10 144/27/10 5/26/10
f 134/28/11 133/30/11 143/29/11 144/27/11
f 133/30/12 132/32/12 142/31/12 143/29/12
f 132/32/13 131/34/13 141/33/13 142/31/13
f 131/34/14 130/36/14 140/35/14 141/33/14
f 130/36/15 129/38/15 139/37/15 140/35/15
f 129/38/16 128/40/16 138/39/16 139/37/16
f 128/40/17 127/42/17 137/41/17 138/39/17
f 127/42/18 126/44/18 136/43/18 137/41/18
f 126/44/19 125/23/19 135/1/19 136/43/19
f 7/45/20 124/46/20 134/28/20 6/25/20
f 124/46/21 123/47/21 133/30/21 134/28/21
f 123/47/22 122/48/22 132/32/22 133/30/22
f 122/48/23 121/49/23 131/34/23 132/32/23
f 121/49/24 120/50/24 130/36/24 131/34/24
f 120/50/25 119/51/25 129/38/25 130/36/25
f 119/51/26 118/52/26 128/40/26 129/38/26
f 118/52/27 117/53/27 127/42/27 128/40/27
f 117/53/28 116/54/28 126/44/28 127/42/28
f 116/54/29 115/21/29 125/23/29 126/44/29
f 8/55/30 114/56/30 124/46/30 7/45/30
f 114/56/31 113/57/31 123/47/31 124/46/31
f 113/57/32 112/58/32 122/48/32 123/47/32
f 112/58/33 111/59/33 121/49/33 122/48/33
f 111/59/34 110/60/34 120/50/34 121/49/34
f 110/60/35 109/61/35 119/51/35 120/50/35
f 109/61/36 108/62/36 118/52/36 119/51/36
f 108/62/37 107/63/37 117/53/37 118/52/37
f 107/63/38 106/64/38 116/54/38 117/53/38
f 106/64/39 105/19/39 115/21/39 116/54/39
f 9/65/40 104/66/40 114/56/40 8/55/40
f 104/66/41 103/67/41 113/57/41 114/56/41
f 103/67/42 102/68/42 112/58/42 113/57/42
f 102/68/43 101/69/43 111/59/43 112/58/43
f 101/69/44 100/70/44 110/60/44 111/59/44
f 100/70/45 99/71/45 109/61/45 110/60/45
f 99/71/46 98/72/46 108/62/46 109/61/46
f 98/72/47 97/73/47 107/63/47 108/62/47
f 97/73/48 96/74/48 106/64/48 107/63/48
f 96/74/49 95/17/49 105/19/49 106/64/49
f 10/75/50 94/76/50 104/66/50 9/65/50
f 94/76/51 93/77/51 103/67/51 104/66/51
f 93/77/52 92/78/52 102/68/52 103/67/52
f 92/78/53 91/79/53 101/69/53 102/68/53
f 91/79/54 90/80/54 100/70/54 101/69/54
f 90/80/55 89/81/55 99/71/55 100/70/55
f 89/81/56 88/82/56 98/72/56 99/71/56
f 88/82/57 87/83/57 97/73/57 98/72/57
f 87/83/58 86/84/58 96/74/58 97/73/58
f 86/84/59 85/15/59 95/17/59 96/74/59
f 11/85/60 84/86/60 94/76/60 10/75/60
f 84/86/61 83/87/61 93/77/61 94/76/61
f 83/87/62 82/88/62 92/78/62 93/77/62
f 82/88/63 81/89/63 91/79/63 92/78/63
f 81/89/64 80/90/64 90/80/64 91/79/64
f 80/90/65 79/91/65 89/81/65 90/80/65
f 79/91/66 78/92/66 88/82/66 89/81/66
f 78/92/67 77/93/67 87/83/67 88/82/67
f 77/93/68 76/94/68 86/84/68 87/83/68
f 76/94/69 75/13/69 85/15/69 86/84/69
f 12/95/70 74/96/70 84/86/70 11/85/70
f 74/96/71 73/97/71 83/87/71 84/86/71
f 73/97/72 72/98/72 82/88/72 83/87/72
f 72/98/73 71/99/73 81/89/73 82/88/73
f 71/99/74 70/100/74 80/90/74 81/89/74
f 70/100/75 69/101/75 79/91/75 80/90/75
f 69/101/76 68/102/76 78/92/76 79/91/76
f 68/102/77 67/103/77 77/93/77 78/92/77
f 67/103/78 66/104/78 76/94/78 77/93/78
f 66/104/79 65/11/79 75/13/79 76/94/79
f 13/105/80 64/106/80 74/96/80 12/95/80
f 64/106/81 63/107/81 73/97/81 74/96/81
f 63/107/82 62/108/82 72/98/82 73/97/82
f 62/108/83 61/109/83 71/99/83 72/98/83
f 61/109/84 60/110/84 70/100/84 71/99/84
f 60/110/85 59/111/85 69/101/85 70/100/85
f 59/111/86 58/112/86 68/102/86 69/101/86
f 58/112/87 57/113/87 67/103/87 68/102/87
f 57/113/88 56/114/88 66/104/88 67/103/88
f 56/114/89 55/9/89 65/11/89 66/104/89
f 14/115/90 54/116/90 64/106/90 13/105/90
f 54/116/91 53/117/91 63/107/91 64/106/91
f 53/117/92 52/118/92 62/108/92 63/107/92
f 52/118/93 51/119/93 61/109/93 62/108/93
f 51/119/94 50/120/94 60/110/94 61/109/94
f 50/120/95 49/121/95 59/111/95 60/110/95
f 49/121/96 48/122/96 58/112/96 59/111/96
f 48/122/97 47/123/97 57/113/97 58/112/97
f 47/123/98 46/124/98 56/114/98 57/113/98
f 46/124/2 45/6/2 55/9/2 56/114/2
f 1/125/99 25/126/99 54/116/99 14/115/99
f 25/126/100 26/127/100 53/117/100 54/116/100
f 26/127/101 27/128/101 52/118/101 53/117/101
f 27/128/102 28/129/102 51/119/102 52/118/102
f 28/129/103 29/130/103 50/120/103 51/119/103
f 29/130/104 30/131/104 49/121/104 50/120/104
f 30/131/105 31/132/105 48/122/105 49/121/105
f 31/132/106 32/133/106 47/123/106 48/122/106
f 32/133/2 33/134/2 46/124/2 47/123/2
f 33/134/2 34/5/2 45/6/2 46/124/2
f 5/26/107 144/27/107 44/136/107 3/135/107
f 144/27/108 143/29/108 43/137/108 44/136/108
f 143/29/109 142/31/109 42/138/109 43/137/109
f 142/31/110 141/33/110 41/139/110 42/138/110
f 141/33/111 140/35/111 40/140/111 41/139/111
f 140/35/112 139/37/112 39/141/112 40/140/112
f 139/37/113 138/39/113 38/142/113 39/141/113
f 138/39/114 137/41/114 37/143/114 38/142/114
f 137/41/115 136/43/115 36/144/115 37/143/115
f 136/43/116 135/1/116 35/2/116 36/144/116
