# Blender 5.2.2 LTS
# www.blender.org
o rock_small_1
v -1.746534 -1.268133 0.280897
v -1.788233 0.941378 0.249427
v -0.124969 -1.281559 -1.974562
v -0.394845 0.749077 -1.951652
v 0.290972 -1.301591 1.723093
v 0.242952 0.845349 1.703164
v 1.920969 -1.268274 -0.511363
v 1.649960 0.732404 -0.532320
v -1.132302 -1.427245 -0.871542
v -2.144863 -0.106465 0.314829
v -1.193373 0.950112 -0.850825
v -0.215604 -0.161735 -2.394180
v 1.094922 -1.605061 -1.469107
v 0.470423 0.648238 -1.577020
v 2.328446 -0.158165 -0.596395
v 1.151539 -1.396485 0.747729
v 1.099725 0.943245 0.787274
v 0.488430 -0.582131 2.111505
v -0.910429 -1.565972 1.262648
v -0.950624 1.306662 1.263996
v -1.445033 -0.141307 -1.087403
v 1.323151 -0.460625 -1.895250
v 1.427772 -0.457785 0.975802
v -1.279376 -0.026913 1.730094
v 0.291629 -1.683830 -0.166363
v -0.083606 1.364508 0.070785
vn -0.7617 -0.6468 0.0384
vn -0.7644 0.6446 -0.0128
vn -0.2213 -0.6556 -0.7220
vn -0.2199 0.6745 -0.7047
vn 0.1849 -0.6975 0.6923
vn 0.2711 0.6047 0.7489
vn 0.7655 -0.6433 -0.0118
vn 0.6605 0.7361 -0.1479
vn -0.5605 -0.7343 -0.3830
vn -0.9982 0.0012 0.0592
vn -0.5246 0.7242 -0.4476
vn -0.1937 0.0715 -0.9785
vn 0.3615 -0.7972 -0.4836
vn 0.3330 0.7626 -0.5546
vn 0.9860 0.1272 -0.1081
vn 0.5431 -0.7503 0.3768
vn 0.5962 0.7292 0.3358
vn 0.3181 -0.0991 0.9429
vn -0.3678 -0.7875 0.4946
vn -0.3248 0.8023 0.5008
vn -0.8225 -0.0150 -0.5686
vn 0.5791 0.0395 -0.8143
vn 0.8228 -0.0255 0.5678
vn -0.5747 0.0310 0.8178
vn 0.0290 -0.9995 0.0117
vn 0.0812 0.9936 -0.0782
vt 0.375000 0.000000
vt 0.500000 0.000000
vt 0.500000 0.125000
vt 0.375000 0.125000
vt 0.625000 0.000000
vt 0.625000 0.125000
vt 0.625000 0.250000
vt 0.500000 0.250000
vt 0.375000 0.250000
vt 0.500000 0.375000
vt 0.375000 0.375000
vt 0.625000 0.375000
vt 0.625000 0.500000
vt 0.500000 0.500000
vt 0.375000 0.500000
vt 0.500000 0.625000
vt 0.375000 0.625000
vt 0.625000 0.625000
vt 0.625000 0.750000
vt 0.500000 0.750000
vt 0.375000 0.750000
vt 0.500000 0.875000
vt 0.375000 0.875000
vt 0.625000 0.875000
vt 0.625000 1.000000
vt 0.500000 1.000000
vt 0.375000 1.000000
vt 0.125000 0.500000
vt 0.250000 0.500000
vt 0.250000 0.625000
vt 0.125000 0.625000
vt 0.250000 0.750000
vt 0.125000 0.750000
vt 0.750000 0.500000
vt 0.750000 0.625000
vt 0.875000 0.500000
vt 0.875000 0.625000
vt 0.875000 0.750000
vt 0.750000 0.750000
s 1
f 1/1/1 10/2/10 21/3/21 9/4/9
f 10/2/10 2/5/2 11/6/11 21/3/21
f 21/3/21 11/6/11 4/7/4 12/8/12
f 9/4/9 21/3/21 12/8/12 3/9/3
f 3/9/3 12/8/12 22/10/22 13/11/13
f 12/8/12 4/7/4 14/12/14 22/10/22
f 22/10/22 14/12/14 8/13/8 15/14/15
f 13/11/13 22/10/22 15/14/15 7/15/7
f 7/15/7 15/14/15 23/16/23 16/17/16
f 15/14/15 8/13/8 17/18/17 23/16/23
f 23/16/23 17/18/17 6/19/6 18/20/18
f 16/17/16 23/16/23 18/20/18 5/21/5
f 5/21/5 18/20/18 24/22/24 19/23/19
f 18/20/18 6/19/6 20/24/20 24/22/24
f 24/22/24 20/24/20 2/25/2 10/26/10
f 19/23/19 24/22/24 10/26/10 1/27/1
f 3/28/3 13/29/13 25/30/25 9/31/9
f 13/29/13 7/15/7 16/17/16 25/30/25
f 25/30/25 16/17/16 5/21/5 19/32/19
f 9/31/9 25/30/25 19/32/19 1/33/1
f 8/13/8 14/34/14 26/35/26 17/18/17
f 14/34/14 4/36/4 11/37/11 26/35/26
f 26/35/26 11/37/11 2/38/2 20/39/20
f 17/18/17 26/35/26 20/39/20 6/19/6
