# Blender 5.2.2 LTS
# www.blender.org
o rock_small_3
v -0.069170 -0.850420 4.062756
v 0.250465 -0.687738 4.345160
v -1.037286 -0.785669 4.794378
v 0.745255 1.489621 5.950606
v 0.096033 2.034827 5.545456
v -1.050828 1.280878 5.371979
v -4.058837 -0.857598 -0.926152
v -4.959245 -0.726977 -0.248209
v -4.943410 -0.779483 -2.256663
v -4.072560 1.006995 -0.925423
v -4.966417 0.876166 -2.257923
v -4.965904 0.867327 -0.235374
v 4.009239 -0.934385 0.999485
v 4.247474 -0.493987 -0.455021
v 4.099968 -0.596307 1.422522
v 4.033583 1.541135 1.003429
v 4.835421 1.098454 2.067521
v 4.950340 1.070230 0.273226
v -0.250592 -0.815636 -3.459854
v -0.953905 -0.739741 -5.020520
v 0.603238 -0.657304 -4.008499
v -0.254156 1.060183 -3.456791
v 0.602435 0.912087 -4.010054
v -0.961464 0.917905 -5.022145
v -1.206795 -0.837209 -2.993470
v -2.090477 -0.857066 -2.487385
v -3.096785 -0.861620 -1.752978
v -4.177342 -0.786096 -3.102503
v -3.188572 -0.774979 -3.823984
v -2.195700 -0.758154 -4.453375
v -3.111484 1.016849 -1.719686
v -2.041249 1.057489 -2.400647
v -1.165806 1.074438 -2.936537
v -2.219222 0.899156 -4.458434
v -3.226966 0.882016 -3.832241
v -4.216078 0.871391 -3.109270
v 0.721981 -0.880501 3.532831
v 1.770956 -0.940965 2.759715
v 2.823153 -1.011596 1.712523
v 2.960563 -0.743139 2.107517
v 1.904768 -0.700950 3.134532
v 1.061533 -0.578543 3.866792
v 3.121569 2.032293 2.632271
v 2.286521 2.035736 3.806349
v 1.338704 2.039694 4.850523
v 1.950129 1.505767 5.204854
v 2.931779 1.434836 4.198613
v 3.814888 1.328598 3.071636
v -3.128522 -0.830919 0.418721
v -2.208055 -0.865170 1.783136
v -1.030433 -0.989661 3.230930
v -1.952613 -0.794862 3.810889
v -3.108596 -0.725662 2.465358
v -4.035297 -0.700701 1.097944
v -0.935563 2.007569 4.166999
v -2.076521 1.711437 2.490249
v -3.064344 1.272717 0.657483
v -4.040099 0.831561 0.973408
v -3.123226 0.980572 2.460169
v -1.999019 1.197751 4.053596
v 3.006132 -0.932491 -0.141405
v 1.829841 -0.837464 -1.031518
v 0.719562 -0.797431 -2.060100
v 1.531242 -0.614799 -2.567192
v 2.667091 -0.611553 -1.581293
v 3.881322 -0.660693 -0.756916
v 0.751735 1.291318 -2.039627
v 1.822408 1.350771 -1.035418
v 2.997789 1.437334 -0.140477
v 3.879043 1.008563 -0.794396
v 2.661165 0.940211 -1.613960
v 1.520104 0.909215 -2.595384
v 0.051621 1.368816 -1.440847
v 1.024304 1.469689 -0.298799
v 2.138029 1.935039 1.307612
v -0.717286 1.277625 -0.885772
v 0.343906 1.793210 1.172066
v 1.271823 1.994123 2.477021
v -1.873249 1.200238 -0.006523
v -0.831302 1.696361 1.873698
v 0.276476 2.026735 3.484981
v -2.049683 -0.836029 -0.395544
v -1.124102 -0.872812 0.966672
v -0.113200 -0.967604 2.394501
v -1.008042 -0.844331 -1.161296
v -0.043510 -0.891192 0.121603
v 0.932600 -0.994862 1.478851
v -0.138491 -0.836605 -1.645686
v 0.910846 -0.898793 -0.506245
v 1.983298 -1.009122 0.580358
v 0.690489 0.323227 5.657616
v -1.015896 0.264746 5.102031
v -4.992546 0.088345 -2.687320
v -4.963788 0.039903 -0.234999
v 0.664777 0.077152 -4.109929
v -0.670872 0.133730 -5.443766
v 4.630924 0.183028 1.918870
v 4.710855 0.209239 0.012471
v -4.224711 0.085921 -3.520989
v -3.235005 0.096772 -4.243615
v -2.045476 0.115126 -4.856599
v 3.681866 0.095538 2.905501
v 2.798970 0.157700 4.025560
v 1.803072 0.241321 4.947217
v 1.595208 0.079051 -2.748783
v 2.705946 0.106379 -1.723970
v 3.892537 0.125602 -0.852529
v -1.905108 0.166365 3.961305
v -3.124186 0.107030 2.500551
v -4.042657 0.052691 1.088760
vn 0.1842 -0.9273 0.3258
vn -0.3238 0.2849 0.9022
vn -0.1251 -0.9918 0.0249
vn -0.1512 0.9885 0.0044
vn 0.9443 -0.3242 0.0565
vn 0.4669 0.8842 0.0160
vn 0.1181 -0.9878 -0.1013
vn 0.0873 0.9878 -0.1292
vn -0.0465 -0.9905 0.1290
vn -0.2829 -0.2371 0.9294
vn -0.2493 0.9639 0.0933
vn -0.9995 -0.0321 0.0029
vn -0.0360 -0.9989 -0.0309
vn -0.0414 0.9960 -0.0788
vn 0.5891 -0.3620 -0.7225
vn 0.1511 -0.9853 -0.0799
vn 0.2365 0.9259 -0.2946
vn 0.8210 -0.5701 0.0300
vn 0.3682 -0.7930 0.4853
vn 0.3209 0.7665 0.5564
vn 0.0447 -0.9983 -0.0382
vn -0.8070 0.0427 0.5889
vn 0.5131 -0.2299 0.8270
vn -0.0126 0.9999 -0.0050
vn -0.3811 0.3372 -0.8608
vn 0.7132 0.0356 -0.7000
vn -0.6949 0.3509 -0.6276
vn -0.5450 0.3937 -0.7402
vn -0.4613 0.3678 -0.8074
vn 0.1657 0.9627 -0.2140
vn -0.0173 0.9991 -0.0392
vn -0.0014 0.9998 -0.0192
vn 0.6875 -0.2099 0.6952
vn 0.7694 -0.1649 0.6171
vn 0.6768 -0.1948 0.7099
vn 0.0502 -0.9964 0.0687
vn 0.0033 -0.9984 0.0559
vn -0.0126 -0.9995 0.0300
vn 0.5091 0.8491 0.1411
vn 0.5283 0.7701 0.3577
vn 0.4655 0.7847 0.4093
vn 0.2774 -0.8861 0.3713
vn 0.2819 -0.8437 0.4569
vn 0.3677 -0.8303 0.4189
vn -0.0587 0.9966 -0.0580
vn -0.0657 0.9960 -0.0600
vn -0.0620 0.9955 -0.0712
vn -0.0047 -0.9988 -0.0486
vn -0.0105 -0.9987 -0.0497
vn -0.0219 -0.9989 -0.0408
vn 0.0128 -0.9999 -0.0053
vn -0.0182 -0.9994 -0.0299
vn -0.0472 -0.9977 -0.0478
vn 0.0055 -0.9999 0.0099
vn -0.0237 -0.9996 -0.0147
vn -0.0505 -0.9981 -0.0351
vn 0.0070 -0.9999 0.0142
vn -0.0169 -0.9998 -0.0146
vn -0.0342 -0.9982 -0.0501
vn -0.0899 0.9945 -0.0530
vn -0.1776 0.9718 -0.1548
vn -0.1104 0.9885 -0.1030
vn -0.1138 0.9908 -0.0733
vn -0.0569 0.9865 -0.1539
vn -0.0640 0.9816 -0.1797
vn -0.0441 0.9885 -0.1446
vn 0.0347 0.9936 -0.1072
vn 0.0356 0.9685 -0.2463
vn 0.8228 0.1512 -0.5478
vn 0.6538 0.1640 -0.7386
vn 0.5700 0.0992 -0.8156
vn -0.0430 0.9934 -0.1061
vn -0.0731 0.9759 -0.2058
vn -0.0743 0.9877 -0.1374
vn -0.7858 -0.1554 0.5986
vn -0.7898 -0.0552 0.6109
vn -0.8454 0.0519 0.5316
vn 0.0270 -0.9995 -0.0132
vn 0.0207 -0.9975 -0.0676
vn 0.0025 -0.9943 -0.1061
vn 0.1786 0.9636 -0.1990
vn 0.2379 0.9215 -0.3069
vn 0.1937 0.9153 -0.3531
vn 0.2904 -0.9421 -0.1679
vn 0.1154 -0.9634 -0.2419
vn 0.1345 -0.9766 -0.1677
vn -0.5657 0.7289 0.3855
vn -0.5784 0.7661 0.2804
vn -0.4843 0.8660 0.1245
vn -0.0848 -0.9933 0.0780
vn -0.1089 -0.9927 0.0521
vn -0.1449 -0.9881 0.0525
vn -0.8328 -0.0211 0.5531
vn -0.7623 -0.0532 0.6450
vn -0.7535 -0.1213 0.6462
vn 0.5694 -0.1471 -0.8088
vn 0.6530 -0.2144 -0.7264
vn 0.8212 -0.1795 -0.5417
vn 0.3127 -0.8355 0.4518
vn 0.4161 -0.8091 0.4150
vn 0.4665 -0.7439 0.4786
vn -0.4578 -0.3568 -0.8143
vn -0.5406 -0.3879 -0.7465
vn -0.6935 -0.3467 -0.6315
vn 0.7062 -0.0486 -0.7064
vn -0.3790 -0.3173 -0.8693
vn 0.3071 -0.8229 0.4780
vn -0.8226 -0.0079 0.5686
vn 0.9661 -0.2532 0.0510
vn 0.5912 0.3611 -0.7211
vn -0.9999 0.0131 0.0067
vn 0.0044 -0.6185 0.7857
vt 0.162057 0.712943
vt 0.162057 0.750000
vt 0.125000 0.712943
vt 0.587943 0.000000
vt 0.625000 0.037057
vt 0.587943 0.037057
vt 0.162057 0.537057
vt 0.125000 0.537057
vt 0.162057 0.500000
vt 0.625000 0.237648
vt 0.587943 0.277792
vt 0.587943 0.212943
vt 0.337943 0.712943
vt 0.402792 0.712943
vt 0.375000 0.768528
vt 0.643528 0.750000
vt 0.587943 0.787057
vt 0.587943 0.722208
vt 0.337943 0.537057
vt 0.375000 0.481472
vt 0.402792 0.537057
vt 0.643528 0.500000
vt 0.587943 0.527792
vt 0.587943 0.462943
vt 0.162057 0.668972
vt 0.125000 0.668972
vt 0.500000 0.000000
vt 0.500000 0.037057
vt 0.625000 0.187500
vt 0.587943 0.168972
vt 0.500000 0.282425
vt 0.412057 0.287057
vt 0.412057 0.212943
vt 0.500000 0.212943
vt 0.206028 0.537057
vt 0.215292 0.495368
vt 0.638896 0.434412
vt 0.587943 0.416656
vt 0.495368 0.532425
vt 0.481472 0.472208
vt 0.337943 0.581028
vt 0.402792 0.581028
vt 0.643528 0.687500
vt 0.587943 0.673604
vt 0.481472 0.777792
vt 0.495368 0.717576
vt 0.293972 0.712943
vt 0.321764 0.763896
vt 0.629632 0.909708
vt 0.625000 0.962943
vt 0.587943 0.962943
vt 0.587943 0.918972
vt 0.293972 0.668972
vt 0.337943 0.668972
vt 0.500000 0.168972
vt 0.495368 0.916656
vt 0.500000 0.962943
vt 0.789340 0.673604
vt 0.837943 0.668972
vt 0.837943 0.712943
vt 0.789340 0.722208
vt 0.486104 0.424762
vt 0.495368 0.671288
vt 0.587943 0.324080
vt 0.495368 0.329870
vt 0.587943 0.370368
vt 0.490736 0.377316
vt 0.692132 0.682868
vt 0.692132 0.740736
vt 0.740736 0.678236
vt 0.740736 0.731472
vt 0.587943 0.831028
vt 0.486104 0.824080
vt 0.587943 0.875000
vt 0.490736 0.870368
vt 0.206028 0.668972
vt 0.206028 0.712943
vt 0.250000 0.668972
vt 0.250000 0.712943
vt 0.638896 0.803236
vt 0.634264 0.856472
vt 0.215292 0.754632
vt 0.268528 0.759264
vt 0.629632 0.303236
vt 0.634264 0.368824
vt 0.293972 0.537057
vt 0.321764 0.486104
vt 0.250000 0.537057
vt 0.268528 0.490736
vt 0.293972 0.581028
vt 0.250000 0.581028
vt 0.293972 0.625000
vt 0.250000 0.625000
vt 0.206028 0.581028
vt 0.206028 0.625000
vt 0.162057 0.581028
vt 0.162057 0.625000
vt 0.740736 0.518528
vt 0.789340 0.527792
vt 0.789340 0.576396
vt 0.740736 0.571764
vt 0.789340 0.625000
vt 0.740736 0.625000
vt 0.692132 0.509264
vt 0.692132 0.567132
vt 0.692132 0.625000
vt 0.643528 0.562500
vt 0.643528 0.625000
vt 0.587943 0.576396
vt 0.495368 0.578712
vt 0.587943 0.625000
vt 0.495368 0.625000
vt 0.837944 0.537057
vt 0.837943 0.581028
vt 0.837943 0.625000
vt 0.587943 0.081028
vt 0.500000 0.081028
vt 0.587943 0.125000
vt 0.500000 0.125000
vt 0.337943 0.625000
vt 0.402792 0.668972
vt 0.402792 0.625000
vt 0.625000 0.087204
vt 0.625000 0.137352
vt 0.125000 0.581028
vt 0.125000 0.625000
vt 0.412057 0.125000
vt 0.412057 0.168972
vt 0.412057 0.081028
vt 0.412057 0.037057
vt 0.393528 0.865736
vt 0.402792 0.914340
vt 0.384264 0.817132
vt 0.393528 0.384264
vt 0.384264 0.432868
vt 0.402792 0.335660
vt 0.412057 0.962944
vt 0.412057 0.000000
s 0
f 1/1/1 2/2/1 3/3/1
f 4/4/2 5/5/2 6/6/2
f 7/7/3 8/8/3 9/9/3
f 10/10/4 11/11/4 12/12/4
f 13/13/5 14/14/5 15/15/5
f 16/16/6 17/17/6 18/18/6
f 19/19/7 20/20/7 21/21/7
f 22/22/8 23/23/8 24/24/8
f 51/25/9 1/1/9 3/3/9 52/26/9
f 91/27/10 4/4/10 6/6/10 92/28/10
f 57/29/11 10/10/11 12/12/11 58/30/11
f 93/31/12 9/32/12 8/33/12 94/34/12
f 27/35/13 7/7/13 9/9/13 28/36/13
f 33/37/14 22/22/14 24/24/14 34/38/14
f 95/39/15 21/21/15 20/20/15 96/40/15
f 63/41/16 19/19/16 21/21/16 64/42/16
f 69/43/17 16/16/17 18/18/17 70/44/17
f 97/45/18 15/15/18 14/14/18 98/46/18
f 39/47/19 13/13/19 15/15/19 40/48/19
f 45/49/20 5/50/20 4/51/20 46/52/20
f 90/53/21 61/54/21 13/13/21 39/47/21
f 110/55/22 58/30/22 12/12/22 94/34/22
f 104/56/23 46/52/23 4/51/23 91/57/23
f 81/58/24 55/59/24 5/60/24 45/61/24
f 101/62/25 34/38/25 24/24/25 96/40/25
f 107/63/26 70/44/26 18/18/26 98/46/26
f 93/31/27 11/11/27 36/64/27 99/65/27
f 99/65/28 36/64/28 35/66/28 100/67/28
f 100/67/29 35/66/29 34/38/29 101/62/29
f 69/43/30 75/68/30 43/69/30 16/16/30
f 75/68/31 78/70/31 44/71/31 43/69/31
f 78/70/32 81/58/32 45/61/32 44/71/32
f 97/45/33 17/17/33 48/72/33 102/73/33
f 102/73/34 48/72/34 47/74/34 103/75/34
f 103/75/35 47/74/35 46/52/35 104/56/35
f 51/25/36 84/76/36 37/77/36 1/1/36
f 84/76/37 87/78/37 38/79/37 37/77/37
f 87/78/38 90/53/38 39/47/38 38/79/38
f 16/16/39 43/80/39 48/72/39 17/17/39
f 43/80/40 44/81/40 47/74/40 48/72/40
f 44/81/41 45/49/41 46/52/41 47/74/41
f 1/1/42 37/77/42 42/82/42 2/2/42
f 37/77/43 38/79/43 41/83/43 42/82/43
f 38/79/44 39/47/44 40/48/44 41/83/44
f 10/10/45 31/84/45 36/64/45 11/11/45
f 31/84/46 32/85/46 35/66/46 36/64/46
f 32/85/47 33/37/47 34/38/47 35/66/47
f 19/19/48 25/86/48 30/87/48 20/20/48
f 25/86/49 26/88/49 29/89/49 30/87/49
f 26/88/50 27/35/50 28/36/50 29/89/50
f 26/88/51 25/86/51 88/90/51 85/91/51
f 85/91/52 88/90/52 89/92/52 86/93/52
f 86/93/53 89/92/53 90/53/53 87/78/53
f 27/35/54 26/88/54 85/91/54 82/94/54
f 82/94/55 85/91/55 86/93/55 83/95/55
f 83/95/56 86/93/56 87/78/56 84/76/56
f 7/7/57 27/35/57 82/94/57 49/96/57
f 49/96/58 82/94/58 83/95/58 50/97/58
f 50/97/59 83/95/59 84/76/59 51/25/59
f 32/98/60 31/99/60 79/100/60 76/101/60
f 76/101/61 79/100/61 80/102/61 77/103/61
f 77/103/62 80/102/62 81/58/62 78/70/62
f 33/104/63 32/98/63 76/101/63 73/105/63
f 73/105/64 76/101/64 77/103/64 74/106/64
f 74/106/65 77/103/65 78/70/65 75/68/65
f 22/22/66 33/104/66 73/105/66 67/107/66
f 67/107/67 73/105/67 74/106/67 68/108/67
f 68/108/68 74/106/68 75/68/68 69/43/68
f 95/39/69 23/23/69 72/109/69 105/110/69
f 105/110/70 72/109/70 71/111/70 106/112/70
f 106/112/71 71/111/71 70/44/71 107/63/71
f 31/99/72 10/113/72 57/114/72 79/100/72
f 79/100/73 57/114/73 56/115/73 80/102/73
f 80/102/74 56/115/74 55/59/74 81/58/74
f 92/28/75 6/6/75 60/116/75 108/117/75
f 108/117/76 60/116/76 59/118/76 109/119/76
f 109/119/77 59/118/77 58/30/77 110/55/77
f 25/86/78 19/19/78 63/41/78 88/90/78
f 88/90/79 63/41/79 62/120/79 89/92/79
f 89/92/80 62/120/80 61/54/80 90/53/80
f 22/22/81 67/107/81 72/109/81 23/23/81
f 67/107/82 68/108/82 71/111/82 72/109/82
f 68/108/83 69/43/83 70/44/83 71/111/83
f 13/13/84 61/54/84 66/121/84 14/14/84
f 61/54/85 62/120/85 65/122/85 66/121/85
f 62/120/86 63/41/86 64/42/86 65/122/86
f 5/5/87 55/123/87 60/116/87 6/6/87
f 55/123/88 56/124/88 59/118/88 60/116/88
f 56/124/89 57/29/89 58/30/89 59/118/89
f 7/7/90 49/96/90 54/125/90 8/8/90
f 49/96/91 50/97/91 53/126/91 54/125/91
f 50/97/92 51/25/92 52/26/92 53/126/92
f 53/127/93 109/119/93 110/55/93 54/128/93
f 52/129/94 108/117/94 109/119/94 53/127/94
f 3/130/95 92/28/95 108/117/95 52/129/95
f 65/122/96 106/112/96 107/63/96 66/121/96
f 64/42/97 105/110/97 106/112/97 65/122/97
f 21/21/98 95/39/98 105/110/98 64/42/98
f 41/131/99 103/75/99 104/56/99 42/132/99
f 40/133/100 102/73/100 103/75/100 41/131/100
f 15/15/101 97/45/101 102/73/101 40/133/101
f 29/134/102 100/67/102 101/62/102 30/135/102
f 28/136/103 99/65/103 100/67/103 29/134/103
f 9/32/104 93/31/104 99/65/104 28/136/104
f 66/121/105 107/63/105 98/46/105 14/14/105
f 30/135/106 101/62/106 96/40/106 20/20/106
f 42/132/107 104/56/107 91/57/107 2/137/107
f 54/128/108 110/55/108 94/34/108 8/33/108
f 17/17/109 97/45/109 98/46/109 18/18/109
f 23/23/110 95/39/110 96/40/110 24/24/110
f 11/11/111 93/31/111 94/34/111 12/12/111
f 2/138/112 91/27/112 92/28/112 3/130/112
