# Blender 5.2.2 LTS
# www.blender.org
o rock_small_2
v -1.138316 -1.592139 1.060763
v -1.247755 3.286393 1.256597
v -1.181347 -1.488040 -1.189611
v -1.192235 3.276465 -1.107787
v 1.152509 -1.446604 1.203021
v 1.247583 3.281279 1.243851
v 1.134052 -1.273181 -1.144741
v 0.940932 3.139182 -0.358978
v -1.661622 -1.488616 -0.017420
v -1.566723 -0.696602 1.408093
v -1.538749 3.581603 0.029648
v -1.444744 -0.305580 -1.482482
v -0.000229 -1.575412 -1.696415
v 0.016971 3.522531 -0.976098
v 1.420902 -0.313850 -1.484423
v 1.445238 -1.232381 0.296282
v 1.427064 3.534601 0.255300
v 1.412514 -0.240071 1.400226
v -0.000561 -1.489715 1.641278
v 0.000660 3.577975 1.539023
v -2.027945 -0.337283 0.006685
v 0.026717 -0.550103 -2.060757
v 1.967143 -0.231423 -0.039974
v -0.037440 -0.335188 1.943251
v 0.273929 -1.742578 -0.225294
v 0.027520 4.194287 0.064570
v -1.323768 1.687190 1.368797
v -1.261275 1.746258 -1.078466
v 1.339071 1.717321 -1.101740
v 1.324731 1.729159 1.269233
v -1.747692 1.795303 0.231646
v 0.172428 1.689490 -1.292249
v 1.787140 1.764300 -0.085011
v 0.003164 1.722215 1.695208
vn -0.4406 -0.7808 0.4430
vn -0.6140 0.4513 0.6476
vn -0.5248 -0.7017 -0.4819
vn -0.5193 0.4145 -0.7474
vn 0.5509 -0.6786 0.4857
vn 0.6347 0.4317 0.6410
vn 0.6135 -0.6663 -0.4238
vn 0.5754 0.4801 -0.6621
vn -0.6875 -0.7256 -0.0284
vn -0.7028 -0.1839 0.6872
vn -0.7781 0.6259 -0.0534
vn -0.6805 -0.0197 -0.7325
vn 0.0465 -0.7529 -0.6565
vn 0.1286 0.5875 -0.7989
vn 0.6971 -0.1058 -0.7091
vn 0.7258 -0.6856 0.0555
vn 0.7781 0.6251 -0.0627
vn 0.7101 -0.0926 0.6980
vn 0.0498 -0.7156 0.6968
vn 0.0109 0.6078 0.7940
vn -0.9953 -0.0914 -0.0307
vn 0.0201 -0.0729 -0.9971
vn 0.9890 -0.1465 -0.0206
vn 0.0139 -0.0931 0.9956
vn 0.1369 -0.9900 -0.0333
vn 0.0783 0.9912 -0.1065
vn -0.6741 0.1018 0.7316
vn -0.6348 0.1671 -0.7544
vn 0.6357 0.2683 -0.7238
vn 0.7047 0.0923 0.7035
vn -0.9939 0.1098 0.0131
vn 0.1053 0.2506 -0.9623
vn 0.9776 0.1809 -0.1075
vn 0.0193 0.0813 0.9965
vt 0.375000 0.000000
vt 0.500000 0.000000
vt 0.500000 0.125000
vt 0.375000 0.125000
vt 0.562500 0.000000
vt 0.625000 0.000000
vt 0.625000 0.125000
vt 0.562500 0.125000
vt 0.625000 0.250000
vt 0.562500 0.250000
vt 0.500000 0.250000
vt 0.375000 0.250000
vt 0.500000 0.375000
vt 0.375000 0.375000
vt 0.625000 0.375000
vt 0.562500 0.375000
vt 0.625000 0.500000
vt 0.562500 0.500000
vt 0.500000 0.500000
vt 0.375000 0.500000
vt 0.500000 0.625000
vt 0.375000 0.625000
vt 0.625000 0.625000
vt 0.562500 0.625000
vt 0.625000 0.750000
vt 0.562500 0.750000
vt 0.500000 0.750000
vt 0.375000 0.750000
vt 0.500000 0.875000
vt 0.375000 0.875000
vt 0.625000 0.875000
vt 0.562500 0.875000
vt 0.625000 1.000000
vt 0.562500 1.000000
vt 0.500000 1.000000
vt 0.375000 1.000000
vt 0.125000 0.500000
vt 0.250000 0.500000
vt 0.250000 0.625000
vt 0.125000 0.625000
vt 0.250000 0.750000
vt 0.125000 0.750000
vt 0.750000 0.500000
vt 0.750000 0.625000
vt 0.875000 0.500000
vt 0.875000 0.625000
vt 0.875000 0.750000
vt 0.750000 0.750000
s 1
f 1/1/1 10/2/10 21/3/21 9/4/9
f 27/5/27 2/6/2 11/7/11 31/8/31
f 31/8/31 11/7/11 4/9/4 28/10/28
f 9/4/9 21/3/21 12/11/12 3/12/3
f 3/12/3 12/11/12 22/13/22 13/14/13
f 28/10/28 4/9/4 14/15/14 32/16/32
f 32/16/32 14/15/14 8/17/8 29/18/29
f 13/14/13 22/13/22 15/19/15 7/20/7
f 7/20/7 15/19/15 23/21/23 16/22/16
f 29/18/29 8/17/8 17/23/17 33/24/33
f 33/24/33 17/23/17 6/25/6 30/26/30
f 16/22/16 23/21/23 18/27/18 5/28/5
f 5/28/5 18/27/18 24/29/24 19/30/19
f 30/26/30 6/25/6 20/31/20 34/32/34
f 34/32/34 20/31/20 2/33/2 27/34/27
f 19/30/19 24/29/24 10/35/10 1/36/1
f 3/37/3 13/38/13 25/39/25 9/40/9
f 13/38/13 7/20/7 16/22/16 25/39/25
f 25/39/25 16/22/16 5/28/5 19/41/19
f 9/40/9 25/39/25 19/41/19 1/42/1
f 8/17/8 14/43/14 26/44/26 17/23/17
f 14/43/14 4/45/4 11/46/11 26/44/26
f 26/44/26 11/46/11 2/47/2 20/48/20
f 17/23/17 26/44/26 20/48/20 6/25/6
f 24/29/24 34/32/34 27/34/27 10/35/10
f 18/27/18 30/26/30 34/32/34 24/29/24
f 23/21/23 33/24/33 30/26/30 18/27/18
f 15/19/15 29/18/29 33/24/33 23/21/23
f 22/13/22 32/16/32 29/18/29 15/19/15
f 12/11/12 28/10/28 32/16/32 22/13/22
f 21/3/21 31/8/31 28/10/28 12/11/12
f 10/2/10 27/5/27 31/8/31 21/3/21
