# Blender 5.2.2 LTS
# www.blender.org
o platform_small_1
v -3.248696 -2.994664 3.959692
v -3.518256 3.070734 3.491799
v -3.370970 -3.460324 -3.332645
v -3.278606 2.967867 -3.271625
v 3.438309 -3.460325 3.202824
v 3.283413 2.972536 3.280095
v 3.833765 -3.389244 -3.553658
v 3.644290 3.162673 -3.644290
v -3.764111 -3.366883 0.230129
v -3.093774 0.232830 3.411673
v -3.397382 3.014140 0.009422
v -3.481846 0.000000 -3.460940
v -0.024872 -3.460324 -4.060417
v 0.000000 3.102813 -3.547053
v 3.910404 0.000000 -3.910404
v 3.642662 -4.049196 -0.148487
v 3.593549 3.130675 0.000000
v 3.846596 0.000096 3.830083
v -0.017304 -3.737785 4.026721
v 0.004784 3.053751 3.448687
v -4.090565 0.116415 0.092863
v 0.000000 0.000000 -4.181485
v 4.205625 0.000000 0.000000
v 0.122952 0.116958 4.161852
v -0.356690 -4.360209 0.323209
vn -0.6061 -0.4362 0.6652
vn -0.7164 0.0915 0.6917
vn -0.6095 -0.5656 -0.5555
vn -0.7038 0.1817 -0.6868
vn 0.6017 -0.5782 0.5510
vn 0.6774 0.2657 0.6859
vn 0.6132 -0.5495 -0.5675
vn 0.6919 0.1929 -0.6958
vn -0.7767 -0.6289 0.0347
vn -0.6831 0.0644 0.7274
vn -0.9949 0.1009 0.0076
vn -0.7245 0.0551 -0.6870
vn -0.0652 -0.6366 -0.7684
vn -0.0620 0.1410 -0.9881
vn 0.7096 0.0421 -0.7033
vn 0.6594 -0.7517 -0.0031
vn 0.9853 0.1681 0.0317
vn 0.7104 0.0483 0.7021
vn -0.0349 -0.6653 0.7458
vn -0.0158 0.1570 0.9875
vn -0.9993 0.0318 0.0219
vn -0.0581 0.0429 -0.9974
vn 0.9990 0.0281 0.0338
vn 0.0072 0.0675 0.9977
vn -0.0703 -0.9974 0.0132
vt 0.375000 0.000000
vt 0.500000 0.000000
vt 0.500000 0.125000
vt 0.375000 0.125000
vt 0.625000 0.000000
vt 0.625000 0.125000
vt 0.625000 0.250000
vt 0.500000 0.250000
vt 0.375000 0.250000
vt 0.500000 0.375000
vt 0.375000 0.375000
vt 0.625000 0.375000
vt 0.625000 0.500000
vt 0.500000 0.500000
vt 0.375000 0.500000
vt 0.500000 0.625000
vt 0.375000 0.625000
vt 0.625000 0.625000
vt 0.625000 0.750000
vt 0.500000 0.750000
vt 0.375000 0.750000
vt 0.500000 0.875000
vt 0.375000 0.875000
vt 0.625000 0.875000
vt 0.625000 1.000000
vt 0.500000 1.000000
vt 0.375000 1.000000
vt 0.125000 0.500000
vt 0.250000 0.500000
vt 0.250000 0.625000
vt 0.125000 0.625000
vt 0.250000 0.750000
vt 0.125000 0.750000
s 1
f 1/1/1 10/2/10 21/3/21 9/4/9
f 10/2/10 2/5/2 11/6/11 21/3/21
f 21/3/21 11/6/11 4/7/4 12/8/12
f 9/4/9 21/3/21 12/8/12 3/9/3
f 3/9/3 12/8/12 22/10/22 13/11/13
f 12/8/12 4/7/4 14/12/14 22/10/22
f 22/10/22 14/12/14 8/13/8 15/14/15
f 13/11/13 22/10/22 15/14/15 7/15/7
f 7/15/7 15/14/15 23/16/23 16/17/16
f 15/14/15 8/13/8 17/18/17 23/16/23
f 23/16/23 17/18/17 6/19/6 18/20/18
f 16/17/16 23/16/23 18/20/18 5/21/5
f 5/21/5 18/20/18 24/22/24 19/23/19
f 18/20/18 6/19/6 20/24/20 24/22/24
f 24/22/24 20/24/20 2/25/2 10/26/10
f 19/23/19 24/22/24 10/26/10 1/27/1
f 3/28/3 13/29/13 25/30/25 9/31/9
f 13/29/13 7/15/7 16/17/16 25/30/25
f 25/30/25 16/17/16 5/21/5 19/32/19
f 9/31/9 25/30/25 19/32/19 1/33/1
