# Blender 5.2.2 LTS
# www.blender.org
o platform_small_1.002
v -3.518256 3.070734 3.491799
v -3.278606 2.967867 -3.271625
v 3.283413 2.972536 3.280095
v 3.644290 3.162673 -3.644290
v -3.397382 3.014140 0.009422
v 0.000000 3.102813 -3.547053
v 3.593549 3.130675 0.000000
v 0.004784 3.053751 3.448687
v 0.000000 2.880292 0.000000
vn 0.0215 0.9992 -0.0328
vn 0.0009 0.9997 0.0258
vn -0.0247 0.9997 -0.0034
vn -0.0423 0.9985 0.0350
vn 0.0115 0.9999 -0.0042
vn -0.0215 0.9993 0.0306
vn -0.0338 0.9993 0.0165
vn -0.0011 0.9998 -0.0184
vn -0.0111 0.9999 0.0062
vt 0.625000 0.500000
vt 0.750000 0.500000
vt 0.750000 0.625000
vt 0.625000 0.625000
vt 0.875000 0.500000
vt 0.875000 0.625000
vt 0.875000 0.750000
vt 0.750000 0.750000
vt 0.625000 0.750000
s 1
f 4/1/4 6/2/6 9/3/9 7/4/7
f 6/2/6 2/5/2 5/6/5 9/3/9
f 9/3/9 5/6/5 1/7/1 8/8/8
f 7/4/7 9/3/9 8/8/8 3/9/3
