# Blender 5.2.2 LTS
# www.blender.org
o platform_medium3.001
v -7.611925 5.983047 5.006728
v -8.388122 5.506487 5.446740
v -4.884167 5.545610 -8.091006
v -4.405075 4.979356 -8.724449
v 5.010870 5.611731 6.794369
v 4.743325 5.118917 7.439157
v 7.890866 5.791527 -2.962853
v 8.298918 5.368148 -3.839259
v -6.979304 6.150976 1.738840
v -7.153783 6.070224 -1.250963
v -7.108396 5.949472 -3.973986
v -6.049949 6.006746 -5.819953
v -5.680167 5.374544 -6.135504
v -7.063094 5.446922 -4.201059
v -7.336038 5.555664 -1.380813
v -7.283008 5.623992 1.804323
v 8.137944 5.588978 -0.766518
v 8.272570 5.211230 1.290410
v 7.826146 4.979362 3.296777
v 6.730587 5.545290 5.013381
v 6.768371 5.017714 5.230143
v 8.180805 4.458572 3.348267
v 8.663212 4.711936 1.041631
v 8.401885 5.181604 -1.315250
v -1.655933 5.895259 -7.491218
v 1.293069 5.956795 -7.046182
v 3.429698 6.013560 -5.728765
v 5.455733 5.767800 -4.110023
v 5.944152 5.262231 -4.790570
v 3.877451 5.505884 -6.293854
v 1.746053 5.318724 -7.627929
v -1.019845 5.560062 -7.971290
v 2.397830 5.903883 7.735195
v -0.308894 5.811381 8.466949
v -2.837101 5.723128 7.467928
v -5.137793 5.925678 6.214185
v -5.482924 5.418802 6.297126
v -3.165411 5.218072 7.583670
v -0.547666 5.336068 8.856091
v 2.156095 5.429030 8.322793
v -2.828934 6.071022 -5.235419
v 0.390317 6.071916 -4.560450
v 2.662364 5.944835 -3.181013
v 5.270443 5.733591 -1.710801
v -3.764835 6.098952 -2.717820
v -0.582509 6.015233 -1.616131
v 1.912072 5.852304 -0.411248
v 5.219093 5.475819 0.575495
v -4.250338 6.151544 -0.072984
v -1.521008 5.995496 1.462203
v 1.381757 5.852180 2.296133
v 5.047354 5.319253 2.781964
v -4.627372 6.133574 3.203838
v -2.160861 5.858941 4.917677
v 0.566420 5.785296 5.536994
v 3.937966 5.803389 4.869033
vn -0.8695 -0.3139 -0.3814
vn 0.1658 0.8859 -0.4331
vn 0.6839 0.3746 0.6261
vn -0.2520 0.6625 0.7054
vn -0.0160 0.9983 0.0568
vn -0.0346 0.9870 -0.1567
vn -0.0305 0.9995 -0.0072
vn -0.0234 0.9991 -0.0346
vn -0.0070 0.9999 -0.0102
vn 0.7732 0.6341 -0.0051
vn 0.8244 0.5649 0.0345
vn 0.8060 0.5435 0.2347
vn 0.8032 0.4110 0.4313
vn -0.7098 0.6882 -0.1501
vn -0.9065 0.4215 0.0232
vn -0.9859 0.1549 -0.0630
vn -0.8392 -0.0479 -0.5417
vn 0.1274 0.9726 -0.1946
vn 0.0715 0.9961 -0.0522
vn 0.0290 0.9989 0.0367
vn 0.0625 0.9975 0.0323
vn 0.0810 0.9914 0.1033
vn 0.1191 0.9917 0.0486
vn 0.0505 0.9986 0.0163
vn 0.0388 0.9992 0.0039
vn 0.0280 0.9892 0.1442
vn 0.0659 0.9947 0.0794
vn 0.0401 0.9985 0.0382
vn 0.0105 0.9999 0.0089
vn 0.0025 0.9987 0.0514
vn 0.0748 0.9966 0.0351
vn 0.0179 0.9998 -0.0033
vn 0.0009 0.9981 -0.0608
vn 0.1069 0.9935 0.0393
vn -0.0257 0.9991 -0.0325
vn -0.0082 0.9998 0.0177
vn 0.0542 0.9959 0.0731
vn 0.3115 0.6806 0.6631
vn 0.1467 0.6720 0.7259
vn -0.3482 0.5805 0.7361
vn -0.4064 0.4288 0.8068
vn 0.0162 0.7850 -0.6192
vn 0.1087 0.7858 -0.6088
vn 0.2961 0.7819 -0.5486
vn 0.3930 0.8354 -0.3842
vt 0.864910 0.556054
vt 0.864910 0.510090
vt 0.875000 0.500000
vt 0.875000 0.550000
vt 0.681054 0.510090
vt 0.635090 0.510090
vt 0.617432 0.500000
vt 0.668946 0.500000
vt 0.635090 0.693946
vt 0.635090 0.739910
vt 0.617432 0.750000
vt 0.617432 0.700000
vt 0.818946 0.739910
vt 0.864910 0.739910
vt 0.875000 0.750000
vt 0.823487 0.750000
vt 0.818946 0.693946
vt 0.864910 0.693946
vt 0.818946 0.510090
vt 0.818946 0.556054
vt 0.864910 0.602018
vt 0.818946 0.602018
vt 0.864910 0.647982
vt 0.818946 0.647982
vt 0.635090 0.556054
vt 0.617432 0.550000
vt 0.635090 0.602018
vt 0.617432 0.600000
vt 0.635090 0.647982
vt 0.617432 0.650000
vt 0.875000 0.700000
vt 0.875000 0.650000
vt 0.875000 0.600000
vt 0.681054 0.647982
vt 0.681054 0.693946
vt 0.727018 0.647982
vt 0.727018 0.693946
vt 0.772982 0.647982
vt 0.772982 0.693946
vt 0.681054 0.602018
vt 0.727018 0.602018
vt 0.772982 0.602018
vt 0.681054 0.556054
vt 0.727018 0.556054
vt 0.772982 0.556054
vt 0.727018 0.510090
vt 0.772982 0.510090
vt 0.681054 0.739910
vt 0.727018 0.739910
vt 0.772982 0.739910
vt 0.668946 0.750000
vt 0.720459 0.750000
vt 0.771973 0.750000
vt 0.823486 0.500000
vt 0.771973 0.500000
vt 0.720459 0.500000
s 0
f 12/1/1 3/2/1 4/3/1 13/4/1
f 28/5/2 7/6/2 8/7/2 29/8/2
f 20/9/3 5/10/3 6/11/3 21/12/3
f 36/13/4 1/14/4 2/15/4 37/16/4
f 53/17/5 9/18/5 1/14/5 36/13/5
f 25/19/6 3/2/6 12/1/6 41/20/6
f 41/20/7 12/1/7 11/21/7 45/22/7
f 45/22/8 11/21/8 10/23/8 49/24/8
f 49/24/9 10/23/9 9/18/9 53/17/9
f 7/6/10 17/25/10 24/26/10 8/7/10
f 17/25/11 18/27/11 23/28/11 24/26/11
f 18/27/12 19/29/12 22/30/12 23/28/12
f 19/29/13 20/9/13 21/12/13 22/30/13
f 1/14/14 9/18/14 16/31/14 2/15/14
f 9/18/15 10/23/15 15/32/15 16/31/15
f 10/23/16 11/21/16 14/33/16 15/32/16
f 11/21/17 12/1/17 13/4/17 14/33/17
f 19/29/18 52/34/18 56/35/18 20/9/18
f 52/34/19 51/36/19 55/37/19 56/35/19
f 51/36/20 50/38/20 54/39/20 55/37/20
f 50/38/21 49/24/21 53/17/21 54/39/21
f 18/27/22 48/40/22 52/34/22 19/29/22
f 48/40/23 47/41/23 51/36/23 52/34/23
f 47/41/24 46/42/24 50/38/24 51/36/24
f 46/42/25 45/22/25 49/24/25 50/38/25
f 17/25/26 44/43/26 48/40/26 18/27/26
f 44/43/27 43/44/27 47/41/27 48/40/27
f 43/44/28 42/45/28 46/42/28 47/41/28
f 42/45/29 41/20/29 45/22/29 46/42/29
f 7/6/30 28/5/30 44/43/30 17/25/30
f 28/5/31 27/46/31 43/44/31 44/43/31
f 27/46/32 26/47/32 42/45/32 43/44/32
f 26/47/33 25/19/33 41/20/33 42/45/33
f 20/9/34 56/35/34 33/48/34 5/10/34
f 56/35/35 55/37/35 34/49/35 33/48/35
f 55/37/36 54/39/36 35/50/36 34/49/36
f 54/39/37 53/17/37 36/13/37 35/50/37
f 5/10/38 33/48/38 40/51/38 6/11/38
f 33/48/39 34/49/39 39/52/39 40/51/39
f 34/49/40 35/50/40 38/53/40 39/52/40
f 35/50/41 36/13/41 37/16/41 38/53/41
f 3/2/42 25/19/42 32/54/42 4/3/42
f 25/19/43 26/47/43 31/55/43 32/54/43
f 26/47/44 27/46/44 30/56/44 31/55/44
f 27/46/45 28/5/45 29/8/45 30/56/45
