# Blender 5.2.2 LTS
# www.blender.org
o platform_medium2.001
v 9.033847 6.562368 6.354937
v 9.699017 6.149739 6.844317
v -9.124561 6.147573 7.319671
v -9.868920 5.581357 7.042928
v 9.147540 5.704308 -5.841410
v 9.870268 5.093354 -5.827677
v -7.986290 6.354380 -6.581974
v -8.886020 5.927588 -6.610215
v 6.031672 6.578898 6.915819
v 3.552923 6.429362 8.007060
v -4.413547 6.244376 8.334074
v -6.582055 6.531700 7.800385
v -7.004499 5.932785 7.529600
v -4.652497 5.762002 8.351523
v 2.910088 6.095025 8.799453
v 6.059139 6.077351 7.147892
v -6.094687 6.375612 -7.509527
v -4.262126 6.400142 -7.930359
v 3.842722 6.293828 -8.363106
v 6.656081 6.359072 -6.782378
v 6.926302 5.772217 -6.831566
v 3.697972 5.783861 -8.807336
v -4.597803 5.828269 -8.293713
v -6.674836 5.884595 -7.664320
v -9.406165 6.510723 4.124022
v -9.823321 6.094545 1.164785
v -9.283482 5.785522 -1.371391
v -8.352822 5.833058 -3.807900
v -9.139825 5.365005 -4.072623
v -9.956363 5.321630 -1.639636
v -10.517342 5.475625 0.892256
v -10.033894 6.146378 3.666324
v 10.467906 6.061894 -3.887784
v 11.367158 6.366985 -1.788828
v 10.994429 6.287850 0.970474
v 9.918693 6.463458 3.661030
v 10.017888 6.023521 3.846749
v 11.181172 5.782808 1.254168
v 11.775994 5.913975 -1.687872
v 11.036227 5.630918 -3.856399
v -6.957993 6.687084 4.551881
v -7.224123 6.330534 1.278502
v -6.628215 6.039943 -1.366717
v -6.046665 6.183315 -4.437027
v -4.261375 6.608897 4.723337
v -4.159945 6.608281 1.337689
v -3.725682 6.431436 -1.400879
v -3.818203 6.317587 -4.843154
v 4.031727 6.626144 4.666203
v 4.938829 6.597458 1.352516
v 4.905666 6.448729 -1.685315
v 4.460564 6.184375 -5.335801
v 6.980428 6.640846 4.079058
v 8.346535 6.418272 1.067916
v 8.397603 6.280295 -1.741865
v 7.236811 6.203357 -4.407692
v 1.044030 6.305267 8.028626
v -1.519258 6.139797 8.119462
v -1.945818 5.582395 8.580566
v 0.625923 5.981789 8.682796
v -2.131229 6.457057 -8.629232
v 0.399993 6.477102 -9.103815
v 0.179507 5.923748 -9.539207
v -2.367195 5.892179 -8.957079
v -1.325483 6.240805 -5.504970
v 1.348869 6.182934 -6.033986
v -0.838967 6.436133 -1.546981
v 2.042769 6.421649 -1.684725
v -1.126635 6.610617 1.343132
v 1.906097 6.604038 1.347824
v -1.393473 6.585840 4.633847
v 1.325994 6.657975 4.614646
vn -0.1252 -0.3165 0.9403
vn -0.4815 0.8681 0.1209
vn 0.3904 0.3489 -0.8520
vn 0.6911 0.7130 0.1180
vn 0.0333 0.9994 0.0044
vn -0.1277 0.9875 0.0925
vn 0.0641 0.9952 0.0733
vn -0.0181 0.9967 0.0790
vn -0.0186 0.9991 0.0375
vn -0.3245 0.6586 -0.6790
vn -0.2092 0.5682 -0.7959
vn 0.1938 0.5850 -0.7876
vn 0.4606 0.4074 -0.7886
vn 0.0916 0.6588 0.7467
vn 0.3304 0.6243 0.7079
vn 0.0184 0.4083 0.9127
vn -0.2912 -0.0458 0.9556
vn -0.0411 0.9975 0.0581
vn 0.0324 0.9975 -0.0621
vn 0.0479 0.9977 -0.0488
vn 0.0215 0.9993 -0.0320
vn 0.0140 0.9979 0.0625
vn 0.0026 0.9980 -0.0631
vn -0.0034 0.9985 -0.0545
vn 0.0068 0.9999 -0.0110
vn -0.0295 0.9985 0.0469
vn -0.1022 0.9948 -0.0032
vn -0.1104 0.9881 -0.1069
vn -0.0325 0.9981 -0.0527
vn -0.0438 0.9920 0.1187
vn -0.1208 0.9927 0.0012
vn -0.0891 0.9870 -0.1338
vn -0.0686 0.9910 -0.1153
vn 0.1665 0.9789 -0.1188
vn 0.0154 0.9961 -0.0865
vn 0.0075 0.9999 -0.0100
vn 0.0505 0.9976 -0.0480
vn 0.5536 0.6643 -0.5022
vn 0.6551 0.6726 -0.3443
vn 0.8089 0.5663 0.1582
vn 0.8476 0.4185 0.3262
vn -0.6090 0.7786 0.1513
vn -0.5722 0.8175 -0.0651
vn -0.5604 0.8049 -0.1953
vn -0.4892 0.8575 -0.1595
vn 0.0036 1.0000 0.0038
vn -0.0114 0.9999 -0.0059
vn -0.0027 0.9980 -0.0626
vn 0.0022 0.9982 -0.0600
vn 0.0070 0.9991 -0.0423
vn 0.0066 0.9986 -0.0531
vn 0.0174 0.9989 0.0445
vn 0.0219 0.9969 0.0759
vn -0.0533 0.9232 0.3807
vn -0.0908 0.8138 0.5740
vn -0.2550 0.5928 -0.7639
vn -0.1686 0.6017 -0.7807
vn 0.0280 0.9930 0.1145
vn -0.0423 0.9928 0.1124
vt 0.864910 0.556054
vt 0.864910 0.510090
vt 0.875000 0.500000
vt 0.875000 0.550000
vt 0.681054 0.510090
vt 0.635090 0.510090
vt 0.617432 0.500000
vt 0.668946 0.500000
vt 0.635090 0.693946
vt 0.635090 0.739910
vt 0.617432 0.750000
vt 0.617432 0.700000
vt 0.818946 0.739910
vt 0.864910 0.739910
vt 0.875000 0.750000
vt 0.823487 0.750000
vt 0.818946 0.693946
vt 0.864910 0.693946
vt 0.818946 0.510090
vt 0.818946 0.556054
vt 0.864910 0.602018
vt 0.818946 0.602018
vt 0.818946 0.632661
vt 0.864910 0.632661
vt 0.864910 0.647982
vt 0.818946 0.647982
vt 0.635090 0.556054
vt 0.617432 0.550000
vt 0.635090 0.602018
vt 0.617432 0.600000
vt 0.635090 0.632661
vt 0.635090 0.647982
vt 0.617432 0.650000
vt 0.617432 0.633333
vt 0.875000 0.700000
vt 0.875000 0.650000
vt 0.864910 0.617339
vt 0.875000 0.600000
vt 0.875000 0.616667
vt 0.681054 0.647982
vt 0.681054 0.693946
vt 0.727018 0.647982
vt 0.727018 0.693946
vt 0.772982 0.647982
vt 0.772982 0.693946
vt 0.681054 0.632661
vt 0.727018 0.632661
vt 0.772982 0.632661
vt 0.681054 0.556054
vt 0.681054 0.602018
vt 0.727018 0.556054
vt 0.727018 0.602018
vt 0.772982 0.556054
vt 0.772982 0.602018
vt 0.727018 0.510090
vt 0.772982 0.510090
vt 0.681054 0.739910
vt 0.727018 0.739910
vt 0.772982 0.739910
vt 0.668946 0.750000
vt 0.720459 0.750000
vt 0.771973 0.750000
vt 0.823486 0.500000
vt 0.771973 0.500000
vt 0.720459 0.500000
vt 0.818946 0.617339
vt 0.772982 0.617339
vt 0.727018 0.617339
vt 0.681054 0.617339
vt 0.635090 0.617339
vt 0.875000 0.633333
vt 0.617432 0.616667
s 0
f 12/1/1 3/2/1 4/3/1 13/4/1
f 28/5/2 7/6/2 8/7/2 29/8/2
f 20/9/3 5/10/3 6/11/3 21/12/3
f 36/13/4 1/14/4 2/15/4 37/16/4
f 53/17/5 9/18/5 1/14/5 36/13/5
f 25/19/6 3/2/6 12/1/6 41/20/6
f 41/20/7 12/1/7 11/21/7 45/22/7
f 72/23/8 57/24/8 10/25/8 49/26/8
f 49/26/9 10/25/9 9/18/9 53/17/9
f 7/6/10 17/27/10 24/28/10 8/7/10
f 17/27/11 18/29/11 23/30/11 24/28/11
f 62/31/12 19/32/12 22/33/12 63/34/12
f 19/32/13 20/9/13 21/12/13 22/33/13
f 1/14/14 9/18/14 16/35/14 2/15/14
f 9/18/15 10/25/15 15/36/15 16/35/15
f 58/37/16 11/21/16 14/38/16 59/39/16
f 11/21/17 12/1/17 13/4/17 14/38/17
f 19/32/18 52/40/18 56/41/18 20/9/18
f 52/40/19 51/42/19 55/43/19 56/41/19
f 51/42/20 50/44/20 54/45/20 55/43/20
f 50/44/21 49/26/21 53/17/21 54/45/21
f 62/31/22 66/46/22 52/40/22 19/32/22
f 66/46/23 68/47/23 51/42/23 52/40/23
f 68/47/24 70/48/24 50/44/24 51/42/24
f 70/48/25 72/23/25 49/26/25 50/44/25
f 17/27/26 44/49/26 48/50/26 18/29/26
f 44/49/27 43/51/27 47/52/27 48/50/27
f 43/51/28 42/53/28 46/54/28 47/52/28
f 42/53/29 41/20/29 45/22/29 46/54/29
f 7/6/30 28/5/30 44/49/30 17/27/30
f 28/5/31 27/55/31 43/51/31 44/49/31
f 27/55/32 26/56/32 42/53/32 43/51/32
f 26/56/33 25/19/33 41/20/33 42/53/33
f 20/9/34 56/41/34 33/57/34 5/10/34
f 56/41/35 55/43/35 34/58/35 33/57/35
f 55/43/36 54/45/36 35/59/36 34/58/36
f 54/45/37 53/17/37 36/13/37 35/59/37
f 5/10/38 33/57/38 40/60/38 6/11/38
f 33/57/39 34/58/39 39/61/39 40/60/39
f 34/58/40 35/59/40 38/62/40 39/61/40
f 35/59/41 36/13/41 37/16/41 38/62/41
f 3/2/42 25/19/42 32/63/42 4/3/42
f 25/19/43 26/56/43 31/64/43 32/63/43
f 26/56/44 27/55/44 30/65/44 31/64/44
f 27/55/45 28/5/45 29/8/45 30/65/45
f 46/54/46 45/22/46 71/66/46 69/67/46
f 69/67/47 71/66/47 72/23/47 70/48/47
f 47/52/48 46/54/48 69/67/48 67/68/48
f 67/68/49 69/67/49 70/48/49 68/47/49
f 48/50/50 47/52/50 67/68/50 65/69/50
f 65/69/51 67/68/51 68/47/51 66/46/51
f 18/29/52 48/50/52 65/69/52 61/70/52
f 61/70/53 65/69/53 66/46/53 62/31/53
f 10/25/54 57/24/54 60/71/54 15/36/54
f 57/24/55 58/37/55 59/39/55 60/71/55
f 18/29/56 61/70/56 64/72/56 23/30/56
f 61/70/57 62/31/57 63/34/57 64/72/57
f 45/22/58 11/21/58 58/37/58 71/66/58
f 71/66/59 58/37/59 57/24/59 72/23/59
