# Blender 5.2.2 LTS
# www.blender.org
o platform_medium3.002
v -7.322207 -6.593831 4.840618
v -5.232046 -7.046961 -8.060230
v 2.633651 -5.945369 7.542377
v 9.675617 -6.521316 -4.855727
v -8.388122 5.506487 5.446740
v -4.405075 4.979356 -8.724449
v 4.743325 5.118917 7.439157
v 8.298918 5.368148 -3.839259
v 1.770080 -3.223949 6.937671
v 2.047918 -0.949696 7.319887
v 2.724707 1.511643 7.234574
v 4.099360 3.457680 7.216462
v -7.619803 3.156476 4.580782
v -7.500260 0.799636 4.292113
v -7.036333 -1.688152 3.900735
v -7.230666 -4.151599 4.363637
v -4.086182 3.380116 -7.874588
v -4.008730 0.713106 -7.503665
v -4.423848 -1.893971 -7.675951
v -5.004786 -4.540688 -7.937718
v 8.158389 3.116772 -3.787933
v 8.111553 0.767238 -3.697757
v 8.241749 -1.677852 -3.855394
v 9.113210 -4.098551 -4.470538
v -6.050282 -7.176087 -4.901221
v -6.591957 -7.106441 -1.833771
v -6.570167 -6.982950 0.362132
v -6.765457 -6.811471 2.399791
v 4.388085 -6.755979 4.876660
v 5.836277 -7.923857 2.369070
v 6.346097 -8.296491 -0.040867
v 8.004773 -7.144991 -2.287154
v -5.680167 5.374544 -6.135504
v -7.063094 5.446922 -4.201059
v -7.336038 5.555664 -1.380813
v -7.283008 5.623992 1.804323
v 6.768371 5.017714 5.230143
v 8.180805 4.458572 3.348267
v 8.663212 4.711936 1.041631
v 8.401885 5.181604 -1.315250
v 7.785059 -4.584947 -2.021776
v 6.912088 -5.052745 0.333983
v 6.385260 -4.723882 2.625558
v 4.072232 -3.802832 4.748725
v 7.650018 -1.707580 -1.599305
v 7.288511 -1.777987 0.383273
v 6.804509 -1.741601 2.871019
v 4.352853 -1.157694 5.013878
v 7.657101 0.769312 -1.729284
v 7.420051 0.579904 0.007513
v 7.131621 0.304485 2.678661
v 4.884062 0.986381 4.964079
v 8.090049 2.897326 -1.493480
v 8.220537 2.435740 0.553506
v 7.907738 2.160919 3.048410
v 6.347381 2.785602 5.005212
v -6.925552 -4.412371 2.063013
v -6.801380 -4.597517 0.135574
v -6.418540 -4.624641 -2.024360
v -5.889758 -4.674000 -4.954288
v -6.897181 -1.837899 1.884911
v -6.699586 -1.955862 -0.139284
v -5.948941 -1.975017 -2.424291
v -5.320832 -1.986385 -5.042273
v -6.933587 0.738418 2.108156
v -6.303971 0.723725 -0.335071
v -5.676370 0.705350 -2.810713
v -4.775673 0.716250 -5.108235
v -7.072700 3.163826 2.028289
v -6.870914 3.161268 -0.931088
v -6.374335 3.142323 -3.587916
v -5.208003 3.161167 -5.619189
v 6.647495 -6.591961 -5.200742
v 2.816296 -7.116627 -5.796599
v -0.351651 -7.285086 -6.897943
v -3.110419 -7.251019 -7.612861
v -5.111694 -6.808534 4.844872
v -3.746851 -7.030751 4.805690
v -2.393896 -6.554525 5.600690
v -0.150252 -6.128531 6.959244
v 5.944152 5.262231 -4.790570
v 3.877451 5.505884 -6.293854
v 1.746053 5.318724 -7.627929
v -1.019845 5.560062 -7.971290
v -5.482924 5.418802 6.297126
v -3.165411 5.218072 7.583670
v -0.547666 5.336068 8.856091
v 2.156095 5.429030 8.322793
v -2.783928 -4.668868 -7.400327
v -0.062963 -4.666193 -6.628847
v 2.908485 -4.434635 -5.503916
v 6.270218 -4.139654 -4.935130
v -2.100749 -1.956716 -7.015867
v 0.493359 -1.906712 -6.181407
v 3.027503 -1.293502 -5.154990
v 5.736007 -1.689026 -4.549336
v -1.574175 0.684997 -6.873612
v 0.564418 0.745969 -6.268414
v 2.903856 1.059142 -5.140637
v 5.679639 0.751517 -4.408290
v -1.065141 2.915206 -7.481665
v 0.844219 3.526094 -7.100360
v 3.497672 3.644372 -5.688373
v 5.796222 2.637506 -4.702517
v -0.519038 -3.448506 6.363607
v -2.204012 -3.862419 5.782220
v -3.872427 -4.406393 4.988359
v -5.429471 -4.373446 4.607787
v 0.162441 -1.166237 6.772861
v -1.377484 -1.463899 6.260922
v -3.510667 -1.731730 5.565214
v -5.446780 -1.788934 4.591566
v 0.841252 1.273680 7.034372
v -0.813917 0.968160 6.547640
v -3.070791 0.760042 5.691075
v -5.383923 0.785155 4.719290
v 1.608464 3.495177 7.815386
v -0.737886 3.190946 7.699404
v -3.122850 3.014102 6.543407
v -5.356368 3.100398 5.529027
v -3.879089 -7.826925 -5.010580
v -1.274348 -8.072714 -4.767412
v 1.330128 -8.565572 -4.046007
v 4.487313 -8.523996 -3.346926
v -4.441230 -8.000981 -2.325416
v -1.925162 -8.479922 -2.389873
v 0.365878 -9.394810 -1.878484
v 3.058987 -9.966192 -1.352065
v -4.574497 -8.003951 -0.317685
v -2.170226 -8.454189 -0.286503
v 0.137294 -9.020174 0.359687
v 2.967530 -9.149530 1.310307
v -4.755486 -7.599822 1.910847
v -2.821868 -7.960651 1.932576
v -0.887154 -7.635817 2.838063
v 1.602291 -7.312555 4.090737
vn -0.3148 -0.3668 0.8754
vn -0.8526 -0.3238 -0.4101
vn 0.3726 -0.0485 -0.9267
vn 0.6702 -0.2631 0.6939
vn 0.7778 0.2368 0.5822
vn 0.6729 -0.1711 0.7197
vn 0.6934 -0.1613 0.7023
vn 0.5777 -0.4420 0.6862
vn 0.1320 0.1561 -0.9789
vn 0.2025 0.2528 -0.9461
vn 0.2726 0.0691 -0.9596
vn 0.3286 -0.0979 -0.9394
vn -0.9616 0.0781 -0.2633
vn -0.9342 0.2108 -0.2879
vn -0.9356 0.1753 -0.3064
vn -0.9126 -0.1562 -0.3779
vn -0.0457 0.1426 0.9887
vn -0.2556 0.1002 0.9616
vn -0.2902 -0.1204 0.9494
vn -0.2953 -0.2242 0.9287
vn -0.9727 -0.0426 -0.2282
vn -0.9753 -0.1624 -0.1496
vn -0.9326 -0.2989 -0.2021
vn -0.8579 -0.3073 -0.4118
vn -0.9838 -0.0776 -0.1614
vn -0.9806 0.0680 -0.1836
vn -0.9565 0.0891 -0.2776
vn -0.9481 0.1192 -0.2949
vn -0.9940 0.0306 -0.1052
vn -0.9964 0.0177 -0.0825
vn -0.9662 0.0728 -0.2472
vn -0.9645 0.1691 -0.2030
vn -0.9837 -0.0433 -0.1744
vn -0.9934 -0.0897 -0.0720
vn -0.9965 -0.0189 -0.0819
vn -0.9826 0.0572 -0.1765
vn 0.9873 -0.1095 0.1155
vn 0.9563 -0.2915 -0.0232
vn 0.9129 -0.4033 0.0633
vn 0.5963 -0.4407 0.6710
vn 0.9704 0.0229 0.2405
vn 0.9874 -0.0118 0.1581
vn 0.9860 -0.0841 0.1437
vn 0.6692 -0.0945 0.7371
vn 0.9175 0.0989 0.3852
vn 0.9621 -0.0582 0.2665
vn 0.9675 -0.1332 0.2148
vn 0.6334 -0.1477 0.7596
vn 0.8501 0.0652 0.5226
vn 0.8864 -0.1027 0.4515
vn 0.9528 -0.1882 0.2382
vn 0.7661 -0.0424 0.6414
vn 0.9950 -0.0988 -0.0155
vn 0.9823 -0.1453 -0.1181
vn 0.9740 -0.1768 0.1418
vn 0.7475 -0.1883 0.6370
vn -0.9530 -0.1595 -0.2574
vn -0.9898 -0.1408 -0.0223
vn -0.9560 -0.2638 -0.1282
vn -0.7957 -0.3312 -0.5070
vn 0.0987 -0.2281 0.9686
vn -0.0799 -0.3848 0.9196
vn -0.3406 -0.3826 0.8588
vn -0.3862 -0.3171 0.8662
vn -0.1967 0.0192 0.9803
vn -0.2925 -0.0330 0.9557
vn -0.3323 -0.0113 0.9431
vn -0.4162 -0.0042 0.9092
vn -0.2462 -0.1153 0.9623
vn -0.3037 -0.0822 0.9492
vn -0.3412 -0.1142 0.9330
vn -0.3600 -0.0756 0.9299
vn -0.2317 0.1603 0.9595
vn -0.4513 0.0536 0.8908
vn -0.4499 -0.0556 0.8913
vn -0.1160 0.0005 0.9932
vn 0.1622 -0.2072 -0.9648
vn 0.2730 -0.3052 -0.9123
vn 0.4537 -0.2905 -0.8425
vn 0.2617 -0.2186 -0.9401
vn 0.2619 0.0108 -0.9650
vn 0.2914 -0.0229 -0.9563
vn 0.4057 -0.0090 -0.9140
vn 0.2417 0.0405 -0.9695
vn 0.2566 0.0558 -0.9649
vn 0.2876 0.0800 -0.9544
vn 0.3512 0.0856 -0.9324
vn 0.1903 0.1418 -0.9714
vn 0.2239 0.0398 -0.9738
vn 0.2617 0.0583 -0.9634
vn 0.3356 0.0754 -0.9390
vn 0.1460 0.1150 -0.9826
vn 0.1737 -0.2862 -0.9423
vn 0.1677 -0.2541 -0.9525
vn 0.4739 -0.4081 -0.7803
vn 0.4454 -0.1877 -0.8754
vn 0.2524 -0.2722 0.9285
vn 0.1063 -0.3920 0.9138
vn -0.3794 -0.4069 0.8310
vn -0.4404 -0.3475 0.8278
vn -0.1798 -0.9692 -0.1681
vn -0.3458 -0.9346 -0.0833
vn -0.4158 -0.9093 0.0150
vn -0.3882 -0.9172 0.0895
vn -0.2130 -0.9662 0.1452
vn -0.0006 -0.9609 -0.2771
vn -0.1337 -0.9804 -0.1446
vn -0.1856 -0.9826 -0.0116
vn -0.1833 -0.9697 0.1614
vn -0.1675 -0.9547 0.2460
vn 0.0932 -0.8866 -0.4531
vn -0.1868 -0.9291 -0.3191
vn -0.3181 -0.9466 0.0526
vn -0.1679 -0.9346 0.3137
vn 0.0451 -0.9345 0.3530
vn 0.1715 -0.7992 -0.5761
vn 0.0187 -0.8821 -0.4706
vn -0.1807 -0.9583 0.2212
vn -0.1595 -0.8724 0.4619
vn -0.0451 -0.9356 0.3502
vn 0.2670 -0.9164 -0.2983
vn 0.4573 -0.8671 -0.1974
vn 0.3306 -0.9094 0.2524
vn 0.0933 -0.8435 0.5290
vn 0.0357 -0.9327 0.3588
vt 0.567332 0.950000
vt 0.615415 0.950000
vt 0.614910 1.000000
vt 0.566928 1.000000
vt 0.566928 0.200000
vt 0.614910 0.200000
vt 0.614910 0.250000
vt 0.566928 0.250000
vt 0.568542 0.450000
vt 0.616928 0.450000
vt 0.617432 0.500000
vt 0.568946 0.500000
vt 0.568946 0.700000
vt 0.617432 0.700000
vt 0.617432 0.750000
vt 0.568946 0.750000
vt 0.375000 0.700000
vt 0.423486 0.700000
vt 0.423487 0.750000
vt 0.375000 0.750000
vt 0.471973 0.700000
vt 0.471973 0.750000
vt 0.520460 0.700000
vt 0.520459 0.750000
vt 0.375000 0.450000
vt 0.423386 0.450000
vt 0.423487 0.500000
vt 0.375000 0.500000
vt 0.471771 0.450000
vt 0.471973 0.500000
vt 0.520157 0.450000
vt 0.520460 0.500000
vt 0.375000 0.200000
vt 0.422982 0.200000
vt 0.422982 0.250000
vt 0.375000 0.250000
vt 0.470964 0.200000
vt 0.470964 0.250000
vt 0.518946 0.200000
vt 0.518946 0.250000
vt 0.375000 0.950000
vt 0.423083 0.950000
vt 0.422982 1.000000
vt 0.375000 1.000000
vt 0.471166 0.950000
vt 0.470964 1.000000
vt 0.519249 0.950000
vt 0.518946 1.000000
vt 0.518946 0.000000
vt 0.566928 0.000000
vt 0.566928 0.050000
vt 0.518946 0.050000
vt 0.566928 0.100000
vt 0.518946 0.100000
vt 0.566928 0.150000
vt 0.518946 0.150000
vt 0.470964 0.000000
vt 0.470964 0.050000
vt 0.470964 0.100000
vt 0.470964 0.150000
vt 0.422982 0.000000
vt 0.422982 0.050000
vt 0.422982 0.100000
vt 0.422982 0.150000
vt 0.375000 0.000000
vt 0.375000 0.050000
vt 0.375000 0.100000
vt 0.375000 0.150000
vt 0.568946 0.550000
vt 0.520460 0.550000
vt 0.568946 0.600000
vt 0.520460 0.600000
vt 0.568946 0.650000
vt 0.520460 0.650000
vt 0.471973 0.550000
vt 0.471973 0.600000
vt 0.471973 0.650000
vt 0.423487 0.550000
vt 0.423487 0.600000
vt 0.423486 0.650000
vt 0.375000 0.550000
vt 0.375000 0.600000
vt 0.375000 0.650000
vt 0.617432 0.550000
vt 0.617432 0.600000
vt 0.617432 0.650000
vt 0.614910 0.000000
vt 0.614910 0.050000
vt 0.614910 0.100000
vt 0.614910 0.150000
vt 0.568542 0.800000
vt 0.520157 0.800000
vt 0.568139 0.850000
vt 0.519854 0.850000
vt 0.567735 0.900000
vt 0.519551 0.900000
vt 0.471771 0.800000
vt 0.471569 0.850000
vt 0.471368 0.900000
vt 0.423386 0.800000
vt 0.423285 0.850000
vt 0.423184 0.900000
vt 0.375000 0.800000
vt 0.375000 0.850000
vt 0.375000 0.900000
vt 0.567332 0.300000
vt 0.519249 0.300000
vt 0.567735 0.350000
vt 0.519551 0.350000
vt 0.568139 0.400000
vt 0.519854 0.400000
vt 0.471166 0.300000
vt 0.471368 0.350000
vt 0.471569 0.400000
vt 0.423083 0.300000
vt 0.423184 0.350000
vt 0.423285 0.400000
vt 0.375000 0.300000
vt 0.375000 0.350000
vt 0.375000 0.400000
vt 0.615415 0.300000
vt 0.615919 0.350000
vt 0.616423 0.400000
vt 0.616928 0.800000
vt 0.616423 0.850000
vt 0.615919 0.900000
vt 0.375000 0.350000
vt 0.375000 0.368000
vt 0.375000 0.402000
vt 0.375000 0.500000
vt 0.375000 0.412000
vt 0.375000 0.500000
vt 0.375000 0.598000
vt 0.375000 0.458000
vt 0.375000 0.632000
vt 0.375000 0.542000
vt 0.375000 0.588000
vt 0.375000 0.650000
s 0
f 120/1/1 85/2/1 5/3/1 13/4/1
f 72/5/2 33/6/2 6/7/2 17/8/2
f 104/9/3 81/10/3 8/11/3 21/12/3
f 56/13/4 37/14/4 7/15/4 12/16/4
f 29/17/5 44/18/5 9/19/5 3/20/5
f 44/18/6 48/21/6 10/22/6 9/19/6
f 48/21/7 52/23/7 11/24/7 10/22/7
f 52/23/8 56/13/8 12/16/8 11/24/8
f 73/25/9 92/26/9 24/27/9 4/28/9
f 92/26/10 96/29/10 23/30/10 24/27/10
f 96/29/11 100/31/11 22/32/11 23/30/11
f 100/31/12 104/9/12 21/12/12 22/32/12
f 25/33/13 60/34/13 20/35/13 2/36/13
f 60/34/14 64/37/14 19/38/14 20/35/14
f 64/37/15 68/39/15 18/40/15 19/38/15
f 68/39/16 72/5/16 17/8/16 18/40/16
f 77/41/17 108/42/17 16/43/17 1/44/17
f 108/42/18 112/45/18 15/46/18 16/43/18
f 112/45/19 116/47/19 14/48/19 15/46/19
f 116/47/20 120/1/20 13/4/20 14/48/20
f 14/49/21 13/50/21 69/51/21 65/52/21
f 65/52/22 69/51/22 70/53/22 66/54/22
f 66/54/23 70/53/23 71/55/23 67/56/23
f 67/56/24 71/55/24 72/5/24 68/39/24
f 15/57/25 14/49/25 65/52/25 61/58/25
f 61/58/26 65/52/26 66/54/26 62/59/26
f 62/59/27 66/54/27 67/56/27 63/60/27
f 63/60/28 67/56/28 68/39/28 64/37/28
f 16/61/29 15/57/29 61/58/29 57/62/29
f 57/62/30 61/58/30 62/59/30 58/63/30
f 58/63/31 62/59/31 63/60/31 59/64/31
f 59/64/32 63/60/32 64/37/32 60/34/32
f 1/65/33 16/61/33 57/62/33 28/66/33
f 28/66/34 57/62/34 58/63/34 27/67/34
f 27/67/35 58/63/35 59/64/35 26/68/35
f 26/68/36 59/64/36 60/34/36 25/33/36
f 22/32/37 21/12/37 53/69/37 49/70/37
f 49/70/38 53/69/38 54/71/38 50/72/38
f 50/72/39 54/71/39 55/73/39 51/74/39
f 51/74/40 55/73/40 56/13/40 52/23/40
f 23/30/41 22/32/41 49/70/41 45/75/41
f 45/75/42 49/70/42 50/72/42 46/76/42
f 46/76/43 50/72/43 51/74/43 47/77/43
f 47/77/44 51/74/44 52/23/44 48/21/44
f 24/27/45 23/30/45 45/75/45 41/78/45
f 41/78/46 45/75/46 46/76/46 42/79/46
f 42/79/47 46/76/47 47/77/47 43/80/47
f 43/80/48 47/77/48 48/21/48 44/18/48
f 4/28/49 24/27/49 41/78/49 32/81/49
f 32/81/50 41/78/50 42/79/50 31/82/50
f 31/82/51 42/79/51 43/80/51 30/83/51
f 30/83/52 43/80/52 44/18/52 29/17/52
f 21/12/53 8/11/53 40/84/53 53/69/53
f 53/69/54 40/84/54 39/85/54 54/71/54
f 54/71/55 39/85/55 38/86/55 55/73/55
f 55/73/56 38/86/56 37/14/56 56/13/56
f 13/50/57 5/87/57 36/88/57 69/51/57
f 69/51/58 36/88/58 35/89/58 70/53/58
f 70/53/59 35/89/59 34/90/59 71/55/59
f 71/55/60 34/90/60 33/6/60 72/5/60
f 11/24/61 12/16/61 117/91/61 113/92/61
f 113/92/62 117/91/62 118/93/62 114/94/62
f 114/94/63 118/93/63 119/95/63 115/96/63
f 115/96/64 119/95/64 120/1/64 116/47/64
f 10/22/65 11/24/65 113/92/65 109/97/65
f 109/97/66 113/92/66 114/94/66 110/98/66
f 110/98/67 114/94/67 115/96/67 111/99/67
f 111/99/68 115/96/68 116/47/68 112/45/68
f 9/19/69 10/22/69 109/97/69 105/100/69
f 105/100/70 109/97/70 110/98/70 106/101/70
f 106/101/71 110/98/71 111/99/71 107/102/71
f 107/102/72 111/99/72 112/45/72 108/42/72
f 3/20/73 9/19/73 105/100/73 80/103/73
f 80/103/74 105/100/74 106/101/74 79/104/74
f 79/104/75 106/101/75 107/102/75 78/105/75
f 78/105/76 107/102/76 108/42/76 77/41/76
f 18/40/77 17/8/77 101/106/77 97/107/77
f 97/107/78 101/106/78 102/108/78 98/109/78
f 98/109/79 102/108/79 103/110/79 99/111/79
f 99/111/80 103/110/80 104/9/80 100/31/80
f 19/38/81 18/40/81 97/107/81 93/112/81
f 93/112/82 97/107/82 98/109/82 94/113/82
f 94/113/83 98/109/83 99/111/83 95/114/83
f 95/114/84 99/111/84 100/31/84 96/29/84
f 20/35/85 19/38/85 93/112/85 89/115/85
f 89/115/86 93/112/86 94/113/86 90/116/86
f 90/116/87 94/113/87 95/114/87 91/117/87
f 91/117/88 95/114/88 96/29/88 92/26/88
f 2/36/89 20/35/89 89/115/89 76/118/89
f 76/118/90 89/115/90 90/116/90 75/119/90
f 75/119/91 90/116/91 91/117/91 74/120/91
f 74/120/92 91/117/92 92/26/92 73/25/92
f 17/8/93 6/7/93 84/121/93 101/106/93
f 101/106/94 84/121/94 83/122/94 102/108/94
f 102/108/95 83/122/95 82/123/95 103/110/95
f 103/110/96 82/123/96 81/10/96 104/9/96
f 12/16/97 7/15/97 88/124/97 117/91/97
f 117/91/98 88/124/98 87/125/98 118/93/98
f 118/93/99 87/125/99 86/126/99 119/95/99
f 119/95/100 86/126/100 85/2/100 120/1/100
f 76/118/101 121/127/101 25/33/101 2/36/101
f 121/127/102 125/128/102 26/68/102 25/33/102
f 125/128/103 129/129/103 27/67/103 26/68/103
f 129/129/104 133/130/104 28/66/104 27/67/104
f 133/130/105 77/41/105 1/65/105 28/66/105
f 75/119/106 122/131/106 121/127/106 76/118/106
f 122/131/107 126/25/107 125/128/107 121/127/107
f 126/25/108 130/132/108 129/129/108 125/128/108
f 130/132/109 134/133/109 133/130/109 129/129/109
f 134/133/110 78/105/110 77/41/110 133/130/110
f 74/120/111 123/134/111 122/131/111 75/119/111
f 123/134/112 127/28/112 126/25/112 122/131/112
f 127/28/113 131/81/113 130/132/113 126/25/113
f 131/81/114 135/135/114 134/133/114 130/132/114
f 135/135/115 79/104/115 78/105/115 134/133/115
f 73/25/116 124/28/116 123/134/116 74/120/116
f 124/28/117 128/136/117 127/28/117 123/134/117
f 128/136/118 132/137/118 131/81/118 127/28/118
f 132/137/119 136/138/119 135/135/119 131/81/119
f 136/138/120 80/103/120 79/104/120 135/135/120
f 4/28/121 32/81/121 124/28/121 73/25/121
f 32/81/122 31/82/122 128/136/122 124/28/122
f 31/82/123 30/83/123 132/137/123 128/136/123
f 30/83/124 29/17/124 136/138/124 132/137/124
f 29/17/125 3/20/125 80/103/125 136/138/125
