# Blender 5.2.2 LTS
# www.blender.org
o wall_medium_1
v -5.611001 -12.695542 5.807156
v -8.772098 -7.081068 12.452888
v -9.636895 -7.278757 4.549281
v -8.258541 5.396415 12.911889
v -7.979444 10.431326 6.490120
v -9.986097 4.976274 5.063939
v 0.241409 -12.517838 -8.560480
v -4.422626 -6.841662 -9.770657
v 1.538766 -6.502495 -14.892570
v -2.947902 10.969649 -8.059698
v 0.126635 5.997008 -14.625654
v -5.840470 5.499667 -9.695539
v 3.061408 -12.635814 9.847796
v 5.407697 -7.629464 11.840158
v -0.320971 -6.957926 16.603308
v -0.285925 11.985143 8.695557
v 0.487273 6.966533 17.428661
v 3.736190 6.389414 10.280839
v 7.607239 -11.779790 -5.096316
v 11.886336 -7.833298 -12.248169
v 13.931732 -8.442684 -4.298016
v 5.198794 11.941185 -5.730679
v 11.820134 5.618038 -5.074173
v 10.732615 5.091209 -12.891522
v -8.714796 -11.235698 4.655166
v -8.166576 -11.146399 10.239230
v -10.528852 -7.123671 9.456504
v -9.992100 4.995306 10.073341
v -8.843371 9.033062 10.957473
v -10.044889 8.684484 5.397726
v 1.456355 -10.191839 -13.410381
v -2.638515 -10.745588 -9.211375
v -1.761821 -6.524871 -13.943472
v -5.244158 9.241796 -8.946063
v -1.010652 9.742344 -12.960988
v -3.096377 5.664942 -13.871837
v -0.211270 -11.531195 16.186726
v 5.445566 -11.440102 11.313869
v 2.759588 -7.179960 16.205500
v 2.664155 10.740376 9.384097
v -0.893620 10.960418 14.214334
v 2.566912 7.059395 16.686941
v 11.122751 -10.877759 -3.876424
v 9.859788 -11.902466 -10.912868
v 14.526338 -8.492142 -9.164865
v 8.385011 9.790525 -10.844090
v 8.925215 10.191762 -5.063827
v 12.605187 4.912948 -10.470975
v -2.413598 -13.590405 -1.266727
v -7.220206 -7.241064 -2.619275
v -7.235460 -0.768666 13.474845
v -8.778722 -1.193984 5.120313
v -5.603250 11.018702 -0.719917
v -8.629046 5.276398 -2.505960
v 1.212244 -0.478176 -14.340087
v -5.434569 -0.655820 -9.992204
v 3.833463 -12.892816 -7.247942
v 6.817445 -7.245866 -14.488679
v 0.857873 11.924824 -6.882498
v 5.645789 5.697905 -13.968723
v 13.074896 -2.030613 -5.273684
v 10.632511 -1.900718 -12.523534
v 5.708121 -12.648787 1.777601
v 8.885051 -7.096022 3.831554
v 2.191040 12.468061 1.575116
v 7.002728 7.867287 3.392787
v 0.170075 0.051012 16.648273
v 2.930785 -1.144588 11.089778
v -0.870396 -12.733562 7.627927
v -4.616636 -6.933715 14.673457
v -4.274135 11.569777 7.729085
v -4.451298 6.060517 14.656734
v -10.208902 -10.493744 8.546468
v -10.563077 8.092818 9.423938
v -1.008975 -9.568572 -13.044472
v -3.320278 8.858537 -12.855829
v 2.663917 -10.935238 16.156870
v 1.613059 10.830078 14.629559
v 12.905815 -11.781855 -8.385876
v 10.757185 9.122101 -9.402383
v -5.429779 -11.529099 -2.157589
v -8.849581 -1.093560 10.384315
v -7.893186 9.104219 -1.791129
v -2.468584 -0.507056 -13.748672
v 5.548043 -11.301799 -13.087636
v 3.461298 10.107551 -12.099714
v 12.076731 -2.352370 -10.111929
v 8.086937 -11.075230 3.141896
v 5.269247 11.096490 2.369894
v 1.960625 -0.133912 15.766809
v -3.815081 -11.370321 12.796533
v -5.055622 9.941516 12.381196
v 1.805778 -13.711056 0.125615
v -8.265212 -0.915934 -2.753519
v -3.846276 -0.246149 15.335773
v -1.827592 12.173692 0.494557
v 6.876022 -1.186155 -13.657847
v 8.301228 -0.131446 3.870649
v -9.504511 -9.572728 4.465492
v -7.387331 -12.236595 5.126437
v -7.152189 -12.221175 8.347721
v -8.750977 -9.423960 11.533812
v -9.981977 -7.106194 11.125748
v -10.393209 -7.188342 7.288749
v -10.176923 4.913786 7.944676
v -9.321295 5.204295 11.628444
v -8.651144 7.627262 12.097794
v -8.642855 9.897415 9.120962
v -9.261873 9.702281 5.880514
v -10.293827 7.162312 5.129321
v 1.604046 -8.684720 -14.619753
v 1.015451 -11.306676 -11.342816
v -1.351232 -11.849468 -8.913757
v -3.634816 -9.077223 -9.506512
v -3.097457 -6.648649 -12.346466
v -0.307353 -6.457854 -14.708232
v -5.716246 7.695992 -9.352931
v -4.324106 10.268452 -8.527184
v -1.859605 10.577525 -10.866525
v -0.383374 8.255841 -14.213703
v -1.594601 5.807531 -14.577960
v -4.480530 5.582295 -12.285580
v -0.523380 -9.655057 16.952604
v 1.060065 -12.495164 13.759776
v 4.456028 -12.294932 10.667080
v 5.905949 -9.870096 11.751335
v 3.945510 -7.496399 14.704668
v 1.362503 -7.006346 16.752945
v 3.628927 9.071814 9.808793
v 1.349444 11.651829 9.040445
v -1.067434 11.376406 11.346118
v -0.209241 10.109176 16.803186
v 1.850296 7.067072 17.698412
v 2.562925 6.652667 13.460545
v 12.840873 -10.121091 -3.944147
v 9.366995 -11.287024 -4.256464
v 8.747379 -11.942497 -8.417435
v 11.126689 -10.579562 -12.221023
v 13.512291 -8.156869 -10.848817
v 14.750196 -8.640391 -6.999889
v 9.888714 7.807074 -12.318929
v 6.752929 11.148170 -8.611152
v 7.160478 11.364724 -5.309106
v 10.597711 8.273307 -5.049476
v 12.809919 4.984361 -8.288795
v 12.006441 4.944370 -11.926917
v -1.106862 -13.726593 -5.148380
v -3.763309 -12.896694 2.584885
v -8.496209 -7.322918 1.184023
v -5.843837 -7.081895 -6.418902
v -7.946405 -4.076375 13.108466
v -7.950040 2.232442 13.654311
v -9.262136 2.077228 5.129026
v -9.166638 -4.404139 4.839276
v -6.897295 10.798941 3.097623
v -4.237861 11.090451 -4.570399
v -7.251207 5.397233 -6.320849
v -9.584542 5.129699 1.419542
v 0.683202 2.946965 -14.474306
v 1.436925 -3.715877 -14.610441
v -5.003709 -3.949001 -9.940843
v -5.727028 2.618516 -9.912186
v 5.757547 -12.444337 -6.205898
v 1.985290 -12.884714 -8.059435
v 4.008886 -6.816340 -14.826589
v 9.566317 -7.534119 -13.572839
v -1.162329 11.516170 -7.502151
v 2.989411 12.120804 -6.263374
v 8.579316 5.364299 -13.528368
v 2.571141 5.975451 -14.343084
v 12.929970 1.729528 -5.162976
v 13.716757 -5.504132 -4.840871
v 11.230814 -4.752621 -12.357459
v 10.628820 1.647201 -12.724441
v 4.586785 -12.482792 5.862163
v 7.013111 -12.373748 -1.600476
v 11.720729 -7.792117 -0.620507
v 7.202146 -7.287455 8.109522
v 3.546963 12.411841 -2.213723
v 0.863120 12.334608 5.335999
v 5.596176 6.765360 6.852286
v 9.778015 7.626323 -1.206001
v 1.116597 3.466780 17.248386
v -0.312901 -3.621192 16.359608
v 4.017335 -4.702491 11.536180
v 3.293196 2.882462 10.811882
v -3.351734 -12.784572 6.651629
v 1.315734 -12.719772 8.801999
v -2.316437 -6.941236 15.806056
v -6.930766 -7.008879 13.614776
v -2.215614 11.915075 8.259863
v -6.261471 11.054804 7.125228
v -6.672907 5.641953 13.969366
v -1.892371 6.455378 15.602526
v -9.572485 -10.880445 9.310008
v -10.629100 -9.271788 8.961623
v -9.825863 -10.917274 7.082522
v -10.049896 8.547395 10.158506
v -10.536089 8.400640 7.968385
v -10.540447 7.008832 9.769533
v -1.623770 -10.046243 -11.674664
v -1.347242 -8.508401 -13.635717
v -0.049961 -9.861188 -13.314220
v -2.444491 9.314413 -13.057137
v -3.272009 7.751413 -13.502809
v -4.122471 9.121299 -11.466823
v 3.714263 -11.383938 14.622985
v 2.815989 -9.583160 16.500895
v 1.491551 -11.309081 16.424778
v 0.749993 11.199893 14.880998
v 2.215163 10.070083 16.222593
v 1.722006 10.491244 11.988104
v 11.741427 -11.944931 -9.481005
v 14.152637 -11.080280 -8.809016
v 12.373822 -11.463985 -6.635402
v 10.321156 9.582552 -7.821495
v 11.900044 7.640304 -9.993976
v 9.893724 9.543105 -10.083801
v -4.095225 -12.805210 -1.773564
v -6.949971 -11.348401 1.542258
v -6.450537 -9.673203 -2.432761
v -4.014158 -11.447225 -5.927302
v -8.251289 -0.918498 12.088824
v -9.106740 2.168303 10.342755
v -8.949411 -1.199210 8.118355
v -9.729521 -4.312335 10.008807
v -6.960319 10.214837 -1.288609
v -6.544798 9.221292 -5.587282
v -8.427599 7.503495 -2.202896
v -9.139112 8.922405 2.006280
v -0.856848 -0.433329 -14.332870
v -2.120314 -3.736028 -13.862471
v -3.973991 -0.565795 -12.382274
v -2.810382 2.775608 -13.838800
v 4.746713 -12.135364 -10.574081
v 3.415067 -10.701868 -13.382499
v 6.224040 -9.671906 -14.440752
v 7.654627 -11.713446 -12.249364
v 2.106044 11.316942 -9.803422
v 6.160400 9.965164 -11.532539
v 4.674405 8.245477 -13.491944
v 0.900495 10.071944 -12.584098
v 12.562874 -2.320868 -8.242641
v 13.125879 -5.255616 -9.585116
v 11.575833 -2.173244 -11.504376
v 12.177591 1.302065 -10.394249
v 7.096232 -12.036626 2.521146
v 10.066587 -11.046258 -0.545005
v 8.682988 -9.459442 3.597171
v 6.929373 -11.151617 7.395229
v 3.855337 12.039419 2.001183
v 3.896525 10.946167 6.106052
v 6.530984 9.899247 2.756734
v 6.692424 10.915702 -1.447631
v 1.256156 0.034608 16.591125
v 2.121959 -4.054983 15.670256
v 2.355999 -0.595692 13.931563
v 2.740013 3.617738 16.312386
v -2.603521 -12.398062 10.661222
v -1.996643 -11.519135 14.902999
v -4.409752 -9.511908 13.979781
v -6.067688 -11.263600 11.263112
v -4.917090 10.937096 10.425127
v -7.069202 9.514588 11.710774
v -4.784882 8.413929 13.681739
v -3.064373 10.271196 12.956756
v 2.847034 -13.867455 -3.699351
v 3.918869 -13.212416 0.947018
v 0.673300 -12.904211 4.141537
v -0.390094 -13.901146 -0.626647
v -8.705716 -1.077299 1.341072
v -8.562629 2.378178 -2.687693
v -6.894284 -0.789999 -6.593740
v -7.833269 -4.243082 -2.731975
v -1.494174 -0.038770 16.077667
v -4.128465 2.821374 15.432817
v -5.778979 -0.575319 14.588784
v -4.179641 -3.723666 15.176601
v -0.443581 12.165142 -3.358795
v -3.840459 11.671813 -0.113351
v -3.151728 11.980180 4.311470
v 0.245717 12.472571 1.067101
v 4.028913 -0.766453 -14.030269
v 6.414873 2.403882 -13.803752
v 9.062188 -1.578571 -13.230803
v 7.093753 -4.346969 -13.981486
v 11.969693 -0.929708 -0.651315
v 7.872860 5.105616 4.218150
v 5.142924 -0.882557 7.637074
v 8.652478 -3.958119 3.823613
v -8.757877 -11.805134 7.579874
v -10.050170 -9.336416 10.376295
v -10.442520 -9.398173 7.030861
v -9.897705 7.251712 11.098915
v -9.871703 9.272521 8.460625
v -10.652788 7.014935 7.851189
v -0.457908 -10.824099 -11.501150
v -2.449357 -8.682114 -12.015811
v -0.078661 -8.509254 -14.385062
v -3.243580 9.998365 -11.191131
v -1.963192 7.969051 -14.183401
v -4.472108 7.708841 -11.893716
v 2.601214 -12.187249 14.318159
v 4.202139 -9.835113 14.876367
v 1.271720 -9.572897 17.113523
v 0.500324 11.176107 11.630701
v 1.338806 10.470975 17.412930
v 2.495781 9.134338 12.794600
v 10.644430 -11.743170 -7.297915
v 13.017566 -10.893862 -10.613207
v 14.017227 -10.723585 -6.636903
v 8.695518 10.618900 -8.106202
v 11.901995 7.742432 -7.958339
v 11.262004 7.703266 -11.373334
v -2.709134 -12.805073 -5.583669
v -5.548530 -12.365527 1.986014
v -7.983494 -9.675529 1.265497
v -5.043743 -9.549784 -6.206176
v -9.146367 -4.216249 11.749291
v -8.699777 2.226950 12.137047
v -9.298575 2.052500 8.120072
v -9.663981 -4.374485 7.737710
v -8.229927 10.007870 2.512959
v -5.608000 10.315423 -5.109012
v -7.067745 7.625525 -6.000951
v -9.609621 7.347278 1.630458
v -1.217438 2.873477 -14.465350
v -0.556855 -3.664459 -14.521855
v -3.580607 -3.819365 -12.415760
v -4.290905 2.709450 -12.399545
v 6.614501 -12.124251 -9.623423
v 2.852586 -11.797158 -11.120330
v 3.780206 -9.115347 -14.663607
v 8.699880 -10.171084 -13.658863
v -0.061091 11.036611 -10.383325
v 4.514321 11.341794 -9.203845
v 7.583559 7.992589 -12.993507
v 1.801469 8.397876 -13.905833
v 12.539515 1.417233 -8.405832
v 13.619680 -5.499703 -7.630951
v 12.384675 -4.977466 -11.136620
v 11.661570 1.403180 -11.772798
v 5.965692 -12.056770 6.685337
v 8.688725 -11.771703 -0.923934
v 11.167313 -9.808409 -0.459395
v 7.462162 -9.559503 7.905797
v 5.203443 11.978189 -1.768244
v 2.528735 11.932800 5.735381
v 4.966525 9.257656 6.506211
v 8.086317 9.341625 -1.332511
v 2.157753 3.563765 17.202213
v 1.043696 -3.776872 16.346361
v 2.974101 -4.443683 14.110368
v 2.854584 3.462689 14.131181
v -4.950274 -12.335274 9.282469
v -0.691782 -12.511568 12.530772
v -2.428283 -9.631745 15.813312
v -6.759369 -9.448865 12.648372
v -2.913908 11.270652 10.955046
v -6.902748 10.457724 9.798299
v -6.857039 8.042695 12.949274
v -2.552266 9.038427 14.826873
v 0.775904 -14.219474 -4.590277
v 5.009773 -13.107870 -2.585153
v 2.795590 -12.689162 4.995639
v -1.607949 -13.048826 3.322024
v -8.564067 -4.374703 1.262510
v -9.166078 2.222101 1.355322
v -7.176052 2.498287 -6.518580
v -6.445261 -4.104824 -6.554939
v -2.034225 -3.603209 15.933916
v -0.892846 3.203060 16.424408
v -6.567380 2.385780 14.811535
v -6.225322 -3.895342 14.231765
v 1.623121 12.431176 -2.757396
v -2.462249 11.704344 -3.976287
v -5.153231 11.457770 3.711487
v -1.082587 12.308146 4.860016
v 4.149334 -4.002858 -14.385780
v 3.383938 2.761232 -14.178534
v 8.877725 1.999923 -13.364393
v 9.517550 -4.597100 -13.309237
v 11.815311 -4.805418 -0.843586
v 11.914150 3.887597 -0.118466
v 5.446867 3.121028 7.231241
v 6.054968 -4.387970 7.951915
v 10.760076 7.460688 1.768878
v 7.154326 6.718565 6.575068
vn -0.2599 -0.9654 0.0236
vn -0.3683 -0.8800 0.2999
vn -0.6363 -0.7667 0.0851
vn -0.5686 -0.8059 -0.1653
vn -0.6855 -0.2433 0.6862
vn -0.9379 -0.0610 0.3415
vn -0.8138 -0.4567 0.3594
vn -0.5355 -0.6021 0.5922
vn -0.9525 0.0055 -0.3045
vn -0.8597 -0.4037 -0.3130
vn -0.9349 -0.3401 -0.1018
vn -0.9956 0.0481 -0.0805
vn -0.7091 0.0600 0.7026
vn -0.6275 0.4233 0.6535
vn -0.8831 0.1712 0.4368
vn -0.8891 -0.1581 0.4296
vn -0.4902 0.8706 0.0412
vn -0.7718 0.6311 -0.0775
vn -0.8008 0.5826 0.1387
vn -0.5378 0.7889 0.2972
vn -0.9784 -0.1795 -0.1027
vn -0.9693 -0.2340 0.0755
vn -0.9987 0.0407 0.0291
vn -0.9790 0.1424 -0.1457
vn -0.2511 -0.8634 -0.4376
vn -0.4910 -0.7508 -0.4419
vn -0.4115 -0.7734 -0.4823
vn -0.2187 -0.8395 -0.4973
vn -0.8269 -0.3405 -0.4476
vn -0.7489 -0.2926 -0.5946
vn -0.6845 -0.5237 -0.5072
vn -0.7270 -0.5287 -0.4381
vn -0.1257 -0.1468 -0.9811
vn -0.1769 -0.6092 -0.7731
vn -0.4046 -0.5598 -0.7231
vn -0.4713 -0.2091 -0.8568
vn -0.3483 0.9041 -0.2475
vn -0.2449 0.8668 -0.4344
vn -0.5229 0.7143 -0.4650
vn -0.6275 0.7098 -0.3200
vn -0.0478 0.1701 -0.9843
vn -0.4506 0.1017 -0.8869
vn -0.4505 0.4572 -0.7668
vn -0.1272 0.6084 -0.7834
vn -0.8877 0.1035 -0.4486
vn -0.8462 0.3486 -0.4029
vn -0.7757 0.3237 -0.5418
vn -0.7765 0.0820 -0.6248
vn 0.1626 -0.9800 0.1151
vn 0.5118 -0.8112 0.2828
vn 0.3874 -0.7681 0.5098
vn 0.0516 -0.9155 0.3991
vn 0.8755 0.1526 0.4585
vn 0.7772 0.1123 0.6192
vn 0.7260 -0.2887 0.6241
vn 0.8245 -0.3493 0.4451
vn -0.0894 0.1380 0.9864
vn -0.0719 -0.3817 0.9215
vn 0.3301 -0.2929 0.8974
vn 0.3707 0.1190 0.9211
vn 0.1145 0.9651 0.2353
vn -0.0318 0.9973 0.0661
vn 0.4531 0.8890 -0.0655
vn 0.4564 0.8461 0.2754
vn -0.2995 0.0771 0.9510
vn 0.8129 0.1744 0.5557
vn 0.5073 0.8469 0.1593
vn -0.3065 0.8854 0.3494
vn 0.9331 0.1072 0.3434
vn 0.7674 0.5646 0.3038
vn 0.8625 0.5035 -0.0504
vn 0.9964 0.0811 0.0251
vn 0.1121 -0.9840 0.1383
vn 0.0138 -0.9991 0.0410
vn 0.0572 -0.9864 0.1540
vn 0.1229 -0.9661 0.2272
vn 0.6205 -0.1785 -0.7636
vn 0.8221 -0.1935 -0.5355
vn 0.3979 -0.8589 -0.3225
vn 0.3080 -0.8221 -0.4788
vn 0.8616 -0.3472 0.3701
vn 0.3861 -0.8504 0.3573
vn 0.4613 -0.8580 0.2260
vn 0.9727 -0.2318 -0.0087
vn 0.2927 0.9511 -0.0985
vn 0.5358 0.8408 0.0776
vn 0.5349 0.8369 -0.1157
vn 0.3148 0.8980 -0.3074
vn 0.9010 0.3366 0.2735
vn 0.9554 0.2896 -0.0587
vn 0.7726 0.6348 -0.0060
vn 0.7403 0.6334 0.2253
vn 0.5739 0.3214 -0.7532
vn 0.4176 0.7171 -0.5579
vn 0.6593 0.6800 -0.3207
vn 0.8775 0.3019 -0.3727
vn -0.3253 -0.8545 -0.4049
vn -0.4266 -0.8945 -0.1335
vn -0.6493 -0.7191 -0.2478
vn -0.5710 -0.7091 -0.4137
vn -0.3571 -0.9340 0.0076
vn -0.2375 -0.9674 -0.0874
vn -0.5143 -0.8156 -0.2649
vn -0.6009 -0.7800 -0.1747
vn -0.7974 -0.5137 -0.3167
vn -0.7834 -0.4829 -0.3913
vn -0.9202 -0.1276 -0.3702
vn -0.9030 -0.2611 -0.3411
vn -0.7624 -0.4994 -0.4115
vn -0.8118 -0.4903 -0.3171
vn -0.8879 -0.3120 -0.3380
vn -0.8556 -0.3293 -0.3993
vn -0.7448 0.0658 0.6641
vn -0.7785 0.1235 0.6153
vn -0.9280 0.2197 0.3009
vn -0.9311 0.2048 0.3018
vn -0.8366 -0.1775 0.5183
vn -0.8389 -0.0162 0.5440
vn -0.9282 -0.1988 0.3146
vn -0.9539 -0.1053 0.2811
vn -0.9934 -0.0920 0.0691
vn -0.9529 -0.2880 0.0955
vn -0.9622 -0.2694 -0.0412
vn -0.9914 -0.1265 -0.0349
vn -0.9614 0.2704 -0.0513
vn -0.9702 0.2421 -0.0016
vn -0.9773 0.1803 -0.1115
vn -0.9494 0.2282 -0.2160
vn -0.4799 0.8751 -0.0629
vn -0.4717 0.8749 -0.1097
vn -0.7042 0.6818 -0.1982
vn -0.7322 0.6628 -0.1566
vn -0.4527 0.8805 -0.1406
vn -0.4151 0.8925 -0.1764
vn -0.6701 0.6959 -0.2583
vn -0.6913 0.6865 -0.2255
vn -0.8791 0.3688 -0.3019
vn -0.8681 0.3633 -0.3382
vn -0.9194 0.1200 -0.3745
vn -0.9346 0.1272 -0.3321
vn -0.9439 0.2612 -0.2018
vn -0.8968 0.3507 -0.2698
vn -0.9625 0.0685 -0.2625
vn -0.9861 -0.0649 -0.1530
vn -0.0123 -0.0460 -0.9989
vn -0.0038 -0.0401 -0.9992
vn -0.3494 -0.0688 -0.9345
vn -0.3902 -0.0674 -0.9183
vn -0.0219 0.0690 -0.9974
vn -0.0687 0.0792 -0.9945
vn -0.4266 -0.0031 -0.9044
vn -0.3650 0.0070 -0.9310
vn -0.6853 -0.0619 -0.7256
vn -0.7285 -0.1077 -0.6765
vn -0.8592 -0.1798 -0.4790
vn -0.8530 -0.1088 -0.5105
vn -0.7240 -0.0501 -0.6880
vn -0.6808 -0.0803 -0.7281
vn -0.8562 -0.0748 -0.5113
vn -0.8755 -0.0184 -0.4828
vn 0.1893 -0.9814 0.0332
vn 0.1764 -0.9782 -0.1100
vn 0.0069 -0.9725 -0.2330
vn 0.0399 -0.9967 -0.0710
vn 0.0107 -0.9615 -0.2747
vn -0.1374 -0.9080 -0.3958
vn -0.1936 -0.8549 -0.4813
vn -0.1271 -0.9066 -0.4025
vn -0.0679 -0.6189 -0.7825
vn -0.1410 -0.6065 -0.7825
vn -0.0107 -0.0964 -0.9953
vn 0.0947 -0.0608 -0.9936
vn 0.2549 -0.7657 -0.5905
vn 0.1167 -0.6875 -0.7167
vn 0.2973 -0.0786 -0.9515
vn 0.4830 -0.1364 -0.8649
vn -0.2024 0.9533 -0.2240
vn -0.0964 0.9705 -0.2209
vn 0.0341 0.9066 -0.4207
vn -0.0950 0.9032 -0.4185
vn 0.0129 0.9744 -0.2245
vn 0.1306 0.9724 -0.1935
vn 0.1891 0.8962 -0.4013
vn 0.1178 0.8974 -0.4253
vn 0.1844 0.6651 -0.7236
vn 0.2580 0.6916 -0.6747
vn 0.2974 0.2908 -0.9094
vn 0.1782 0.2536 -0.9508
vn 0.0529 0.6459 -0.7616
vn 0.1371 0.6534 -0.7445
vn 0.1441 0.2276 -0.9630
vn 0.1184 0.2085 -0.9708
vn 0.9911 0.1095 0.0759
vn 0.9891 0.0212 -0.1458
vn 0.9766 -0.0231 -0.2138
vn 0.9870 -0.0952 -0.1298
vn 0.9668 0.2290 -0.1136
vn 0.9644 0.2363 0.1184
vn 0.9288 0.3474 -0.1287
vn 0.9332 0.2813 -0.2235
vn 0.9070 0.2412 -0.3452
vn 0.8623 0.2943 -0.4120
vn 0.6936 0.1529 -0.7039
vn 0.7379 0.1209 -0.6640
vn 0.9230 -0.1116 -0.3682
vn 0.9359 -0.0507 -0.3486
vn 0.6978 -0.0551 -0.7141
vn 0.6295 -0.0760 -0.7733
vn 0.2417 -0.9693 0.0445
vn 0.3001 -0.9488 0.0987
vn 0.6224 -0.7661 0.1604
vn 0.5911 -0.7882 0.1714
vn 0.3394 -0.9381 0.0699
vn 0.3366 -0.9378 -0.0854
vn 0.3412 -0.9400 -0.0033
vn 0.5035 -0.8361 0.2177
vn 0.7312 -0.5187 0.4430
vn 0.5596 -0.7930 0.2409
vn 0.8217 -0.2980 0.4858
vn 0.8295 -0.1521 0.5373
vn 0.8748 -0.3689 0.3141
vn 0.8910 -0.3857 0.2396
vn 0.9473 -0.0184 0.3197
vn 0.9033 0.1252 0.4103
vn 0.2710 0.9625 -0.0093
vn 0.2338 0.9699 0.0686
vn 0.5329 0.8293 0.1682
vn 0.5396 0.8263 0.1615
vn 0.2154 0.9706 0.1074
vn 0.1813 0.9711 0.1552
vn 0.5143 0.8206 0.2491
vn 0.5173 0.8283 0.2154
vn 0.6852 0.6456 0.3372
vn 0.7681 0.5472 0.3325
vn 0.8797 0.1939 0.4341
vn 0.8542 0.3001 0.4246
vn 0.7102 0.6348 0.3043
vn 0.6903 0.6968 0.1950
vn 0.6514 0.6689 0.3581
vn 0.8002 0.5397 0.2615
vn -0.0834 -0.1069 0.9908
vn 0.0547 -0.1857 0.9811
vn 0.7614 -0.2695 0.5896
vn 0.8258 -0.0135 0.5638
vn 0.0236 -0.0733 0.9970
vn -0.0381 0.0967 0.9946
vn 0.4631 0.1978 0.8639
vn 0.6378 -0.0382 0.7692
vn 0.9418 0.0979 0.3215
vn 0.8241 0.3022 0.4791
vn 0.8471 0.3890 0.3622
vn 0.9400 0.2371 0.2455
vn 0.9974 0.0705 0.0131
vn 0.9733 -0.1736 0.1502
vn 0.9784 -0.1024 0.1797
vn 0.9710 0.0208 0.2381
vn -0.0929 -0.9884 0.1201
vn -0.0540 -0.9929 0.1058
vn -0.2418 -0.9129 0.3288
vn -0.2202 -0.8995 0.3774
vn -0.0594 -0.9971 0.0473
vn -0.0007 -0.9990 0.0452
vn -0.1963 -0.9403 0.2780
vn -0.3158 -0.9191 0.2356
vn -0.6397 -0.5010 0.5828
vn -0.4976 -0.4331 0.7516
vn -0.4424 0.0849 0.8928
vn -0.5679 -0.1164 0.8148
vn -0.3726 -0.6421 0.6700
vn -0.4335 -0.6134 0.6601
vn -0.4326 -0.3124 0.8457
vn -0.4773 -0.3388 0.8108
vn -0.0900 0.9749 0.2036
vn -0.2069 0.9623 0.1765
vn -0.2605 0.8697 0.4194
vn -0.2918 0.9181 0.2682
vn -0.2833 0.9473 0.1492
vn -0.3588 0.9270 0.1094
vn -0.3984 0.8408 0.3664
vn -0.3247 0.8556 0.4032
vn -0.3644 0.5668 0.7389
vn -0.4551 0.5285 0.7166
vn -0.5129 0.2601 0.8181
vn -0.3505 0.3297 0.8766
vn -0.5908 0.6584 0.4663
vn -0.4101 0.6353 0.6544
vn -0.4294 0.2239 0.8749
vn -0.6345 0.0386 0.7720
vn -0.1070 -0.9190 -0.3795
vn 0.1926 -0.9484 -0.2518
vn 0.0926 -0.9919 0.0867
vn -0.1997 -0.9798 -0.0062
vn 0.3433 -0.9302 -0.1295
vn 0.3828 -0.9194 -0.0903
vn 0.3009 -0.9522 0.0520
vn 0.2484 -0.9654 0.0788
vn 0.0909 -0.9782 0.1868
vn 0.1516 -0.9805 0.1249
vn 0.0782 -0.9969 0.0067
vn 0.0368 -0.9987 0.0344
vn -0.1553 -0.9775 0.1426
vn 0.0014 -0.9789 0.2043
vn 0.0144 -0.9974 0.0706
vn -0.0667 -0.9972 0.0342
vn -0.9666 0.0822 -0.2429
vn -0.9950 0.0427 -0.0905
vn -0.9857 -0.0841 -0.1458
vn -0.9617 -0.1116 -0.2505
vn -0.9895 -0.1420 -0.0271
vn -0.9785 -0.1925 -0.0734
vn -0.9782 -0.0735 -0.1942
vn -0.9851 -0.1116 -0.1307
vn -0.9376 -0.0752 -0.3395
vn -0.9404 -0.0007 -0.3400
vn -0.9211 -0.0021 -0.3893
vn -0.9160 -0.0708 -0.3949
vn -0.9184 -0.2009 -0.3409
vn -0.9319 -0.1267 -0.3399
vn -0.9101 -0.1266 -0.3946
vn -0.8972 -0.2013 -0.3931
vn -0.3122 0.0301 0.9496
vn -0.2819 -0.0175 0.9593
vn -0.3161 -0.0016 0.9487
vn -0.3898 -0.0458 0.9197
vn -0.3501 -0.0516 0.9353
vn -0.5110 -0.0417 0.8586
vn -0.3323 0.1611 0.9293
vn -0.2908 -0.0525 0.9553
vn -0.2811 -0.1005 0.9544
vn -0.3000 0.2119 0.9301
vn -0.6041 0.1540 0.7819
vn -0.5965 -0.2028 0.7766
vn -0.4120 -0.0863 0.9071
vn -0.3885 -0.0254 0.9211
vn -0.5766 0.0115 0.8170
vn -0.5374 -0.0407 0.8423
vn 0.0689 0.9943 -0.0810
vn -0.0779 0.9912 -0.1072
vn -0.1211 0.9914 -0.0500
vn 0.0088 0.9999 -0.0097
vn -0.1727 0.9773 -0.1231
vn -0.2655 0.9539 -0.1400
vn -0.3065 0.9470 -0.0962
vn -0.2108 0.9748 -0.0724
vn -0.2385 0.9707 -0.0305
vn -0.3315 0.9416 -0.0596
vn -0.3457 0.9383 -0.0050
vn -0.2601 0.9651 0.0300
vn -0.0143 0.9993 0.0344
vn -0.1483 0.9889 -0.0052
vn -0.1754 0.9828 0.0578
vn -0.0468 0.9945 0.0935
vn 0.0702 0.1272 -0.9894
vn 0.1062 0.1013 -0.9892
vn 0.1466 0.1121 -0.9828
vn 0.1465 0.1515 -0.9775
vn 0.1072 -0.0223 -0.9940
vn 0.1106 -0.0259 -0.9935
vn 0.1196 -0.0212 -0.9926
vn 0.1232 -0.0219 -0.9921
vn 0.1795 -0.0222 -0.9835
vn 0.1577 -0.0235 -0.9872
vn 0.3052 -0.0375 -0.9516
vn 0.3698 -0.0338 -0.9285
vn 0.3024 0.1132 -0.9464
vn 0.2428 0.0893 -0.9660
vn 0.4579 0.0689 -0.8863
vn 0.4968 0.0803 -0.8641
vn 0.8844 0.0775 0.4603
vn 0.9463 0.0731 0.3148
vn 0.8027 0.0020 0.5964
vn 0.8379 0.0394 0.5445
vn 0.9772 0.0069 0.2121
vn 0.9072 0.4022 0.1232
vn 0.7517 -0.0215 0.6591
vn 0.7689 0.0144 0.6392
vn 0.8681 -0.0087 0.4963
vn 0.8502 -0.0258 0.5259
vn 0.8649 0.2102 0.4559
vn 0.7866 0.1573 0.5970
vn 0.8101 0.2845 0.5126
vn 0.8026 0.3856 0.4551
vn 0.1150 0.9932 0.0173
vn 0.8686 0.4197 -0.2634
vn 0.7045 -0.1400 0.6958
vn 0.2375 0.9172 0.3198
vn 0.0877 0.9383 0.3345
vn 0.1771 0.0946 0.9796
vn 0.7606 -0.4039 0.5083
vn 0.8298 -0.3091 0.4645
vn 0.9034 0.3043 0.3021
vt 0.195651 0.682039
vt 0.196714 0.704124
vt 0.174671 0.702391
vt 0.173168 0.681606
vt 0.195648 0.721626
vt 0.174034 0.717597
vt 0.162174 0.714050
vt 0.158807 0.702875
vt 0.155585 0.683276
vt 0.170250 0.750000
vt 0.158938 0.738688
vt 0.168314 0.728921
vt 0.189645 0.735901
vt 0.147625 0.727375
vt 0.155608 0.720069
vt 0.125000 0.704749
vt 0.141024 0.689057
vt 0.146865 0.707934
vt 0.136313 0.716062
vt 0.579750 0.000000
vt 0.591062 0.011313
vt 0.582803 0.021785
vt 0.563822 0.015929
vt 0.602375 0.022625
vt 0.594843 0.030458
vt 0.588642 0.036902
vt 0.577535 0.033590
vt 0.557783 0.030341
vt 0.625000 0.045250
vt 0.609096 0.063443
vt 0.603354 0.042936
vt 0.613688 0.033938
vt 0.594785 0.069423
vt 0.591797 0.048501
vt 0.555792 0.069847
vt 0.555800 0.047681
vt 0.576661 0.049191
vt 0.577672 0.070753
vt 0.195651 0.567961
vt 0.173168 0.568395
vt 0.174671 0.547610
vt 0.196714 0.545876
vt 0.155585 0.566724
vt 0.158807 0.547125
vt 0.162174 0.535950
vt 0.174034 0.532403
vt 0.195648 0.528374
vt 0.125000 0.545250
vt 0.136313 0.533938
vt 0.146865 0.542066
vt 0.141024 0.560943
vt 0.147625 0.522625
vt 0.155608 0.529932
vt 0.170250 0.500000
vt 0.189645 0.514099
vt 0.168314 0.521079
vt 0.158938 0.511313
vt 0.625000 0.234916
vt 0.610288 0.269455
vt 0.601960 0.241458
vt 0.608755 0.213687
vt 0.595950 0.286604
vt 0.591390 0.259041
vt 0.586667 0.243028
vt 0.590984 0.226660
vt 0.594559 0.201261
vt 0.554710 0.300598
vt 0.554429 0.271215
vt 0.575976 0.267412
vt 0.577949 0.295788
vt 0.554306 0.245096
vt 0.574744 0.243893
vt 0.555554 0.192313
vt 0.577456 0.194902
vt 0.575802 0.220932
vt 0.554802 0.219617
vt 0.318857 0.684095
vt 0.345789 0.683590
vt 0.348907 0.706589
vt 0.323237 0.708088
vt 0.370623 0.683555
vt 0.371162 0.705818
vt 0.371712 0.719802
vt 0.356521 0.724793
vt 0.331897 0.728616
vt 0.423766 0.686768
vt 0.420549 0.712121
vt 0.393837 0.708242
vt 0.395823 0.684747
vt 0.413507 0.733653
vt 0.387654 0.726367
vt 0.375000 0.772625
vt 0.347406 0.747738
vt 0.372885 0.739636
vt 0.400180 0.752742
vt 0.647625 0.750000
vt 0.622097 0.777139
vt 0.613202 0.750377
vt 0.625285 0.720787
vt 0.602300 0.792538
vt 0.598029 0.767099
vt 0.592549 0.751258
vt 0.599014 0.734610
vt 0.605199 0.706506
vt 0.552949 0.803190
vt 0.552334 0.775610
vt 0.578343 0.774084
vt 0.580145 0.800441
vt 0.552745 0.750495
vt 0.577478 0.751299
vt 0.556357 0.695847
vt 0.582842 0.699290
vt 0.579730 0.727755
vt 0.554367 0.724812
vt 0.318856 0.565906
vt 0.323237 0.541913
vt 0.348907 0.543411
vt 0.345789 0.566410
vt 0.331897 0.521384
vt 0.356521 0.525206
vt 0.371712 0.530195
vt 0.371162 0.544180
vt 0.370623 0.566445
vt 0.375000 0.477375
vt 0.400178 0.497164
vt 0.372885 0.510351
vt 0.347406 0.502259
vt 0.413507 0.516293
vt 0.387654 0.523621
vt 0.423767 0.563226
vt 0.395823 0.565251
vt 0.393837 0.541752
vt 0.420549 0.537858
vt 0.647625 0.500000
vt 0.625284 0.528663
vt 0.613196 0.497788
vt 0.622054 0.467688
vt 0.605199 0.543190
vt 0.599014 0.514573
vt 0.592549 0.497350
vt 0.598016 0.480294
vt 0.602198 0.451898
vt 0.556357 0.554072
vt 0.554367 0.524922
vt 0.579730 0.521810
vt 0.582842 0.550557
vt 0.552745 0.498729
vt 0.577478 0.497603
vt 0.552719 0.443508
vt 0.579964 0.444916
vt 0.578320 0.473497
vt 0.552305 0.472599
vt 0.194589 0.595063
vt 0.171944 0.595056
vt 0.194174 0.625000
vt 0.171511 0.625000
vt 0.153346 0.625000
vt 0.153832 0.593802
vt 0.194589 0.654938
vt 0.171944 0.654944
vt 0.153832 0.656198
vt 0.138779 0.659569
vt 0.138362 0.625000
vt 0.125000 0.664875
vt 0.125000 0.625000
vt 0.138779 0.590431
vt 0.125000 0.585125
vt 0.420251 0.000000
vt 0.460125 0.000000
vt 0.459446 0.012003
vt 0.420251 0.011313
vt 0.500000 0.000000
vt 0.497753 0.012682
vt 0.496054 0.026693
vt 0.458925 0.024793
vt 0.420251 0.022625
vt 0.539875 0.000000
vt 0.533842 0.013544
vt 0.529878 0.028275
vt 0.528250 0.045956
vt 0.495278 0.043549
vt 0.527984 0.068292
vt 0.495105 0.065500
vt 0.458673 0.039563
vt 0.420251 0.033938
vt 0.458604 0.059934
vt 0.420251 0.045250
vt 0.625000 0.092667
vt 0.611288 0.096969
vt 0.625000 0.140084
vt 0.611686 0.136842
vt 0.596810 0.133817
vt 0.596381 0.099073
vt 0.625000 0.187500
vt 0.611253 0.177212
vt 0.596350 0.169213
vt 0.578500 0.164251
vt 0.578828 0.131214
vt 0.556085 0.161589
vt 0.556270 0.129182
vt 0.578529 0.098948
vt 0.556115 0.097693
vt 0.525463 0.303657
vt 0.526435 0.273607
vt 0.491538 0.305055
vt 0.493477 0.274801
vt 0.494328 0.247706
vt 0.526963 0.246412
vt 0.455029 0.303885
vt 0.457473 0.274433
vt 0.420251 0.295251
vt 0.420251 0.272625
vt 0.420251 0.250000
vt 0.458169 0.248889
vt 0.458431 0.223689
vt 0.494751 0.221117
vt 0.420251 0.227375
vt 0.420251 0.204750
vt 0.458542 0.195784
vt 0.494975 0.192582
vt 0.527405 0.219805
vt 0.527781 0.191600
vt 0.288201 0.565793
vt 0.292364 0.541554
vt 0.255630 0.566202
vt 0.258693 0.542342
vt 0.262735 0.522264
vt 0.299399 0.520696
vt 0.223842 0.567028
vt 0.225634 0.543907
vt 0.226525 0.524930
vt 0.225149 0.508937
vt 0.267495 0.504811
vt 0.221438 0.494344
vt 0.272625 0.488687
vt 0.310150 0.501707
vt 0.323813 0.483031
vt 0.630656 0.301187
vt 0.615813 0.314748
vt 0.636313 0.367458
vt 0.619904 0.368147
vt 0.601840 0.369040
vt 0.599401 0.324837
vt 0.641969 0.433729
vt 0.622907 0.421641
vt 0.603157 0.413308
vt 0.580694 0.409611
vt 0.580467 0.370341
vt 0.553434 0.409403
vt 0.554143 0.372233
vt 0.579519 0.331060
vt 0.554617 0.334962
vt 0.524944 0.556501
vt 0.523003 0.527515
vt 0.490588 0.558701
vt 0.488115 0.530455
vt 0.484697 0.504646
vt 0.520937 0.500996
vt 0.455968 0.560963
vt 0.452824 0.533953
vt 0.447286 0.509830
vt 0.439083 0.486460
vt 0.480811 0.478974
vt 0.432545 0.459124
vt 0.478648 0.450182
vt 0.519351 0.474491
vt 0.518851 0.445283
vt 0.316648 0.655792
vt 0.344317 0.655663
vt 0.315972 0.625000
vt 0.343866 0.625000
vt 0.370151 0.625000
vt 0.370273 0.655723
vt 0.316648 0.594209
vt 0.344317 0.594337
vt 0.370273 0.594277
vt 0.396582 0.593760
vt 0.396787 0.625000
vt 0.425271 0.592892
vt 0.425709 0.625000
vt 0.396582 0.656240
vt 0.425271 0.657108
vt 0.660694 0.567151
vt 0.632759 0.573925
vt 0.663855 0.624997
vt 0.635212 0.624990
vt 0.610589 0.624986
vt 0.609192 0.581442
vt 0.660694 0.682830
vt 0.632759 0.675999
vt 0.609192 0.668486
vt 0.585015 0.664095
vt 0.585789 0.624990
vt 0.557773 0.661901
vt 0.558284 0.624997
vt 0.585015 0.585861
vt 0.557773 0.588080
vt 0.519053 0.802601
vt 0.519376 0.774323
vt 0.478779 0.798618
vt 0.480827 0.770329
vt 0.484697 0.745051
vt 0.520937 0.748494
vt 0.432607 0.790341
vt 0.439091 0.763209
vt 0.447286 0.740020
vt 0.452824 0.715996
vt 0.488116 0.719446
vt 0.455968 0.689024
vt 0.490588 0.691273
vt 0.523003 0.722318
vt 0.524944 0.693455
vt 0.223842 0.682973
vt 0.225634 0.706093
vt 0.255630 0.683798
vt 0.258693 0.707659
vt 0.262735 0.727736
vt 0.226525 0.725071
vt 0.288201 0.684207
vt 0.292364 0.708446
vt 0.299399 0.729304
vt 0.310150 0.748293
vt 0.267495 0.745189
vt 0.323813 0.766969
vt 0.272625 0.761313
vt 0.225149 0.741063
vt 0.221438 0.755656
vt 0.641969 0.801188
vt 0.623069 0.815421
vt 0.636313 0.852375
vt 0.620400 0.859976
vt 0.603188 0.866355
vt 0.603567 0.826386
vt 0.630656 0.903562
vt 0.617096 0.906890
vt 0.625000 0.954750
vt 0.613688 0.954750
vt 0.602375 0.954750
vt 0.602720 0.909750
vt 0.586279 0.911753
vt 0.583118 0.870544
vt 0.591062 0.954750
vt 0.579750 0.954750
vt 0.563992 0.912823
vt 0.557594 0.872591
vt 0.581457 0.832883
vt 0.554412 0.835649
vt 0.222478 0.594720
vt 0.253750 0.594374
vt 0.253116 0.625000
vt 0.221976 0.625000
vt 0.285926 0.594197
vt 0.285207 0.625000
vt 0.285926 0.655804
vt 0.253750 0.655626
vt 0.222478 0.655280
vt 0.458599 0.090359
vt 0.420251 0.085125
vt 0.495112 0.094025
vt 0.495135 0.126770
vt 0.458605 0.125869
vt 0.420251 0.125000
vt 0.528057 0.096214
vt 0.528122 0.127783
vt 0.528032 0.160386
vt 0.495095 0.160537
vt 0.458591 0.162108
vt 0.420251 0.164875
vt 0.435210 0.826542
vt 0.386313 0.818156
vt 0.480583 0.832582
vt 0.485533 0.871116
vt 0.442546 0.867845
vt 0.397625 0.863688
vt 0.520657 0.835565
vt 0.524607 0.872757
vt 0.531170 0.912978
vt 0.492327 0.912303
vt 0.539875 0.954750
vt 0.500000 0.954750
vt 0.451128 0.910943
vt 0.408938 0.909219
vt 0.460125 0.954750
vt 0.420251 0.954750
vt 0.693156 0.511313
vt 0.697891 0.568601
vt 0.738687 0.522625
vt 0.740372 0.573813
vt 0.741138 0.625000
vt 0.699816 0.625000
vt 0.784219 0.533938
vt 0.784702 0.579469
vt 0.829750 0.545251
vt 0.829750 0.585125
vt 0.829750 0.625000
vt 0.784922 0.625000
vt 0.784702 0.670531
vt 0.740373 0.676188
vt 0.829750 0.664875
vt 0.829750 0.704750
vt 0.784219 0.716062
vt 0.738687 0.727375
vt 0.697891 0.681398
vt 0.693156 0.738688
vt 0.449155 0.341134
vt 0.408938 0.340782
vt 0.488051 0.340210
vt 0.483807 0.378180
vt 0.441790 0.382089
vt 0.397625 0.386313
vt 0.523765 0.338022
vt 0.521696 0.374856
vt 0.519814 0.411492
vt 0.480056 0.415892
vt 0.434967 0.422835
vt 0.386313 0.431844
vt 0.457635 0.591850
vt 0.492071 0.590726
vt 0.492563 0.625000
vt 0.458151 0.625000
vt 0.526239 0.589537
vt 0.526696 0.625000
vt 0.526240 0.660456
vt 0.492071 0.659271
vt 0.457635 0.658149
vt 0.000000 0.000000
s 0
f 1/1/1 101/2/1 291/3/1 100/4/1
f 101/2/2 26/5/2 195/6/2 291/3/2
f 291/3/3 195/6/3 73/7/3 197/8/3
f 100/4/4 291/3/4 197/8/4 25/9/4
f 2/10/5 103/11/5 292/12/5 102/13/5
f 103/11/6 27/14/6 196/15/6 292/12/6
f 292/12/7 196/15/7 73/7/7 195/6/7
f 102/13/8 292/12/8 195/6/8 26/5/8
f 3/16/9 99/17/9 293/18/9 104/19/9
f 99/17/10 25/9/10 197/8/10 293/18/10
f 293/18/11 197/8/11 73/7/11 196/15/11
f 104/19/12 293/18/12 196/15/12 27/14/12
f 4/20/13 107/21/13 294/22/13 106/23/13
f 107/21/14 29/24/14 198/25/14 294/22/14
f 294/22/15 198/25/15 74/26/15 200/27/15
f 106/23/16 294/22/16 200/27/16 28/28/16
f 5/29/17 109/30/17 295/31/17 108/32/17
f 109/30/18 30/33/18 199/34/18 295/31/18
f 295/31/19 199/34/19 74/26/19 198/25/19
f 108/32/20 295/31/20 198/25/20 29/24/20
f 6/35/21 105/36/21 296/37/21 110/38/21
f 105/36/22 28/28/22 200/27/22 296/37/22
f 296/37/23 200/27/23 74/26/23 199/34/23
f 110/38/24 296/37/24 199/34/24 30/33/24
f 7/39/25 113/40/25 297/41/25 112/42/25
f 113/40/26 32/43/26 201/44/26 297/41/26
f 297/41/27 201/44/27 75/45/27 203/46/27
f 112/42/28 297/41/28 203/46/28 31/47/28
f 8/48/29 115/49/29 298/50/29 114/51/29
f 115/49/30 33/52/30 202/53/30 298/50/30
f 298/50/31 202/53/31 75/45/31 201/44/31
f 114/51/32 298/50/32 201/44/32 32/43/32
f 9/54/33 111/55/33 299/56/33 116/57/33
f 111/55/34 31/47/34 203/46/34 299/56/34
f 299/56/35 203/46/35 75/45/35 202/53/35
f 116/57/36 299/56/36 202/53/36 33/52/36
f 10/58/37 119/59/37 300/60/37 118/61/37
f 119/59/38 35/62/38 204/63/38 300/60/38
f 300/60/39 204/63/39 76/64/39 206/65/39
f 118/61/40 300/60/40 206/65/40 34/66/40
f 11/67/41 121/68/41 301/69/41 120/70/41
f 121/68/42 36/71/42 205/72/42 301/69/42
f 301/69/43 205/72/43 76/64/43 204/63/43
f 120/70/44 301/69/44 204/63/44 35/62/44
f 12/73/45 117/74/45 302/75/45 122/76/45
f 117/74/46 34/66/46 206/65/46 302/75/46
f 302/75/47 206/65/47 76/64/47 205/72/47
f 122/76/48 302/75/48 205/72/48 36/71/48
f 13/77/49 125/78/49 303/79/49 124/80/49
f 125/78/50 38/81/50 207/82/50 303/79/50
f 303/79/51 207/82/51 77/83/51 209/84/51
f 124/80/52 303/79/52 209/84/52 37/85/52
f 14/86/53 127/87/53 304/88/53 126/89/53
f 127/87/54 39/90/54 208/91/54 304/88/54
f 304/88/55 208/91/55 77/83/55 207/82/55
f 126/89/56 304/88/56 207/82/56 38/81/56
f 15/92/57 123/93/57 305/94/57 128/95/57
f 123/93/58 37/85/58 209/84/58 305/94/58
f 305/94/59 209/84/59 77/83/59 208/91/59
f 128/95/60 305/94/60 208/91/60 39/90/60
f 16/96/61 131/97/61 306/98/61 130/99/61
f 131/97/62 41/100/62 210/101/62 306/98/62
f 306/98/63 210/101/63 78/102/63 212/103/63
f 130/99/64 306/98/64 212/103/64 40/104/64
f 17/105/65 133/106/65 307/107/65 132/108/65
f 133/106/66 42/109/66 211/110/66 307/107/66
f 307/107/67 211/110/67 78/102/67 210/101/67
f 132/108/68 307/107/68 210/101/68 41/100/68
f 18/111/69 129/112/69 308/113/69 134/114/69
f 129/112/70 40/104/70 212/103/70 308/113/70
f 308/113/71 212/103/71 78/102/71 211/110/71
f 134/114/72 308/113/72 211/110/72 42/109/72
f 19/115/73 137/116/73 309/117/73 136/118/73
f 137/116/74 44/119/74 213/120/74 309/117/74
f 309/117/75 213/120/75 79/121/75 215/122/75
f 136/118/76 309/117/76 215/122/76 43/123/76
f 20/124/77 139/125/77 310/126/77 138/127/77
f 139/125/78 45/128/78 214/129/78 310/126/78
f 310/126/79 214/129/79 79/121/79 213/120/79
f 138/127/80 310/126/80 213/120/80 44/119/80
f 21/130/81 135/131/81 311/132/81 140/133/81
f 135/131/82 43/123/82 215/122/82 311/132/82
f 311/132/83 215/122/83 79/121/83 214/129/83
f 140/133/84 311/132/84 214/129/84 45/128/84
f 22/134/85 143/135/85 312/136/85 142/137/85
f 143/135/86 47/138/86 216/139/86 312/136/86
f 312/136/87 216/139/87 80/140/87 218/141/87
f 142/137/88 312/136/88 218/141/88 46/142/88
f 23/143/89 145/144/89 313/145/89 144/146/89
f 145/144/90 48/147/90 217/148/90 313/145/90
f 313/145/91 217/148/91 80/140/91 216/139/91
f 144/146/92 313/145/92 216/139/92 47/138/92
f 24/149/93 141/150/93 314/151/93 146/152/93
f 141/150/94 46/142/94 218/141/94 314/151/94
f 314/151/95 218/141/95 80/140/95 217/148/95
f 146/152/96 314/151/96 217/148/96 48/147/96
f 7/39/97 147/153/97 315/154/97 113/40/97
f 147/153/98 49/155/98 219/156/98 315/154/98
f 315/154/99 219/156/99 81/157/99 222/158/99
f 113/40/100 315/154/100 222/158/100 32/43/100
f 49/155/101 148/159/101 316/160/101 219/156/101
f 148/159/102 1/1/102 100/4/102 316/160/102
f 316/160/103 100/4/103 25/9/103 220/161/103
f 219/156/104 316/160/104 220/161/104 81/157/104
f 81/157/105 220/161/105 317/162/105 221/163/105
f 220/161/106 25/9/106 99/17/106 317/162/106
f 317/162/107 99/17/107 3/16/107 149/164/107
f 221/163/108 317/162/108 149/164/108 50/165/108
f 32/43/109 222/158/109 318/166/109 114/51/109
f 222/158/110 81/157/110 221/163/110 318/166/110
f 318/166/111 221/163/111 50/165/111 150/167/111
f 114/51/112 318/166/112 150/167/112 8/48/112
f 2/168/113 151/169/113 319/170/113 103/171/113
f 151/169/114 51/172/114 223/173/114 319/170/114
f 319/170/115 223/173/115 82/174/115 226/175/115
f 103/171/116 319/170/116 226/175/116 27/176/116
f 51/172/117 152/177/117 320/178/117 223/173/117
f 152/177/118 4/20/118 106/23/118 320/178/118
f 320/178/119 106/23/119 28/28/119 224/179/119
f 223/173/120 320/178/120 224/179/120 82/174/120
f 82/174/121 224/179/121 321/180/121 225/181/121
f 224/179/122 28/28/122 105/36/122 321/180/122
f 321/180/123 105/36/123 6/35/123 153/182/123
f 225/181/124 321/180/124 153/182/124 52/183/124
f 27/176/125 226/175/125 322/184/125 104/185/125
f 226/175/126 82/174/126 225/181/126 322/184/126
f 322/184/127 225/181/127 52/183/127 154/186/127
f 104/185/128 322/184/128 154/186/128 3/187/128
f 5/29/129 155/188/129 323/189/129 109/30/129
f 155/188/130 53/190/130 227/191/130 323/189/130
f 323/189/131 227/191/131 83/192/131 230/193/131
f 109/30/132 323/189/132 230/193/132 30/33/132
f 53/190/133 156/194/133 324/195/133 227/191/133
f 156/194/134 10/58/134 118/61/134 324/195/134
f 324/195/135 118/61/135 34/66/135 228/196/135
f 227/191/136 324/195/136 228/196/136 83/192/136
f 83/192/137 228/196/137 325/197/137 229/198/137
f 228/196/138 34/66/138 117/74/138 325/197/138
f 325/197/139 117/74/139 12/73/139 157/199/139
f 229/198/140 325/197/140 157/199/140 54/200/140
f 30/33/141 230/193/141 326/201/141 110/38/141
f 230/193/142 83/192/142 229/198/142 326/201/142
f 326/201/143 229/198/143 54/200/143 158/202/143
f 110/38/144 326/201/144 158/202/144 6/35/144
f 11/67/145 159/203/145 327/204/145 121/68/145
f 159/203/146 55/205/146 231/206/146 327/204/146
f 327/204/147 231/206/147 84/207/147 234/208/147
f 121/68/148 327/204/148 234/208/148 36/71/148
f 55/205/149 160/209/149 328/210/149 231/206/149
f 160/209/150 9/211/150 116/212/150 328/210/150
f 328/210/151 116/212/151 33/213/151 232/214/151
f 231/206/152 328/210/152 232/214/152 84/207/152
f 84/207/153 232/214/153 329/215/153 233/216/153
f 232/214/154 33/213/154 115/217/154 329/215/154
f 329/215/155 115/217/155 8/218/155 161/219/155
f 233/216/156 329/215/156 161/219/156 56/220/156
f 36/71/157 234/208/157 330/221/157 122/76/157
f 234/208/158 84/207/158 233/216/158 330/221/158
f 330/221/159 233/216/159 56/220/159 162/222/159
f 122/76/160 330/221/160 162/222/160 12/73/160
f 19/115/161 163/223/161 331/224/161 137/116/161
f 163/223/162 57/225/162 235/226/162 331/224/162
f 331/224/163 235/226/163 85/227/163 238/228/163
f 137/116/164 331/224/164 238/228/164 44/119/164
f 57/225/165 164/229/165 332/230/165 235/226/165
f 164/229/166 7/39/166 112/42/166 332/230/166
f 332/230/167 112/42/167 31/47/167 236/231/167
f 235/226/168 332/230/168 236/231/168 85/227/168
f 85/227/169 236/231/169 333/232/169 237/233/169
f 236/231/170 31/47/170 111/55/170 333/232/170
f 333/232/171 111/55/171 9/54/171 165/234/171
f 237/233/172 333/232/172 165/234/172 58/235/172
f 44/119/173 238/228/173 334/236/173 138/127/173
f 238/228/174 85/227/174 237/233/174 334/236/174
f 334/236/175 237/233/175 58/235/175 166/237/175
f 138/127/176 334/236/176 166/237/176 20/124/176
f 10/58/177 167/238/177 335/239/177 119/59/177
f 167/238/178 59/240/178 239/241/178 335/239/178
f 335/239/179 239/241/179 86/242/179 242/243/179
f 119/59/180 335/239/180 242/243/180 35/62/180
f 59/240/181 168/244/181 336/245/181 239/241/181
f 168/244/182 22/134/182 142/137/182 336/245/182
f 336/245/183 142/137/183 46/142/183 240/246/183
f 239/241/184 336/245/184 240/246/184 86/242/184
f 86/242/185 240/246/185 337/247/185 241/248/185
f 240/246/186 46/142/186 141/150/186 337/247/186
f 337/247/187 141/150/187 24/149/187 169/249/187
f 241/248/188 337/247/188 169/249/188 60/250/188
f 35/62/189 242/243/189 338/251/189 120/70/189
f 242/243/190 86/242/190 241/248/190 338/251/190
f 338/251/191 241/248/191 60/250/191 170/252/191
f 120/70/192 338/251/192 170/252/192 11/67/192
f 23/143/193 171/253/193 339/254/193 145/144/193
f 171/253/194 61/255/194 243/256/194 339/254/194
f 339/254/195 243/256/195 87/257/195 246/258/195
f 145/144/196 339/254/196 246/258/196 48/147/196
f 61/255/197 172/259/197 340/260/197 243/256/197
f 172/259/198 21/130/198 140/133/198 340/260/198
f 340/260/199 140/133/199 45/128/199 244/261/199
f 243/256/200 340/260/200 244/261/200 87/257/200
f 87/257/201 244/261/201 341/262/201 245/263/201
f 244/261/202 45/128/202 139/125/202 341/262/202
f 341/262/203 139/125/203 20/124/203 173/264/203
f 245/263/204 341/262/204 173/264/204 62/265/204
f 48/147/205 246/258/205 342/266/205 146/152/205
f 246/258/206 87/257/206 245/263/206 342/266/206
f 342/266/207 245/263/207 62/265/207 174/267/207
f 146/152/208 342/266/208 174/267/208 24/149/208
f 13/77/209 175/268/209 343/269/209 125/78/209
f 175/268/210 63/270/210 247/271/210 343/269/210
f 343/269/211 247/271/211 88/272/211 250/273/211
f 125/78/212 343/269/212 250/273/212 38/81/212
f 63/270/213 176/274/213 344/275/213 247/271/213
f 176/274/214 19/115/214 136/118/214 344/275/214
f 344/275/215 136/118/215 43/123/215 248/276/215
f 247/271/216 344/275/216 248/276/216 88/272/216
f 88/272/217 248/276/217 345/277/217 249/278/217
f 248/276/218 43/123/218 135/131/218 345/277/218
f 345/277/219 135/131/219 21/130/219 177/279/219
f 249/278/220 345/277/220 177/279/220 64/280/220
f 38/81/221 250/273/221 346/281/221 126/89/221
f 250/273/222 88/272/222 249/278/222 346/281/222
f 346/281/223 249/278/223 64/280/223 178/282/223
f 126/89/224 346/281/224 178/282/224 14/86/224
f 22/134/225 179/283/225 347/284/225 143/135/225
f 179/283/226 65/285/226 251/286/226 347/284/226
f 347/284/227 251/286/227 89/287/227 254/288/227
f 143/135/228 347/284/228 254/288/228 47/138/228
f 65/285/229 180/289/229 348/290/229 251/286/229
f 180/289/230 16/96/230 130/99/230 348/290/230
f 348/290/231 130/99/231 40/104/231 252/291/231
f 251/286/232 348/290/232 252/291/232 89/287/232
f 89/287/233 252/291/233 349/292/233 253/293/233
f 252/291/234 40/104/234 129/112/234 349/292/234
f 349/292/235 129/112/235 18/111/235 181/294/235
f 253/293/236 349/292/236 181/294/236 66/295/236
f 47/138/237 254/288/237 350/296/237 144/146/237
f 254/288/238 89/287/238 253/293/238 350/296/238
f 350/296/239 66/295/239 182/297/239
f 144/146/240 350/296/240 182/297/240 23/143/240
f 17/105/241 183/298/241 351/299/241 133/106/241
f 183/298/242 67/300/242 255/301/242 351/299/242
f 351/299/243 255/301/243 90/302/243 258/303/243
f 133/106/244 351/299/244 258/303/244 42/109/244
f 67/300/245 184/304/245 352/305/245 255/301/245
f 184/304/246 15/92/246 128/95/246 352/305/246
f 352/305/247 128/95/247 39/90/247 256/306/247
f 255/301/248 352/305/248 256/306/248 90/302/248
f 90/302/249 256/306/249 353/307/249 257/308/249
f 256/306/250 39/90/250 127/87/250 353/307/250
f 353/307/251 127/87/251 14/86/251 185/309/251
f 257/308/252 353/307/252 185/309/252 68/310/252
f 42/109/253 258/303/253 354/311/253 134/114/253
f 258/303/254 90/302/254 257/308/254 354/311/254
f 354/311/255 257/308/255 68/310/255 186/312/255
f 134/114/256 354/311/256 186/312/256 18/111/256
f 1/1/257 187/313/257 355/314/257 101/2/257
f 187/313/258 69/315/258 259/316/258 355/314/258
f 355/314/259 259/316/259 91/317/259 262/318/259
f 101/2/260 355/314/260 262/318/260 26/5/260
f 69/315/261 188/319/261 356/320/261 259/316/261
f 188/319/262 13/77/262 124/80/262 356/320/262
f 356/320/263 124/80/263 37/85/263 260/321/263
f 259/316/264 356/320/264 260/321/264 91/317/264
f 91/317/265 260/321/265 357/322/265 261/323/265
f 260/321/266 37/85/266 123/93/266 357/322/266
f 357/322/267 123/93/267 15/92/267 189/324/267
f 261/323/268 357/322/268 189/324/268 70/325/268
f 26/5/269 262/318/269 358/326/269 102/13/269
f 262/318/270 91/317/270 261/323/270 358/326/270
f 358/326/271 261/323/271 70/325/271 190/327/271
f 102/13/272 358/326/272 190/327/272 2/10/272
f 16/96/273 191/328/273 359/329/273 131/97/273
f 191/328/274 71/330/274 263/331/274 359/329/274
f 359/329/275 263/331/275 92/332/275 266/333/275
f 131/97/276 359/329/276 266/333/276 41/100/276
f 71/330/277 192/334/277 360/335/277 263/331/277
f 192/334/278 5/336/278 108/337/278 360/335/278
f 360/335/279 108/337/279 29/338/279 264/339/279
f 263/331/280 360/335/280 264/339/280 92/332/280
f 92/332/281 264/339/281 361/340/281 265/341/281
f 264/339/282 29/338/282 107/342/282 361/340/282
f 361/340/283 107/342/283 4/343/283 193/344/283
f 265/341/284 361/340/284 193/344/284 72/345/284
f 41/100/285 266/333/285 362/346/285 132/108/285
f 266/333/286 92/332/286 265/341/286 362/346/286
f 362/346/287 265/341/287 72/345/287 194/347/287
f 132/108/288 362/346/288 194/347/288 17/105/288
f 7/39/289 164/229/289 363/348/289 147/153/289
f 164/229/290 57/225/290 267/349/290 363/348/290
f 363/348/291 267/349/291 93/350/291 270/351/291
f 147/153/292 363/348/292 270/351/292 49/155/292
f 57/225/293 163/223/293 364/352/293 267/349/293
f 163/223/294 19/115/294 176/274/294 364/352/294
f 364/352/295 176/274/295 63/270/295 268/353/295
f 267/349/296 364/352/296 268/353/296 93/350/296
f 93/350/297 268/353/297 365/354/297 269/355/297
f 268/353/298 63/270/298 175/268/298 365/354/298
f 365/354/299 175/268/299 13/77/299 188/319/299
f 269/355/300 365/354/300 188/319/300 69/315/300
f 49/155/301 270/351/301 366/356/301 148/159/301
f 270/351/302 93/350/302 269/355/302 366/356/302
f 366/356/303 269/355/303 69/315/303 187/313/303
f 148/159/304 366/356/304 187/313/304 1/1/304
f 3/187/305 154/186/305 367/357/305 149/358/305
f 154/186/306 52/183/306 271/359/306 367/357/306
f 367/357/307 271/359/307 94/360/307 274/361/307
f 149/358/308 367/357/308 274/361/308 50/362/308
f 52/183/309 153/182/309 368/363/309 271/359/309
f 153/182/310 6/35/310 158/202/310 368/363/310
f 368/363/311 158/202/311 54/200/311 272/364/311
f 271/359/312 368/363/312 272/364/312 94/360/312
f 94/360/313 272/364/313 369/365/313 273/366/313
f 272/364/314 54/200/314 157/199/314 369/365/314
f 369/365/315 157/199/315 12/73/315 162/222/315
f 273/366/316 369/365/316 162/222/316 56/220/316
f 50/362/317 274/361/317 370/367/317 150/368/317
f 274/361/318 94/360/318 273/366/318 370/367/318
f 370/367/319 273/366/319 56/220/319 161/219/319
f 150/368/320 370/367/320 161/219/320 8/218/320
f 15/92/321 184/304/321 371/369/321 189/370/321
f 184/304/322 67/300/322 275/371/322 371/369/322
f 371/369/323 275/371/323 95/372/323 278/373/323
f 189/370/324 371/369/324 278/373/324 70/374/324
f 67/300/325 183/298/325 372/375/325 275/371/325
f 183/298/326 17/105/326 194/347/326 372/375/326
f 372/375/327 194/347/327 72/345/327 276/376/327
f 275/371/328 372/375/328 276/376/328 95/372/328
f 95/372/329 276/376/329 373/377/329 277/378/329
f 276/376/330 72/345/330 193/344/330 373/377/330
f 373/377/331 193/344/331 4/343/331 152/379/331
f 277/378/332 373/377/332 152/379/332 51/380/332
f 70/374/333 278/373/333 374/381/333 190/382/333
f 278/373/334 95/372/334 277/378/334 374/381/334
f 374/381/335 277/378/335 51/380/335 151/383/335
f 190/382/336 374/381/336 151/383/336 2/384/336
f 22/134/337 168/385/337 375/386/337 179/283/337
f 168/385/338 59/387/338 279/388/338 375/386/338
f 375/386/339 279/388/339 96/389/339 282/390/339
f 179/283/340 375/386/340 282/390/340 65/285/340
f 59/387/341 167/391/341 376/392/341 279/388/341
f 167/391/342 10/393/342 156/394/342 376/392/342
f 376/392/343 156/394/343 53/395/343 280/396/343
f 279/388/344 376/392/344 280/396/344 96/389/344
f 96/389/345 280/396/345 377/397/345 281/398/345
f 280/396/346 53/395/346 155/399/346 377/397/346
f 377/397/347 155/399/347 5/400/347 192/401/347
f 281/398/348 377/397/348 192/401/348 71/402/348
f 65/285/349 282/390/349 378/403/349 180/289/349
f 282/390/350 96/389/350 281/398/350 378/403/350
f 378/403/351 281/398/351 71/402/351 191/404/351
f 180/289/352 378/403/352 191/404/352 16/96/352
f 9/211/353 160/209/353 379/405/353 165/406/353
f 160/209/354 55/205/354 283/407/354 379/405/354
f 379/405/355 283/407/355 97/408/355 286/409/355
f 165/406/356 379/405/356 286/409/356 58/410/356
f 55/205/357 159/203/357 380/411/357 283/407/357
f 159/203/358 11/67/358 170/252/358 380/411/358
f 380/411/359 170/252/359 60/250/359 284/412/359
f 283/407/360 380/411/360 284/412/360 97/408/360
f 97/408/361 284/412/361 381/413/361 285/414/361
f 284/412/362 60/250/362 169/249/362 381/413/362
f 381/413/363 169/249/363 24/149/363 174/267/363
f 285/414/364 381/413/364 174/267/364 62/265/364
f 58/410/365 286/409/365 382/415/365 166/416/365
f 286/409/366 97/408/366 285/414/366 382/415/366
f 382/415/367 285/414/367 62/265/367 173/264/367
f 166/416/368 382/415/368 173/264/368 20/124/368
f 21/130/369 172/259/369 383/417/369 177/279/369
f 172/259/370 61/255/370 287/418/370 383/417/370
f 383/417/371 287/418/371 98/419/371 290/420/371
f 177/279/372 383/417/372 290/420/372 64/280/372
f 61/255/373 171/253/373 384/421/373 287/418/373
f 171/253/374 23/143/374 182/297/374 384/421/374
f 287/418/375 384/421/375 288/422/375 98/419/375
f 98/419/376 288/422/376 385/423/376 289/424/376
f 385/423/377 181/294/377 18/111/377 186/312/377
f 289/424/378 385/423/378 186/312/378 68/310/378
f 64/280/379 290/420/379 386/425/379 178/282/379
f 290/420/380 98/419/380 289/424/380 386/425/380
f 386/425/381 289/424/381 68/310/381 185/309/381
f 178/282/382 386/425/382 185/309/382 14/86/382
f 182/297/383 66/295/383 387/426/383
f 384/421/384 182/297/384 387/426/384
f 384/421/385 387/426/385 288/422/385
f 387/426/386 66/295/386 388/426/386
f 66/295/387 181/294/387 388/426/387
f 385/423/388 388/426/388 181/294/388
f 387/426/389 388/426/389 288/422/389
f 385/423/390 288/422/390 388/426/390
f 66/295/391 350/296/391 253/293/391
