# Blender 5.2.2 LTS
# www.blender.org
mtllib grass_blade.mtl
o Grass_Blade
v 0.427832 0.521739 0.067879
v 0.001014 -0.144037 0.404471
v 0.434686 0.506735 -0.115554
v 0.001014 -0.144037 -0.404450
v -0.178961 0.471265 -0.417289
v 0.349757 -0.144037 -0.203103
v -0.344699 0.488258 -0.320471
v -0.350731 -0.143796 0.201257
v -0.324164 0.457154 0.155584
v -0.350789 -0.144037 -0.201337
v -0.155808 0.444299 0.279644
v 0.349757 -0.144037 0.203124
vn 0.8372 -0.5467 0.0140
vn -0.4149 -0.5850 -0.6969
vn -0.4658 -0.4624 0.7545
vt 0.000000 0.000000
vt 1.000000 0.000000
vt 1.000000 1.000000
vt 0.000000 1.000000
s 0
usemtl 
f 1/1/1 2/2/1 4/3/1 3/4/1
f 5/1/2 6/2/2 8/3/2 7/4/2
f 9/1/3 10/2/3 12/3/3 11/4/3
