# Blender 5.2.2 LTS
# www.blender.org
o platform_medium2.002
v 8.670684 -7.673416 6.020961
v -9.103876 -6.599433 7.634237
v 10.686845 -6.022187 -4.551666
v -11.098060 -7.380104 -8.471407
v 9.699017 6.149739 6.844317
v -9.868920 5.581357 7.042928
v 9.870268 5.093354 -5.827677
v -8.886020 5.927588 -6.610215
v 10.651472 -4.138949 -4.836942
v 11.071478 -2.029027 -5.877494
v 10.022180 1.155692 -5.538005
v 9.735145 3.374484 -5.545819
v 8.545526 4.102204 5.727247
v 8.863941 1.752842 5.044953
v 8.690147 -1.153053 4.147847
v 8.483803 -4.994381 4.714318
v -9.146057 3.982450 6.493721
v -8.813637 1.315069 6.312356
v -8.859333 -1.292008 6.759476
v -8.975451 -3.984561 7.387972
v -8.771742 3.714423 -6.447122
v -8.652121 1.369201 -6.390405
v -8.923944 -1.214905 -6.570610
v -10.407440 -4.690411 -7.847991
v -6.490381 -7.125049 8.221480
v -3.843282 -7.388717 8.346468
v 5.142467 -7.110177 6.706688
v 6.747492 -7.140925 6.654490
v 7.285986 -7.219412 -5.898743
v 3.369458 -8.955611 -6.815091
v -5.745534 -9.398808 -7.821598
v -9.002983 -9.049040 -8.959089
v -7.004499 5.932785 7.529600
v -4.652497 5.762002 8.351523
v 2.910088 6.095025 8.799453
v 6.059139 6.077351 7.147892
v 6.926302 5.772217 -6.831566
v 3.697972 5.783861 -8.807336
v -4.597803 5.828269 -8.293713
v -6.674836 5.884595 -7.664320
v -8.301513 -5.901362 -8.124983
v -5.437909 -5.954051 -7.836035
v 3.113390 -5.143780 -6.858277
v 7.588699 -4.735637 -5.850201
v -6.651738 -1.307274 -6.746949
v -4.518889 -1.112669 -6.914988
v 3.965582 -1.303235 -7.019112
v 7.559667 -1.645859 -6.286358
v -6.655413 1.370028 -6.558180
v -4.941018 1.200928 -6.854901
v 3.670901 0.969252 -7.266490
v 7.150425 0.993941 -6.359318
v -6.673044 3.534696 -7.246506
v -4.776772 3.289595 -7.796531
v 3.494408 3.188506 -8.478327
v 6.753690 3.370765 -6.671558
v 6.372483 -5.120232 5.117569
v 4.869398 -4.759538 6.021834
v -4.132543 -4.645516 8.628475
v -6.588775 -4.464168 8.263274
v 6.800447 -1.370540 5.006753
v 4.954809 -1.373217 6.220659
v -3.937741 -1.555002 7.446544
v -6.329341 -1.472626 7.187146
v 6.590422 1.420935 5.872824
v 4.114901 1.064103 6.965519
v -3.858276 1.278966 6.600060
v -6.298847 1.318212 6.358405
v 6.070379 3.782143 6.558714
v 3.402000 3.331101 8.038287
v -4.299288 3.543694 7.496648
v -6.654348 3.740115 6.924409
v -10.617908 -7.475637 -5.409286
v -9.413218 -6.928792 -1.081223
v -9.467424 -6.903499 2.310802
v -9.454230 -7.038517 5.306740
v 8.792963 -8.285305 3.089915
v 9.394279 -8.020248 0.805978
v 9.662224 -7.004843 -0.749462
v 10.417065 -6.266835 -2.619479
v -9.139825 5.365005 -4.072623
v -9.956363 5.321630 -1.639636
v -10.517342 5.475625 0.892256
v -10.033894 6.146378 3.666324
v 10.017888 6.023521 3.846749
v 11.181172 5.782808 1.254168
v 11.775994 5.913975 -1.687872
v 11.036227 5.630918 -3.856399
v -9.211055 -4.271199 5.019295
v -9.190473 -4.152605 2.103796
v -9.045995 -4.053056 -1.032425
v -9.813608 -4.334641 -4.723964
v -8.894842 -1.354753 4.344680
v -8.842262 -1.304693 1.617519
v -8.586529 -0.691539 -1.102042
v -8.791969 -1.098016 -3.872291
v -8.906447 1.289178 3.802823
v -8.926113 1.359321 1.595387
v -8.535660 1.593046 -0.987770
v -8.634253 1.349378 -3.857547
v -9.578931 3.545951 3.544228
v -9.751369 3.920223 1.611133
v -9.256716 3.691842 -1.434623
v -8.976920 3.041378 -3.915087
v 10.142991 -4.187705 -2.854932
v 9.214399 -4.333791 -0.984270
v 9.203268 -4.809798 0.891281
v 8.839605 -5.141531 2.566254
v 10.499030 -1.888040 -3.712686
v 9.421466 -1.466258 -1.547958
v 9.421159 -1.324912 0.930354
v 8.994746 -1.355024 2.568166
v 10.009604 1.164884 -3.579449
v 9.565261 1.319053 -1.386881
v 9.420187 1.365072 1.204803
v 8.903768 1.609530 3.072035
v 10.499734 3.698289 -3.524475
v 10.646458 3.762211 -1.272087
v 10.174131 3.663172 1.343560
v 9.296030 3.976721 3.361531
v -0.252074 -7.386423 7.598983
v 2.553447 -7.360195 6.837175
v 0.584278 -9.437335 -7.412270
v -2.715537 -9.473771 -7.617694
v -1.945818 5.582395 8.580566
v 0.625923 5.981789 8.682796
v 0.179507 5.923748 -9.539207
v -2.367195 5.892179 -8.957079
v -2.540548 -5.814503 -7.628443
v 0.434050 -5.636804 -7.379136
v -1.655683 -1.204864 -6.985785
v 1.189286 -1.306512 -7.051035
v -2.058503 1.123591 -6.962785
v 0.721322 1.032113 -7.306855
v -2.265469 3.285367 -8.225475
v 0.308807 3.275337 -8.833451
v 2.187646 -4.664252 6.619186
v -1.121468 -4.738568 7.788544
v 2.197857 -1.355164 6.517241
v -0.942190 -1.478477 7.083761
v 1.471819 1.150524 6.828350
v -1.034204 1.284779 6.538880
v 0.950149 3.392454 7.766425
v -1.421878 3.462665 7.422498
v 5.666451 -8.002610 6.213883
v 3.277661 -8.072641 6.305404
v 0.157034 -8.181161 6.868439
v -2.935166 -8.263091 7.289340
v -6.154193 -8.035112 6.641698
v 5.993268 -8.778605 3.382570
v 2.440780 -9.601865 3.406543
v -0.448863 -9.761548 3.828539
v -3.313511 -9.889030 4.118432
v -6.443182 -9.323133 3.513751
v 6.322145 -8.908981 0.923893
v 2.454355 -10.005753 0.642296
v -0.430125 -10.341509 0.706472
v -3.625881 -10.317974 0.960572
v -6.490221 -9.359863 0.283024
v 6.431472 -8.118274 -1.271979
v 2.259511 -9.965003 -2.127621
v -0.941225 -10.371480 -2.513828
v -4.486625 -10.338107 -2.594033
v -7.438223 -9.529663 -3.532200
v 6.867293 -7.495080 -3.916786
v 2.549976 -9.591142 -5.148666
v -0.996252 -9.824469 -5.747504
v -4.792251 -9.624896 -5.996894
v -7.913909 -8.884976 -6.775432
vn 0.8610 -0.4702 0.1937
vn -0.1530 -0.3272 0.9325
vn -0.9920 -0.0681 -0.1064
vn 0.3230 -0.1247 -0.9382
vn 0.3598 -0.0725 -0.9302
vn 0.2116 -0.2817 -0.9359
vn 0.1915 0.0927 -0.9771
vn 0.3161 -0.0190 -0.9485
vn -0.9644 0.2117 0.1585
vn -0.9421 0.3227 0.0912
vn -0.9961 0.0840 0.0270
vn -0.9920 -0.1151 -0.0524
vn -0.2733 0.0388 0.9611
vn -0.2079 0.2936 0.9331
vn -0.0829 0.2303 0.9696
vn -0.1011 -0.1579 0.9823
vn 0.9950 0.0510 0.0860
vn 0.9836 -0.0335 0.1774
vn 0.9943 -0.0379 0.1001
vn 0.9819 -0.0529 0.1821
vn 0.3478 -0.2039 0.9151
vn 0.4633 -0.2043 0.8623
vn 0.0172 -0.3691 0.9292
vn -0.1738 -0.3202 0.9313
vn 0.3920 -0.2697 0.8796
vn 0.4750 -0.1706 0.8633
vn 0.0671 0.2408 0.9682
vn -0.0917 0.2859 0.9539
vn 0.2956 0.0604 0.9534
vn 0.5302 -0.0486 0.8465
vn 0.1898 0.2693 0.9442
vn -0.1007 0.3529 0.9302
vn 0.2612 0.5224 0.8117
vn 0.3133 0.4668 0.8270
vn 0.2332 -0.0349 0.9718
vn -0.1012 -0.0667 0.9926
vn -0.2335 -0.1654 -0.9582
vn -0.2515 -0.3388 -0.9066
vn 0.0424 -0.5185 -0.8540
vn 0.3682 -0.2509 -0.8952
vn -0.0786 0.0737 -0.9942
vn -0.1201 0.0392 -0.9920
vn 0.0114 -0.1066 -0.9942
vn 0.2244 -0.0314 -0.9740
vn -0.0048 0.3142 -0.9493
vn 0.0169 0.2323 -0.9725
vn 0.1008 0.0005 -0.9949
vn 0.2105 -0.1087 -0.9715
vn -0.0090 0.2443 -0.9697
vn 0.2314 0.0851 -0.9691
vn 0.1988 0.0093 -0.9800
vn 0.2237 -0.0008 -0.9747
vn -0.3974 -0.1258 -0.9090
vn -0.2922 -0.1657 -0.9419
vn 0.1506 -0.1934 -0.9695
vn 0.5023 -0.1216 -0.8561
vn 0.1920 -0.4022 0.8952
vn 0.4765 -0.1822 0.8601
vn -0.0450 -0.4280 0.9027
vn -0.2913 -0.3422 0.8934
vn 0.9824 -0.0402 -0.1823
vn 0.9499 -0.3026 0.0784
vn 0.9254 -0.3639 0.1060
vn 0.8983 -0.2536 0.3588
vn 0.9651 0.2283 0.1286
vn 0.9449 0.0396 0.3248
vn 0.9992 -0.0284 0.0297
vn 0.9652 -0.0202 0.2609
vn 0.9655 -0.0610 0.2530
vn 0.8958 0.0244 0.4437
vn 0.9978 -0.0670 -0.0025
vn 0.9727 -0.0512 0.2264
vn 0.9741 0.1025 0.2014
vn 0.8811 0.1773 0.4384
vn 0.9856 0.1103 0.1281
vn 0.9695 0.0387 0.2421
vn -0.9741 -0.1971 0.1105
vn -0.9550 -0.2963 0.0125
vn -0.9346 -0.3238 -0.1473
vn -0.9632 -0.2686 0.0123
vn -0.9996 0.0114 0.0258
vn -0.9998 -0.0187 -0.0071
vn -0.9926 -0.0043 -0.1216
vn -0.9979 0.0427 0.0489
vn -0.9948 0.0883 0.0499
vn -0.9936 0.1126 -0.0095
vn -0.9909 0.1242 -0.0526
vn -0.9712 0.2032 0.1246
vn -0.9906 0.0794 0.1113
vn -0.9956 0.0941 0.0028
vn -0.9932 0.1129 -0.0289
vn -0.9622 0.1605 0.2201
vn -0.9558 -0.2816 0.0846
vn -0.9543 -0.2589 0.1493
vn -0.8843 -0.4465 -0.1367
vn -0.9564 -0.2257 -0.1855
vn 0.8948 -0.2290 -0.3833
vn 0.9055 -0.3969 -0.1504
vn 0.8909 -0.4275 0.1534
vn 0.8270 -0.3823 0.4121
vn -0.0744 -0.3085 0.9483
vn -0.0548 -0.4108 0.9101
vn -0.2161 -0.2237 -0.9504
vn -0.2171 -0.2664 -0.9391
vn 0.0693 -0.0082 -0.9976
vn 0.0722 0.0028 -0.9974
vn 0.0221 0.1591 -0.9870
vn 0.0301 0.1024 -0.9943
vn -0.0307 0.0124 -0.9995
vn -0.0746 -0.0636 -0.9952
vn -0.0949 -0.4591 -0.8833
vn -0.1569 -0.5440 -0.8243
vn 0.1288 0.1904 0.9732
vn 0.2992 0.0742 0.9513
vn 0.1618 -0.0166 0.9867
vn 0.2552 0.1106 0.9606
vn 0.0250 -0.2013 0.9792
vn 0.0490 0.0519 0.9974
vn -0.0847 -0.4251 0.9012
vn -0.1345 -0.4011 0.9061
vn 0.0792 -0.5309 0.8438
vn 0.1560 -0.9575 0.2428
vn 0.2302 -0.9730 0.0175
vn 0.3015 -0.8706 -0.3888
vn 0.3638 -0.9140 -0.1796
vn 0.3500 -0.9347 -0.0627
vn 0.0705 -0.4972 0.8648
vn 0.1456 -0.9223 0.3581
vn 0.2451 -0.9627 0.1145
vn 0.3593 -0.9194 -0.1601
vn 0.4394 -0.8926 -0.1008
vn 0.4369 -0.8963 -0.0756
vn 0.1954 -0.5392 0.8192
vn 0.1118 -0.8913 0.4395
vn 0.0981 -0.9815 0.1646
vn 0.1219 -0.9924 -0.0162
vn 0.1138 -0.9835 -0.1405
vn 0.1460 -0.9703 -0.1927
vn 0.1357 -0.6723 0.7277
vn 0.0846 -0.8908 0.4465
vn 0.0310 -0.9871 0.1571
vn -0.0082 -0.9999 0.0091
vn -0.0229 -0.9824 -0.1853
vn -0.0115 -0.9847 -0.1741
vn -0.1383 -0.8493 0.5095
vn -0.1949 -0.8822 0.4287
vn -0.2625 -0.9612 0.0848
vn -0.3149 -0.9437 0.1016
vn -0.1968 -0.9649 -0.1740
vn -0.1218 -0.9908 -0.0591
vn -0.3301 -0.8919 0.3092
vn -0.5230 -0.8326 0.1826
vn -0.6337 -0.7735 0.0066
vn -0.6538 -0.7189 0.2361
vn -0.4744 -0.8798 -0.0314
vn -0.3681 -0.8953 0.2509
vt 0.567332 0.950000
vt 0.615415 0.950000
vt 0.614910 1.000000
vt 0.566928 1.000000
vt 0.566928 0.200000
vt 0.614910 0.200000
vt 0.614910 0.250000
vt 0.566928 0.250000
vt 0.568542 0.450000
vt 0.616928 0.450000
vt 0.617432 0.500000
vt 0.568946 0.500000
vt 0.568946 0.700000
vt 0.617432 0.700000
vt 0.617432 0.750000
vt 0.568946 0.750000
vt 0.375000 0.700000
vt 0.423486 0.700000
vt 0.423487 0.750000
vt 0.375000 0.750000
vt 0.471973 0.700000
vt 0.471973 0.750000
vt 0.520460 0.700000
vt 0.520459 0.750000
vt 0.375000 0.450000
vt 0.423386 0.450000
vt 0.423487 0.500000
vt 0.375000 0.500000
vt 0.471771 0.450000
vt 0.471973 0.500000
vt 0.520157 0.450000
vt 0.520460 0.500000
vt 0.375000 0.200000
vt 0.422982 0.200000
vt 0.422982 0.250000
vt 0.375000 0.250000
vt 0.470964 0.200000
vt 0.470964 0.250000
vt 0.518946 0.200000
vt 0.518946 0.250000
vt 0.375000 0.950000
vt 0.423083 0.950000
vt 0.422982 1.000000
vt 0.375000 1.000000
vt 0.471166 0.950000
vt 0.470964 1.000000
vt 0.519249 0.950000
vt 0.518946 1.000000
vt 0.518946 0.000000
vt 0.566928 0.000000
vt 0.566928 0.050000
vt 0.518946 0.050000
vt 0.566928 0.100000
vt 0.518946 0.100000
vt 0.518946 0.133333
vt 0.566928 0.133333
vt 0.566928 0.150000
vt 0.518946 0.150000
vt 0.470964 0.000000
vt 0.470964 0.050000
vt 0.470964 0.100000
vt 0.470964 0.133333
vt 0.470964 0.150000
vt 0.422982 0.000000
vt 0.422982 0.050000
vt 0.422982 0.100000
vt 0.422982 0.133333
vt 0.422982 0.150000
vt 0.375000 0.000000
vt 0.375000 0.050000
vt 0.375000 0.100000
vt 0.375000 0.133333
vt 0.375000 0.150000
vt 0.568946 0.550000
vt 0.520460 0.550000
vt 0.568946 0.600000
vt 0.520460 0.600000
vt 0.520460 0.633333
vt 0.568946 0.633333
vt 0.568946 0.650000
vt 0.520460 0.650000
vt 0.471973 0.550000
vt 0.471973 0.600000
vt 0.471973 0.633333
vt 0.471973 0.650000
vt 0.423487 0.550000
vt 0.423487 0.600000
vt 0.423486 0.633333
vt 0.423486 0.650000
vt 0.375000 0.550000
vt 0.375000 0.600000
vt 0.375000 0.633333
vt 0.375000 0.650000
vt 0.617432 0.550000
vt 0.617432 0.600000
vt 0.617432 0.633333
vt 0.617432 0.650000
vt 0.614910 0.000000
vt 0.614910 0.050000
vt 0.614910 0.100000
vt 0.614910 0.133333
vt 0.614910 0.150000
vt 0.568542 0.800000
vt 0.520157 0.800000
vt 0.568139 0.850000
vt 0.519854 0.850000
vt 0.567735 0.900000
vt 0.519551 0.900000
vt 0.471771 0.800000
vt 0.471569 0.850000
vt 0.471368 0.900000
vt 0.423386 0.800000
vt 0.423285 0.850000
vt 0.423184 0.900000
vt 0.375000 0.800000
vt 0.375000 0.850000
vt 0.375000 0.900000
vt 0.567332 0.300000
vt 0.519249 0.300000
vt 0.567735 0.350000
vt 0.519551 0.350000
vt 0.568139 0.400000
vt 0.519854 0.400000
vt 0.471166 0.300000
vt 0.471368 0.350000
vt 0.471569 0.400000
vt 0.423083 0.300000
vt 0.423184 0.350000
vt 0.423285 0.400000
vt 0.375000 0.300000
vt 0.375000 0.350000
vt 0.375000 0.400000
vt 0.615415 0.300000
vt 0.615919 0.350000
vt 0.616423 0.400000
vt 0.616928 0.800000
vt 0.616423 0.850000
vt 0.615919 0.900000
vt 0.614910 0.116667
vt 0.566928 0.116667
vt 0.617432 0.616667
vt 0.568946 0.616667
vt 0.423486 0.616667
vt 0.375000 0.616667
vt 0.471973 0.616667
vt 0.520460 0.616667
vt 0.422982 0.116667
vt 0.375000 0.116667
vt 0.470964 0.116667
vt 0.518946 0.116667
vt 0.375000 0.125000
vt 0.375000 0.541667
vt 0.375000 0.638462
vt 0.375000 0.667857
vt 0.375000 0.674359
vt 0.375000 0.675000
vt 0.375000 0.164957
vt 0.375000 0.421368
vt 0.375000 0.522222
vt 0.375000 0.568627
vt 0.375000 0.594444
vt 0.375000 0.614530
vt 0.375000 0.192857
vt 0.375000 0.371429
vt 0.375000 0.464706
vt 0.375000 0.516667
vt 0.375000 0.552941
vt 0.375000 0.585714
vt 0.375000 0.217094
vt 0.375000 0.345299
vt 0.375000 0.427778
vt 0.375000 0.480392
vt 0.375000 0.562393
vt 0.375000 0.258333
vt 0.375000 0.341667
vt 0.375000 0.405128
vt 0.375000 0.453571
vt 0.375000 0.497436
vt 0.375000 0.541667
s 0
f 120/1/1 85/2/1 5/3/1 13/4/1
f 72/5/2 33/6/2 6/7/2 17/8/2
f 104/9/3 81/10/3 8/11/3 21/12/3
f 56/13/4 37/14/4 7/15/4 12/16/4
f 29/17/5 44/18/5 9/19/5 3/20/5
f 44/18/6 48/21/6 10/22/6 9/19/6
f 48/21/7 52/23/7 11/24/7 10/22/7
f 52/23/8 56/13/8 12/16/8 11/24/8
f 73/25/9 92/26/9 24/27/9 4/28/9
f 92/26/10 96/29/10 23/30/10 24/27/10
f 96/29/11 100/31/11 22/32/11 23/30/11
f 100/31/12 104/9/12 21/12/12 22/32/12
f 25/33/13 60/34/13 20/35/13 2/36/13
f 60/34/14 64/37/14 19/38/14 20/35/14
f 64/37/15 68/39/15 18/40/15 19/38/15
f 68/39/16 72/5/16 17/8/16 18/40/16
f 77/41/17 108/42/17 16/43/17 1/44/17
f 108/42/18 112/45/18 15/46/18 16/43/18
f 112/45/19 116/47/19 14/48/19 15/46/19
f 116/47/20 120/1/20 13/4/20 14/48/20
f 14/49/21 13/50/21 69/51/21 65/52/21
f 65/52/22 69/51/22 70/53/22 66/54/22
f 142/55/23 144/56/23 71/57/23 67/58/23
f 67/58/24 71/57/24 72/5/24 68/39/24
f 15/59/25 14/49/25 65/52/25 61/60/25
f 61/60/26 65/52/26 66/54/26 62/61/26
f 140/62/27 142/55/27 67/58/27 63/63/27
f 63/63/28 67/58/28 68/39/28 64/37/28
f 16/64/29 15/59/29 61/60/29 57/65/29
f 57/65/30 61/60/30 62/61/30 58/66/30
f 138/67/31 140/62/31 63/63/31 59/68/31
f 59/68/32 63/63/32 64/37/32 60/34/32
f 1/69/33 16/64/33 57/65/33 28/70/33
f 28/70/34 57/65/34 58/66/34 27/71/34
f 121/72/35 138/67/35 59/68/35 26/73/35
f 26/73/36 59/68/36 60/34/36 25/33/36
f 22/32/37 21/12/37 53/74/37 49/75/37
f 49/75/38 53/74/38 54/76/38 50/77/38
f 134/78/39 136/79/39 55/80/39 51/81/39
f 51/81/40 55/80/40 56/13/40 52/23/40
f 23/30/41 22/32/41 49/75/41 45/82/41
f 45/82/42 49/75/42 50/77/42 46/83/42
f 132/84/43 134/78/43 51/81/43 47/85/43
f 47/85/44 51/81/44 52/23/44 48/21/44
f 24/27/45 23/30/45 45/82/45 41/86/45
f 41/86/46 45/82/46 46/83/46 42/87/46
f 130/88/47 132/84/47 47/85/47 43/89/47
f 43/89/48 47/85/48 48/21/48 44/18/48
f 4/28/49 24/27/49 41/86/49 32/90/49
f 32/90/50 41/86/50 42/87/50 31/91/50
f 123/92/51 130/88/51 43/89/51 30/93/51
f 30/93/52 43/89/52 44/18/52 29/17/52
f 21/12/53 8/11/53 40/94/53 53/74/53
f 53/74/54 40/94/54 39/95/54 54/76/54
f 136/79/55 127/96/55 38/97/55 55/80/55
f 55/80/56 38/97/56 37/14/56 56/13/56
f 13/50/57 5/98/57 36/99/57 69/51/57
f 69/51/58 36/99/58 35/100/58 70/53/58
f 144/56/59 125/101/59 34/102/59 71/57/59
f 71/57/60 34/102/60 33/6/60 72/5/60
f 11/24/61 12/16/61 117/103/61 113/104/61
f 113/104/62 117/103/62 118/105/62 114/106/62
f 114/106/63 118/105/63 119/107/63 115/108/63
f 115/108/64 119/107/64 120/1/64 116/47/64
f 10/22/65 11/24/65 113/104/65 109/109/65
f 109/109/66 113/104/66 114/106/66 110/110/66
f 110/110/67 114/106/67 115/108/67 111/111/67
f 111/111/68 115/108/68 116/47/68 112/45/68
f 9/19/69 10/22/69 109/109/69 105/112/69
f 105/112/70 109/109/70 110/110/70 106/113/70
f 106/113/71 110/110/71 111/111/71 107/114/71
f 107/114/72 111/111/72 112/45/72 108/42/72
f 3/20/73 9/19/73 105/112/73 80/115/73
f 80/115/74 105/112/74 106/113/74 79/116/74
f 79/116/75 106/113/75 107/114/75 78/117/75
f 78/117/76 107/114/76 108/42/76 77/41/76
f 18/40/77 17/8/77 101/118/77 97/119/77
f 97/119/78 101/118/78 102/120/78 98/121/78
f 98/121/79 102/120/79 103/122/79 99/123/79
f 99/123/80 103/122/80 104/9/80 100/31/80
f 19/38/81 18/40/81 97/119/81 93/124/81
f 93/124/82 97/119/82 98/121/82 94/125/82
f 94/125/83 98/121/83 99/123/83 95/126/83
f 95/126/84 99/123/84 100/31/84 96/29/84
f 20/35/85 19/38/85 93/124/85 89/127/85
f 89/127/86 93/124/86 94/125/86 90/128/86
f 90/128/87 94/125/87 95/126/87 91/129/87
f 91/129/88 95/126/88 96/29/88 92/26/88
f 2/36/89 20/35/89 89/127/89 76/130/89
f 76/130/90 89/127/90 90/128/90 75/131/90
f 75/131/91 90/128/91 91/129/91 74/132/91
f 74/132/92 91/129/92 92/26/92 73/25/92
f 17/8/93 6/7/93 84/133/93 101/118/93
f 101/118/94 84/133/94 83/134/94 102/120/94
f 102/120/95 83/134/95 82/135/95 103/122/95
f 103/122/96 82/135/96 81/10/96 104/9/96
f 12/16/97 7/15/97 88/136/97 117/103/97
f 117/103/98 88/136/98 87/137/98 118/105/98
f 118/105/99 87/137/99 86/138/99 119/107/99
f 119/107/100 86/138/100 85/2/100 120/1/100
f 70/53/101 35/100/101 126/139/101 143/140/101
f 143/140/102 126/139/102 125/101/102 144/56/102
f 54/76/103 39/95/103 128/141/103 135/142/103
f 135/142/104 128/141/104 127/96/104 136/79/104
f 31/91/105 42/87/105 129/143/105 124/144/105
f 124/144/106 129/143/106 130/88/106 123/92/106
f 42/87/107 46/83/107 131/145/107 129/143/107
f 129/143/108 131/145/108 132/84/108 130/88/108
f 46/83/109 50/77/109 133/146/109 131/145/109
f 131/145/110 133/146/110 134/78/110 132/84/110
f 50/77/111 54/76/111 135/142/111 133/146/111
f 133/146/112 135/142/112 136/79/112 134/78/112
f 27/71/113 58/66/113 137/147/113 122/148/113
f 122/148/114 137/147/114 138/67/114 121/72/114
f 58/66/115 62/61/115 139/149/115 137/147/115
f 137/147/116 139/149/116 140/62/116 138/67/116
f 62/61/117 66/54/117 141/150/117 139/149/117
f 139/149/118 141/150/118 142/55/118 140/62/118
f 66/54/119 70/53/119 143/140/119 141/150/119
f 141/150/120 143/140/120 144/56/120 142/55/120
f 27/71/121 145/151/121 1/69/121 28/70/121
f 145/152/122 150/153/122 77/41/122 1/44/122
f 150/153/123 155/154/123 78/117/123 77/41/123
f 155/154/124 160/155/124 79/116/124 78/117/124
f 160/155/125 165/156/125 80/115/125 79/116/125
f 165/156/126 29/17/126 3/20/126 80/115/126
f 122/148/127 146/157/127 145/151/127 27/71/127
f 146/158/128 151/159/128 150/153/128 145/152/128
f 151/159/129 156/160/129 155/154/129 150/153/129
f 156/160/130 161/161/130 160/155/130 155/154/130
f 161/161/131 166/162/131 165/156/131 160/155/131
f 166/162/132 30/93/132 29/17/132 165/156/132
f 121/72/133 147/163/133 146/157/133 122/148/133
f 147/164/134 152/165/134 151/159/134 146/158/134
f 152/165/135 157/166/135 156/160/135 151/159/135
f 157/166/136 162/167/136 161/161/136 156/160/136
f 162/167/137 167/168/137 166/162/137 161/161/137
f 167/168/138 123/92/138 30/93/138 166/162/138
f 26/73/139 148/169/139 147/163/139 121/72/139
f 148/170/140 153/171/140 152/165/140 147/164/140
f 153/171/141 158/172/141 157/166/141 152/165/141
f 158/172/142 163/159/142 162/167/142 157/166/142
f 163/159/143 168/173/143 167/168/143 162/167/143
f 168/173/144 124/144/144 123/92/144 167/168/144
f 25/33/145 149/174/145 148/169/145 26/73/145
f 149/175/146 154/176/146 153/171/146 148/170/146
f 154/176/147 159/177/147 158/172/147 153/171/147
f 159/177/148 164/178/148 163/159/148 158/172/148
f 164/178/149 169/179/149 168/173/149 163/159/149
f 169/179/150 31/91/150 124/144/150 168/173/150
f 2/36/151 76/130/151 149/174/151 25/33/151
f 76/130/152 75/131/152 154/176/152 149/175/152
f 75/131/153 74/132/153 159/177/153 154/176/153
f 74/132/154 73/25/154 164/178/154 159/177/154
f 73/25/155 4/28/155 169/179/155 164/178/155
f 4/28/156 32/90/156 31/91/156 169/179/156
