# Blender 5.2.2 LTS
# www.blender.org
o platform_medium_3.001
v -7.322207 -6.593831 4.840618
v -5.232046 -7.046961 -8.060230
v 2.633651 -5.945369 7.542377
v 9.675617 -6.521316 -4.855727
v -8.388122 5.506487 5.446740
v -4.405075 4.979356 -8.724449
v 4.743325 5.118917 7.439157
v 8.298918 5.368148 -3.839259
v 1.770080 -3.223949 6.937671
v 2.047918 -0.949696 7.319887
v 2.724707 1.511643 7.234574
v 4.099360 3.457680 7.216462
v -7.619803 3.156476 4.580782
v -7.500260 0.799636 4.292113
v -7.036333 -1.688152 3.900735
v -7.230666 -4.151599 4.363637
v -4.086182 3.380116 -7.874588
v -4.008730 0.713106 -7.503665
v -4.423848 -1.893971 -7.675951
v -5.004786 -4.540688 -7.937718
v 8.158389 3.116772 -3.787933
v 8.111553 0.767238 -3.697757
v 8.241749 -1.677852 -3.855394
v 9.113210 -4.098551 -4.470538
v -6.050282 -7.176087 -4.901221
v -6.591957 -7.106441 -1.833771
v -6.570167 -6.982950 0.362132
v -6.765457 -6.811471 2.399791
v 4.388085 -6.755979 4.876660
v 5.836277 -7.923857 2.369070
v 6.346097 -8.296491 -0.040867
v 8.004773 -7.144991 -2.287154
v -5.680167 5.374544 -6.135504
v -7.063094 5.446922 -4.201059
v -7.336038 5.555664 -1.380813
v -7.283008 5.623992 1.804323
v 6.768371 5.017714 5.230143
v 8.180805 4.458572 3.348267
v 8.663212 4.711936 1.041631
v 8.401885 5.181604 -1.315250
v 7.785059 -4.584947 -2.021776
v 6.912088 -5.052745 0.333983
v 6.385260 -4.723882 2.625558
v 4.072232 -3.802832 4.748725
v 7.650018 -1.707580 -1.599305
v 7.288511 -1.777987 0.383273
v 6.804509 -1.741601 2.871019
v 4.352853 -1.157694 5.013878
v 7.657101 0.769312 -1.729284
v 7.420051 0.579904 0.007513
v 7.131621 0.304485 2.678661
v 4.884062 0.986381 4.964079
v 8.090049 2.897326 -1.493480
v 8.220537 2.435740 0.553506
v 7.907738 2.160919 3.048410
v 6.347381 2.785602 5.005212
v -6.925552 -4.412371 2.063013
v -6.801380 -4.597517 0.135574
v -6.418540 -4.624641 -2.024360
v -5.889758 -4.674000 -4.954288
v -6.897181 -1.837899 1.884911
v -6.699586 -1.955862 -0.139284
v -5.948941 -1.975017 -2.424291
v -5.320832 -1.986385 -5.042273
v -6.933587 0.738418 2.108156
v -6.303971 0.723725 -0.335071
v -5.676370 0.705350 -2.810713
v -4.775673 0.716250 -5.108235
v -7.072700 3.163826 2.028289
v -6.870914 3.161268 -0.931088
v -6.374335 3.142323 -3.587916
v -5.208003 3.161167 -5.619189
v 6.647495 -6.591961 -5.200742
v 2.816296 -7.116627 -5.796599
v -0.351651 -7.285086 -6.897943
v -3.110419 -7.251019 -7.612861
v -5.111694 -6.808534 4.844872
v -3.746851 -7.030751 4.805690
v -2.393896 -6.554525 5.600690
v -0.150252 -6.128531 6.959244
v 5.944152 5.262231 -4.790570
v 3.877451 5.505884 -6.293854
v 1.746053 5.318724 -7.627929
v -1.019845 5.560062 -7.971290
v -5.482924 5.418802 6.297126
v -3.165411 5.218072 7.583670
v -0.547666 5.336068 8.856091
v 2.156095 5.429030 8.322793
v -2.783928 -4.668868 -7.400327
v -0.062963 -4.666193 -6.628847
v 2.908485 -4.434635 -5.503916
v 6.270218 -4.139654 -4.935130
v -2.100749 -1.956716 -7.015867
v 0.493359 -1.906712 -6.181407
v 3.027503 -1.293502 -5.154990
v 5.736007 -1.689026 -4.549336
v -1.574175 0.684997 -6.873612
v 0.564418 0.745969 -6.268414
v 2.903856 1.059142 -5.140637
v 5.679639 0.751517 -4.408290
v -1.065141 2.915206 -7.481665
v 0.844219 3.526094 -7.100360
v 3.497672 3.644372 -5.688373
v 5.796222 2.637506 -4.702517
v -0.519038 -3.448506 6.363607
v -2.204012 -3.862419 5.782220
v -3.872427 -4.406393 4.988359
v -5.429471 -4.373446 4.607787
v 0.162441 -1.166237 6.772861
v -1.377484 -1.463899 6.260922
v -3.510667 -1.731730 5.565214
v -5.446780 -1.788934 4.591566
v 0.841252 1.273680 7.034372
v -0.813917 0.968160 6.547640
v -3.070791 0.760042 5.691075
v -5.383923 0.785155 4.719290
v 1.608464 3.495177 7.815386
v -0.737886 3.190946 7.699404
v -3.122850 3.014102 6.543407
v -5.356368 3.100398 5.529027
v -3.879089 -7.826925 -5.010580
v -1.274348 -8.072714 -4.767412
v 1.330128 -8.565572 -4.046007
v 4.487313 -8.523996 -3.346926
v -4.441230 -8.000981 -2.325416
v -1.925162 -8.479922 -2.389873
v 0.365878 -9.394810 -1.878484
v 3.058987 -9.966192 -1.352065
v -4.574497 -8.003951 -0.317685
v -2.170226 -8.454189 -0.286503
v 0.137294 -9.020174 0.359687
v 2.967530 -9.149530 1.310307
v -4.755486 -7.599822 1.910847
v -2.821868 -7.960651 1.932576
v -0.887154 -7.635817 2.838063
v 1.602291 -7.312555 4.090737
vn -0.6840 -0.4289 0.5901
vn -0.4896 -0.4605 -0.7404
vn 0.3422 -0.3403 0.8759
vn 0.8407 -0.3343 -0.4259
vn -0.8130 -0.3580 0.4591
vn -0.3944 -0.3730 -0.8398
vn 0.4971 -0.2751 0.8229
vn 0.8199 -0.0883 -0.5656
vn 0.2376 0.0164 0.9712
vn 0.2374 -0.1104 0.9651
vn 0.3173 -0.2276 0.9206
vn 0.4444 -0.3236 0.8353
vn -0.8617 -0.2735 0.4274
vn -0.8580 -0.1561 0.4895
vn -0.8553 -0.0287 0.5174
vn -0.8103 0.0782 0.5808
vn -0.4462 -0.3169 -0.8369
vn -0.4654 -0.0621 -0.8829
vn -0.4594 0.1568 -0.8743
vn -0.5063 0.1343 -0.8518
vn 0.8261 -0.1069 -0.5533
vn 0.8611 -0.0382 -0.5070
vn 0.8688 0.1723 -0.4642
vn 0.8719 0.2336 -0.4303
vn -0.7969 -0.5643 -0.2155
vn -0.8399 -0.5347 -0.0932
vn -0.8130 -0.5822 -0.0077
vn -0.7716 -0.6361 0.0030
vn 0.5439 -0.4922 0.6796
vn 0.6458 -0.5957 0.4776
vn 0.7076 -0.6858 0.1704
vn 0.8010 -0.5748 0.1673
vn -0.8256 -0.3280 -0.4591
vn -0.8901 -0.3064 -0.3375
vn -0.9747 -0.2087 -0.0805
vn -0.9794 -0.1508 -0.1347
vn 0.7078 -0.2284 0.6684
vn 0.8854 -0.1902 0.4241
vn 0.9865 -0.1629 0.0159
vn 0.9904 -0.1215 -0.0653
vn 0.9122 0.0015 0.4098
vn 0.9461 -0.1250 0.2986
vn 0.8701 -0.1278 0.4761
vn 0.7236 -0.0225 0.6898
vn 0.9656 0.0093 0.2600
vn 0.9777 -0.0742 0.1966
vn 0.8536 -0.1227 0.5063
vn 0.6693 -0.1444 0.7289
vn 0.9872 -0.1008 0.1236
vn 0.9770 -0.1950 0.0860
vn 0.8645 -0.2691 0.4245
vn 0.6419 -0.2906 0.7096
vn 0.9870 -0.1603 -0.0127
vn 0.9655 -0.2601 0.0159
vn 0.8563 -0.3291 0.3981
vn 0.6581 -0.3319 0.6758
vn -0.9939 -0.0218 -0.1082
vn -0.9929 -0.0059 -0.1190
vn -0.9812 0.0688 -0.1802
vn -0.9642 0.1273 -0.2325
vn -0.9909 0.0133 -0.1338
vn -0.9781 0.0622 -0.1986
vn -0.9603 0.1148 -0.2543
vn -0.9467 0.1691 -0.2742
vn -0.9819 -0.0559 -0.1810
vn -0.9758 -0.0732 -0.2062
vn -0.9492 -0.1014 -0.2978
vn -0.9331 -0.0459 -0.3567
vn -0.9775 -0.1277 -0.1680
vn -0.9678 -0.2187 -0.1247
vn -0.8993 -0.3033 -0.3149
vn -0.8598 -0.2763 -0.4294
vn 0.2347 -0.4510 -0.8611
vn 0.2273 -0.4542 -0.8614
vn 0.2134 -0.5310 -0.8200
vn 0.0998 -0.6122 -0.7844
vn -0.1834 -0.5844 0.7905
vn -0.1861 -0.6979 0.6916
vn -0.2858 -0.5675 0.7722
vn -0.2336 -0.4834 0.8437
vn 0.4103 -0.1183 -0.9043
vn 0.4632 -0.3018 -0.8333
vn 0.3582 -0.3530 -0.8643
vn 0.1707 -0.2699 -0.9476
vn -0.3794 -0.3578 0.8532
vn -0.4071 -0.3806 0.8303
vn -0.1115 -0.4111 0.9047
vn 0.1879 -0.3273 0.9260
vn 0.2567 0.0577 -0.9648
vn 0.3082 0.0749 -0.9484
vn 0.2564 0.1045 -0.9609
vn 0.1691 0.1693 -0.9709
vn 0.2750 0.0336 -0.9609
vn 0.3351 0.0367 -0.9415
vn 0.2990 0.0603 -0.9523
vn 0.2261 0.1261 -0.9659
vn 0.2482 -0.1298 -0.9600
vn 0.3606 -0.1563 -0.9195
vn 0.3526 -0.1320 -0.9264
vn 0.2775 -0.0480 -0.9595
vn 0.2021 -0.2669 -0.9423
vn 0.3249 -0.3081 -0.8942
vn 0.4195 -0.2776 -0.8643
vn 0.3417 -0.1431 -0.9289
vn -0.3154 0.0019 0.9489
vn -0.3909 -0.0480 0.9192
vn -0.3232 -0.0572 0.9446
vn -0.1920 0.0461 0.9803
vn -0.2623 -0.0580 0.9633
vn -0.3172 -0.0570 0.9466
vn -0.3653 -0.0540 0.9293
vn -0.3308 -0.0239 0.9434
vn -0.1254 -0.1738 0.9768
vn -0.2782 -0.2048 0.9384
vn -0.3730 -0.1756 0.9110
vn -0.3492 -0.1648 0.9224
vn 0.1041 -0.3202 0.9416
vn -0.1876 -0.4006 0.8968
vn -0.3871 -0.3634 0.8474
vn -0.3612 -0.3170 0.8770
vn -0.1644 -0.9717 -0.1695
vn -0.0544 -0.9514 -0.3032
vn 0.0200 -0.8905 -0.4545
vn 0.2552 -0.8786 -0.4036
vn -0.2742 -0.9599 -0.0576
vn -0.2045 -0.9723 -0.1136
vn -0.1805 -0.9749 -0.1306
vn 0.1209 -0.9893 -0.0814
vn -0.2952 -0.9534 0.0617
vn -0.2190 -0.9675 0.1264
vn -0.2069 -0.9405 0.2697
vn 0.0540 -0.9265 0.3724
vn -0.2491 -0.9551 0.1606
vn -0.1255 -0.9559 0.2655
vn -0.0825 -0.9235 0.3747
vn -0.0168 -0.9048 0.4255
vt 0.567332 0.950000
vt 0.615415 0.950000
vt 0.614910 1.000000
vt 0.566928 1.000000
vt 0.566928 0.200000
vt 0.614910 0.200000
vt 0.614910 0.250000
vt 0.566928 0.250000
vt 0.568542 0.450000
vt 0.616928 0.450000
vt 0.617432 0.500000
vt 0.568946 0.500000
vt 0.568946 0.700000
vt 0.617432 0.700000
vt 0.617432 0.750000
vt 0.568946 0.750000
vt 0.375000 0.700000
vt 0.423486 0.700000
vt 0.423487 0.750000
vt 0.375000 0.750000
vt 0.471973 0.700000
vt 0.471973 0.750000
vt 0.520460 0.700000
vt 0.520459 0.750000
vt 0.375000 0.450000
vt 0.423386 0.450000
vt 0.423487 0.500000
vt 0.375000 0.500000
vt 0.471771 0.450000
vt 0.471973 0.500000
vt 0.520157 0.450000
vt 0.520460 0.500000
vt 0.375000 0.200000
vt 0.422982 0.200000
vt 0.422982 0.250000
vt 0.375000 0.250000
vt 0.470964 0.200000
vt 0.470964 0.250000
vt 0.518946 0.200000
vt 0.518946 0.250000
vt 0.375000 0.950000
vt 0.423083 0.950000
vt 0.422982 1.000000
vt 0.375000 1.000000
vt 0.471166 0.950000
vt 0.470964 1.000000
vt 0.519249 0.950000
vt 0.518946 1.000000
vt 0.518946 0.000000
vt 0.566928 0.000000
vt 0.566928 0.050000
vt 0.518946 0.050000
vt 0.566928 0.100000
vt 0.518946 0.100000
vt 0.566928 0.150000
vt 0.518946 0.150000
vt 0.470964 0.000000
vt 0.470964 0.050000
vt 0.470964 0.100000
vt 0.470964 0.150000
vt 0.422982 0.000000
vt 0.422982 0.050000
vt 0.422982 0.100000
vt 0.422982 0.150000
vt 0.375000 0.000000
vt 0.375000 0.050000
vt 0.375000 0.100000
vt 0.375000 0.150000
vt 0.568946 0.550000
vt 0.520460 0.550000
vt 0.568946 0.600000
vt 0.520460 0.600000
vt 0.568946 0.650000
vt 0.520460 0.650000
vt 0.471973 0.550000
vt 0.471973 0.600000
vt 0.471973 0.650000
vt 0.423487 0.550000
vt 0.423487 0.600000
vt 0.423486 0.650000
vt 0.375000 0.550000
vt 0.375000 0.600000
vt 0.375000 0.650000
vt 0.617432 0.550000
vt 0.617432 0.600000
vt 0.617432 0.650000
vt 0.614910 0.000000
vt 0.614910 0.050000
vt 0.614910 0.100000
vt 0.614910 0.150000
vt 0.568542 0.800000
vt 0.520157 0.800000
vt 0.568139 0.850000
vt 0.519854 0.850000
vt 0.567735 0.900000
vt 0.519551 0.900000
vt 0.471771 0.800000
vt 0.471569 0.850000
vt 0.471368 0.900000
vt 0.423386 0.800000
vt 0.423285 0.850000
vt 0.423184 0.900000
vt 0.375000 0.800000
vt 0.375000 0.850000
vt 0.375000 0.900000
vt 0.567332 0.300000
vt 0.519249 0.300000
vt 0.567735 0.350000
vt 0.519551 0.350000
vt 0.568139 0.400000
vt 0.519854 0.400000
vt 0.471166 0.300000
vt 0.471368 0.350000
vt 0.471569 0.400000
vt 0.423083 0.300000
vt 0.423184 0.350000
vt 0.423285 0.400000
vt 0.375000 0.300000
vt 0.375000 0.350000
vt 0.375000 0.400000
vt 0.615415 0.300000
vt 0.615919 0.350000
vt 0.616423 0.400000
vt 0.616928 0.800000
vt 0.616423 0.850000
vt 0.615919 0.900000
vt 0.375000 0.350000
vt 0.375000 0.368000
vt 0.375000 0.402000
vt 0.375000 0.500000
vt 0.375000 0.412000
vt 0.375000 0.500000
vt 0.375000 0.598000
vt 0.375000 0.458000
vt 0.375000 0.632000
vt 0.375000 0.542000
vt 0.375000 0.588000
vt 0.375000 0.650000
s 1
f 120/1/120 85/2/85 5/3/5 13/4/13
f 72/5/72 33/6/33 6/7/6 17/8/17
f 104/9/104 81/10/81 8/11/8 21/12/21
f 56/13/56 37/14/37 7/15/7 12/16/12
f 29/17/29 44/18/44 9/19/9 3/20/3
f 44/18/44 48/21/48 10/22/10 9/19/9
f 48/21/48 52/23/52 11/24/11 10/22/10
f 52/23/52 56/13/56 12/16/12 11/24/11
f 73/25/73 92/26/92 24/27/24 4/28/4
f 92/26/92 96/29/96 23/30/23 24/27/24
f 96/29/96 100/31/100 22/32/22 23/30/23
f 100/31/100 104/9/104 21/12/21 22/32/22
f 25/33/25 60/34/60 20/35/20 2/36/2
f 60/34/60 64/37/64 19/38/19 20/35/20
f 64/37/64 68/39/68 18/40/18 19/38/19
f 68/39/68 72/5/72 17/8/17 18/40/18
f 77/41/77 108/42/108 16/43/16 1/44/1
f 108/42/108 112/45/112 15/46/15 16/43/16
f 112/45/112 116/47/116 14/48/14 15/46/15
f 116/47/116 120/1/120 13/4/13 14/48/14
f 14/49/14 13/50/13 69/51/69 65/52/65
f 65/52/65 69/51/69 70/53/70 66/54/66
f 66/54/66 70/53/70 71/55/71 67/56/67
f 67/56/67 71/55/71 72/5/72 68/39/68
f 15/57/15 14/49/14 65/52/65 61/58/61
f 61/58/61 65/52/65 66/54/66 62/59/62
f 62/59/62 66/54/66 67/56/67 63/60/63
f 63/60/63 67/56/67 68/39/68 64/37/64
f 16/61/16 15/57/15 61/58/61 57/62/57
f 57/62/57 61/58/61 62/59/62 58/63/58
f 58/63/58 62/59/62 63/60/63 59/64/59
f 59/64/59 63/60/63 64/37/64 60/34/60
f 1/65/1 16/61/16 57/62/57 28/66/28
f 28/66/28 57/62/57 58/63/58 27/67/27
f 27/67/27 58/63/58 59/64/59 26/68/26
f 26/68/26 59/64/59 60/34/60 25/33/25
f 22/32/22 21/12/21 53/69/53 49/70/49
f 49/70/49 53/69/53 54/71/54 50/72/50
f 50/72/50 54/71/54 55/73/55 51/74/51
f 51/74/51 55/73/55 56/13/56 52/23/52
f 23/30/23 22/32/22 49/70/49 45/75/45
f 45/75/45 49/70/49 50/72/50 46/76/46
f 46/76/46 50/72/50 51/74/51 47/77/47
f 47/77/47 51/74/51 52/23/52 48/21/48
f 24/27/24 23/30/23 45/75/45 41/78/41
f 41/78/41 45/75/45 46/76/46 42/79/42
f 42/79/42 46/76/46 47/77/47 43/80/43
f 43/80/43 47/77/47 48/21/48 44/18/44
f 4/28/4 24/27/24 41/78/41 32/81/32
f 32/81/32 41/78/41 42/79/42 31/82/31
f 31/82/31 42/79/42 43/80/43 30/83/30
f 30/83/30 43/80/43 44/18/44 29/17/29
f 21/12/21 8/11/8 40/84/40 53/69/53
f 53/69/53 40/84/40 39/85/39 54/71/54
f 54/71/54 39/85/39 38/86/38 55/73/55
f 55/73/55 38/86/38 37/14/37 56/13/56
f 13/50/13 5/87/5 36/88/36 69/51/69
f 69/51/69 36/88/36 35/89/35 70/53/70
f 70/53/70 35/89/35 34/90/34 71/55/71
f 71/55/71 34/90/34 33/6/33 72/5/72
f 11/24/11 12/16/12 117/91/117 113/92/113
f 113/92/113 117/91/117 118/93/118 114/94/114
f 114/94/114 118/93/118 119/95/119 115/96/115
f 115/96/115 119/95/119 120/1/120 116/47/116
f 10/22/10 11/24/11 113/92/113 109/97/109
f 109/97/109 113/92/113 114/94/114 110/98/110
f 110/98/110 114/94/114 115/96/115 111/99/111
f 111/99/111 115/96/115 116/47/116 112/45/112
f 9/19/9 10/22/10 109/97/109 105/100/105
f 105/100/105 109/97/109 110/98/110 106/101/106
f 106/101/106 110/98/110 111/99/111 107/102/107
f 107/102/107 111/99/111 112/45/112 108/42/108
f 3/20/3 9/19/9 105/100/105 80/103/80
f 80/103/80 105/100/105 106/101/106 79/104/79
f 79/104/79 106/101/106 107/102/107 78/105/78
f 78/105/78 107/102/107 108/42/108 77/41/77
f 18/40/18 17/8/17 101/106/101 97/107/97
f 97/107/97 101/106/101 102/108/102 98/109/98
f 98/109/98 102/108/102 103/110/103 99/111/99
f 99/111/99 103/110/103 104/9/104 100/31/100
f 19/38/19 18/40/18 97/107/97 93/112/93
f 93/112/93 97/107/97 98/109/98 94/113/94
f 94/113/94 98/109/98 99/111/99 95/114/95
f 95/114/95 99/111/99 100/31/100 96/29/96
f 20/35/20 19/38/19 93/112/93 89/115/89
f 89/115/89 93/112/93 94/113/94 90/116/90
f 90/116/90 94/113/94 95/114/95 91/117/91
f 91/117/91 95/114/95 96/29/96 92/26/92
f 2/36/2 20/35/20 89/115/89 76/118/76
f 76/118/76 89/115/89 90/116/90 75/119/75
f 75/119/75 90/116/90 91/117/91 74/120/74
f 74/120/74 91/117/91 92/26/92 73/25/73
f 17/8/17 6/7/6 84/121/84 101/106/101
f 101/106/101 84/121/84 83/122/83 102/108/102
f 102/108/102 83/122/83 82/123/82 103/110/103
f 103/110/103 82/123/82 81/10/81 104/9/104
f 12/16/12 7/15/7 88/124/88 117/91/117
f 117/91/117 88/124/88 87/125/87 118/93/118
f 118/93/118 87/125/87 86/126/86 119/95/119
f 119/95/119 86/126/86 85/2/85 120/1/120
f 76/118/76 121/127/121 25/33/25 2/36/2
f 121/127/121 125/128/125 26/68/26 25/33/25
f 125/128/125 129/129/129 27/67/27 26/68/26
f 129/129/129 133/130/133 28/66/28 27/67/27
f 133/130/133 77/41/77 1/65/1 28/66/28
f 75/119/75 122/131/122 121/127/121 76/118/76
f 122/131/122 126/25/126 125/128/125 121/127/121
f 126/25/126 130/132/130 129/129/129 125/128/125
f 130/132/130 134/133/134 133/130/133 129/129/129
f 134/133/134 78/105/78 77/41/77 133/130/133
f 74/120/74 123/134/123 122/131/122 75/119/75
f 123/134/123 127/28/127 126/25/126 122/131/122
f 127/28/127 131/81/131 130/132/130 126/25/126
f 131/81/131 135/135/135 134/133/134 130/132/130
f 135/135/135 79/104/79 78/105/78 134/133/134
f 73/25/73 124/28/124 123/134/123 74/120/74
f 124/28/124 128/136/128 127/28/127 123/134/123
f 128/136/128 132/137/132 131/81/131 127/28/127
f 132/137/132 136/138/136 135/135/135 131/81/131
f 136/138/136 80/103/80 79/104/79 135/135/135
f 4/28/4 32/81/32 124/28/124 73/25/73
f 32/81/32 31/82/31 128/136/128 124/28/124
f 31/82/31 30/83/30 132/137/132 128/136/128
f 30/83/30 29/17/29 136/138/136 132/137/132
f 29/17/29 3/20/3 80/103/80 136/138/136
