# Blender 5.2.2 LTS
# www.blender.org
o platform_medium_3
v -7.611925 5.983047 5.006728
v -8.388122 5.506487 5.446740
v -4.884167 5.545610 -8.091006
v -4.405075 4.979356 -8.724449
v 5.010870 5.611731 6.794369
v 4.743325 5.118917 7.439157
v 7.890866 5.791527 -2.962853
v 8.298918 5.368148 -3.839259
v -6.979304 6.150976 1.738840
v -7.153783 6.070224 -1.250963
v -7.108396 5.949472 -3.973986
v -6.049949 6.006746 -5.819953
v -5.680167 5.374544 -6.135504
v -7.063094 5.446922 -4.201059
v -7.336038 5.555664 -1.380813
v -7.283008 5.623992 1.804323
v 8.137944 5.588978 -0.766518
v 8.272570 5.211230 1.290410
v 7.826146 4.979362 3.296777
v 6.730587 5.545290 5.013381
v 6.768371 5.017714 5.230143
v 8.180805 4.458572 3.348267
v 8.663212 4.711936 1.041631
v 8.401885 5.181604 -1.315250
v -1.655933 5.895259 -7.491218
v 1.293069 5.956795 -7.046182
v 3.429698 6.013560 -5.728765
v 5.455733 5.767800 -4.110023
v 5.944152 5.262231 -4.790570
v 3.877451 5.505884 -6.293854
v 1.746053 5.318724 -7.627929
v -1.019845 5.560062 -7.971290
v 2.397830 5.903883 7.735195
v -0.308894 5.811381 8.466949
v -2.837101 5.723128 7.467928
v -5.137793 5.925678 6.214185
v -5.482924 5.418802 6.297126
v -3.165411 5.218072 7.583670
v -0.547666 5.336068 8.856091
v 2.156095 5.429030 8.322793
v -2.828934 6.071022 -5.235419
v 0.390317 6.071916 -4.560450
v 2.662364 5.944835 -3.181013
v 5.270443 5.733591 -1.710801
v -3.764835 6.098952 -2.717820
v -0.582509 6.015233 -1.616131
v 1.912072 5.852304 -0.411248
v 5.219093 5.475819 0.575495
v -4.250338 6.151544 -0.072984
v -1.521008 5.995496 1.462203
v 1.381757 5.852180 2.296133
v 5.047354 5.319253 2.781964
v -4.627372 6.133574 3.203838
v -2.160861 5.858941 4.917677
v 0.566420 5.785296 5.536994
v 3.937966 5.803389 4.869033
vn -0.3980 0.8873 0.2328
vn -0.5399 0.7717 0.3361
vn -0.6364 0.5284 -0.5620
vn -0.2230 0.6739 -0.7043
vn 0.4215 0.7976 0.4314
vn 0.4180 0.6149 0.6687
vn 0.3872 0.9159 -0.1057
vn 0.3757 0.8679 -0.3249
vn -0.4408 0.8974 -0.0207
vn -0.5970 0.8019 -0.0233
vn -0.7155 0.6718 -0.1917
vn -0.6212 0.6726 -0.4021
vn -0.8695 -0.2409 -0.4311
vn -0.9229 0.0252 -0.3842
vn -0.9625 0.2698 -0.0270
vn -0.8118 0.5792 -0.0740
vn 0.4637 0.8828 0.0748
vn 0.5196 0.8404 0.1541
vn 0.5739 0.7907 0.2130
vn 0.5211 0.8200 0.2369
vn 0.7440 0.3941 0.5396
vn 0.8103 0.4912 0.3194
vn 0.8210 0.5590 0.1159
vn 0.7887 0.6147 0.0064
vn 0.0148 0.9296 -0.3682
vn 0.1163 0.9269 -0.3568
vn 0.2053 0.9470 -0.2471
vn 0.1666 0.9701 -0.1767
vn 0.2735 0.8686 -0.4133
vn 0.3483 0.8138 -0.4652
vn 0.2203 0.7872 -0.5760
vn 0.0807 0.7863 -0.6125
vn 0.1449 0.9179 0.3695
vn -0.0412 0.8778 0.4773
vn -0.2096 0.8538 0.4765
vn -0.1801 0.8651 0.4681
vn -0.3121 0.5825 0.7506
vn -0.3861 0.4872 0.7833
vn -0.1614 0.6353 0.7552
vn 0.2048 0.6774 0.7065
vn -0.0140 0.9982 -0.0585
vn 0.0163 0.9998 -0.0073
vn 0.0508 0.9980 0.0373
vn 0.0416 0.9962 0.0765
vn -0.0028 1.0000 -0.0084
vn 0.0348 0.9992 0.0172
vn 0.0683 0.9967 0.0448
vn 0.0737 0.9928 0.0945
vn 0.0163 0.9999 -0.0033
vn 0.0466 0.9986 0.0232
vn 0.0672 0.9977 0.0109
vn 0.1031 0.9942 -0.0295
vn 0.0240 0.9989 0.0397
vn 0.0333 0.9986 0.0422
vn 0.0099 0.9999 -0.0065
vn 0.0796 0.9958 -0.0458
vt 0.864910 0.556054
vt 0.864910 0.510090
vt 0.875000 0.500000
vt 0.875000 0.550000
vt 0.681054 0.510090
vt 0.635090 0.510090
vt 0.617432 0.500000
vt 0.668946 0.500000
vt 0.635090 0.693946
vt 0.635090 0.739910
vt 0.617432 0.750000
vt 0.617432 0.700000
vt 0.818946 0.739910
vt 0.864910 0.739910
vt 0.875000 0.750000
vt 0.823487 0.750000
vt 0.818946 0.693946
vt 0.864910 0.693946
vt 0.818946 0.510090
vt 0.818946 0.556054
vt 0.864910 0.602018
vt 0.818946 0.602018
vt 0.864910 0.647982
vt 0.818946 0.647982
vt 0.635090 0.556054
vt 0.617432 0.550000
vt 0.635090 0.602018
vt 0.617432 0.600000
vt 0.635090 0.647982
vt 0.617432 0.650000
vt 0.875000 0.700000
vt 0.875000 0.650000
vt 0.875000 0.600000
vt 0.681054 0.647982
vt 0.681054 0.693946
vt 0.727018 0.647982
vt 0.727018 0.693946
vt 0.772982 0.647982
vt 0.772982 0.693946
vt 0.681054 0.602018
vt 0.727018 0.602018
vt 0.772982 0.602018
vt 0.681054 0.556054
vt 0.727018 0.556054
vt 0.772982 0.556054
vt 0.727018 0.510090
vt 0.772982 0.510090
vt 0.681054 0.739910
vt 0.727018 0.739910
vt 0.772982 0.739910
vt 0.668946 0.750000
vt 0.720459 0.750000
vt 0.771973 0.750000
vt 0.823486 0.500000
vt 0.771973 0.500000
vt 0.720459 0.500000
s 1
f 12/1/12 3/2/3 4/3/4 13/4/13
f 28/5/28 7/6/7 8/7/8 29/8/29
f 20/9/20 5/10/5 6/11/6 21/12/21
f 36/13/36 1/14/1 2/15/2 37/16/37
f 53/17/53 9/18/9 1/14/1 36/13/36
f 25/19/25 3/2/3 12/1/12 41/20/41
f 41/20/41 12/1/12 11/21/11 45/22/45
f 45/22/45 11/21/11 10/23/10 49/24/49
f 49/24/49 10/23/10 9/18/9 53/17/53
f 7/6/7 17/25/17 24/26/24 8/7/8
f 17/25/17 18/27/18 23/28/23 24/26/24
f 18/27/18 19/29/19 22/30/22 23/28/23
f 19/29/19 20/9/20 21/12/21 22/30/22
f 1/14/1 9/18/9 16/31/16 2/15/2
f 9/18/9 10/23/10 15/32/15 16/31/16
f 10/23/10 11/21/11 14/33/14 15/32/15
f 11/21/11 12/1/12 13/4/13 14/33/14
f 19/29/19 52/34/52 56/35/56 20/9/20
f 52/34/52 51/36/51 55/37/55 56/35/56
f 51/36/51 50/38/50 54/39/54 55/37/55
f 50/38/50 49/24/49 53/17/53 54/39/54
f 18/27/18 48/40/48 52/34/52 19/29/19
f 48/40/48 47/41/47 51/36/51 52/34/52
f 47/41/47 46/42/46 50/38/50 51/36/51
f 46/42/46 45/22/45 49/24/49 50/38/50
f 17/25/17 44/43/44 48/40/48 18/27/18
f 44/43/44 43/44/43 47/41/47 48/40/48
f 43/44/43 42/45/42 46/42/46 47/41/47
f 42/45/42 41/20/41 45/22/45 46/42/46
f 7/6/7 28/5/28 44/43/44 17/25/17
f 28/5/28 27/46/27 43/44/43 44/43/44
f 27/46/27 26/47/26 42/45/42 43/44/43
f 26/47/26 25/19/25 41/20/41 42/45/42
f 20/9/20 56/35/56 33/48/33 5/10/5
f 56/35/56 55/37/55 34/49/34 33/48/33
f 55/37/55 54/39/54 35/50/35 34/49/34
f 54/39/54 53/17/53 36/13/36 35/50/35
f 5/10/5 33/48/33 40/51/40 6/11/6
f 33/48/33 34/49/34 39/52/39 40/51/40
f 34/49/34 35/50/35 38/53/38 39/52/39
f 35/50/35 36/13/36 37/16/37 38/53/38
f 3/2/3 25/19/25 32/54/32 4/3/4
f 25/19/25 26/47/26 31/55/31 32/54/32
f 26/47/26 27/46/27 30/56/30 31/55/31
f 27/46/27 28/5/28 29/8/29 30/56/30
