# Blender 5.2.2 LTS
# www.blender.org
o platform_medium_2
v 9.033847 6.562368 6.354937
v 9.699017 6.149739 6.844317
v -9.124561 6.147573 7.319671
v -9.868920 5.581357 7.042928
v 9.147540 5.704308 -5.841410
v 9.870268 5.093354 -5.827677
v -7.986290 6.354380 -6.581974
v -8.886020 5.927588 -6.610215
v 6.031672 6.578898 6.915819
v 3.552923 6.429362 8.007060
v -4.413547 6.244376 8.334074
v -6.582055 6.531700 7.800385
v -7.004499 5.932785 7.529600
v -4.652497 5.762002 8.351523
v 2.910088 6.095025 8.799453
v 6.059139 6.077351 7.147892
v -6.094687 6.375612 -7.509527
v -4.262126 6.400142 -7.930359
v 3.842722 6.293828 -8.363106
v 6.656081 6.359072 -6.782378
v 6.926302 5.772217 -6.831566
v 3.697972 5.783861 -8.807336
v -4.597803 5.828269 -8.293713
v -6.674836 5.884595 -7.664320
v -9.406165 6.510723 4.124022
v -9.823321 6.094545 1.164785
v -9.283482 5.785522 -1.371391
v -8.352822 5.833058 -3.807900
v -9.139825 5.365005 -4.072623
v -9.956363 5.321630 -1.639636
v -10.517342 5.475625 0.892256
v -10.033894 6.146378 3.666324
v 10.467906 6.061894 -3.887784
v 11.367158 6.366985 -1.788828
v 10.994429 6.287850 0.970474
v 9.918693 6.463458 3.661030
v 10.017888 6.023521 3.846749
v 11.181172 5.782808 1.254168
v 11.775994 5.913975 -1.687872
v 11.036227 5.630918 -3.856399
v -6.957993 6.687084 4.551881
v -7.224123 6.330534 1.278502
v -6.628215 6.039943 -1.366717
v -6.046665 6.183315 -4.437027
v -4.261375 6.608897 4.723337
v -4.159945 6.608281 1.337689
v -3.725682 6.431436 -1.400879
v -3.818203 6.317587 -4.843154
v 4.031727 6.626144 4.666203
v 4.938829 6.597458 1.352516
v 4.905666 6.448729 -1.685315
v 4.460564 6.184375 -5.335801
v 6.980428 6.640846 4.079058
v 8.346535 6.418272 1.067916
v 8.397603 6.280295 -1.741865
v 7.236811 6.203357 -4.407692
v 1.044030 6.305267 8.028626
v -1.519258 6.139797 8.119462
v -1.945818 5.582395 8.580566
v 0.625923 5.981789 8.682796
v -2.131229 6.457057 -8.629232
v 0.399993 6.477102 -9.103815
v 0.179507 5.923748 -9.539207
v -2.367195 5.892179 -8.957079
v -1.325483 6.240805 -5.504970
v 1.348869 6.182934 -6.033986
v -0.838967 6.436133 -1.546981
v 2.042769 6.421649 -1.684725
v -1.126635 6.610617 1.343132
v 1.906097 6.604038 1.347824
v -1.393473 6.585840 4.633847
v 1.325994 6.657975 4.614646
vn 0.2842 0.8933 0.3483
vn 0.4811 0.7643 0.4294
vn -0.3626 0.5288 0.7674
vn -0.6243 0.6625 0.4139
vn 0.3776 0.7366 -0.5612
vn 0.5272 0.6038 -0.5979
vn -0.2932 0.9264 -0.2363
vn -0.4731 0.8746 -0.1062
vn 0.1036 0.9140 0.3922
vn 0.1327 0.9020 0.4108
vn -0.0417 0.7335 0.6784
vn -0.1784 0.6747 0.7162
vn -0.1758 -0.2395 0.9548
vn -0.1800 0.1318 0.9748
vn 0.0202 0.8902 0.4551
vn 0.2181 0.6456 0.7319
vn -0.1649 0.8925 -0.4198
vn -0.1341 0.9043 -0.4054
vn 0.2312 0.8489 -0.4754
vn 0.2569 0.8561 -0.4485
vn 0.4167 0.3708 -0.8300
vn 0.2918 0.5283 -0.7974
vn -0.2279 0.5784 -0.7833
vn -0.2926 0.6350 -0.7149
vn -0.3517 0.9356 0.0298
vn -0.3605 0.9243 -0.1249
vn -0.3368 0.9318 -0.1356
vn -0.2877 0.9576 0.0125
vn -0.4901 0.8715 -0.0162
vn -0.5229 0.8339 -0.1764
vn -0.5658 0.8112 -0.1477
vn -0.5866 0.8099 0.0013
vn 0.3644 0.8827 -0.2966
vn 0.4611 0.8817 -0.0998
vn 0.5194 0.8455 0.1241
vn 0.4621 0.8792 0.1160
vn 0.7718 0.6002 0.2098
vn 0.8378 0.4782 0.2633
vn 0.7686 0.6362 -0.0662
vn 0.6156 0.6720 -0.4116
vn -0.0471 0.9989 0.0052
vn -0.0751 0.9917 -0.1041
vn -0.1071 0.9924 -0.0599
vn -0.0724 0.9964 0.0443
vn 0.0166 0.9992 0.0367
vn -0.0378 0.9978 -0.0554
vn -0.0491 0.9974 -0.0530
vn -0.0246 0.9997 0.0095
vn -0.0041 0.9998 0.0208
vn 0.0185 0.9991 -0.0372
vn 0.0204 0.9982 -0.0571
vn -0.0045 1.0000 0.0004
vn 0.0233 0.9997 -0.0111
vn 0.0346 0.9987 -0.0364
vn 0.0245 0.9983 -0.0532
vn 0.0602 0.9961 -0.0648
vn -0.0489 0.9607 0.2733
vn -0.0330 0.9023 0.4298
vn -0.0174 0.5569 0.8304
vn -0.0786 0.8555 0.5118
vn -0.1098 0.9007 -0.4203
vn 0.0374 0.8884 -0.4574
vn -0.0227 0.6046 -0.7962
vn -0.2183 0.5971 -0.7719
vn 0.0134 0.9999 0.0073
vn 0.0119 0.9998 0.0136
vn 0.0034 0.9985 -0.0546
vn 0.0019 0.9983 -0.0579
vn -0.0023 0.9995 -0.0314
vn -0.0009 0.9995 -0.0331
vn -0.0059 0.9984 0.0561
vn -0.0164 0.9989 0.0430
vt 0.864910 0.556054
vt 0.864910 0.510090
vt 0.875000 0.500000
vt 0.875000 0.550000
vt 0.681054 0.510090
vt 0.635090 0.510090
vt 0.617432 0.500000
vt 0.668946 0.500000
vt 0.635090 0.693946
vt 0.635090 0.739910
vt 0.617432 0.750000
vt 0.617432 0.700000
vt 0.818946 0.739910
vt 0.864910 0.739910
vt 0.875000 0.750000
vt 0.823487 0.750000
vt 0.818946 0.693946
vt 0.864910 0.693946
vt 0.818946 0.510090
vt 0.818946 0.556054
vt 0.864910 0.602018
vt 0.818946 0.602018
vt 0.818946 0.632661
vt 0.864910 0.632661
vt 0.864910 0.647982
vt 0.818946 0.647982
vt 0.635090 0.556054
vt 0.617432 0.550000
vt 0.635090 0.602018
vt 0.617432 0.600000
vt 0.635090 0.632661
vt 0.635090 0.647982
vt 0.617432 0.650000
vt 0.617432 0.633333
vt 0.875000 0.700000
vt 0.875000 0.650000
vt 0.864910 0.617339
vt 0.875000 0.600000
vt 0.875000 0.616667
vt 0.681054 0.647982
vt 0.681054 0.693946
vt 0.727018 0.647982
vt 0.727018 0.693946
vt 0.772982 0.647982
vt 0.772982 0.693946
vt 0.681054 0.632661
vt 0.727018 0.632661
vt 0.772982 0.632661
vt 0.681054 0.556054
vt 0.681054 0.602018
vt 0.727018 0.556054
vt 0.727018 0.602018
vt 0.772982 0.556054
vt 0.772982 0.602018
vt 0.727018 0.510090
vt 0.772982 0.510090
vt 0.681054 0.739910
vt 0.727018 0.739910
vt 0.772982 0.739910
vt 0.668946 0.750000
vt 0.720459 0.750000
vt 0.771973 0.750000
vt 0.823486 0.500000
vt 0.771973 0.500000
vt 0.720459 0.500000
vt 0.818946 0.617339
vt 0.772982 0.617339
vt 0.727018 0.617339
vt 0.681054 0.617339
vt 0.635090 0.617339
vt 0.875000 0.633333
vt 0.617432 0.616667
s 1
f 12/1/12 3/2/3 4/3/4 13/4/13
f 28/5/28 7/6/7 8/7/8 29/8/29
f 20/9/20 5/10/5 6/11/6 21/12/21
f 36/13/36 1/14/1 2/15/2 37/16/37
f 53/17/53 9/18/9 1/14/1 36/13/36
f 25/19/25 3/2/3 12/1/12 41/20/41
f 41/20/41 12/1/12 11/21/11 45/22/45
f 72/23/72 57/24/57 10/25/10 49/26/49
f 49/26/49 10/25/10 9/18/9 53/17/53
f 7/6/7 17/27/17 24/28/24 8/7/8
f 17/27/17 18/29/18 23/30/23 24/28/24
f 62/31/62 19/32/19 22/33/22 63/34/63
f 19/32/19 20/9/20 21/12/21 22/33/22
f 1/14/1 9/18/9 16/35/16 2/15/2
f 9/18/9 10/25/10 15/36/15 16/35/16
f 58/37/58 11/21/11 14/38/14 59/39/59
f 11/21/11 12/1/12 13/4/13 14/38/14
f 19/32/19 52/40/52 56/41/56 20/9/20
f 52/40/52 51/42/51 55/43/55 56/41/56
f 51/42/51 50/44/50 54/45/54 55/43/55
f 50/44/50 49/26/49 53/17/53 54/45/54
f 62/31/62 66/46/66 52/40/52 19/32/19
f 66/46/66 68/47/68 51/42/51 52/40/52
f 68/47/68 70/48/70 50/44/50 51/42/51
f 70/48/70 72/23/72 49/26/49 50/44/50
f 17/27/17 44/49/44 48/50/48 18/29/18
f 44/49/44 43/51/43 47/52/47 48/50/48
f 43/51/43 42/53/42 46/54/46 47/52/47
f 42/53/42 41/20/41 45/22/45 46/54/46
f 7/6/7 28/5/28 44/49/44 17/27/17
f 28/5/28 27/55/27 43/51/43 44/49/44
f 27/55/27 26/56/26 42/53/42 43/51/43
f 26/56/26 25/19/25 41/20/41 42/53/42
f 20/9/20 56/41/56 33/57/33 5/10/5
f 56/41/56 55/43/55 34/58/34 33/57/33
f 55/43/55 54/45/54 35/59/35 34/58/34
f 54/45/54 53/17/53 36/13/36 35/59/35
f 5/10/5 33/57/33 40/60/40 6/11/6
f 33/57/33 34/58/34 39/61/39 40/60/40
f 34/58/34 35/59/35 38/62/38 39/61/39
f 35/59/35 36/13/36 37/16/37 38/62/38
f 3/2/3 25/19/25 32/63/32 4/3/4
f 25/19/25 26/56/26 31/64/31 32/63/32
f 26/56/26 27/55/27 30/65/30 31/64/31
f 27/55/27 28/5/28 29/8/29 30/65/30
f 46/54/46 45/22/45 71/66/71 69/67/69
f 69/67/69 71/66/71 72/23/72 70/48/70
f 47/52/47 46/54/46 69/67/69 67/68/67
f 67/68/67 69/67/69 70/48/70 68/47/68
f 48/50/48 47/52/47 67/68/67 65/69/65
f 65/69/65 67/68/67 68/47/68 66/46/66
f 18/29/18 48/50/48 65/69/65 61/70/61
f 61/70/61 65/69/65 66/46/66 62/31/62
f 10/25/10 57/24/57 60/71/60 15/36/15
f 57/24/57 58/37/58 59/39/59 60/71/60
f 18/29/18 61/70/61 64/72/64 23/30/23
f 61/70/61 62/31/62 63/34/63 64/72/64
f 45/22/45 11/21/11 58/37/58 71/66/71
f 71/66/71 58/37/58 57/24/57 72/23/72
