# Blender 5.2.2 LTS
# www.blender.org
o platform_medium_1.001
v 12.929293 5.461767 -1.962656
v 13.757957 5.043992 -2.006620
v -0.834565 7.580809 11.932493
v -1.580935 7.014594 12.203764
v 2.394414 7.137544 -12.480006
v 2.953953 6.526591 -12.937653
v -11.133036 8.294317 -1.055000
v -12.053170 7.808424 -0.252641
v 10.711615 6.651504 1.041092
v 9.343077 7.464461 4.018892
v 3.411766 7.677612 9.654042
v 1.413918 7.964936 10.651966
v 0.916673 7.366021 10.719275
v 3.241014 7.195238 9.822105
v 9.325130 7.354426 5.166370
v 10.882427 6.159874 1.206667
v -9.608723 8.264616 -3.864311
v -8.436595 8.255249 -5.581264
v -3.293236 7.776577 -10.929328
v -0.113615 7.793245 -11.582546
v 0.060739 7.205453 -11.795708
v -3.679944 7.254720 -11.180953
v -8.814598 7.633519 -5.714742
v -10.181111 7.749918 -3.503175
v -3.131794 7.980231 9.705838
v -7.711500 7.820570 5.431078
v -9.163073 7.592736 3.541630
v -10.072242 7.838673 1.597539
v -10.841735 7.264544 1.882858
v -9.807560 7.036788 3.704129
v -8.392472 7.127154 5.622061
v -3.907563 7.614509 9.765385
v 4.665757 7.495131 -11.846745
v 6.710387 7.800221 -10.830004
v 8.239673 7.589632 -8.529108
v 11.651871 6.427536 -4.150716
v 11.863519 5.903833 -4.104284
v 8.568554 7.050583 -8.435495
v 7.087267 7.347211 -11.017889
v 5.119088 7.064154 -12.190935
v -1.004021 8.197792 8.475340
v -5.751143 8.320564 4.021343
v -7.214879 8.169621 2.073673
v -8.386700 8.369909 -0.650297
v 1.152114 8.146294 6.878288
v -3.420294 8.800759 2.198310
v -4.998468 8.724793 0.119852
v -6.779299 8.546720 -2.712478
v 7.576578 7.573807 1.059142
v 3.812077 8.387150 -4.243247
v 1.791284 8.060157 -6.439759
v -0.897172 7.755144 -8.961599
v 9.611689 7.071347 -1.825792
v 6.284144 8.085906 -6.795070
v 4.478251 7.713745 -8.870735
v 1.865214 7.642350 -10.146004
v 7.372035 7.738503 5.886455
v 5.477910 7.573033 7.615902
v 5.451573 7.015631 8.243499
v 7.477187 7.415026 6.655673
v -7.624578 8.190414 -7.330391
v -6.371480 8.052116 -9.176597
v -6.773988 7.465222 -9.394075
v -7.922350 7.588619 -7.488325
v -5.400723 8.340233 -4.943248
v -3.777571 8.007629 -7.257793
v -2.742377 8.641901 -2.130608
v -0.506567 8.360959 -4.349280
v -1.048023 8.758698 0.168280
v 1.376445 8.480771 -1.997994
v 3.284156 8.109241 4.942650
v 5.365419 8.118157 3.122371
v -5.403934 7.946719 7.572558
v -6.143414 7.403168 7.713778
v 9.904032 7.334840 -6.206749
v 10.168863 6.791826 -6.134109
v -3.356097 8.310386 6.248679
v -1.116496 8.503677 4.534015
v 5.687422 8.329650 -1.594149
v 7.934464 8.101312 -4.294373
v 1.122482 8.442137 2.554623
v 3.372301 8.301986 0.559046
vn 0.6009 0.7981 0.0438
vn 0.6637 0.7475 0.0261
vn 0.2217 0.5199 0.8250
vn -0.2008 0.6546 0.7289
vn -0.0758 0.7361 -0.6726
vn 0.0144 0.6038 -0.7970
vn -0.4335 0.8967 -0.0893
vn -0.4439 0.8752 0.1924
vn 0.5411 0.8362 0.0897
vn 0.4977 0.8628 0.0884
vn 0.4127 0.7248 0.5517
vn 0.3295 0.6648 0.6704
vn 0.4845 -0.2395 0.8413
vn 0.4943 0.1318 0.8593
vn 0.3721 0.9058 0.2026
vn 0.7151 0.6652 0.2149
vn -0.4548 0.8507 -0.2636
vn -0.4250 0.8650 -0.2668
vn -0.1312 0.8281 -0.5450
vn -0.0877 0.8455 -0.5268
vn -0.2213 0.3708 -0.9020
vn -0.2988 0.5186 -0.8011
vn -0.7417 0.5100 -0.4357
vn -0.7094 0.5630 -0.4240
vn -0.2246 0.9208 0.3189
vn -0.3802 0.8802 0.2841
vn -0.3948 0.8812 0.2599
vn -0.2728 0.9294 0.2486
vn -0.4210 0.8357 0.3528
vn -0.5401 0.7568 0.3681
vn -0.5546 0.7204 0.4165
vn -0.4068 0.7956 0.4490
vn 0.0860 0.8826 -0.4622
vn 0.2945 0.8757 -0.3826
vn 0.4841 0.8265 -0.2872
vn 0.6523 0.7286 -0.2087
vn 0.7265 0.6190 -0.2983
vn 0.7705 0.4245 -0.4756
vn 0.5549 0.6318 -0.5412
vn 0.2025 0.6720 -0.7123
vn 0.0045 0.9946 0.1039
vn -0.1439 0.9851 0.0945
vn -0.1621 0.9823 0.0941
vn -0.0906 0.9934 0.0699
vn 0.0844 0.9941 0.0678
vn -0.0404 0.9977 0.0552
vn -0.0776 0.9969 0.0089
vn -0.0576 0.9979 -0.0307
vn 0.2325 0.9725 0.0158
vn 0.0218 0.9976 -0.0651
vn -0.0004 0.9927 -0.1208
vn 0.0231 0.9977 -0.0632
vn 0.3690 0.9277 0.0567
vn 0.0797 0.9926 -0.0918
vn -0.0062 0.9952 -0.0978
vn 0.0160 0.9935 -0.1123
vn 0.1955 0.9647 0.1762
vn 0.2635 0.8972 0.3543
vn 0.5246 0.5569 0.6439
vn 0.2917 0.8684 0.4011
vn -0.4134 0.8612 -0.2958
vn -0.3000 0.8554 -0.4222
vn -0.5538 0.5741 -0.6030
vn -0.7253 0.5353 -0.4329
vn 0.0074 0.9959 -0.0899
vn 0.0346 0.9951 -0.0927
vn 0.0090 0.9967 -0.0809
vn 0.0140 0.9940 -0.1089
vn 0.0518 0.9986 -0.0107
vn 0.0430 0.9985 -0.0352
vn 0.0826 0.9934 0.0798
vn 0.1170 0.9921 0.0460
vn -0.2916 0.9140 0.2820
vn -0.4839 0.7446 0.4598
vn 0.6038 0.7447 -0.2842
vn 0.7885 0.3125 -0.5298
vn -0.0590 0.9928 0.1041
vn 0.0340 0.9962 0.0803
vn 0.1516 0.9875 0.0434
vn 0.2456 0.9693 0.0117
vn 0.0822 0.9955 0.0465
vn 0.0944 0.9949 0.0341
vt 0.864910 0.556054
vt 0.864910 0.510090
vt 0.875000 0.500000
vt 0.875000 0.550000
vt 0.681054 0.510090
vt 0.635090 0.510090
vt 0.617432 0.500000
vt 0.668946 0.500000
vt 0.635090 0.693946
vt 0.635090 0.739910
vt 0.617432 0.750000
vt 0.617432 0.700000
vt 0.818946 0.739910
vt 0.864910 0.739910
vt 0.875000 0.750000
vt 0.823487 0.750000
vt 0.818946 0.693946
vt 0.864910 0.693946
vt 0.818946 0.510090
vt 0.818946 0.556054
vt 0.864910 0.602018
vt 0.818946 0.602018
vt 0.818946 0.632661
vt 0.864910 0.632661
vt 0.864910 0.647982
vt 0.818946 0.647982
vt 0.635090 0.556054
vt 0.617432 0.550000
vt 0.635090 0.602018
vt 0.617432 0.600000
vt 0.635090 0.632661
vt 0.635090 0.647982
vt 0.617432 0.650000
vt 0.617432 0.633333
vt 0.875000 0.700000
vt 0.875000 0.650000
vt 0.864910 0.617339
vt 0.875000 0.600000
vt 0.875000 0.616667
vt 0.681054 0.647982
vt 0.681054 0.693946
vt 0.727018 0.647982
vt 0.727018 0.693946
vt 0.772982 0.647982
vt 0.772982 0.693946
vt 0.795964 0.647982
vt 0.795964 0.693946
vt 0.681054 0.632661
vt 0.727018 0.632661
vt 0.772982 0.632661
vt 0.795964 0.632661
vt 0.681054 0.556054
vt 0.681054 0.602018
vt 0.727018 0.556054
vt 0.727018 0.602018
vt 0.772982 0.556054
vt 0.772982 0.602018
vt 0.795964 0.556054
vt 0.795964 0.602018
vt 0.727018 0.510090
vt 0.772982 0.510090
vt 0.795964 0.510090
vt 0.681054 0.739910
vt 0.727018 0.739910
vt 0.772982 0.739910
vt 0.795964 0.739910
vt 0.668946 0.750000
vt 0.720459 0.750000
vt 0.771973 0.750000
vt 0.797730 0.750000
vt 0.823486 0.500000
vt 0.771973 0.500000
vt 0.797730 0.500000
vt 0.720459 0.500000
vt 0.818946 0.617339
vt 0.795964 0.617339
vt 0.772982 0.617339
vt 0.727018 0.617339
vt 0.681054 0.617339
vt 0.635090 0.617339
vt 0.875000 0.633333
vt 0.617432 0.616667
s 1
f 12/1/12 3/2/3 4/3/4 13/4/13
f 28/5/28 7/6/7 8/7/8 29/8/29
f 20/9/20 5/10/5 6/11/6 21/12/21
f 36/13/36 1/14/1 2/15/2 37/16/37
f 53/17/53 9/18/9 1/14/1 36/13/36
f 25/19/25 3/2/3 12/1/12 41/20/41
f 41/20/41 12/1/12 11/21/11 45/22/45
f 72/23/72 57/24/57 10/25/10 49/26/49
f 49/26/49 10/25/10 9/18/9 53/17/53
f 7/6/7 17/27/17 24/28/24 8/7/8
f 17/27/17 18/29/18 23/30/23 24/28/24
f 62/31/62 19/32/19 22/33/22 63/34/63
f 19/32/19 20/9/20 21/12/21 22/33/22
f 1/14/1 9/18/9 16/35/16 2/15/2
f 9/18/9 10/25/10 15/36/15 16/35/16
f 58/37/58 11/21/11 14/38/14 59/39/59
f 11/21/11 12/1/12 13/4/13 14/38/14
f 19/32/19 52/40/52 56/41/56 20/9/20
f 52/40/52 51/42/51 55/43/55 56/41/56
f 51/42/51 50/44/50 54/45/54 55/43/55
f 79/46/79 49/26/49 53/17/53 80/47/80
f 62/31/62 66/48/66 52/40/52 19/32/19
f 66/48/66 68/49/68 51/42/51 52/40/52
f 68/49/68 70/50/70 50/44/50 51/42/51
f 82/51/82 72/23/72 49/26/49 79/46/79
f 17/27/17 44/52/44 48/53/48 18/29/18
f 44/52/44 43/54/43 47/55/47 48/53/48
f 43/54/43 42/56/42 46/57/46 47/55/47
f 77/58/77 41/20/41 45/22/45 78/59/78
f 7/6/7 28/5/28 44/52/44 17/27/17
f 28/5/28 27/60/27 43/54/43 44/52/44
f 27/60/27 26/61/26 42/56/42 43/54/43
f 73/62/73 25/19/25 41/20/41 77/58/77
f 20/9/20 56/41/56 33/63/33 5/10/5
f 56/41/56 55/43/55 34/64/34 33/63/33
f 55/43/55 54/45/54 35/65/35 34/64/34
f 80/47/80 53/17/53 36/13/36 75/66/75
f 5/10/5 33/63/33 40/67/40 6/11/6
f 33/63/33 34/64/34 39/68/39 40/67/40
f 34/64/34 35/65/35 38/69/38 39/68/39
f 75/66/75 36/13/36 37/16/37 76/70/76
f 3/2/3 25/19/25 32/71/32 4/3/4
f 73/62/73 26/61/26 31/72/31 74/73/74
f 26/61/26 27/60/27 30/74/30 31/72/31
f 27/60/27 28/5/28 29/8/29 30/74/30
f 78/59/78 45/22/45 71/75/71 81/76/81
f 81/76/81 71/75/71 72/23/72 82/51/82
f 47/55/47 46/57/46 69/77/69 67/78/67
f 67/78/67 69/77/69 70/50/70 68/49/68
f 48/53/48 47/55/47 67/78/67 65/79/65
f 65/79/65 67/78/67 68/49/68 66/48/66
f 18/29/18 48/53/48 65/79/65 61/80/61
f 61/80/61 65/79/65 66/48/66 62/31/62
f 10/25/10 57/24/57 60/81/60 15/36/15
f 57/24/57 58/37/58 59/39/59 60/81/60
f 18/29/18 61/80/61 64/82/64 23/30/23
f 61/80/61 62/31/62 63/34/63 64/82/64
f 45/22/45 11/21/11 58/37/58 71/75/71
f 71/75/71 58/37/58 57/24/57 72/23/72
f 69/77/69 81/76/81 82/51/82 70/50/70
f 46/57/46 78/59/78 81/76/81 69/77/69
f 25/19/25 73/62/73 74/73/74 32/71/32
f 35/65/35 75/66/75 76/70/76 38/69/38
f 54/45/54 80/47/80 75/66/75 35/65/35
f 26/61/26 73/62/73 77/58/77 42/56/42
f 42/56/42 77/58/77 78/59/78 46/57/46
f 70/50/70 82/51/82 79/46/79 50/44/50
f 50/44/50 79/46/79 80/47/80 54/45/54
