# Blender 5.2.2 LTS
# www.blender.org
o ramp_small_1.001
v 5.826122 0.650900 12.646862
v -5.776459 0.527140 13.326627
v 5.660254 2.555872 -12.722499
v -6.121202 2.604955 -13.755814
v -6.293859 1.261111 6.475054
v -6.480179 1.768006 0.169083
v -6.625728 2.189662 -6.104245
v 5.915031 2.220614 -6.183269
v 5.309944 1.927608 -0.148644
v 6.049067 1.288997 6.366474
v 0.072010 0.686152 13.754345
v -0.063717 2.928218 -14.731574
v -0.046155 2.486628 -5.915545
v -0.023375 2.031556 0.148934
v 0.012688 1.568070 6.224782
v -3.092863 0.686210 13.890440
v -6.560455 2.494658 -9.676172
v 3.090555 2.900327 -14.335401
v 6.458378 1.120080 9.661779
v -6.164403 0.980686 9.995495
v -6.449956 1.528017 3.292264
v -6.446290 1.982387 -2.949245
v 5.878748 2.502138 -9.690868
v 5.594484 2.078084 -3.147701
v 5.584186 1.604545 3.097522
v 3.056601 2.511786 -5.922968
v 2.712005 2.157927 -0.012626
v 3.088870 1.589740 6.207662
v 3.186280 0.742741 13.100131
v -3.213921 2.856874 -14.273665
v -3.321799 2.441433 -5.867514
v -3.107904 2.013058 0.165114
v -3.080117 1.552408 6.231090
v 0.000290 1.800910 3.152654
v -0.023913 2.255488 -2.845119
v -0.050546 2.767171 -9.425419
v 0.075673 1.262465 9.794595
v 3.232214 1.359119 9.609716
v 3.020762 2.782847 -9.395754
v 2.900303 2.327880 -2.927719
v 2.900004 1.872164 3.069092
v -3.095761 1.785212 3.163958
v -3.144952 2.236699 -2.829417
v -3.233984 2.725090 -9.354163
v -3.044119 1.294019 9.703301
vn 0.0672 0.9828 0.1718
vn -0.0869 0.9859 0.1431
vn 0.1098 0.9938 0.0193
vn -0.0764 0.9968 0.0229
vn -0.0831 0.9933 0.0801
vn -0.0742 0.9945 0.0739
vn -0.0795 0.9939 0.0762
vn 0.1046 0.9920 0.0705
vn 0.0948 0.9927 0.0746
vn 0.0900 0.9938 0.0647
vn 0.0017 0.9886 0.1506
vn -0.0077 0.9996 0.0279
vn -0.0108 0.9972 0.0746
vn -0.0185 0.9970 0.0755
vn -0.0084 0.9968 0.0790
vn -0.0409 0.9888 0.1436
vn -0.0779 0.9955 0.0540
vn 0.0503 0.9985 0.0236
vn 0.0770 0.9912 0.1074
vn -0.0876 0.9902 0.1086
vn -0.0755 0.9940 0.0790
vn -0.0779 0.9944 0.0710
vn 0.1083 0.9929 0.0488
vn 0.0989 0.9932 0.0616
vn 0.0964 0.9917 0.0851
vn 0.0483 0.9963 0.0714
vn 0.0250 0.9968 0.0754
vn 0.0382 0.9965 0.0745
vn 0.0298 0.9859 0.1646
vn -0.0445 0.9987 0.0259
vn -0.0468 0.9960 0.0759
vn -0.0394 0.9964 0.0747
vn -0.0422 0.9960 0.0790
vn -0.0138 0.9967 0.0801
vn -0.0156 0.9974 0.0698
vn -0.0086 0.9985 0.0541
vn -0.0032 0.9935 0.1139
vn 0.0337 0.9933 0.1105
vn 0.0495 0.9974 0.0523
vn 0.0370 0.9972 0.0643
vn 0.0362 0.9957 0.0852
vn -0.0400 0.9962 0.0775
vn -0.0412 0.9965 0.0721
vn -0.0447 0.9975 0.0545
vn -0.0404 0.9932 0.1093
vt 0.625000 0.250000
vt 0.875000 0.562500
vt 0.843750 0.562500
vt 0.625000 0.281250
vt 0.625000 0.500000
vt 0.656250 0.500000
vt 0.656250 0.562500
vt 0.613130 0.562500
vt 0.625000 0.750000
vt 0.613130 0.687500
vt 0.656250 0.687500
vt 0.625000 0.781250
vt 0.625000 0.312500
vt 0.843750 0.500000
vt 0.812500 0.562500
vt 0.625000 1.000000
vt 0.843750 0.750000
vt 0.843750 0.687500
vt 0.625000 0.062500
vt 0.812500 0.625000
vt 0.812500 0.687500
vt 0.781250 0.687500
vt 0.781250 0.625000
vt 0.625000 0.968750
vt 0.812500 0.750000
vt 0.843750 0.625000
vt 0.625000 0.125000
vt 0.875000 0.687500
vt 0.687500 0.687500
vt 0.687500 0.625000
vt 0.718750 0.625000
vt 0.718750 0.687500
vt 0.656250 0.625000
vt 0.750000 0.687500
vt 0.750000 0.625000
vt 0.625000 0.812500
vt 0.656250 0.750000
vt 0.625000 0.875000
vt 0.718750 0.750000
vt 0.625000 0.843750
vt 0.687500 0.750000
vt 0.625000 0.937500
vt 0.781250 0.750000
vt 0.625000 0.906250
vt 0.750000 0.750000
vt 0.625000 0.343750
vt 0.812500 0.500000
vt 0.781250 0.562500
vt 0.625000 0.468750
vt 0.687500 0.500000
vt 0.687500 0.562500
vt 0.750000 0.562500
vt 0.718750 0.562500
vt 0.613130 0.625000
vt 0.625000 0.187500
vt 0.875000 0.625000
vt 0.625000 0.437500
vt 0.718750 0.500000
vt 0.625000 0.375000
vt 0.781250 0.500000
vt 0.625000 0.406250
vt 0.750000 0.500000
s 1
f 2/1/2 16/2/16 45/3/45 20/4/20
f 4/5/4 17/6/17 44/7/44 30/8/30
f 3/9/3 18/10/18 39/11/39 23/12/23
f 5/13/5 20/14/20 45/3/45 33/15/33
f 1/16/1 19/17/19 38/18/38 29/19/29
f 15/20/15 28/21/28 41/22/41 34/23/34
f 38/18/38 19/24/19 10/25/10 28/21/28
f 28/21/28 15/20/15 37/26/37 38/18/38
f 11/27/11 29/28/29 38/18/38 37/26/37
f 26/29/26 13/30/13 35/31/35 40/32/40
f 13/30/13 26/29/26 39/11/39 36/33/36
f 27/34/27 14/35/14 34/23/34 41/22/41
f 8/36/8 23/37/23 39/11/39 26/29/26
f 14/35/14 27/34/27 40/32/40 35/31/35
f 9/38/9 24/39/24 40/32/40 27/34/27
f 40/32/40 24/40/24 8/41/8 26/29/26
f 10/42/10 25/43/25 41/22/41 28/21/28
f 41/22/41 25/44/25 9/45/9 27/34/27
f 21/46/21 5/47/5 33/15/33 42/48/42
f 17/49/17 7/50/7 31/51/31 44/7/44
f 42/48/42 33/15/33 15/20/15 34/23/34
f 14/35/14 32/52/32 42/48/42 34/23/34
f 13/30/13 31/51/31 43/53/43 35/31/35
f 12/54/12 30/8/30 44/7/44 36/33/36
f 43/53/43 32/52/32 14/35/14 35/31/35
f 45/3/45 16/55/16 11/56/11 37/26/37
f 15/20/15 33/15/33 45/3/45 37/26/37
f 7/57/7 22/58/22 43/53/43 31/51/31
f 44/7/44 31/51/31 13/30/13 36/33/36
f 18/10/18 12/54/12 36/33/36 39/11/39
f 6/59/6 21/60/21 42/48/42 32/52/32
f 22/61/22 6/62/6 32/52/32 43/53/43
