# Blender 5.2.2 LTS
# www.blender.org
o ramp_small_2
v -3.162453 -2.775196 8.738235
v -3.164696 -2.793079 -8.781509
v 2.533279 -2.372295 8.685837
v 3.255630 -2.800900 -8.804245
v -3.218529 -2.871929 -3.135818
v -3.305183 -2.914593 3.169876
v 3.020615 -2.498127 3.262772
v 3.351288 -2.900845 -3.163162
v -3.184883 -2.822460 6.097229
v -3.978256 -0.434338 9.659973
v -3.793854 -0.474613 -10.410065
v 0.043373 -2.843834 -8.831573
v 3.804871 -0.591354 -9.641678
v 3.283676 -2.839920 -6.083054
v 3.356583 -0.341324 9.489731
v -0.016632 -2.849243 9.044922
v -3.199211 -2.836922 -6.050400
v -3.527649 -3.013611 0.031540
v 2.978607 -2.535957 6.111313
v 3.137360 -2.686478 0.037567
v -0.095818 -3.283493 -3.142731
v -0.192719 -3.135101 3.220749
v 3.724258 -0.457176 -3.286636
v 3.442276 -0.216850 3.384933
v -3.629608 -0.453224 3.274612
v -3.669006 -0.455189 -3.276993
v -3.981468 -0.464710 -6.531357
v 0.144318 -0.530544 -10.196213
v 3.542969 -0.343479 6.530716
v -0.223099 -0.444267 9.669342
v -0.023705 -2.924496 6.085388
v 0.020424 -2.982059 -6.046753
v -0.133148 -3.217609 0.031052
v 3.841019 -0.525364 -6.503891
v 3.587906 -0.350159 0.042572
v -3.875404 -0.443794 6.584351
v -3.630470 -0.454014 -0.006271
v -4.618629 1.454784 10.550217
v -3.778801 1.389004 -10.492920
v 3.861908 1.471638 10.512589
v 4.184555 1.171677 -10.372040
v -3.834404 1.441380 3.375046
v -3.842529 1.446827 -3.428802
v 4.085388 1.554531 -3.401443
v 4.656128 2.061401 3.529434
v -3.900764 1.446823 -6.943802
v 0.227943 1.354446 -10.712234
v 4.166168 1.682819 6.997101
v -0.420502 1.455090 10.394608
v -4.259705 1.457973 7.023376
v -3.876595 1.471859 -0.027237
v 4.136078 1.349548 -6.935822
v 4.526840 1.874672 0.195816
vn -0.9688 -0.2435 0.0450
vn -0.9528 -0.3018 -0.0336
vn 0.0112 -0.5418 -0.8404
vn 0.0744 -0.4452 -0.8924
vn 0.9768 -0.2134 -0.0154
vn 0.9330 -0.3404 0.1167
vn 0.1129 -0.3187 0.9411
vn -0.0472 -0.3186 0.9467
vn -0.0516 -0.9972 0.0547
vn 0.1625 -0.9864 0.0262
vn 0.1570 -0.9861 0.0550
vn -0.0289 -0.9993 0.0220
vn -0.0307 -0.9990 -0.0333
vn 0.0285 -0.9991 -0.0322
vn 0.0773 -0.9951 -0.0613
vn -0.0873 -0.9944 -0.0595
vn -0.0940 -0.9954 -0.0170
vn 0.1347 -0.9897 0.0488
vn 0.1768 -0.9832 0.0464
vn -0.0653 -0.9974 0.0303
vn 0.9707 -0.2401 -0.0095
vn 0.9816 -0.1910 0.0081
vn 0.9839 -0.1680 0.0610
vn 0.9812 -0.1867 0.0483
vn -0.9535 -0.3012 -0.0104
vn -0.9790 -0.2033 -0.0164
vn -0.9957 -0.0852 0.0360
vn -0.9927 -0.1120 -0.0442
vn -0.9689 -0.2382 -0.0675
vn 0.0165 -0.3891 0.9210
vn -0.9989 0.0199 -0.0418
vn -0.0025 -0.1577 -0.9875
vn 0.9508 -0.3036 0.0622
vn 0.0136 -0.4269 0.9042
vn 0.0995 -0.3330 -0.9377
vn 0.9837 -0.1797 0.0085
vn -0.9857 -0.1395 -0.0945
vn -0.9931 -0.1173 0.0059
vn -0.9940 -0.1089 0.0011
vn -0.9984 -0.0162 0.0547
vn 0.9863 -0.1622 0.0310
vn 0.9558 -0.2931 -0.0240
vn 0.9014 -0.4324 0.0229
vn 0.9183 -0.3953 0.0239
vt 0.375000 0.166667
vt 0.500000 0.166667
vt 0.500000 0.208333
vt 0.375000 0.208333
vt 0.500000 0.253270
vt 0.375000 0.250000
vt 0.500000 0.375000
vt 0.375000 0.375000
vt 0.500000 0.496730
vt 0.375000 0.500000
vt 0.375000 0.666667
vt 0.500000 0.666667
vt 0.500000 0.708333
vt 0.375000 0.708333
vt 0.500000 0.753270
vt 0.375000 0.750000
vt 0.500000 0.875000
vt 0.375000 0.875000
vt 0.500000 1.000000
vt 0.375000 1.000000
vt 0.125000 0.666667
vt 0.250000 0.666667
vt 0.250000 0.708333
vt 0.125000 0.708333
vt 0.250000 0.750000
vt 0.125000 0.750000
vt 0.125000 0.500000
vt 0.250000 0.500000
vt 0.250000 0.541667
vt 0.125000 0.541667
vt 0.375000 0.541667
vt 0.375000 0.583333
vt 0.250000 0.583333
vt 0.125000 0.583333
vt 0.250000 0.625000
vt 0.125000 0.625000
vt 0.375000 0.625000
vt 0.500000 0.541667
vt 0.500000 0.583333
vt 0.500000 0.625000
vt 0.375000 0.000000
vt 0.500000 0.000000
vt 0.500000 0.041667
vt 0.375000 0.041667
vt 0.500000 0.083333
vt 0.375000 0.083333
vt 0.500000 0.125000
vt 0.375000 0.125000
vt 0.599219 0.000000
vt 0.598860 0.041667
vt 0.598816 0.875000
vt 0.599219 1.000000
vt 0.598669 0.208333
vt 0.598019 0.250706
vt 0.598656 0.375000
vt 0.601874 0.708333
vt 0.599990 0.750654
vt 0.598163 0.499298
vt 0.599038 0.541667
vt 0.598596 0.083333
vt 0.598935 0.125000
vt 0.598597 0.166667
vt 0.600324 0.583333
vt 0.603631 0.625000
vt 0.605193 0.666667
s 0
f 5/1/1 26/2/1 27/3/1 17/4/1
f 17/4/2 27/3/2 11/5/2 2/6/2
f 2/6/3 11/5/3 28/7/3 12/8/3
f 12/8/4 28/7/4 13/9/4 4/10/4
f 7/11/5 24/12/5 29/13/5 19/14/5
f 19/14/6 29/13/6 15/15/6 3/16/6
f 3/16/7 15/15/7 30/17/7 16/18/7
f 16/18/8 30/17/8 10/19/8 1/20/8
f 6/21/9 22/22/9 31/23/9 9/24/9
f 22/22/10 7/11/10 19/14/10 31/23/10
f 31/23/11 19/14/11 3/16/11 16/25/11
f 9/24/12 31/23/12 16/25/12 1/26/12
f 2/27/13 12/28/13 32/29/13 17/30/13
f 12/28/14 4/10/14 14/31/14 32/29/14
f 32/29/15 14/31/15 8/32/15 21/33/15
f 17/30/16 32/29/16 21/33/16 5/34/16
f 5/34/17 21/33/17 33/35/17 18/36/17
f 21/33/18 8/32/18 20/37/18 33/35/18
f 33/35/19 20/37/19 7/11/19 22/22/19
f 18/36/20 33/35/20 22/22/20 6/21/20
f 4/10/21 13/9/21 34/38/21 14/31/21
f 14/31/22 34/38/22 23/39/22 8/32/22
f 8/32/23 23/39/23 35/40/23 20/37/23
f 20/37/24 35/40/24 24/12/24 7/11/24
f 1/41/25 10/42/25 36/43/25 9/44/25
f 9/44/26 36/43/26 25/45/26 6/46/26
f 6/46/27 25/45/27 37/47/27 18/48/27
f 18/48/28 37/47/28 26/2/28 5/1/28
f 10/42/29 38/49/29 50/50/29 36/43/29
f 30/17/30 49/51/30 38/52/30 10/19/30
f 27/3/31 46/53/31 39/54/31 11/5/31
f 11/5/32 39/54/32 47/55/32 28/7/32
f 29/13/33 48/56/33 40/57/33 15/15/33
f 15/15/34 40/57/34 49/51/34 30/17/34
f 28/7/35 47/55/35 41/58/35 13/9/35
f 13/9/36 41/58/36 52/59/36 34/38/36
f 36/43/37 50/50/37 42/60/37 25/45/37
f 25/45/38 42/60/38 51/61/38 37/47/38
f 37/47/39 51/61/39 43/62/39 26/2/39
f 26/2/40 43/62/40 46/53/40 27/3/40
f 34/38/41 52/59/41 44/63/41 23/39/41
f 23/39/42 44/63/42 53/64/42 35/40/42
f 35/40/43 53/64/43 45/65/43 24/12/43
f 24/12/44 45/65/44 48/56/44 29/13/44
