# Blender 5.2.2 LTS
# www.blender.org
o ramp_small_2.001
v 0.041779 2.141945 -3.438690
v -0.092690 2.312622 3.415604
v -0.286293 2.049389 7.014481
v 0.147400 2.008446 -6.986771
v -0.025284 2.207329 0.006546
v -4.167366 1.939518 10.150024
v -4.618629 1.454784 10.550217
v -3.241684 1.895306 -9.949005
v -3.778801 1.389004 -10.492920
v 3.441284 1.973560 10.143173
v 3.861908 1.471638 10.512589
v 3.727890 1.699535 -10.000198
v 4.184555 1.171677 -10.372040
v -3.344185 1.989410 3.379623
v -3.834404 1.441380 3.375046
v -3.842529 1.446827 -3.428802
v -3.342186 1.971664 -3.441086
v 3.625381 2.051136 -3.407074
v 4.085388 1.554531 -3.401443
v 4.656128 2.061401 3.529434
v 4.320938 2.483086 3.529037
v -3.331078 1.954517 -6.995697
v -3.900764 1.446823 -6.943802
v 0.234390 1.870304 -10.242554
v 0.227943 1.354446 -10.712234
v 3.736115 2.143173 7.050278
v 4.166168 1.682819 6.997101
v -0.442719 1.963188 9.986176
v -0.420502 1.455090 10.394608
v -3.808784 1.963005 7.073074
v -4.259705 1.457973 7.023376
v -3.394920 2.000240 -0.027573
v -3.876595 1.471859 -0.027237
v 3.663742 1.853992 -6.991852
v 4.136078 1.349548 -6.935822
v 4.160385 2.321960 0.207047
v 4.526840 1.874672 0.195816
vn -0.6943 0.7197 0.0029
vn -0.6666 0.7446 -0.0351
vn -0.0422 0.7147 -0.6981
vn 0.0899 0.6483 -0.7560
vn 0.7482 0.6383 0.1807
vn 0.7277 0.6778 0.1050
vn -0.0289 0.6019 0.7980
vn 0.0296 0.6235 0.7813
vn -0.7505 0.6561 -0.0789
vn -0.7404 0.6663 -0.0889
vn -0.7422 0.6701 0.0142
vn -0.7314 0.6818 -0.0147
vn 0.7398 0.6724 -0.0217
vn 0.7324 0.6803 -0.0293
vn 0.7429 0.6514 -0.1540
vn 0.7759 0.6273 -0.0666
vn -0.0147 0.9997 0.0169
vn -0.0055 0.9995 -0.0319
vn -0.0142 0.9991 0.0411
vn 0.0478 0.9978 -0.0455
vn -0.0602 0.9976 0.0342
vn -0.0797 0.9967 -0.0140
vn -0.0326 0.9992 -0.0217
vn -0.0557 0.9983 -0.0146
vn 0.0347 0.9984 -0.0456
vn -0.0016 0.9989 -0.0475
vn -0.0326 0.9962 0.0808
vn -0.0317 0.9987 -0.0391
vt 0.625000 0.166690
vt 0.625000 0.208452
vt 0.598669 0.208333
vt 0.598597 0.166667
vt 0.625000 0.254375
vt 0.598019 0.250706
vt 0.625000 0.374428
vt 0.598656 0.375000
vt 0.635641 0.498933
vt 0.598163 0.499298
vt 0.638047 0.666667
vt 0.639222 0.708333
vt 0.601874 0.708333
vt 0.605193 0.666667
vt 0.634713 0.750681
vt 0.599990 0.750654
vt 0.625000 0.874921
vt 0.598816 0.875000
vt 0.625000 0.982452
vt 0.599219 1.000000
vt 0.625000 0.006884
vt 0.625000 0.042044
vt 0.598860 0.041667
vt 0.599219 0.000000
vt 0.625000 0.083333
vt 0.598596 0.083333
vt 0.625000 0.124938
vt 0.598935 0.125000
vt 0.640904 0.541667
vt 0.599038 0.541667
vt 0.640652 0.583333
vt 0.600324 0.583333
vt 0.638719 0.625000
vt 0.603631 0.625000
vt 0.750000 0.708333
vt 0.859059 0.708333
vt 0.859718 0.744024
vt 0.750000 0.743799
vt 0.750000 0.505732
vt 0.858909 0.506114
vt 0.858944 0.541667
vt 0.750000 0.541667
vt 0.750000 0.666667
vt 0.858031 0.666667
vt 0.750000 0.625000
vt 0.858513 0.625000
vt 0.858566 0.583333
vt 0.750000 0.583333
s 0
f 17/1/1 22/2/1 23/3/1 16/4/1
f 22/2/2 8/5/2 9/6/2 23/3/2
f 8/5/3 24/7/3 25/8/3 9/6/3
f 24/7/4 12/9/4 13/10/4 25/8/4
f 21/11/5 26/12/5 27/13/5 20/14/5
f 26/12/6 10/15/6 11/16/6 27/13/6
f 10/15/7 28/17/7 29/18/7 11/16/7
f 28/17/8 6/19/8 7/20/8 29/18/8
f 6/21/9 30/22/9 31/23/9 7/24/9
f 30/22/10 14/25/10 15/26/10 31/23/10
f 14/25/11 32/27/11 33/28/11 15/26/11
f 32/27/12 17/1/12 16/4/12 33/28/12
f 12/9/13 34/29/13 35/30/13 13/10/13
f 34/29/14 18/31/14 19/32/14 35/30/14
f 18/31/15 36/33/15 37/34/15 19/32/15
f 36/33/16 21/11/16 20/14/16 37/34/16
f 3/35/17 30/36/17 6/37/17 28/38/17
f 24/39/18 8/40/18 22/41/18 4/42/18
f 26/12/19 3/35/19 28/38/19 10/15/19
f 12/9/20 24/39/20 4/42/20 34/29/20
f 2/43/21 14/44/21 30/36/21 3/35/21
f 5/45/22 32/46/22 14/44/22 2/43/22
f 4/42/23 22/41/23 17/47/23 1/48/23
f 1/48/24 17/47/24 32/46/24 5/45/24
f 34/29/25 4/42/25 1/48/25 18/31/25
f 18/31/26 1/48/26 5/45/26 36/33/26
f 21/11/27 2/43/27 3/35/27 26/12/27
f 36/33/28 5/45/28 2/43/28 21/11/28
