# Blender 5.2.2 LTS
# www.blender.org
o ramp_small_1
v 3.932441 -2.850235 9.135068
v 5.826122 0.650900 12.646862
v -5.237488 -3.226591 9.410361
v -5.776459 0.527140 13.326627
v 3.479576 -1.186023 -10.634257
v 5.660254 2.555872 -12.722499
v -5.172443 -1.875434 -10.388736
v -6.121202 2.604955 -13.755814
v -5.482473 -2.608053 -5.767096
v -4.517501 -2.896338 -0.011416
v -4.559832 -3.172981 5.729724
v -6.293859 1.261111 6.475054
v -6.480179 1.768006 0.169083
v -6.625728 2.189662 -6.104245
v 3.812486 -3.093961 5.423381
v 4.025086 -2.555419 -0.404040
v 4.560378 -2.199245 -6.139674
v 5.915031 2.220614 -6.183269
v 5.309944 1.927608 -0.148644
v 6.049067 1.288997 6.366474
v 0.229019 -3.885886 10.577193
v 0.072010 0.686152 13.754345
v -0.162769 -1.950270 -10.352778
v -0.063717 2.928218 -14.731574
v 0.168560 -4.268047 6.463679
v 0.263215 -3.814456 0.566027
v 0.027046 -3.280274 -5.407905
v 2.027877 -3.439065 9.898016
v 5.214249 -1.081380 10.774385
v -3.092863 0.686210 13.890440
v -5.684353 -1.437554 12.098454
v -4.995621 -3.269999 7.602975
v -6.560455 2.494658 -9.676172
v -5.504258 0.335208 -11.791845
v -2.983431 -2.011022 -10.396306
v 3.090555 2.900327 -14.335401
v 4.577784 0.680741 -11.507510
v 3.950785 -1.686897 -8.637091
v 6.458378 1.120080 9.661779
v -5.594972 -2.285642 -8.331427
v -4.902127 -2.733415 -2.945857
v -4.558450 -2.956829 2.822708
v -6.164403 0.980686 9.995495
v -6.449956 1.528017 3.292264
v -6.446290 1.982387 -2.949245
v 4.007594 -3.001226 7.466800
v 3.579902 -2.816368 2.416550
v 4.287659 -2.346053 -3.347031
v 5.878748 2.502138 -9.690868
v 5.594484 2.078084 -3.147701
v 5.584186 1.604545 3.097522
v 2.024802 -3.828300 5.933544
v 2.281482 -3.392453 0.118502
v 2.445136 -2.683722 -5.998522
v 5.465062 0.000742 -6.045726
v 4.659042 -0.214464 -0.406190
v 5.169930 -0.880781 5.749861
v -6.489911 -1.017949 5.956225
v -6.413165 -0.561802 -0.016700
v -6.740385 -0.205899 -5.882311
v -2.519579 -3.667461 10.075605
v 3.186280 0.742741 13.100131
v 1.828764 -1.567001 -10.569580
v -3.213921 2.856874 -14.273665
v -2.235325 -3.883677 6.085059
v -2.167478 -3.709774 0.458261
v -2.800514 -3.366869 -5.334095
v 0.216987 -3.468994 -2.548057
v 0.254786 -4.044595 3.560591
v 0.065297 -4.260468 8.621222
v -0.157650 -2.814859 -7.946375
v -0.046575 0.397152 -11.751910
v 0.476243 -1.794306 12.256676
v -2.689746 -1.553546 11.969098
v -6.563064 0.033296 -8.808531
v 2.388370 0.580541 -11.816974
v 5.858441 -0.907467 8.318205
v 2.097414 -2.264360 -8.408676
v 1.888924 -3.704997 7.954952
v 1.974390 -3.620237 2.973970
v 2.346311 -2.894070 -3.124954
v 5.017886 0.446725 -8.985520
v 5.025146 -0.094719 -3.249911
v 4.630047 -0.541971 2.619037
v -6.505239 -1.186357 8.600093
v -6.570989 -0.796091 2.982121
v -6.430915 -0.365934 -2.974615
v -2.333636 -3.509105 -2.513973
v -2.241829 -3.665240 3.188643
v -2.427425 -3.865955 7.998051
v -3.088046 -2.891632 -7.931222
v -2.935232 0.359922 -11.739795
v 2.709100 -1.359122 11.554308
vn -0.1503 -0.6385 0.7548
vn -0.0418 -0.5908 0.8058
vn -0.0563 -0.6028 0.7959
vn -0.9844 -0.0482 0.1693
vn -0.1337 -0.7632 0.6322
vn -0.9005 -0.4314 -0.0548
vn -0.9992 0.0161 -0.0360
vn -0.9438 -0.2511 -0.2148
vn -0.0268 -0.6887 -0.7245
vn -0.8721 -0.3789 -0.3098
vn -0.2325 -0.9638 -0.1309
vn 0.0103 -0.5085 -0.8610
vn 0.0598 -0.7522 -0.6562
vn 0.2362 -0.7002 -0.6738
vn 0.8629 -0.4890 -0.1277
vn 0.1175 -0.5014 -0.8572
vn 0.8121 -0.5646 -0.1475
vn 0.9507 -0.2480 -0.1863
vn 0.2534 -0.5380 0.8039
vn 0.8918 -0.4236 0.1591
vn 0.7302 -0.6719 0.1236
vn 0.8774 -0.4135 -0.2434
vn 0.1927 -0.9621 -0.1928
vn 0.9447 -0.3105 -0.1059
vn 0.2271 -0.9243 -0.3068
vn 0.2323 -0.9463 -0.2250
vn 0.3551 -0.9338 0.0445
vn 0.9210 -0.3455 -0.1799
vn 0.3716 -0.6289 0.6830
vn 0.3535 -0.7059 0.6138
vn 0.8780 -0.4526 -0.1560
vn 0.9560 -0.2781 0.0936
vn 0.9540 -0.2867 0.0873
vn 0.3092 -0.9420 0.1307
vn 0.2746 -0.9605 0.0458
vn 0.2017 -0.9710 -0.1283
vn 0.3330 -0.9374 0.1023
vn 0.9381 -0.3388 -0.0718
vn 0.2031 -0.9770 -0.0655
vn 0.4347 -0.9004 -0.0199
vn 0.3867 -0.9175 -0.0930
vn 0.2426 -0.9691 -0.0452
vn 0.3345 -0.9381 -0.0896
vn -0.3086 -0.9512 -0.0091
vn -0.9937 0.1087 0.0263
vn -0.7873 -0.6059 -0.1142
vn 0.8178 -0.5188 -0.2493
vn -0.7395 -0.6720 -0.0400
vn -0.2815 -0.9595 0.0067
vn -0.9972 0.0609 0.0432
vn -0.9997 0.0137 -0.0198
vn -0.7544 -0.6538 -0.0587
vn 0.0251 -0.9829 -0.1823
vn -0.8083 -0.5885 0.0194
vn -0.9998 -0.0174 -0.0038
vn -0.9964 0.0242 0.0818
vn -0.8597 -0.4990 0.1087
vn 0.0223 -0.9979 -0.0607
vn -0.0116 -0.9960 -0.0890
vn -0.2815 -0.9569 -0.0714
vn -0.1420 -0.9869 -0.0771
vn 0.0134 -0.5028 -0.8643
vn -0.0390 -0.7394 -0.6722
vn -0.1449 -0.9792 0.1417
vn 0.9380 -0.3441 0.0415
vn -0.2487 -0.9666 -0.0615
vn -0.0945 -0.9950 -0.0336
vn 0.1525 -0.9323 -0.3280
vn -0.1261 -0.9499 -0.2858
vn 0.0242 -0.9413 -0.3367
vn 0.9676 -0.2236 0.1171
vn 0.1935 -0.6829 0.7044
vn 0.2317 -0.9702 -0.0712
vn -0.8600 -0.5049 0.0741
vn 0.9317 -0.3482 0.1037
vn -0.0040 -0.5143 -0.8576
vn -0.2007 -0.9787 0.0437
vn -0.1561 -0.9877 -0.0052
vn -0.3022 -0.9527 -0.0305
vn 0.2135 -0.9744 -0.0704
vt 0.125000 0.562500
vt 0.375000 0.125000
vt 0.500000 0.125000
vt 0.500000 0.187500
vt 0.875000 0.625000
vt 0.625000 0.187500
vt 0.875000 0.562500
vt 0.625000 0.250000
vt 0.500000 0.246043
vt 0.875000 0.500000
vt 0.625000 0.281250
vt 0.500000 0.281250
vt 0.125000 0.500000
vt 0.375000 0.187500
vt 0.343750 0.500000
vt 0.375000 0.437500
vt 0.500000 0.437500
vt 0.500000 0.468750
vt 0.687500 0.500000
vt 0.625000 0.468750
vt 0.656250 0.500000
vt 0.625000 0.500000
vt 0.500000 0.503957
vt 0.613130 0.562500
vt 0.500000 0.562500
vt 0.375000 0.500000
vt 0.375000 0.468750
vt 0.343750 0.562500
vt 0.312500 0.562500
vt 0.386870 0.687500
vt 0.386870 0.625000
vt 0.500000 0.625000
vt 0.500000 0.687500
vt 0.613130 0.625000
vt 0.613130 0.687500
vt 0.625000 0.750000
vt 0.500000 0.746043
vt 0.625000 0.781250
vt 0.500000 0.781250
vt 0.375000 0.750000
vt 0.156250 0.750000
vt 0.375000 0.937500
vt 0.500000 0.937500
vt 0.500000 0.968750
vt 0.812500 0.750000
vt 0.625000 0.968750
vt 0.500000 0.062500
vt 0.875000 0.687500
vt 0.625000 0.125000
vt 0.625000 0.000000
vt 0.500000 1.000000
vt 0.843750 0.750000
vt 0.500000 0.000000
vt 0.125000 0.750000
vt 0.375000 0.968750
vt 0.312500 0.750000
vt 0.375000 0.781250
vt 0.500000 0.812500
vt 0.312500 0.687500
vt 0.312500 0.625000
vt 0.343750 0.625000
vt 0.343750 0.687500
vt 0.656250 0.750000
vt 0.625000 0.812500
vt 0.343750 0.750000
vt 0.156250 0.687500
vt 0.187500 0.687500
vt 0.500000 0.906250
vt 0.781250 0.750000
vt 0.625000 0.937500
vt 0.125000 0.625000
vt 0.375000 0.062500
vt 0.125000 0.687500
vt 0.375000 1.000000
vt 0.187500 0.750000
vt 0.375000 0.906250
vt 0.500000 0.843750
vt 0.718750 0.750000
vt 0.625000 0.875000
vt 0.500000 0.875000
vt 0.250000 0.750000
vt 0.375000 0.843750
vt 0.156250 0.625000
vt 0.187500 0.625000
vt 0.250000 0.687500
vt 0.250000 0.625000
vt 0.281250 0.625000
vt 0.281250 0.687500
vt 0.375000 0.000000
vt 0.750000 0.750000
vt 0.625000 0.906250
vt 0.218750 0.687500
vt 0.218750 0.625000
vt 0.375000 0.875000
vt 0.218750 0.750000
vt 0.375000 0.812500
vt 0.281250 0.750000
vt 0.375000 0.343750
vt 0.250000 0.500000
vt 0.250000 0.562500
vt 0.218750 0.562500
vt 0.843750 0.500000
vt 0.625000 0.312500
vt 0.500000 0.312500
vt 0.187500 0.500000
vt 0.375000 0.281250
vt 0.218750 0.500000
vt 0.375000 0.312500
vt 0.500000 0.343750
vt 0.375000 0.406250
vt 0.312500 0.500000
vt 0.281250 0.562500
vt 0.812500 0.500000
vt 0.625000 0.343750
vt 0.781250 0.500000
vt 0.625000 0.375000
vt 0.500000 0.375000
vt 0.281250 0.500000
vt 0.375000 0.375000
vt 0.500000 0.406250
vt 0.750000 0.500000
vt 0.625000 0.406250
vt 0.718750 0.500000
vt 0.625000 0.437500
vt 0.187500 0.562500
vt 0.386870 0.562500
vt 0.156250 0.562500
vt 0.687500 0.750000
vt 0.625000 0.843750
vt 0.875000 0.750000
vt 0.625000 0.062500
vt 0.375000 0.250000
vt 0.156250 0.500000
s 0
f 61/1/1 21/2/1 73/3/1 74/4/1
f 22/5/2 30/6/2 74/4/2 73/3/2
f 74/4/3 30/7/3 4/8/3 31/9/3
f 31/9/4 4/10/4 43/11/4 85/12/4
f 74/4/5 31/9/5 3/13/5 61/14/5
f 40/15/6 9/16/6 60/17/6 75/18/6
f 14/19/7 33/20/7 75/18/7 60/17/7
f 75/18/8 33/21/8 8/22/8 34/23/8
f 34/23/9 8/22/9 64/24/9 92/25/9
f 75/18/10 34/23/10 7/26/10 40/27/10
f 9/16/11 40/15/11 91/28/11 67/29/11
f 63/30/12 23/31/12 72/32/12 76/33/12
f 24/34/13 36/35/13 76/33/13 72/32/13
f 76/33/14 36/35/14 6/36/14 37/37/14
f 37/37/15 6/36/15 49/38/15 82/39/15
f 76/33/16 37/37/16 5/40/16 63/30/16
f 46/41/17 15/42/17 57/43/17 77/44/17
f 20/45/18 39/46/18 77/44/18 57/43/18
f 93/47/19 62/48/19 22/49/19 73/3/19
f 2/50/20 29/51/20 77/44/20 39/52/20
f 77/44/21 29/53/21 1/54/21 46/55/21
f 17/56/22 38/57/22 82/39/22 55/58/22
f 54/59/23 27/60/23 71/61/23 78/62/23
f 82/39/24 49/63/24 18/64/24 55/58/24
f 5/40/25 38/65/25 78/62/25 63/30/25
f 78/62/26 38/57/26 17/56/26 54/59/26
f 15/42/27 46/41/27 79/66/27 52/67/27
f 84/68/28 51/69/28 20/70/28 57/43/28
f 21/71/29 28/72/29 93/47/29 73/3/29
f 28/73/30 1/74/30 29/53/30 93/47/30
f 15/75/31 47/76/31 84/68/31 57/43/31
f 83/77/32 50/78/32 19/79/32 56/80/32
f 16/81/33 48/82/33 83/77/33 56/80/33
f 28/72/34 21/71/34 70/83/34 79/66/34
f 25/84/35 52/67/35 79/66/35 70/83/35
f 53/85/36 26/86/36 68/87/36 81/88/36
f 1/89/37 28/73/37 79/66/37 46/55/37
f 19/90/38 51/91/38 84/68/38 56/80/38
f 26/86/39 53/85/39 80/92/39 69/93/39
f 16/94/40 47/95/40 80/92/40 53/85/40
f 80/92/41 47/76/41 15/75/41 52/67/41
f 17/96/42 48/97/42 81/88/42 54/59/42
f 81/88/43 48/82/43 16/81/43 53/85/43
f 42/98/44 10/99/44 66/100/44 89/101/44
f 85/12/45 43/102/45 12/103/45 58/104/45
f 11/105/46 32/106/46 85/12/46 58/104/46
f 5/40/47 37/37/47 82/39/47 38/65/47
f 42/107/48 11/108/48 58/104/48 86/109/48
f 41/110/49 9/111/49 67/29/49 88/112/49
f 12/113/50 44/114/50 86/109/50 58/104/50
f 86/109/51 44/115/51 13/116/51 59/117/51
f 10/99/52 42/98/52 86/109/52 59/117/52
f 27/60/53 67/29/53 91/28/53 71/61/53
f 41/118/54 10/119/54 59/117/54 87/120/54
f 13/121/55 45/122/55 87/120/55 59/117/55
f 87/120/56 45/123/56 14/124/56 60/17/56
f 9/111/57 41/110/57 87/120/57 60/17/57
f 88/112/58 67/29/58 27/60/58 68/87/58
f 26/86/59 66/100/59 88/112/59 68/87/59
f 11/108/60 42/107/60 89/101/60 65/125/60
f 25/84/61 65/125/61 89/101/61 69/93/61
f 23/31/62 35/126/62 92/25/62 72/32/62
f 92/25/63 64/24/63 24/34/63 72/32/63
f 21/2/64 61/1/64 90/127/64 70/83/64
f 47/95/65 16/94/65 56/80/65 84/68/65
f 32/106/66 11/105/66 65/125/66 90/127/66
f 89/101/67 66/100/67 26/86/67 69/93/67
f 23/31/68 63/30/68 78/62/68 71/61/68
f 7/26/69 35/126/69 91/28/69 40/27/69
f 91/28/70 35/126/70 23/31/70 71/61/70
f 18/128/71 50/129/71 83/77/71 55/58/71
f 29/51/72 2/130/72 62/131/72 93/47/72
f 27/60/73 54/59/73 81/88/73 68/87/73
f 3/132/74 31/9/74 85/12/74 32/133/74
f 48/97/75 17/96/75 55/58/75 83/77/75
f 7/26/76 34/23/76 92/25/76 35/126/76
f 3/132/77 32/133/77 90/127/77 61/14/77
f 90/127/78 65/125/78 25/84/78 70/83/78
f 10/119/79 41/118/79 88/112/79 66/100/79
f 52/67/80 25/84/80 69/93/80 80/92/80
