# Blender 5.2.2 LTS
# www.blender.org
o platform_big_1.001
v 13.158582 12.129842 -10.881051
v 13.110857 14.886778 15.265457
v -13.105048 12.869256 -14.036226
v -12.836896 12.950997 13.156848
v 13.324581 15.177269 12.605281
v 13.310885 14.693043 8.836194
v 13.616880 13.983793 5.177363
v 14.054630 13.220767 1.544670
v 14.244795 12.646914 -2.212311
v 13.863226 12.461788 -5.843480
v 13.500816 12.426504 -8.902860
v -10.750224 13.325858 13.532040
v -7.101859 13.297376 13.633420
v -3.088063 13.033278 14.188622
v 0.643540 13.193847 14.742885
v 4.044619 13.694067 14.955732
v 7.380584 14.547313 15.318263
v 10.751949 15.079599 15.558055
v -13.798020 13.530944 -11.873702
v -13.799520 13.641568 -8.092033
v -13.802327 13.749801 -4.167046
v -13.878460 13.855861 -0.302359
v -13.741419 13.751618 3.550995
v -13.520721 13.659641 7.427045
v -13.405832 13.549870 11.112475
v 11.187322 12.439281 -11.714677
v 8.040169 11.826774 -13.590272
v 4.722263 11.391331 -16.092384
v 1.002351 11.529080 -17.435595
v -3.003874 11.922429 -16.828693
v -7.052912 12.566999 -15.715891
v -10.858429 13.065336 -14.744110
v 10.769514 16.072538 12.718832
v 10.960154 15.838878 8.894664
v 11.366559 15.230803 5.204559
v 11.808105 14.537052 1.531431
v 11.931804 14.048081 -2.149845
v 11.582418 13.817659 -5.963231
v 11.265599 13.629308 -9.360878
v 7.371354 15.754857 12.814236
v 7.545827 15.674748 9.052155
v 7.882207 15.207611 5.290034
v 8.192258 14.812729 1.608161
v 8.218400 14.330400 -2.531904
v 7.999632 13.823785 -7.137645
v 7.919649 13.219816 -11.209977
v 4.038139 15.186792 12.847528
v 4.158267 15.190266 9.125207
v 4.337161 14.945388 5.318870
v 4.422588 14.875642 1.472238
v 4.477735 14.285285 -3.583034
v 4.462687 13.541842 -8.954328
v 4.618654 12.826146 -13.812709
v 0.623356 14.738647 12.667647
v 0.641685 14.861722 8.879617
v 0.608905 14.889972 4.974468
v 0.581243 14.907042 0.810518
v 0.715431 14.334031 -4.480056
v 0.828251 13.624283 -10.206880
v 0.978130 12.985125 -15.348885
v -3.138678 14.624485 12.050502
v -3.239722 14.898763 8.107296
v -3.280092 14.966305 4.171656
v -3.270964 14.911461 0.272511
v -3.182096 14.528391 -4.472966
v -3.060764 14.020279 -9.982224
v -2.996257 13.436785 -14.849518
v -7.122705 14.756291 11.318457
v -7.123665 14.932238 7.476286
v -7.126453 14.943128 3.673533
v -7.133156 14.962296 0.089502
v -7.089869 14.762057 -4.158193
v -7.069591 14.337569 -9.051167
v -7.070384 13.927514 -13.524096
v -10.885223 14.673222 11.201469
v -10.899571 14.786983 7.439250
v -10.916055 14.807215 3.584796
v -10.918432 14.831697 -0.220087
v -10.929760 14.789006 -4.029897
v -10.973588 14.513857 -8.301012
v -11.006406 14.261889 -12.381417
vn -0.0721 0.9964 -0.0447
vn -0.0320 0.9888 -0.1459
vn 0.0319 0.9892 -0.1432
vn 0.0804 0.9894 -0.1213
vn 0.0587 0.9941 -0.0910
vn -0.0121 0.9944 -0.1048
vn -0.1550 0.9878 -0.0162
vn -0.1080 0.9891 -0.1004
vn -0.0263 0.9977 -0.0630
vn 0.0206 0.9931 -0.1157
vn 0.0044 0.9922 -0.1244
vn -0.0032 0.9892 -0.1462
vn -0.1122 0.9936 0.0147
vn -0.0505 0.9983 -0.0290
vn -0.0023 1.0000 -0.0066
vn 0.0332 0.9933 -0.1111
vn 0.0551 0.9901 -0.1292
vn 0.0831 0.9879 -0.1313
vn -0.0194 0.9985 0.0515
vn 0.0121 0.9999 0.0121
vn 0.0112 0.9999 -0.0047
vn 0.0320 0.9951 -0.0941
vn 0.0720 0.9918 -0.1060
vn 0.0956 0.9883 -0.1187
vn 0.0110 0.9983 0.0576
vn -0.0001 0.9999 0.0101
vn 0.0040 1.0000 -0.0048
vn 0.0354 0.9973 -0.0642
vn 0.0553 0.9945 -0.0884
vn 0.0698 0.9920 -0.1050
vn -0.0310 0.9988 0.0381
vn -0.0372 0.9993 0.0042
vn -0.0355 0.9994 0.0059
vn -0.0129 0.9995 -0.0302
vn 0.0175 0.9969 -0.0762
vn 0.0462 0.9959 -0.0773
vn 0.2285 0.9459 0.2304
vn 0.3806 0.9214 -0.0782
vn 0.4567 0.8823 -0.1139
vn 0.4918 0.8634 -0.1130
vn 0.5086 0.8551 -0.1007
vn 0.5130 0.8528 -0.0980
vn 0.4992 0.8625 -0.0824
vn 0.4077 0.8508 -0.3316
vn 0.1347 0.8703 -0.4737
vn 0.2737 0.8280 -0.4893
vn 0.2405 0.8126 -0.5309
vn 0.0037 0.8075 -0.5899
vn -0.0552 0.8220 -0.5667
vn -0.0403 0.8706 -0.4903
vn -0.2595 0.8755 -0.4077
vn -0.2793 0.9592 -0.0431
vn -0.3182 0.9471 -0.0427
vn -0.3258 0.9452 -0.0211
vn -0.3316 0.9432 0.0219
vn -0.3721 0.9279 0.0249
vn -0.4013 0.9153 0.0344
vn -0.3182 0.8461 0.4276
vn -0.0215 0.8554 0.5175
vn -0.0502 0.8236 0.5649
vn -0.1220 0.7952 0.5939
vn -0.1449 0.8002 0.5819
vn -0.2044 0.8445 0.4951
vn -0.1233 0.9177 0.3777
vt 0.156250 0.531250
vt 0.156250 0.562500
vt 0.187500 0.562500
vt 0.187500 0.531250
vt 0.156250 0.593750
vt 0.187500 0.593750
vt 0.156250 0.625000
vt 0.187500 0.625000
vt 0.156250 0.656250
vt 0.187500 0.656250
vt 0.156250 0.687500
vt 0.187500 0.687500
vt 0.156250 0.718750
vt 0.187500 0.718750
vt 0.218750 0.562500
vt 0.218750 0.531250
vt 0.218750 0.593750
vt 0.218750 0.625000
vt 0.218750 0.656250
vt 0.218750 0.687500
vt 0.218750 0.718750
vt 0.250000 0.562500
vt 0.250000 0.531250
vt 0.250000 0.593750
vt 0.250000 0.625000
vt 0.250000 0.656250
vt 0.250000 0.687500
vt 0.250000 0.718750
vt 0.281250 0.562500
vt 0.281250 0.531250
vt 0.281250 0.593750
vt 0.281250 0.625000
vt 0.281250 0.656250
vt 0.281250 0.687500
vt 0.281250 0.718750
vt 0.312500 0.562500
vt 0.312500 0.531250
vt 0.312500 0.593750
vt 0.312500 0.625000
vt 0.312500 0.656250
vt 0.312500 0.687500
vt 0.312500 0.718750
vt 0.343750 0.562500
vt 0.343750 0.531250
vt 0.343750 0.593750
vt 0.343750 0.625000
vt 0.343750 0.656250
vt 0.343750 0.687500
vt 0.343750 0.718750
vt 0.125000 0.500000
vt 0.125000 0.531250
vt 0.156250 0.500000
vt 0.125000 0.562500
vt 0.125000 0.593750
vt 0.125000 0.625000
vt 0.125000 0.656250
vt 0.125000 0.687500
vt 0.125000 0.718750
vt 0.125000 0.750000
vt 0.156250 0.750000
vt 0.187500 0.750000
vt 0.218750 0.750000
vt 0.250000 0.750000
vt 0.281250 0.750000
vt 0.312500 0.750000
vt 0.343750 0.750000
vt 0.375000 0.750000
vt 0.375000 0.718750
vt 0.375000 0.687500
vt 0.375000 0.656250
vt 0.375000 0.625000
vt 0.375000 0.593750
vt 0.375000 0.562500
vt 0.375000 0.531250
vt 0.343750 0.500000
vt 0.375000 0.500000
vt 0.312500 0.500000
vt 0.281250 0.500000
vt 0.250000 0.500000
vt 0.218750 0.500000
vt 0.187500 0.500000
s 0
f 33/1/1 34/2/1 41/3/1 40/4/1
f 34/2/2 35/5/2 42/6/2 41/3/2
f 35/5/3 36/7/3 43/8/3 42/6/3
f 36/7/4 37/9/4 44/10/4 43/8/4
f 37/9/5 38/11/5 45/12/5 44/10/5
f 38/11/6 39/13/6 46/14/6 45/12/6
f 40/4/7 41/3/7 48/15/7 47/16/7
f 41/3/8 42/6/8 49/17/8 48/15/8
f 42/6/9 43/8/9 50/18/9 49/17/9
f 43/8/10 44/10/10 51/19/10 50/18/10
f 44/10/11 45/12/11 52/20/11 51/19/11
f 45/12/12 46/14/12 53/21/12 52/20/12
f 47/16/13 48/15/13 55/22/13 54/23/13
f 48/15/14 49/17/14 56/24/14 55/22/14
f 49/17/15 50/18/15 57/25/15 56/24/15
f 50/18/16 51/19/16 58/26/16 57/25/16
f 51/19/17 52/20/17 59/27/17 58/26/17
f 52/20/18 53/21/18 60/28/18 59/27/18
f 54/23/19 55/22/19 62/29/19 61/30/19
f 55/22/20 56/24/20 63/31/20 62/29/20
f 56/24/21 57/25/21 64/32/21 63/31/21
f 57/25/22 58/26/22 65/33/22 64/32/22
f 58/26/23 59/27/23 66/34/23 65/33/23
f 59/27/24 60/28/24 67/35/24 66/34/24
f 61/30/25 62/29/25 69/36/25 68/37/25
f 62/29/26 63/31/26 70/38/26 69/36/26
f 63/31/27 64/32/27 71/39/27 70/38/27
f 64/32/28 65/33/28 72/40/28 71/39/28
f 65/33/29 66/34/29 73/41/29 72/40/29
f 66/34/30 67/35/30 74/42/30 73/41/30
f 68/37/31 69/36/31 76/43/31 75/44/31
f 69/36/32 70/38/32 77/45/32 76/43/32
f 70/38/33 71/39/33 78/46/33 77/45/33
f 71/39/34 72/40/34 79/47/34 78/46/34
f 72/40/35 73/41/35 80/48/35 79/47/35
f 73/41/36 74/42/36 81/49/36 80/48/36
f 2/50/37 5/51/37 33/1/37 18/52/37
f 5/51/38 6/53/38 34/2/38 33/1/38
f 6/53/39 7/54/39 35/5/39 34/2/39
f 7/54/40 8/55/40 36/7/40 35/5/40
f 8/55/41 9/56/41 37/9/41 36/7/41
f 9/56/42 10/57/42 38/11/42 37/9/42
f 10/57/43 11/58/43 39/13/43 38/11/43
f 11/58/44 1/59/44 26/60/44 39/13/44
f 39/13/45 26/60/45 27/61/45 46/14/45
f 46/14/46 27/61/46 28/62/46 53/21/46
f 53/21/47 28/62/47 29/63/47 60/28/47
f 60/28/48 29/63/48 30/64/48 67/35/48
f 67/35/49 30/64/49 31/65/49 74/42/49
f 74/42/50 31/65/50 32/66/50 81/49/50
f 81/49/51 32/66/51 3/67/51 19/68/51
f 80/48/52 81/49/52 19/68/52 20/69/52
f 79/47/53 80/48/53 20/69/53 21/70/53
f 78/46/54 79/47/54 21/70/54 22/71/54
f 77/45/55 78/46/55 22/71/55 23/72/55
f 76/43/56 77/45/56 23/72/56 24/73/56
f 75/44/57 76/43/57 24/73/57 25/74/57
f 12/75/58 75/44/58 25/74/58 4/76/58
f 13/77/59 68/37/59 75/44/59 12/75/59
f 14/78/60 61/30/60 68/37/60 13/77/60
f 15/79/61 54/23/61 61/30/61 14/78/61
f 16/80/62 47/16/62 54/23/62 15/79/62
f 17/81/63 40/4/63 47/16/63 16/80/63
f 18/52/64 33/1/64 40/4/64 17/81/64
