# Blender 5.2.2 LTS
# www.blender.org
o platform_big_2
v -12.198914 -12.439671 12.182448
v -14.270486 -14.735723 -14.531124
v 12.003175 -12.354107 12.370607
v 15.886166 -15.950985 -15.584810
v -14.184255 -14.457657 -7.583702
v -12.994256 -13.252428 -0.135764
v -12.437807 -12.888144 7.257322
v -13.011511 -7.502572 13.164523
v -13.710205 0.001226 13.504514
v -13.874629 7.596808 13.609041
v -15.380975 7.570627 -15.679190
v -14.889500 0.057859 -15.169418
v -15.768235 -7.711214 -16.055485
v 7.710358 -14.565608 -14.253640
v 0.155197 -15.984324 -15.668609
v -7.331121 -14.615802 -14.509000
v 15.722099 7.577162 -15.423618
v 15.452791 0.123218 -15.151499
v 16.421471 -7.805537 -16.123915
v 12.122842 -12.488705 7.447264
v 12.959979 -13.389206 0.119829
v 13.517126 -13.674351 -7.584251
v 14.280375 7.594035 14.551761
v 13.901793 0.003367 14.170723
v 12.801929 -7.493926 13.312854
v -7.400014 -13.041549 13.014334
v -0.168891 -13.481444 13.727023
v 7.108074 -12.565274 12.846835
v -13.146678 -7.444580 7.279111
v -13.820300 0.034365 7.229946
v -15.190042 7.584759 7.515400
v -14.366375 -7.447198 -0.217960
v -16.531330 -0.038804 -0.170887
v -15.664451 7.608538 -0.150165
v -16.537815 -7.675724 -7.756607
v -15.824439 0.019481 -7.808750
v -16.241718 7.623857 -7.879751
v -7.448855 -7.747889 -18.742271
v -7.472100 0.152394 -16.964821
v -7.558920 7.600899 -17.286369
v 0.236073 -7.675675 -16.342087
v 0.201173 0.026348 -17.176079
v 0.167681 7.608855 -17.497040
v 7.750912 -7.654075 -16.660246
v 7.779033 0.053761 -16.820347
v 7.895749 7.604399 -17.242598
v 15.095386 -7.616342 -7.527970
v 15.708000 0.003295 -7.456823
v 16.748302 7.597342 -7.556100
v 14.015624 -7.538310 0.127444
v 15.134909 0.001737 0.146534
v 16.367508 7.606095 0.148535
v 13.782642 -7.520990 7.610954
v 15.297402 -0.003630 7.745348
v 16.131145 7.615785 7.855871
v 7.111480 -7.582116 15.092647
v 7.365810 -0.125267 13.835443
v 7.547050 7.604582 14.329604
v -0.209546 -7.658947 16.298153
v -0.109068 -0.190881 14.814467
v -0.086701 7.555420 14.113997
v -7.531146 -7.646214 16.079897
v -7.627886 -0.139994 14.259254
v -7.786596 7.582591 14.506865
v -7.339228 -14.705611 -7.509037
v 0.083221 -14.508052 -7.568886
v 7.495687 -14.380013 -7.352942
v -7.401918 -14.234549 -0.009233
v 0.047421 -14.058403 0.016740
v 7.424058 -15.001472 0.069673
v -7.487204 -14.978451 7.365723
v -0.159741 -13.435408 7.419415
v 7.302624 -13.462154 7.371982
v -14.479770 -14.889124 -11.223557
v -13.555409 -13.747326 -3.892033
v -12.705208 -13.087174 3.645000
v -12.227807 -12.593137 10.442719
v -12.639486 -10.763163 12.737091
v -13.378829 -3.829683 13.358349
v -13.757957 3.837221 13.500273
v -13.992909 11.389071 13.716010
v -14.982412 11.506742 -15.297391
v -15.172443 3.795195 -15.464988
v -15.484694 -3.683935 -15.764370
v -15.169874 -11.561934 -15.446209
v 12.115704 -15.397199 -15.041636
v 3.820503 -14.932410 -14.634546
v -3.673284 -15.623928 -15.369978
v -10.966428 -14.906141 -14.705528
v 15.496717 11.481071 -15.213077
v 15.653100 3.800963 -15.354595
v 15.843519 -3.738787 -15.542437
v 16.555481 -12.327352 -16.245552
v 11.783787 -12.125899 10.657245
v 12.594409 -13.023783 3.812971
v 13.337056 -13.644746 -3.614321
v 14.925767 -15.009541 -11.900658
v 14.176798 11.457321 14.412935
v 14.021086 3.819493 14.280861
v 13.412683 -3.809996 13.784618
v 12.269632 -10.734680 12.748724
v -10.535806 -12.525961 12.372901
v -3.804263 -13.137340 13.318386
v 3.460434 -13.001102 13.331438
v 10.358452 -12.228145 12.382954
v -13.609653 -3.699567 7.237130
v -14.551052 3.789972 7.395855
v -13.770635 -7.411145 3.559796
v -15.094498 0.003237 3.425574
v -15.728485 7.611933 3.711122
v -15.773396 -3.740600 -0.184796
v -16.128693 3.739146 -0.155275
v -15.407737 -7.569606 -3.984709
v -16.215427 -0.032245 -3.944668
v -16.000929 7.643736 -4.030797
v -16.312397 -3.827177 -7.786310
v -15.945557 3.832106 -7.855906
v -12.993999 -7.490834 10.717852
v -13.944436 0.027556 10.909348
v -14.230687 7.589425 11.058407
v -14.867615 11.440852 7.392503
v -15.398647 11.476818 -0.165785
v -15.912776 11.527951 -7.724514
v -16.459404 7.589616 -11.668791
v -15.940854 0.055172 -11.548228
v -16.606789 -7.694032 -11.769981
v -15.731889 -11.324364 -7.671439
v -13.576295 -10.966069 -0.206838
v -12.765127 -10.902872 7.290364
v -7.445830 -3.574972 -17.995043
v -7.524587 3.807793 -17.311502
v -3.401327 -7.696864 -17.773567
v -3.562637 0.129056 -17.464426
v -3.694041 7.608694 -17.565264
v 0.248506 -3.752169 -16.801041
v 0.168592 3.786319 -17.199347
v 3.916371 -7.661883 -16.290964
v 3.959690 0.010652 -16.613373
v 4.025834 7.607295 -17.171047
v 7.750504 -3.755847 -16.563770
v 7.857007 3.789292 -17.288189
v -11.636934 -7.731129 -17.738985
v -11.310906 0.122252 -16.651840
v -11.380913 7.582606 -16.992668
v -7.391489 11.551846 -16.427132
v 0.171943 11.639286 -17.127935
v 7.723420 11.556212 -16.476376
v 11.731382 7.588693 -16.957466
v 11.581789 0.094500 -16.394272
v 12.217500 -7.712316 -17.203428
v 7.750950 -11.436342 -15.633324
v 0.201096 -12.082721 -16.500065
v -7.434680 -11.688593 -17.168785
v 15.410511 -3.822324 -7.475988
v 16.325869 3.797802 -7.504742
v 14.755256 -7.577913 -3.647009
v 15.400047 -0.001540 -3.663799
v 16.721460 7.600122 -3.706933
v 14.486200 -3.796541 0.140012
v 15.615552 3.806424 0.147614
v 13.768730 -7.520198 3.910590
v 15.448198 -0.004796 3.960719
v 16.202280 7.613160 4.005234
v 14.676576 -3.796379 7.682340
v 15.584951 3.807761 7.794961
v 15.871622 -7.752945 -11.918112
v 15.807506 0.027491 -11.187061
v 16.495224 7.587441 -11.324855
v 16.472475 11.548480 -7.436553
v 16.617130 11.646812 0.107512
v 16.241495 11.683605 7.699045
v 15.188290 7.608780 11.492454
v 15.044422 -0.002786 11.365910
v 13.493638 -7.518248 11.044139
v 13.165651 -10.967497 7.556559
v 13.190264 -10.965918 0.116253
v 14.560283 -11.216953 -7.539299
v 7.208306 -4.052464 14.688911
v 7.521729 3.823272 13.812137
v 3.461205 -7.642073 16.091553
v 3.630508 -0.212632 13.912436
v 3.795806 7.583034 13.863146
v -0.185112 -4.212452 15.607422
v -0.045048 3.768052 14.434431
v -3.851144 -7.659937 16.311295
v -3.867824 -0.204125 14.542134
v -3.971023 7.556994 14.263851
v -7.613159 -4.014799 15.549557
v -7.712020 3.797090 14.221068
v 10.507121 -7.540241 14.119277
v 10.895179 -0.040740 14.104683
v 11.114500 7.599338 14.677212
v 7.410328 11.449017 14.556941
v -0.126399 11.389965 14.265351
v -7.671896 11.384827 14.213440
v -11.378202 7.590829 14.342084
v -11.194640 -0.053661 14.154020
v -10.856622 -7.582920 14.717734
v -7.402979 -10.724647 14.473110
v -0.183055 -10.936955 15.289912
v 7.041609 -10.572551 13.707840
v -3.624725 -14.344627 -7.553821
v 3.798605 -14.880053 -7.456319
v -7.379117 -14.667984 -3.796567
v 0.072879 -14.232976 -3.716550
v 7.447378 -14.563405 -3.574253
v -3.742841 -14.195705 0.009010
v 3.815675 -14.759829 0.036949
v -7.439066 -14.363761 3.798371
v -0.045410 -13.508675 3.733480
v 7.373772 -14.505601 3.702377
v -3.948180 -14.124102 7.400703
v 3.659396 -13.738688 7.404757
v -7.311148 -14.862729 -11.093895
v 0.113589 -15.572524 -11.782096
v 7.605907 -14.604144 -11.019163
v 10.999806 -13.939210 -7.428370
v 10.651158 -13.953781 0.100062
v 10.518650 -12.472364 7.375322
v 7.236140 -12.897707 10.799261
v -0.181386 -13.438603 10.967913
v -7.468562 -13.882902 10.601799
v -10.593084 -13.563061 7.296009
v -10.723413 -13.405020 -0.036102
v -10.847308 -14.469254 -7.530850
v -14.589212 -3.636476 3.476438
v -15.324903 3.724304 3.596984
v -16.156790 -3.842896 -3.956237
v -16.068195 3.814612 -4.004060
v -12.395823 -10.852903 10.611649
v -13.501910 -3.765524 10.812104
v -14.063600 3.831026 10.977464
v -14.190098 11.341240 10.892915
v -15.460834 11.499837 3.625114
v -15.630933 11.495343 -3.952712
v -15.810630 11.479007 -11.393444
v -16.176655 3.806800 -11.599608
v -16.402910 -3.748288 -11.699388
v -15.684015 -11.380939 -11.470262
v -14.645228 -11.090334 -3.957247
v -13.218939 -10.955224 3.601292
v -3.432286 -3.648388 -17.487696
v -3.664026 3.797794 -17.371452
v 3.919867 -3.786980 -16.408852
v 3.997787 3.788957 -16.883688
v -11.269002 -11.527520 -16.463856
v -11.518462 -3.636692 -17.299000
v -11.349980 3.800676 -17.004728
v -11.084652 11.498058 -16.346075
v -3.617301 11.619766 -16.987389
v 3.954737 11.583591 -16.476204
v 11.406132 11.478119 -16.372229
v 11.718170 3.796016 -17.187244
v 11.891609 -3.706511 -16.691198
v 12.199368 -11.892118 -16.365355
v 3.940269 -11.741856 -15.939350
v -3.583475 -11.924863 -17.085501
v 14.887016 -3.812139 -3.657057
v 15.759289 3.804249 -3.682592
v 14.679984 -3.796821 3.940394
v 15.861932 3.805214 3.980961
v 15.724818 -11.788499 -11.959748
v 15.936830 -3.825580 -11.525218
v 16.294315 3.801409 -11.255198
v 16.376667 11.464412 -11.087978
v 16.740400 11.608464 -3.679483
v 16.680777 11.663663 3.897448
v 15.279181 11.552628 11.305456
v 14.971807 3.810804 11.408350
v 14.250182 -3.791240 11.195834
v 12.774170 -10.914322 10.904136
v 13.054071 -10.949840 3.877370
v 14.189043 -11.105102 -3.639410
v 3.488140 -4.131307 15.314657
v 3.806777 3.787108 13.567731
v -3.851620 -4.171157 15.517554
v -3.918940 3.758530 14.370504
v 10.342923 -10.631201 12.942668
v 10.769266 -3.901916 14.443582
v 11.016580 3.823409 14.278258
v 11.002474 11.456410 15.010611
v 3.671548 11.415845 14.306503
v -3.915150 11.340034 13.960447
v -11.219079 11.390441 14.259359
v -11.299726 3.817951 14.191062
v -11.019409 -3.946893 14.477908
v -10.663021 -10.741302 13.566299
v -3.821460 -10.876277 15.115426
v 3.453463 -10.844326 14.860098
v -3.684445 -14.252286 -3.762331
v 3.820087 -14.607861 -3.647575
v -3.853752 -14.143845 3.788086
v 3.765393 -14.174261 3.690505
v -10.899536 -15.143515 -11.104067
v -3.598265 -15.275673 -11.470126
v 3.825350 -15.332232 -11.404362
v 11.637547 -14.479639 -11.431996
v 10.811739 -14.187947 -3.576912
v 10.556589 -13.270772 3.709879
v 10.524087 -12.313700 10.736575
v 3.577185 -13.676389 10.968614
v -3.901100 -13.971838 10.830107
v -10.629932 -13.132075 10.478689
v -10.687810 -13.697120 3.740363
v -10.818221 -14.044984 -3.829678
v -14.669558 13.920786 14.390576
v -15.262422 14.625441 -15.552077
v 14.704554 14.184160 14.967658
v 15.695497 14.744395 -15.397246
v -15.181101 14.342319 7.767878
v -15.601969 14.791145 -0.146592
v -15.672435 14.847106 -8.080632
v -7.791320 14.903906 -15.915532
v 0.152058 15.192288 -16.184322
v 8.099479 15.057453 -15.922134
v 15.993972 14.984593 -7.807542
v 16.392481 15.490114 0.119177
v 16.211506 15.419372 8.140656
v 7.770252 14.444013 15.200507
v -0.143564 14.235363 14.904377
v -8.051196 14.251499 14.846478
v -15.021129 14.291103 11.489477
v -15.498423 14.618924 3.831080
v -15.717046 14.915258 -4.126925
v -15.641647 14.866433 -11.917150
v -11.629791 14.894560 -15.928003
v -3.839559 15.075970 -16.100319
v 4.140118 15.025074 -15.927816
v 11.917253 15.070377 -15.886516
v 16.040388 15.018010 -11.602704
v 16.306154 15.336540 -3.878713
v 16.516928 15.658348 4.133116
v 15.522334 14.847253 11.901357
v 11.540607 14.470498 15.337622
v 3.832330 14.302798 14.998920
v -4.117609 14.240159 14.812445
v -11.771514 14.231729 14.810317
vn -0.6308 -0.6517 0.4211
vn -0.5161 -0.7175 -0.4679
vn 0.4650 -0.7502 0.4701
vn 0.5096 -0.7656 -0.3926
vn -0.5645 -0.8055 0.1802
vn -0.6438 -0.7517 0.1432
vn -0.7534 -0.6486 0.1079
vn -0.8573 -0.1533 0.4915
vn -0.7806 -0.0410 0.6237
vn -0.7553 -0.0276 0.6548
vn -0.7310 0.0528 -0.6804
vn -0.7518 0.0515 -0.6574
vn -0.7593 -0.0860 -0.6450
vn -0.0062 -0.8482 -0.5296
vn 0.1060 -0.8129 -0.5727
vn -0.0955 -0.8806 -0.4641
vn 0.7663 0.0426 -0.6411
vn 0.7921 -0.0154 -0.6102
vn 0.8049 0.0390 -0.5921
vn 0.5210 -0.8432 0.1328
vn 0.7022 -0.6963 0.1486
vn 0.5814 -0.7906 0.1920
vn 0.6175 -0.0512 0.7849
vn 0.5925 -0.0734 0.8022
vn 0.6726 -0.2303 0.7033
vn -0.1641 -0.7848 0.5977
vn 0.0251 -0.8443 0.5352
vn 0.2118 -0.7751 0.5953
vn -0.9834 -0.1407 0.1143
vn -0.9829 -0.1069 0.1497
vn -0.9820 -0.0285 0.1868
vn -0.9502 -0.2359 0.2038
vn -0.9879 -0.0451 0.1482
vn -0.9973 0.0563 0.0477
vn -0.9865 -0.1121 0.1192
vn -0.9994 0.0340 -0.0056
vn -0.9989 0.0270 0.0391
vn -0.0269 -0.0887 -0.9957
vn -0.0701 0.0571 -0.9959
vn -0.0706 0.0886 -0.9936
vn 0.1702 -0.0459 -0.9843
vn 0.1081 -0.0369 -0.9935
vn 0.0580 0.0272 -0.9979
vn -0.0756 -0.0822 -0.9937
vn -0.0052 -0.0797 -0.9968
vn 0.0089 0.0900 -0.9959
vn 0.9854 -0.0894 0.1450
vn 0.9919 -0.1003 0.0780
vn 0.9990 -0.0437 -0.0106
vn 0.9796 -0.1690 0.1091
vn 0.9901 -0.1403 0.0004
vn 0.9920 -0.1218 0.0323
vn 0.9767 -0.2097 0.0454
vn 0.9899 -0.1222 0.0723
vn 0.9865 -0.0750 0.1456
vn 0.2313 -0.1528 0.9608
vn -0.0131 0.1141 0.9934
vn -0.1032 -0.0973 0.9899
vn 0.0301 -0.0603 0.9977
vn 0.0724 0.1595 0.9845
vn 0.0406 0.0009 0.9992
vn -0.1989 -0.1357 0.9706
vn -0.0663 0.1257 0.9899
vn 0.0081 0.0111 0.9999
vn -0.0025 -0.9964 0.0848
vn -0.0500 -0.9895 0.1359
vn 0.1074 -0.9935 0.0380
vn -0.0849 -0.9957 0.0359
vn -0.0503 -0.9965 0.0668
vn 0.1100 -0.9926 0.0511
vn -0.0979 -0.9931 0.0653
vn 0.0354 -0.9990 0.0274
vn 0.1757 -0.9714 0.1598
vn -0.5948 -0.8037 0.0169
vn -0.5750 -0.7841 0.2336
vn -0.7121 -0.6986 0.0697
vn -0.7443 -0.6577 0.1163
vn -0.8138 -0.3084 0.4925
vn -0.8282 -0.0736 0.5556
vn -0.7603 -0.0342 0.6487
vn -0.7317 -0.1833 0.6566
vn -0.7194 0.0782 -0.6902
vn -0.7405 -0.0792 -0.6673
vn -0.7513 0.1438 -0.6441
vn -0.7076 -0.3464 -0.6159
vn -0.1581 -0.8512 -0.5005
vn 0.2109 -0.7969 -0.5662
vn -0.1228 -0.8524 -0.5082
vn -0.0520 -0.8471 -0.5289
vn 0.7373 0.0589 -0.6730
vn 0.7845 -0.0738 -0.6157
vn 0.7967 0.1254 -0.5912
vn 0.7688 -0.2063 -0.6053
vn 0.4912 -0.8684 0.0678
vn 0.6467 -0.7488 0.1451
vn 0.6661 -0.7401 0.0921
vn 0.5484 -0.7705 0.3249
vn 0.6398 -0.1087 0.7608
vn 0.5823 -0.0661 0.8103
vn 0.6475 -0.1501 0.7472
vn 0.6331 -0.3484 0.6912
vn -0.2433 -0.7715 0.5878
vn -0.0682 -0.8254 0.5605
vn 0.1597 -0.8157 0.5560
vn 0.1223 -0.7927 0.5972
vn -0.9843 -0.1180 0.1311
vn -0.9778 -0.1240 0.1689
vn -0.9664 -0.1878 0.1754
vn -0.9511 -0.0922 0.2947
vn -0.9949 0.0039 0.1007
vn -0.9595 -0.2052 0.1928
vn -0.9946 0.0407 0.0954
vn -0.9549 -0.1888 0.2290
vn -0.9994 0.0057 -0.0336
vn -0.9975 0.0521 0.0487
vn -0.9981 0.0415 0.0465
vn -0.9992 -0.0374 0.0140
vn -0.9910 -0.1329 0.0187
vn -0.9952 -0.0815 0.0550
vn -0.9861 -0.0265 0.1638
vn -0.9881 -0.0343 0.1499
vn -0.9995 0.0178 0.0266
vn -0.9970 0.0729 0.0249
vn -0.9937 0.0311 -0.1072
vn -0.9933 0.0395 -0.1086
vn -0.9931 -0.0797 -0.0865
vn -0.9409 -0.3031 0.1512
vn -0.9554 -0.2352 0.1784
vn -0.9829 -0.1519 0.1044
vn -0.0362 0.1574 -0.9869
vn -0.0684 -0.0376 -0.9969
vn 0.2119 -0.0571 -0.9756
vn 0.0299 0.0193 -0.9994
vn -0.0334 0.0530 -0.9980
vn 0.1500 -0.0532 -0.9873
vn 0.0724 -0.0421 -0.9965
vn 0.0186 -0.0684 -0.9975
vn 0.0293 -0.0678 -0.9973
vn 0.0349 0.0521 -0.9980
vn -0.0391 0.0043 -0.9992
vn -0.0049 -0.0657 -0.9978
vn -0.2765 -0.0933 -0.9565
vn -0.2424 0.0558 -0.9686
vn -0.1932 0.0770 -0.9781
vn -0.0695 0.1753 -0.9821
vn 0.0512 0.1767 -0.9829
vn 0.0154 0.1636 -0.9864
vn 0.2080 0.0857 -0.9744
vn 0.1912 -0.0500 -0.9803
vn 0.0472 -0.0172 -0.9987
vn -0.0634 -0.2897 -0.9550
vn 0.1553 -0.1809 -0.9712
vn -0.0743 -0.4361 -0.8968
vn 0.9916 -0.0619 0.1133
vn 0.9903 -0.1333 0.0400
vn 0.9821 -0.1205 0.1447
vn 0.9883 -0.1226 0.0902
vn 0.9941 -0.0996 0.0426
vn 0.9878 -0.1492 0.0447
vn 0.9891 -0.1470 0.0083
vn 0.9784 -0.2067 0.0098
vn 0.9896 -0.1430 -0.0155
vn 0.9941 -0.1044 0.0290
vn 0.9773 -0.2049 0.0532
vn 0.9906 -0.0850 0.1076
vn 0.9889 -0.0217 0.1468
vn 0.9986 -0.0496 -0.0201
vn 0.9934 -0.0033 -0.1150
vn 0.9959 0.0801 -0.0430
vn 0.9999 0.0038 0.0134
vn 0.9876 -0.0312 0.1541
vn 0.9622 -0.0433 0.2688
vn 0.9687 -0.1024 0.2260
vn 0.9591 -0.2049 0.1952
vn 0.9341 -0.3498 0.0714
vn 0.9719 -0.1933 0.1343
vn 0.9582 -0.2219 0.1805
vn 0.1166 0.1473 0.9822
vn -0.0843 -0.0486 0.9952
vn 0.1641 -0.0870 0.9826
vn 0.1124 0.1667 0.9796
vn -0.0048 -0.0675 0.9977
vn 0.0391 0.2229 0.9741
vn 0.0858 0.0535 0.9949
vn -0.0452 -0.0876 0.9951
vn -0.0429 0.1491 0.9879
vn 0.0174 0.0324 0.9993
vn -0.1398 0.1875 0.9723
vn -0.0224 -0.0141 0.9996
vn 0.2285 -0.2020 0.9523
vn -0.0048 0.0202 0.9998
vn -0.0214 -0.0761 0.9969
vn -0.0835 -0.1343 0.9874
vn -0.0139 -0.1353 0.9907
vn 0.0227 -0.0829 0.9963
vn -0.1418 -0.0129 0.9898
vn -0.1976 0.0449 0.9793
vn -0.4132 -0.1505 0.8981
vn -0.1974 -0.4801 0.8547
vn 0.0257 -0.4451 0.8951
vn 0.2351 -0.4031 0.8845
vn 0.0088 -0.9936 0.1123
vn 0.0249 -0.9957 0.0898
vn -0.0420 -0.9966 0.0716
vn -0.0606 -0.9974 0.0382
vn 0.0946 -0.9949 -0.0359
vn 0.0551 -0.9976 0.0427
vn -0.1055 -0.9930 0.0534
vn -0.0885 -0.9947 -0.0523
vn -0.0071 -0.9969 0.0782
vn 0.1424 -0.9722 0.1861
vn 0.1452 -0.9887 0.0362
vn -0.0144 -0.9958 0.0902
vn -0.0224 -0.9983 0.0540
vn 0.0064 -0.9920 0.1259
vn 0.0836 -0.9944 0.0652
vn 0.0886 -0.9943 0.0587
vn 0.2374 -0.9670 0.0922
vn 0.1672 -0.9741 0.1525
vn 0.1767 -0.9748 0.1359
vn 0.0352 -0.9965 0.0761
vn -0.1264 -0.9565 0.2630
vn -0.3226 -0.9428 0.0836
vn -0.1760 -0.9827 0.0573
vn -0.0531 -0.9911 0.1218
vn -0.9486 -0.1724 0.2653
vn -0.9766 -0.0638 0.2055
vn -0.9913 -0.1004 0.0851
vn -0.9995 0.0283 -0.0156
vn -0.9889 -0.1475 0.0169
vn -0.9936 -0.1091 0.0295
vn -0.9900 -0.0715 0.1215
vn -0.9854 -0.1072 0.1323
vn -0.9981 0.0102 0.0612
vn -0.9978 0.0375 0.0545
vn -0.9926 0.0771 -0.0935
vn -0.9922 -0.0691 -0.1042
vn -0.9896 0.1019 -0.1014
vn -0.9576 -0.2842 -0.0466
vn -0.9242 -0.2787 0.2610
vn -0.9755 -0.1879 0.1145
vn 0.1489 0.0490 -0.9876
vn -0.0065 -0.0284 -0.9996
vn 0.0180 -0.0531 -0.9984
vn 0.0144 -0.0610 -0.9980
vn -0.1813 -0.3992 -0.8987
vn -0.2677 0.1640 -0.9494
vn -0.2205 -0.0565 -0.9737
vn -0.1274 0.1248 -0.9840
vn -0.0619 0.1858 -0.9806
vn 0.0611 0.1693 -0.9837
vn 0.1428 0.1189 -0.9826
vn 0.2207 -0.0648 -0.9732
vn 0.1293 0.0893 -0.9876
vn -0.0742 -0.2335 -0.9695
vn 0.1138 -0.2207 -0.9687
vn 0.0563 -0.3083 -0.9496
vn 0.9886 -0.0986 0.1139
vn 0.9844 -0.1584 0.0766
vn 0.9807 -0.1954 -0.0101
vn 0.9931 -0.1168 0.0047
vn 0.9604 -0.1406 0.2406
vn 0.9982 0.0112 0.0589
vn 0.9926 -0.0903 -0.0808
vn 0.9935 0.0592 -0.0969
vn 0.9986 0.0512 -0.0112
vn 0.9991 -0.0228 0.0362
vn 0.9635 -0.0567 0.2615
vn 0.9681 -0.0546 0.2445
vn 0.9582 -0.1965 0.2081
vn 0.9218 -0.3599 0.1443
vn 0.9698 -0.2396 0.0454
vn 0.9629 -0.2278 0.1445
vn 0.1301 0.2236 0.9660
vn 0.0615 0.0066 0.9981
vn -0.0256 0.2209 0.9750
vn -0.0196 0.0322 0.9993
vn 0.1709 -0.3284 0.9289
vn 0.1401 0.0009 0.9901
vn -0.0526 -0.0653 0.9965
vn 0.0094 -0.1061 0.9943
vn -0.0326 -0.1526 0.9877
vn 0.0072 -0.1000 0.9950
vn -0.0954 -0.1022 0.9902
vn -0.1472 -0.0274 0.9887
vn -0.3420 0.0651 0.9374
vn -0.3249 -0.4150 0.8498
vn -0.0917 -0.4711 0.8773
vn 0.1863 -0.4350 0.8810
vn 0.0417 -0.9983 0.0407
vn -0.0487 -0.9988 0.0014
vn 0.1147 -0.9934 0.0028
vn -0.0968 -0.9855 0.1396
vn -0.0039 -0.9993 0.0364
vn -0.0816 -0.9888 0.1246
vn 0.1087 -0.9926 0.0538
vn -0.0319 -0.9853 0.1678
vn 0.1774 -0.9841 -0.0031
vn 0.2233 -0.9573 0.1837
vn 0.1141 -0.9914 0.0634
vn 0.0733 -0.9908 0.1139
vn 0.0564 -0.9835 0.1718
vn -0.2718 -0.9380 0.2150
vn -0.2574 -0.9662 -0.0157
vn -0.1200 -0.9844 0.1285
vn -0.6917 -0.3324 0.6411
vn -0.7172 -0.0211 -0.6965
vn 0.6631 -0.2063 0.7196
vn 0.7242 0.0158 -0.6894
vn -0.9835 -0.1423 0.1114
vn -0.9989 -0.0398 0.0247
vn -0.9991 0.0430 0.0048
vn -0.0524 0.1617 -0.9854
vn 0.0434 0.2288 -0.9725
vn 0.0108 0.1492 -0.9887
vn 0.9922 0.1172 -0.0426
vn 0.9976 0.0681 -0.0117
vn 0.9877 -0.0226 0.1550
vn -0.0667 -0.1790 0.9816
vn -0.0310 -0.2392 0.9705
vn 0.0167 -0.2227 0.9747
vn -0.9647 -0.2471 0.0911
vn -0.9968 -0.0534 0.0598
vn -0.9993 -0.0071 0.0370
vn -0.9956 0.0077 -0.0935
vn -0.1059 0.0630 -0.9924
vn -0.0670 0.2210 -0.9730
vn 0.0586 0.1804 -0.9819
vn 0.1201 0.0784 -0.9897
vn 0.9947 0.0556 -0.0860
vn 0.9939 0.1032 -0.0392
vn 0.9988 0.0329 0.0372
vn 0.9630 -0.1167 0.2431
vn 0.0408 -0.1639 0.9856
vn -0.0345 -0.2211 0.9746
vn -0.0050 -0.2494 0.9684
vn -0.0796 -0.2301 0.9699
vt 0.437500 0.062500
vt 0.468750 0.062500
vt 0.468750 0.093750
vt 0.437500 0.093750
vt 0.500000 0.062500
vt 0.500000 0.093750
vt 0.500000 0.125000
vt 0.468750 0.125000
vt 0.437500 0.125000
vt 0.531250 0.062500
vt 0.531250 0.093750
vt 0.562500 0.062500
vt 0.562500 0.093750
vt 0.562500 0.125000
vt 0.531250 0.125000
vt 0.468750 0.156250
vt 0.437500 0.156250
vt 0.500000 0.156250
vt 0.500000 0.187500
vt 0.468750 0.187500
vt 0.437500 0.187500
vt 0.531250 0.156250
vt 0.562500 0.156250
vt 0.562500 0.187500
vt 0.531250 0.187500
vt 0.375000 0.000000
vt 0.406250 0.000000
vt 0.406250 0.031250
vt 0.375000 0.031250
vt 0.437500 0.000000
vt 0.437500 0.031250
vt 0.406250 0.062500
vt 0.375000 0.062500
vt 0.468750 0.000000
vt 0.468750 0.031250
vt 0.500000 0.000000
vt 0.500000 0.031250
vt 0.531250 0.000000
vt 0.531250 0.031250
vt 0.562500 0.000000
vt 0.562500 0.031250
vt 0.593750 0.000000
vt 0.593750 0.031250
vt 0.593750 0.062500
vt 0.593750 0.093750
vt 0.593750 0.125000
vt 0.593750 0.156250
vt 0.593750 0.187500
vt 0.593750 0.218750
vt 0.562500 0.218750
vt 0.593750 0.250000
vt 0.562500 0.250000
vt 0.531250 0.218750
vt 0.500000 0.218750
vt 0.531250 0.250000
vt 0.500000 0.250000
vt 0.468750 0.218750
vt 0.437500 0.218750
vt 0.468750 0.250000
vt 0.437500 0.250000
vt 0.375000 0.187500
vt 0.406250 0.187500
vt 0.406250 0.218750
vt 0.375000 0.218750
vt 0.406250 0.250000
vt 0.375000 0.250000
vt 0.375000 0.125000
vt 0.406250 0.125000
vt 0.406250 0.156250
vt 0.375000 0.156250
vt 0.406250 0.093750
vt 0.375000 0.093750
vt 0.437500 0.312500
vt 0.468750 0.312500
vt 0.468750 0.343750
vt 0.437500 0.343750
vt 0.500000 0.312500
vt 0.500000 0.343750
vt 0.500000 0.375000
vt 0.468750 0.375000
vt 0.437500 0.375000
vt 0.531250 0.312500
vt 0.531250 0.343750
vt 0.562500 0.312500
vt 0.562500 0.343750
vt 0.562500 0.375000
vt 0.531250 0.375000
vt 0.468750 0.406250
vt 0.437500 0.406250
vt 0.500000 0.406250
vt 0.500000 0.437500
vt 0.468750 0.437500
vt 0.437500 0.437500
vt 0.531250 0.406250
vt 0.562500 0.406250
vt 0.562500 0.437500
vt 0.531250 0.437500
vt 0.406250 0.281250
vt 0.375000 0.281250
vt 0.437500 0.281250
vt 0.406250 0.312500
vt 0.375000 0.312500
vt 0.468750 0.281250
vt 0.500000 0.281250
vt 0.531250 0.281250
vt 0.562500 0.281250
vt 0.593750 0.281250
vt 0.593750 0.312500
vt 0.593750 0.343750
vt 0.593750 0.375000
vt 0.593750 0.406250
vt 0.593750 0.437500
vt 0.593750 0.468750
vt 0.562500 0.468750
vt 0.593750 0.500000
vt 0.562500 0.500000
vt 0.531250 0.468750
vt 0.500000 0.468750
vt 0.531250 0.500000
vt 0.500000 0.500000
vt 0.468750 0.468750
vt 0.437500 0.468750
vt 0.468750 0.500000
vt 0.437500 0.500000
vt 0.375000 0.437500
vt 0.406250 0.437500
vt 0.406250 0.468750
vt 0.375000 0.468750
vt 0.406250 0.500000
vt 0.375000 0.500000
vt 0.375000 0.375000
vt 0.406250 0.375000
vt 0.406250 0.406250
vt 0.375000 0.406250
vt 0.406250 0.343750
vt 0.375000 0.343750
vt 0.437500 0.562500
vt 0.468750 0.562500
vt 0.468750 0.593750
vt 0.437500 0.593750
vt 0.500000 0.562500
vt 0.500000 0.593750
vt 0.500000 0.625000
vt 0.468750 0.625000
vt 0.437500 0.625000
vt 0.531250 0.562500
vt 0.531250 0.593750
vt 0.562500 0.562500
vt 0.562500 0.593750
vt 0.562500 0.625000
vt 0.531250 0.625000
vt 0.468750 0.656250
vt 0.437500 0.656250
vt 0.500000 0.656250
vt 0.500000 0.687500
vt 0.468750 0.687500
vt 0.437500 0.687500
vt 0.531250 0.656250
vt 0.562500 0.656250
vt 0.562500 0.687500
vt 0.531250 0.687500
vt 0.406250 0.531250
vt 0.375000 0.531250
vt 0.437500 0.531250
vt 0.406250 0.562500
vt 0.375000 0.562500
vt 0.468750 0.531250
vt 0.500000 0.531250
vt 0.531250 0.531250
vt 0.562500 0.531250
vt 0.593750 0.531250
vt 0.593750 0.562500
vt 0.593750 0.593750
vt 0.593750 0.625000
vt 0.593750 0.656250
vt 0.593750 0.687500
vt 0.593750 0.718750
vt 0.562500 0.718750
vt 0.593750 0.750000
vt 0.562500 0.750000
vt 0.531250 0.718750
vt 0.500000 0.718750
vt 0.531250 0.750000
vt 0.500000 0.750000
vt 0.468750 0.718750
vt 0.437500 0.718750
vt 0.468750 0.750000
vt 0.437500 0.750000
vt 0.375000 0.687500
vt 0.406250 0.687500
vt 0.406250 0.718750
vt 0.375000 0.718750
vt 0.406250 0.750000
vt 0.375000 0.750000
vt 0.375000 0.625000
vt 0.406250 0.625000
vt 0.406250 0.656250
vt 0.375000 0.656250
vt 0.406250 0.593750
vt 0.375000 0.593750
vt 0.437500 0.812500
vt 0.468750 0.812500
vt 0.468750 0.843750
vt 0.437500 0.843750
vt 0.500000 0.812500
vt 0.500000 0.843750
vt 0.500000 0.875000
vt 0.468750 0.875000
vt 0.437500 0.875000
vt 0.531250 0.812500
vt 0.531250 0.843750
vt 0.562500 0.812500
vt 0.562500 0.843750
vt 0.562500 0.875000
vt 0.531250 0.875000
vt 0.468750 0.906250
vt 0.437500 0.906250
vt 0.500000 0.906250
vt 0.500000 0.937500
vt 0.468750 0.937500
vt 0.437500 0.937500
vt 0.531250 0.906250
vt 0.562500 0.906250
vt 0.562500 0.937500
vt 0.531250 0.937500
vt 0.406250 0.781250
vt 0.375000 0.781250
vt 0.437500 0.781250
vt 0.406250 0.812500
vt 0.375000 0.812500
vt 0.468750 0.781250
vt 0.500000 0.781250
vt 0.531250 0.781250
vt 0.562500 0.781250
vt 0.593750 0.781250
vt 0.593750 0.812500
vt 0.593750 0.843750
vt 0.593750 0.875000
vt 0.593750 0.906250
vt 0.593750 0.937500
vt 0.593750 0.968750
vt 0.562500 0.968750
vt 0.593750 1.000000
vt 0.562500 1.000000
vt 0.531250 0.968750
vt 0.500000 0.968750
vt 0.531250 1.000000
vt 0.500000 1.000000
vt 0.468750 0.968750
vt 0.437500 0.968750
vt 0.468750 1.000000
vt 0.437500 1.000000
vt 0.375000 0.937500
vt 0.406250 0.937500
vt 0.406250 0.968750
vt 0.375000 0.968750
vt 0.406250 1.000000
vt 0.375000 1.000000
vt 0.375000 0.875000
vt 0.406250 0.875000
vt 0.406250 0.906250
vt 0.375000 0.906250
vt 0.406250 0.843750
vt 0.375000 0.843750
vt 0.187500 0.562500
vt 0.218750 0.562500
vt 0.218750 0.593750
vt 0.187500 0.593750
vt 0.250000 0.562500
vt 0.250000 0.593750
vt 0.250000 0.625000
vt 0.218750 0.625000
vt 0.187500 0.625000
vt 0.281250 0.562500
vt 0.281250 0.593750
vt 0.312500 0.562500
vt 0.312500 0.593750
vt 0.312500 0.625000
vt 0.281250 0.625000
vt 0.218750 0.656250
vt 0.187500 0.656250
vt 0.250000 0.656250
vt 0.250000 0.687500
vt 0.218750 0.687500
vt 0.187500 0.687500
vt 0.281250 0.656250
vt 0.312500 0.656250
vt 0.312500 0.687500
vt 0.281250 0.687500
vt 0.125000 0.500000
vt 0.156250 0.500000
vt 0.156250 0.531250
vt 0.125000 0.531250
vt 0.187500 0.500000
vt 0.187500 0.531250
vt 0.156250 0.562500
vt 0.125000 0.562500
vt 0.218750 0.500000
vt 0.218750 0.531250
vt 0.250000 0.500000
vt 0.250000 0.531250
vt 0.281250 0.500000
vt 0.281250 0.531250
vt 0.312500 0.500000
vt 0.312500 0.531250
vt 0.343750 0.500000
vt 0.343750 0.531250
vt 0.343750 0.562500
vt 0.343750 0.593750
vt 0.343750 0.625000
vt 0.343750 0.656250
vt 0.343750 0.687500
vt 0.343750 0.718750
vt 0.312500 0.718750
vt 0.343750 0.750000
vt 0.312500 0.750000
vt 0.281250 0.718750
vt 0.250000 0.718750
vt 0.281250 0.750000
vt 0.250000 0.750000
vt 0.218750 0.718750
vt 0.187500 0.718750
vt 0.218750 0.750000
vt 0.187500 0.750000
vt 0.125000 0.687500
vt 0.156250 0.687500
vt 0.156250 0.718750
vt 0.125000 0.718750
vt 0.156250 0.750000
vt 0.125000 0.750000
vt 0.125000 0.625000
vt 0.156250 0.625000
vt 0.156250 0.656250
vt 0.125000 0.656250
vt 0.156250 0.593750
vt 0.125000 0.593750
vt 0.618609 0.968750
vt 0.618129 1.000000
vt 0.618129 0.000000
vt 0.618860 0.031250
vt 0.619440 0.218750
vt 0.618986 0.250000
vt 0.619523 0.281250
vt 0.619272 0.718750
vt 0.618400 0.750000
vt 0.618849 0.781250
vt 0.619781 0.468750
vt 0.619192 0.500000
vt 0.619693 0.531250
vt 0.618690 0.062500
vt 0.619039 0.093750
vt 0.619296 0.125000
vt 0.619442 0.156250
vt 0.619371 0.187500
vt 0.619503 0.312500
vt 0.619788 0.343750
vt 0.619919 0.375000
vt 0.619627 0.406250
vt 0.619698 0.437500
vt 0.619598 0.562500
vt 0.619915 0.593750
vt 0.619984 0.625000
vt 0.620123 0.656250
vt 0.619827 0.687500
vt 0.618862 0.812500
vt 0.618719 0.843750
vt 0.618645 0.875000
vt 0.618797 0.906250
vt 0.618673 0.937500
s 1
f 29/1/29 106/2/106 226/3/226 108/4/108
f 106/2/106 30/5/30 109/6/109 226/3/226
f 226/3/226 109/6/109 33/7/33 111/8/111
f 108/4/108 226/3/226 111/8/111 32/9/32
f 30/5/30 107/10/107 227/11/227 109/6/109
f 107/10/107 31/12/31 110/13/110 227/11/227
f 227/11/227 110/13/110 34/14/34 112/15/112
f 109/6/109 227/11/227 112/15/112 33/7/33
f 32/9/32 111/8/111 228/16/228 113/17/113
f 111/8/111 33/7/33 114/18/114 228/16/228
f 228/16/228 114/18/114 36/19/36 116/20/116
f 113/17/113 228/16/228 116/20/116 35/21/35
f 33/7/33 112/15/112 229/22/229 114/18/114
f 112/15/112 34/14/34 115/23/115 229/22/229
f 229/22/229 115/23/115 37/24/37 117/25/117
f 114/18/114 229/22/229 117/25/117 36/19/36
f 1/26/1 78/27/78 230/28/230 77/29/77
f 78/27/78 8/30/8 118/31/118 230/28/230
f 230/28/230 118/31/118 29/1/29 129/32/129
f 77/29/77 230/28/230 129/32/129 7/33/7
f 8/30/8 79/34/79 231/35/231 118/31/118
f 79/34/79 9/36/9 119/37/119 231/35/231
f 231/35/231 119/37/119 30/5/30 106/2/106
f 118/31/118 231/35/231 106/2/106 29/1/29
f 9/36/9 80/38/80 232/39/232 119/37/119
f 80/38/80 10/40/10 120/41/120 232/39/232
f 232/39/232 120/41/120 31/12/31 107/10/107
f 119/37/119 232/39/232 107/10/107 30/5/30
f 10/40/10 81/42/81 233/43/233 120/41/120
f 120/41/120 233/43/233 121/44/121 31/12/31
f 31/12/31 121/44/121 234/45/234 110/13/110
f 110/13/110 234/45/234 122/46/122 34/14/34
f 34/14/34 122/46/122 235/47/235 115/23/115
f 115/23/115 235/47/235 123/48/123 37/24/37
f 37/24/37 123/48/123 236/49/236 124/50/124
f 124/50/124 236/49/236 82/51/82 11/52/11
f 36/19/36 117/25/117 237/53/237 125/54/125
f 117/25/117 37/24/37 124/50/124 237/53/237
f 237/53/237 124/50/124 11/52/11 83/55/83
f 125/54/125 237/53/237 83/55/83 12/56/12
f 35/21/35 116/20/116 238/57/238 126/58/126
f 116/20/116 36/19/36 125/54/125 238/57/238
f 238/57/238 125/54/125 12/56/12 84/59/84
f 126/58/126 238/57/238 84/59/84 13/60/13
f 5/61/5 127/62/127 239/63/239 74/64/74
f 127/62/127 35/21/35 126/58/126 239/63/239
f 239/63/239 126/58/126 13/60/13 85/65/85
f 74/64/74 239/63/239 85/65/85 2/66/2
f 6/67/6 128/68/128 240/69/240 75/70/75
f 128/68/128 32/9/32 113/17/113 240/69/240
f 240/69/240 113/17/113 35/21/35 127/62/127
f 75/70/75 240/69/240 127/62/127 5/61/5
f 7/33/7 129/32/129 241/71/241 76/72/76
f 129/32/129 29/1/29 108/4/108 241/71/241
f 241/71/241 108/4/108 32/9/32 128/68/128
f 76/72/76 241/71/241 128/68/128 6/67/6
f 38/73/38 130/74/130 242/75/242 132/76/132
f 130/74/130 39/77/39 133/78/133 242/75/242
f 242/75/242 133/78/133 42/79/42 135/80/135
f 132/76/132 242/75/242 135/80/135 41/81/41
f 39/77/39 131/82/131 243/83/243 133/78/133
f 131/82/131 40/84/40 134/85/134 243/83/243
f 243/83/243 134/85/134 43/86/43 136/87/136
f 133/78/133 243/83/243 136/87/136 42/79/42
f 41/81/41 135/80/135 244/88/244 137/89/137
f 135/80/135 42/79/42 138/90/138 244/88/244
f 244/88/244 138/90/138 45/91/45 140/92/140
f 137/89/137 244/88/244 140/92/140 44/93/44
f 42/79/42 136/87/136 245/94/245 138/90/138
f 136/87/136 43/86/43 139/95/139 245/94/245
f 245/94/245 139/95/139 46/96/46 141/97/141
f 138/90/138 245/94/245 141/97/141 45/91/45
f 2/66/2 85/65/85 246/98/246 89/99/89
f 85/65/85 13/60/13 142/100/142 246/98/246
f 246/98/246 142/100/142 38/73/38 153/101/153
f 89/99/89 246/98/246 153/101/153 16/102/16
f 13/60/13 84/59/84 247/103/247 142/100/142
f 84/59/84 12/56/12 143/104/143 247/103/247
f 247/103/247 143/104/143 39/77/39 130/74/130
f 142/100/142 247/103/247 130/74/130 38/73/38
f 12/56/12 83/55/83 248/105/248 143/104/143
f 83/55/83 11/52/11 144/106/144 248/105/248
f 248/105/248 144/106/144 40/84/40 131/82/131
f 143/104/143 248/105/248 131/82/131 39/77/39
f 11/52/11 82/51/82 249/107/249 144/106/144
f 144/106/144 249/107/249 145/108/145 40/84/40
f 40/84/40 145/108/145 250/109/250 134/85/134
f 134/85/134 250/109/250 146/110/146 43/86/43
f 43/86/43 146/110/146 251/111/251 139/95/139
f 139/95/139 251/111/251 147/112/147 46/96/46
f 46/96/46 147/112/147 252/113/252 148/114/148
f 148/114/148 252/113/252 90/115/90 17/116/17
f 45/91/45 141/97/141 253/117/253 149/118/149
f 141/97/141 46/96/46 148/114/148 253/117/253
f 253/117/253 148/114/148 17/116/17 91/119/91
f 149/118/149 253/117/253 91/119/91 18/120/18
f 44/93/44 140/92/140 254/121/254 150/122/150
f 140/92/140 45/91/45 149/118/149 254/121/254
f 254/121/254 149/118/149 18/120/18 92/123/92
f 150/122/150 254/121/254 92/123/92 19/124/19
f 14/125/14 151/126/151 255/127/255 86/128/86
f 151/126/151 44/93/44 150/122/150 255/127/255
f 255/127/255 150/122/150 19/124/19 93/129/93
f 86/128/86 255/127/255 93/129/93 4/130/4
f 15/131/15 152/132/152 256/133/256 87/134/87
f 152/132/152 41/81/41 137/89/137 256/133/256
f 256/133/256 137/89/137 44/93/44 151/126/151
f 87/134/87 256/133/256 151/126/151 14/125/14
f 16/102/16 153/101/153 257/135/257 88/136/88
f 153/101/153 38/73/38 132/76/132 257/135/257
f 257/135/257 132/76/132 41/81/41 152/132/152
f 88/136/88 257/135/257 152/132/152 15/131/15
f 47/137/47 154/138/154 258/139/258 156/140/156
f 154/138/154 48/141/48 157/142/157 258/139/258
f 258/139/258 157/142/157 51/143/51 159/144/159
f 156/140/156 258/139/258 159/144/159 50/145/50
f 48/141/48 155/146/155 259/147/259 157/142/157
f 155/146/155 49/148/49 158/149/158 259/147/259
f 259/147/259 158/149/158 52/150/52 160/151/160
f 157/142/157 259/147/259 160/151/160 51/143/51
f 50/145/50 159/144/159 260/152/260 161/153/161
f 159/144/159 51/143/51 162/154/162 260/152/260
f 260/152/260 162/154/162 54/155/54 164/156/164
f 161/153/161 260/152/260 164/156/164 53/157/53
f 51/143/51 160/151/160 261/158/261 162/154/162
f 160/151/160 52/150/52 163/159/163 261/158/261
f 261/158/261 163/159/163 55/160/55 165/161/165
f 162/154/162 261/158/261 165/161/165 54/155/54
f 4/130/4 93/129/93 262/162/262 97/163/97
f 93/129/93 19/124/19 166/164/166 262/162/262
f 262/162/262 166/164/166 47/137/47 177/165/177
f 97/163/97 262/162/262 177/165/177 22/166/22
f 19/124/19 92/123/92 263/167/263 166/164/166
f 92/123/92 18/120/18 167/168/167 263/167/263
f 263/167/263 167/168/167 48/141/48 154/138/154
f 166/164/166 263/167/263 154/138/154 47/137/47
f 18/120/18 91/119/91 264/169/264 167/168/167
f 91/119/91 17/116/17 168/170/168 264/169/264
f 264/169/264 168/170/168 49/148/49 155/146/155
f 167/168/167 264/169/264 155/146/155 48/141/48
f 17/116/17 90/115/90 265/171/265 168/170/168
f 168/170/168 265/171/265 169/172/169 49/148/49
f 49/148/49 169/172/169 266/173/266 158/149/158
f 158/149/158 266/173/266 170/174/170 52/150/52
f 52/150/52 170/174/170 267/175/267 163/159/163
f 163/159/163 267/175/267 171/176/171 55/160/55
f 55/160/55 171/176/171 268/177/268 172/178/172
f 172/178/172 268/177/268 98/179/98 23/180/23
f 54/155/54 165/161/165 269/181/269 173/182/173
f 165/161/165 55/160/55 172/178/172 269/181/269
f 269/181/269 172/178/172 23/180/23 99/183/99
f 173/182/173 269/181/269 99/183/99 24/184/24
f 53/157/53 164/156/164 270/185/270 174/186/174
f 164/156/164 54/155/54 173/182/173 270/185/270
f 270/185/270 173/182/173 24/184/24 100/187/100
f 174/186/174 270/185/270 100/187/100 25/188/25
f 20/189/20 175/190/175 271/191/271 94/192/94
f 175/190/175 53/157/53 174/186/174 271/191/271
f 271/191/271 174/186/174 25/188/25 101/193/101
f 94/192/94 271/191/271 101/193/101 3/194/3
f 21/195/21 176/196/176 272/197/272 95/198/95
f 176/196/176 50/145/50 161/153/161 272/197/272
f 272/197/272 161/153/161 53/157/53 175/190/175
f 95/198/95 272/197/272 175/190/175 20/189/20
f 22/166/22 177/165/177 273/199/273 96/200/96
f 177/165/177 47/137/47 156/140/156 273/199/273
f 273/199/273 156/140/156 50/145/50 176/196/176
f 96/200/96 273/199/273 176/196/176 21/195/21
f 56/201/56 178/202/178 274/203/274 180/204/180
f 178/202/178 57/205/57 181/206/181 274/203/274
f 274/203/274 181/206/181 60/207/60 183/208/183
f 180/204/180 274/203/274 183/208/183 59/209/59
f 57/205/57 179/210/179 275/211/275 181/206/181
f 179/210/179 58/212/58 182/213/182 275/211/275
f 275/211/275 182/213/182 61/214/61 184/215/184
f 181/206/181 275/211/275 184/215/184 60/207/60
f 59/209/59 183/208/183 276/216/276 185/217/185
f 183/208/183 60/207/60 186/218/186 276/216/276
f 276/216/276 186/218/186 63/219/63 188/220/188
f 185/217/185 276/216/276 188/220/188 62/221/62
f 60/207/60 184/215/184 277/222/277 186/218/186
f 184/215/184 61/214/61 187/223/187 277/222/277
f 277/222/277 187/223/187 64/224/64 189/225/189
f 186/218/186 277/222/277 189/225/189 63/219/63
f 3/194/3 101/193/101 278/226/278 105/227/105
f 101/193/101 25/188/25 190/228/190 278/226/278
f 278/226/278 190/228/190 56/201/56 201/229/201
f 105/227/105 278/226/278 201/229/201 28/230/28
f 25/188/25 100/187/100 279/231/279 190/228/190
f 100/187/100 24/184/24 191/232/191 279/231/279
f 279/231/279 191/232/191 57/205/57 178/202/178
f 190/228/190 279/231/279 178/202/178 56/201/56
f 24/184/24 99/183/99 280/233/280 191/232/191
f 99/183/99 23/180/23 192/234/192 280/233/280
f 280/233/280 192/234/192 58/212/58 179/210/179
f 191/232/191 280/233/280 179/210/179 57/205/57
f 23/180/23 98/179/98 281/235/281 192/234/192
f 192/234/192 281/235/281 193/236/193 58/212/58
f 58/212/58 193/236/193 282/237/282 182/213/182
f 182/213/182 282/237/282 194/238/194 61/214/61
f 61/214/61 194/238/194 283/239/283 187/223/187
f 187/223/187 283/239/283 195/240/195 64/224/64
f 64/224/64 195/240/195 284/241/284 196/242/196
f 196/242/196 284/241/284 81/243/81 10/244/10
f 63/219/63 189/225/189 285/245/285 197/246/197
f 189/225/189 64/224/64 196/242/196 285/245/285
f 285/245/285 196/242/196 10/244/10 80/247/80
f 197/246/197 285/245/285 80/247/80 9/248/9
f 62/221/62 188/220/188 286/249/286 198/250/198
f 188/220/188 63/219/63 197/246/197 286/249/286
f 286/249/286 197/246/197 9/248/9 79/251/79
f 198/250/198 286/249/286 79/251/79 8/252/8
f 26/253/26 199/254/199 287/255/287 102/256/102
f 199/254/199 62/221/62 198/250/198 287/255/287
f 287/255/287 198/250/198 8/252/8 78/257/78
f 102/256/102 287/255/287 78/257/78 1/258/1
f 27/259/27 200/260/200 288/261/288 103/262/103
f 200/260/200 59/209/59 185/217/185 288/261/288
f 288/261/288 185/217/185 62/221/62 199/254/199
f 103/262/103 288/261/288 199/254/199 26/253/26
f 28/230/28 201/229/201 289/263/289 104/264/104
f 201/229/201 56/201/56 180/204/180 289/263/289
f 289/263/289 180/204/180 59/209/59 200/260/200
f 104/264/104 289/263/289 200/260/200 27/259/27
f 65/265/65 202/266/202 290/267/290 204/268/204
f 202/266/202 66/269/66 205/270/205 290/267/290
f 290/267/290 205/270/205 69/271/69 207/272/207
f 204/268/204 290/267/290 207/272/207 68/273/68
f 66/269/66 203/274/203 291/275/291 205/270/205
f 203/274/203 67/276/67 206/277/206 291/275/291
f 291/275/291 206/277/206 70/278/70 208/279/208
f 205/270/205 291/275/291 208/279/208 69/271/69
f 68/273/68 207/272/207 292/280/292 209/281/209
f 207/272/207 69/271/69 210/282/210 292/280/292
f 292/280/292 210/282/210 72/283/72 212/284/212
f 209/281/209 292/280/292 212/284/212 71/285/71
f 69/271/69 208/279/208 293/286/293 210/282/210
f 208/279/208 70/278/70 211/287/211 293/286/293
f 293/286/293 211/287/211 73/288/73 213/289/213
f 210/282/210 293/286/293 213/289/213 72/283/72
f 2/290/2 89/291/89 294/292/294 74/293/74
f 89/291/89 16/294/16 214/295/214 294/292/294
f 294/292/294 214/295/214 65/265/65 225/296/225
f 74/293/74 294/292/294 225/296/225 5/297/5
f 16/294/16 88/298/88 295/299/295 214/295/214
f 88/298/88 15/300/15 215/301/215 295/299/295
f 295/299/295 215/301/215 66/269/66 202/266/202
f 214/295/214 295/299/295 202/266/202 65/265/65
f 15/300/15 87/302/87 296/303/296 215/301/215
f 87/302/87 14/304/14 216/305/216 296/303/296
f 296/303/296 216/305/216 67/276/67 203/274/203
f 215/301/215 296/303/296 203/274/203 66/269/66
f 14/304/14 86/306/86 297/307/297 216/305/216
f 86/306/86 4/130/4 97/163/97 297/307/297
f 297/307/297 97/163/97 22/166/22 217/308/217
f 216/305/216 297/307/297 217/308/217 67/276/67
f 67/276/67 217/308/217 298/309/298 206/277/206
f 217/308/217 22/166/22 96/200/96 298/309/298
f 298/309/298 96/200/96 21/195/21 218/310/218
f 206/277/206 298/309/298 218/310/218 70/278/70
f 70/278/70 218/310/218 299/311/299 211/287/211
f 218/310/218 21/195/21 95/198/95 299/311/299
f 299/311/299 95/198/95 20/189/20 219/312/219
f 211/287/211 299/311/299 219/312/219 73/288/73
f 73/288/73 219/312/219 300/313/300 220/314/220
f 219/312/219 20/189/20 94/192/94 300/313/300
f 300/313/300 94/192/94 3/194/3 105/315/105
f 220/314/220 300/313/300 105/315/105 28/316/28
f 72/283/72 213/289/213 301/317/301 221/318/221
f 213/289/213 73/288/73 220/314/220 301/317/301
f 301/317/301 220/314/220 28/316/28 104/319/104
f 221/318/221 301/317/301 104/319/104 27/320/27
f 71/285/71 212/284/212 302/321/302 222/322/222
f 212/284/212 72/283/72 221/318/221 302/321/302
f 302/321/302 221/318/221 27/320/27 103/323/103
f 222/322/222 302/321/302 103/323/103 26/324/26
f 7/325/7 223/326/223 303/327/303 77/328/77
f 223/326/223 71/285/71 222/322/222 303/327/303
f 303/327/303 222/322/222 26/324/26 102/329/102
f 77/328/77 303/327/303 102/329/102 1/330/1
f 6/331/6 224/332/224 304/333/304 76/334/76
f 224/332/224 68/273/68 209/281/209 304/333/304
f 304/333/304 209/281/209 71/285/71 223/326/223
f 76/334/76 304/333/304 223/326/223 7/325/7
f 5/297/5 225/296/225 305/335/305 75/336/75
f 225/296/225 65/265/65 204/268/204 305/335/305
f 305/335/305 204/268/204 68/273/68 224/332/224
f 75/336/75 305/335/305 224/332/224 6/331/6
f 284/241/284 337/337/337 306/338/306 81/243/81
f 81/42/81 306/339/306 322/340/322 233/43/233
f 236/49/236 325/341/325 307/342/307 82/51/82
f 82/51/82 307/342/307 326/343/326 249/107/249
f 268/177/268 333/344/333 308/345/308 98/179/98
f 98/179/98 308/345/308 334/346/334 281/235/281
f 252/113/252 329/347/329 309/348/309 90/115/90
f 90/115/90 309/348/309 330/349/330 265/171/265
f 121/44/121 310/350/310 323/351/323 234/45/234
f 233/43/233 322/340/322 310/350/310 121/44/121
f 122/46/122 311/352/311 324/353/324 235/47/235
f 234/45/234 323/351/323 311/352/311 122/46/122
f 123/48/123 312/354/312 325/341/325 236/49/236
f 235/47/235 324/353/324 312/354/312 123/48/123
f 145/108/145 313/355/313 327/356/327 250/109/250
f 249/107/249 326/343/326 313/355/313 145/108/145
f 146/110/146 314/357/314 328/358/328 251/111/251
f 250/109/250 327/356/327 314/357/314 146/110/146
f 147/112/147 315/359/315 329/347/329 252/113/252
f 251/111/251 328/358/328 315/359/315 147/112/147
f 169/172/169 316/360/316 331/361/331 266/173/266
f 265/171/265 330/349/330 316/360/316 169/172/169
f 170/174/170 317/362/317 332/363/332 267/175/267
f 266/173/266 331/361/331 317/362/317 170/174/170
f 171/176/171 318/364/318 333/344/333 268/177/268
f 267/175/267 332/363/332 318/364/318 171/176/171
f 193/236/193 319/365/319 335/366/335 282/237/282
f 281/235/281 334/346/334 319/365/319 193/236/193
f 194/238/194 320/367/320 336/368/336 283/239/283
f 282/237/282 335/366/335 320/367/320 194/238/194
f 195/240/195 321/369/321 337/337/337 284/241/284
f 283/239/283 336/368/336 321/369/321 195/240/195
