# Blender 5.2.2 LTS
# www.blender.org
o Cube.031
v 11.221460 -15.083156 -17.150873
v 12.276567 1.370537 -18.672325
v 12.007153 -15.608822 16.414249
v 13.304029 1.290409 16.848022
v -23.220558 -15.976871 -21.616461
v -24.499716 1.402393 -22.227188
v -21.108122 -15.152625 16.880816
v -22.837492 1.499278 16.914204
v 1.980209 -15.472943 7.770485
v 1.806631 -15.726185 -9.882056
v 1.965363 0.607025 -10.064013
v 2.044787 0.600124 7.818073
v -9.544056 -15.602909 6.360652
v -9.588897 0.770518 6.399868
v -10.887657 -15.659200 -10.123020
v -11.010787 0.611440 -10.236948
v -6.083315 -16.224939 -20.537357
v -6.104450 1.384858 -21.207296
v -4.540516 -15.470733 -10.253076
v -4.538577 0.677176 -10.314448
v -23.494331 -16.005766 -2.685542
v -24.433876 1.465511 -2.718016
v -10.258110 -15.567860 -1.924196
v -10.220262 0.870951 -1.923658
v -4.696098 -16.903706 17.653574
v -4.647609 1.546136 17.840023
v -3.768526 -15.462774 7.264902
v -3.776340 0.662091 7.331360
v 12.997785 -16.281509 -0.890208
v 13.509843 1.309154 -0.850254
v 1.993316 -15.487205 -1.108615
v 2.103631 0.647820 -1.106954
v 0.724634 -7.361189 -8.914847
v -10.277275 -7.374515 -9.580688
v 1.221647 -7.364188 7.065058
v -8.910106 -7.368594 5.857298
v 12.535848 -7.360657 -18.841122
v 13.783900 -7.496846 17.951323
v -23.279127 -7.380972 17.282009
v -25.147297 -7.434783 -22.846645
v -15.419408 -16.786583 -21.934566
v 3.326794 1.247129 -20.125811
v -7.933730 -15.611077 -10.145082
v -1.133954 0.727981 -10.214327
v 12.748328 -16.292255 -9.633321
v 13.728612 1.259583 8.277164
v 2.083563 -15.394174 -5.784680
v 2.037228 0.715231 3.577311
v -23.178545 -16.155930 6.972785
v -24.665565 1.248971 -12.767081
v -9.917882 -15.557410 2.439806
v -10.720451 0.727778 -6.279436
v 4.220455 -16.489923 17.271797
v -13.924779 1.367228 17.590858
v -0.668338 -15.693884 7.312876
v -6.843428 0.635915 7.017161
v 6.714463 -16.729881 -13.852122
v -17.509521 -16.863550 -16.241760
v -15.966103 -16.594280 11.424915
v 7.299273 -16.782133 12.063396
v 3.023933 -16.341625 -19.766821
v -15.555578 1.361249 -22.101032
v -1.157424 -15.799003 -9.844276
v -7.943038 0.715446 -10.308614
v -5.333079 -16.704367 -15.509034
v -4.473766 -7.364708 -9.644938
v -6.172915 -7.421241 -21.744204
v -23.993017 -16.368423 -12.453451
v -23.875935 1.378558 7.322247
v -10.679860 -15.514730 -6.275539
v -10.181624 0.570553 2.464292
v -17.238579 -17.186350 -2.304680
v -9.829423 -7.368919 -1.881789
v -25.068752 -7.376429 -2.743069
v -13.564823 -16.068045 16.826111
v 4.634464 1.636740 17.892202
v -6.836623 -15.403727 6.986182
v -0.720057 0.614620 7.730882
v -4.238508 -16.892685 12.231205
v -3.694062 -7.364784 6.513739
v -4.101132 -8.833987 19.822447
v 13.530950 -16.537342 7.880679
v 13.278836 1.371578 -9.984974
v 1.853492 -15.630362 3.570209
v 2.110068 0.629188 -5.789266
v 7.588598 -17.195095 -0.993686
v 1.452718 -7.365982 -1.118107
v 14.373285 -7.376540 -0.796004
v 3.509976 -7.380281 -20.625328
v 14.437874 -7.376838 8.461203
v -25.475462 -7.379363 -13.014783
v -14.353314 -7.518664 18.917370
v -7.620631 -7.365603 -9.351246
v 0.991061 -16.707045 -15.025658
v 1.162993 -7.362364 -5.615873
v -9.233360 -7.365636 2.225905
v 7.756334 -17.124811 5.832138
v -0.856213 -7.363002 6.611707
v -17.639078 -17.144552 -9.447035
v -10.310274 -16.489534 12.043372
v -11.725443 -16.925655 -16.144449
v -1.324136 -7.372752 -9.597529
v -16.100552 -8.076143 -23.408215
v -16.850203 -17.364853 4.834384
v -9.774149 -7.365307 -6.040306
v -24.715487 -7.378084 7.530341
v 1.816020 -16.778358 12.382276
v -6.506671 -7.363608 6.256299
v 5.015542 -7.530299 18.253290
v 7.483992 -16.745735 -7.799849
v 1.235976 -7.372247 3.374139
v 13.998997 -7.380451 -10.105719
v 0.269072 -11.743797 -8.402463
v 1.613778 -3.259036 -9.764177
v -10.333676 -11.660736 -9.629701
v -10.516882 -3.248211 -9.796371
v 1.604139 -11.495045 7.443182
v 1.595160 -3.267918 7.427639
v -9.143220 -11.591269 6.045895
v -9.176705 -3.219281 6.077403
v 11.819329 -11.332717 -17.878065
v 12.525170 -2.854471 -18.868752
v 13.671544 -2.933213 17.395874
v 12.857232 -11.641868 17.111605
v -23.164558 -2.857941 17.161350
v -22.181755 -11.274608 17.137020
v -24.912754 -2.853891 -22.596060
v -24.338779 -12.015133 -22.336699
v -10.770872 -16.612211 -21.352852
v -19.574842 -16.768015 -22.286583
v -1.365050 1.474981 -20.835409
v 7.936965 1.288055 -19.521965
v -6.242015 -15.520411 -10.220184
v -9.478103 -15.635877 -10.204971
v -2.832399 0.664293 -10.309863
v 0.476655 0.682420 -10.189748
v 12.830025 -16.254049 -5.281022
v 12.221126 -15.706183 -13.446871
v 13.633126 1.290655 3.718755
v 13.674508 1.266853 12.701503
v 2.048417 -15.429947 -3.455523
v 1.919081 -15.588689 -7.939273
v 2.119477 0.637179 1.239399
v 1.934453 0.787222 5.791584
v -23.342146 -16.079231 2.145602
v -22.229618 -15.572917 11.944286
v -24.895285 1.711453 -7.740400
v -24.725136 1.293233 -17.650518
v -10.156120 -15.498417 0.269606
v -9.754206 -15.592549 4.468724
v -10.442520 0.827305 -4.110706
v -10.961474 0.631339 -8.336348
v -0.215687 -16.285244 17.007078
v 8.123081 -15.877538 16.881289
v -9.290648 1.444553 17.691475
v -18.456610 1.359402 17.361603
v -2.222004 -15.505049 7.381250
v 0.717491 -15.656384 7.499487
v -5.313662 0.644580 7.180340
v -8.288123 0.660886 6.786042
v 8.995491 -15.793940 -15.450227
v 4.317578 -16.269974 -12.000147
v -14.176007 -16.358727 -13.062658
v -20.262756 -16.924999 -19.141438
v -18.419622 -15.805970 14.083451
v -12.723739 -16.245050 8.867278
v 4.689431 -16.311314 9.929194
v 9.574239 -16.234909 14.229422
v 7.195017 -15.500064 -18.389217
v -1.530005 -16.148006 -20.008726
v -20.166697 1.327680 -22.300562
v -10.836464 1.351147 -21.640808
v 0.406106 -16.059305 -9.543157
v -2.842913 -15.576419 -10.118243
v -9.545982 0.647318 -10.356598
v -6.244521 0.734728 -10.270957
v -5.721349 -16.568962 -18.024214
v -4.924183 -16.206482 -12.884504
v -4.489748 -3.196413 -9.668265
v -4.492238 -11.540218 -9.831287
v -6.147544 -2.856026 -21.560919
v -6.159101 -12.107530 -21.271358
v -23.767570 -16.387655 -17.299545
v -23.787218 -16.085281 -7.510843
v -23.458584 1.377431 12.213019
v -24.440500 1.712696 2.322004
v -10.839852 -15.588835 -8.280084
v -10.453122 -15.553607 -4.108199
v -9.887025 0.682542 4.518716
v -10.275944 0.649653 0.280250
v -20.470234 -16.510536 -2.501982
v -13.668200 -16.333475 -2.111557
v -9.520787 -3.166445 -1.923906
v -9.792961 -11.610761 -1.903938
v -24.935633 -2.830767 -2.737615
v -24.331997 -11.936565 -2.717834
v -17.269194 -15.479480 16.998219
v -9.132132 -16.302567 17.046558
v 9.111605 1.314616 17.377581
v -0.005155 1.387111 17.658054
v -8.246530 -15.494304 6.736190
v -5.307499 -15.427993 7.130929
v 0.728483 0.612603 7.834705
v -2.245093 0.636892 7.535380
v -4.471435 -16.738276 14.594685
v -3.989067 -16.354099 9.719376
v -3.730431 -3.215027 6.870337
v -3.704334 -11.558654 6.626548
v -4.567736 -3.547358 18.463140
v -4.433559 -12.642524 18.040787
v 12.690467 -15.846752 12.215405
v 13.107426 -16.259060 3.497803
v 12.921535 1.357370 -14.451291
v 13.506885 1.447648 -5.422790
v 1.919083 -15.564289 5.783597
v 1.766994 -15.693373 1.226966
v 1.923380 0.763241 -8.008469
v 2.114398 0.632921 -3.452775
v 10.296000 -16.617607 -0.937472
v 4.667773 -16.856539 -1.061007
v 1.532616 -3.212548 -1.115565
v 1.631789 -11.542888 -1.115013
v 14.135161 -2.868082 -0.841376
v 14.584108 -12.074203 -0.882975
v 3.498059 -2.885044 -20.729748
v 8.168244 -7.396547 -19.859423
v 3.271426 -12.016447 -20.118013
v -1.313125 -7.381588 -21.226669
v 14.293010 -2.885254 8.418083
v 14.794016 -7.429466 13.269125
v 14.000490 -12.027008 8.196567
v 14.400107 -7.380071 3.803598
v -25.221279 -2.897790 -12.959501
v -25.479786 -7.375851 -18.087334
v -24.612066 -11.908260 -12.770955
v -25.475014 -7.379255 -7.870378
v -14.175086 -2.841730 18.509453
v -19.006859 -7.389143 18.912861
v -13.963797 -12.023041 18.005322
v -9.730193 -8.326541 19.459488
v -7.708146 -3.211225 -9.802298
v -9.022043 -7.369594 -9.446424
v -7.704044 -11.573372 -9.716805
v -6.049721 -7.365161 -9.521028
v 2.021368 -16.824013 -17.370781
v 4.011625 -16.819239 -14.631208
v -0.086626 -16.394632 -12.497845
v -2.176174 -16.815273 -15.239393
v 1.677985 -3.250189 -5.661384
v 0.707112 -7.365547 -7.692803
v 1.569355 -11.473659 -5.659681
v 1.271151 -7.363544 -3.372761
v -9.663024 -3.269801 2.306487
v -8.838240 -7.365634 4.097879
v -9.468688 -11.519169 2.288121
v -9.579456 -7.367524 0.182973
v 10.686038 -17.774855 6.884329
v 7.734907 -16.907709 9.109394
v 4.772528 -16.491959 4.700877
v 7.675274 -17.255985 2.412865
v -0.863822 -3.241202 7.254134
v 0.394632 -7.363720 6.346201
v -0.863327 -11.488003 7.246655
v -2.280389 -7.363935 6.653367
v -20.925034 -17.389582 -10.979770
v -17.687925 -16.885323 -12.888816
v -14.099126 -16.254644 -7.837462
v -17.452938 -17.499371 -5.869992
v -12.011544 -16.470194 14.481336
v -13.227697 -16.557169 11.812506
v -8.542730 -16.096981 9.502131
v -7.286576 -16.803598 12.134224
v -13.676119 -17.069517 -19.197018
v -8.513506 -16.720743 -15.791724
v -9.773952 -16.359827 -13.107693
v -14.813772 -16.945002 -16.372845
v -1.271347 -3.196458 -9.405269
v -2.894992 -7.369142 -9.662554
v -1.282197 -11.653380 -9.473359
v 0.121187 -7.369478 -9.411756
v -15.824516 -3.008749 -22.920338
v -11.167702 -7.823137 -22.660625
v -15.885307 -12.965177 -22.980312
v -20.796623 -7.810348 -23.379492
v -20.193697 -17.357492 5.929445
v -17.057434 -16.743402 1.264400
v -13.409334 -16.148870 3.628673
v -16.546000 -17.109020 8.273516
v -10.165847 -3.210714 -6.093696
v -9.939224 -7.368153 -3.957772
v -9.795671 -11.599801 -6.121099
v -10.018495 -7.369687 -7.901378
v -24.487074 -2.821991 7.483503
v -24.857601 -7.377616 2.390836
v -24.042683 -12.029856 7.264088
v -24.245945 -7.393493 12.594574
v 3.066713 -16.633194 14.805613
v -1.190154 -17.442385 12.241672
v 0.558171 -17.796896 9.638508
v 4.711004 -16.918522 12.336129
v -6.586548 -3.207751 6.376507
v -5.105143 -7.363682 6.257238
v -6.612435 -11.517951 6.590493
v -7.779516 -7.366373 6.176572
v 4.809439 -2.849674 18.061989
v 0.844790 -8.711565 18.603306
v 4.596351 -12.153431 17.686205
v 9.453169 -7.437594 18.136129
v 10.158260 -16.690315 -8.748934
v 7.539042 -16.772652 -4.393913
v 4.809455 -16.134262 -6.788086
v 7.271299 -16.714800 -11.045763
v 1.529460 -3.251945 3.429892
v 1.403291 -7.370282 1.135853
v 1.460356 -11.616817 3.426657
v 0.784134 -7.362466 5.425965
v 14.395863 -2.782281 -10.149201
v 13.717990 -7.381338 -5.322473
v 13.457276 -12.089858 -9.914300
v 13.498242 -7.389414 -14.663889
v -1.323268 -2.871806 -21.136122
v 8.214519 -2.858824 -20.184036
v 7.825408 -11.671186 -19.861866
v -1.415116 -12.015249 -20.717072
v 14.108327 -2.888322 3.789497
v 14.447349 -2.874450 13.004559
v 13.435819 -11.778758 12.657761
v 13.724996 -12.014063 3.658148
v -25.067350 -2.866890 -7.853550
v -25.274153 -2.873943 -17.965961
v -24.705534 -11.806509 -17.781429
v -24.676790 -11.987345 -7.700391
v -9.563838 -3.264256 18.482317
v -18.815298 -2.848859 17.883173
v -18.134584 -11.618382 17.898979
v -9.402513 -12.360477 17.920530
v -6.103127 -3.206980 -9.788844
v -9.183278 -3.233425 -9.892499
v -9.141710 -11.626530 -9.577428
v -6.103459 -11.549878 -9.821649
v -1.850745 -16.754721 -17.692165
v 5.646020 -16.451496 -16.580359
v 2.201926 -16.343794 -12.341475
v -2.502814 -16.279884 -12.685557
v 1.685705 -3.237235 -3.393418
v 1.465808 -3.237763 -7.794270
v 0.827295 -11.596766 -7.731373
v 1.655571 -11.499705 -3.394042
v -9.807986 -3.235543 0.212836
v -9.437705 -3.243667 4.259981
v -9.294282 -11.559496 4.225267
v -9.728971 -11.556882 0.206289
v 10.439065 -16.899923 2.966072
v 10.255969 -16.540823 10.690044
v 4.832798 -16.378887 7.442818
v 4.623556 -17.197523 1.806367
v -2.293411 -3.228701 7.078327
v 0.444231 -3.253422 7.374244
v 0.431828 -11.486818 7.434530
v -2.273643 -11.525200 6.929562
v -20.733732 -16.602564 -6.716909
v -20.523188 -16.548031 -15.246341
v -14.199293 -16.394554 -10.536098
v -13.888436 -16.262108 -4.981253
v -8.242078 -16.535782 14.507158
v -15.507524 -16.307962 14.384095
v -10.704404 -16.167707 9.280057
v -6.273696 -16.160233 9.634460
v -17.313454 -17.058229 -19.377005
v -9.684208 -16.809755 -18.594042
v -7.350080 -16.321814 -12.981684
v -12.063671 -16.385258 -13.174570
v 0.230694 -3.242902 -9.829330
v -2.878574 -3.203421 -9.630610
v -2.884602 -11.592920 -9.735971
v 0.187320 -11.662284 -9.066371
v -20.541521 -2.920713 -22.902405
v -10.975329 -2.913439 -22.278215
v -11.052443 -12.641814 -22.362829
v -20.377748 -12.673180 -23.988968
v -19.581860 -16.454294 10.119910
v -20.298843 -16.554514 1.712836
v -13.551686 -16.160896 0.764214
v -13.119533 -16.367249 6.343512
v -10.305839 -3.222756 -8.032856
v -9.643103 -3.170343 -4.028984
v -9.839947 -11.601386 -4.015725
v -9.740397 -11.654567 -8.031557
v -23.971622 -2.840193 12.496179
v -24.931801 -2.807719 2.387321
v -24.137859 -11.977451 2.270230
v -23.252853 -11.676756 12.288351
v 6.531017 -16.641169 14.674118
v -0.707899 -16.681944 14.660103
v -1.695313 -16.688923 9.764237
v 2.684781 -16.490086 10.027095
v -7.932496 -3.217460 6.361259
v -5.160595 -3.203702 6.524770
v -5.169248 -11.536238 6.622414
v -7.927084 -11.553968 6.407591
v 9.394433 -2.871400 17.785666
v 0.249348 -3.254858 18.036205
v 0.162636 -12.531315 17.969234
v 8.784352 -11.821816 17.395313
v 9.749005 -16.580294 -12.262566
v 10.222870 -16.600117 -4.845463
v 4.802274 -16.202625 -3.923076
v 4.655906 -16.223227 -9.506562
v 1.367676 -3.240072 5.536175
v 1.636533 -3.241371 1.163391
v 1.407158 -11.592842 1.157525
v 1.596489 -11.555343 5.528587
v 13.570448 -2.825616 -14.671132
v 13.740415 -2.860212 -5.421189
v 13.497226 -12.057677 -5.343181
v 12.911575 -11.657768 -14.019104
vn 0.5871 -0.6109 -0.5312
vn 0.7171 0.1343 -0.6839
vn 0.5387 -0.6157 0.5751
vn 0.6938 0.1692 0.7000
vn -0.5993 -0.6587 -0.4549
vn -0.6872 0.1575 -0.7092
vn -0.4909 -0.6178 0.6142
vn -0.6919 0.1275 0.7106
vn -0.3060 -0.8274 -0.4710
vn -0.2327 -0.8875 0.3977
vn -0.7461 0.1316 0.6528
vn -0.7443 0.1693 -0.6460
vn 0.4584 -0.8237 -0.3337
vn 0.7441 0.1394 -0.6534
vn 0.3394 -0.8902 0.3040
vn 0.7406 0.1849 0.6460
vn 0.1348 -0.7144 -0.6867
vn 0.0996 0.0938 -0.9906
vn -0.0298 -0.6445 0.7640
vn -0.0163 0.1553 0.9877
vn -0.6937 -0.7193 0.0372
vn -0.9952 0.0935 0.0281
vn 0.7374 -0.6750 -0.0254
vn 0.9864 0.1644 0.0009
vn -0.0094 -0.7529 0.6581
vn 0.0254 0.1240 0.9920
vn 0.0202 -0.6260 -0.7796
vn 0.1506 0.1309 -0.9799
vn 0.6684 -0.7432 -0.0304
vn 0.9930 0.1153 -0.0259
vn -0.8121 -0.5732 -0.1094
vn -0.9913 0.1313 -0.0046
vn -0.8716 0.1495 0.4669
vn 0.7557 0.0603 0.6521
vn -0.6262 -0.0209 -0.7794
vn 0.7832 0.0073 -0.6217
vn 0.7188 -0.1086 -0.6867
vn 0.6538 -0.0933 0.7509
vn -0.7465 -0.0774 0.6609
vn -0.7440 -0.0191 -0.6679
vn 0.0947 -0.7622 -0.6404
vn 0.1191 0.1318 -0.9841
vn 0.0383 -0.6562 0.7536
vn 0.0181 0.1650 0.9861
vn 0.7023 -0.7066 -0.0862
vn 0.9899 0.1405 -0.0208
vn -0.7341 -0.6742 0.0808
vn -0.9899 0.1314 -0.0533
vn -0.7221 -0.6840 0.1040
vn -0.9944 0.1060 -0.0003
vn 0.7246 -0.6833 -0.0893
vn 0.9779 0.1530 -0.1428
vn 0.0602 -0.7141 0.6974
vn -0.0446 0.1818 0.9823
vn 0.0247 -0.4757 -0.8792
vn 0.0950 0.1564 -0.9831
vn 0.0721 -0.9949 -0.0705
vn -0.0270 -0.9978 0.0603
vn -0.0278 -0.9941 0.1047
vn 0.0556 -0.9979 0.0318
vn 0.1535 -0.6849 -0.7123
vn 0.0681 0.1608 -0.9846
vn -0.1833 -0.6728 0.7167
vn -0.0325 0.1217 0.9920
vn -0.0100 -0.9973 0.0727
vn 0.0029 -0.0139 0.9999
vn 0.1441 -0.0227 -0.9893
vn -0.7169 -0.6971 -0.0095
vn -0.9864 0.1318 0.0983
vn 0.7079 -0.7059 -0.0223
vn 0.9873 0.1289 -0.0930
vn 0.0312 -0.9980 0.0556
vn 0.9990 -0.0198 -0.0397
vn -0.9969 -0.0640 0.0468
vn -0.0662 -0.7555 0.6518
vn 0.0267 0.0646 0.9976
vn 0.0823 -0.6538 -0.7522
vn 0.1026 0.1159 -0.9880
vn -0.0801 -0.9955 -0.0513
vn 0.1434 0.0165 -0.9895
vn 0.0561 -0.0854 0.9948
vn 0.7600 -0.6454 0.0758
vn 0.9821 0.1841 -0.0402
vn -0.8000 -0.5935 0.0878
vn -0.9923 0.1133 0.0501
vn 0.0201 -0.9960 -0.0868
vn -1.0000 0.0019 -0.0021
vn 0.9986 0.0075 -0.0529
vn 0.1199 -0.0560 -0.9912
vn 0.9983 -0.0544 -0.0211
vn -0.9982 -0.0591 0.0053
vn -0.0514 -0.0412 0.9978
vn 0.0225 0.0132 0.9997
vn 0.0002 -0.9974 0.0726
vn -0.9915 0.0272 0.1269
vn 0.9895 0.0192 -0.1430
vn -0.1318 -0.9900 0.0503
vn 0.0146 0.0035 -0.9999
vn 0.0959 -0.9950 -0.0261
vn -0.0191 -0.9979 -0.0618
vn 0.0264 -0.9954 0.0926
vn -0.0787 0.0138 0.9968
vn 0.0962 0.0324 -0.9948
vn 0.0961 -0.9943 -0.0463
vn 0.9984 0.0320 -0.0465
vn -0.9947 -0.0669 0.0775
vn 0.0872 -0.9936 0.0717
vn 0.0502 -0.0174 -0.9986
vn 0.0516 -0.0328 0.9981
vn -0.0816 -0.9967 0.0013
vn -0.9971 0.0053 -0.0764
vn 0.9962 -0.0784 -0.0372
vn -0.8238 -0.1487 0.5470
vn -0.7644 0.1809 0.6189
vn 0.7639 -0.1355 0.6309
vn 0.7452 0.1485 0.6501
vn -0.6425 -0.1662 -0.7480
vn -0.6830 0.1989 -0.7028
vn 0.7767 -0.1103 -0.6202
vn 0.7510 0.1223 -0.6489
vn 0.7254 -0.2371 -0.6463
vn 0.7191 0.0523 -0.6930
vn 0.6780 0.1345 0.7226
vn 0.6470 -0.2717 0.7124
vn -0.7165 0.1152 0.6880
vn -0.6739 -0.2646 0.6898
vn -0.7036 0.1203 -0.7003
vn -0.7599 -0.2189 -0.6121
vn 0.1512 -0.7354 -0.6605
vn -0.0982 -0.7782 -0.6203
vn 0.1002 0.0919 -0.9907
vn 0.1793 0.1358 -0.9744
vn 0.0418 -0.6487 0.7599
vn 0.0170 -0.6783 0.7346
vn -0.0558 0.1792 0.9822
vn 0.0325 0.1148 0.9929
vn 0.6772 -0.7345 -0.0440
vn 0.6930 -0.6801 -0.2393
vn 0.9917 0.1269 -0.0197
vn 0.9864 0.1535 0.0579
vn -0.7843 -0.6181 -0.0542
vn -0.6545 -0.7338 0.1819
vn -0.9914 0.1305 -0.0086
vn -0.9916 0.1281 0.0161
vn -0.7191 -0.6948 -0.0122
vn -0.6682 -0.7100 0.2224
vn -0.9966 0.0790 0.0253
vn -0.9919 0.1249 -0.0234
vn 0.7334 -0.6785 -0.0415
vn 0.7237 -0.6849 -0.0847
vn 0.9760 0.1707 -0.1352
vn 0.9861 0.1434 -0.0844
vn 0.0479 -0.7403 0.6706
vn 0.1290 -0.6768 0.7248
vn -0.0059 0.1646 0.9863
vn -0.1106 0.1382 0.9842
vn -0.0376 -0.5682 -0.8220
vn 0.2392 -0.4219 -0.8745
vn 0.1326 0.1581 -0.9785
vn 0.1793 0.1291 -0.9753
vn 0.1788 -0.9616 -0.2083
vn -0.0729 -0.9881 0.1354
vn 0.0814 -0.9922 0.0939
vn -0.1295 -0.9913 -0.0235
vn -0.1265 -0.9797 0.1556
vn 0.1328 -0.9906 -0.0335
vn -0.0810 -0.9868 -0.1405
vn 0.1414 -0.9811 0.1317
vn 0.2850 -0.6990 -0.6559
vn 0.0595 -0.6847 -0.7264
vn -0.0090 0.1404 -0.9901
vn 0.1148 0.1356 -0.9841
vn -0.1324 -0.7113 0.6903
vn -0.1265 -0.6499 0.7494
vn 0.0152 0.1220 0.9924
vn -0.0185 0.1328 0.9910
vn 0.0242 -0.9951 -0.0960
vn -0.0154 -0.9747 0.2232
vn -0.0095 0.0867 0.9962
vn -0.0105 -0.0732 0.9973
vn 0.1145 0.0686 -0.9911
vn 0.1617 -0.1366 -0.9773
vn -0.6851 -0.7258 -0.0625
vn -0.7291 -0.6803 0.0752
vn -0.9853 0.1215 0.1203
vn -0.9916 0.1197 0.0494
vn 0.6974 -0.7153 -0.0454
vn 0.7259 -0.6861 -0.0494
vn 0.9821 0.1234 -0.1426
vn 0.9904 0.1368 0.0201
vn -0.1781 -0.9834 0.0357
vn 0.2247 -0.9741 0.0260
vn 0.9980 0.0621 -0.0100
vn 0.9968 -0.0615 -0.0508
vn -0.9975 0.0631 0.0325
vn -0.9822 -0.1804 0.0529
vn -0.1101 -0.7102 0.6954
vn -0.0800 -0.7535 0.6525
vn 0.0984 0.0943 0.9907
vn 0.0164 0.0821 0.9965
vn 0.1887 -0.6792 -0.7092
vn 0.0158 -0.6436 -0.7652
vn 0.0471 0.1116 -0.9926
vn 0.1316 0.1163 -0.9845
vn -0.0309 -0.9968 0.0742
vn -0.0789 -0.9514 -0.2978
vn 0.1574 0.1080 -0.9816
vn 0.1062 -0.0970 -0.9896
vn 0.0472 0.1666 0.9849
vn 0.0152 -0.2586 0.9659
vn 0.7077 -0.6796 0.1931
vn 0.7423 -0.6672 -0.0612
vn 0.9731 0.1638 -0.1619
vn 0.9917 0.1289 0.0022
vn -0.7768 -0.6283 0.0435
vn -0.8212 -0.5704 -0.0177
vn -0.9940 0.1074 0.0197
vn -0.9927 0.1192 -0.0169
vn 0.1540 -0.9873 -0.0395
vn -0.2665 -0.9559 -0.1237
vn -0.9959 0.0903 0.0022
vn -0.9970 -0.0687 -0.0371
vn 0.9961 0.0780 -0.0418
vn 0.9893 -0.1403 -0.0395
vn 0.1206 0.0541 -0.9912
vn 0.2168 -0.0770 -0.9732
vn 0.1361 -0.1384 -0.9810
vn 0.1094 -0.0473 -0.9929
vn 0.9949 0.0959 -0.0297
vn 0.9918 -0.0915 0.0893
vn 0.9889 -0.1469 0.0240
vn 0.9998 -0.0159 0.0077
vn -0.9964 0.0851 0.0055
vn -0.9974 -0.0637 -0.0336
vn -0.9845 -0.1755 0.0001
vn -0.9981 -0.0528 0.0330
vn -0.0484 0.1658 0.9850
vn -0.1677 -0.0318 0.9853
vn -0.0421 -0.2544 0.9662
vn -0.0537 -0.0819 0.9952
vn -0.0201 0.1092 0.9938
vn -0.0347 0.0266 0.9990
vn 0.0477 -0.0936 0.9945
vn 0.0446 -0.0043 0.9990
vn 0.0546 -0.9912 -0.1203
vn 0.0384 -0.9981 0.0477
vn -0.0505 -0.9862 0.1577
vn -0.0242 -0.9963 0.0829
vn -0.9900 0.1233 0.0691
vn -0.9825 0.0836 0.1665
vn -0.9831 -0.1193 0.1385
vn -0.9996 0.0022 0.0270
vn 0.9865 0.1165 -0.1151
vn 0.9951 0.0167 -0.0975
vn 0.9882 -0.0896 -0.1245
vn 0.9966 0.0027 -0.0822
vn 0.1161 -0.9923 0.0432
vn -0.1223 -0.9879 0.0950
vn -0.2613 -0.9606 0.0948
vn -0.0114 -0.9999 -0.0113
vn 0.0501 0.1401 -0.9889
vn 0.1503 -0.0038 -0.9886
vn 0.0712 -0.0966 -0.9928
vn 0.1055 0.0170 -0.9943
vn -0.1175 -0.9930 -0.0113
vn 0.0951 -0.9943 -0.0491
vn 0.2415 -0.9701 -0.0220
vn 0.0520 -0.9985 0.0145
vn -0.0442 -0.9955 0.0841
vn -0.0014 -0.9998 -0.0199
vn 0.0094 -0.9772 -0.2121
vn -0.0517 -0.9947 -0.0890
vn 0.0328 -0.9985 -0.0437
vn 0.0355 -0.9968 0.0710
vn 0.0161 -0.9796 0.2002
vn -0.0104 -0.9938 0.1104
vn 0.0040 0.0831 0.9965
vn -0.0562 -0.0132 0.9983
vn -0.1773 -0.0363 0.9835
vn -0.3310 0.0938 0.9389
vn 0.0674 0.1239 -0.9900
vn 0.1620 -0.0029 -0.9868
vn 0.1321 -0.1569 -0.9787
vn -0.0705 0.0436 -0.9966
vn -0.1641 -0.9861 0.0248
vn 0.0576 -0.9977 -0.0353
vn 0.2063 -0.9767 -0.0591
vn 0.0829 -0.9910 0.1049
vn 0.9879 0.0993 -0.1195
vn 0.9994 -0.0096 -0.0323
vn 0.9952 -0.0966 -0.0163
vn 0.9897 0.0497 -0.1340
vn -0.9926 0.0845 0.0877
vn -0.9969 -0.0711 0.0349
vn -0.9764 -0.1954 0.0918
vn -0.9836 -0.0861 0.1584
vn 0.0187 -0.9923 0.1225
vn -0.0595 -0.9966 0.0564
vn 0.0764 -0.9514 -0.2984
vn 0.0588 -0.9974 -0.0409
vn 0.0699 0.1000 -0.9925
vn 0.0908 -0.0045 -0.9959
vn 0.0820 -0.0936 -0.9922
vn 0.1651 -0.0086 -0.9862
vn 0.0307 0.0664 0.9973
vn 0.1062 -0.0580 0.9927
vn 0.0678 -0.1471 0.9868
vn 0.0561 -0.0456 0.9974
vn 0.1028 -0.9943 -0.0268
vn -0.0517 -0.9970 -0.0582
vn -0.2218 -0.9750 0.0170
vn -0.0483 -0.9985 -0.0242
vn -0.9910 0.1087 -0.0782
vn -0.9993 0.0132 -0.0336
vn -0.9966 -0.0823 -0.0043
vn -0.9997 -0.0110 0.0207
vn 0.9970 0.0691 -0.0342
vn 0.9986 -0.0253 -0.0467
vn 0.9877 -0.1407 -0.0677
vn 0.9764 -0.0999 -0.1917
vn 0.1005 0.0532 -0.9935
vn 0.1912 0.0460 -0.9805
vn 0.2603 -0.1905 -0.9465
vn 0.1101 -0.1290 -0.9855
vn 0.9958 0.0902 -0.0159
vn 0.9922 0.1064 0.0648
vn 0.9692 -0.2119 0.1253
vn 0.9907 -0.1352 0.0144
vn -0.9969 0.0728 0.0285
vn -0.9957 0.0878 -0.0299
vn -0.9798 -0.1948 -0.0454
vn -0.9830 -0.1797 0.0377
vn -0.0160 0.1729 0.9848
vn -0.1377 0.1397 0.9806
vn -0.1083 -0.2121 0.9712
vn -0.0673 -0.2732 0.9596
vn 0.0032 0.0974 0.9952
vn -0.0148 0.1070 0.9941
vn -0.0043 -0.0873 0.9962
vn 0.0502 -0.0870 0.9949
vn -0.0102 -0.9937 -0.1118
vn 0.1689 -0.9716 -0.1660
vn 0.0116 -0.9820 0.1886
vn -0.0581 -0.9761 0.2096
vn -0.9947 0.1027 -0.0008
vn -0.9894 0.1406 0.0374
vn -0.9549 -0.1383 0.2626
vn -0.9955 -0.0934 0.0167
vn 0.9961 0.0861 -0.0180
vn 0.9850 0.1204 -0.1235
vn 0.9912 -0.0991 -0.0880
vn 0.9931 -0.0711 -0.0929
vn 0.1619 -0.9832 -0.0849
vn 0.1215 -0.9788 0.1651
vn -0.2521 -0.9670 0.0371
vn -0.2680 -0.9630 0.0274
vn 0.1079 0.1138 -0.9876
vn 0.1040 0.1417 -0.9844
vn 0.1445 -0.0999 -0.9844
vn 0.1178 -0.0880 -0.9891
vn -0.1953 -0.9786 0.0653
vn -0.0908 -0.9950 -0.0417
vn 0.2000 -0.9798 -0.0019
vn 0.2538 -0.9669 -0.0248
vn -0.0630 -0.9971 0.0432
vn -0.0919 -0.9870 0.1317
vn 0.0614 -0.9881 -0.1409
vn -0.0334 -0.9637 -0.2648
vn -0.0345 -0.9991 -0.0239
vn 0.0695 -0.9955 -0.0637
vn 0.0244 -0.9785 0.2050
vn 0.0022 -0.9790 0.2041
vn -0.0294 0.1105 0.9934
vn -0.0523 0.0832 0.9952
vn -0.0926 -0.0551 0.9942
vn -0.4116 -0.0555 0.9097
vn -0.0287 0.1137 -0.9931
vn 0.1323 0.1023 -0.9859
vn 0.1726 -0.1471 -0.9740
vn -0.0968 -0.1679 -0.9810
vn -0.1480 -0.9728 0.1780
vn -0.1601 -0.9855 -0.0558
vn 0.2016 -0.9795 0.0007
vn 0.2193 -0.9756 -0.0057
vn 0.9891 0.1059 -0.1021
vn 0.9922 0.0704 -0.1027
vn 0.9970 -0.0739 -0.0219
vn 0.9879 -0.0938 -0.1238
vn -0.9875 0.0861 0.1318
vn -0.9968 0.0660 0.0447
vn -0.9840 -0.1756 0.0292
vn -0.9526 -0.2378 0.1898
vn 0.0843 -0.9886 0.1250
vn 0.0309 -0.9922 0.1210
vn -0.1741 -0.9443 -0.2793
vn 0.1958 -0.9283 -0.3161
vn 0.1566 0.0902 -0.9835
vn 0.1317 0.1099 -0.9852
vn 0.0501 -0.1017 -0.9936
vn 0.2072 -0.0842 -0.9747
vn 0.0773 0.0882 0.9931
vn 0.0536 0.1083 0.9927
vn 0.0820 -0.2082 0.9747
vn 0.0775 -0.1581 0.9844
vn 0.1397 -0.9809 -0.1357
vn 0.1100 -0.9939 -0.0114
vn -0.2552 -0.9629 -0.0874
vn -0.1865 -0.9814 0.0450
vn -0.9929 0.1178 0.0169
vn -0.9957 0.0909 -0.0159
vn -0.9975 -0.0578 -0.0399
vn -0.9937 -0.1074 0.0308
vn 0.9820 0.0662 -0.1767
vn 0.9983 0.0585 -0.0024
vn 0.9888 -0.1264 -0.0787
vn 0.9626 -0.1781 -0.2041
vt 0.615337 0.875000
vt 0.615337 0.906250
vt 0.559677 0.906250
vt 0.559677 0.875000
vt 0.615521 0.937500
vt 0.559777 0.937500
vt 0.500000 0.937500
vt 0.500000 0.906250
vt 0.500000 0.875000
vt 0.617960 0.968750
vt 0.561089 0.968750
vt 0.625000 1.000000
vt 0.562500 1.000000
vt 0.500000 1.000000
vt 0.500000 0.968750
vt 0.438912 0.968750
vt 0.440223 0.937500
vt 0.437500 1.000000
vt 0.375000 1.000000
vt 0.382040 0.968750
vt 0.384479 0.937500
vt 0.440323 0.906250
vt 0.440323 0.875000
vt 0.384664 0.906250
vt 0.384664 0.875000
vt 0.615337 0.125000
vt 0.615337 0.156250
vt 0.559677 0.156250
vt 0.559677 0.125000
vt 0.615337 0.187500
vt 0.559677 0.187500
vt 0.500000 0.187500
vt 0.500000 0.156250
vt 0.500000 0.125000
vt 0.615337 0.218750
vt 0.559677 0.218750
vt 0.615337 0.250000
vt 0.559677 0.250000
vt 0.500000 0.250000
vt 0.500000 0.218750
vt 0.440323 0.218750
vt 0.440323 0.187500
vt 0.440323 0.250000
vt 0.384664 0.250000
vt 0.384664 0.218750
vt 0.384664 0.187500
vt 0.440323 0.156250
vt 0.440323 0.125000
vt 0.384664 0.156250
vt 0.384664 0.125000
vt 0.615337 0.625000
vt 0.615337 0.656250
vt 0.559677 0.656250
vt 0.559677 0.625000
vt 0.615337 0.687500
vt 0.559677 0.687500
vt 0.500000 0.687500
vt 0.500000 0.656250
vt 0.500000 0.625000
vt 0.615337 0.718750
vt 0.559677 0.718750
vt 0.615337 0.750000
vt 0.559677 0.750000
vt 0.500000 0.750000
vt 0.500000 0.718750
vt 0.440323 0.718750
vt 0.440323 0.687500
vt 0.440323 0.750000
vt 0.384664 0.750000
vt 0.384664 0.718750
vt 0.384664 0.687500
vt 0.440323 0.656250
vt 0.440323 0.625000
vt 0.384664 0.656250
vt 0.384664 0.625000
vt 0.615337 0.375000
vt 0.615337 0.406250
vt 0.559677 0.406250
vt 0.559677 0.375000
vt 0.615337 0.437500
vt 0.559677 0.437500
vt 0.500000 0.437500
vt 0.500000 0.406250
vt 0.500000 0.375000
vt 0.615337 0.468750
vt 0.559677 0.468750
vt 0.615337 0.500000
vt 0.559677 0.500000
vt 0.500000 0.500000
vt 0.500000 0.468750
vt 0.440323 0.468750
vt 0.440323 0.437500
vt 0.440323 0.500000
vt 0.384664 0.500000
vt 0.384664 0.468750
vt 0.384664 0.437500
vt 0.440323 0.406250
vt 0.440323 0.375000
vt 0.384664 0.406250
vt 0.384664 0.375000
vt 0.620583 0.875000
vt 0.620583 0.843750
vt 0.562500 0.843750
vt 0.562500 0.875000
vt 0.620583 0.812500
vt 0.562500 0.812500
vt 0.500000 0.812500
vt 0.500000 0.843750
vt 0.620583 0.781250
vt 0.562500 0.781250
vt 0.620583 0.750000
vt 0.562500 0.750000
vt 0.500000 0.750000
vt 0.500000 0.781250
vt 0.437500 0.781250
vt 0.437500 0.812500
vt 0.437500 0.750000
vt 0.375000 0.750000
vt 0.375000 0.781250
vt 0.375000 0.812500
vt 0.437500 0.843750
vt 0.437500 0.875000
vt 0.375000 0.843750
vt 0.375000 0.875000
vt 0.377823 0.906250
vt 0.377823 0.875000
vt 0.377723 0.937500
vt 0.375000 0.937500
vt 0.375200 0.906250
vt 0.375199 0.875000
vt 0.376411 0.968750
vt 0.375000 1.000000
vt 0.375000 1.000000
vt 0.375000 0.968750
vt 0.375000 0.968750
vt 0.375000 0.937500
vt 0.375000 1.000000
vt 0.375000 1.000000
vt 0.379417 0.968750
vt 0.375000 0.937500
vt 0.375000 0.906250
vt 0.375000 0.875000
vt 0.375000 0.906250
vt 0.619354 0.136292
vt 0.619354 0.107865
vt 0.559677 0.257057
vt 0.559677 0.255646
vt 0.619354 0.079438
vt 0.559777 0.258070
vt 0.499808 0.438068
vt 0.499801 0.406749
vt 0.499801 0.375399
vt 0.622177 0.039719
vt 0.561089 0.254234
vt 0.625000 0.000000
vt 0.562500 0.250000
vt 0.500000 0.500000
vt 0.499900 0.469049
vt 0.437500 0.687500
vt 0.437500 0.625000
vt 0.437500 0.750000
vt 0.375000 0.906250
vt 0.437500 0.562500
vt 0.437500 0.500000
vt 0.375000 0.718750
vt 0.375000 0.625000
vt 0.620583 0.625000
vt 0.620583 0.593750
vt 0.562500 0.593750
vt 0.562500 0.625000
vt 0.620583 0.562500
vt 0.562500 0.562500
vt 0.500000 0.562500
vt 0.500000 0.593750
vt 0.620583 0.531250
vt 0.562500 0.531250
vt 0.620583 0.500000
vt 0.562500 0.500000
vt 0.500000 0.500000
vt 0.500000 0.531250
vt 0.437500 0.531250
vt 0.437500 0.562500
vt 0.375000 0.500000
vt 0.375000 0.531250
vt 0.375000 0.562500
vt 0.437500 0.593750
vt 0.437500 0.625000
vt 0.375000 0.593750
vt 0.377823 0.156250
vt 0.377823 0.125000
vt 0.377823 0.187500
vt 0.375199 0.187500
vt 0.375200 0.156250
vt 0.375199 0.125000
vt 0.377823 0.218750
vt 0.377823 0.250000
vt 0.375199 0.250000
vt 0.375200 0.218750
vt 0.375000 0.218750
vt 0.375000 0.187500
vt 0.375000 0.250000
vt 0.375000 0.250000
vt 0.375000 0.218750
vt 0.375000 0.187500
vt 0.375000 0.156250
vt 0.375000 0.125000
vt 0.375000 0.156250
vt 0.375000 0.125000
vt 0.620583 0.375000
vt 0.620583 0.343750
vt 0.562500 0.343750
vt 0.562500 0.375000
vt 0.625000 0.312500
vt 0.562500 0.312500
vt 0.500000 0.312500
vt 0.500000 0.343750
vt 0.500000 0.375000
vt 0.625000 0.281250
vt 0.562500 0.281250
vt 0.625000 0.250000
vt 0.500000 0.250000
vt 0.500000 0.281250
vt 0.437500 0.281250
vt 0.437500 0.312500
vt 0.437500 0.250000
vt 0.375000 0.281250
vt 0.375000 0.312500
vt 0.437500 0.343750
vt 0.437500 0.375000
vt 0.375000 0.343750
vt 0.375000 0.375000
vt 0.377823 0.656250
vt 0.377823 0.625000
vt 0.377823 0.687500
vt 0.375199 0.687500
vt 0.375200 0.656250
vt 0.375199 0.625000
vt 0.377823 0.718750
vt 0.377823 0.750000
vt 0.375199 0.750000
vt 0.375200 0.718750
vt 0.375000 0.718750
vt 0.375000 0.687500
vt 0.375000 0.750000
vt 0.375000 0.656250
vt 0.375000 0.625000
vt 0.377823 0.406250
vt 0.377823 0.375000
vt 0.377823 0.437500
vt 0.375199 0.437500
vt 0.375200 0.406250
vt 0.375199 0.375000
vt 0.377823 0.468750
vt 0.377823 0.500000
vt 0.375199 0.500000
vt 0.375200 0.468750
vt 0.375000 0.468750
vt 0.375000 0.437500
vt 0.375000 0.500000
vt 0.375000 0.468750
vt 0.375000 0.406250
vt 0.375000 0.375000
vt 0.384664 0.781250
vt 0.377823 0.781250
vt 0.384664 0.812500
vt 0.377823 0.812500
vt 0.375199 0.812500
vt 0.375200 0.781250
vt 0.384664 0.843750
vt 0.377823 0.843750
vt 0.375200 0.843750
vt 0.375000 0.843750
vt 0.375000 0.812500
vt 0.625000 1.000000
vt 0.625000 0.968750
vt 0.562500 0.968750
vt 0.562500 1.000000
vt 0.625000 0.937500
vt 0.562500 0.937500
vt 0.500000 0.968750
vt 0.620583 0.906250
vt 0.562500 0.906250
vt 0.500000 0.906250
vt 0.437500 0.906250
vt 0.437500 0.937500
vt 0.437500 0.968750
vt 0.437500 1.000000
vt 0.615337 0.781250
vt 0.559677 0.781250
vt 0.615337 0.812500
vt 0.559677 0.812500
vt 0.500000 0.812500
vt 0.500000 0.781250
vt 0.615337 0.843750
vt 0.559677 0.843750
vt 0.500000 0.843750
vt 0.440323 0.843750
vt 0.440323 0.812500
vt 0.440323 0.781250
vt 0.384664 0.531250
vt 0.377823 0.531250
vt 0.384664 0.562500
vt 0.377823 0.562500
vt 0.375199 0.562500
vt 0.375200 0.531250
vt 0.384664 0.593750
vt 0.377823 0.593750
vt 0.375200 0.593750
vt 0.375000 0.593750
vt 0.375000 0.531250
vt 0.620583 0.718750
vt 0.562500 0.718750
vt 0.620583 0.687500
vt 0.562500 0.687500
vt 0.500000 0.687500
vt 0.500000 0.718750
vt 0.620583 0.656250
vt 0.562500 0.656250
vt 0.500000 0.656250
vt 0.437500 0.656250
vt 0.437500 0.687500
vt 0.437500 0.718750
vt 0.615337 0.531250
vt 0.559677 0.531250
vt 0.615337 0.562500
vt 0.559677 0.562500
vt 0.500000 0.562500
vt 0.500000 0.531250
vt 0.615337 0.593750
vt 0.559677 0.593750
vt 0.500000 0.593750
vt 0.440323 0.593750
vt 0.440323 0.562500
vt 0.440323 0.531250
vt 0.384664 0.281250
vt 0.377823 0.281250
vt 0.384664 0.312500
vt 0.377823 0.312500
vt 0.375199 0.312500
vt 0.375200 0.281250
vt 0.384664 0.343750
vt 0.377823 0.343750
vt 0.375200 0.343750
vt 0.375000 0.343750
vt 0.375000 0.312500
vt 0.620583 0.468750
vt 0.562500 0.468750
vt 0.620583 0.437500
vt 0.562500 0.437500
vt 0.500000 0.437500
vt 0.620583 0.406250
vt 0.562500 0.406250
vt 0.437500 0.406250
vt 0.437500 0.437500
vt 0.437500 0.468750
vt 0.615337 0.281250
vt 0.559677 0.281250
vt 0.615337 0.312500
vt 0.559677 0.312500
vt 0.500000 0.312500
vt 0.500000 0.281250
vt 0.615337 0.343750
vt 0.559677 0.343750
vt 0.500000 0.343750
vt 0.440323 0.343750
vt 0.440323 0.312500
vt 0.440323 0.281250
vt 0.375000 0.000000
vt 0.382040 0.031250
vt 0.376411 0.031250
vt 0.375000 0.000000
vt 0.384479 0.062500
vt 0.377723 0.062500
vt 0.375000 0.062500
vt 0.375000 0.031250
vt 0.375000 0.000000
vt 0.384664 0.093750
vt 0.377823 0.093750
vt 0.375200 0.093750
vt 0.375000 0.093750
vt 0.375000 0.062500
vt 0.375000 0.093750
vt 0.375000 0.062500
vt 0.375000 0.031250
vt 0.375000 0.000000
vt 0.375000 0.000000
vt 0.622177 0.221573
vt 0.561089 0.251411
vt 0.619354 0.193146
vt 0.559777 0.252823
vt 0.499808 0.312700
vt 0.499900 0.281350
vt 0.619354 0.164719
vt 0.559677 0.254234
vt 0.499801 0.344049
vt 0.437500 0.437500
vt 0.437500 0.375000
vt 0.375000 0.531250
vt 0.375000 0.437500
vt 0.437500 0.312500
vt 0.625000 0.000000
vt 0.617960 0.031250
vt 0.561089 0.031250
vt 0.562500 0.000000
vt 0.615521 0.062500
vt 0.559777 0.062500
vt 0.500000 0.062500
vt 0.500000 0.031250
vt 0.500000 0.000000
vt 0.615337 0.093750
vt 0.559677 0.093750
vt 0.500000 0.093750
vt 0.440323 0.093750
vt 0.440223 0.062500
vt 0.438911 0.031250
vt 0.437500 0.000000
s 1
f 18/1/18 131/2/131 321/3/321 181/4/181
f 131/2/131 42/5/42 225/6/225 321/3/321
f 321/3/321 225/6/225 89/7/89 228/8/228
f 181/4/181 321/3/321 228/8/228 67/9/67
f 42/5/42 132/10/132 322/11/322 225/6/225
f 132/10/132 2/12/2 122/13/122 322/11/322
f 322/11/322 122/13/122 37/14/37 226/15/226
f 225/6/225 322/11/322 226/15/226 89/7/89
f 89/7/89 226/15/226 323/16/323 227/17/227
f 226/15/226 37/14/37 121/18/121 323/16/323
f 323/16/323 121/18/121 1/19/1 169/20/169
f 227/17/227 323/16/323 169/20/169 61/21/61
f 67/9/67 228/8/228 324/22/324 182/23/182
f 228/8/228 89/7/89 227/17/227 324/22/324
f 324/22/324 227/17/227 61/21/61 170/24/170
f 182/23/182 324/22/324 170/24/170 17/25/17
f 30/26/30 139/27/139 325/28/325 223/29/223
f 139/27/139 46/30/46 229/31/229 325/28/325
f 325/28/325 229/31/229 90/32/90 232/33/232
f 223/29/223 325/28/325 232/33/232 88/34/88
f 46/30/46 140/35/140 326/36/326 229/31/229
f 140/35/140 4/37/4 123/38/123 326/36/326
f 326/36/326 123/38/123 38/39/38 230/40/230
f 229/31/229 326/36/326 230/40/230 90/32/90
f 90/32/90 230/40/230 327/41/327 231/42/231
f 230/40/230 38/39/38 124/43/124 327/41/327
f 327/41/327 124/43/124 3/44/3 211/45/211
f 231/42/231 327/41/327 211/45/211 82/46/82
f 88/34/88 232/33/232 328/47/328 224/48/224
f 232/33/232 90/32/90 231/42/231 328/47/328
f 328/47/328 231/42/231 82/46/82 212/49/212
f 224/48/224 328/47/328 212/49/212 29/50/29
f 22/51/22 147/52/147 329/53/329 195/54/195
f 147/52/147 50/55/50 233/56/233 329/53/329
f 329/53/329 233/56/233 91/57/91 236/58/236
f 195/54/195 329/53/329 236/58/236 74/59/74
f 50/55/50 148/60/148 330/61/330 233/56/233
f 148/60/148 6/62/6 127/63/127 330/61/330
f 330/61/330 127/63/127 40/64/40 234/65/234
f 233/56/233 330/61/330 234/65/234 91/57/91
f 91/57/91 234/65/234 331/66/331 235/67/235
f 234/65/234 40/64/40 128/68/128 331/66/331
f 331/66/331 128/68/128 5/69/5 183/70/183
f 235/67/235 331/66/331 183/70/183 68/71/68
f 74/59/74 236/58/236 332/72/332 196/73/196
f 236/58/236 91/57/91 235/67/235 332/72/332
f 332/72/332 235/67/235 68/71/68 184/74/184
f 196/73/196 332/72/332 184/74/184 21/75/21
f 26/76/26 155/77/155 333/78/333 209/79/209
f 155/77/155 54/80/54 237/81/237 333/78/333
f 333/78/333 237/81/237 92/82/92 240/83/240
f 209/79/209 333/78/333 240/83/240 81/84/81
f 54/80/54 156/85/156 334/86/334 237/81/237
f 156/85/156 8/87/8 125/88/125 334/86/334
f 334/86/334 125/88/125 39/89/39 238/90/238
f 237/81/237 334/86/334 238/90/238 92/82/92
f 92/82/92 238/90/238 335/91/335 239/92/239
f 238/90/238 39/89/39 126/93/126 335/91/335
f 335/91/335 126/93/126 7/94/7 197/95/197
f 239/92/239 335/91/335 197/95/197 75/96/75
f 81/84/81 240/83/240 336/97/336 210/98/210
f 240/83/240 92/82/92 239/92/239 336/97/336
f 336/97/336 239/92/239 75/96/75 198/99/198
f 210/98/210 336/97/336 198/99/198 25/100/25
f 20/101/20 176/102/176 337/103/337 179/104/179
f 176/102/176 64/105/64 241/106/241 337/103/337
f 337/103/337 241/106/241 93/107/93 244/108/244
f 179/104/179 337/103/337 244/108/244 66/9/66
f 64/105/64 175/109/175 338/110/338 241/106/241
f 175/109/175 16/111/16 116/112/116 338/110/338
f 338/110/338 116/112/116 34/113/34 242/114/242
f 241/106/241 338/110/338 242/114/242 93/107/93
f 93/107/93 242/114/242 339/115/339 243/116/243
f 242/114/242 34/113/34 115/117/115 339/115/339
f 339/115/339 115/117/115 15/118/15 134/119/134
f 243/116/243 339/115/339 134/119/134 43/120/43
f 66/9/66 244/108/244 340/121/340 180/122/180
f 244/108/244 93/107/93 243/116/243 340/121/340
f 340/121/340 243/116/243 43/120/43 133/123/133
f 180/122/180 340/121/340 133/123/133 19/124/19
f 17/25/17 170/24/170 341/125/341 177/126/177
f 170/24/170 61/21/61 245/127/245 341/125/341
f 341/125/341 245/127/245 94/128/94 248/129/248
f 177/126/177 341/125/341 248/129/248 65/130/65
f 61/21/61 169/20/169 342/131/342 245/127/245
f 169/20/169 1/19/1 161/132/161 342/131/342
f 342/131/342 161/132/161 57/133/57 246/134/246
f 245/127/245 342/131/342 246/134/246 94/128/94
f 94/128/94 246/134/246 343/135/343 247/136/247
f 246/134/246 57/133/57 162/137/162 343/135/343
f 343/135/343 162/137/162 10/138/10 173/139/173
f 247/136/247 343/135/343 173/139/173 63/140/63
f 65/130/65 248/129/248 344/141/344 178/142/178
f 248/129/248 94/128/94 247/136/247 344/141/344
f 344/141/344 247/136/247 63/140/63 174/143/174
f 178/142/178 344/141/344 174/143/174 19/124/19
f 32/144/32 218/145/218 345/146/345 221/147/221
f 218/145/218 85/148/85 249/149/249 345/146/345
f 345/146/345 249/149/249 95/150/95 252/151/252
f 221/147/221 345/146/345 252/151/252 87/152/87
f 85/148/85 217/153/217 346/154/346 249/149/249
f 217/153/217 11/155/11 114/156/114 346/154/346
f 346/154/346 114/156/114 33/157/33 250/158/250
f 249/149/249 346/154/346 250/158/250 95/150/95
f 95/150/95 250/158/250 347/159/347 251/160/251
f 250/158/250 33/157/33 113/161/113 347/159/347
f 347/159/347 113/161/113 10/138/10 142/162/142
f 251/160/251 347/159/347 142/162/142 47/120/47
f 87/152/87 252/151/252 348/163/348 222/164/222
f 252/151/252 95/150/95 251/160/251 348/163/348
f 348/163/348 251/160/251 47/120/47 141/165/141
f 222/164/222 348/163/348 141/165/141 31/166/31
f 24/167/24 190/168/190 349/169/349 193/170/193
f 190/168/190 71/171/71 253/172/253 349/169/349
f 349/169/349 253/172/253 96/173/96 256/174/256
f 193/170/193 349/169/349 256/174/256 73/59/73
f 71/171/71 189/175/189 350/176/350 253/172/253
f 189/175/189 14/177/14 120/178/120 350/176/350
f 350/176/350 120/178/120 36/179/36 254/180/254
f 253/172/253 350/176/350 254/180/254 96/173/96
f 96/173/96 254/180/254 351/181/351 255/182/255
f 254/180/254 36/179/36 119/164/119 351/181/351
f 351/181/351 119/164/119 13/183/13 150/184/150
f 255/182/255 351/181/351 150/184/150 51/185/51
f 73/59/73 256/174/256 352/186/352 194/187/194
f 256/174/256 96/173/96 255/182/255 352/186/352
f 352/186/352 255/182/255 51/185/51 149/188/149
f 194/187/194 352/186/352 149/188/149 23/166/23
f 29/50/29 212/49/212 353/189/353 219/190/219
f 212/49/212 82/46/82 257/191/257 353/189/353
f 353/189/353 257/191/257 97/192/97 260/193/260
f 219/190/219 353/189/353 260/193/260 86/194/86
f 82/46/82 211/45/211 354/195/354 257/191/257
f 211/45/211 3/44/3 168/196/168 354/195/354
f 354/195/354 168/196/168 60/197/60 258/198/258
f 257/191/257 354/195/354 258/198/258 97/192/97
f 97/192/97 258/198/258 355/199/355 259/200/259
f 258/198/258 60/197/60 167/201/167 355/199/355
f 355/199/355 167/201/167 9/202/9 215/203/215
f 259/200/259 355/199/355 215/203/215 84/204/84
f 86/194/86 260/193/260 356/205/356 220/206/220
f 260/193/260 97/192/97 259/200/259 356/205/356
f 356/205/356 259/200/259 84/204/84 216/207/216
f 220/206/220 356/205/356 216/207/216 31/208/31
f 28/209/28 204/210/204 357/211/357 207/212/207
f 204/210/204 78/213/78 261/214/261 357/211/357
f 357/211/357 261/214/261 98/215/98 264/216/264
f 207/212/207 357/211/357 264/216/264 80/217/80
f 78/213/78 203/218/203 358/219/358 261/214/261
f 203/218/203 12/220/12 118/156/118 358/219/358
f 358/219/358 118/156/118 35/221/35 262/222/262
f 261/214/261 358/219/358 262/222/262 98/215/98
f 98/215/98 262/222/262 359/223/359 263/224/263
f 262/222/262 35/221/35 117/225/117 359/223/359
f 359/223/359 117/225/117 9/202/9 158/226/158
f 263/224/263 359/223/359 158/226/158 55/227/55
f 80/217/80 264/216/264 360/228/360 208/229/208
f 264/216/264 98/215/98 263/224/263 360/228/360
f 360/228/360 263/224/263 55/227/55 157/230/157
f 208/229/208 360/228/360 157/230/157 27/231/27
f 21/75/21 184/74/184 361/232/361 191/233/191
f 184/74/184 68/71/68 265/234/265 361/232/361
f 361/232/361 265/234/265 99/235/99 268/236/268
f 191/233/191 361/232/361 268/236/268 72/237/72
f 68/71/68 183/70/183 362/238/362 265/234/265
f 183/70/183 5/69/5 164/239/164 362/238/362
f 362/238/362 164/239/164 58/240/58 266/241/266
f 265/234/265 362/238/362 266/241/266 99/235/99
f 99/235/99 266/241/266 363/242/363 267/243/267
f 266/241/266 58/240/58 163/244/163 363/242/363
f 363/242/363 163/244/163 15/118/15 187/242/187
f 267/243/267 363/242/363 187/242/187 70/243/70
f 72/237/72 268/236/268 364/245/364 192/246/192
f 268/236/268 99/235/99 267/243/267 364/245/364
f 364/245/364 267/243/267 70/243/70 188/245/188
f 192/246/192 364/245/364 188/245/188 23/166/23
f 25/100/25 198/99/198 365/247/365 205/248/205
f 198/99/198 75/96/75 269/249/269 365/247/365
f 365/247/365 269/249/269 100/250/100 272/251/272
f 205/248/205 365/247/365 272/251/272 79/252/79
f 75/96/75 197/95/197 366/253/366 269/249/269
f 197/95/197 7/94/7 165/254/165 366/253/366
f 366/253/366 165/254/165 59/255/59 270/256/270
f 269/249/269 366/253/366 270/256/270 100/250/100
f 100/250/100 270/256/270 367/257/367 271/258/271
f 270/256/270 59/255/59 166/259/166 367/257/367
f 367/257/367 166/259/166 13/183/13 201/260/201
f 271/258/271 367/257/367 201/260/201 77/258/77
f 79/252/79 272/251/272 368/261/368 206/262/206
f 272/251/272 100/250/100 271/258/271 368/261/368
f 368/261/368 271/258/271 77/258/77 202/261/202
f 206/262/206 368/261/368 202/261/202 27/231/27
f 5/69/5 130/263/130 369/264/369 164/239/164
f 130/263/130 41/265/41 273/266/273 369/264/369
f 369/264/369 273/266/273 101/267/101 276/268/276
f 164/239/164 369/264/369 276/268/276 58/240/58
f 41/265/41 129/269/129 370/270/370 273/266/273
f 129/269/129 17/25/17 177/126/177 370/270/370
f 370/270/370 177/126/177 65/130/65 274/271/274
f 273/266/273 370/270/370 274/271/274 101/267/101
f 101/267/101 274/271/274 371/272/371 275/273/275
f 274/271/274 65/130/65 178/142/178 371/272/371
f 371/272/371 178/142/178 19/124/19 133/123/133
f 275/273/275 371/272/371 133/123/133 43/120/43
f 58/240/58 276/268/276 372/119/372 163/244/163
f 276/268/276 101/267/101 275/273/275 372/119/372
f 372/119/372 275/273/275 43/120/43 134/119/134
f 163/244/163 372/119/372 134/119/134 15/118/15
f 11/274/11 136/275/136 373/276/373 114/277/114
f 136/275/136 44/278/44 277/279/277 373/276/373
f 373/276/373 277/279/277 102/7/102 280/280/280
f 114/277/114 373/276/373 280/280/280 33/14/33
f 44/278/44 135/281/135 374/282/374 277/279/277
f 135/281/135 20/101/20 179/104/179 374/282/374
f 374/282/374 179/104/179 66/9/66 278/283/278
f 277/279/277 374/282/374 278/283/278 102/7/102
f 102/7/102 278/283/278 375/284/375 279/285/279
f 278/283/278 66/9/66 180/122/180 375/284/375
f 375/284/375 180/122/180 19/124/19 174/143/174
f 279/285/279 375/284/375 174/143/174 63/140/63
f 33/14/33 280/280/280 376/286/376 113/287/113
f 280/280/280 102/7/102 279/285/279 376/286/376
f 376/286/376 279/285/279 63/140/63 173/139/173
f 113/287/113 376/286/376 173/139/173 10/138/10
f 6/62/6 171/288/171 377/289/377 127/63/127
f 171/288/171 62/290/62 281/291/281 377/289/377
f 377/289/377 281/291/281 103/292/103 284/293/284
f 127/63/127 377/289/377 284/293/284 40/64/40
f 62/290/62 172/294/172 378/295/378 281/291/281
f 172/294/172 18/1/18 181/4/181 378/295/378
f 378/295/378 181/4/181 67/9/67 282/296/282
f 281/291/281 378/295/378 282/296/282 103/292/103
f 103/292/103 282/296/282 379/297/379 283/298/283
f 282/296/282 67/9/67 182/23/182 379/297/379
f 379/297/379 182/23/182 17/25/17 129/269/129
f 283/298/283 379/297/379 129/269/129 41/265/41
f 40/64/40 284/293/284 380/299/380 128/68/128
f 284/293/284 103/292/103 283/298/283 380/299/380
f 380/299/380 283/298/283 41/265/41 130/263/130
f 128/68/128 380/299/380 130/263/130 5/69/5
f 7/94/7 146/300/146 381/301/381 165/254/165
f 146/300/146 49/302/49 285/303/285 381/301/381
f 381/301/381 285/303/285 104/304/104 288/305/288
f 165/254/165 381/301/381 288/305/288 59/255/59
f 49/302/49 145/306/145 382/307/382 285/303/285
f 145/306/145 21/75/21 191/233/191 382/307/382
f 382/307/382 191/233/191 72/237/72 286/308/286
f 285/303/285 382/307/382 286/308/286 104/304/104
f 104/304/104 286/308/286 383/309/383 287/185/287
f 286/308/286 72/237/72 192/246/192 383/309/383
f 383/309/383 192/246/192 23/166/23 149/188/149
f 287/185/287 383/309/383 149/188/149 51/185/51
f 59/255/59 288/305/288 384/310/384 166/259/166
f 288/305/288 104/304/104 287/185/287 384/310/384
f 384/310/384 287/185/287 51/185/51 150/184/150
f 166/259/166 384/310/384 150/184/150 13/183/13
f 16/111/16 152/311/152 385/312/385 116/112/116
f 152/311/152 52/313/52 289/314/289 385/312/385
f 385/312/385 289/314/289 105/315/105 292/316/292
f 116/112/116 385/312/385 292/316/292 34/113/34
f 52/313/52 151/317/151 386/318/386 289/314/289
f 151/317/151 24/167/24 193/170/193 386/318/386
f 386/318/386 193/170/193 73/59/73 290/319/290
f 289/314/289 386/318/386 290/319/290 105/315/105
f 105/315/105 290/319/290 387/320/387 291/321/291
f 290/319/290 73/59/73 194/187/194 387/320/387
f 387/320/387 194/187/194 23/166/23 188/245/188
f 291/321/291 387/320/387 188/245/188 70/243/70
f 34/113/34 292/316/292 388/322/388 115/117/115
f 292/316/292 105/315/105 291/321/291 388/322/388
f 388/322/388 291/321/291 70/243/70 187/242/187
f 115/117/115 388/322/388 187/242/187 15/118/15
f 8/87/8 185/323/185 389/324/389 125/88/125
f 185/323/185 69/325/69 293/326/293 389/324/389
f 389/324/389 293/326/293 106/327/106 296/328/296
f 125/88/125 389/324/389 296/328/296 39/89/39
f 69/325/69 186/329/186 390/330/390 293/326/293
f 186/329/186 22/51/22 195/54/195 390/330/390
f 390/330/390 195/54/195 74/59/74 294/331/294
f 293/326/293 390/330/390 294/331/294 106/327/106
f 106/327/106 294/331/294 391/332/391 295/333/295
f 294/331/294 74/59/74 196/73/196 391/332/391
f 391/332/391 196/73/196 21/75/21 145/306/145
f 295/333/295 391/332/391 145/306/145 49/302/49
f 39/89/39 296/328/296 392/334/392 126/93/126
f 296/328/296 106/327/106 295/333/295 392/334/392
f 392/334/392 295/333/295 49/302/49 146/300/146
f 126/93/126 392/334/392 146/300/146 7/94/7
f 3/44/3 154/335/154 393/336/393 168/196/168
f 154/335/154 53/337/53 297/338/297 393/336/393
f 393/336/393 297/338/297 107/339/107 300/340/300
f 168/196/168 393/336/393 300/340/300 60/197/60
f 53/337/53 153/341/153 394/342/394 297/338/297
f 153/341/153 25/100/25 205/248/205 394/342/394
f 394/342/394 205/248/205 79/252/79 298/343/298
f 297/338/297 394/342/394 298/343/298 107/339/107
f 107/339/107 298/343/298 395/344/395 299/345/299
f 298/343/298 79/252/79 206/262/206 395/344/395
f 395/344/395 206/262/206 27/231/27 157/230/157
f 299/345/299 395/344/395 157/230/157 55/227/55
f 60/197/60 300/340/300 396/226/396 167/201/167
f 300/340/300 107/339/107 299/345/299 396/226/396
f 396/226/396 299/345/299 55/227/55 158/226/158
f 167/201/167 396/226/396 158/226/158 9/202/9
f 14/177/14 160/346/160 397/347/397 120/178/120
f 160/346/160 56/348/56 301/349/301 397/347/397
f 397/347/397 301/349/301 108/350/108 304/90/304
f 120/178/120 397/347/397 304/90/304 36/179/36
f 56/348/56 159/351/159 398/352/398 301/349/301
f 159/351/159 28/209/28 207/212/207 398/352/398
f 398/352/398 207/212/207 80/217/80 302/83/302
f 301/349/301 398/352/398 302/83/302 108/350/108
f 108/350/108 302/83/302 399/353/399 303/354/303
f 302/83/302 80/217/80 208/229/208 399/353/399
f 399/353/399 208/229/208 27/231/27 202/261/202
f 303/354/303 399/353/399 202/261/202 77/258/77
f 36/179/36 304/90/304 400/355/400 119/164/119
f 304/90/304 108/350/108 303/354/303 400/355/400
f 400/355/400 303/354/303 77/258/77 201/260/201
f 119/164/119 400/355/400 201/260/201 13/183/13
f 4/37/4 199/356/199 401/357/401 123/38/123
f 199/356/199 76/358/76 305/359/305 401/357/401
f 401/357/401 305/359/305 109/360/109 308/361/308
f 123/38/123 401/357/401 308/361/308 38/39/38
f 76/358/76 200/362/200 402/363/402 305/359/305
f 200/362/200 26/76/26 209/79/209 402/363/402
f 402/363/402 209/79/209 81/84/81 306/364/306
f 305/359/305 402/363/402 306/364/306 109/360/109
f 109/360/109 306/364/306 403/365/403 307/366/307
f 306/364/306 81/84/81 210/98/210 403/365/403
f 403/365/403 210/98/210 25/100/25 153/341/153
f 307/366/307 403/365/403 153/341/153 53/337/53
f 38/39/38 308/361/308 404/367/404 124/43/124
f 308/361/308 109/360/109 307/366/307 404/367/404
f 404/367/404 307/366/307 53/337/53 154/335/154
f 124/43/124 404/367/404 154/335/154 3/44/3
f 1/368/1 138/369/138 405/370/405 161/371/161
f 138/369/138 45/372/45 309/373/309 405/370/405
f 405/370/405 309/373/309 110/374/110 312/375/312
f 161/371/161 405/370/405 312/375/312 57/376/57
f 45/372/45 137/377/137 406/378/406 309/373/309
f 137/377/137 29/50/29 219/190/219 406/378/406
f 406/378/406 219/190/219 86/194/86 310/379/310
f 309/373/309 406/378/406 310/379/310 110/374/110
f 110/374/110 310/379/310 407/380/407 311/381/311
f 310/379/310 86/194/86 220/206/220 407/380/407
f 407/380/407 220/206/220 31/208/31 141/382/141
f 311/381/311 407/380/407 141/382/141 47/383/47
f 57/376/57 312/375/312 408/384/408 162/385/162
f 312/375/312 110/374/110 311/381/311 408/384/408
f 408/384/408 311/381/311 47/383/47 142/375/142
f 162/385/162 408/384/408 142/375/142 10/386/10
f 12/220/12 144/387/144 409/388/409 118/156/118
f 144/387/144 48/389/48 313/390/313 409/388/409
f 409/388/409 313/390/313 111/391/111 316/392/316
f 118/156/118 409/388/409 316/392/316 35/221/35
f 48/389/48 143/393/143 410/394/410 313/390/313
f 143/393/143 32/144/32 221/147/221 410/394/410
f 410/394/410 221/147/221 87/152/87 314/395/314
f 313/390/313 410/394/410 314/395/314 111/391/111
f 111/391/111 314/395/314 411/396/411 315/397/315
f 314/395/314 87/152/87 222/164/222 411/396/411
f 411/396/411 222/164/222 31/166/31 216/398/216
f 315/397/315 411/396/411 216/398/216 84/399/84
f 35/221/35 316/392/316 412/400/412 117/225/117
f 316/392/316 111/391/111 315/397/315 412/400/412
f 412/400/412 315/397/315 84/399/84 215/344/215
f 117/225/117 412/400/412 215/344/215 9/202/9
f 2/401/2 213/402/213 413/403/413 122/404/122
f 213/402/213 83/405/83 317/406/317 413/403/413
f 413/403/413 317/406/317 112/407/112 320/408/320
f 122/404/122 413/403/413 320/408/320 37/409/37
f 83/405/83 214/410/214 414/411/414 317/406/317
f 214/410/214 30/26/30 223/29/223 414/411/414
f 414/411/414 223/29/223 88/34/88 318/412/318
f 317/406/317 414/411/414 318/412/318 112/407/112
f 112/407/112 318/412/318 415/413/415 319/414/319
f 318/412/318 88/34/88 224/48/224 415/413/415
f 415/413/415 224/48/224 29/50/29 137/377/137
f 319/414/319 415/413/415 137/377/137 45/372/45
f 37/409/37 320/408/320 416/415/416 121/416/121
f 320/408/320 112/407/112 319/414/319 416/415/416
f 416/415/416 319/414/319 45/372/45 138/369/138
f 121/416/121 416/415/416 138/369/138 1/368/1
