# Blender 5.2.2 LTS
# www.blender.org
o platform_big_1
v 13.158582 12.129842 -10.881051
v 12.933596 -12.823522 -12.617345
v 13.110857 14.886778 15.265457
v 9.382704 -11.305171 12.575036
v -13.105048 12.869256 -14.036226
v -12.443439 -13.474492 -13.279117
v -12.836896 12.950997 13.156848
v -12.553826 -13.604839 12.870082
v 13.324581 15.177269 12.605281
v 13.310885 14.693043 8.836194
v 13.616880 13.983793 5.177363
v 14.054630 13.220767 1.544670
v 14.244795 12.646914 -2.212311
v 13.863226 12.461788 -5.843480
v 13.500816 12.426504 -8.902860
v 13.027266 9.924706 -10.838072
v 13.634585 6.305242 -11.838623
v 14.881632 2.584463 -13.680171
v 15.086340 -0.833336 -14.400501
v 14.851229 -4.376667 -14.479948
v 13.996501 -8.161151 -13.680255
v 13.359020 -11.605922 -13.042769
v 12.240521 -12.130447 -11.185140
v 12.511461 -12.401392 -7.936598
v 13.115052 -13.004988 -4.116411
v 13.524022 -13.826777 -0.240048
v 11.616765 -13.675966 3.600906
v 9.654567 -13.058857 7.477321
v 9.368728 -12.011433 11.134371
v 10.519084 -9.919545 13.337983
v 11.583808 -6.684750 13.536822
v 12.101952 -3.335802 13.750668
v 12.954721 0.130366 14.342726
v 13.787261 4.148921 15.109909
v 13.968280 8.423449 15.724296
v 13.623798 12.396218 15.716707
v -10.750224 13.325858 13.532040
v -7.101859 13.297376 13.633420
v -3.088063 13.033278 14.188622
v 0.643540 13.193847 14.742885
v 4.044619 13.694067 14.955732
v 7.380584 14.547313 15.318263
v 10.751949 15.079599 15.558055
v 8.105067 -10.815207 11.953522
v 6.115413 -11.580577 12.219903
v 3.473351 -13.193451 13.176739
v 0.391778 -13.732636 13.199646
v -3.272801 -13.029116 12.302395
v -7.088750 -12.157900 11.423141
v -10.507216 -13.000359 12.265605
v -13.130696 -11.784894 13.446957
v -13.155048 -8.105268 13.199021
v -12.977414 -4.138083 12.379091
v -13.058712 -0.273001 12.964893
v -13.439918 3.544543 13.781518
v -13.403213 7.320706 13.875915
v -12.922492 10.837344 13.322945
v -13.798020 13.530944 -11.873702
v -13.799520 13.641568 -8.092033
v -13.802327 13.749801 -4.167046
v -13.878460 13.855861 -0.302359
v -13.741419 13.751618 3.550995
v -13.520721 13.659641 7.427045
v -13.405832 13.549870 11.112475
v -13.242062 -14.293070 11.071505
v -13.556345 -14.484545 7.413019
v -13.350928 -13.777439 3.480041
v -12.951887 -12.950336 -0.446850
v -12.604815 -12.161638 -4.375464
v -12.651206 -13.108601 -8.049143
v -12.697784 -13.748514 -11.495652
v -13.085759 -11.496511 -13.830735
v -13.833056 -7.412916 -14.200063
v -14.545737 -3.773063 -14.297699
v -14.867274 -0.064568 -14.875963
v -14.611456 4.063074 -15.014436
v -13.590356 7.580635 -14.415674
v -13.108153 10.672944 -14.019231
v 11.187322 12.439281 -11.714677
v 8.040169 11.826774 -13.590272
v 4.722263 11.391331 -16.092384
v 1.002351 11.529080 -17.435595
v -3.003874 11.922429 -16.828693
v -7.052912 12.566999 -15.715891
v -10.858429 13.065336 -14.744110
v -10.656060 -13.774642 -13.571976
v -7.101905 -13.221085 -13.014898
v -3.271589 -12.458757 -12.252576
v 0.580544 -13.217677 -13.011496
v 4.432676 -13.357328 -13.151147
v 8.258872 -12.888956 -12.682775
v 11.671725 -13.018189 -12.812016
v 13.777509 10.012954 -9.114122
v 14.247219 10.036220 -6.013963
v 14.504426 10.212968 -2.322333
v 14.045727 10.721438 1.559792
v 13.391232 11.363464 5.260983
v 13.401105 11.993724 8.914499
v 14.049959 12.403803 12.670007
v 14.800754 6.341569 -9.984644
v 15.129562 6.445378 -6.667181
v 15.032601 6.703135 -2.804401
v 14.284502 7.140694 1.415293
v 13.627826 7.644616 5.363710
v 13.984278 8.127564 9.088045
v 14.626942 8.397740 12.795995
v 15.461373 2.624007 -10.925607
v 15.321181 2.776278 -7.375437
v 15.217890 3.056807 -3.509371
v 15.059154 3.330833 0.952785
v 14.835939 3.559175 5.287642
v 14.931511 3.864849 9.238600
v 14.807885 4.097616 12.878808
v 15.621079 -0.816942 -11.463049
v 15.402573 -0.719356 -7.797641
v 15.152441 -0.569696 -4.015936
v 14.753057 -0.476479 0.246169
v 14.485379 -0.448630 4.902946
v 14.455452 -0.131564 9.094926
v 14.032339 0.112680 12.711756
v 15.543883 -4.370318 -11.668140
v 15.586005 -4.340181 -7.953519
v 15.169521 -4.322588 -4.116407
v 13.935378 -4.352851 -0.141912
v 13.320992 -4.128331 4.146474
v 13.392313 -3.680083 8.351661
v 12.937660 -3.374358 12.043612
v 14.550212 -8.163589 -11.559418
v 15.109518 -8.167383 -7.961197
v 14.862295 -8.165239 -4.116411
v 14.007548 -8.116689 -0.164875
v 13.217719 -7.596615 3.748412
v 12.810390 -7.010804 7.640947
v 12.306977 -6.709069 11.390530
v 12.946210 -11.565530 -11.359348
v 13.702532 -11.643826 -7.950550
v 14.112267 -11.702006 -4.116411
v 14.079999 -11.618615 -0.213794
v 12.532644 -10.986790 3.652356
v 11.162289 -10.317196 7.529125
v 10.942365 -9.992848 11.290399
v 10.868246 12.301164 16.188692
v 7.461397 11.896315 15.446373
v 4.116518 11.299498 14.837105
v 0.689009 10.903753 15.029273
v -3.078758 10.744896 14.499075
v -7.101542 10.818740 13.775328
v -10.701241 10.820759 13.557693
v 11.144277 8.342687 16.034142
v 7.743581 8.066214 15.538140
v 4.322523 7.638667 15.312007
v 0.783145 7.282299 15.523419
v -3.093778 7.183352 15.085212
v -7.117531 7.229758 14.701862
v -10.784906 7.244540 14.548096
v 11.467334 4.064463 15.219102
v 8.135107 3.860551 15.643903
v 4.561718 3.579565 15.388141
v 0.810061 3.383364 15.008343
v -3.181770 3.374195 14.945775
v -7.122575 3.381653 15.009564
v -10.827290 3.411674 14.736619
v 11.282623 0.044010 14.660318
v 8.115705 -0.221234 15.504783
v 4.566184 -0.494850 15.079310
v 0.696747 -0.503306 14.289695
v -3.270423 -0.470465 14.557083
v -7.121083 -0.470470 14.831268
v -10.895460 -0.415356 14.038883
v 10.503888 -3.415198 14.587057
v 7.360315 -3.765959 15.143641
v 4.069520 -4.214934 14.879580
v 0.550187 -4.410678 14.240348
v -3.271794 -4.323842 14.316648
v -7.138927 -4.316477 14.090003
v -11.140566 -4.191094 12.944140
v 9.618682 -6.787901 14.380233
v 6.561218 -7.208441 14.602236
v 3.597032 -7.802042 14.914925
v 0.431643 -8.201982 14.621050
v -3.273621 -8.174334 13.695539
v -7.254777 -8.112684 12.373810
v -10.913967 -8.075294 12.797128
v 8.799465 -10.051901 13.439568
v 6.269879 -10.555403 13.580692
v 3.437103 -11.340137 14.525301
v 0.374847 -11.823058 14.495821
v -3.273351 -11.710435 13.275503
v -7.100096 -11.481010 11.729706
v -10.621490 -11.670933 12.893417
v -13.867151 11.013697 11.121939
v -14.017590 11.157511 7.295752
v -14.343657 11.215548 3.348076
v -14.984680 11.232656 -0.529597
v -14.621712 11.164769 -4.404096
v -14.417254 10.993792 -8.214526
v -14.104490 10.790561 -11.781547
v -14.638791 7.606386 11.086422
v -15.098339 8.063510 7.042265
v -15.327698 8.217537 2.994216
v -16.213388 8.161818 -0.931299
v -15.903851 8.102057 -4.817676
v -15.273129 7.880608 -8.534711
v -14.517282 7.588700 -11.961926
v -14.724061 3.921138 10.961487
v -15.943046 4.534895 6.883547
v -16.862942 4.798335 2.752597
v -17.401848 4.697337 -1.187710
v -17.605448 4.651318 -5.092387
v -16.901457 4.475134 -8.706253
v -15.691358 4.178513 -12.126611
v -14.047415 0.012157 10.724352
v -15.649692 0.581131 6.798133
v -16.751326 0.874899 2.682650
v -17.035803 0.787853 -1.242311
v -17.358328 0.776824 -5.157482
v -17.046507 0.487130 -8.549772
v -15.828072 0.007109 -11.966229
v -14.114802 -3.952809 10.590304
v -15.966633 -3.437196 6.681426
v -16.579882 -3.132720 2.573713
v -16.341162 -3.173216 -1.311013
v -16.924019 -3.105380 -5.173205
v -16.849154 -3.576535 -8.677411
v -15.671107 -3.844119 -11.724988
v -14.932405 -7.970665 10.923840
v -16.689951 -7.602144 6.860403
v -16.519598 -7.324794 2.764600
v -15.360273 -7.319736 -1.091094
v -16.068386 -7.267293 -4.945151
v -16.530022 -7.506870 -8.601395
v -15.300167 -7.487003 -11.838227
v -14.391737 -11.874061 11.143274
v -15.156637 -11.698920 7.246824
v -14.564999 -11.343997 3.232180
v -13.196975 -11.090981 -0.651954
v -13.117821 -11.075714 -4.497933
v -14.267879 -11.486450 -8.191073
v -13.976438 -11.725879 -11.628778
v -10.773746 10.583065 -14.578331
v -7.037259 10.259276 -15.059163
v -3.031723 9.671768 -15.656819
v 0.950645 9.223151 -16.197819
v 4.682192 9.088316 -15.059052
v 8.065211 9.444694 -12.931087
v 11.213940 9.891221 -11.436437
v -11.206993 8.072292 -15.030551
v -7.032625 8.147394 -14.892880
v -2.729979 7.262357 -14.456416
v 0.923869 6.373529 -14.699359
v 4.621461 6.120209 -13.719212
v 8.218568 6.207139 -12.245449
v 11.523151 6.331640 -11.769306
v -12.044147 4.567321 -16.163980
v -7.097887 4.923909 -15.571223
v -1.999127 4.307261 -14.504436
v 1.509736 3.473197 -14.671404
v 4.562706 2.921089 -13.928157
v 8.375467 2.760680 -13.192919
v 12.028382 2.612171 -13.711193
v -12.317027 0.099334 -16.318583
v -7.075278 -0.336883 -15.659145
v -1.679567 -0.472903 -13.359566
v 1.832373 -0.473947 -13.957180
v 4.492475 -0.573467 -14.038594
v 8.364858 -0.723631 -14.196296
v 12.103555 -0.819244 -14.726542
v -11.858580 -3.961586 -15.335185
v -7.005056 -5.297683 -14.898273
v -2.090653 -5.505706 -13.104102
v 1.406277 -4.735805 -13.876907
v 4.432667 -4.322588 -14.187597
v 8.281247 -4.341775 -14.420513
v 11.990288 -4.371246 -14.879869
v -11.135252 -7.962115 -15.014194
v -7.061722 -9.096561 -14.732330
v -2.858769 -8.985183 -13.786697
v 0.690007 -8.274563 -14.528526
v 4.432657 -8.163985 -14.396524
v 8.269146 -8.159077 -13.797274
v 11.865488 -8.163015 -14.163152
v -10.743222 -11.529155 -14.547569
v -7.105140 -11.773739 -14.084572
v -3.270899 -11.606365 -13.117975
v 0.580544 -11.734456 -14.021315
v 4.432667 -11.717297 -13.902183
v 8.264130 -11.596305 -13.055496
v 11.783649 -11.673575 -13.439708
v -10.671667 -14.013842 10.987913
v -10.839400 -15.132276 7.429209
v -10.952714 -14.908935 3.552267
v -11.043027 -14.255918 -0.338174
v -11.293661 -13.002625 -4.279534
v -10.904383 -13.550747 -8.016856
v -10.698555 -14.215287 -11.543378
v -7.099360 -12.805253 10.795982
v -7.116785 -15.048265 7.433031
v -7.119414 -15.399780 3.587835
v -7.141510 -14.973642 -0.270115
v -7.332961 -13.460172 -4.165964
v -7.243235 -13.087423 -7.976264
v -7.103257 -13.286971 -11.393760
v -3.272950 -12.579730 10.778217
v -3.271589 -14.151503 7.424785
v -3.271598 -15.242727 3.587840
v -3.271589 -15.050161 -0.264288
v -3.271598 -14.113544 -4.116411
v -3.271589 -12.879936 -7.942299
v -3.271589 -12.096758 -11.221397
v 0.404728 -13.107635 11.037256
v 0.511916 -13.581425 7.581223
v 0.575789 -14.425231 3.647289
v 0.580553 -14.421911 -0.264288
v 0.580544 -14.892834 -4.116411
v 0.580544 -14.082404 -7.951128
v 0.580553 -13.187857 -11.378540
v 3.533420 -13.239847 11.158476
v 3.787812 -13.605935 7.656857
v 4.229534 -13.526227 3.791844
v 4.428536 -13.047958 -0.212671
v 4.432667 -14.512104 -4.116411
v 4.432676 -14.790922 -7.958922
v 4.432676 -14.300654 -11.538814
v 5.972377 -12.364887 11.095629
v 5.892701 -14.096398 7.592364
v 6.807787 -14.404174 3.732666
v 8.131750 -13.538015 -0.174777
v 8.261576 -13.231969 -4.116407
v 8.270218 -14.131551 -7.953967
v 8.269509 -13.927327 -11.485746
v 7.850583 -11.491140 11.043610
v 7.572408 -13.754658 7.519746
v 9.174377 -14.321189 3.647125
v 11.272059 -13.863179 -0.210866
v 11.616392 -12.643519 -4.116411
v 11.662663 -12.957444 -7.945413
v 11.700925 -13.025913 -11.384669
vn 0.9531 0.2761 -0.1241
vn 0.9793 0.1997 -0.0323
vn 0.9862 0.0947 0.1358
vn 0.9852 0.0632 0.1594
vn 0.9924 0.1049 -0.0651
vn 0.9739 0.1366 -0.1810
vn 0.9921 0.1216 -0.0318
vn 0.9986 0.0471 0.0226
vn 0.9892 0.1126 0.0941
vn 0.9679 0.2375 0.0818
vn 0.9651 0.2484 -0.0824
vn 0.9886 0.1281 -0.0786
vn 0.9984 0.0280 0.0487
vn 0.9989 -0.0038 0.0464
vn 0.9960 -0.0606 0.0663
vn 0.9942 -0.0915 0.0569
vn 0.9947 -0.1027 -0.0002
vn 0.9839 -0.1576 0.0845
vn 0.9996 0.0136 0.0237
vn 0.9960 0.0241 0.0866
vn 0.9743 -0.1147 0.1941
vn 0.9583 -0.2668 0.1020
vn 0.9541 -0.2987 0.0225
vn 0.9391 -0.3154 0.1365
vn 0.9786 -0.1898 -0.0798
vn 0.9911 -0.1014 0.0859
vn 0.9665 -0.0306 0.2548
vn 0.9853 -0.0141 0.1700
vn 0.9925 -0.1090 0.0551
vn 0.9685 -0.2051 0.1414
vn 0.9002 -0.3994 -0.1737
vn 0.9556 -0.2939 -0.0224
vn 0.9889 -0.0960 0.1133
vn 0.9500 -0.0907 0.2988
vn 0.9092 -0.3249 0.2605
vn 0.9013 -0.4159 0.1215
vn 0.9572 0.0406 -0.2867
vn 0.9804 0.1444 -0.1338
vn 0.9864 0.1360 -0.0928
vn 0.9958 0.0491 0.0776
vn 0.9870 -0.0422 0.1551
vn 0.9987 -0.0241 0.0449
vn 0.9841 0.1440 -0.1038
vn 0.9636 0.2385 0.1205
vn 0.9774 0.1158 0.1771
vn 0.9506 -0.0192 0.3097
vn 0.8542 -0.2263 0.4681
vn 0.8208 -0.3161 0.4758
vn 0.9064 -0.2038 0.3700
vn 0.9022 -0.3479 0.2547
vn 0.7304 -0.6434 0.2295
vn 0.8260 -0.5415 0.1565
vn 0.8267 -0.3769 0.4179
vn 0.8688 -0.2677 0.4166
vn 0.9116 -0.4027 -0.0824
vn 0.6771 -0.7201 -0.1519
vn 0.5585 -0.8194 -0.1292
vn 0.8315 -0.3969 0.3886
vn 0.9487 -0.3145 -0.0320
vn 0.9370 -0.2569 -0.2366
vn 0.9774 -0.0347 -0.2085
vn 0.9775 0.0872 -0.1922
vn 0.8740 0.3502 -0.3369
vn 0.8353 0.3043 -0.4580
vn -0.1769 -0.0206 0.9840
vn -0.1321 0.0662 0.9890
vn 0.0429 0.1335 0.9901
vn -0.1292 0.1461 0.9808
vn -0.1304 0.2057 0.9699
vn -0.0487 0.2588 0.9647
vn -0.0046 -0.0837 0.9965
vn -0.0704 0.0166 0.9974
vn -0.0188 -0.0557 0.9983
vn -0.0621 -0.0840 0.9945
vn -0.0399 0.0224 0.9990
vn -0.0573 0.0647 0.9963
vn 0.1971 -0.0891 0.9763
vn -0.0909 -0.0544 0.9944
vn -0.1472 -0.1246 0.9812
vn 0.0250 -0.1424 0.9895
vn 0.0431 -0.0739 0.9963
vn -0.1414 -0.1110 0.9837
vn 0.2256 -0.1095 0.9680
vn -0.0938 -0.0606 0.9937
vn -0.1894 -0.0161 0.9818
vn 0.0435 -0.0381 0.9983
vn 0.0060 -0.1265 0.9919
vn -0.2408 -0.2194 0.9455
vn 0.1407 -0.1423 0.9798
vn 0.0203 -0.0754 0.9969
vn -0.1438 0.0672 0.9873
vn -0.1125 -0.0295 0.9932
vn -0.1880 -0.2845 0.9401
vn -0.0962 -0.2360 0.9670
vn 0.1112 -0.2999 0.9475
vn 0.2547 -0.2102 0.9439
vn -0.0418 -0.0704 0.9966
vn -0.2807 -0.0707 0.9572
vn -0.3458 -0.1505 0.9262
vn 0.2167 -0.0627 0.9742
vn 0.1484 0.2159 0.9651
vn -0.1599 0.1309 0.9784
vn -0.1434 -0.0025 0.9897
vn -0.0077 0.0356 0.9993
vn -0.1472 0.1261 0.9810
vn -0.1527 0.0931 0.9839
vn -0.0438 0.0331 0.9985
vn -0.1435 0.0422 0.9888
vn -0.1754 0.2226 0.9590
vn -0.2965 0.0149 0.9549
vn -0.3930 -0.1941 0.8988
vn -0.3802 -0.1909 0.9050
vn -0.0394 0.0851 0.9956
vn 0.1953 0.0548 0.9792
vn 0.2784 -0.2892 0.9159
vn 0.3087 -0.3856 0.8695
vn -0.3259 -0.5117 0.7949
vn -0.2882 -0.5517 0.7827
vn 0.0942 -0.5716 0.8151
vn 0.4848 -0.6099 0.6269
vn 0.2788 -0.8485 0.4499
vn -0.2054 -0.6187 0.7583
vn 0.2555 -0.2384 0.9370
vn 0.4280 -0.1452 0.8921
vn 0.3356 -0.1681 0.9269
vn 0.1121 -0.1755 0.9781
vn 0.0853 -0.1629 0.9830
vn 0.1390 -0.0075 0.9903
vn -0.9585 0.2689 0.0948
vn -0.9467 0.3135 0.0741
vn -0.9311 0.3170 0.1806
vn -0.9180 0.3872 -0.0859
vn -0.9335 0.3376 -0.1212
vn -0.9649 0.2067 -0.1621
vn -0.9695 0.1165 0.2157
vn -0.9382 0.3129 0.1478
vn -0.9218 0.3532 0.1599
vn -0.9220 0.3867 -0.0178
vn -0.8794 0.4391 -0.1839
vn -0.8814 0.3765 -0.2854
vn -0.9411 -0.1289 0.3127
vn -0.9706 -0.0545 0.2343
vn -0.9925 -0.0622 0.1054
vn -0.9946 -0.0794 0.0675
vn -0.9897 -0.0145 -0.1425
vn -0.9414 0.0194 -0.3366
vn -0.9130 0.0312 0.4068
vn -0.9787 0.0120 0.2050
vn -0.9941 -0.1082 0.0076
vn -0.9832 -0.1427 0.1134
vn -0.9958 -0.0783 -0.0472
vn -0.9384 -0.0469 -0.3425
vn -0.8856 0.1932 0.4224
vn -0.9949 0.0816 0.0595
vn -0.9758 -0.1305 -0.1756
vn -0.9659 -0.2050 0.1584
vn -0.9877 -0.1409 0.0673
vn -0.9317 -0.0832 -0.3537
vn -0.9340 -0.2209 0.2809
vn -0.9080 -0.4025 -0.1167
vn -0.8325 -0.4735 -0.2876
vn -0.8307 -0.5531 0.0630
vn -0.8208 -0.5244 0.2264
vn -0.8944 -0.4046 -0.1905
vn -0.9276 0.1224 0.3531
vn -0.9817 0.1857 0.0409
vn -0.9755 0.2080 0.0722
vn -0.9470 0.3052 0.1001
vn -0.9344 0.3509 -0.0609
vn -0.9631 0.2669 -0.0354
vn -0.9844 0.1691 -0.0493
vn -0.9294 0.0502 -0.3657
vn -0.9112 0.1642 -0.3779
vn -0.8851 0.3179 -0.3399
vn -0.9424 0.0326 -0.3328
vn -0.9302 -0.0972 -0.3539
vn -0.8762 -0.1294 -0.4642
vn -0.8547 -0.2445 -0.4578
vn -0.8394 -0.4542 -0.2985
vn -0.7839 -0.6188 0.0512
vn -0.7752 -0.5868 0.2340
vn -0.9632 -0.2568 -0.0794
vn -0.9079 -0.3352 -0.2517
vn -0.8651 -0.4785 -0.1507
vn -0.8780 -0.4616 0.1264
vn -0.7986 -0.3948 0.4543
vn -0.8330 -0.0280 0.5525
vn -0.7920 0.1829 0.5825
vn -0.8857 -0.0441 0.4622
vn -0.9063 -0.1765 0.3840
vn -0.9121 0.0029 0.4100
vn -0.8927 0.1919 0.4078
vn -0.0412 0.0655 -0.9970
vn -0.0704 -0.2930 -0.9535
vn -0.1697 -0.4570 -0.8732
vn 0.2268 -0.4298 -0.8740
vn 0.4550 -0.2702 -0.8485
vn 0.2943 -0.0295 -0.9552
vn 0.0654 0.2513 -0.9657
vn 0.1773 0.1337 -0.9750
vn -0.0595 -0.0100 -0.9982
vn 0.2527 0.0505 -0.9662
vn 0.2831 0.1685 -0.9442
vn -0.0043 0.3736 -0.9276
vn 0.1221 0.0216 -0.9923
vn 0.2984 -0.0899 -0.9502
vn -0.1310 -0.2158 -0.9676
vn 0.1061 -0.0768 -0.9914
vn 0.0803 0.1562 -0.9845
vn -0.1260 0.2769 -0.9526
vn 0.0739 -0.1851 -0.9799
vn 0.3639 -0.1065 -0.9253
vn -0.1899 -0.0184 -0.9816
vn -0.0695 0.0128 -0.9975
vn -0.0493 0.0515 -0.9975
vn -0.1306 0.0557 -0.9899
vn 0.0645 -0.0567 -0.9963
vn 0.2880 0.0353 -0.9570
vn -0.2507 0.2317 -0.9399
vn -0.0354 0.1191 -0.9922
vn 0.0474 -0.0540 -0.9974
vn -0.1114 -0.1704 -0.9791
vn 0.0642 -0.1719 -0.9830
vn 0.2322 -0.2533 -0.9391
vn -0.2012 -0.1693 -0.9648
vn 0.0351 -0.1418 -0.9893
vn 0.1853 -0.1712 -0.9677
vn -0.1049 -0.2040 -0.9733
vn -0.2654 -0.0423 -0.9632
vn -0.2042 -0.1698 -0.9641
vn -0.2462 -0.3603 -0.8998
vn -0.1735 -0.4580 -0.8718
vn 0.2711 -0.4298 -0.8613
vn 0.5678 -0.2813 -0.7736
vn 0.4866 -0.1583 -0.8592
vn 0.3485 -0.0708 -0.9346
vn 0.1306 0.1971 -0.9716
vn -0.0019 0.4529 -0.8916
vn 0.0609 0.2475 -0.9670
vn 0.1233 0.0265 -0.9920
vn 0.1699 -0.2145 -0.9618
vn 0.2296 -0.2097 -0.9504
vn 0.2224 -0.4102 -0.8845
vn -0.0796 -0.3505 -0.9332
vn 0.1847 -0.3519 -0.9176
vn -0.0101 -0.4911 -0.8711
vn -0.2337 -0.6087 -0.7582
vn 0.2432 -0.6243 -0.7423
vn 0.1435 -0.4768 -0.8672
vn -0.2487 -0.3671 -0.8963
vn -0.3030 -0.1480 -0.9414
vn -0.3370 -0.1145 -0.9345
vn -0.4184 -0.2192 -0.8814
vn -0.4547 0.0296 -0.8901
vn -0.3742 0.3142 -0.8725
vn -0.2521 0.1851 -0.9498
vn 0.1684 -0.8884 0.4270
vn -0.0538 -0.9984 0.0174
vn -0.1512 -0.9793 -0.1342
vn -0.1326 -0.9370 -0.3233
vn 0.0003 -0.9997 0.0232
vn 0.1834 -0.9743 0.1304
vn 0.1278 -0.8625 0.4896
vn 0.1336 -0.9740 0.1829
vn 0.0105 -0.9967 -0.0800
vn -0.0854 -0.9506 -0.2985
vn -0.0521 -0.9771 -0.2062
vn 0.1778 -0.9807 -0.0818
vn -0.0106 -0.9577 0.2875
vn 0.1671 -0.9564 0.2395
vn 0.1847 -0.9825 -0.0247
vn -0.0196 -0.9980 -0.0603
vn -0.2415 -0.9376 -0.2502
vn -0.2821 -0.9307 -0.2328
vn -0.0279 -0.9926 0.1184
vn 0.1212 -0.9871 0.1046
vn 0.2908 -0.9554 -0.0506
vn 0.2144 -0.9477 0.2366
vn -0.0425 -0.9967 -0.0690
vn -0.2298 -0.9548 -0.1887
vn 0.0888 -0.9536 0.2878
vn -0.2809 -0.9595 -0.0210
vn -0.2090 -0.9567 -0.2028
vn 0.1025 -0.9838 0.1470
vn 0.2425 -0.9589 0.1474
vn 0.1335 -0.9864 -0.0963
vn 0.3015 -0.8354 0.4596
vn 0.1089 -0.9832 0.1466
vn -0.0473 -0.9810 -0.1881
vn 0.0387 -0.9813 -0.1885
vn 0.2496 -0.9562 0.1531
vn 0.2912 -0.9565 -0.0171
vn 0.2307 -0.8771 0.4213
vn -0.0660 -0.9810 0.1825
vn -0.3245 -0.9388 -0.1157
vn -0.4785 -0.8591 -0.1816
vn -0.5316 -0.8183 -0.2188
vn -0.3875 -0.9070 0.1650
vn -0.2315 -0.9572 0.1738
vn -0.2116 -0.9575 -0.1960
vn 0.2137 -0.9680 -0.1318
vn 0.2331 -0.9664 0.1080
vn -0.2151 -0.9662 0.1421
vn -0.1648 -0.9494 -0.2673
vn 0.1279 -0.8102 -0.5720
vn 0.1027 -0.9235 -0.3697
vn 0.4433 -0.8429 0.3049
vn 0.7252 -0.6870 -0.0460
vn 0.0827 -0.9956 -0.0437
vn -0.0855 -0.9639 -0.2522
vn 0.1442 -0.9889 0.0355
vn 0.2785 -0.9220 0.2689
vn 0.0386 -0.9074 0.4184
vn -0.4041 -0.7676 0.4975
vn 0.3738 -0.7865 0.4916
vn 0.4639 -0.8594 0.2149
vn 0.0669 -0.9885 -0.1356
vn -0.1161 -0.9535 -0.2783
vn -0.0941 -0.9913 0.0917
vn 0.3049 -0.7316 0.6098
vt 0.406250 0.031250
vt 0.406250 0.062500
vt 0.437500 0.062500
vt 0.437500 0.031250
vt 0.406250 0.093750
vt 0.437500 0.093750
vt 0.406250 0.125000
vt 0.437500 0.125000
vt 0.406250 0.156250
vt 0.437500 0.156250
vt 0.406250 0.187500
vt 0.437500 0.187500
vt 0.406250 0.218750
vt 0.437500 0.218750
vt 0.468750 0.062500
vt 0.468750 0.031250
vt 0.468750 0.093750
vt 0.468750 0.125000
vt 0.468750 0.156250
vt 0.468750 0.187500
vt 0.468750 0.218750
vt 0.500000 0.062500
vt 0.500000 0.031250
vt 0.500000 0.093750
vt 0.500000 0.125000
vt 0.500000 0.156250
vt 0.500000 0.187500
vt 0.500000 0.218750
vt 0.531250 0.062500
vt 0.531250 0.031250
vt 0.531250 0.093750
vt 0.531250 0.125000
vt 0.531250 0.156250
vt 0.531250 0.187500
vt 0.531250 0.218750
vt 0.562500 0.062500
vt 0.562500 0.031250
vt 0.562500 0.093750
vt 0.562500 0.125000
vt 0.562500 0.156250
vt 0.562500 0.187500
vt 0.562500 0.218750
vt 0.593750 0.062500
vt 0.593750 0.031250
vt 0.593750 0.093750
vt 0.593750 0.125000
vt 0.593750 0.156250
vt 0.593750 0.187500
vt 0.593750 0.218750
vt 0.375000 0.000000
vt 0.375000 0.031250
vt 0.406250 0.000000
vt 0.375000 0.062500
vt 0.375000 0.093750
vt 0.375000 0.125000
vt 0.375000 0.156250
vt 0.375000 0.187500
vt 0.375000 0.218750
vt 0.375000 0.250000
vt 0.406250 0.250000
vt 0.437500 0.250000
vt 0.468750 0.250000
vt 0.500000 0.250000
vt 0.531250 0.250000
vt 0.562500 0.250000
vt 0.593750 0.250000
vt 0.625000 0.250000
vt 0.625000 0.218750
vt 0.625000 0.187500
vt 0.625000 0.156250
vt 0.625000 0.125000
vt 0.625000 0.093750
vt 0.625000 0.062500
vt 0.625000 0.031250
vt 0.593750 0.000000
vt 0.625000 0.000000
vt 0.562500 0.000000
vt 0.531250 0.000000
vt 0.500000 0.000000
vt 0.468750 0.000000
vt 0.437500 0.000000
vt 0.406250 0.281250
vt 0.406250 0.312500
vt 0.437500 0.312500
vt 0.437500 0.281250
vt 0.406250 0.343750
vt 0.437500 0.343750
vt 0.406250 0.375000
vt 0.437500 0.375000
vt 0.406250 0.406250
vt 0.437500 0.406250
vt 0.406250 0.437500
vt 0.437500 0.437500
vt 0.406250 0.468750
vt 0.437500 0.468750
vt 0.468750 0.312500
vt 0.468750 0.281250
vt 0.468750 0.343750
vt 0.468750 0.375000
vt 0.468750 0.406250
vt 0.468750 0.437500
vt 0.468750 0.468750
vt 0.500000 0.312500
vt 0.500000 0.281250
vt 0.500000 0.343750
vt 0.500000 0.375000
vt 0.500000 0.406250
vt 0.500000 0.437500
vt 0.500000 0.468750
vt 0.531250 0.312500
vt 0.531250 0.281250
vt 0.531250 0.343750
vt 0.531250 0.375000
vt 0.531250 0.406250
vt 0.531250 0.437500
vt 0.531250 0.468750
vt 0.562500 0.312500
vt 0.562500 0.281250
vt 0.562500 0.343750
vt 0.562500 0.375000
vt 0.562500 0.406250
vt 0.562500 0.437500
vt 0.562500 0.468750
vt 0.593750 0.312500
vt 0.593750 0.281250
vt 0.593750 0.343750
vt 0.593750 0.375000
vt 0.593750 0.406250
vt 0.593750 0.437500
vt 0.593750 0.468750
vt 0.375000 0.281250
vt 0.375000 0.312500
vt 0.375000 0.343750
vt 0.375000 0.375000
vt 0.375000 0.406250
vt 0.375000 0.437500
vt 0.375000 0.468750
vt 0.375000 0.500000
vt 0.406250 0.500000
vt 0.437500 0.500000
vt 0.468750 0.500000
vt 0.500000 0.500000
vt 0.531250 0.500000
vt 0.562500 0.500000
vt 0.593750 0.500000
vt 0.625000 0.500000
vt 0.625000 0.468750
vt 0.625000 0.437500
vt 0.625000 0.406250
vt 0.625000 0.375000
vt 0.625000 0.343750
vt 0.625000 0.312500
vt 0.625000 0.281250
vt 0.406250 0.531250
vt 0.406250 0.562500
vt 0.437500 0.562500
vt 0.437500 0.531250
vt 0.406250 0.593750
vt 0.437500 0.593750
vt 0.406250 0.625000
vt 0.437500 0.625000
vt 0.406250 0.656250
vt 0.437500 0.656250
vt 0.406250 0.687500
vt 0.437500 0.687500
vt 0.406250 0.718750
vt 0.437500 0.718750
vt 0.468750 0.562500
vt 0.468750 0.531250
vt 0.468750 0.593750
vt 0.468750 0.625000
vt 0.468750 0.656250
vt 0.468750 0.687500
vt 0.468750 0.718750
vt 0.500000 0.562500
vt 0.500000 0.531250
vt 0.500000 0.593750
vt 0.500000 0.625000
vt 0.500000 0.656250
vt 0.500000 0.687500
vt 0.500000 0.718750
vt 0.531250 0.562500
vt 0.531250 0.531250
vt 0.531250 0.593750
vt 0.531250 0.625000
vt 0.531250 0.656250
vt 0.531250 0.687500
vt 0.531250 0.718750
vt 0.562500 0.562500
vt 0.562500 0.531250
vt 0.562500 0.593750
vt 0.562500 0.625000
vt 0.562500 0.656250
vt 0.562500 0.687500
vt 0.562500 0.718750
vt 0.593750 0.562500
vt 0.593750 0.531250
vt 0.593750 0.593750
vt 0.593750 0.625000
vt 0.593750 0.656250
vt 0.593750 0.687500
vt 0.593750 0.718750
vt 0.375000 0.531250
vt 0.375000 0.562500
vt 0.375000 0.593750
vt 0.375000 0.625000
vt 0.375000 0.656250
vt 0.375000 0.687500
vt 0.375000 0.718750
vt 0.375000 0.750000
vt 0.406250 0.750000
vt 0.437500 0.750000
vt 0.468750 0.750000
vt 0.500000 0.750000
vt 0.531250 0.750000
vt 0.562500 0.750000
vt 0.593750 0.750000
vt 0.625000 0.750000
vt 0.625000 0.718750
vt 0.625000 0.687500
vt 0.625000 0.656250
vt 0.625000 0.625000
vt 0.625000 0.593750
vt 0.625000 0.562500
vt 0.625000 0.531250
vt 0.406250 0.781250
vt 0.406250 0.812500
vt 0.437500 0.812500
vt 0.437500 0.781250
vt 0.406250 0.843750
vt 0.437500 0.843750
vt 0.406250 0.875000
vt 0.437500 0.875000
vt 0.406250 0.906250
vt 0.437500 0.906250
vt 0.406250 0.937500
vt 0.437500 0.937500
vt 0.406250 0.968750
vt 0.437500 0.968750
vt 0.468750 0.812500
vt 0.468750 0.781250
vt 0.468750 0.843750
vt 0.468750 0.875000
vt 0.468750 0.906250
vt 0.468750 0.937500
vt 0.468750 0.968750
vt 0.500000 0.812500
vt 0.500000 0.781250
vt 0.500000 0.843750
vt 0.500000 0.875000
vt 0.500000 0.906250
vt 0.500000 0.937500
vt 0.500000 0.968750
vt 0.531250 0.812500
vt 0.531250 0.781250
vt 0.531250 0.843750
vt 0.531250 0.875000
vt 0.531250 0.906250
vt 0.531250 0.937500
vt 0.531250 0.968750
vt 0.562500 0.812500
vt 0.562500 0.781250
vt 0.562500 0.843750
vt 0.562500 0.875000
vt 0.562500 0.906250
vt 0.562500 0.937500
vt 0.562500 0.968750
vt 0.593750 0.812500
vt 0.593750 0.781250
vt 0.593750 0.843750
vt 0.593750 0.875000
vt 0.593750 0.906250
vt 0.593750 0.937500
vt 0.593750 0.968750
vt 0.375000 0.781250
vt 0.375000 0.812500
vt 0.375000 0.843750
vt 0.375000 0.875000
vt 0.375000 0.906250
vt 0.375000 0.937500
vt 0.375000 0.968750
vt 0.375000 1.000000
vt 0.406250 1.000000
vt 0.437500 1.000000
vt 0.468750 1.000000
vt 0.500000 1.000000
vt 0.531250 1.000000
vt 0.562500 1.000000
vt 0.593750 1.000000
vt 0.625000 1.000000
vt 0.625000 0.968750
vt 0.625000 0.937500
vt 0.625000 0.906250
vt 0.625000 0.875000
vt 0.625000 0.843750
vt 0.625000 0.812500
vt 0.625000 0.781250
vt 0.656250 0.531250
vt 0.656250 0.562500
vt 0.687500 0.562500
vt 0.687500 0.531250
vt 0.656250 0.593750
vt 0.687500 0.593750
vt 0.656250 0.625000
vt 0.687500 0.625000
vt 0.656250 0.656250
vt 0.687500 0.656250
vt 0.656250 0.687500
vt 0.687500 0.687500
vt 0.656250 0.718750
vt 0.687500 0.718750
vt 0.718750 0.562500
vt 0.718750 0.531250
vt 0.718750 0.593750
vt 0.718750 0.625000
vt 0.718750 0.656250
vt 0.718750 0.687500
vt 0.718750 0.718750
vt 0.750000 0.562500
vt 0.750000 0.531250
vt 0.750000 0.593750
vt 0.750000 0.625000
vt 0.750000 0.656250
vt 0.750000 0.687500
vt 0.750000 0.718750
vt 0.781250 0.562500
vt 0.781250 0.531250
vt 0.781250 0.593750
vt 0.781250 0.625000
vt 0.781250 0.656250
vt 0.781250 0.687500
vt 0.781250 0.718750
vt 0.812500 0.562500
vt 0.812500 0.531250
vt 0.812500 0.593750
vt 0.812500 0.625000
vt 0.812500 0.656250
vt 0.812500 0.687500
vt 0.812500 0.718750
vt 0.843750 0.562500
vt 0.843750 0.531250
vt 0.843750 0.593750
vt 0.843750 0.625000
vt 0.843750 0.656250
vt 0.843750 0.687500
vt 0.843750 0.718750
vt 0.656250 0.500000
vt 0.656250 0.750000
vt 0.687500 0.750000
vt 0.718750 0.750000
vt 0.750000 0.750000
vt 0.781250 0.750000
vt 0.812500 0.750000
vt 0.843750 0.750000
vt 0.875000 0.750000
vt 0.875000 0.718750
vt 0.875000 0.687500
vt 0.875000 0.656250
vt 0.875000 0.625000
vt 0.875000 0.593750
vt 0.875000 0.562500
vt 0.875000 0.531250
vt 0.843750 0.500000
vt 0.875000 0.500000
vt 0.812500 0.500000
vt 0.781250 0.500000
vt 0.750000 0.500000
vt 0.718750 0.500000
vt 0.687500 0.500000
s 0
f 93/1/1 94/2/1 101/3/1 100/4/1
f 94/2/2 95/5/2 102/6/2 101/3/2
f 95/5/3 96/7/3 103/8/3 102/6/3
f 96/7/4 97/9/4 104/10/4 103/8/4
f 97/9/5 98/11/5 105/12/5 104/10/5
f 98/11/6 99/13/6 106/14/6 105/12/6
f 100/4/7 101/3/7 108/15/7 107/16/7
f 101/3/8 102/6/8 109/17/8 108/15/8
f 102/6/9 103/8/9 110/18/9 109/17/9
f 103/8/10 104/10/10 111/19/10 110/18/10
f 104/10/11 105/12/11 112/20/11 111/19/11
f 105/12/12 106/14/12 113/21/12 112/20/12
f 107/16/13 108/15/13 115/22/13 114/23/13
f 108/15/14 109/17/14 116/24/14 115/22/14
f 109/17/15 110/18/15 117/25/15 116/24/15
f 110/18/16 111/19/16 118/26/16 117/25/16
f 111/19/17 112/20/17 119/27/17 118/26/17
f 112/20/18 113/21/18 120/28/18 119/27/18
f 114/23/19 115/22/19 122/29/19 121/30/19
f 115/22/20 116/24/20 123/31/20 122/29/20
f 116/24/21 117/25/21 124/32/21 123/31/21
f 117/25/22 118/26/22 125/33/22 124/32/22
f 118/26/23 119/27/23 126/34/23 125/33/23
f 119/27/24 120/28/24 127/35/24 126/34/24
f 121/30/25 122/29/25 129/36/25 128/37/25
f 122/29/26 123/31/26 130/38/26 129/36/26
f 123/31/27 124/32/27 131/39/27 130/38/27
f 124/32/28 125/33/28 132/40/28 131/39/28
f 125/33/29 126/34/29 133/41/29 132/40/29
f 126/34/30 127/35/30 134/42/30 133/41/30
f 128/37/31 129/36/31 136/43/31 135/44/31
f 129/36/32 130/38/32 137/45/32 136/43/32
f 130/38/33 131/39/33 138/46/33 137/45/33
f 131/39/34 132/40/34 139/47/34 138/46/34
f 132/40/35 133/41/35 140/48/35 139/47/35
f 133/41/36 134/42/36 141/49/36 140/48/36
f 1/50/37 15/51/37 93/1/37 16/52/37
f 15/51/38 14/53/38 94/2/38 93/1/38
f 14/53/39 13/54/39 95/5/39 94/2/39
f 13/54/40 12/55/40 96/7/40 95/5/40
f 12/55/41 11/56/41 97/9/41 96/7/41
f 11/56/42 10/57/42 98/11/42 97/9/42
f 10/57/43 9/58/43 99/13/43 98/11/43
f 9/58/44 3/59/44 36/60/44 99/13/44
f 99/13/45 36/60/45 35/61/45 106/14/45
f 106/14/46 35/61/46 34/62/46 113/21/46
f 113/21/47 34/62/47 33/63/47 120/28/47
f 120/28/48 33/63/48 32/64/48 127/35/48
f 127/35/49 32/64/49 31/65/49 134/42/49
f 134/42/50 31/65/50 30/66/50 141/49/50
f 141/49/51 30/66/51 4/67/51 29/68/51
f 140/48/52 141/49/52 29/68/52 28/69/52
f 139/47/53 140/48/53 28/69/53 27/70/53
f 138/46/54 139/47/54 27/70/54 26/71/54
f 137/45/55 138/46/55 26/71/55 25/72/55
f 136/43/56 137/45/56 25/72/56 24/73/56
f 135/44/57 136/43/57 24/73/57 23/74/57
f 22/75/58 135/44/58 23/74/58 2/76/58
f 21/77/59 128/37/59 135/44/59 22/75/59
f 20/78/60 121/30/60 128/37/60 21/77/60
f 19/79/61 114/23/61 121/30/61 20/78/61
f 18/80/62 107/16/62 114/23/62 19/79/62
f 17/81/63 100/4/63 107/16/63 18/80/63
f 16/52/64 93/1/64 100/4/64 17/81/64
f 142/82/65 143/83/65 150/84/65 149/85/65
f 143/83/66 144/86/66 151/87/66 150/84/66
f 144/86/67 145/88/67 152/89/67 151/87/67
f 145/88/68 146/90/68 153/91/68 152/89/68
f 146/90/69 147/92/69 154/93/69 153/91/69
f 147/92/70 148/94/70 155/95/70 154/93/70
f 149/85/71 150/84/71 157/96/71 156/97/71
f 150/84/72 151/87/72 158/98/72 157/96/72
f 151/87/73 152/89/73 159/99/73 158/98/73
f 152/89/74 153/91/74 160/100/74 159/99/74
f 153/91/75 154/93/75 161/101/75 160/100/75
f 154/93/76 155/95/76 162/102/76 161/101/76
f 156/97/77 157/96/77 164/103/77 163/104/77
f 157/96/78 158/98/78 165/105/78 164/103/78
f 158/98/79 159/99/79 166/106/79 165/105/79
f 159/99/80 160/100/80 167/107/80 166/106/80
f 160/100/81 161/101/81 168/108/81 167/107/81
f 161/101/82 162/102/82 169/109/82 168/108/82
f 163/104/83 164/103/83 171/110/83 170/111/83
f 164/103/84 165/105/84 172/112/84 171/110/84
f 165/105/85 166/106/85 173/113/85 172/112/85
f 166/106/86 167/107/86 174/114/86 173/113/86
f 167/107/87 168/108/87 175/115/87 174/114/87
f 168/108/88 169/109/88 176/116/88 175/115/88
f 170/111/89 171/110/89 178/117/89 177/118/89
f 171/110/90 172/112/90 179/119/90 178/117/90
f 172/112/91 173/113/91 180/120/91 179/119/91
f 173/113/92 174/114/92 181/121/92 180/120/92
f 174/114/93 175/115/93 182/122/93 181/121/93
f 175/115/94 176/116/94 183/123/94 182/122/94
f 177/118/95 178/117/95 185/124/95 184/125/95
f 178/117/96 179/119/96 186/126/96 185/124/96
f 179/119/97 180/120/97 187/127/97 186/126/97
f 180/120/98 181/121/98 188/128/98 187/127/98
f 181/121/99 182/122/99 189/129/99 188/128/99
f 182/122/100 183/123/100 190/130/100 189/129/100
f 3/59/101 43/131/101 142/82/101 36/60/101
f 43/131/102 42/132/102 143/83/102 142/82/102
f 42/132/103 41/133/103 144/86/103 143/83/103
f 41/133/104 40/134/104 145/88/104 144/86/104
f 40/134/105 39/135/105 146/90/105 145/88/105
f 39/135/106 38/136/106 147/92/106 146/90/106
f 38/136/107 37/137/107 148/94/107 147/92/107
f 37/137/108 7/138/108 57/139/108 148/94/108
f 148/94/109 57/139/109 56/140/109 155/95/109
f 155/95/110 56/140/110 55/141/110 162/102/110
f 162/102/111 55/141/111 54/142/111 169/109/111
f 169/109/112 54/142/112 53/143/112 176/116/112
f 176/116/113 53/143/113 52/144/113 183/123/113
f 183/123/114 52/144/114 51/145/114 190/130/114
f 190/130/115 51/145/115 8/146/115 50/147/115
f 189/129/116 190/130/116 50/147/116 49/148/116
f 188/128/117 189/129/117 49/148/117 48/149/117
f 187/127/118 188/128/118 48/149/118 47/150/118
f 186/126/119 187/127/119 47/150/119 46/151/119
f 185/124/120 186/126/120 46/151/120 45/152/120
f 184/125/121 185/124/121 45/152/121 44/153/121
f 30/66/122 184/125/122 44/153/122 4/67/122
f 31/65/123 177/118/123 184/125/123 30/66/123
f 32/64/124 170/111/124 177/118/124 31/65/124
f 33/63/125 163/104/125 170/111/125 32/64/125
f 34/62/126 156/97/126 163/104/126 33/63/126
f 35/61/127 149/85/127 156/97/127 34/62/127
f 36/60/128 142/82/128 149/85/128 35/61/128
f 191/154/129 192/155/129 199/156/129 198/157/129
f 192/155/130 193/158/130 200/159/130 199/156/130
f 193/158/131 194/160/131 201/161/131 200/159/131
f 194/160/132 195/162/132 202/163/132 201/161/132
f 195/162/133 196/164/133 203/165/133 202/163/133
f 196/164/134 197/166/134 204/167/134 203/165/134
f 198/157/135 199/156/135 206/168/135 205/169/135
f 199/156/136 200/159/136 207/170/136 206/168/136
f 200/159/137 201/161/137 208/171/137 207/170/137
f 201/161/138 202/163/138 209/172/138 208/171/138
f 202/163/139 203/165/139 210/173/139 209/172/139
f 203/165/140 204/167/140 211/174/140 210/173/140
f 205/169/141 206/168/141 213/175/141 212/176/141
f 206/168/142 207/170/142 214/177/142 213/175/142
f 207/170/143 208/171/143 215/178/143 214/177/143
f 208/171/144 209/172/144 216/179/144 215/178/144
f 209/172/145 210/173/145 217/180/145 216/179/145
f 210/173/146 211/174/146 218/181/146 217/180/146
f 212/176/147 213/175/147 220/182/147 219/183/147
f 213/175/148 214/177/148 221/184/148 220/182/148
f 214/177/149 215/178/149 222/185/149 221/184/149
f 215/178/150 216/179/150 223/186/150 222/185/150
f 216/179/151 217/180/151 224/187/151 223/186/151
f 217/180/152 218/181/152 225/188/152 224/187/152
f 219/183/153 220/182/153 227/189/153 226/190/153
f 220/182/154 221/184/154 228/191/154 227/189/154
f 221/184/155 222/185/155 229/192/155 228/191/155
f 222/185/156 223/186/156 230/193/156 229/192/156
f 223/186/157 224/187/157 231/194/157 230/193/157
f 224/187/158 225/188/158 232/195/158 231/194/158
f 226/190/159 227/189/159 234/196/159 233/197/159
f 227/189/160 228/191/160 235/198/160 234/196/160
f 228/191/161 229/192/161 236/199/161 235/198/161
f 229/192/162 230/193/162 237/200/162 236/199/162
f 230/193/163 231/194/163 238/201/163 237/200/163
f 231/194/164 232/195/164 239/202/164 238/201/164
f 7/138/165 64/203/165 191/154/165 57/139/165
f 64/203/166 63/204/166 192/155/166 191/154/166
f 63/204/167 62/205/167 193/158/167 192/155/167
f 62/205/168 61/206/168 194/160/168 193/158/168
f 61/206/169 60/207/169 195/162/169 194/160/169
f 60/207/170 59/208/170 196/164/170 195/162/170
f 59/208/171 58/209/171 197/166/171 196/164/171
f 58/209/172 5/210/172 78/211/172 197/166/172
f 197/166/173 78/211/173 77/212/173 204/167/173
f 204/167/174 77/212/174 76/213/174 211/174/174
f 211/174/175 76/213/175 75/214/175 218/181/175
f 218/181/176 75/214/176 74/215/176 225/188/176
f 225/188/177 74/215/177 73/216/177 232/195/177
f 232/195/178 73/216/178 72/217/178 239/202/178
f 239/202/179 72/217/179 6/218/179 71/219/179
f 238/201/180 239/202/180 71/219/180 70/220/180
f 237/200/181 238/201/181 70/220/181 69/221/181
f 236/199/182 237/200/182 69/221/182 68/222/182
f 235/198/183 236/199/183 68/222/183 67/223/183
f 234/196/184 235/198/184 67/223/184 66/224/184
f 233/197/185 234/196/185 66/224/185 65/225/185
f 51/145/186 233/197/186 65/225/186 8/146/186
f 52/144/187 226/190/187 233/197/187 51/145/187
f 53/143/188 219/183/188 226/190/188 52/144/188
f 54/142/189 212/176/189 219/183/189 53/143/189
f 55/141/190 205/169/190 212/176/190 54/142/190
f 56/140/191 198/157/191 205/169/191 55/141/191
f 57/139/192 191/154/192 198/157/192 56/140/192
f 240/226/193 241/227/193 248/228/193 247/229/193
f 241/227/194 242/230/194 249/231/194 248/228/194
f 242/230/195 243/232/195 250/233/195 249/231/195
f 243/232/196 244/234/196 251/235/196 250/233/196
f 244/234/197 245/236/197 252/237/197 251/235/197
f 245/236/198 246/238/198 253/239/198 252/237/198
f 247/229/199 248/228/199 255/240/199 254/241/199
f 248/228/200 249/231/200 256/242/200 255/240/200
f 249/231/201 250/233/201 257/243/201 256/242/201
f 250/233/202 251/235/202 258/244/202 257/243/202
f 251/235/203 252/237/203 259/245/203 258/244/203
f 252/237/204 253/239/204 260/246/204 259/245/204
f 254/241/205 255/240/205 262/247/205 261/248/205
f 255/240/206 256/242/206 263/249/206 262/247/206
f 256/242/207 257/243/207 264/250/207 263/249/207
f 257/243/208 258/244/208 265/251/208 264/250/208
f 258/244/209 259/245/209 266/252/209 265/251/209
f 259/245/210 260/246/210 267/253/210 266/252/210
f 261/248/211 262/247/211 269/254/211 268/255/211
f 262/247/212 263/249/212 270/256/212 269/254/212
f 263/249/213 264/250/213 271/257/213 270/256/213
f 264/250/214 265/251/214 272/258/214 271/257/214
f 265/251/215 266/252/215 273/259/215 272/258/215
f 266/252/216 267/253/216 274/260/216 273/259/216
f 268/255/217 269/254/217 276/261/217 275/262/217
f 269/254/218 270/256/218 277/263/218 276/261/218
f 270/256/219 271/257/219 278/264/219 277/263/219
f 271/257/220 272/258/220 279/265/220 278/264/220
f 272/258/221 273/259/221 280/266/221 279/265/221
f 273/259/222 274/260/222 281/267/222 280/266/222
f 275/262/223 276/261/223 283/268/223 282/269/223
f 276/261/224 277/263/224 284/270/224 283/268/224
f 277/263/225 278/264/225 285/271/225 284/270/225
f 278/264/226 279/265/226 286/272/226 285/271/226
f 279/265/227 280/266/227 287/273/227 286/272/227
f 280/266/228 281/267/228 288/274/228 287/273/228
f 5/210/229 85/275/229 240/226/229 78/211/229
f 85/275/230 84/276/230 241/227/230 240/226/230
f 84/276/231 83/277/231 242/230/231 241/227/231
f 83/277/232 82/278/232 243/232/232 242/230/232
f 82/278/233 81/279/233 244/234/233 243/232/233
f 81/279/234 80/280/234 245/236/234 244/234/234
f 80/280/235 79/281/235 246/238/235 245/236/235
f 79/281/236 1/282/236 16/283/236 246/238/236
f 246/238/237 16/283/237 17/284/237 253/239/237
f 253/239/238 17/284/238 18/285/238 260/246/238
f 260/246/239 18/285/239 19/286/239 267/253/239
f 267/253/240 19/286/240 20/287/240 274/260/240
f 274/260/241 20/287/241 21/288/241 281/267/241
f 281/267/242 21/288/242 22/289/242 288/274/242
f 288/274/243 22/289/243 2/290/243 92/291/243
f 287/273/244 288/274/244 92/291/244 91/292/244
f 286/272/245 287/273/245 91/292/245 90/293/245
f 285/271/246 286/272/246 90/293/246 89/294/246
f 284/270/247 285/271/247 89/294/247 88/295/247
f 283/268/248 284/270/248 88/295/248 87/296/248
f 282/269/249 283/268/249 87/296/249 86/297/249
f 72/217/250 282/269/250 86/297/250 6/218/250
f 73/216/251 275/262/251 282/269/251 72/217/251
f 74/215/252 268/255/252 275/262/252 73/216/252
f 75/214/253 261/248/253 268/255/253 74/215/253
f 76/213/254 254/241/254 261/248/254 75/214/254
f 77/212/255 247/229/255 254/241/255 76/213/255
f 78/211/256 240/226/256 247/229/256 77/212/256
f 289/298/257 290/299/257 297/300/257 296/301/257
f 290/299/258 291/302/258 298/303/258 297/300/258
f 291/302/259 292/304/259 299/305/259 298/303/259
f 292/304/260 293/306/260 300/307/260 299/305/260
f 293/306/261 294/308/261 301/309/261 300/307/261
f 294/308/262 295/310/262 302/311/262 301/309/262
f 296/301/263 297/300/263 304/312/263 303/313/263
f 297/300/264 298/303/264 305/314/264 304/312/264
f 298/303/265 299/305/265 306/315/265 305/314/265
f 299/305/266 300/307/266 307/316/266 306/315/266
f 300/307/267 301/309/267 308/317/267 307/316/267
f 301/309/268 302/311/268 309/318/268 308/317/268
f 303/313/269 304/312/269 311/319/269 310/320/269
f 304/312/270 305/314/270 312/321/270 311/319/270
f 305/314/271 306/315/271 313/322/271 312/321/271
f 306/315/272 307/316/272 314/323/272 313/322/272
f 307/316/273 308/317/273 315/324/273 314/323/273
f 308/317/274 309/318/274 316/325/274 315/324/274
f 310/320/275 311/319/275 318/326/275 317/327/275
f 311/319/276 312/321/276 319/328/276 318/326/276
f 312/321/277 313/322/277 320/329/277 319/328/277
f 313/322/278 314/323/278 321/330/278 320/329/278
f 314/323/279 315/324/279 322/331/279 321/330/279
f 315/324/280 316/325/280 323/332/280 322/331/280
f 317/327/281 318/326/281 325/333/281 324/334/281
f 318/326/282 319/328/282 326/335/282 325/333/282
f 319/328/283 320/329/283 327/336/283 326/335/283
f 320/329/284 321/330/284 328/337/284 327/336/284
f 321/330/285 322/331/285 329/338/285 328/337/285
f 322/331/286 323/332/286 330/339/286 329/338/286
f 324/334/287 325/333/287 332/340/287 331/341/287
f 325/333/288 326/335/288 333/342/288 332/340/288
f 326/335/289 327/336/289 334/343/289 333/342/289
f 327/336/290 328/337/290 335/344/290 334/343/290
f 328/337/291 329/338/291 336/345/291 335/344/291
f 329/338/292 330/339/292 337/346/292 336/345/292
f 8/146/293 65/225/293 289/298/293 50/347/293
f 65/225/294 66/224/294 290/299/294 289/298/294
f 66/224/295 67/223/295 291/302/295 290/299/295
f 67/223/296 68/222/296 292/304/296 291/302/296
f 68/222/297 69/221/297 293/306/297 292/304/297
f 69/221/298 70/220/298 294/308/298 293/306/298
f 70/220/299 71/219/299 295/310/299 294/308/299
f 71/219/300 6/218/300 86/348/300 295/310/300
f 295/310/301 86/348/301 87/349/301 302/311/301
f 302/311/302 87/349/302 88/350/302 309/318/302
f 309/318/303 88/350/303 89/351/303 316/325/303
f 316/325/304 89/351/304 90/352/304 323/332/304
f 323/332/305 90/352/305 91/353/305 330/339/305
f 330/339/306 91/353/306 92/354/306 337/346/306
f 337/346/307 92/354/307 2/355/307 23/356/307
f 336/345/308 337/346/308 23/356/308 24/357/308
f 335/344/309 336/345/309 24/357/309 25/358/309
f 334/343/310 335/344/310 25/358/310 26/359/310
f 333/342/311 334/343/311 26/359/311 27/360/311
f 332/340/312 333/342/312 27/360/312 28/361/312
f 331/341/313 332/340/313 28/361/313 29/362/313
f 44/363/314 331/341/314 29/362/314 4/364/314
f 45/365/315 324/334/315 331/341/315 44/363/315
f 46/366/316 317/327/316 324/334/316 45/365/316
f 47/367/317 310/320/317 317/327/317 46/366/317
f 48/368/318 303/313/318 310/320/318 47/367/318
f 49/369/319 296/301/319 303/313/319 48/368/319
f 50/347/320 289/298/320 296/301/320 49/369/320
