# Blender 5.2.2 LTS
# www.blender.org
o Cube.070
v 12.276567 1.370537 -18.672325
v 13.304029 1.290409 16.848022
v -24.499716 1.402393 -22.227188
v -22.837492 1.499278 16.914204
v 1.965363 0.607025 -10.064013
v 2.044787 0.600124 7.818073
v -9.588897 0.770518 6.399868
v -11.010787 0.611440 -10.236948
v -6.104450 1.384858 -21.207296
v -4.538577 0.677176 -10.314448
v -24.433876 1.465511 -2.718016
v -10.220262 0.870951 -1.923658
v -4.647609 1.546136 17.840023
v -3.776340 0.662091 7.331360
v 13.509843 1.309154 -0.850254
v 2.103631 0.647820 -1.106954
v 3.326794 1.247129 -20.125811
v -1.133954 0.727981 -10.214327
v 13.728612 1.259583 8.277164
v 2.037228 0.715231 3.577311
v -24.665565 1.248971 -12.767081
v -10.720451 0.727778 -6.279436
v -13.924779 1.367228 17.590858
v -6.843428 0.635915 7.017161
v 7.641620 1.484024 12.304812
v -16.136496 1.494824 11.573040
v -17.678101 1.486475 -16.146088
v 7.056522 1.488435 -14.310898
v -15.555578 1.361249 -22.101032
v -7.943038 0.715446 -10.308614
v -5.331908 1.506831 -15.766653
v -23.875935 1.378558 7.322247
v -10.181624 0.570553 2.464292
v -17.389833 1.496922 -2.311687
v 4.634464 1.636740 17.892202
v -0.720057 0.614620 7.730882
v -4.225047 1.505334 12.479389
v 13.278836 1.371578 -9.984974
v 2.110068 0.629188 -5.789266
v 7.828537 1.505189 -0.976496
v -11.756447 1.503833 -16.238106
v 7.676246 1.509449 -7.880583
v -16.980095 1.496344 4.890411
v 1.941947 1.512849 12.655156
v 1.093120 1.510910 -15.271577
v -17.781761 1.495938 -9.512319
v -10.393277 1.504795 12.284905
v 7.969329 1.491801 5.926292
v -1.365050 1.474981 -20.835409
v 7.936965 1.288055 -19.521965
v -2.832399 0.664293 -10.309863
v 0.476655 0.682420 -10.189748
v 13.633126 1.290655 3.718755
v 13.674508 1.266853 12.701503
v 2.119477 0.637179 1.239399
v 1.934453 0.787222 5.791584
v -24.895285 1.711453 -7.740400
v -24.725136 1.293233 -17.650518
v -10.442520 0.827305 -4.110706
v -10.961474 0.631339 -8.336348
v -9.290648 1.444553 17.691475
v -18.456610 1.359402 17.361603
v -5.313662 0.644580 7.180340
v -8.288123 0.660886 6.786042
v 10.552353 1.540907 14.637292
v 4.758415 1.173153 9.997568
v -12.779517 1.238678 8.925093
v -19.521416 1.583505 14.251451
v -14.233946 1.182127 -13.093408
v -21.170963 1.586251 -19.254288
v 9.737167 1.589978 -16.548309
v 4.429864 1.177819 -12.121052
v -20.166697 1.327680 -22.300562
v -10.836464 1.351147 -21.640808
v -9.545982 0.647318 -10.356598
v -6.244521 0.734728 -10.270957
v -5.735512 1.585907 -18.548780
v -4.921888 1.270156 -12.954712
v -23.458584 1.377431 12.213019
v -24.440500 1.712696 2.322004
v -9.887025 0.682542 4.518716
v -10.275944 0.649653 0.280250
v -20.980021 1.604638 -2.523824
v -13.784807 1.233375 -2.104100
v 9.111605 1.314616 17.377581
v -0.005155 1.387111 17.658054
v 0.728483 0.612603 7.834705
v -2.245093 0.636892 7.535380
v -4.444023 1.585631 15.114659
v -3.994369 1.233485 9.824603
v 12.921535 1.357370 -14.451291
v 13.506885 1.447648 -5.422790
v 1.923380 0.763241 -8.008469
v 2.114398 0.632921 -3.452775
v 10.745914 1.557805 -0.910577
v 4.866736 1.268414 -1.043783
v -13.724182 1.580669 -19.246580
v -14.832862 1.494192 -16.322020
v -9.783338 1.223713 -13.209994
v -8.549550 1.509502 -16.008158
v 10.563043 1.598493 -8.968625
v 7.473174 1.491200 -11.204415
v 4.814242 1.231325 -6.798340
v 7.751412 1.599066 -4.433532
v -20.537848 1.602431 6.147840
v -16.655363 1.501452 8.350431
v -13.471744 1.170620 3.636062
v -17.188971 1.508853 1.294911
v 3.329717 1.607102 15.219088
v 4.898535 1.490018 12.600451
v 0.563466 1.205554 10.115293
v -1.136553 1.504383 12.573310
v 2.248454 1.554595 -17.782326
v -2.114453 1.509513 -15.524045
v -0.058889 1.259283 -12.715725
v 4.180952 1.494086 -14.900118
v -21.339645 1.537895 -11.196123
v -17.591127 1.493492 -5.918058
v -14.177440 1.218258 -7.835295
v -17.845440 1.488745 -12.959188
v -12.219950 1.588733 15.001851
v -7.313711 1.500929 12.387877
v -8.557084 1.224738 9.559176
v -13.362306 1.498744 12.047509
v 10.944474 1.554319 7.142601
v 7.904041 1.494560 2.480514
v 4.989036 1.182621 4.710010
v 7.911184 1.504303 9.235315
v -9.734785 1.590401 -18.906059
v -17.590496 1.588686 -19.410709
v -12.098606 1.203884 -13.252101
v -7.357099 1.227299 -13.088445
v 10.661625 1.593584 -4.944013
v 10.283672 1.592448 -12.883113
v 4.706037 1.185048 -9.553958
v 4.844095 1.241389 -3.926129
v -20.766596 1.613626 1.817557
v -20.154968 1.589577 10.344304
v -13.191572 1.243686 6.373580
v -13.631188 1.201264 0.771025
v -0.551709 1.598042 15.174230
v 7.076025 1.575413 15.067217
v 2.740567 1.193848 10.156569
v -1.711034 1.234222 9.970793
v 6.123449 1.559724 -17.289370
v -1.738789 1.568895 -18.170633
v -2.486050 1.242346 -12.842274
v 2.267271 1.203805 -12.513701
v -21.397947 1.557241 -15.383795
v -21.165873 1.574903 -6.865853
v -13.982435 1.228574 -4.975164
v -14.294600 1.196498 -10.567039
v -15.994116 1.575241 14.772457
v -8.336590 1.590711 15.064485
v -6.279695 1.218606 9.696549
v -10.738579 1.272557 9.327556
v 10.884246 1.548733 11.026491
v 10.850731 1.556018 3.121696
v 4.934485 1.198893 1.838161
v 4.951353 1.180060 7.457390
vn 0.0460 0.9974 -0.0547
vn 0.0590 0.9972 0.0450
vn -0.0388 0.9988 -0.0310
vn -0.0234 0.9994 0.0260
vn -0.1039 0.9885 0.1095
vn -0.0952 0.9894 -0.1101
vn 0.0930 0.9912 -0.0947
vn 0.0883 0.9917 0.0940
vn 0.0008 0.9975 -0.0708
vn 0.0015 0.9779 0.2091
vn -0.0052 1.0000 -0.0003
vn 0.1220 0.9924 0.0161
vn 0.0021 0.9992 0.0391
vn 0.0176 0.9738 -0.2266
vn 0.0822 0.9966 0.0095
vn -0.2142 0.9768 0.0053
vn 0.0209 0.9949 -0.0990
vn -0.0139 0.9772 0.2121
vn 0.1013 0.9949 0.0014
vn -0.1572 0.9875 -0.0146
vn -0.0566 0.9983 -0.0144
vn 0.1500 0.9881 -0.0355
vn -0.0081 0.9972 0.0742
vn 0.0265 0.9777 -0.2083
vn -0.0228 0.9994 -0.0270
vn 0.0224 0.9995 -0.0224
vn 0.0194 0.9995 0.0256
vn -0.0342 0.9990 0.0292
vn 0.0027 0.9964 -0.0844
vn -0.0168 0.9825 0.1854
vn -0.0044 0.9982 0.0598
vn -0.0396 0.9990 0.0200
vn 0.1631 0.9865 -0.0164
vn 0.0525 0.9986 -0.0042
vn 0.0170 0.9995 0.0274
vn 0.0285 0.9674 -0.2515
vn 0.0012 0.9977 -0.0678
vn 0.0746 0.9972 -0.0095
vn -0.1990 0.9799 0.0104
vn -0.0543 0.9985 0.0117
vn -0.0056 0.9980 0.0635
vn -0.0659 0.9978 -0.0078
vn 0.0543 0.9985 -0.0053
vn 0.0041 0.9969 -0.0788
vn -0.0016 0.9981 0.0620
vn 0.0491 0.9988 -0.0048
vn 0.0063 0.9983 -0.0585
vn -0.0613 0.9981 -0.0000
vn 0.0168 0.9979 -0.0624
vn 0.0080 0.9939 -0.1099
vn -0.0123 0.9767 0.2144
vn 0.0064 0.9743 0.2252
vn 0.0965 0.9953 0.0009
vn 0.0950 0.9955 0.0045
vn -0.1930 0.9812 0.0048
vn -0.1536 0.9881 0.0012
vn -0.0034 0.9998 -0.0214
vn -0.0801 0.9967 0.0109
vn 0.1207 0.9924 -0.0248
vn 0.1745 0.9843 -0.0283
vn -0.0111 0.9986 0.0519
vn 0.0055 0.9974 0.0712
vn 0.0114 0.9757 -0.2189
vn 0.0487 0.9826 -0.1790
vn 0.0359 0.9988 0.0329
vn -0.0690 0.9951 -0.0715
vn 0.0554 0.9967 -0.0597
vn -0.0078 0.9998 0.0195
vn 0.0554 0.9967 0.0600
vn -0.0220 0.9995 -0.0222
vn 0.0226 0.9991 -0.0367
vn -0.0752 0.9944 0.0749
vn 0.0051 0.9966 -0.0827
vn 0.0066 0.9964 -0.0847
vn -0.0191 0.9800 0.1980
vn -0.0052 0.9820 0.1889
vn -0.0006 0.9998 -0.0199
vn -0.0028 0.9887 0.1498
vn -0.0539 0.9985 -0.0014
vn -0.0078 0.9999 0.0070
vn 0.1414 0.9887 -0.0496
vn 0.1518 0.9879 0.0311
vn 0.0114 0.9999 -0.0042
vn 0.0988 0.9951 0.0043
vn 0.0269 0.9972 0.0691
vn -0.0104 0.9989 0.0467
vn 0.0090 0.9684 -0.2492
vn 0.0307 0.9703 -0.2400
vn 0.0017 1.0000 0.0036
vn 0.0102 0.9862 -0.1652
vn 0.0806 0.9967 -0.0100
vn 0.0675 0.9977 0.0030
vn -0.1818 0.9833 0.0095
vn -0.2184 0.9759 -0.0046
vn 0.0341 0.9994 0.0098
vn -0.1553 0.9878 0.0096
vn 0.0018 0.9996 -0.0289
vn -0.0013 0.9981 0.0624
vn -0.0149 0.9892 0.1456
vn -0.0061 0.9980 0.0627
vn 0.0227 0.9997 -0.0075
vn -0.0691 0.9976 0.0030
vn -0.1497 0.9887 0.0028
vn -0.0594 0.9982 0.0013
vn -0.0018 0.9999 0.0125
vn 0.0479 0.9988 -0.0073
vn 0.1207 0.9925 -0.0173
vn 0.0572 0.9984 -0.0007
vn -0.0003 1.0000 -0.0010
vn 0.0017 0.9969 -0.0788
vn 0.0143 0.9828 -0.1841
vn 0.0028 0.9974 -0.0720
vn 0.0128 0.9993 -0.0347
vn -0.0029 0.9983 0.0582
vn -0.0049 0.9875 0.1577
vn -0.0069 0.9977 0.0671
vn -0.0085 0.9998 -0.0165
vn 0.0500 0.9987 -0.0056
vn 0.1201 0.9925 -0.0212
vn 0.0496 0.9988 0.0003
vn -0.0048 0.9998 0.0202
vn 0.0025 0.9978 -0.0664
vn 0.0221 0.9889 -0.1471
vn 0.0050 0.9985 -0.0542
vn 0.0417 0.9991 0.0005
vn -0.0591 0.9982 0.0054
vn -0.1259 0.9920 -0.0069
vn -0.0606 0.9982 -0.0018
vn 0.0011 0.9996 -0.0275
vn 0.0010 0.9996 -0.0279
vn -0.0066 0.9894 0.1454
vn -0.0097 0.9901 0.1402
vn 0.0278 0.9996 0.0038
vn 0.0250 0.9997 -0.0037
vn -0.1475 0.9891 -0.0024
vn -0.1623 0.9867 -0.0017
vn 0.0110 0.9999 0.0011
vn -0.0170 0.9999 0.0001
vn 0.1041 0.9941 -0.0304
vn 0.1195 0.9927 0.0144
vn -0.0024 1.0000 0.0061
vn 0.0208 0.9998 0.0033
vn 0.0022 0.9830 -0.1836
vn 0.0193 0.9842 -0.1761
vn 0.0014 0.9989 -0.0465
vn 0.0079 0.9998 -0.0198
vn -0.0098 0.9881 0.1537
vn -0.0023 0.9855 0.1697
vn -0.0340 0.9994 0.0067
vn 0.0095 0.9999 -0.0069
vn 0.1010 0.9947 -0.0170
vn 0.1288 0.9916 -0.0105
vn 0.0006 0.9997 0.0259
vn -0.0053 1.0000 0.0067
vn 0.0079 0.9871 -0.1601
vn 0.0325 0.9923 -0.1199
vn 0.0415 0.9991 0.0021
vn 0.0375 0.9993 0.0011
vn -0.1422 0.9898 0.0056
vn -0.1374 0.9905 0.0073
vt 0.615337 0.875000
vt 0.615337 0.843750
vt 0.622177 0.843750
vt 0.622177 0.875000
vt 0.615337 0.812500
vt 0.622177 0.812500
vt 0.625000 0.812500
vt 0.625000 0.843750
vt 0.625000 0.875000
vt 0.615337 0.781250
vt 0.622177 0.781250
vt 0.615337 0.750000
vt 0.622177 0.750000
vt 0.625000 0.750000
vt 0.625000 0.781250
vt 0.625000 0.781250
vt 0.625000 0.812500
vt 0.620583 0.750000
vt 0.620583 0.781250
vt 0.620583 0.812500
vt 0.625000 0.875000
vt 0.620583 0.843750
vt 0.620583 0.875000
vt 0.615337 0.125000
vt 0.615337 0.093750
vt 0.622177 0.093750
vt 0.622177 0.125000
vt 0.615521 0.062500
vt 0.622277 0.062500
vt 0.625000 0.062500
vt 0.625000 0.093750
vt 0.625000 0.125000
vt 0.617960 0.031250
vt 0.623589 0.031250
vt 0.625000 0.000000
vt 0.625000 0.000000
vt 0.625000 0.000000
vt 0.625000 0.031250
vt 0.623589 0.035484
vt 0.622277 0.070570
vt 0.622177 0.039719
vt 0.619354 0.079438
vt 0.622177 0.100807
vt 0.622177 0.130646
vt 0.619354 0.107865
vt 0.619354 0.136292
vt 0.615337 0.625000
vt 0.615337 0.593750
vt 0.622177 0.593750
vt 0.622177 0.625000
vt 0.615337 0.562500
vt 0.622177 0.562500
vt 0.625000 0.562500
vt 0.625000 0.593750
vt 0.625000 0.625000
vt 0.615337 0.531250
vt 0.622177 0.531250
vt 0.615337 0.500000
vt 0.622177 0.500000
vt 0.625000 0.500000
vt 0.625000 0.531250
vt 0.625000 0.531250
vt 0.625000 0.562500
vt 0.625000 0.500000
vt 0.620583 0.500000
vt 0.620583 0.531250
vt 0.620583 0.562500
vt 0.625000 0.593750
vt 0.620583 0.593750
vt 0.620583 0.625000
vt 0.615337 0.375000
vt 0.615337 0.343750
vt 0.622177 0.343750
vt 0.622177 0.375000
vt 0.615337 0.312500
vt 0.622177 0.312500
vt 0.625000 0.312500
vt 0.625000 0.343750
vt 0.625000 0.375000
vt 0.615337 0.281250
vt 0.622177 0.281250
vt 0.615337 0.250000
vt 0.622177 0.250000
vt 0.625000 0.250000
vt 0.624801 0.281250
vt 0.625000 0.281250
vt 0.625000 0.312500
vt 0.625000 0.250000
vt 0.625000 0.281250
vt 0.625000 0.312500
vt 0.625000 0.343750
vt 0.620583 0.343750
vt 0.620583 0.375000
vt 0.625000 1.000000
vt 0.617960 0.968750
vt 0.623589 0.968750
vt 0.625000 1.000000
vt 0.615521 0.937500
vt 0.622277 0.937500
vt 0.625000 0.937500
vt 0.624900 0.968750
vt 0.615337 0.906250
vt 0.622177 0.906250
vt 0.625000 0.906250
vt 0.625000 0.906250
vt 0.625000 0.937500
vt 0.620583 0.906250
vt 0.625000 0.937500
vt 0.625000 0.968750
vt 0.625000 1.000000
vt 0.625000 0.968750
vt 0.615337 0.718750
vt 0.622177 0.718750
vt 0.615337 0.687500
vt 0.622177 0.687500
vt 0.625000 0.687500
vt 0.625000 0.718750
vt 0.615337 0.656250
vt 0.622177 0.656250
vt 0.625000 0.656250
vt 0.625000 0.656250
vt 0.625000 0.687500
vt 0.620583 0.656250
vt 0.620583 0.687500
vt 0.625000 0.718750
vt 0.620583 0.718750
vt 0.615337 0.468750
vt 0.622177 0.468750
vt 0.615337 0.437500
vt 0.622177 0.437500
vt 0.625000 0.437500
vt 0.625000 0.468750
vt 0.615337 0.406250
vt 0.622177 0.406250
vt 0.625000 0.406250
vt 0.625000 0.406250
vt 0.625000 0.437500
vt 0.620583 0.406250
vt 0.620583 0.437500
vt 0.625000 0.468750
vt 0.620583 0.468750
vt 0.615337 0.218750
vt 0.622177 0.218750
vt 0.615337 0.187500
vt 0.622177 0.187500
vt 0.625000 0.187500
vt 0.625000 0.218750
vt 0.615337 0.156250
vt 0.622177 0.156250
vt 0.625000 0.156250
vt 0.622177 0.160484
vt 0.622277 0.190323
vt 0.619354 0.164719
vt 0.619354 0.193146
vt 0.623589 0.220161
vt 0.622177 0.221573
s 1
f 9/1/9 74/2/74 129/3/129 77/4/77
f 74/2/74 29/5/29 97/6/97 129/3/129
f 129/3/129 97/6/97 41/7/41 100/8/100
f 77/4/77 129/3/129 100/8/100 31/9/31
f 29/5/29 73/10/73 130/11/130 97/6/97
f 73/10/73 3/12/3 70/13/70 130/11/130
f 130/11/130 70/13/70 27/14/27 98/15/98
f 97/6/97 130/11/130 98/15/98 41/7/41
f 41/7/41 98/15/98 131/16/131 99/17/99
f 98/15/98 27/14/27 69/14/69 131/16/131
f 131/16/131 69/14/69 8/18/8 75/19/75
f 99/17/99 131/16/131 75/19/75 30/20/30
f 31/9/31 100/8/100 132/8/132 78/21/78
f 100/8/100 41/7/41 99/17/99 132/8/132
f 132/8/132 99/17/99 30/20/30 76/22/76
f 78/21/78 132/8/132 76/22/76 10/23/10
f 15/24/15 92/25/92 133/26/133 95/27/95
f 92/25/92 38/28/38 101/29/101 133/26/133
f 133/26/133 101/29/101 42/30/42 104/31/104
f 95/27/95 133/26/133 104/31/104 40/32/40
f 38/28/38 91/33/91 134/34/134 101/29/101
f 91/33/91 1/35/1 71/36/71 134/34/134
f 134/34/134 71/36/71 28/37/28 102/38/102
f 101/29/101 134/34/134 102/38/102 42/30/42
f 42/30/42 102/38/102 135/39/135 103/40/103
f 102/38/102 28/37/28 72/36/72 135/39/135
f 135/39/135 72/36/72 5/36/5 93/41/93
f 103/40/103 135/39/135 93/41/93 39/42/39
f 40/32/40 104/31/104 136/43/136 96/44/96
f 104/31/104 42/30/42 103/40/103 136/43/136
f 136/43/136 103/40/103 39/42/39 94/45/94
f 96/44/96 136/43/136 94/45/94 16/46/16
f 11/47/11 80/48/80 137/49/137 83/50/83
f 80/48/80 32/51/32 105/52/105 137/49/137
f 137/49/137 105/52/105 43/53/43 108/54/108
f 83/50/83 137/49/137 108/54/108 34/55/34
f 32/51/32 79/56/79 138/57/138 105/52/105
f 79/56/79 4/58/4 68/59/68 138/57/138
f 138/57/138 68/59/68 26/60/26 106/61/106
f 105/52/105 138/57/138 106/61/106 43/53/43
f 43/53/43 106/61/106 139/62/139 107/63/107
f 106/61/106 26/60/26 67/64/67 139/62/139
f 139/62/139 67/64/67 7/65/7 81/66/81
f 107/63/107 139/62/139 81/66/81 33/67/33
f 34/55/34 108/54/108 140/68/140 84/55/84
f 108/54/108 43/53/43 107/63/107 140/68/140
f 140/68/140 107/63/107 33/67/33 82/69/82
f 84/55/84 140/68/140 82/69/82 12/70/12
f 13/71/13 86/72/86 141/73/141 89/74/89
f 86/72/86 35/75/35 109/76/109 141/73/141
f 141/73/141 109/76/109 44/77/44 112/78/112
f 89/74/89 141/73/141 112/78/112 37/79/37
f 35/75/35 85/80/85 142/81/142 109/76/109
f 85/80/85 2/82/2 65/83/65 142/81/142
f 142/81/142 65/83/65 25/84/25 110/85/110
f 109/76/109 142/81/142 110/85/110 44/77/44
f 44/77/44 110/85/110 143/86/143 111/87/111
f 110/85/110 25/84/25 66/88/66 143/86/143
f 143/86/143 66/88/66 6/88/6 87/89/87
f 111/87/111 143/86/143 87/89/87 36/90/36
f 37/79/37 112/78/112 144/91/144 90/79/90
f 112/78/112 44/77/44 111/87/111 144/91/144
f 144/91/144 111/87/111 36/90/36 88/92/88
f 90/79/90 144/91/144 88/92/88 14/93/14
f 1/94/1 50/95/50 145/96/145 71/97/71
f 50/95/50 17/98/17 113/99/113 145/96/145
f 145/96/145 113/99/113 45/100/45 116/101/116
f 71/97/71 145/96/145 116/101/116 28/97/28
f 17/98/17 49/102/49 146/103/146 113/99/113
f 49/102/49 9/1/9 77/4/77 146/103/146
f 146/103/146 77/4/77 31/9/31 114/104/114
f 113/99/113 146/103/146 114/104/114 45/100/45
f 45/100/45 114/104/114 147/105/147 115/106/115
f 114/104/114 31/9/31 78/21/78 147/105/147
f 147/105/147 78/21/78 10/23/10 51/107/51
f 115/106/115 147/105/147 51/107/51 18/108/18
f 28/97/28 116/101/116 148/109/148 72/110/72
f 116/101/116 45/100/45 115/106/115 148/109/148
f 148/109/148 115/106/115 18/108/18 52/111/52
f 72/110/72 148/109/148 52/111/52 5/110/5
f 3/12/3 58/112/58 149/113/149 70/13/70
f 58/112/58 21/114/21 117/115/117 149/113/149
f 149/113/149 117/115/117 46/116/46 120/117/120
f 70/13/70 149/113/149 120/117/120 27/14/27
f 21/114/21 57/118/57 150/119/150 117/115/117
f 57/118/57 11/47/11 83/50/83 150/119/150
f 150/119/150 83/50/83 34/55/34 118/120/118
f 117/115/117 150/119/150 118/120/118 46/116/46
f 46/116/46 118/120/118 151/121/151 119/122/119
f 118/120/118 34/55/34 84/55/84 151/121/151
f 151/121/151 84/55/84 12/70/12 59/123/59
f 119/122/119 151/121/151 59/123/59 22/124/22
f 27/14/27 120/117/120 152/125/152 69/14/69
f 120/117/120 46/116/46 119/122/119 152/125/152
f 152/125/152 119/122/119 22/124/22 60/126/60
f 69/14/69 152/125/152 60/126/60 8/18/8
f 4/58/4 62/127/62 153/128/153 68/59/68
f 62/127/62 23/129/23 121/130/121 153/128/153
f 153/128/153 121/130/121 47/131/47 124/132/124
f 68/59/68 153/128/153 124/132/124 26/60/26
f 23/129/23 61/133/61 154/134/154 121/130/121
f 61/133/61 13/71/13 89/74/89 154/134/154
f 154/134/154 89/74/89 37/79/37 122/135/122
f 121/130/121 154/134/154 122/135/122 47/131/47
f 47/131/47 122/135/122 155/136/155 123/137/123
f 122/135/122 37/79/37 90/79/90 155/136/155
f 155/136/155 90/79/90 14/93/14 63/138/63
f 123/137/123 155/136/155 63/138/63 24/139/24
f 26/60/26 124/132/124 156/140/156 67/64/67
f 124/132/124 47/131/47 123/137/123 156/140/156
f 156/140/156 123/137/123 24/139/24 64/141/64
f 67/64/67 156/140/156 64/141/64 7/65/7
f 2/82/2 54/142/54 157/143/157 65/83/65
f 54/142/54 19/144/19 125/145/125 157/143/157
f 157/143/157 125/145/125 48/146/48 128/147/128
f 65/83/65 157/143/157 128/147/128 25/84/25
f 19/144/19 53/148/53 158/149/158 125/145/125
f 53/148/53 15/24/15 95/27/95 158/149/158
f 158/149/158 95/27/95 40/32/40 126/150/126
f 125/145/125 158/149/158 126/150/126 48/146/48
f 48/146/48 126/150/126 159/151/159 127/152/127
f 126/150/126 40/32/40 96/44/96 159/151/159
f 159/151/159 96/44/96 16/46/16 55/153/55
f 127/152/127 159/151/159 55/153/55 20/154/20
f 25/84/25 128/147/128 160/155/160 66/88/66
f 128/147/128 48/146/48 127/152/127 160/155/160
f 160/155/160 127/152/127 20/154/20 56/156/56
f 66/88/66 160/155/160 56/156/56 6/88/6
