# Blender 5.2.2 LTS
# www.blender.org
o platform_big_2.001
v 7.831485 15.252519 -7.681623
v 0.074380 15.258837 -7.761365
v -7.681088 15.225884 -7.830122
v 7.782427 15.258724 0.074678
v 0.000013 15.246467 -0.000008
v -7.755612 15.235617 -0.074318
v 7.717834 15.282495 7.839335
v -0.074324 15.241490 7.756302
v -7.829297 15.222689 7.680654
v 3.966857 15.258443 -7.721888
v -3.818101 15.254231 -7.796362
v 7.806908 15.256372 -3.818125
v 0.037312 15.252168 -3.892560
v -7.718513 15.243960 -3.966711
v 3.892535 15.250466 0.037314
v -3.892449 15.248588 -0.037302
v 7.752801 15.273261 3.968144
v -0.037286 15.250730 3.892497
v -7.793120 15.244419 3.818144
v 3.818326 15.254981 7.797632
v -3.966806 15.244984 7.718487
v 7.927631 15.325089 -11.491006
v 0.109908 15.308606 -11.597988
v -7.720667 15.268718 -11.648839
v -11.506534 15.297318 -7.941315
v -11.589266 15.322439 -0.108620
v -11.686155 15.293860 7.749185
v -7.976091 15.323639 11.545936
v -0.113623 15.330348 11.629995
v 7.764885 15.412409 11.750991
v 11.755686 15.510439 7.945380
v 11.745331 15.437794 0.112604
v 11.654074 15.313091 -7.710528
v 3.929825 15.254970 -3.855250
v -3.855157 15.252397 -3.929826
v 3.855346 15.257795 3.929940
v -3.929824 15.252440 3.855230
v 11.623883 15.220394 -11.403049
v 4.037784 15.322650 -11.555057
v -3.817274 15.306750 -11.626410
v -11.454552 15.203639 -11.672251
v -11.540878 15.306496 -4.037837
v -11.635737 15.305319 3.829514
v -11.698606 15.168855 11.477715
v -4.062269 15.348124 11.590212
v 3.835008 15.363684 11.695616
v 11.625587 15.397996 11.740563
v 11.752514 15.471546 4.034720
v 11.691875 15.366526 -3.810263
v -14.217363 14.725391 13.940504
v -14.669558 13.920786 14.390576
v -14.648715 15.386320 -14.923969
v -15.262422 14.625441 -15.552077
v 14.265278 15.051269 14.463540
v 14.704554 14.184160 14.967658
v 15.047750 15.517288 -14.768820
v 15.695497 14.744395 -15.397246
v -14.547024 15.139623 7.841992
v -15.181101 14.342319 7.767878
v -14.917800 15.516825 -0.136152
v -15.601969 14.791145 -0.146592
v -14.886642 15.550765 -8.121921
v -15.672435 14.847106 -8.080632
v -7.850981 15.581996 -15.071689
v -7.791320 14.903906 -15.915532
v 0.141710 15.812606 -15.260807
v 0.152058 15.192288 -16.184322
v 8.135757 15.721829 -15.072594
v 8.099479 15.057453 -15.922134
v 15.156310 15.660117 -7.856558
v 15.993972 14.984593 -7.807542
v 15.608582 16.124346 0.120052
v 16.392481 15.490114 0.119177
v 15.465306 16.076971 8.183262
v 16.211506 15.419372 8.140656
v 7.841179 15.241300 14.645069
v 7.770252 14.444013 15.200507
v -0.140963 15.055559 14.363628
v -0.143564 14.235363 14.904377
v -8.113976 15.067140 14.301750
v -8.051196 14.251499 14.846478
v -14.509341 15.058274 11.604232
v -15.021129 14.291103 11.489477
v -14.781587 15.367752 3.871325
v -15.498423 14.618924 3.831080
v -15.002834 15.618124 -4.143360
v -15.717046 14.915258 -4.126925
v -14.870921 15.553048 -11.969597
v -15.641647 14.866433 -11.917150
v -11.696486 15.567196 -15.103989
v -11.629791 14.894560 -15.928003
v -3.873543 15.714738 -15.183847
v -3.839559 15.075970 -16.100319
v 4.155228 15.693072 -15.078302
v 4.140118 15.025074 -15.927816
v 11.955118 15.718924 -15.052459
v 11.917253 15.070377 -15.886516
v 15.233181 15.680771 -11.658773
v 16.040388 15.018010 -11.602704
v 15.480683 15.973735 -3.900886
v 16.306154 15.336540 -3.878713
v 15.744955 16.278011 4.155573
v 16.516928 15.658348 4.133116
v 14.845539 15.565053 11.979454
v 15.522334 14.847253 11.901357
v 11.665749 15.265300 14.701180
v 11.540607 14.470498 15.337622
v 3.865750 15.115094 14.466803
v 3.832330 14.302798 14.998920
v -4.146765 15.055076 14.320998
v -4.117609 14.240159 14.812445
v -11.871479 15.021504 14.239902
v -11.771514 14.231729 14.810317
vn -0.0040 1.0000 0.0020
vn -0.0009 1.0000 0.0076
vn 0.0013 1.0000 0.0001
vn -0.0221 0.9997 -0.0045
vn -0.0004 1.0000 -0.0000
vn 0.0083 1.0000 0.0001
vn -0.0237 0.9997 -0.0102
vn -0.0012 0.9999 -0.0116
vn -0.0007 1.0000 -0.0040
vn -0.0004 1.0000 0.0085
vn -0.0037 1.0000 0.0062
vn -0.0149 0.9999 -0.0041
vn -0.0004 1.0000 0.0012
vn 0.0074 1.0000 -0.0012
vn -0.0016 1.0000 -0.0007
vn -0.0012 1.0000 -0.0000
vn -0.0272 0.9996 -0.0041
vn -0.0007 1.0000 0.0003
vn 0.0074 1.0000 0.0019
vn -0.0058 0.9999 -0.0138
vn -0.0015 0.9999 -0.0113
vn 0.0033 0.9981 0.0617
vn -0.0012 0.9976 0.0688
vn -0.0099 0.9986 0.0520
vn 0.0476 0.9988 -0.0073
vn 0.0382 0.9992 0.0078
vn -0.0135 0.9998 0.0165
vn -0.0117 0.9992 0.0373
vn -0.0038 0.9993 0.0369
vn -0.0157 0.9996 0.0237
vn -0.0927 0.9955 0.0189
vn -0.1098 0.9938 -0.0148
vn -0.0653 0.9977 -0.0153
vn -0.0005 1.0000 0.0007
vn -0.0020 1.0000 0.0004
vn -0.0031 1.0000 -0.0009
vn -0.0014 1.0000 0.0008
vn -0.0335 0.9986 0.0399
vn 0.0008 0.9979 0.0654
vn -0.0104 0.9979 0.0638
vn 0.0265 0.9993 0.0282
vn 0.0484 0.9988 -0.0004
vn 0.0156 0.9998 0.0142
vn -0.0407 0.9980 0.0485
vn -0.0010 0.9993 0.0380
vn -0.0132 0.9995 0.0284
vn -0.0336 0.9977 0.0587
vn -0.1160 0.9932 -0.0048
vn -0.0894 0.9958 -0.0201
vn -0.4326 0.7921 0.4305
vn -0.5557 0.6171 0.5571
vn -0.3151 0.8984 -0.3059
vn -0.4391 0.7877 -0.4321
vn 0.3468 0.8103 0.4723
vn 0.4583 0.6393 0.6174
vn 0.3106 0.9058 -0.2883
vn 0.4413 0.7967 -0.4129
vn -0.4448 0.8942 0.0500
vn -0.7803 0.6220 0.0646
vn -0.3653 0.9303 0.0324
vn -0.7195 0.6931 0.0435
vn -0.3195 0.9475 -0.0128
vn -0.6756 0.7371 -0.0145
vn -0.0220 0.9615 -0.2741
vn -0.0270 0.7885 -0.6144
vn 0.0070 0.9686 -0.2486
vn 0.0137 0.8169 -0.5766
vn 0.0018 0.9627 -0.2706
vn -0.0010 0.7877 -0.6160
vn 0.2644 0.9636 -0.0395
vn 0.6256 0.7784 -0.0519
vn 0.2446 0.9688 -0.0387
vn 0.6229 0.7808 -0.0488
vn 0.2983 0.9480 0.1108
vn 0.6666 0.7300 0.1510
vn -0.0295 0.8737 0.4856
vn -0.0422 0.5807 0.8130
vn -0.0155 0.8535 0.5209
vn -0.0217 0.5416 0.8404
vn -0.0123 0.8602 0.5097
vn -0.0059 0.5524 0.8336
vn -0.4939 0.8645 0.0938
vn -0.8171 0.5680 0.0982
vn -0.4005 0.9147 0.0538
vn -0.7391 0.6698 0.0713
vn -0.3451 0.9386 0.0034
vn -0.6998 0.7143 0.0060
vn -0.3468 0.9376 -0.0258
vn -0.6819 0.7295 -0.0524
vn -0.0261 0.9451 -0.3257
vn -0.0503 0.7551 -0.6537
vn -0.0319 0.9672 -0.2519
vn -0.0431 0.8119 -0.5822
vn 0.0159 0.9656 -0.2594
vn 0.0286 0.7979 -0.6021
vn 0.0311 0.9508 -0.3083
vn 0.0648 0.7662 -0.6394
vn 0.3225 0.9465 -0.0131
vn 0.6552 0.7544 -0.0390
vn 0.2608 0.9634 -0.0621
vn 0.6194 0.7809 -0.0805
vn 0.2612 0.9652 0.0098
vn 0.6363 0.7713 0.0170
vn 0.3692 0.9072 0.2015
vn 0.7116 0.6513 0.2633
vn 0.0359 0.8685 0.4944
vn 0.0497 0.5922 0.8042
vn -0.0352 0.8616 0.5064
vn -0.0437 0.5554 0.8304
vn -0.0033 0.8507 0.5256
vn -0.0056 0.5350 0.8448
vn -0.0861 0.8599 0.5031
vn -0.0909 0.5658 0.8195
vt 0.687500 0.562500
vt 0.718750 0.562500
vt 0.718750 0.593750
vt 0.687500 0.593750
vt 0.750000 0.562500
vt 0.750000 0.593750
vt 0.750000 0.625000
vt 0.718750 0.625000
vt 0.687500 0.625000
vt 0.781250 0.562500
vt 0.781250 0.593750
vt 0.812500 0.562500
vt 0.812500 0.593750
vt 0.812500 0.625000
vt 0.781250 0.625000
vt 0.718750 0.656250
vt 0.687500 0.656250
vt 0.750000 0.656250
vt 0.750000 0.687500
vt 0.718750 0.687500
vt 0.687500 0.687500
vt 0.781250 0.656250
vt 0.812500 0.656250
vt 0.812500 0.687500
vt 0.781250 0.687500
vt 0.656250 0.531250
vt 0.687500 0.531250
vt 0.656250 0.562500
vt 0.718750 0.531250
vt 0.750000 0.531250
vt 0.781250 0.531250
vt 0.812500 0.531250
vt 0.843750 0.531250
vt 0.843750 0.562500
vt 0.843750 0.593750
vt 0.843750 0.625000
vt 0.843750 0.656250
vt 0.843750 0.687500
vt 0.843750 0.718750
vt 0.812500 0.718750
vt 0.781250 0.718750
vt 0.750000 0.718750
vt 0.718750 0.718750
vt 0.687500 0.718750
vt 0.656250 0.687500
vt 0.656250 0.718750
vt 0.656250 0.625000
vt 0.656250 0.656250
vt 0.656250 0.593750
vt 0.625000 0.005544
vt 0.625000 0.030849
vt 0.618860 0.031250
vt 0.618129 0.000000
vt 0.625000 0.062450
vt 0.618690 0.062500
vt 0.625000 0.093587
vt 0.619039 0.093750
vt 0.625000 0.124895
vt 0.619296 0.125000
vt 0.625000 0.156226
vt 0.619442 0.156250
vt 0.625000 0.187500
vt 0.619371 0.187500
vt 0.625000 0.218848
vt 0.619440 0.218750
vt 0.625000 0.250003
vt 0.618986 0.250000
vt 0.625000 0.281124
vt 0.619523 0.281250
vt 0.625000 0.312500
vt 0.619503 0.312500
vt 0.625000 0.343658
vt 0.619788 0.343750
vt 0.625000 0.375019
vt 0.619919 0.375000
vt 0.625000 0.406250
vt 0.619627 0.406250
vt 0.625000 0.437469
vt 0.619698 0.437500
vt 0.625000 0.468878
vt 0.619781 0.468750
vt 0.628684 0.502049
vt 0.619192 0.500000
vt 0.630191 0.531250
vt 0.619693 0.531250
vt 0.630317 0.562500
vt 0.619598 0.562500
vt 0.629991 0.593750
vt 0.619915 0.593750
vt 0.629913 0.625000
vt 0.619984 0.625000
vt 0.629779 0.656250
vt 0.620123 0.656250
vt 0.630089 0.687500
vt 0.619827 0.687500
vt 0.630660 0.718750
vt 0.619272 0.718750
vt 0.629236 0.747270
vt 0.618400 0.750000
vt 0.625000 0.780835
vt 0.618849 0.781250
vt 0.625000 0.812544
vt 0.618862 0.812500
vt 0.625000 0.843781
vt 0.618719 0.843750
vt 0.625000 0.875004
vt 0.618645 0.875000
vt 0.625000 0.906250
vt 0.618797 0.906250
vt 0.625000 0.937522
vt 0.618673 0.937500
vt 0.625000 0.969106
vt 0.618609 0.968750
vt 0.625000 0.994458
vt 0.618129 1.000000
vt 0.868745 0.718750
vt 0.868148 0.743121
vt 0.843750 0.743672
vt 0.843750 0.505392
vt 0.869257 0.505731
vt 0.869582 0.531250
vt 0.656250 0.743996
vt 0.656250 0.505120
vt 0.868842 0.687500
vt 0.869236 0.656250
vt 0.869474 0.625000
vt 0.869640 0.593750
vt 0.869540 0.562500
vt 0.812500 0.505401
vt 0.781250 0.505238
vt 0.750000 0.505115
vt 0.718750 0.505276
vt 0.687500 0.505205
vt 0.687500 0.743900
vt 0.718750 0.743723
vt 0.750000 0.743670
vt 0.781250 0.743675
vt 0.812500 0.743703
s 1
f 1/1/1 10/2/10 34/3/34 12/4/12
f 10/2/10 2/5/2 13/6/13 34/3/34
f 34/3/34 13/6/13 5/7/5 15/8/15
f 12/4/12 34/3/34 15/8/15 4/9/4
f 2/5/2 11/10/11 35/11/35 13/6/13
f 11/10/11 3/12/3 14/13/14 35/11/35
f 35/11/35 14/13/14 6/14/6 16/15/16
f 13/6/13 35/11/35 16/15/16 5/7/5
f 4/9/4 15/8/15 36/16/36 17/17/17
f 15/8/15 5/7/5 18/18/18 36/16/36
f 36/16/36 18/18/18 8/19/8 20/20/20
f 17/17/17 36/16/36 20/20/20 7/21/7
f 5/7/5 16/15/16 37/22/37 18/18/18
f 16/15/16 6/14/6 19/23/19 37/22/37
f 37/22/37 19/23/19 9/24/9 21/25/21
f 18/18/18 37/22/37 21/25/21 8/19/8
f 38/26/38 22/27/22 1/1/1 33/28/33
f 39/29/39 23/30/23 2/5/2 10/2/10
f 22/27/22 39/29/39 10/2/10 1/1/1
f 40/31/40 24/32/24 3/12/3 11/10/11
f 23/30/23 40/31/40 11/10/11 2/5/2
f 24/32/24 41/33/41 25/34/25 3/12/3
f 3/12/3 25/34/25 42/35/42 14/13/14
f 14/13/14 42/35/42 26/36/26 6/14/6
f 6/14/6 26/36/26 43/37/43 19/23/19
f 19/23/19 43/37/43 27/38/27 9/24/9
f 9/24/9 27/38/27 44/39/44 28/40/28
f 8/19/8 21/25/21 45/41/45 29/42/29
f 21/25/21 9/24/9 28/40/28 45/41/45
f 7/21/7 20/20/20 46/43/46 30/44/30
f 20/20/20 8/19/8 29/42/29 46/43/46
f 31/45/31 7/21/7 30/44/30 47/46/47
f 32/47/32 4/9/4 17/17/17 48/48/48
f 48/48/48 17/17/17 7/21/7 31/45/31
f 33/28/33 1/1/1 12/4/12 49/49/49
f 49/49/49 12/4/12 4/9/4 32/47/32
f 50/50/50 82/51/82 83/52/83 51/53/51
f 82/51/82 58/54/58 59/55/59 83/52/83
f 58/54/58 84/56/84 85/57/85 59/55/59
f 84/56/84 60/58/60 61/59/61 85/57/85
f 60/58/60 86/60/86 87/61/87 61/59/61
f 86/60/86 62/62/62 63/63/63 87/61/87
f 62/62/62 88/64/88 89/65/89 63/63/63
f 88/64/88 52/66/52 53/67/53 89/65/89
f 52/66/52 90/68/90 91/69/91 53/67/53
f 90/68/90 64/70/64 65/71/65 91/69/91
f 64/70/64 92/72/92 93/73/93 65/71/65
f 92/72/92 66/74/66 67/75/67 93/73/93
f 66/74/66 94/76/94 95/77/95 67/75/67
f 94/76/94 68/78/68 69/79/69 95/77/95
f 68/78/68 96/80/96 97/81/97 69/79/69
f 96/80/96 56/82/56 57/83/57 97/81/97
f 56/82/56 98/84/98 99/85/99 57/83/57
f 98/84/98 70/86/70 71/87/71 99/85/99
f 70/86/70 100/88/100 101/89/101 71/87/71
f 100/88/100 72/90/72 73/91/73 101/89/101
f 72/90/72 102/92/102 103/93/103 73/91/73
f 102/92/102 74/94/74 75/95/75 103/93/103
f 74/94/74 104/96/104 105/97/105 75/95/75
f 104/96/104 54/98/54 55/99/55 105/97/105
f 54/98/54 106/100/106 107/101/107 55/99/55
f 106/100/106 76/102/76 77/103/77 107/101/107
f 76/102/76 108/104/108 109/105/109 77/103/77
f 108/104/108 78/106/78 79/107/79 109/105/109
f 78/106/78 110/108/110 111/109/111 79/107/79
f 110/108/110 80/110/80 81/111/81 111/109/111
f 80/110/80 112/112/112 113/113/113 81/111/81
f 112/112/112 50/114/50 51/115/51 113/113/113
f 44/39/44 82/116/82 50/117/50 112/118/112
f 90/119/90 52/120/52 88/121/88 41/33/41
f 104/96/104 47/46/47 106/122/106 54/98/54
f 56/82/56 96/123/96 38/26/38 98/84/98
f 27/38/27 58/124/58 82/116/82 44/39/44
f 43/37/43 84/125/84 58/124/58 27/38/27
f 26/36/26 60/126/60 84/125/84 43/37/43
f 42/35/42 86/127/86 60/126/60 26/36/26
f 25/34/25 62/128/62 86/127/86 42/35/42
f 41/33/41 88/121/88 62/128/62 25/34/25
f 64/129/64 90/119/90 41/33/41 24/32/24
f 92/130/92 64/129/64 24/32/24 40/31/40
f 66/131/66 92/130/92 40/31/40 23/30/23
f 94/132/94 66/131/66 23/30/23 39/29/39
f 68/133/68 94/132/94 39/29/39 22/27/22
f 96/123/96 68/133/68 22/27/22 38/26/38
f 98/84/98 38/26/38 33/28/33 70/86/70
f 70/86/70 33/28/33 49/49/49 100/88/100
f 100/88/100 49/49/49 32/47/32 72/90/72
f 72/90/72 32/47/32 48/48/48 102/92/102
f 102/92/102 48/48/48 31/45/31 74/94/74
f 74/94/74 31/45/31 47/46/47 104/96/104
f 47/46/47 30/44/30 76/134/76 106/122/106
f 30/44/30 46/43/46 108/135/108 76/134/76
f 46/43/46 29/42/29 78/136/78 108/135/108
f 29/42/29 45/41/45 110/137/110 78/136/78
f 45/41/45 28/40/28 80/138/80 110/137/110
f 28/40/28 44/39/44 112/118/112 80/138/80
