# Blender 5.2.2 LTS
# www.blender.org
o rock_medium_1
v -3.818951 -3.541905 3.723095
v -3.944643 3.496243 4.085515
v -3.819502 -3.517391 -3.440596
v -7.337283 3.467865 -2.563934
v 2.845156 -2.932874 3.488245
v 5.903758 4.853877 2.619996
v 3.239390 -3.467727 -3.458846
v 3.309299 4.191308 -7.411572
v -4.628140 -4.155029 0.629023
v -4.648154 -0.673289 4.625773
v -5.721200 4.349095 1.005674
v -5.722200 -0.693435 -4.028212
v -1.073776 -4.143806 -4.401323
v -1.901540 4.585425 -5.442086
v 4.181296 -0.512438 -5.603461
v 2.744250 -4.386363 -0.066105
v 5.055682 5.049024 -0.713145
v 5.085207 -0.253495 4.011858
v -1.053143 -4.147699 4.498538
v -1.072867 5.107616 5.689127
v -6.427706 -0.671749 0.758783
v -1.281975 -0.829156 -6.463979
v 6.416873 -0.643821 0.708269
v -1.095162 -0.637923 6.449345
v -1.427663 -5.258695 -0.010586
v -1.246776 6.537610 1.039448
v -4.297978 1.226020 4.364614
v -6.529706 1.169434 -3.261155
v 3.701337 1.594101 -6.496770
v 5.528096 2.115057 2.737739
v -6.074411 1.594347 0.890992
v -1.591709 1.605324 -6.039339
v 5.851745 1.905827 -0.039243
v -1.121550 2.006469 6.088160
v -4.181555 -3.765012 -1.449773
v -6.606873 3.866149 -0.796186
v 3.352863 -3.858038 -1.501120
v 4.097744 4.576692 -4.056927
v -6.041098 -0.663242 -1.668884
v 5.412120 -0.535669 -2.453755
v -1.091784 -4.392783 -2.157942
v -1.598688 5.453985 -2.192066
v 4.913155 1.739555 -3.242530
v -6.323935 1.364716 -1.222056
v 0.832615 -3.756466 -3.947255
v 0.361819 4.388367 -6.426829
v 1.157590 -3.611278 3.845591
v 2.169388 4.599970 3.687434
v 1.114322 -0.642602 -6.043539
v 1.625251 -0.443306 5.064273
v 0.144731 -5.732686 -0.186811
v 1.404983 5.942133 0.154327
v 1.910005 1.888005 3.902608
v 0.738133 1.603015 -6.269205
v 0.864555 5.028487 -3.125276
v 0.558784 -4.497812 -2.014243
vn -0.5485 -0.6528 0.5225
vn -0.6686 0.4178 0.6151
vn -0.5301 -0.7354 -0.4222
vn -0.8921 0.3528 -0.2821
vn 0.4870 -0.6498 0.5836
vn 0.7064 0.5353 0.4631
vn 0.4896 -0.7376 -0.4650
vn 0.3646 0.4554 -0.8122
vn -0.6538 -0.7556 0.0395
vn -0.7146 -0.1364 0.6861
vn -0.7648 0.6053 0.2205
vn -0.7597 -0.2807 -0.5865
vn -0.0811 -0.8108 -0.5797
vn -0.2952 0.6708 -0.6804
vn 0.6370 -0.3220 -0.7004
vn 0.5508 -0.8346 0.0089
vn 0.6812 0.7189 -0.1383
vn 0.6670 -0.1143 0.7362
vn -0.0366 -0.7545 0.6553
vn -0.0074 0.6051 0.7961
vn -0.9726 -0.1832 0.1429
vn -0.1560 -0.2324 -0.9600
vn 0.9528 -0.2961 0.0671
vn 0.0158 -0.1216 0.9925
vn -0.1756 -0.9826 -0.0608
vn -0.1122 0.9912 0.0708
vn -0.7104 0.1563 0.6862
vn -0.8849 -0.1029 -0.4542
vn 0.5454 -0.0898 -0.8334
vn 0.7990 0.1657 0.5781
vn -0.9470 0.0776 0.3117
vn -0.3119 0.0808 -0.9467
vn 0.9856 0.1204 -0.1189
vn 0.0160 0.1720 0.9850
vn -0.6045 -0.7626 -0.2304
vn -0.8528 0.5177 0.0691
vn 0.5966 -0.7618 -0.2524
vn 0.6435 0.7020 -0.3053
vn -0.9361 -0.3368 -0.1018
vn 0.9280 -0.2461 -0.2799
vn -0.1473 -0.9451 -0.2918
vn -0.1472 0.9619 -0.2306
vn 0.9422 0.1220 -0.3121
vn -0.9828 -0.1333 0.1280
vn 0.2000 -0.8044 -0.5594
vn -0.1286 0.6028 -0.7875
vn 0.3363 -0.7091 0.6197
vn 0.3959 0.6011 0.6942
vn 0.1273 -0.3456 -0.9297
vn 0.4084 -0.0547 0.9111
vn 0.1548 -0.9858 -0.0658
vn 0.1659 0.9858 -0.0275
vn 0.4043 0.1973 0.8931
vn -0.0958 -0.0922 -0.9911
vn 0.0749 0.9702 -0.2303
vn 0.1452 -0.9299 -0.3379
vt 0.375000 0.000000
vt 0.500000 0.000000
vt 0.500000 0.125000
vt 0.375000 0.125000
vt 0.562500 0.000000
vt 0.625000 0.000000
vt 0.625000 0.125000
vt 0.562500 0.125000
vt 0.562500 0.193505
vt 0.625000 0.193505
vt 0.625000 0.250000
vt 0.562500 0.250000
vt 0.375000 0.193505
vt 0.500000 0.193505
vt 0.500000 0.250000
vt 0.375000 0.250000
vt 0.500000 0.375000
vt 0.375000 0.375000
vt 0.625000 0.375000
vt 0.562500 0.375000
vt 0.562500 0.437500
vt 0.625000 0.437500
vt 0.625000 0.500000
vt 0.562500 0.500000
vt 0.375000 0.437500
vt 0.500000 0.437500
vt 0.500000 0.500000
vt 0.375000 0.500000
vt 0.375000 0.556495
vt 0.500000 0.556495
vt 0.500000 0.625000
vt 0.375000 0.625000
vt 0.562500 0.556495
vt 0.625000 0.556495
vt 0.625000 0.625000
vt 0.562500 0.625000
vt 0.625000 0.750000
vt 0.562500 0.750000
vt 0.500000 0.750000
vt 0.375000 0.750000
vt 0.375000 0.812500
vt 0.500000 0.812500
vt 0.500000 0.875000
vt 0.375000 0.875000
vt 0.562500 0.812500
vt 0.625000 0.812500
vt 0.625000 0.875000
vt 0.562500 0.875000
vt 0.625000 1.000000
vt 0.562500 1.000000
vt 0.500000 1.000000
vt 0.375000 1.000000
vt 0.125000 0.556496
vt 0.250000 0.556495
vt 0.250000 0.625000
vt 0.125000 0.625000
vt 0.312500 0.556495
vt 0.312500 0.625000
vt 0.312500 0.750000
vt 0.250000 0.750000
vt 0.125000 0.750000
vt 0.687500 0.556495
vt 0.750000 0.556495
vt 0.750000 0.625000
vt 0.687500 0.625000
vt 0.875000 0.556496
vt 0.875000 0.625000
vt 0.875000 0.750000
vt 0.750000 0.750000
vt 0.687500 0.750000
vt 0.750000 0.500000
vt 0.875000 0.500000
vt 0.687500 0.500000
vt 0.312500 0.500000
vt 0.125000 0.500000
vt 0.250000 0.500000
s 1
f 1/1/1 10/2/10 21/3/21 9/4/9
f 27/5/27 2/6/2 11/7/11 31/8/31
f 44/9/44 36/10/36 4/11/4 28/12/28
f 35/13/35 39/14/39 12/15/12 3/16/3
f 3/16/3 12/15/12 22/17/22 13/18/13
f 28/12/28 4/11/4 14/19/14 32/20/32
f 54/21/54 46/22/46 8/23/8 29/24/29
f 45/25/45 49/26/49 15/27/15 7/28/7
f 37/29/37 40/30/40 23/31/23 16/32/16
f 43/33/43 38/34/38 17/35/17 33/36/33
f 33/36/33 17/35/17 6/37/6 30/38/30
f 16/32/16 23/31/23 18/39/18 5/40/5
f 47/41/47 50/42/50 24/43/24 19/44/19
f 53/45/53 48/46/48 20/47/20 34/48/34
f 34/48/34 20/47/20 2/49/2 27/50/27
f 19/44/19 24/43/24 10/51/10 1/52/1
f 35/53/35 41/54/41 25/55/25 9/56/9
f 56/57/56 37/29/37 16/32/16 51/58/51
f 51/58/51 16/32/16 5/40/5 47/59/47
f 9/56/9 25/55/25 19/60/19 1/61/1
f 55/62/55 42/63/42 26/64/26 52/65/52
f 42/63/42 36/66/36 11/67/11 26/64/26
f 26/64/26 11/67/11 2/68/2 20/69/20
f 52/65/52 26/64/26 20/69/20 48/70/48
f 24/43/24 34/48/34 27/50/27 10/51/10
f 50/42/50 53/45/53 34/48/34 24/43/24
f 23/31/23 33/36/33 30/38/30 18/39/18
f 40/30/40 43/33/43 33/36/33 23/31/23
f 49/26/49 54/21/54 29/24/29 15/27/15
f 12/15/12 28/12/28 32/20/32 22/17/22
f 39/14/39 44/9/44 28/12/28 12/15/12
f 10/2/10 27/5/27 31/8/31 21/3/21
f 21/3/21 31/8/31 44/9/44 39/14/39
f 15/27/15 29/24/29 43/33/43 40/30/40
f 14/71/14 4/72/4 36/66/36 42/63/42
f 46/73/46 14/71/14 42/63/42 55/62/55
f 45/74/45 7/28/7 37/29/37 56/57/56
f 3/75/3 13/76/13 41/54/41 35/53/35
f 29/24/29 8/23/8 38/34/38 43/33/43
f 7/28/7 15/27/15 40/30/40 37/29/37
f 9/4/9 21/3/21 39/14/39 35/13/35
f 31/8/31 11/7/11 36/10/36 44/9/44
f 13/76/13 45/74/45 56/57/56 41/54/41
f 8/23/8 46/73/46 55/62/55 38/34/38
f 22/17/22 32/20/32 54/21/54 49/26/49
f 18/39/18 30/38/30 53/45/53 50/42/50
f 17/35/17 52/65/52 48/70/48 6/37/6
f 38/34/38 55/62/55 52/65/52 17/35/17
f 25/55/25 51/58/51 47/59/47 19/60/19
f 41/54/41 56/57/56 51/58/51 25/55/25
f 30/38/30 6/37/6 48/46/48 53/45/53
f 5/40/5 18/39/18 50/42/50 47/41/47
f 13/18/13 22/17/22 49/26/49 45/25/45
f 32/20/32 14/19/14 46/22/46 54/21/54
