# Blender 5.2.2 LTS
# www.blender.org
o rock_medium_2
v -0.069170 -0.850420 4.062756
v 0.250465 -0.687738 4.345160
v -1.037286 -0.785669 4.794378
v 0.745255 1.489621 5.950606
v 0.096033 2.034827 5.545456
v -1.050828 1.280878 5.371979
v -4.058837 -0.857598 -0.926152
v -4.959245 -0.726977 -0.248209
v -4.943410 -0.779483 -2.256663
v -4.072560 1.006995 -0.925423
v -4.966417 0.876166 -2.257923
v -4.965904 0.867327 -0.235374
v 4.009239 -0.934385 0.999485
v 4.247474 -0.493987 -0.455021
v 4.099968 -0.596307 1.422522
v 4.033583 1.541135 1.003429
v 4.835421 1.098454 2.067521
v 4.950340 1.070230 0.273226
v -0.250592 -0.815636 -3.459854
v -0.953905 -0.739741 -5.020520
v 0.603238 -0.657304 -4.008499
v -0.254156 1.060183 -3.456791
v 0.602435 0.912087 -4.010054
v -0.961464 0.917905 -5.022145
v -1.206795 -0.837209 -2.993470
v -2.090477 -0.857066 -2.487385
v -3.096785 -0.861620 -1.752978
v -4.177342 -0.786096 -3.102503
v -3.188572 -0.774979 -3.823984
v -2.195700 -0.758154 -4.453375
v -3.111484 1.016849 -1.719686
v -2.041249 1.057489 -2.400647
v -1.165806 1.074438 -2.936537
v -2.219222 0.899156 -4.458434
v -3.226966 0.882016 -3.832241
v -4.216078 0.871391 -3.109270
v 0.721981 -0.880501 3.532831
v 1.770956 -0.940965 2.759715
v 2.823153 -1.011596 1.712523
v 2.960563 -0.743139 2.107517
v 1.904768 -0.700950 3.134532
v 1.061533 -0.578543 3.866792
v 3.121569 2.032293 2.632271
v 2.286521 2.035736 3.806349
v 1.338704 2.039694 4.850523
v 1.950129 1.505767 5.204854
v 2.931779 1.434836 4.198613
v 3.814888 1.328598 3.071636
v -3.128522 -0.830919 0.418721
v -2.208055 -0.865170 1.783136
v -1.030433 -0.989661 3.230930
v -1.952613 -0.794862 3.810889
v -3.108596 -0.725662 2.465358
v -4.035297 -0.700701 1.097944
v -0.935563 2.007569 4.166999
v -2.076521 1.711437 2.490249
v -3.064344 1.272717 0.657483
v -4.040099 0.831561 0.973408
v -3.123226 0.980572 2.460169
v -1.999019 1.197751 4.053596
v 3.006132 -0.932491 -0.141405
v 1.829841 -0.837464 -1.031518
v 0.719562 -0.797431 -2.060100
v 1.531242 -0.614799 -2.567192
v 2.667091 -0.611553 -1.581293
v 3.881322 -0.660693 -0.756916
v 0.751735 1.291318 -2.039627
v 1.822408 1.350771 -1.035418
v 2.997789 1.437334 -0.140477
v 3.879043 1.008563 -0.794396
v 2.661165 0.940211 -1.613960
v 1.520104 0.909215 -2.595384
v 0.051621 1.368816 -1.440847
v 1.024304 1.469689 -0.298799
v 2.138029 1.935039 1.307612
v -0.717286 1.277625 -0.885772
v 0.343906 1.793210 1.172066
v 1.271823 1.994123 2.477021
v -1.873249 1.200238 -0.006523
v -0.831302 1.696361 1.873698
v 0.276476 2.026735 3.484981
v -2.049683 -0.836029 -0.395544
v -1.124102 -0.872812 0.966672
v -0.113200 -0.967604 2.394501
v -1.008042 -0.844331 -1.161296
v -0.043510 -0.891192 0.121603
v 0.932600 -0.994862 1.478851
v -0.138491 -0.836605 -1.645686
v 0.910846 -0.898793 -0.506245
v 1.983298 -1.009122 0.580358
v 0.690489 0.323227 5.657616
v -1.015896 0.264746 5.102031
v -4.992546 0.088345 -2.687320
v -4.963788 0.039903 -0.234999
v 0.664777 0.077152 -4.109929
v -0.670872 0.133730 -5.443766
v 4.630924 0.183028 1.918870
v 4.710855 0.209239 0.012471
v -4.224711 0.085921 -3.520989
v -3.235005 0.096772 -4.243615
v -2.045476 0.115126 -4.856599
v 3.681866 0.095538 2.905501
v 2.798970 0.157700 4.025560
v 1.803072 0.241321 4.947217
v 1.595208 0.079051 -2.748783
v 2.705946 0.106379 -1.723970
v 3.892537 0.125602 -0.852529
v -1.905108 0.166365 3.961305
v -3.124186 0.107030 2.500551
v -4.042657 0.052691 1.088760
vn 0.0961 -0.9757 0.1967
vn 0.2118 -0.8482 0.4855
vn -0.1966 -0.8668 0.4583
vn 0.1197 0.2937 0.9484
vn -0.1006 0.9415 0.3216
vn -0.5998 0.2780 0.7503
vn -0.0584 -0.9981 0.0216
vn -0.4851 -0.8566 0.1760
vn -0.3932 -0.9106 -0.1272
vn -0.1224 0.9923 -0.0207
vn -0.4207 0.8957 -0.1437
vn -0.5745 0.7979 0.1822
vn 0.3389 -0.9386 0.0642
vn 0.7196 -0.5954 -0.3574
vn 0.6553 -0.6854 0.3174
vn 0.3191 0.9402 -0.1191
vn 0.8248 0.4844 0.2915
vn 0.6918 0.6602 -0.2924
vn 0.0670 -0.9961 -0.0573
vn 0.0640 -0.9127 -0.4035
vn 0.3881 -0.8615 -0.3273
vn 0.0388 0.9899 -0.1365
vn 0.3930 0.8341 -0.3871
vn 0.0478 0.9032 -0.4265
vn 0.0056 -0.9996 -0.0293
vn -0.0038 -0.9998 -0.0219
vn -0.0117 -0.9999 -0.0123
vn -0.2215 -0.9432 -0.2475
vn -0.1689 -0.9458 -0.2774
vn -0.1401 -0.9417 -0.3059
vn -0.0643 0.9956 -0.0688
vn -0.0819 0.9946 -0.0640
vn -0.0665 0.9937 -0.0902
vn -0.1778 0.9287 -0.3254
vn -0.2111 0.9316 -0.2958
vn -0.2550 0.9285 -0.2700
vn 0.1261 -0.9716 0.2003
vn 0.1248 -0.9727 0.1954
vn 0.1295 -0.9811 0.1435
vn 0.3983 -0.8009 0.4472
vn 0.3399 -0.8320 0.4384
vn 0.2973 -0.8453 0.4440
vn 0.2160 0.9761 0.0226
vn 0.1751 0.9770 0.1215
vn 0.1422 0.9737 0.1782
vn 0.5605 0.4563 0.6911
vn 0.6818 0.4533 0.5741
vn 0.7068 0.5532 0.4409
vn -0.0503 -0.9982 0.0319
vn -0.0774 -0.9969 0.0108
vn -0.0430 -0.9978 0.0514
vn -0.3537 -0.8853 0.3018
vn -0.4178 -0.8648 0.2785
vn -0.3982 -0.8770 0.2688
vn -0.2395 0.9678 0.0775
vn -0.2791 0.9602 -0.0106
vn -0.2071 0.9775 -0.0392
vn -0.6210 0.7109 0.3301
vn -0.7294 0.5637 0.3876
vn -0.7430 0.4605 0.4858
vn 0.1072 -0.9849 -0.1362
vn 0.0640 -0.9879 -0.1412
vn 0.0774 -0.9940 -0.0779
vn 0.3680 -0.8728 -0.3206
vn 0.3237 -0.8315 -0.4514
vn 0.3629 -0.8495 -0.3829
vn 0.0832 0.9803 -0.1793
vn 0.1161 0.9623 -0.2460
vn 0.1535 0.9480 -0.2788
vn 0.4325 0.7118 -0.5534
vn 0.4026 0.7256 -0.5581
vn 0.4356 0.7876 -0.4358
vn -0.0428 0.9917 -0.1210
vn -0.0089 0.9852 -0.1714
vn 0.0323 0.9853 -0.1675
vn -0.1076 0.9885 -0.1066
vn -0.1035 0.9834 -0.1488
vn -0.0473 0.9958 -0.0782
vn -0.0958 0.9874 -0.1263
vn -0.1079 0.9827 -0.1503
vn -0.0445 0.9972 -0.0601
vn -0.0070 -1.0000 -0.0012
vn -0.0313 -0.9991 -0.0285
vn -0.0085 -0.9999 0.0090
vn -0.0053 -0.9999 -0.0097
vn -0.0345 -0.9989 -0.0317
vn -0.0272 -0.9996 0.0004
vn 0.0095 -0.9996 -0.0273
vn -0.0111 -0.9980 -0.0616
vn -0.0023 -0.9991 -0.0421
vn 0.1527 -0.5354 0.8307
vn -0.4859 -0.3296 0.8095
vn -0.9268 -0.0012 -0.3756
vn -0.9486 0.0040 0.3166
vn 0.7415 -0.0187 -0.6707
vn 0.2170 0.0222 -0.9759
vn 0.7977 -0.4951 0.3444
vn 0.9022 -0.2540 -0.3486
vn -0.6632 -0.0003 -0.7484
vn -0.5391 0.0038 -0.8422
vn -0.4435 0.0100 -0.8962
vn 0.5803 -0.5958 0.5552
vn 0.5449 -0.6188 0.5659
vn 0.4587 -0.6283 0.6283
vn 0.7579 -0.0237 -0.6520
vn 0.6215 -0.0240 -0.7830
vn 0.6444 -0.0170 -0.7645
vn -0.7731 -0.0960 0.6270
vn -0.8093 -0.0186 0.5872
vn -0.8276 0.0156 0.5611
vt 0.162057 0.712943
vt 0.162057 0.750000
vt 0.125000 0.712943
vt 0.587943 0.000000
vt 0.625000 0.037057
vt 0.587943 0.037057
vt 0.162057 0.537057
vt 0.125000 0.537057
vt 0.162057 0.500000
vt 0.625000 0.237648
vt 0.587943 0.277792
vt 0.587943 0.212943
vt 0.337943 0.712943
vt 0.402792 0.712943
vt 0.375000 0.768528
vt 0.643528 0.750000
vt 0.587943 0.787057
vt 0.587943 0.722208
vt 0.337943 0.537057
vt 0.375000 0.481472
vt 0.402792 0.537057
vt 0.643528 0.500000
vt 0.587943 0.527792
vt 0.587943 0.462943
vt 0.162057 0.668972
vt 0.125000 0.668972
vt 0.500000 0.000000
vt 0.500000 0.037057
vt 0.625000 0.187500
vt 0.587943 0.168972
vt 0.500000 0.282425
vt 0.412057 0.287057
vt 0.412057 0.212943
vt 0.500000 0.212943
vt 0.206028 0.537057
vt 0.215292 0.495368
vt 0.638896 0.434412
vt 0.587943 0.416656
vt 0.495368 0.532425
vt 0.481472 0.472208
vt 0.337943 0.581028
vt 0.402792 0.581028
vt 0.643528 0.687500
vt 0.587943 0.673604
vt 0.481472 0.777792
vt 0.495368 0.717576
vt 0.293972 0.712943
vt 0.321764 0.763896
vt 0.629632 0.909708
vt 0.625000 0.962943
vt 0.587943 0.962943
vt 0.587943 0.918972
vt 0.293972 0.668972
vt 0.337943 0.668972
vt 0.500000 0.168972
vt 0.495368 0.916656
vt 0.500000 0.962943
vt 0.789340 0.673604
vt 0.837943 0.668972
vt 0.837943 0.712943
vt 0.789340 0.722208
vt 0.486104 0.424762
vt 0.495368 0.671288
vt 0.587943 0.324080
vt 0.495368 0.329870
vt 0.587943 0.370368
vt 0.490736 0.377316
vt 0.692132 0.682868
vt 0.692132 0.740736
vt 0.740736 0.678236
vt 0.740736 0.731472
vt 0.587943 0.831028
vt 0.486104 0.824080
vt 0.587943 0.875000
vt 0.490736 0.870368
vt 0.206028 0.668972
vt 0.206028 0.712943
vt 0.250000 0.668972
vt 0.250000 0.712943
vt 0.638896 0.803236
vt 0.634264 0.856472
vt 0.215292 0.754632
vt 0.268528 0.759264
vt 0.629632 0.303236
vt 0.634264 0.368824
vt 0.293972 0.537057
vt 0.321764 0.486104
vt 0.250000 0.537057
vt 0.268528 0.490736
vt 0.293972 0.581028
vt 0.250000 0.581028
vt 0.293972 0.625000
vt 0.250000 0.625000
vt 0.206028 0.581028
vt 0.206028 0.625000
vt 0.162057 0.581028
vt 0.162057 0.625000
vt 0.740736 0.518528
vt 0.789340 0.527792
vt 0.789340 0.576396
vt 0.740736 0.571764
vt 0.789340 0.625000
vt 0.740736 0.625000
vt 0.692132 0.509264
vt 0.692132 0.567132
vt 0.692132 0.625000
vt 0.643528 0.562500
vt 0.643528 0.625000
vt 0.587943 0.576396
vt 0.495368 0.578712
vt 0.587943 0.625000
vt 0.495368 0.625000
vt 0.837944 0.537057
vt 0.837943 0.581028
vt 0.837943 0.625000
vt 0.587943 0.081028
vt 0.500000 0.081028
vt 0.587943 0.125000
vt 0.500000 0.125000
vt 0.337943 0.625000
vt 0.402792 0.668972
vt 0.402792 0.625000
vt 0.625000 0.087204
vt 0.625000 0.137352
vt 0.125000 0.581028
vt 0.125000 0.625000
vt 0.412057 0.125000
vt 0.412057 0.168972
vt 0.412057 0.081028
vt 0.412057 0.037057
vt 0.393528 0.865736
vt 0.402792 0.914340
vt 0.384264 0.817132
vt 0.393528 0.384264
vt 0.384264 0.432868
vt 0.402792 0.335660
vt 0.412057 0.962944
vt 0.412057 0.000000
s 1
f 1/1/1 2/2/2 3/3/3
f 4/4/4 5/5/5 6/6/6
f 7/7/7 8/8/8 9/9/9
f 10/10/10 11/11/11 12/12/12
f 13/13/13 14/14/14 15/15/15
f 16/16/16 17/17/17 18/18/18
f 19/19/19 20/20/20 21/21/21
f 22/22/22 23/23/23 24/24/24
f 51/25/51 1/1/1 3/3/3 52/26/52
f 91/27/91 4/4/4 6/6/6 92/28/92
f 57/29/57 10/10/10 12/12/12 58/30/58
f 93/31/93 9/32/9 8/33/8 94/34/94
f 27/35/27 7/7/7 9/9/9 28/36/28
f 33/37/33 22/22/22 24/24/24 34/38/34
f 95/39/95 21/21/21 20/20/20 96/40/96
f 63/41/63 19/19/19 21/21/21 64/42/64
f 69/43/69 16/16/16 18/18/18 70/44/70
f 97/45/97 15/15/15 14/14/14 98/46/98
f 39/47/39 13/13/13 15/15/15 40/48/40
f 45/49/45 5/50/5 4/51/4 46/52/46
f 90/53/90 61/54/61 13/13/13 39/47/39
f 110/55/110 58/30/58 12/12/12 94/34/94
f 104/56/104 46/52/46 4/51/4 91/57/91
f 81/58/81 55/59/55 5/60/5 45/61/45
f 101/62/101 34/38/34 24/24/24 96/40/96
f 107/63/107 70/44/70 18/18/18 98/46/98
f 93/31/93 11/11/11 36/64/36 99/65/99
f 99/65/99 36/64/36 35/66/35 100/67/100
f 100/67/100 35/66/35 34/38/34 101/62/101
f 69/43/69 75/68/75 43/69/43 16/16/16
f 75/68/75 78/70/78 44/71/44 43/69/43
f 78/70/78 81/58/81 45/61/45 44/71/44
f 97/45/97 17/17/17 48/72/48 102/73/102
f 102/73/102 48/72/48 47/74/47 103/75/103
f 103/75/103 47/74/47 46/52/46 104/56/104
f 51/25/51 84/76/84 37/77/37 1/1/1
f 84/76/84 87/78/87 38/79/38 37/77/37
f 87/78/87 90/53/90 39/47/39 38/79/38
f 16/16/16 43/80/43 48/72/48 17/17/17
f 43/80/43 44/81/44 47/74/47 48/72/48
f 44/81/44 45/49/45 46/52/46 47/74/47
f 1/1/1 37/77/37 42/82/42 2/2/2
f 37/77/37 38/79/38 41/83/41 42/82/42
f 38/79/38 39/47/39 40/48/40 41/83/41
f 10/10/10 31/84/31 36/64/36 11/11/11
f 31/84/31 32/85/32 35/66/35 36/64/36
f 32/85/32 33/37/33 34/38/34 35/66/35
f 19/19/19 25/86/25 30/87/30 20/20/20
f 25/86/25 26/88/26 29/89/29 30/87/30
f 26/88/26 27/35/27 28/36/28 29/89/29
f 26/88/26 25/86/25 88/90/88 85/91/85
f 85/91/85 88/90/88 89/92/89 86/93/86
f 86/93/86 89/92/89 90/53/90 87/78/87
f 27/35/27 26/88/26 85/91/85 82/94/82
f 82/94/82 85/91/85 86/93/86 83/95/83
f 83/95/83 86/93/86 87/78/87 84/76/84
f 7/7/7 27/35/27 82/94/82 49/96/49
f 49/96/49 82/94/82 83/95/83 50/97/50
f 50/97/50 83/95/83 84/76/84 51/25/51
f 32/98/32 31/99/31 79/100/79 76/101/76
f 76/101/76 79/100/79 80/102/80 77/103/77
f 77/103/77 80/102/80 81/58/81 78/70/78
f 33/104/33 32/98/32 76/101/76 73/105/73
f 73/105/73 76/101/76 77/103/77 74/106/74
f 74/106/74 77/103/77 78/70/78 75/68/75
f 22/22/22 33/104/33 73/105/73 67/107/67
f 67/107/67 73/105/73 74/106/74 68/108/68
f 68/108/68 74/106/74 75/68/75 69/43/69
f 95/39/95 23/23/23 72/109/72 105/110/105
f 105/110/105 72/109/72 71/111/71 106/112/106
f 106/112/106 71/111/71 70/44/70 107/63/107
f 31/99/31 10/113/10 57/114/57 79/100/79
f 79/100/79 57/114/57 56/115/56 80/102/80
f 80/102/80 56/115/56 55/59/55 81/58/81
f 92/28/92 6/6/6 60/116/60 108/117/108
f 108/117/108 60/116/60 59/118/59 109/119/109
f 109/119/109 59/118/59 58/30/58 110/55/110
f 25/86/25 19/19/19 63/41/63 88/90/88
f 88/90/88 63/41/63 62/120/62 89/92/89
f 89/92/89 62/120/62 61/54/61 90/53/90
f 22/22/22 67/107/67 72/109/72 23/23/23
f 67/107/67 68/108/68 71/111/71 72/109/72
f 68/108/68 69/43/69 70/44/70 71/111/71
f 13/13/13 61/54/61 66/121/66 14/14/14
f 61/54/61 62/120/62 65/122/65 66/121/66
f 62/120/62 63/41/63 64/42/64 65/122/65
f 5/5/5 55/123/55 60/116/60 6/6/6
f 55/123/55 56/124/56 59/118/59 60/116/60
f 56/124/56 57/29/57 58/30/58 59/118/59
f 7/7/7 49/96/49 54/125/54 8/8/8
f 49/96/49 50/97/50 53/126/53 54/125/54
f 50/97/50 51/25/51 52/26/52 53/126/53
f 53/127/53 109/119/109 110/55/110 54/128/54
f 52/129/52 108/117/108 109/119/109 53/127/53
f 3/130/3 92/28/92 108/117/108 52/129/52
f 65/122/65 106/112/106 107/63/107 66/121/66
f 64/42/64 105/110/105 106/112/106 65/122/65
f 21/21/21 95/39/95 105/110/105 64/42/64
f 41/131/41 103/75/103 104/56/104 42/132/42
f 40/133/40 102/73/102 103/75/103 41/131/41
f 15/15/15 97/45/97 102/73/102 40/133/40
f 29/134/29 100/67/100 101/62/101 30/135/30
f 28/136/28 99/65/99 100/67/100 29/134/29
f 9/32/9 93/31/93 99/65/99 28/136/28
f 66/121/66 107/63/107 98/46/98 14/14/14
f 30/135/30 101/62/101 96/40/96 20/20/20
f 42/132/42 104/56/104 91/57/91 2/137/2
f 54/128/54 110/55/110 94/34/94 8/33/8
f 17/17/17 97/45/97 98/46/98 18/18/18
f 23/23/23 95/39/95 96/40/96 24/24/24
f 11/11/11 93/31/93 94/34/94 12/12/12
f 2/138/2 91/27/91 92/28/92 3/130/3
